<svg xmlns="http://www.w3.org/2000/svg" xmlns:xlink="http://www.w3.org/1999/xlink" width="500" zoomAndPan="magnify" viewBox="0 0 375 374.999991" height="500" preserveAspectRatio="xMidYMid meet" version="1.0"><path fill="#caddff" d="M 92.667969 37.355469 C 160.5 0.0078125 251.371094 38.808594 298.726562 81.828125 C 312.253906 94.113281 345.054688 124.769531 352.796875 173.90625 C 362.421875 234.9375 330.925781 308.917969 258.699219 340.558594 C 180.082031 375.003906 92.179688 342.359375 51.035156 289.375 C 12.558594 239.820312 20.261719 181.472656 23.011719 160.625 C 26.238281 136.171875 35.839844 68.648438 92.667969 37.355469 " fill-opacity="1" fill-rule="nonzero"/><path fill="#ffffff" d="M 301.058594 356.195312 L 282.40625 356.195312 L 282.40625 126.910156 L 300.871094 125.605469 L 301.058594 356.195312 " fill-opacity="1" fill-rule="nonzero"/><path fill="#000000" d="M 283.011719 355.589844 L 300.457031 355.589844 L 300.273438 126.25 L 283.011719 127.46875 Z M 301.0625 356.796875 L 282.40625 356.796875 C 282.074219 356.796875 281.804688 356.527344 281.804688 356.195312 L 281.804688 126.90625 C 281.804688 126.589844 282.046875 126.328125 282.367188 126.304688 L 300.832031 125 C 301 124.988281 301.164062 125.046875 301.285156 125.160156 C 301.410156 125.273438 301.476562 125.433594 301.476562 125.601562 L 301.664062 356.195312 C 301.664062 356.355469 301.601562 356.507812 301.492188 356.621094 C 301.375 356.734375 301.222656 356.796875 301.0625 356.796875 " fill-opacity="1" fill-rule="nonzero"/><path fill="#19598f" d="M 351.074219 356.195312 L 301.0625 356.195312 C 300.957031 356.195312 300.875 356.078125 300.875 355.933594 L 300.875 125.875 C 300.875 125.726562 300.960938 125.609375 301.066406 125.617188 L 351.082031 128.253906 C 351.183594 128.257812 351.261719 128.375 351.261719 128.511719 L 351.261719 355.933594 C 351.261719 356.078125 351.179688 356.195312 351.074219 356.195312 " fill-opacity="1" fill-rule="nonzero"/><path fill="#000000" d="M 301.476562 355.589844 L 350.65625 355.589844 L 350.65625 128.839844 L 301.476562 126.242188 Z M 351.074219 356.796875 L 301.058594 356.796875 C 300.617188 356.796875 300.269531 356.417969 300.269531 355.933594 L 300.269531 125.875 C 300.269531 125.621094 300.367188 125.382812 300.539062 125.222656 C 300.695312 125.074219 300.898438 125 301.097656 125.011719 L 351.113281 127.652344 C 351.535156 127.675781 351.863281 128.050781 351.863281 128.515625 L 351.863281 355.933594 C 351.863281 356.417969 351.515625 356.796875 351.074219 356.796875 " fill-opacity="1" fill-rule="nonzero"/><path fill="#caddff" d="M 334.660156 236.59375 C 334.324219 236.59375 334.054688 236.324219 334.054688 235.992188 L 334.054688 142.878906 C 334.054688 142.546875 334.324219 142.277344 334.660156 142.277344 C 334.992188 142.277344 335.261719 142.546875 335.261719 142.878906 L 335.261719 235.992188 C 335.261719 236.324219 334.992188 236.59375 334.660156 236.59375 " fill-opacity="1" fill-rule="nonzero"/><path fill="#caddff" d="M 318.835938 203.417969 C 318.503906 203.417969 318.234375 203.148438 318.234375 202.8125 L 318.234375 175.34375 C 318.234375 175.011719 318.503906 174.742188 318.835938 174.742188 C 319.171875 174.742188 319.441406 175.011719 319.441406 175.34375 L 319.441406 202.8125 C 319.441406 203.148438 319.171875 203.417969 318.835938 203.417969 " fill-opacity="1" fill-rule="nonzero"/><path fill="#caddff" d="M 318.835938 297.609375 C 318.503906 297.609375 318.234375 297.335938 318.234375 297.003906 L 318.234375 249.601562 C 318.234375 249.269531 318.503906 249 318.835938 249 C 319.171875 249 319.441406 249.269531 319.441406 249.601562 L 319.441406 297.003906 C 319.441406 297.335938 319.171875 297.609375 318.835938 297.609375 " fill-opacity="1" fill-rule="nonzero"/><path fill="#ffffff" d="M 238.164062 356.21875 L 219.59375 356.21875 L 219.59375 185.046875 L 238.0625 179.210938 L 238.164062 356.21875 " fill-opacity="1" fill-rule="nonzero"/><path fill="#000000" d="M 220.199219 355.617188 L 237.558594 355.617188 L 237.457031 180.035156 L 220.199219 185.488281 Z M 238.164062 356.824219 L 219.59375 356.824219 C 219.261719 356.824219 218.992188 356.554688 218.992188 356.21875 L 218.992188 185.046875 C 218.992188 184.78125 219.164062 184.546875 219.414062 184.46875 L 237.878906 178.632812 C 238.0625 178.578125 238.261719 178.609375 238.417969 178.722656 C 238.574219 178.835938 238.664062 179.019531 238.664062 179.210938 L 238.765625 356.21875 C 238.765625 356.378906 238.703125 356.53125 238.589844 356.648438 C 238.476562 356.761719 238.320312 356.824219 238.164062 356.824219 " fill-opacity="1" fill-rule="nonzero"/><path fill="#19598f" d="M 288.261719 356.21875 L 238.25 356.21875 C 238.144531 356.21875 238.058594 356.132812 238.058594 356.019531 L 238.058594 179.417969 C 238.058594 179.308594 238.148438 179.214844 238.253906 179.21875 L 288.265625 181.246094 C 288.367188 181.25 288.449219 181.339844 288.449219 181.445312 L 288.449219 356.019531 C 288.449219 356.132812 288.363281 356.21875 288.261719 356.21875 " fill-opacity="1" fill-rule="nonzero"/><path fill="#000000" d="M 238.664062 355.617188 L 287.84375 355.617188 L 287.84375 181.832031 L 238.664062 179.839844 Z M 288.261719 356.824219 L 238.25 356.824219 C 237.8125 356.824219 237.460938 356.464844 237.460938 356.019531 L 237.460938 179.417969 C 237.460938 179.199219 237.546875 178.984375 237.707031 178.832031 C 237.859375 178.6875 238.066406 178.609375 238.28125 178.617188 L 288.292969 180.640625 C 288.722656 180.660156 289.054688 181.011719 289.054688 181.445312 L 289.054688 356.019531 C 289.054688 356.464844 288.699219 356.824219 288.261719 356.824219 " fill-opacity="1" fill-rule="nonzero"/><path fill="#caddff" d="M 263.269531 271.898438 C 262.933594 271.898438 262.664062 271.628906 262.664062 271.292969 L 262.664062 192.886719 C 262.664062 192.550781 262.933594 192.285156 263.269531 192.285156 C 263.597656 192.285156 263.871094 192.550781 263.871094 192.886719 L 263.871094 271.292969 C 263.871094 271.628906 263.597656 271.898438 263.269531 271.898438 " fill-opacity="1" fill-rule="nonzero"/><path fill="#caddff" d="M 250.0625 219.078125 C 249.730469 219.078125 249.457031 218.808594 249.457031 218.472656 L 249.457031 205.105469 C 249.457031 204.773438 249.730469 204.503906 250.0625 204.503906 C 250.394531 204.503906 250.667969 204.773438 250.667969 205.105469 L 250.667969 218.472656 C 250.667969 218.808594 250.394531 219.078125 250.0625 219.078125 " fill-opacity="1" fill-rule="nonzero"/><path fill="#caddff" d="M 250.0625 307.75 C 249.730469 307.75 249.457031 307.480469 249.457031 307.148438 L 249.457031 240.578125 C 249.457031 240.242188 249.730469 239.972656 250.0625 239.972656 C 250.394531 239.972656 250.667969 240.242188 250.667969 240.578125 L 250.667969 307.148438 C 250.667969 307.480469 250.394531 307.75 250.0625 307.75 " fill-opacity="1" fill-rule="nonzero"/><path fill="#caddff" d="M 276.46875 245.425781 C 276.136719 245.425781 275.867188 245.15625 275.867188 244.820312 L 275.867188 231.457031 C 275.867188 231.121094 276.136719 230.851562 276.46875 230.851562 C 276.804688 230.851562 277.074219 231.121094 277.074219 231.457031 L 277.074219 244.820312 C 277.074219 245.15625 276.804688 245.425781 276.46875 245.425781 " fill-opacity="1" fill-rule="nonzero"/><path fill="#ffffff" d="M 175.707031 356.21875 L 157.238281 356.21875 L 157.238281 257.835938 L 175.707031 253.789062 L 175.707031 356.21875 " fill-opacity="1" fill-rule="nonzero"/><path fill="#000000" d="M 157.84375 355.617188 L 175.101562 355.617188 L 175.101562 254.539062 L 157.84375 258.324219 Z M 175.707031 356.824219 L 157.238281 356.824219 C 156.90625 356.824219 156.636719 356.554688 156.636719 356.21875 L 156.636719 257.835938 C 156.636719 257.554688 156.835938 257.308594 157.109375 257.246094 L 175.578125 253.199219 C 175.757812 253.160156 175.941406 253.203125 176.085938 253.320312 C 176.226562 253.433594 176.308594 253.605469 176.308594 253.789062 L 176.308594 356.21875 C 176.308594 356.554688 176.039062 356.824219 175.707031 356.824219 " fill-opacity="1" fill-rule="nonzero"/><path fill="#19598f" d="M 226.09375 356.21875 L 175.707031 356.21875 L 175.707031 254.003906 C 175.707031 253.886719 175.804688 253.792969 175.921875 253.796875 L 226.09375 255.476562 L 226.09375 356.21875 " fill-opacity="1" fill-rule="nonzero"/><path fill="#000000" d="M 176.308594 355.617188 L 225.488281 355.617188 L 225.488281 256.0625 L 176.308594 254.414062 Z M 226.699219 356.824219 L 175.101562 356.824219 L 175.101562 254.003906 C 175.101562 253.785156 175.191406 253.574219 175.347656 253.421875 C 175.507812 253.269531 175.714844 253.183594 175.941406 253.191406 L 226.699219 254.894531 L 226.699219 356.824219 " fill-opacity="1" fill-rule="nonzero"/><path fill="#caddff" d="M 189.101562 327.660156 C 188.765625 327.660156 188.496094 327.386719 188.496094 327.054688 L 188.496094 266.027344 C 188.496094 265.695312 188.765625 265.425781 189.101562 265.425781 C 189.433594 265.425781 189.703125 265.695312 189.703125 266.027344 L 189.703125 327.054688 C 189.703125 327.386719 189.433594 327.660156 189.101562 327.660156 " fill-opacity="1" fill-rule="nonzero"/><path fill="#caddff" d="M 215.507812 334.796875 C 215.175781 334.796875 214.90625 334.523438 214.90625 334.191406 L 214.90625 273.167969 C 214.90625 272.832031 215.175781 272.5625 215.507812 272.5625 C 215.84375 272.5625 216.113281 272.832031 216.113281 273.167969 L 216.113281 334.191406 C 216.113281 334.523438 215.84375 334.796875 215.507812 334.796875 " fill-opacity="1" fill-rule="nonzero"/><path fill="#caddff" d="M 202.304688 310.886719 C 201.96875 310.886719 201.699219 310.613281 201.699219 310.28125 L 201.699219 297.789062 C 201.699219 297.457031 201.96875 297.1875 202.304688 297.1875 C 202.636719 297.1875 202.90625 297.457031 202.90625 297.789062 L 202.90625 310.28125 C 202.90625 310.613281 202.636719 310.886719 202.304688 310.886719 " fill-opacity="1" fill-rule="nonzero"/><path fill="#ffffff" d="M 113.605469 356.21875 L 94.964844 356.21875 L 94.964844 307.425781 L 113.429688 303.785156 L 113.605469 356.21875 " fill-opacity="1" fill-rule="nonzero"/><path fill="#000000" d="M 95.570312 355.617188 L 113 355.617188 L 112.828125 304.519531 L 95.570312 307.921875 Z M 113.605469 356.824219 L 94.964844 356.824219 C 94.632812 356.824219 94.363281 356.554688 94.363281 356.21875 L 94.363281 307.425781 C 94.363281 307.136719 94.566406 306.890625 94.847656 306.835938 L 113.3125 303.191406 C 113.492188 303.15625 113.675781 303.203125 113.816406 303.320312 C 113.953125 303.433594 114.035156 303.601562 114.035156 303.78125 L 114.210938 356.21875 C 114.210938 356.378906 114.148438 356.53125 114.035156 356.648438 C 113.921875 356.757812 113.765625 356.824219 113.605469 356.824219 " fill-opacity="1" fill-rule="nonzero"/><path fill="#19598f" d="M 163.644531 356.21875 L 113.605469 356.21875 C 113.511719 356.21875 113.429688 356.140625 113.429688 356.046875 L 113.429688 303.964844 C 113.429688 303.863281 113.511719 303.785156 113.609375 303.789062 L 163.648438 304.605469 C 163.742188 304.605469 163.816406 304.683594 163.816406 304.78125 L 163.816406 356.046875 C 163.816406 356.140625 163.738281 356.21875 163.644531 356.21875 " fill-opacity="1" fill-rule="nonzero"/><path fill="#000000" d="M 114.035156 355.617188 L 163.214844 355.617188 L 163.214844 305.203125 L 114.035156 304.398438 Z M 163.644531 356.824219 L 113.605469 356.824219 C 113.175781 356.824219 112.828125 356.472656 112.828125 356.046875 L 112.828125 303.964844 C 112.828125 303.753906 112.910156 303.554688 113.058594 303.40625 C 113.210938 303.261719 113.414062 303.179688 113.621094 303.183594 L 163.65625 304 C 164.082031 304.007812 164.421875 304.359375 164.421875 304.78125 L 164.421875 356.046875 C 164.421875 356.472656 164.074219 356.824219 163.644531 356.824219 " fill-opacity="1" fill-rule="nonzero"/><path fill="#caddff" d="M 148.589844 344.429688 C 148.257812 344.429688 147.988281 344.160156 147.988281 343.828125 L 147.988281 312.78125 C 147.988281 312.445312 148.257812 312.175781 148.589844 312.175781 C 148.925781 312.175781 149.195312 312.445312 149.195312 312.78125 L 149.195312 343.828125 C 149.195312 344.160156 148.925781 344.429688 148.589844 344.429688 " fill-opacity="1" fill-rule="nonzero"/><path fill="#caddff" d="M 132.769531 333.367188 C 132.433594 333.367188 132.164062 333.097656 132.164062 332.765625 L 132.164062 323.605469 C 132.164062 323.269531 132.433594 323 132.769531 323 C 133.101562 323 133.375 323.269531 133.375 323.605469 L 133.375 332.765625 C 133.375 333.097656 133.101562 333.367188 132.769531 333.367188 " fill-opacity="1" fill-rule="nonzero"/><path fill="#ffffff" d="M 51.480469 356.21875 L 32.839844 356.21875 L 32.839844 330.667969 L 51.304688 327.550781 L 51.480469 356.21875 " fill-opacity="1" fill-rule="nonzero"/><path fill="#000000" d="M 33.445312 355.617188 L 50.875 355.617188 L 50.707031 328.261719 L 33.445312 331.175781 Z M 51.480469 356.824219 L 32.839844 356.824219 C 32.507812 356.824219 32.238281 356.554688 32.238281 356.21875 L 32.238281 330.667969 C 32.238281 330.371094 32.449219 330.121094 32.738281 330.070312 L 51.207031 326.953125 C 51.378906 326.925781 51.558594 326.972656 51.695312 327.085938 C 51.828125 327.203125 51.910156 327.371094 51.910156 327.546875 L 52.085938 356.21875 C 52.085938 356.378906 52.023438 356.53125 51.910156 356.648438 C 51.796875 356.757812 51.644531 356.824219 51.480469 356.824219 " fill-opacity="1" fill-rule="nonzero"/><path fill="#19598f" d="M 101.519531 356.21875 L 51.480469 356.21875 C 51.382812 356.21875 51.304688 356.175781 51.304688 356.125 L 51.304688 327.648438 C 51.304688 327.59375 51.386719 327.550781 51.484375 327.554688 L 101.519531 328 C 101.617188 328 101.695312 328.042969 101.695312 328.09375 L 101.695312 356.125 C 101.695312 356.175781 101.617188 356.21875 101.519531 356.21875 " fill-opacity="1" fill-rule="nonzero"/><path fill="#000000" d="M 51.910156 355.617188 L 101.089844 355.617188 L 101.089844 328.597656 L 51.910156 328.160156 Z M 101.519531 356.824219 L 51.480469 356.824219 C 51.042969 356.824219 50.703125 356.515625 50.703125 356.125 L 50.703125 327.648438 C 50.703125 327.46875 50.773438 327.300781 50.902344 327.171875 C 51.046875 327.027344 51.269531 326.949219 51.488281 326.949219 L 101.527344 327.394531 C 101.964844 327.398438 102.296875 327.699219 102.296875 328.09375 L 102.296875 356.125 C 102.296875 356.515625 101.953125 356.824219 101.519531 356.824219 " fill-opacity="1" fill-rule="nonzero"/><path fill="#caddff" d="M 86.464844 350.050781 C 86.132812 350.050781 85.859375 349.777344 85.859375 349.445312 L 85.859375 332.46875 C 85.859375 332.132812 86.132812 331.863281 86.464844 331.863281 C 86.800781 331.863281 87.070312 332.132812 87.070312 332.46875 L 87.070312 349.445312 C 87.070312 349.777344 86.800781 350.050781 86.464844 350.050781 " fill-opacity="1" fill-rule="nonzero"/><path fill="#caddff" d="M 70.644531 344 C 70.308594 344 70.039062 343.730469 70.039062 343.394531 L 70.039062 338.386719 C 70.039062 338.054688 70.308594 337.78125 70.644531 337.78125 C 70.976562 337.78125 71.246094 338.054688 71.246094 338.386719 L 71.246094 343.394531 C 71.246094 343.730469 70.976562 344 70.644531 344 " fill-opacity="1" fill-rule="nonzero"/><path fill="#0c2840" d="M 314.75 121.699219 L 305.726562 121.699219 L 305.726562 97.640625 L 314.75 97.640625 L 314.75 121.699219 " fill-opacity="1" fill-rule="nonzero"/><path fill="#000000" d="M 306.335938 121.097656 L 314.148438 121.097656 L 314.148438 98.246094 L 306.335938 98.246094 Z M 314.75 122.304688 L 305.730469 122.304688 C 305.394531 122.304688 305.125 122.035156 305.125 121.699219 L 305.125 97.640625 C 305.125 97.308594 305.394531 97.039062 305.730469 97.039062 L 314.75 97.039062 C 315.085938 97.039062 315.355469 97.308594 315.355469 97.640625 L 315.355469 121.699219 C 315.355469 122.035156 315.085938 122.304688 314.75 122.304688 " fill-opacity="1" fill-rule="nonzero"/><path fill="#0c2840" d="M 317.339844 122.066406 L 303.039062 122.066406 C 302.457031 122.066406 301.988281 121.597656 301.988281 121.015625 L 301.988281 116.371094 C 301.988281 115.792969 302.457031 115.324219 303.039062 115.324219 L 317.339844 115.324219 C 317.921875 115.324219 318.390625 115.792969 318.390625 116.371094 L 318.390625 121.015625 C 318.390625 121.597656 317.921875 122.066406 317.339844 122.066406 " fill-opacity="1" fill-rule="nonzero"/><path fill="#000000" d="M 305.214844 115.921875 C 303.773438 115.921875 302.597656 117.097656 302.597656 118.539062 L 302.597656 118.839844 C 302.597656 120.285156 303.773438 121.457031 305.214844 121.457031 L 315.171875 121.457031 C 316.617188 121.457031 317.789062 120.285156 317.789062 118.839844 L 317.789062 118.539062 C 317.789062 117.097656 316.617188 115.921875 315.171875 115.921875 Z M 315.171875 122.667969 L 305.214844 122.667969 C 303.105469 122.667969 301.386719 120.953125 301.386719 118.839844 L 301.386719 118.539062 C 301.386719 116.433594 303.105469 114.714844 305.214844 114.714844 L 315.171875 114.714844 C 317.28125 114.714844 319 116.433594 319 118.539062 L 319 118.839844 C 319 120.953125 317.28125 122.667969 315.171875 122.667969 " fill-opacity="1" fill-rule="nonzero"/><path fill="#0c2840" d="M 327.324219 126.257812 L 293.058594 126.257812 L 293.058594 122.617188 C 293.058594 121.707031 293.796875 120.972656 294.707031 120.972656 L 325.675781 120.972656 C 326.585938 120.972656 327.324219 121.707031 327.324219 122.617188 L 327.324219 126.257812 " fill-opacity="1" fill-rule="nonzero"/><path fill="#000000" d="M 293.703125 125.652344 L 326.679688 125.652344 C 326.382812 123.355469 324.414062 121.574219 322.039062 121.574219 L 298.34375 121.574219 C 295.96875 121.574219 294 123.355469 293.703125 125.652344 Z M 327.324219 126.859375 L 293.0625 126.859375 C 292.726562 126.859375 292.453125 126.589844 292.453125 126.257812 C 292.453125 123.007812 295.097656 120.367188 298.34375 120.367188 L 322.039062 120.367188 C 325.285156 120.367188 327.925781 123.007812 327.925781 126.257812 C 327.925781 126.589844 327.660156 126.859375 327.324219 126.859375 " fill-opacity="1" fill-rule="nonzero"/><path fill="#0c2840" d="M 303.269531 96.46875 C 293.804688 91.152344 284.34375 83.132812 277.308594 74.460938 C 272.988281 69.136719 266.097656 59.171875 268.484375 52.269531 C 269.175781 50.277344 270.933594 47.773438 275.375 47.164062 C 278.597656 46.71875 282.960938 47.332031 288.335938 48.980469 L 287.164062 53.722656 C 282.347656 52.246094 278.5625 51.683594 275.914062 52.046875 C 274.09375 52.296875 272.980469 52.96875 272.609375 54.039062 C 271.730469 56.582031 273.855469 62.863281 280.585938 71.160156 C 287.269531 79.398438 296.261719 87.023438 305.261719 92.074219 L 303.269531 96.46875 " fill-opacity="1" fill-rule="nonzero"/><path fill="#000000" d="M 277.5625 47.625 C 276.8125 47.625 276.109375 47.671875 275.457031 47.761719 C 271.316406 48.328125 269.691406 50.632812 269.058594 52.46875 C 266.765625 59.097656 273.535156 68.851562 277.777344 74.078125 C 284.625 82.519531 293.78125 90.335938 302.996094 95.617188 L 304.484375 92.328125 C 295.582031 87.238281 286.726562 79.6875 280.117188 71.542969 C 272.769531 62.484375 271.171875 56.347656 272.039062 53.839844 C 272.492188 52.535156 273.769531 51.730469 275.832031 51.449219 C 278.457031 51.085938 282.117188 51.597656 286.726562 52.960938 L 287.609375 49.390625 C 283.660156 48.214844 280.292969 47.625 277.5625 47.625 Z M 303.273438 97.070312 C 303.167969 97.070312 303.066406 97.046875 302.976562 96.996094 C 293.445312 91.644531 283.917969 83.566406 276.839844 74.839844 C 272.441406 69.417969 265.429688 59.253906 267.914062 52.070312 C 268.660156 49.917969 270.546875 47.214844 275.292969 46.5625 C 278.605469 46.109375 283.050781 46.726562 288.511719 48.402344 C 288.820312 48.496094 289 48.8125 288.921875 49.121094 L 287.75 53.867188 C 287.707031 54.027344 287.605469 54.167969 287.460938 54.25 C 287.316406 54.332031 287.144531 54.347656 286.984375 54.300781 C 282.253906 52.851562 278.554688 52.292969 275.996094 52.644531 C 274.421875 52.863281 273.472656 53.398438 273.179688 54.238281 C 272.382812 56.542969 274.503906 62.707031 281.054688 70.78125 C 287.691406 78.960938 296.625 86.53125 305.554688 91.546875 C 305.832031 91.703125 305.941406 92.039062 305.8125 92.324219 L 303.820312 96.71875 C 303.753906 96.871094 303.621094 96.988281 303.460938 97.042969 C 303.398438 97.0625 303.335938 97.070312 303.273438 97.070312 " fill-opacity="1" fill-rule="nonzero"/><path fill="#0c2840" d="M 317.398438 96.195312 C 326.707031 90.878906 336.019531 82.855469 342.9375 74.183594 C 347.191406 68.859375 353.96875 58.898438 351.617188 51.992188 C 350.9375 50 349.210938 47.496094 344.839844 46.886719 C 341.667969 46.445312 337.378906 47.054688 332.09375 48.703125 L 333.242188 53.445312 C 337.984375 51.972656 341.707031 51.40625 344.308594 51.769531 C 346.101562 52.019531 347.195312 52.691406 347.558594 53.765625 C 348.425781 56.304688 346.335938 62.589844 339.714844 70.886719 C 333.136719 79.125 324.292969 86.746094 315.441406 91.800781 L 317.398438 96.195312 " fill-opacity="1" fill-rule="nonzero"/><path fill="#000000" d="M 316.210938 92.054688 L 317.675781 95.335938 C 326.730469 90.058594 335.738281 82.242188 342.464844 73.808594 C 346.640625 68.578125 353.300781 58.820312 351.042969 52.1875 C 350.421875 50.355469 348.824219 48.050781 344.757812 47.488281 C 341.78125 47.074219 337.765625 47.621094 332.8125 49.113281 L 333.679688 52.683594 C 338.210938 51.324219 341.816406 50.8125 344.390625 51.175781 C 346.429688 51.457031 347.6875 52.261719 348.132812 53.570312 C 348.980469 56.074219 347.414062 62.207031 340.1875 71.261719 C 333.683594 79.414062 324.964844 86.964844 316.210938 92.054688 Z M 317.398438 96.796875 C 317.332031 96.796875 317.269531 96.789062 317.207031 96.769531 C 317.046875 96.714844 316.914062 96.597656 316.84375 96.441406 L 314.886719 92.046875 C 314.761719 91.761719 314.871094 91.429688 315.140625 91.277344 C 323.925781 86.257812 332.710938 78.691406 339.238281 70.511719 C 345.683594 62.433594 347.773438 56.269531 346.988281 53.960938 C 346.703125 53.121094 345.773438 52.585938 344.226562 52.371094 C 341.710938 52.019531 338.074219 52.578125 333.421875 54.023438 C 333.261719 54.074219 333.089844 54.054688 332.945312 53.972656 C 332.800781 53.890625 332.695312 53.753906 332.65625 53.589844 L 331.5 48.84375 C 331.425781 48.535156 331.605469 48.222656 331.910156 48.128906 C 337.285156 46.453125 341.664062 45.835938 344.925781 46.289062 C 349.601562 46.941406 351.457031 49.644531 352.1875 51.800781 C 354.632812 58.976562 347.738281 69.144531 343.410156 74.5625 C 336.445312 83.289062 327.070312 91.367188 317.691406 96.71875 C 317.605469 96.769531 317.5 96.796875 317.398438 96.796875 " fill-opacity="1" fill-rule="nonzero"/><path fill="#0c2840" d="M 310.261719 100.738281 C 334.347656 101.007812 334.605469 66.792969 339.785156 39.539062 L 280.550781 39.320312 C 285.339844 67.359375 286.214844 101.195312 310.261719 100.738281 " fill-opacity="1" fill-rule="nonzero"/><path fill="#000000" d="M 281.265625 39.929688 C 281.914062 43.769531 282.496094 47.765625 283.0625 51.632812 C 284.832031 63.742188 286.660156 76.261719 290.554688 85.402344 C 294.914062 95.628906 301.15625 100.308594 310.246094 100.136719 C 310.253906 100.136719 310.261719 100.136719 310.265625 100.136719 C 310.359375 100.136719 310.453125 100.136719 310.546875 100.136719 C 319.207031 100.136719 325.210938 95.640625 329.425781 85.996094 C 333.238281 77.277344 335.058594 65.339844 336.824219 53.796875 C 337.511719 49.269531 338.230469 44.589844 339.058594 40.140625 Z M 309.78125 101.351562 C 289.109375 101.351562 285.429688 76.167969 281.867188 51.808594 C 281.265625 47.707031 280.648438 43.46875 279.957031 39.421875 C 279.925781 39.246094 279.972656 39.066406 280.089844 38.933594 C 280.207031 38.796875 280.375 38.71875 280.550781 38.71875 L 280.554688 38.71875 L 339.785156 38.9375 C 339.964844 38.9375 340.136719 39.019531 340.25 39.15625 C 340.363281 39.292969 340.410156 39.476562 340.378906 39.65625 C 339.496094 44.292969 338.746094 49.21875 338.019531 53.980469 C 334.460938 77.269531 330.785156 101.34375 310.539062 101.34375 C 310.445312 101.34375 310.355469 101.34375 310.261719 101.34375 C 310.101562 101.347656 309.941406 101.351562 309.78125 101.351562 " fill-opacity="1" fill-rule="nonzero"/><path fill="#caddff" d="M 331.210938 71.476562 C 331.167969 71.476562 331.128906 71.472656 331.085938 71.464844 C 330.757812 71.398438 330.550781 71.078125 330.617188 70.75 C 331.714844 65.414062 332.457031 59.582031 333.175781 53.941406 C 333.65625 50.1875 334.148438 46.308594 334.746094 42.597656 C 334.796875 42.265625 335.109375 42.042969 335.4375 42.09375 C 335.769531 42.148438 335.992188 42.457031 335.941406 42.789062 C 335.34375 46.476562 334.851562 50.351562 334.375 54.097656 C 333.652344 59.757812 332.90625 65.613281 331.800781 70.992188 C 331.742188 71.28125 331.488281 71.476562 331.210938 71.476562 " fill-opacity="1" fill-rule="nonzero"/><path fill="#caddff" d="M 310.777344 98.269531 C 310.496094 98.269531 310.246094 98.074219 310.183594 97.792969 C 310.117188 97.464844 310.324219 97.140625 310.648438 97.074219 C 319.6875 95.160156 325.507812 88.902344 328.96875 77.390625 C 329.0625 77.070312 329.402344 76.886719 329.71875 76.984375 C 330.039062 77.082031 330.21875 77.417969 330.121094 77.738281 C 326.519531 89.71875 320.414062 96.238281 310.902344 98.257812 C 310.859375 98.265625 310.8125 98.269531 310.777344 98.269531 " fill-opacity="1" fill-rule="nonzero"/><path fill="#0c2840" d="M 342.046875 42.574219 L 278.863281 42.574219 C 278.195312 42.574219 277.652344 42.03125 277.652344 41.363281 L 277.652344 35.996094 C 277.652344 35.324219 278.195312 34.785156 278.863281 34.785156 L 342.046875 34.785156 C 342.71875 34.785156 343.257812 35.324219 343.257812 35.996094 L 343.257812 41.363281 C 343.257812 42.03125 342.71875 42.574219 342.046875 42.574219 " fill-opacity="1" fill-rule="nonzero"/><path fill="#000000" d="M 281.546875 35.386719 C 279.730469 35.386719 278.253906 36.863281 278.253906 38.679688 C 278.253906 40.492188 279.730469 41.96875 281.546875 41.96875 L 339.363281 41.96875 C 341.179688 41.96875 342.65625 40.492188 342.65625 38.679688 C 342.65625 36.863281 341.179688 35.386719 339.363281 35.386719 Z M 339.363281 43.179688 L 281.546875 43.179688 C 279.0625 43.179688 277.046875 41.160156 277.046875 38.679688 C 277.046875 36.199219 279.0625 34.179688 281.546875 34.179688 L 339.363281 34.179688 C 341.84375 34.179688 343.863281 36.199219 343.863281 38.679688 C 343.863281 41.160156 341.84375 43.179688 339.363281 43.179688 " fill-opacity="1" fill-rule="nonzero"/><path fill="#caddff" d="M 323.054688 38.601562 C 322.722656 38.601562 322.457031 38.335938 322.453125 38.003906 C 322.449219 37.667969 322.714844 37.398438 323.050781 37.394531 L 335.335938 37.257812 C 335.339844 37.257812 335.339844 37.257812 335.34375 37.257812 C 335.671875 37.257812 335.941406 37.523438 335.949219 37.855469 C 335.949219 38.1875 335.679688 38.460938 335.351562 38.464844 L 323.0625 38.601562 C 323.058594 38.601562 323.058594 38.601562 323.054688 38.601562 " fill-opacity="1" fill-rule="nonzero"/><path fill="#caddff" d="M 312.992188 38.71875 C 312.660156 38.71875 312.390625 38.453125 312.390625 38.121094 C 312.382812 37.785156 312.652344 37.511719 312.988281 37.507812 L 319.828125 37.429688 C 319.832031 37.429688 319.832031 37.429688 319.835938 37.429688 C 320.167969 37.429688 320.4375 37.699219 320.441406 38.03125 C 320.441406 38.363281 320.175781 38.636719 319.84375 38.640625 L 313 38.71875 C 312.996094 38.71875 312.992188 38.71875 312.992188 38.71875 " fill-opacity="1" fill-rule="nonzero"/><path fill="#ffffff" d="M 109.617188 278.230469 L 107.789062 294.425781 L 114.679688 297.292969 L 117.214844 279.636719 L 109.617188 278.230469 " fill-opacity="1" fill-rule="nonzero"/><path fill="#000000" d="M 108.441406 294.039062 L 114.191406 296.433594 L 116.535156 280.125 L 110.144531 278.941406 Z M 114.679688 297.894531 C 114.597656 297.894531 114.519531 297.878906 114.445312 297.847656 L 107.558594 294.980469 C 107.3125 294.878906 107.160156 294.625 107.191406 294.355469 L 109.015625 278.164062 C 109.035156 277.996094 109.121094 277.847656 109.257812 277.746094 C 109.390625 277.644531 109.5625 277.605469 109.726562 277.636719 L 117.324219 279.042969 C 117.644531 279.101562 117.859375 279.402344 117.8125 279.722656 L 115.277344 297.378906 C 115.25 297.5625 115.136719 297.722656 114.976562 297.816406 C 114.882812 297.867188 114.78125 297.894531 114.679688 297.894531 " fill-opacity="1" fill-rule="nonzero"/><path fill="#19598f" d="M 106.1875 292.894531 C 105.972656 294.429688 105.621094 297.277344 105.59375 299.828125 C 105.574219 301.433594 106.777344 302.789062 108.367188 302.988281 C 112.863281 303.566406 123.0625 304.199219 131.75 303.410156 C 132.347656 303.355469 133.398438 302.925781 133.691406 301.4375 C 134.675781 296.449219 126 295.230469 116.488281 291.613281 C 116.117188 291.46875 115.695312 291.554688 115.40625 291.832031 L 114.382812 292.824219 C 113.355469 293.820312 111.832031 294.101562 110.519531 293.539062 L 107.402344 292.210938 C 106.867188 291.984375 106.269531 292.324219 106.1875 292.894531 " fill-opacity="1" fill-rule="nonzero"/><path fill="#000000" d="M 106.785156 292.980469 C 106.578125 294.453125 106.226562 297.300781 106.195312 299.835938 C 106.179688 301.128906 107.148438 302.222656 108.445312 302.390625 C 113.082031 302.984375 123.097656 303.589844 131.695312 302.808594 C 131.886719 302.789062 132.835938 302.640625 133.097656 301.320312 C 133.71875 298.179688 129.769531 296.722656 122.734375 294.414062 C 120.660156 293.734375 118.515625 293.027344 116.273438 292.175781 C 116.117188 292.117188 115.945312 292.152344 115.828125 292.265625 L 114.800781 293.257812 C 113.597656 294.425781 111.824219 294.753906 110.28125 294.09375 L 107.164062 292.765625 C 107.054688 292.71875 106.96875 292.753906 106.921875 292.777344 C 106.878906 292.804688 106.804688 292.863281 106.785156 292.980469 Z M 122.699219 304.386719 C 116.84375 304.386719 111.382812 303.988281 108.289062 303.589844 C 106.386719 303.347656 104.964844 301.726562 104.988281 299.824219 C 105.019531 297.21875 105.378906 294.3125 105.589844 292.808594 C 105.65625 292.347656 105.925781 291.953125 106.328125 291.726562 C 106.734375 291.5 107.210938 291.472656 107.636719 291.65625 L 110.757812 292.984375 C 111.851562 293.449219 113.109375 293.21875 113.960938 292.390625 L 114.988281 291.398438 C 115.441406 290.960938 116.113281 290.824219 116.703125 291.046875 C 118.917969 291.890625 121.046875 292.589844 123.109375 293.265625 C 129.832031 295.472656 135.140625 297.214844 134.28125 301.554688 C 133.953125 303.234375 132.742188 303.925781 131.804688 304.011719 C 128.847656 304.28125 125.722656 304.386719 122.699219 304.386719 " fill-opacity="1" fill-rule="nonzero"/><path fill="#ffffff" d="M 105.597656 299.445312 C 105.597656 299.445312 105.59375 299.707031 105.59375 299.828125 C 105.574219 301.433594 106.777344 302.789062 108.367188 302.988281 C 112.863281 303.566406 123.0625 304.199219 131.75 303.410156 C 132.347656 303.355469 133.398438 302.925781 133.691406 301.4375 C 133.78125 300.984375 133.726562 300.164062 133.726562 300.164062 L 133.109375 300.191406 C 124.328125 300.625 115.53125 300.414062 106.785156 299.5625 L 105.597656 299.445312 " fill-opacity="1" fill-rule="nonzero"/><path fill="#000000" d="M 106.207031 300.113281 C 106.324219 301.28125 107.242188 302.238281 108.445312 302.390625 C 113.082031 302.984375 123.097656 303.589844 131.695312 302.808594 C 131.886719 302.789062 132.835938 302.640625 133.097656 301.320312 C 133.125 301.183594 133.136719 300.988281 133.136719 300.796875 C 124.359375 301.230469 115.472656 301.015625 106.726562 300.164062 Z M 122.699219 304.386719 C 116.84375 304.386719 111.382812 303.988281 108.289062 303.589844 C 106.386719 303.347656 104.964844 301.726562 104.988281 299.824219 L 104.996094 299.433594 C 104.996094 299.265625 105.070312 299.105469 105.199219 298.996094 C 105.324219 298.882812 105.488281 298.828125 105.65625 298.84375 L 106.84375 298.960938 C 115.53125 299.808594 124.359375 300.019531 133.078125 299.589844 L 133.695312 299.558594 C 134.03125 299.542969 134.304688 299.792969 134.328125 300.121094 C 134.335938 300.214844 134.386719 301.035156 134.28125 301.554688 C 133.953125 303.234375 132.742188 303.925781 131.804688 304.011719 C 128.847656 304.28125 125.722656 304.386719 122.699219 304.386719 " fill-opacity="1" fill-rule="nonzero"/><path fill="#000000" d="M 118.667969 297.601562 C 118.515625 297.601562 118.359375 297.542969 118.242188 297.425781 C 118.007812 297.191406 118.007812 296.804688 118.242188 296.570312 L 121.578125 293.230469 C 121.816406 292.996094 122.199219 292.996094 122.433594 293.230469 C 122.667969 293.464844 122.667969 293.851562 122.433594 294.085938 L 119.097656 297.425781 C 118.976562 297.542969 118.824219 297.601562 118.667969 297.601562 " fill-opacity="1" fill-rule="nonzero"/><path fill="#000000" d="M 121.949219 297.945312 C 121.796875 297.945312 121.644531 297.890625 121.527344 297.777344 C 121.289062 297.546875 121.28125 297.164062 121.511719 296.925781 L 124.179688 294.152344 C 124.410156 293.914062 124.792969 293.90625 125.03125 294.140625 C 125.273438 294.371094 125.28125 294.753906 125.050781 294.992188 L 122.382812 297.761719 C 122.265625 297.886719 122.105469 297.945312 121.949219 297.945312 " fill-opacity="1" fill-rule="nonzero"/><path fill="#000000" d="M 134.628906 171.511719 C 134.628906 171.511719 130.4375 173.945312 128.800781 188.210938 C 127.164062 202.480469 127.710938 219.296875 116.316406 235.980469 C 107.214844 249.296875 108.015625 271.78125 106.691406 286.515625 C 106.628906 287.226562 107.175781 287.84375 107.890625 287.867188 L 116.613281 288.167969 C 117.167969 288.1875 117.671875 287.835938 117.839844 287.308594 C 119.398438 282.480469 127.15625 259.183594 135.863281 245.675781 C 145.070312 231.402344 156.265625 194.347656 156.265625 194.347656 C 156.265625 194.347656 154.1875 184.984375 153.898438 176.007812 C 153.609375 167.03125 134.628906 171.511719 134.628906 171.511719 " fill-opacity="1" fill-rule="nonzero"/><path fill="#ffffff" d="M 186.007812 230.195312 L 182.328125 246.070312 L 188.839844 249.710938 L 193.390625 232.46875 L 186.007812 230.195312 " fill-opacity="1" fill-rule="nonzero"/><path fill="#000000" d="M 183.019531 245.765625 L 188.453125 248.804688 L 192.660156 232.875 L 186.449219 230.964844 Z M 188.839844 250.316406 C 188.738281 250.316406 188.636719 250.289062 188.542969 250.238281 L 182.035156 246.597656 C 181.796875 246.464844 181.679688 246.195312 181.738281 245.933594 L 185.421875 230.058594 C 185.457031 229.894531 185.5625 229.753906 185.707031 229.667969 C 185.851562 229.585938 186.023438 229.566406 186.183594 229.617188 L 193.570312 231.890625 C 193.878906 231.988281 194.058594 232.308594 193.976562 232.621094 L 189.421875 249.867188 C 189.375 250.046875 189.246094 250.195312 189.074219 250.269531 C 189 250.300781 188.917969 250.316406 188.839844 250.316406 " fill-opacity="1" fill-rule="nonzero"/><path fill="#19598f" d="M 181.546875 245.132812 C 181.328125 246.667969 179.949219 249.578125 179.921875 252.128906 C 179.902344 253.734375 181.105469 255.085938 182.695312 255.289062 C 187.191406 255.867188 198.421875 256.4375 207.109375 255.648438 C 207.703125 255.59375 208.757812 255.160156 209.046875 253.675781 C 210.03125 248.6875 201.355469 247.464844 191.847656 243.851562 C 191.472656 243.707031 191.050781 243.792969 190.765625 244.070312 L 189.742188 245.0625 C 188.714844 246.058594 187.191406 246.339844 185.878906 245.777344 L 182.757812 244.449219 C 182.226562 244.222656 181.625 244.5625 181.546875 245.132812 " fill-opacity="1" fill-rule="nonzero"/><path fill="#000000" d="M 182.144531 245.214844 C 182.058594 245.832031 181.8125 246.605469 181.53125 247.496094 C 181.089844 248.886719 180.542969 250.621094 180.523438 252.136719 C 180.511719 253.425781 181.476562 254.523438 182.773438 254.691406 C 186.847656 255.214844 198.148438 255.855469 207.054688 255.046875 C 207.242188 255.027344 208.195312 254.875 208.457031 253.558594 C 209.074219 250.417969 205.125 248.960938 198.089844 246.652344 C 196.015625 245.96875 193.871094 245.265625 191.632812 244.414062 C 191.476562 244.355469 191.300781 244.390625 191.183594 244.503906 L 190.160156 245.496094 C 188.957031 246.660156 187.183594 246.988281 185.640625 246.332031 L 182.519531 245.003906 C 182.414062 244.957031 182.324219 244.992188 182.28125 245.015625 C 182.234375 245.039062 182.160156 245.097656 182.144531 245.214844 Z M 197.371094 256.636719 C 191.488281 256.636719 185.769531 256.292969 182.621094 255.886719 C 180.714844 255.644531 179.296875 254.027344 179.316406 252.121094 C 179.335938 250.425781 179.914062 248.597656 180.378906 247.132812 C 180.644531 246.292969 180.875 245.566406 180.949219 245.046875 C 181.011719 244.585938 181.28125 244.191406 181.6875 243.964844 C 182.09375 243.734375 182.570312 243.710938 182.996094 243.890625 L 186.117188 245.222656 C 187.207031 245.6875 188.464844 245.457031 189.320312 244.628906 L 190.34375 243.636719 C 190.796875 243.199219 191.472656 243.0625 192.0625 243.285156 C 194.277344 244.128906 196.40625 244.824219 198.46875 245.503906 C 205.1875 247.707031 210.5 249.449219 209.640625 253.792969 C 209.3125 255.46875 208.101562 256.164062 207.164062 256.25 C 204.144531 256.523438 200.730469 256.636719 197.371094 256.636719 " fill-opacity="1" fill-rule="nonzero"/><path fill="#ffffff" d="M 180.164062 251.640625 C 180.164062 251.640625 180.160156 251.898438 180.15625 252.023438 C 180.140625 253.628906 181.34375 254.980469 182.933594 255.183594 C 187.429688 255.761719 198.421875 256.4375 207.109375 255.648438 C 207.703125 255.59375 208.757812 255.160156 209.046875 253.675781 C 209.140625 253.21875 209.082031 252.398438 209.082031 252.398438 L 208.46875 252.429688 C 199.6875 252.863281 190.890625 252.652344 182.140625 251.796875 L 180.164062 251.640625 " fill-opacity="1" fill-rule="nonzero"/><path fill="#000000" d="M 180.773438 252.296875 C 180.882812 253.46875 181.804688 254.429688 183.011719 254.585938 C 186.949219 255.089844 198.003906 255.867188 207.054688 255.046875 C 207.242188 255.027344 208.195312 254.875 208.457031 253.558594 C 208.480469 253.429688 208.492188 253.234375 208.496094 253.035156 C 199.714844 253.464844 190.828125 253.253906 182.082031 252.402344 Z M 198.207031 256.613281 C 191.6875 256.613281 185.585938 256.132812 182.855469 255.78125 C 180.953125 255.539062 179.535156 253.917969 179.554688 252.015625 L 179.558594 251.628906 C 179.5625 251.460938 179.636719 251.304688 179.757812 251.191406 C 179.882812 251.078125 180.046875 251.023438 180.214844 251.039062 L 182.191406 251.199219 C 190.890625 252.046875 199.714844 252.257812 208.4375 251.828125 L 209.054688 251.796875 C 209.390625 251.777344 209.664062 252.03125 209.6875 252.359375 C 209.691406 252.449219 209.746094 253.273438 209.640625 253.792969 C 209.3125 255.46875 208.101562 256.164062 207.164062 256.25 C 204.28125 256.511719 201.203125 256.613281 198.207031 256.613281 " fill-opacity="1" fill-rule="nonzero"/><path fill="#000000" d="M 194.027344 249.839844 C 193.871094 249.839844 193.71875 249.777344 193.601562 249.660156 C 193.363281 249.425781 193.363281 249.042969 193.601562 248.808594 L 196.9375 245.46875 C 197.171875 245.234375 197.554688 245.234375 197.792969 245.46875 C 198.027344 245.703125 198.027344 246.085938 197.792969 246.324219 L 194.457031 249.660156 C 194.335938 249.777344 194.183594 249.839844 194.027344 249.839844 " fill-opacity="1" fill-rule="nonzero"/><path fill="#000000" d="M 197.304688 250.183594 C 197.15625 250.183594 197.003906 250.128906 196.886719 250.015625 C 196.648438 249.785156 196.640625 249.402344 196.871094 249.160156 L 199.535156 246.390625 C 199.769531 246.152344 200.152344 246.144531 200.390625 246.375 C 200.632812 246.605469 200.640625 246.988281 200.40625 247.230469 L 197.742188 250 C 197.621094 250.121094 197.464844 250.183594 197.304688 250.183594 " fill-opacity="1" fill-rule="nonzero"/><path fill="#000000" d="M 151.4375 196.867188 C 151.4375 196.867188 171.039062 195.324219 192.914062 183.574219 C 193.5625 183.230469 193.976562 184.296875 193.585938 184.917969 C 192.484375 186.660156 191.898438 189.273438 190.257812 193.730469 C 188.234375 199.21875 183.964844 227.621094 182.558594 236.457031 C 182.429688 237.253906 183.03125 237.980469 183.839844 238.007812 L 192.253906 238.28125 C 192.785156 238.296875 193.273438 238.003906 193.503906 237.523438 C 196.539062 231.199219 216.359375 181.433594 215.601562 172.164062 C 214.785156 162.144531 203.34375 162.816406 198.570312 162.507812 C 193.636719 162.191406 148.886719 170.554688 148.886719 170.554688 L 151.4375 196.867188 " fill-opacity="1" fill-rule="nonzero"/><path fill="#ffffff" d="M 91.8125 182.230469 C 92.492188 181.421875 93.367188 180.476562 94.125 179.730469 C 95.097656 178.769531 98.351562 172.4375 98.351562 172.4375 L 104.039062 174.046875 C 104.039062 174.046875 101.378906 178.699219 102.019531 181.015625 C 102.613281 183.171875 103.082031 187.730469 99.921875 191.046875 C 99.5625 191.429688 98.765625 191.527344 98.492188 191.464844 C 97.667969 191.273438 97.652344 190.125 98.054688 189.382812 L 99.195312 187.28125 C 99.296875 187.097656 99.144531 186.878906 98.9375 186.90625 C 98.082031 187.027344 96.207031 187.574219 94.242188 189.996094 C 92.730469 191.863281 89.734375 196.023438 88.726562 195.332031 C 86.929688 194.101562 88.105469 186.652344 91.8125 182.230469 " fill-opacity="1" fill-rule="nonzero"/><path fill="#000000" d="M 91.8125 182.230469 L 91.816406 182.230469 Z M 92.277344 182.621094 C 89.589844 185.816406 88.1875 190.875 88.558594 193.589844 C 88.640625 194.179688 88.808594 194.617188 89.023438 194.800781 C 89.789062 194.683594 92.03125 191.820312 93 190.589844 C 93.28125 190.226562 93.542969 189.894531 93.773438 189.617188 C 95.835938 187.070312 97.839844 186.449219 98.851562 186.308594 C 99.175781 186.261719 99.492188 186.398438 99.675781 186.667969 C 99.863281 186.9375 99.882812 187.28125 99.726562 187.570312 L 98.585938 189.671875 C 98.402344 190.007812 98.347656 190.476562 98.460938 190.726562 C 98.503906 190.828125 98.558594 190.859375 98.628906 190.875 C 98.796875 190.902344 99.316406 190.808594 99.488281 190.628906 C 102.847656 187.101562 101.699219 182.136719 101.4375 181.175781 C 100.882812 179.164062 102.398438 175.871094 103.148438 174.421875 L 98.660156 173.152344 C 97.863281 174.6875 95.441406 179.277344 94.546875 180.160156 C 93.796875 180.902344 92.925781 181.84375 92.277344 182.621094 Z M 88.980469 196.019531 C 88.769531 196.019531 88.570312 195.957031 88.386719 195.832031 C 87.84375 195.460938 87.5 194.761719 87.363281 193.753906 C 86.957031 190.796875 88.367188 185.398438 91.351562 181.84375 C 92.035156 181.027344 92.910156 180.078125 93.699219 179.300781 C 94.359375 178.648438 96.574219 174.574219 97.8125 172.160156 C 97.945312 171.90625 98.238281 171.777344 98.515625 171.855469 L 104.203125 173.464844 C 104.382812 173.515625 104.527344 173.648438 104.597656 173.820312 C 104.667969 173.988281 104.65625 174.183594 104.5625 174.347656 C 103.859375 175.582031 102.132812 179.15625 102.601562 180.855469 C 103.453125 183.953125 103.3125 188.363281 100.359375 191.464844 C 99.8125 192.039062 98.777344 192.152344 98.355469 192.054688 C 97.90625 191.945312 97.550781 191.652344 97.359375 191.222656 C 97.085938 190.617188 97.152344 189.78125 97.523438 189.09375 L 98.292969 187.679688 C 97.421875 187.96875 96.09375 188.667969 94.710938 190.375 C 94.488281 190.65625 94.230469 190.980469 93.949219 191.335938 C 91.777344 194.105469 90.171875 196.019531 88.980469 196.019531 " fill-opacity="1" fill-rule="nonzero"/><path fill="#0c2840" d="M 228.175781 110.722656 L 224.5 104.527344 C 223.898438 103.507812 221.992188 103.199219 221.042969 103.90625 C 200.269531 119.390625 178.171875 113.074219 174.753906 112.261719 C 166.285156 110.246094 162.015625 109.9375 155.332031 109.53125 C 145.546875 108.933594 131.46875 114.59375 121.996094 124.066406 C 114.460938 131.601562 101.609375 156.039062 95.78125 173.019531 C 95.535156 173.734375 95.851562 174.519531 96.519531 174.867188 L 102.367188 177.902344 C 103.109375 178.285156 104.019531 178.003906 104.410156 177.265625 C 107.386719 171.660156 120.28125 148.40625 133.773438 140.730469 C 134.765625 140.167969 136.257812 140.761719 136.199219 141.902344 C 136.023438 145.476562 133.804688 158.726562 133.125 171 C 133.039062 172.617188 134.15625 174.054688 135.75 174.351562 L 141.652344 175.445312 C 151.949219 177.84375 161.601562 175.171875 165.855469 173.652344 C 167.15625 173.1875 167.789062 171.933594 167.984375 170.566406 C 168.3125 168.296875 172.882812 150.097656 181.21875 138.058594 C 182.265625 136.542969 183.855469 135.492188 185.695312 135.386719 C 193.125 134.953125 214.273438 131.980469 228.085938 112.628906 C 228.488281 112.066406 228.527344 111.320312 228.175781 110.722656 " fill-opacity="1" fill-rule="nonzero"/><path fill="#ffffff" d="M 223.117188 106.390625 C 223.035156 105.929688 223.203125 105.460938 223.554688 105.15625 C 224.027344 104.757812 224.820312 104.074219 225.972656 103.066406 C 228.003906 101.289062 230.546875 97.742188 232.761719 96.675781 C 234.980469 95.613281 243.019531 92.472656 244.304688 93.136719 C 245.585938 93.804688 244.949219 95.3125 243.125 96.191406 C 241.300781 97.066406 238.925781 97.964844 238.925781 97.964844 C 238.925781 97.964844 240.253906 97.890625 241.234375 99.425781 C 242.214844 100.957031 240.855469 101.578125 241.429688 102.335938 C 242.164062 103.308594 241.949219 104.441406 241.367188 104.933594 C 240.035156 106.066406 238.433594 103.832031 237.230469 106.144531 C 236.398438 107.75 234.429688 108.796875 230.4375 109.558594 C 229.363281 109.761719 228.34375 110.175781 227.417969 110.75 C 227.039062 110.992188 226.550781 111.007812 226.15625 110.789062 C 225.207031 110.25 223.550781 108.96875 223.117188 106.390625 " fill-opacity="1" fill-rule="nonzero"/><path fill="#000000" d="M 243.714844 93.632812 C 242.007812 93.632812 235.648438 95.960938 233.027344 97.21875 C 231.71875 97.847656 230.234375 99.46875 228.792969 101.042969 C 227.941406 101.972656 227.136719 102.855469 226.371094 103.519531 C 225.214844 104.53125 224.421875 105.214844 223.949219 105.617188 C 223.757812 105.78125 223.667969 106.03125 223.710938 106.289062 C 224.105469 108.621094 225.597656 109.777344 226.453125 110.261719 C 226.652344 110.371094 226.898438 110.363281 227.097656 110.238281 C 228.105469 109.609375 229.191406 109.179688 230.320312 108.964844 C 234.03125 108.253906 235.933594 107.328125 236.695312 105.867188 C 237.59375 104.128906 238.859375 104.394531 239.695312 104.570312 C 240.3125 104.695312 240.648438 104.753906 240.972656 104.476562 C 241.308594 104.191406 241.488281 103.414062 240.949219 102.699219 C 240.507812 102.117188 240.714844 101.539062 240.847656 101.15625 C 241.003906 100.722656 241.128906 100.382812 240.726562 99.75 C 239.964844 98.558594 238.992188 98.570312 238.953125 98.570312 C 238.664062 98.582031 238.394531 98.371094 238.335938 98.082031 C 238.28125 97.792969 238.4375 97.503906 238.710938 97.402344 C 238.734375 97.394531 241.085938 96.5 242.863281 95.644531 C 243.890625 95.148438 244.367188 94.507812 244.375 94.121094 C 244.375 94.046875 244.375 93.855469 244.023438 93.671875 C 243.953125 93.644531 243.847656 93.632812 243.714844 93.632812 Z M 226.753906 111.546875 C 226.449219 111.546875 226.136719 111.46875 225.863281 111.3125 C 224.816406 110.726562 222.996094 109.316406 222.519531 106.488281 C 222.40625 105.820312 222.652344 105.132812 223.164062 104.695312 C 223.636719 104.296875 224.425781 103.617188 225.574219 102.613281 C 226.289062 101.988281 227.074219 101.132812 227.902344 100.226562 C 229.421875 98.570312 230.988281 96.859375 232.503906 96.132812 C 232.601562 96.085938 242.691406 91.621094 244.582031 92.601562 C 245.226562 92.9375 245.59375 93.496094 245.582031 94.136719 C 245.566406 95.097656 244.726562 96.089844 243.386719 96.734375 C 242.484375 97.167969 241.460938 97.601562 240.644531 97.9375 C 241.015625 98.191406 241.402344 98.5625 241.742188 99.097656 C 242.464844 100.230469 242.179688 101.03125 241.988281 101.5625 C 241.863281 101.910156 241.878906 101.925781 241.914062 101.972656 C 242.847656 103.210938 242.558594 104.714844 241.753906 105.394531 C 240.96875 106.066406 240.089844 105.886719 239.449219 105.75 C 238.648438 105.582031 238.246094 105.5 237.769531 106.421875 C 236.820312 108.25 234.660156 109.367188 230.550781 110.148438 C 229.566406 110.339844 228.621094 110.710938 227.738281 111.265625 C 227.4375 111.453125 227.097656 111.546875 226.753906 111.546875 " fill-opacity="1" fill-rule="nonzero"/><path fill="#ffffff" d="M 169.410156 92.734375 L 158.421875 110.949219 C 158.269531 111.15625 156.65625 111.101562 154.835938 111.285156 C 153.988281 111.371094 153.097656 111.5 152.363281 111.621094 C 151.757812 111.71875 151.589844 112.507812 152.097656 112.84375 L 154.066406 114.148438 C 158.191406 116.878906 163.085938 118.292969 168.023438 117.957031 C 169.394531 117.867188 170.707031 117.644531 171.878906 117.28125 L 176.089844 115.957031 C 176.71875 115.757812 176.714844 114.863281 176.082031 114.671875 L 170.71875 113.046875 L 175.246094 103.441406 L 169.410156 92.734375 " fill-opacity="1" fill-rule="nonzero"/><path fill="#000000" d="M 169.382812 93.945312 L 158.9375 111.261719 C 158.929688 111.273438 158.921875 111.289062 158.910156 111.300781 C 158.652344 111.660156 158.210938 111.683594 156.898438 111.746094 C 156.332031 111.773438 155.621094 111.8125 154.898438 111.882812 C 154.191406 111.957031 153.371094 112.066406 152.460938 112.214844 C 152.445312 112.21875 152.414062 112.222656 152.40625 112.269531 C 152.394531 112.3125 152.417969 112.332031 152.433594 112.339844 L 154.402344 113.644531 C 158.492188 116.351562 163.316406 117.667969 167.984375 117.351562 C 169.359375 117.257812 170.613281 117.039062 171.699219 116.699219 L 175.910156 115.378906 C 175.929688 115.371094 175.957031 115.363281 175.957031 115.308594 C 175.957031 115.261719 175.925781 115.25 175.90625 115.246094 L 170.546875 113.621094 C 170.378906 113.570312 170.242188 113.449219 170.171875 113.289062 C 170.097656 113.128906 170.101562 112.945312 170.175781 112.785156 L 174.570312 103.457031 Z M 166.613281 118.605469 C 162.144531 118.605469 157.621094 117.226562 153.734375 114.652344 L 151.765625 113.347656 C 151.324219 113.054688 151.109375 112.53125 151.222656 112.011719 C 151.335938 111.496094 151.746094 111.105469 152.269531 111.023438 C 153.199219 110.871094 154.042969 110.757812 154.777344 110.683594 C 155.53125 110.605469 156.257812 110.570312 156.839844 110.542969 C 157.28125 110.519531 157.769531 110.492188 158.011719 110.460938 L 168.894531 92.417969 C 169.007812 92.234375 169.214844 92.125 169.425781 92.128906 C 169.644531 92.132812 169.839844 92.25 169.941406 92.441406 L 175.777344 103.148438 C 175.871094 103.316406 175.875 103.519531 175.792969 103.695312 L 171.566406 112.667969 L 176.257812 114.089844 C 176.796875 114.253906 177.160156 114.742188 177.164062 115.304688 C 177.167969 115.867188 176.808594 116.359375 176.269531 116.527344 L 172.058594 117.851562 C 170.882812 118.222656 169.539062 118.457031 168.066406 118.558594 C 167.582031 118.589844 167.097656 118.605469 166.613281 118.605469 " fill-opacity="1" fill-rule="nonzero"/><path fill="#ffffff" d="M 174.316406 103.816406 C 174.894531 103.890625 175.488281 103.914062 176.097656 103.882812 L 177.183594 103.824219 C 177.183594 103.824219 183.40625 103 184.402344 101.457031 C 185.402344 99.914062 183.289062 94.308594 183.289062 94.308594 C 184.253906 93.5625 184.46875 92.617188 184.261719 92.300781 C 184.058594 91.984375 182.671875 91.496094 182.109375 91.082031 C 181.648438 90.746094 180.621094 88.0625 180.179688 86.914062 C 180.179688 86.914062 179.367188 82.363281 172.070312 82.953125 C 155.359375 84.308594 167.375 99.773438 167.375 99.773438 C 167.632812 100.078125 167.902344 100.363281 168.175781 100.636719 L 174.316406 103.816406 " fill-opacity="1" fill-rule="nonzero"/><path fill="#000000" d="M 183.792969 92.667969 Z M 175.574219 104.5 C 174.628906 104.5 173.703125 104.371094 172.8125 104.125 C 172.492188 104.03125 172.304688 103.699219 172.394531 103.378906 C 172.484375 103.058594 172.816406 102.871094 173.136719 102.960938 C 174.078125 103.222656 175.0625 103.328125 176.066406 103.277344 L 177.128906 103.222656 C 179.597656 102.890625 183.316406 102.027344 183.894531 101.128906 C 184.46875 100.238281 183.558594 96.730469 182.726562 94.523438 C 182.632812 94.273438 182.714844 93.996094 182.921875 93.832031 C 183.542969 93.351562 183.722656 92.832031 183.730469 92.625 C 183.566406 92.515625 183.183594 92.332031 182.921875 92.207031 C 182.496094 92 182.046875 91.789062 181.75 91.570312 C 181.304688 91.242188 180.75 90.078125 179.617188 87.128906 C 179.601562 87.09375 179.59375 87.054688 179.585938 87.019531 C 179.554688 86.859375 178.738281 83.019531 172.121094 83.558594 C 168.058594 83.886719 165.472656 85.042969 164.441406 86.992188 C 162.683594 90.300781 165.519531 95.316406 167.210938 98.3125 L 167.359375 98.582031 C 167.527344 98.871094 167.425781 99.242188 167.132812 99.402344 C 166.839844 99.570312 166.472656 99.464844 166.308594 99.175781 L 166.160156 98.90625 C 164.34375 95.695312 161.304688 90.320312 163.371094 86.425781 C 164.613281 84.085938 167.523438 82.714844 172.023438 82.355469 C 179.257812 81.765625 180.605469 86.109375 180.757812 86.734375 C 181.867188 89.621094 182.308594 90.4375 182.484375 90.609375 C 182.671875 90.746094 183.085938 90.945312 183.441406 91.117188 C 184.160156 91.460938 184.578125 91.667969 184.769531 91.972656 C 185.136719 92.53125 184.921875 93.601562 184 94.492188 C 184.550781 96.023438 185.910156 100.238281 184.914062 101.785156 C 183.816406 103.472656 178.347656 104.277344 177.261719 104.421875 C 177.246094 104.425781 177.230469 104.425781 177.214844 104.425781 L 176.128906 104.484375 C 175.945312 104.496094 175.757812 104.5 175.574219 104.5 " fill-opacity="1" fill-rule="nonzero"/><path fill="#000000" d="M 168.660156 80.976562 C 170.484375 80.617188 172.558594 80.898438 173.445312 80.597656 C 174.878906 80.109375 174.84375 78.460938 176.863281 78.300781 C 178.636719 78.15625 180.289062 78.488281 181.183594 79.847656 C 181.335938 80.074219 181.464844 80.328125 181.570312 80.613281 C 182.96875 84.457031 181.035156 86.308594 180.179688 86.910156 C 180.179688 86.910156 174.769531 89.511719 173.835938 90.257812 C 172.960938 90.957031 171.933594 92.621094 172.496094 95.027344 C 172.566406 95.335938 172.417969 95.660156 172.136719 95.816406 C 171.8125 96 171.398438 95.90625 171.1875 95.597656 C 170.515625 94.628906 169.042969 92.753906 167.949219 93.1875 C 166.675781 93.691406 166.246094 96.890625 168.585938 97.683594 C 169.304688 97.925781 169.542969 98.867188 169.023438 99.421875 C 168.59375 99.886719 167.9375 100.207031 166.941406 99.957031 C 166.941406 99.957031 161.121094 95.804688 160.429688 90.335938 C 159.742188 84.867188 166.234375 81.453125 168.660156 80.976562 " fill-opacity="1" fill-rule="nonzero"/><path fill="#000000" d="M 157.730469 31.941406 L 157.734375 31.941406 Z M 159.894531 31.417969 C 159.773438 31.417969 159.65625 31.429688 159.535156 31.449219 C 159 31.546875 158.535156 31.84375 158.226562 32.285156 C 157.917969 32.730469 157.800781 33.269531 157.894531 33.804688 C 157.992188 34.335938 158.289062 34.800781 158.730469 35.113281 C 159.652344 35.75 160.917969 35.523438 161.554688 34.605469 C 161.867188 34.160156 161.984375 33.621094 161.886719 33.089844 C 161.792969 32.554688 161.496094 32.09375 161.050781 31.78125 C 160.707031 31.542969 160.308594 31.417969 159.894531 31.417969 Z M 159.886719 36.683594 C 159.25 36.683594 158.605469 36.492188 158.042969 36.101562 C 157.332031 35.609375 156.859375 34.867188 156.707031 34.019531 C 156.554688 33.167969 156.742188 32.304688 157.234375 31.597656 C 157.730469 30.886719 158.46875 30.414062 159.320312 30.261719 C 160.171875 30.109375 161.03125 30.296875 161.742188 30.789062 C 162.453125 31.28125 162.925781 32.023438 163.078125 32.875 C 163.230469 33.726562 163.042969 34.585938 162.546875 35.296875 C 161.917969 36.199219 160.910156 36.683594 159.886719 36.683594 " fill-opacity="1" fill-rule="nonzero"/><path fill="#000000" d="M 344.511719 99.597656 C 344.34375 99.597656 344.171875 99.527344 344.050781 99.386719 C 343.835938 99.132812 343.867188 98.75 344.117188 98.535156 L 346.074219 96.871094 C 346.324219 96.65625 346.707031 96.6875 346.921875 96.941406 C 347.140625 97.191406 347.109375 97.574219 346.855469 97.792969 L 344.902344 99.453125 C 344.789062 99.550781 344.652344 99.597656 344.511719 99.597656 " fill-opacity="1" fill-rule="nonzero"/><path fill="#000000" d="M 338.347656 104.855469 C 338.175781 104.855469 338.003906 104.785156 337.886719 104.644531 C 337.667969 104.390625 337.703125 104.007812 337.953125 103.792969 L 339.90625 102.128906 C 340.160156 101.914062 340.539062 101.945312 340.753906 102.195312 C 340.972656 102.453125 340.941406 102.832031 340.6875 103.050781 L 338.738281 104.710938 C 338.625 104.808594 338.484375 104.855469 338.347656 104.855469 " fill-opacity="1" fill-rule="nonzero"/><path fill="#000000" d="M 340.609375 99.289062 C 340.433594 99.289062 340.265625 99.21875 340.144531 99.078125 L 338.484375 97.125 C 338.269531 96.871094 338.296875 96.492188 338.550781 96.277344 C 338.804688 96.058594 339.183594 96.089844 339.402344 96.34375 L 341.066406 98.292969 C 341.285156 98.546875 341.253906 98.929688 340.996094 99.148438 C 340.882812 99.242188 340.746094 99.289062 340.609375 99.289062 " fill-opacity="1" fill-rule="nonzero"/><path fill="#000000" d="M 345.867188 105.453125 C 345.691406 105.453125 345.527344 105.382812 345.40625 105.242188 L 343.742188 103.289062 C 343.523438 103.039062 343.554688 102.65625 343.808594 102.441406 C 344.0625 102.222656 344.445312 102.253906 344.660156 102.507812 L 346.324219 104.460938 C 346.539062 104.714844 346.511719 105.09375 346.253906 105.308594 C 346.140625 105.40625 346.003906 105.453125 345.867188 105.453125 " fill-opacity="1" fill-rule="nonzero"/><path fill="#000000" d="M 74.734375 294.140625 C 74.410156 294.140625 74.144531 293.886719 74.128906 293.5625 L 74.035156 291 C 74.019531 290.664062 74.28125 290.386719 74.613281 290.375 C 74.953125 290.363281 75.230469 290.621094 75.242188 290.953125 L 75.335938 293.515625 C 75.351562 293.847656 75.089844 294.128906 74.757812 294.140625 C 74.75 294.140625 74.742188 294.140625 74.734375 294.140625 " fill-opacity="1" fill-rule="nonzero"/><path fill="#000000" d="M 75.039062 302.238281 C 74.714844 302.238281 74.449219 301.984375 74.4375 301.65625 L 74.339844 299.097656 C 74.328125 298.761719 74.585938 298.480469 74.921875 298.46875 C 75.257812 298.457031 75.535156 298.714844 75.546875 299.050781 L 75.644531 301.609375 C 75.65625 301.945312 75.394531 302.226562 75.0625 302.238281 C 75.054688 302.238281 75.046875 302.238281 75.039062 302.238281 " fill-opacity="1" fill-rule="nonzero"/><path fill="#000000" d="M 69.507812 297.109375 C 69.1875 297.109375 68.917969 296.855469 68.90625 296.53125 C 68.894531 296.195312 69.152344 295.914062 69.488281 295.902344 L 72.046875 295.808594 C 72.394531 295.792969 72.664062 296.054688 72.675781 296.386719 C 72.6875 296.71875 72.425781 297 72.09375 297.015625 L 69.53125 297.109375 C 69.523438 297.109375 69.515625 297.109375 69.507812 297.109375 " fill-opacity="1" fill-rule="nonzero"/><path fill="#000000" d="M 77.605469 296.804688 C 77.28125 296.804688 77.015625 296.550781 77.003906 296.222656 C 76.988281 295.890625 77.25 295.609375 77.582031 295.597656 L 80.144531 295.5 C 80.484375 295.488281 80.757812 295.75 80.769531 296.082031 C 80.785156 296.414062 80.523438 296.695312 80.191406 296.707031 L 77.628906 296.804688 C 77.621094 296.804688 77.613281 296.804688 77.605469 296.804688 " fill-opacity="1" fill-rule="nonzero"/><path fill="#000000" d="M 50.238281 247.832031 C 50.019531 247.832031 49.808594 247.714844 49.703125 247.503906 C 37.945312 224.761719 33.179688 199.226562 35.921875 173.660156 C 36.613281 167.222656 37.78125 160.808594 39.394531 154.585938 C 39.480469 154.265625 39.808594 154.074219 40.132812 154.15625 C 40.457031 154.238281 40.648438 154.570312 40.566406 154.894531 C 38.964844 161.054688 37.808594 167.410156 37.125 173.789062 C 34.40625 199.121094 39.128906 224.417969 50.773438 246.953125 C 50.929688 247.246094 50.8125 247.609375 50.515625 247.765625 C 50.425781 247.808594 50.332031 247.832031 50.238281 247.832031 " fill-opacity="1" fill-rule="nonzero"/><path fill="#000000" d="M 51.910156 250.957031 C 51.695312 250.957031 51.488281 250.84375 51.378906 250.644531 C 50.808594 249.613281 50.246094 248.558594 49.703125 247.503906 C 49.550781 247.210938 49.664062 246.84375 49.960938 246.691406 C 50.257812 246.535156 50.621094 246.652344 50.773438 246.953125 C 51.3125 247.992188 51.871094 249.039062 52.4375 250.058594 C 52.597656 250.351562 52.492188 250.71875 52.199219 250.878906 C 52.105469 250.929688 52.007812 250.957031 51.910156 250.957031 " fill-opacity="1" fill-rule="nonzero"/><path fill="#000000" d="M 44.753906 263.742188 C 44.542969 263.742188 44.339844 263.632812 44.230469 263.4375 C 36.089844 249.210938 30.414062 233.792969 27.367188 217.609375 C 24.210938 200.863281 23.957031 183.726562 26.613281 166.671875 C 26.664062 166.339844 26.972656 166.117188 27.300781 166.167969 C 27.632812 166.21875 27.855469 166.527344 27.804688 166.855469 C 22.640625 200.03125 28.847656 234.121094 45.277344 262.835938 C 45.445312 263.125 45.34375 263.496094 45.054688 263.660156 C 44.960938 263.714844 44.855469 263.742188 44.753906 263.742188 " fill-opacity="1" fill-rule="nonzero"/><path fill="#000000" d="M 27.367188 158.375 L 30.808594 159.585938 L 30.714844 155.496094 Z M 31.429688 161.046875 C 31.363281 161.046875 31.292969 161.039062 31.230469 161.011719 L 25.980469 159.171875 C 25.777344 159.097656 25.625 158.925781 25.585938 158.710938 C 25.546875 158.5 25.621094 158.28125 25.785156 158.140625 L 30.898438 153.746094 C 31.074219 153.59375 31.324219 153.558594 31.535156 153.652344 C 31.75 153.746094 31.890625 153.957031 31.894531 154.191406 L 32.035156 160.429688 C 32.039062 160.628906 31.945312 160.816406 31.785156 160.933594 C 31.679688 161.007812 31.554688 161.046875 31.429688 161.046875 " fill-opacity="1" fill-rule="nonzero"/><path fill="#000000" d="M 210.6875 157.316406 C 210.5 157.316406 210.320312 157.230469 210.199219 157.070312 C 210.003906 156.800781 210.058594 156.421875 210.328125 156.222656 L 227.929688 143.183594 C 228.199219 142.984375 228.578125 143.042969 228.777344 143.308594 C 228.972656 143.578125 228.917969 143.957031 228.652344 144.15625 L 211.046875 157.195312 C 210.9375 157.277344 210.8125 157.316406 210.6875 157.316406 " fill-opacity="1" fill-rule="nonzero"/><path fill="#000000" d="M 209.878906 101.335938 C 209.695312 101.335938 209.515625 101.253906 209.394531 101.09375 C 209.199219 100.824219 209.253906 100.445312 209.519531 100.25 L 254.441406 66.972656 C 254.710938 66.777344 255.085938 66.832031 255.285156 67.101562 C 255.480469 67.367188 255.425781 67.746094 255.15625 67.945312 L 210.238281 101.21875 C 210.132812 101.300781 210.007812 101.335938 209.878906 101.335938 " fill-opacity="1" fill-rule="nonzero"/><path fill="#000000" d="M 241.644531 86.371094 C 241.460938 86.371094 241.277344 86.285156 241.160156 86.128906 C 240.960938 85.859375 241.015625 85.480469 241.285156 85.28125 L 264.910156 67.78125 C 265.175781 67.582031 265.558594 67.640625 265.753906 67.90625 C 265.953125 68.175781 265.898438 68.554688 265.628906 68.753906 L 242.003906 86.25 C 241.894531 86.332031 241.769531 86.371094 241.644531 86.371094 " fill-opacity="1" fill-rule="nonzero"/><path fill="#000000" d="M 75.511719 160.992188 C 75.105469 160.992188 74.695312 160.917969 74.304688 160.765625 C 73.453125 160.433594 72.785156 159.785156 72.417969 158.933594 C 71.671875 157.207031 72.445312 155.175781 74.144531 154.414062 C 74.449219 154.277344 74.808594 154.414062 74.945312 154.71875 C 75.082031 155.023438 74.945312 155.378906 74.640625 155.515625 C 73.539062 156.011719 73.039062 157.328125 73.527344 158.457031 C 73.765625 159.007812 74.195312 159.425781 74.742188 159.636719 C 75.277344 159.847656 75.859375 159.828125 76.382812 159.597656 C 77.480469 159.101562 77.984375 157.78125 77.496094 156.65625 C 77.363281 156.347656 77.503906 155.992188 77.8125 155.859375 C 78.117188 155.726562 78.472656 155.871094 78.605469 156.175781 C 79.351562 157.90625 78.574219 159.933594 76.875 160.699219 C 76.4375 160.894531 75.976562 160.992188 75.511719 160.992188 " fill-opacity="1" fill-rule="nonzero"/><path fill="#ffffff" d="M 111.117188 37.847656 C 117.113281 36.28125 123.242188 39.875 124.808594 45.871094 C 126.375 51.871094 122.78125 57.996094 116.78125 59.5625 C 110.785156 61.128906 104.65625 57.539062 103.089844 51.539062 C 101.527344 45.542969 105.117188 39.410156 111.117188 37.847656 Z M 91.578125 52.292969 L 92.679688 56.507812 L 97.4375 56.351562 C 97.867188 57.28125 98.367188 58.164062 98.933594 58.992188 L 96.367188 62.996094 L 99.429688 66.097656 L 103.472656 63.582031 C 104.300781 64.164062 105.175781 64.675781 106.089844 65.113281 L 105.867188 69.871094 L 110.074219 71.027344 L 112.3125 66.835938 C 113.3125 66.921875 114.324219 66.925781 115.347656 66.847656 L 117.535156 71.078125 L 121.753906 69.976562 L 121.59375 65.21875 C 122.527344 64.789062 123.410156 64.289062 124.238281 63.722656 L 128.242188 66.285156 L 131.34375 63.222656 L 128.824219 59.183594 C 129.410156 58.355469 129.921875 57.476562 130.359375 56.566406 L 135.117188 56.785156 L 136.273438 52.582031 L 132.078125 50.34375 C 132.167969 49.34375 132.171875 48.328125 132.09375 47.304688 L 136.320312 45.117188 L 135.21875 40.902344 L 130.460938 41.058594 C 130.03125 40.128906 129.53125 39.246094 128.964844 38.417969 L 131.53125 34.414062 L 128.46875 31.3125 L 124.425781 33.828125 C 123.597656 33.246094 122.722656 32.734375 121.808594 32.292969 L 122.03125 27.535156 L 117.828125 26.382812 L 115.585938 30.578125 C 114.585938 30.488281 113.574219 30.484375 112.550781 30.5625 L 110.363281 26.332031 L 106.144531 27.433594 L 106.304688 32.195312 C 105.375 32.621094 104.488281 33.121094 103.660156 33.691406 L 99.65625 31.125 L 96.554688 34.1875 L 99.074219 38.226562 C 98.492188 39.058594 97.976562 39.933594 97.539062 40.847656 L 92.78125 40.625 L 91.625 44.828125 L 95.820312 47.066406 C 95.730469 48.066406 95.726562 49.082031 95.808594 50.105469 L 91.578125 52.292969 " fill-opacity="1" fill-rule="nonzero"/><path fill="#000000" d="M 112.964844 38.933594 L 113.117188 39.515625 C 110.375 40.234375 108.074219 41.972656 106.636719 44.421875 C 105.203125 46.867188 104.808594 49.726562 105.523438 52.472656 C 107.003906 58.136719 112.816406 61.542969 118.480469 60.0625 C 121.226562 59.347656 123.527344 57.605469 124.960938 55.160156 C 126.394531 52.710938 126.789062 49.851562 126.074219 47.109375 C 124.597656 41.445312 118.785156 38.039062 113.117188 39.515625 Z M 115.800781 61.617188 C 110.550781 61.617188 105.742188 58.089844 104.355469 52.777344 C 103.558594 49.71875 104 46.535156 105.597656 43.808594 C 107.195312 41.082031 109.757812 39.144531 112.8125 38.347656 C 119.125 36.699219 125.597656 40.492188 127.242188 46.800781 C 128.042969 49.859375 127.601562 53.046875 126.003906 55.769531 C 124.40625 58.496094 121.84375 60.4375 118.785156 61.234375 C 117.789062 61.492188 116.789062 61.617188 115.800781 61.617188 Z M 117.199219 67.328125 C 117.421875 67.328125 117.632812 67.453125 117.734375 67.65625 L 119.699219 71.453125 L 122.984375 70.597656 L 122.839844 66.324219 C 122.832031 66.078125 122.972656 65.855469 123.191406 65.753906 C 124.09375 65.335938 124.953125 64.851562 125.746094 64.304688 C 125.945312 64.167969 126.210938 64.167969 126.414062 64.296875 L 130.011719 66.601562 L 132.425781 64.21875 L 130.164062 60.585938 C 130.035156 60.382812 130.042969 60.117188 130.183594 59.917969 C 130.742188 59.121094 131.242188 58.269531 131.664062 57.386719 C 131.769531 57.167969 132 57.035156 132.238281 57.046875 L 136.511719 57.246094 L 137.414062 53.972656 L 133.644531 51.960938 C 133.429688 51.84375 133.304688 51.617188 133.324219 51.371094 C 133.414062 50.414062 133.417969 49.425781 133.339844 48.4375 C 133.320312 48.195312 133.449219 47.964844 133.664062 47.855469 L 137.464844 45.890625 L 136.609375 42.605469 L 132.332031 42.75 C 132.089844 42.757812 131.867188 42.617188 131.761719 42.398438 C 131.347656 41.496094 130.859375 40.636719 130.316406 39.84375 C 130.179688 39.644531 130.175781 39.378906 130.304688 39.175781 L 132.613281 35.578125 L 130.226562 33.164062 L 126.597656 35.425781 C 126.390625 35.554688 126.128906 35.546875 125.929688 35.410156 C 125.128906 34.847656 124.277344 34.347656 123.398438 33.925781 C 123.179688 33.820312 123.042969 33.59375 123.054688 33.351562 L 123.253906 29.078125 L 119.984375 28.175781 L 117.972656 31.945312 C 117.855469 32.160156 117.625 32.285156 117.382812 32.261719 C 116.425781 32.175781 115.4375 32.171875 114.449219 32.25 C 114.203125 32.269531 113.976562 32.140625 113.863281 31.925781 L 111.898438 28.125 L 108.617188 28.980469 L 108.757812 33.257812 C 108.765625 33.5 108.628906 33.722656 108.40625 33.828125 C 107.507812 34.242188 106.648438 34.730469 105.851562 35.273438 C 105.652344 35.410156 105.390625 35.414062 105.1875 35.285156 L 101.589844 32.976562 L 99.175781 35.363281 L 101.4375 38.992188 C 101.566406 39.199219 101.558594 39.460938 101.417969 39.660156 C 100.855469 40.460938 100.355469 41.3125 99.933594 42.191406 C 99.828125 42.410156 99.601562 42.542969 99.363281 42.53125 L 95.085938 42.335938 L 94.1875 45.609375 L 97.957031 47.617188 C 98.171875 47.734375 98.296875 47.964844 98.273438 48.207031 C 98.1875 49.164062 98.183594 50.152344 98.261719 51.140625 C 98.277344 51.386719 98.152344 51.617188 97.933594 51.726562 L 94.136719 53.691406 L 94.992188 56.976562 L 99.265625 56.832031 C 99.507812 56.824219 99.734375 56.960938 99.835938 57.179688 C 100.25 58.082031 100.738281 58.941406 101.28125 59.734375 C 101.417969 59.9375 101.425781 60.199219 101.292969 60.402344 L 98.988281 64 L 101.371094 66.417969 L 105.003906 64.15625 C 105.210938 64.023438 105.472656 64.03125 105.671875 64.171875 C 106.46875 64.734375 107.320312 65.230469 108.203125 65.65625 C 108.421875 65.757812 108.554688 65.984375 108.542969 66.226562 L 108.34375 70.503906 L 111.617188 71.402344 L 113.628906 67.632812 C 113.742188 67.417969 113.976562 67.292969 114.214844 67.316406 C 115.175781 67.402344 116.164062 67.40625 117.152344 67.332031 C 117.167969 67.328125 117.183594 67.328125 117.199219 67.328125 Z M 119.386719 72.765625 C 119.164062 72.765625 118.953125 72.644531 118.847656 72.4375 L 116.84375 68.5625 C 116.058594 68.605469 115.277344 68.601562 114.507812 68.550781 L 112.457031 72.398438 C 112.324219 72.648438 112.035156 72.773438 111.761719 72.695312 L 107.558594 71.542969 C 107.285156 71.464844 107.101562 71.210938 107.113281 70.929688 L 107.320312 66.566406 C 106.625 66.214844 105.953125 65.820312 105.308594 65.386719 L 101.597656 67.699219 C 101.359375 67.847656 101.046875 67.808594 100.851562 67.609375 L 97.789062 64.503906 C 97.589844 64.304688 97.558594 63.992188 97.710938 63.757812 L 100.0625 60.085938 C 99.640625 59.441406 99.257812 58.757812 98.910156 58.050781 L 94.550781 58.199219 C 94.257812 58.207031 94.015625 58.019531 93.945312 57.746094 L 92.84375 53.527344 C 92.773438 53.257812 92.898438 52.96875 93.148438 52.839844 L 97.027344 50.835938 C 96.984375 50.050781 96.988281 49.265625 97.039062 48.5 L 93.191406 46.445312 C 92.941406 46.3125 92.820312 46.027344 92.894531 45.753906 L 94.050781 41.550781 C 94.125 41.277344 94.367188 41.09375 94.660156 41.105469 L 99.023438 41.308594 C 99.375 40.617188 99.769531 39.941406 100.203125 39.296875 L 97.890625 35.589844 C 97.742188 35.351562 97.78125 35.039062 97.980469 34.839844 L 101.082031 31.777344 C 101.285156 31.578125 101.597656 31.546875 101.835938 31.699219 L 105.503906 34.050781 C 106.148438 33.632812 106.832031 33.246094 107.539062 32.902344 L 107.390625 28.539062 C 107.382812 28.257812 107.570312 28.003906 107.84375 27.933594 L 112.0625 26.835938 C 112.335938 26.761719 112.621094 26.890625 112.75 27.140625 L 114.753906 31.019531 C 115.539062 30.972656 116.324219 30.976562 117.089844 31.03125 L 119.144531 27.183594 C 119.277344 26.933594 119.5625 26.808594 119.835938 26.882812 L 124.039062 28.039062 C 124.3125 28.117188 124.496094 28.371094 124.484375 28.648438 L 124.28125 33.015625 C 124.972656 33.363281 125.648438 33.757812 126.292969 34.191406 L 130 31.882812 C 130.238281 31.734375 130.550781 31.769531 130.75 31.972656 L 133.8125 35.074219 C 134.011719 35.277344 134.042969 35.589844 133.890625 35.824219 L 131.539062 39.496094 C 131.957031 40.136719 132.34375 40.820312 132.6875 41.527344 L 137.050781 41.382812 C 137.339844 41.371094 137.585938 41.5625 137.65625 41.832031 L 138.757812 46.050781 C 138.828125 46.324219 138.699219 46.609375 138.449219 46.742188 L 134.570312 48.746094 C 134.617188 49.53125 134.613281 50.3125 134.5625 51.082031 L 138.40625 53.132812 C 138.65625 53.265625 138.78125 53.554688 138.707031 53.828125 L 137.550781 58.03125 C 137.476562 58.304688 137.21875 58.484375 136.9375 58.472656 L 132.578125 58.269531 C 132.226562 58.964844 131.832031 59.636719 131.398438 60.28125 L 133.707031 63.988281 C 133.855469 64.230469 133.820312 64.542969 133.617188 64.738281 L 130.515625 67.800781 C 130.316406 68 130.003906 68.035156 129.765625 67.878906 L 126.09375 65.527344 C 125.449219 65.949219 124.769531 66.332031 124.0625 66.679688 L 124.207031 71.039062 C 124.21875 71.324219 124.03125 71.574219 123.757812 71.648438 L 119.539062 72.746094 C 119.488281 72.761719 119.4375 72.765625 119.386719 72.765625 " fill-opacity="1" fill-rule="nonzero"/><path fill="#19598f" d="M 53.464844 69.519531 C 63.730469 66.839844 74.21875 72.988281 76.898438 83.25 C 79.574219 93.511719 73.425781 104 63.164062 106.679688 C 52.902344 109.359375 42.410156 103.210938 39.734375 92.949219 C 37.054688 82.6875 43.203125 72.195312 53.464844 69.519531 Z M 20.03125 94.234375 L 21.917969 101.453125 L 30.058594 101.183594 C 30.792969 102.773438 31.652344 104.285156 32.621094 105.703125 L 28.230469 112.554688 L 33.46875 117.863281 L 40.386719 113.554688 C 41.804688 114.554688 43.304688 115.433594 44.867188 116.179688 L 44.488281 124.320312 L 51.679688 126.300781 L 55.511719 119.121094 C 57.222656 119.273438 58.960938 119.28125 60.710938 119.144531 L 64.453125 126.382812 L 71.667969 124.496094 L 71.398438 116.355469 C 72.992188 115.617188 74.503906 114.761719 75.917969 113.792969 L 82.769531 118.1875 L 88.078125 112.941406 L 83.769531 106.027344 C 84.769531 104.609375 85.648438 103.113281 86.398438 101.546875 L 94.539062 101.925781 L 96.515625 94.734375 L 89.335938 90.902344 C 89.492188 89.191406 89.496094 87.453125 89.359375 85.703125 L 96.597656 81.964844 L 94.714844 74.742188 L 86.570312 75.015625 C 85.835938 73.421875 84.980469 71.910156 84.007812 70.496094 L 88.402344 63.644531 L 83.160156 58.335938 L 76.242188 62.644531 C 74.824219 61.644531 73.328125 60.769531 71.765625 60.019531 L 72.140625 51.878906 L 64.949219 49.898438 L 61.117188 57.078125 C 59.40625 56.925781 57.671875 56.917969 55.921875 57.054688 L 52.179688 49.816406 L 44.960938 51.699219 L 45.234375 59.84375 C 43.640625 60.578125 42.128906 61.433594 40.710938 62.402344 L 33.859375 58.015625 L 28.550781 63.253906 L 32.859375 70.171875 C 31.863281 71.589844 30.984375 73.085938 30.234375 74.648438 L 22.09375 74.273438 L 20.117188 81.464844 L 27.296875 85.296875 C 27.140625 87.007812 27.132812 88.746094 27.269531 90.492188 L 20.03125 94.234375 " fill-opacity="1" fill-rule="nonzero"/><path fill="#000000" d="M 56.785156 71.957031 C 51.976562 73.210938 47.945312 76.261719 45.433594 80.550781 C 42.921875 84.835938 42.230469 89.84375 43.484375 94.652344 C 44.738281 99.460938 47.789062 103.488281 52.078125 106 C 56.363281 108.515625 61.371094 109.207031 66.179688 107.953125 C 70.984375 106.695312 75.015625 103.644531 77.527344 99.359375 C 80.039062 95.070312 80.734375 90.066406 79.480469 85.257812 C 78.222656 80.449219 75.171875 76.421875 70.886719 73.90625 C 66.601562 71.394531 61.589844 70.703125 56.785156 71.957031 Z M 61.449219 109.769531 C 57.972656 109.769531 54.542969 108.847656 51.464844 107.046875 C 46.902344 104.371094 43.652344 100.078125 42.316406 94.957031 C 40.980469 89.839844 41.714844 84.503906 44.390625 79.941406 C 47.066406 75.375 51.359375 72.125 56.480469 70.789062 C 61.601562 69.453125 66.933594 70.191406 71.496094 72.867188 C 76.0625 75.539062 79.3125 79.832031 80.648438 84.953125 C 81.984375 90.074219 81.246094 95.40625 78.570312 99.96875 C 75.894531 104.535156 71.605469 107.785156 66.484375 109.121094 C 64.816406 109.554688 63.125 109.769531 61.449219 109.769531 Z M 63.875 120.394531 C 64.101562 120.394531 64.308594 120.519531 64.414062 120.722656 L 67.933594 127.53125 L 74.214844 125.890625 L 73.960938 118.230469 C 73.953125 117.988281 74.089844 117.761719 74.3125 117.660156 C 75.871094 116.941406 77.363281 116.09375 78.746094 115.152344 C 78.945312 115.011719 79.207031 115.007812 79.414062 115.140625 L 85.855469 119.269531 L 90.476562 114.710938 L 86.425781 108.203125 C 86.296875 107.996094 86.304688 107.734375 86.445312 107.535156 C 87.417969 106.148438 88.285156 104.667969 89.019531 103.144531 C 89.121094 102.921875 89.347656 102.789062 89.589844 102.800781 L 97.25 103.15625 L 98.96875 96.894531 L 92.21875 93.289062 C 92.003906 93.175781 91.878906 92.945312 91.898438 92.703125 C 92.050781 91.039062 92.058594 89.324219 91.925781 87.609375 C 91.90625 87.367188 92.035156 87.136719 92.25 87.023438 L 99.058594 83.503906 L 97.417969 77.21875 L 89.757812 77.476562 C 89.515625 77.484375 89.292969 77.347656 89.1875 77.125 C 88.46875 75.5625 87.621094 74.070312 86.675781 72.691406 C 86.539062 72.492188 86.535156 72.226562 86.667969 72.023438 L 90.796875 65.578125 L 86.234375 60.957031 L 79.726562 65.011719 C 79.523438 65.140625 79.261719 65.132812 79.0625 64.992188 C 77.675781 64.015625 76.199219 63.152344 74.667969 62.417969 C 74.449219 62.3125 74.316406 62.085938 74.328125 61.847656 L 74.683594 54.1875 L 68.421875 52.464844 L 64.816406 59.21875 C 64.703125 59.433594 64.472656 59.558594 64.230469 59.539062 C 62.566406 59.386719 60.851562 59.378906 59.132812 59.511719 C 58.890625 59.53125 58.664062 59.402344 58.550781 59.1875 L 55.03125 52.378906 L 48.746094 54.019531 L 49.003906 61.679688 C 49.011719 61.921875 48.875 62.144531 48.652344 62.246094 C 47.089844 62.96875 45.597656 63.816406 44.21875 64.761719 C 44.019531 64.898438 43.753906 64.898438 43.550781 64.769531 L 37.105469 60.636719 L 32.484375 65.199219 L 36.539062 71.710938 C 36.667969 71.914062 36.660156 72.175781 36.519531 72.375 C 35.546875 73.761719 34.679688 75.238281 33.945312 76.765625 C 33.839844 76.984375 33.613281 77.121094 33.371094 77.109375 L 25.714844 76.753906 L 23.992188 83.015625 L 30.746094 86.617188 C 30.960938 86.734375 31.085938 86.964844 31.0625 87.207031 C 30.914062 88.871094 30.90625 90.585938 31.039062 92.300781 C 31.058594 92.546875 30.929688 92.773438 30.714844 92.882812 L 23.90625 96.40625 L 25.546875 102.6875 L 33.207031 102.433594 C 33.449219 102.425781 33.671875 102.5625 33.773438 102.785156 C 34.496094 104.347656 35.339844 105.839844 36.285156 107.21875 C 36.421875 107.417969 36.425781 107.679688 36.296875 107.886719 L 32.164062 114.328125 L 36.726562 118.949219 L 43.234375 114.898438 C 43.441406 114.769531 43.703125 114.777344 43.902344 114.917969 C 45.289062 115.894531 46.765625 116.757812 48.292969 117.492188 C 48.511719 117.597656 48.648438 117.820312 48.636719 118.0625 L 48.28125 125.722656 L 54.542969 127.441406 L 58.144531 120.691406 C 58.261719 120.476562 58.492188 120.351562 58.734375 120.371094 C 60.398438 120.523438 62.113281 120.53125 63.828125 120.398438 C 63.84375 120.394531 63.859375 120.394531 63.875 120.394531 Z M 67.617188 128.84375 C 67.394531 128.84375 67.1875 128.71875 67.082031 128.515625 L 63.523438 121.628906 C 62.011719 121.730469 60.5 121.722656 59.023438 121.609375 L 55.378906 128.441406 C 55.246094 128.6875 54.957031 128.8125 54.6875 128.738281 L 47.492188 126.757812 C 47.222656 126.683594 47.039062 126.429688 47.050781 126.148438 L 47.410156 118.402344 C 46.070312 117.742188 44.769531 116.980469 43.535156 116.132812 L 36.957031 120.230469 C 36.714844 120.382812 36.40625 120.347656 36.207031 120.144531 L 30.964844 114.835938 C 30.765625 114.632812 30.734375 114.324219 30.886719 114.085938 L 35.066406 107.566406 C 34.242188 106.335938 33.5 105.023438 32.847656 103.652344 L 25.101562 103.914062 C 24.808594 103.917969 24.570312 103.734375 24.5 103.460938 L 22.613281 96.246094 C 22.542969 95.96875 22.671875 95.683594 22.921875 95.554688 L 29.804688 91.996094 C 29.707031 90.484375 29.714844 88.972656 29.828125 87.5 L 22.996094 83.851562 C 22.75 83.71875 22.625 83.433594 22.699219 83.160156 L 24.675781 75.96875 C 24.75 75.695312 25 75.511719 25.289062 75.523438 L 33.03125 75.886719 C 33.695312 74.542969 34.457031 73.242188 35.304688 72.011719 L 31.203125 65.429688 C 31.054688 65.191406 31.09375 64.878906 31.292969 64.679688 L 36.601562 59.4375 C 36.800781 59.242188 37.113281 59.207031 37.351562 59.359375 L 43.867188 63.539062 C 45.101562 62.714844 46.414062 61.976562 47.78125 61.320312 L 47.523438 53.578125 C 47.515625 53.292969 47.703125 53.042969 47.972656 52.972656 L 55.191406 51.089844 C 55.46875 51.015625 55.753906 51.144531 55.882812 51.394531 L 59.441406 58.28125 C 60.953125 58.179688 62.464844 58.183594 63.9375 58.300781 L 67.582031 51.472656 C 67.714844 51.222656 68.003906 51.097656 68.277344 51.175781 L 75.46875 53.152344 C 75.742188 53.226562 75.925781 53.476562 75.910156 53.761719 L 75.550781 61.503906 C 76.894531 62.167969 78.195312 62.929688 79.425781 63.773438 L 86.007812 59.675781 C 86.246094 59.527344 86.558594 59.566406 86.757812 59.765625 L 91.996094 65.074219 C 92.195312 65.273438 92.226562 65.589844 92.074219 65.824219 L 87.898438 72.339844 C 88.71875 73.574219 89.460938 74.886719 90.117188 76.257812 L 97.859375 75.996094 C 98.144531 75.984375 98.394531 76.175781 98.464844 76.449219 L 100.347656 83.667969 C 100.421875 83.9375 100.292969 84.226562 100.042969 84.355469 L 93.15625 87.914062 C 93.257812 89.429688 93.25 90.9375 93.136719 92.414062 L 99.964844 96.054688 C 100.214844 96.1875 100.339844 96.476562 100.261719 96.75 L 98.285156 103.941406 C 98.210938 104.214844 97.957031 104.398438 97.675781 104.386719 L 89.933594 104.027344 C 89.269531 105.363281 88.507812 106.664062 87.660156 107.902344 L 91.757812 114.480469 C 91.90625 114.71875 91.871094 115.03125 91.671875 115.230469 L 86.363281 120.46875 C 86.160156 120.667969 85.847656 120.703125 85.609375 120.546875 L 79.09375 116.371094 C 77.863281 117.191406 76.546875 117.9375 75.179688 118.589844 L 75.441406 126.332031 C 75.449219 126.613281 75.261719 126.867188 74.988281 126.9375 L 67.769531 128.824219 C 67.71875 128.835938 67.667969 128.84375 67.617188 128.84375 " fill-opacity="1" fill-rule="nonzero"/></svg>