<svg xmlns="http://www.w3.org/2000/svg" xmlns:xlink="http://www.w3.org/1999/xlink" width="500" zoomAndPan="magnify" viewBox="0 0 375 374.999991" height="500" preserveAspectRatio="xMidYMid meet" version="1.0"><rect x="-37.5" width="450" fill="#ffffff" y="-37.499999" height="449.999989" fill-opacity="1"/><rect x="-37.5" width="450" fill="#ffffff" y="-37.499999" height="449.999989" fill-opacity="1"/><path fill="#caddff" d="M 92.691406 37.355469 C 160.539062 0.0078125 251.433594 38.808594 298.800781 81.828125 C 312.332031 94.113281 345.144531 124.769531 352.890625 173.90625 C 362.515625 234.9375 331.011719 308.917969 258.765625 340.558594 C 180.125 375.003906 92.199219 342.359375 51.046875 289.375 C 12.558594 239.820312 20.261719 181.472656 23.015625 160.625 C 26.242188 136.171875 35.847656 68.648438 92.691406 37.355469 " fill-opacity="1" fill-rule="nonzero"/><path fill="#ffffff" d="M 301.136719 356.195312 L 282.480469 356.195312 L 282.480469 126.910156 L 300.949219 125.605469 L 301.136719 356.195312 " fill-opacity="1" fill-rule="nonzero"/><path fill="#000000" d="M 283.085938 355.589844 L 300.535156 355.589844 L 300.347656 126.25 L 283.085938 127.46875 Z M 301.140625 356.796875 L 282.480469 356.796875 C 282.144531 356.796875 281.875 356.527344 281.875 356.195312 L 281.875 126.90625 C 281.875 126.589844 282.121094 126.328125 282.4375 126.304688 L 300.910156 125 C 301.074219 124.988281 301.242188 125.046875 301.363281 125.160156 C 301.484375 125.273438 301.554688 125.433594 301.554688 125.601562 L 301.742188 356.195312 C 301.742188 356.355469 301.679688 356.507812 301.566406 356.621094 C 301.453125 356.734375 301.296875 356.796875 301.140625 356.796875 " fill-opacity="1" fill-rule="nonzero"/><path fill="#99b9ff" d="M 351.164062 356.195312 L 301.136719 356.195312 C 301.035156 356.195312 300.949219 356.078125 300.949219 355.933594 L 300.949219 125.875 C 300.949219 125.726562 301.039062 125.609375 301.144531 125.617188 L 351.171875 128.253906 C 351.273438 128.257812 351.351562 128.375 351.351562 128.511719 L 351.351562 355.933594 C 351.351562 356.078125 351.269531 356.195312 351.164062 356.195312 " fill-opacity="1" fill-rule="nonzero"/><path fill="#000000" d="M 301.554688 355.589844 L 350.746094 355.589844 L 350.746094 128.839844 L 301.554688 126.242188 Z M 351.164062 356.796875 L 301.136719 356.796875 C 300.695312 356.796875 300.347656 356.417969 300.347656 355.933594 L 300.347656 125.875 C 300.347656 125.621094 300.445312 125.382812 300.617188 125.222656 C 300.769531 125.074219 300.972656 125 301.175781 125.011719 L 351.203125 127.652344 C 351.628906 127.675781 351.953125 128.050781 351.953125 128.515625 L 351.953125 355.933594 C 351.953125 356.417969 351.609375 356.796875 351.164062 356.796875 " fill-opacity="1" fill-rule="nonzero"/><path fill="#caddff" d="M 334.746094 236.59375 C 334.410156 236.59375 334.140625 236.324219 334.140625 235.992188 L 334.140625 142.878906 C 334.140625 142.546875 334.410156 142.277344 334.746094 142.277344 C 335.078125 142.277344 335.351562 142.546875 335.351562 142.878906 L 335.351562 235.992188 C 335.351562 236.324219 335.078125 236.59375 334.746094 236.59375 " fill-opacity="1" fill-rule="nonzero"/><path fill="#caddff" d="M 318.917969 203.417969 C 318.585938 203.417969 318.316406 203.148438 318.316406 202.8125 L 318.316406 175.34375 C 318.316406 175.011719 318.585938 174.742188 318.917969 174.742188 C 319.253906 174.742188 319.523438 175.011719 319.523438 175.34375 L 319.523438 202.8125 C 319.523438 203.148438 319.253906 203.417969 318.917969 203.417969 " fill-opacity="1" fill-rule="nonzero"/><path fill="#caddff" d="M 318.917969 297.609375 C 318.585938 297.609375 318.316406 297.335938 318.316406 297.003906 L 318.316406 249.601562 C 318.316406 249.269531 318.585938 249 318.917969 249 C 319.253906 249 319.523438 249.269531 319.523438 249.601562 L 319.523438 297.003906 C 319.523438 297.335938 319.253906 297.609375 318.917969 297.609375 " fill-opacity="1" fill-rule="nonzero"/><path fill="#ffffff" d="M 238.222656 356.21875 L 219.652344 356.21875 L 219.652344 185.046875 L 238.121094 179.210938 L 238.222656 356.21875 " fill-opacity="1" fill-rule="nonzero"/><path fill="#000000" d="M 220.257812 355.617188 L 237.617188 355.617188 L 237.519531 180.035156 L 220.257812 185.488281 Z M 238.222656 356.824219 L 219.652344 356.824219 C 219.316406 356.824219 219.046875 356.554688 219.046875 356.21875 L 219.046875 185.046875 C 219.046875 184.78125 219.21875 184.546875 219.46875 184.46875 L 237.941406 178.632812 C 238.121094 178.578125 238.324219 178.609375 238.480469 178.722656 C 238.632812 178.835938 238.726562 179.019531 238.726562 179.210938 L 238.828125 356.21875 C 238.828125 356.378906 238.765625 356.53125 238.652344 356.648438 C 238.535156 356.761719 238.382812 356.824219 238.222656 356.824219 " fill-opacity="1" fill-rule="nonzero"/><path fill="#99b9ff" d="M 288.335938 356.21875 L 238.308594 356.21875 C 238.207031 356.21875 238.121094 356.132812 238.121094 356.019531 L 238.121094 179.417969 C 238.121094 179.308594 238.207031 179.214844 238.316406 179.21875 L 288.339844 181.246094 C 288.441406 181.25 288.523438 181.339844 288.523438 181.445312 L 288.523438 356.019531 C 288.523438 356.132812 288.4375 356.21875 288.335938 356.21875 " fill-opacity="1" fill-rule="nonzero"/><path fill="#000000" d="M 238.726562 355.617188 L 287.917969 355.617188 L 287.917969 181.832031 L 238.726562 179.839844 Z M 288.335938 356.824219 L 238.3125 356.824219 C 237.875 356.824219 237.519531 356.464844 237.519531 356.019531 L 237.519531 179.417969 C 237.519531 179.199219 237.609375 178.984375 237.765625 178.832031 C 237.917969 178.6875 238.125 178.609375 238.339844 178.617188 L 288.367188 180.640625 C 288.796875 180.660156 289.128906 181.011719 289.128906 181.445312 L 289.128906 356.019531 C 289.128906 356.464844 288.773438 356.824219 288.335938 356.824219 " fill-opacity="1" fill-rule="nonzero"/><path fill="#caddff" d="M 263.335938 271.898438 C 263 271.898438 262.730469 271.628906 262.730469 271.292969 L 262.730469 192.886719 C 262.730469 192.550781 263 192.285156 263.335938 192.285156 C 263.667969 192.285156 263.9375 192.550781 263.9375 192.886719 L 263.9375 271.292969 C 263.9375 271.628906 263.667969 271.898438 263.335938 271.898438 " fill-opacity="1" fill-rule="nonzero"/><path fill="#caddff" d="M 250.125 219.078125 C 249.792969 219.078125 249.519531 218.808594 249.519531 218.472656 L 249.519531 205.105469 C 249.519531 204.773438 249.792969 204.503906 250.125 204.503906 C 250.460938 204.503906 250.730469 204.773438 250.730469 205.105469 L 250.730469 218.472656 C 250.730469 218.808594 250.460938 219.078125 250.125 219.078125 " fill-opacity="1" fill-rule="nonzero"/><path fill="#caddff" d="M 250.125 307.75 C 249.792969 307.75 249.519531 307.480469 249.519531 307.148438 L 249.519531 240.578125 C 249.519531 240.242188 249.792969 239.972656 250.125 239.972656 C 250.460938 239.972656 250.730469 240.242188 250.730469 240.578125 L 250.730469 307.148438 C 250.730469 307.480469 250.460938 307.75 250.125 307.75 " fill-opacity="1" fill-rule="nonzero"/><path fill="#caddff" d="M 276.539062 245.425781 C 276.207031 245.425781 275.9375 245.15625 275.9375 244.820312 L 275.9375 231.457031 C 275.9375 231.121094 276.207031 230.851562 276.539062 230.851562 C 276.875 230.851562 277.144531 231.121094 277.144531 231.457031 L 277.144531 244.820312 C 277.144531 245.15625 276.875 245.425781 276.539062 245.425781 " fill-opacity="1" fill-rule="nonzero"/><path fill="#ffffff" d="M 175.75 356.21875 L 157.277344 356.21875 L 157.277344 257.835938 L 175.75 253.789062 L 175.75 356.21875 " fill-opacity="1" fill-rule="nonzero"/><path fill="#000000" d="M 157.882812 355.617188 L 175.144531 355.617188 L 175.144531 254.539062 L 157.882812 258.324219 Z M 175.75 356.824219 L 157.277344 356.824219 C 156.945312 356.824219 156.675781 356.554688 156.675781 356.21875 L 156.675781 257.835938 C 156.675781 257.554688 156.875 257.308594 157.148438 257.246094 L 175.621094 253.199219 C 175.800781 253.160156 175.988281 253.203125 176.128906 253.320312 C 176.269531 253.433594 176.351562 253.605469 176.351562 253.789062 L 176.351562 356.21875 C 176.351562 356.554688 176.082031 356.824219 175.75 356.824219 " fill-opacity="1" fill-rule="nonzero"/><path fill="#99b9ff" d="M 226.152344 356.21875 L 175.75 356.21875 L 175.75 254.003906 C 175.75 253.886719 175.847656 253.792969 175.964844 253.796875 L 226.152344 255.476562 L 226.152344 356.21875 " fill-opacity="1" fill-rule="nonzero"/><path fill="#000000" d="M 176.351562 355.617188 L 225.546875 355.617188 L 225.546875 256.0625 L 176.351562 254.414062 Z M 226.753906 356.824219 L 175.144531 356.824219 L 175.144531 254.003906 C 175.144531 253.785156 175.234375 253.574219 175.394531 253.421875 C 175.550781 253.269531 175.757812 253.183594 175.984375 253.191406 L 226.753906 254.894531 L 226.753906 356.824219 " fill-opacity="1" fill-rule="nonzero"/><path fill="#caddff" d="M 189.148438 327.660156 C 188.816406 327.660156 188.542969 327.386719 188.542969 327.054688 L 188.542969 266.027344 C 188.542969 265.695312 188.816406 265.425781 189.148438 265.425781 C 189.480469 265.425781 189.75 265.695312 189.75 266.027344 L 189.75 327.054688 C 189.75 327.386719 189.480469 327.660156 189.148438 327.660156 " fill-opacity="1" fill-rule="nonzero"/><path fill="#caddff" d="M 215.5625 334.796875 C 215.230469 334.796875 214.960938 334.523438 214.960938 334.191406 L 214.960938 273.167969 C 214.960938 272.832031 215.230469 272.5625 215.5625 272.5625 C 215.894531 272.5625 216.167969 272.832031 216.167969 273.167969 L 216.167969 334.191406 C 216.167969 334.523438 215.894531 334.796875 215.5625 334.796875 " fill-opacity="1" fill-rule="nonzero"/><path fill="#caddff" d="M 202.355469 310.886719 C 202.019531 310.886719 201.75 310.613281 201.75 310.28125 L 201.75 297.789062 C 201.75 297.457031 202.019531 297.1875 202.355469 297.1875 C 202.6875 297.1875 202.957031 297.457031 202.957031 297.789062 L 202.957031 310.28125 C 202.957031 310.613281 202.6875 310.886719 202.355469 310.886719 " fill-opacity="1" fill-rule="nonzero"/><path fill="#ffffff" d="M 113.632812 356.21875 L 94.988281 356.21875 L 94.988281 307.425781 L 113.457031 303.785156 L 113.632812 356.21875 " fill-opacity="1" fill-rule="nonzero"/><path fill="#000000" d="M 95.59375 355.617188 L 113.027344 355.617188 L 112.855469 304.519531 L 95.59375 307.921875 Z M 113.632812 356.824219 L 94.988281 356.824219 C 94.652344 356.824219 94.382812 356.554688 94.382812 356.21875 L 94.382812 307.425781 C 94.382812 307.136719 94.585938 306.890625 94.871094 306.835938 L 113.339844 303.191406 C 113.519531 303.15625 113.703125 303.203125 113.839844 303.320312 C 113.980469 303.433594 114.0625 303.601562 114.0625 303.78125 L 114.238281 356.21875 C 114.238281 356.378906 114.175781 356.53125 114.0625 356.648438 C 113.949219 356.757812 113.792969 356.824219 113.632812 356.824219 " fill-opacity="1" fill-rule="nonzero"/><path fill="#99b9ff" d="M 163.683594 356.21875 L 113.632812 356.21875 C 113.535156 356.21875 113.457031 356.140625 113.457031 356.046875 L 113.457031 303.964844 C 113.457031 303.863281 113.539062 303.785156 113.636719 303.789062 L 163.6875 304.605469 C 163.78125 304.605469 163.859375 304.683594 163.859375 304.78125 L 163.859375 356.046875 C 163.859375 356.140625 163.78125 356.21875 163.683594 356.21875 " fill-opacity="1" fill-rule="nonzero"/><path fill="#000000" d="M 114.0625 355.617188 L 163.257812 355.617188 L 163.257812 305.203125 L 114.0625 304.398438 Z M 163.683594 356.824219 L 113.632812 356.824219 C 113.203125 356.824219 112.855469 356.472656 112.855469 356.046875 L 112.855469 303.964844 C 112.855469 303.753906 112.9375 303.554688 113.085938 303.40625 C 113.238281 303.261719 113.441406 303.179688 113.648438 303.183594 L 163.695312 304 C 164.121094 304.007812 164.464844 304.359375 164.464844 304.78125 L 164.464844 356.046875 C 164.464844 356.472656 164.113281 356.824219 163.683594 356.824219 " fill-opacity="1" fill-rule="nonzero"/><path fill="#caddff" d="M 148.625 344.429688 C 148.292969 344.429688 148.023438 344.160156 148.023438 343.828125 L 148.023438 312.78125 C 148.023438 312.445312 148.292969 312.175781 148.625 312.175781 C 148.960938 312.175781 149.230469 312.445312 149.230469 312.78125 L 149.230469 343.828125 C 149.230469 344.160156 148.960938 344.429688 148.625 344.429688 " fill-opacity="1" fill-rule="nonzero"/><path fill="#caddff" d="M 132.800781 333.367188 C 132.46875 333.367188 132.195312 333.097656 132.195312 332.765625 L 132.195312 323.605469 C 132.195312 323.269531 132.46875 323 132.800781 323 C 133.136719 323 133.40625 323.269531 133.40625 323.605469 L 133.40625 332.765625 C 133.40625 333.097656 133.136719 333.367188 132.800781 333.367188 " fill-opacity="1" fill-rule="nonzero"/><path fill="#ffffff" d="M 51.492188 356.21875 L 32.84375 356.21875 L 32.84375 330.667969 L 51.316406 327.550781 L 51.492188 356.21875 " fill-opacity="1" fill-rule="nonzero"/><path fill="#000000" d="M 33.449219 355.617188 L 50.882812 355.617188 L 50.714844 328.261719 L 33.449219 331.175781 Z M 51.492188 356.824219 L 32.84375 356.824219 C 32.511719 356.824219 32.242188 356.554688 32.242188 356.21875 L 32.242188 330.667969 C 32.242188 330.371094 32.453125 330.121094 32.746094 330.070312 L 51.214844 326.953125 C 51.390625 326.925781 51.570312 326.972656 51.703125 327.085938 C 51.839844 327.203125 51.917969 327.371094 51.921875 327.546875 L 52.097656 356.21875 C 52.097656 356.378906 52.035156 356.53125 51.921875 356.648438 C 51.808594 356.757812 51.652344 356.824219 51.492188 356.824219 " fill-opacity="1" fill-rule="nonzero"/><path fill="#99b9ff" d="M 101.542969 356.21875 L 51.492188 356.21875 C 51.394531 356.21875 51.316406 356.175781 51.316406 356.125 L 51.316406 327.648438 C 51.316406 327.59375 51.394531 327.550781 51.496094 327.554688 L 101.546875 328 C 101.640625 328 101.71875 328.042969 101.71875 328.09375 L 101.71875 356.125 C 101.71875 356.175781 101.640625 356.21875 101.542969 356.21875 " fill-opacity="1" fill-rule="nonzero"/><path fill="#000000" d="M 51.921875 355.617188 L 101.113281 355.617188 L 101.113281 328.597656 L 51.921875 328.160156 Z M 101.542969 356.824219 L 51.492188 356.824219 C 51.054688 356.824219 50.710938 356.515625 50.710938 356.125 L 50.710938 327.648438 C 50.710938 327.46875 50.785156 327.300781 50.914062 327.171875 C 51.058594 327.027344 51.28125 326.949219 51.5 326.949219 L 101.550781 327.394531 C 101.988281 327.398438 102.320312 327.699219 102.320312 328.09375 L 102.320312 356.125 C 102.320312 356.515625 101.980469 356.824219 101.542969 356.824219 " fill-opacity="1" fill-rule="nonzero"/><path fill="#caddff" d="M 86.484375 350.050781 C 86.152344 350.050781 85.878906 349.777344 85.878906 349.445312 L 85.878906 332.46875 C 85.878906 332.132812 86.152344 331.863281 86.484375 331.863281 C 86.820312 331.863281 87.089844 332.132812 87.089844 332.46875 L 87.089844 349.445312 C 87.089844 349.777344 86.820312 350.050781 86.484375 350.050781 " fill-opacity="1" fill-rule="nonzero"/><path fill="#caddff" d="M 70.660156 344 C 70.324219 344 70.054688 343.730469 70.054688 343.394531 L 70.054688 338.386719 C 70.054688 338.054688 70.324219 337.78125 70.660156 337.78125 C 70.992188 337.78125 71.261719 338.054688 71.261719 338.386719 L 71.261719 343.394531 C 71.261719 343.730469 70.992188 344 70.660156 344 " fill-opacity="1" fill-rule="nonzero"/><path fill="#5479f7" d="M 314.832031 121.699219 L 305.808594 121.699219 L 305.808594 97.640625 L 314.832031 97.640625 L 314.832031 121.699219 " fill-opacity="1" fill-rule="nonzero"/><path fill="#000000" d="M 306.414062 121.097656 L 314.226562 121.097656 L 314.226562 98.246094 L 306.414062 98.246094 Z M 314.832031 122.304688 L 305.808594 122.304688 C 305.472656 122.304688 305.203125 122.035156 305.203125 121.699219 L 305.203125 97.640625 C 305.203125 97.308594 305.472656 97.039062 305.808594 97.039062 L 314.832031 97.039062 C 315.164062 97.039062 315.4375 97.308594 315.4375 97.640625 L 315.4375 121.699219 C 315.4375 122.035156 315.164062 122.304688 314.832031 122.304688 " fill-opacity="1" fill-rule="nonzero"/><path fill="#5479f7" d="M 317.421875 122.066406 L 303.117188 122.066406 C 302.535156 122.066406 302.066406 121.597656 302.066406 121.015625 L 302.066406 116.371094 C 302.066406 115.792969 302.535156 115.324219 303.117188 115.324219 L 317.421875 115.324219 C 318.003906 115.324219 318.472656 115.792969 318.472656 116.371094 L 318.472656 121.015625 C 318.472656 121.597656 318.003906 122.066406 317.421875 122.066406 " fill-opacity="1" fill-rule="nonzero"/><path fill="#000000" d="M 305.292969 115.921875 C 303.851562 115.921875 302.675781 117.097656 302.675781 118.539062 L 302.675781 118.839844 C 302.675781 120.285156 303.851562 121.457031 305.292969 121.457031 L 315.253906 121.457031 C 316.699219 121.457031 317.871094 120.285156 317.871094 118.839844 L 317.871094 118.539062 C 317.871094 117.097656 316.699219 115.921875 315.253906 115.921875 Z M 315.253906 122.667969 L 305.292969 122.667969 C 303.183594 122.667969 301.464844 120.953125 301.464844 118.839844 L 301.464844 118.539062 C 301.464844 116.433594 303.183594 114.714844 305.292969 114.714844 L 315.253906 114.714844 C 317.363281 114.714844 319.082031 116.433594 319.082031 118.539062 L 319.082031 118.839844 C 319.082031 120.953125 317.363281 122.667969 315.253906 122.667969 " fill-opacity="1" fill-rule="nonzero"/><path fill="#5479f7" d="M 327.40625 126.257812 L 293.136719 126.257812 L 293.136719 122.617188 C 293.136719 121.707031 293.871094 120.972656 294.78125 120.972656 L 325.761719 120.972656 C 326.671875 120.972656 327.40625 121.707031 327.40625 122.617188 L 327.40625 126.257812 " fill-opacity="1" fill-rule="nonzero"/><path fill="#000000" d="M 293.777344 125.652344 L 326.765625 125.652344 C 326.46875 123.355469 324.5 121.574219 322.121094 121.574219 L 298.421875 121.574219 C 296.046875 121.574219 294.074219 123.355469 293.777344 125.652344 Z M 327.410156 126.859375 L 293.136719 126.859375 C 292.800781 126.859375 292.53125 126.589844 292.53125 126.257812 C 292.53125 123.007812 295.175781 120.367188 298.421875 120.367188 L 322.121094 120.367188 C 325.371094 120.367188 328.011719 123.007812 328.011719 126.257812 C 328.011719 126.589844 327.742188 126.859375 327.410156 126.859375 " fill-opacity="1" fill-rule="nonzero"/><path fill="#5479f7" d="M 303.347656 96.46875 C 293.878906 91.152344 284.417969 83.132812 277.378906 74.460938 C 273.058594 69.136719 266.164062 59.171875 268.554688 52.269531 C 269.246094 50.277344 271.003906 47.773438 275.445312 47.164062 C 278.667969 46.71875 283.03125 47.332031 288.410156 48.980469 L 287.234375 53.722656 C 282.421875 52.246094 278.632812 51.683594 275.984375 52.046875 C 274.164062 52.296875 273.050781 52.96875 272.679688 54.039062 C 271.800781 56.582031 273.925781 62.863281 280.65625 71.160156 C 287.34375 79.398438 296.339844 87.023438 305.339844 92.074219 L 303.347656 96.46875 " fill-opacity="1" fill-rule="nonzero"/><path fill="#000000" d="M 277.632812 47.625 C 276.882812 47.625 276.179688 47.671875 275.527344 47.761719 C 271.386719 48.328125 269.761719 50.632812 269.128906 52.46875 C 266.832031 59.097656 273.605469 68.851562 277.847656 74.078125 C 284.695312 82.519531 293.859375 90.335938 303.074219 95.617188 L 304.5625 92.328125 C 295.65625 87.238281 286.800781 79.6875 280.1875 71.542969 C 272.839844 62.484375 271.242188 56.347656 272.109375 53.839844 C 272.5625 52.535156 273.839844 51.730469 275.902344 51.449219 C 278.527344 51.085938 282.191406 51.597656 286.800781 52.960938 L 287.683594 49.390625 C 283.734375 48.214844 280.363281 47.625 277.632812 47.625 Z M 303.347656 97.070312 C 303.246094 97.070312 303.144531 97.046875 303.054688 96.996094 C 293.519531 91.644531 283.992188 83.566406 276.910156 74.839844 C 272.511719 69.417969 265.5 59.253906 267.984375 52.070312 C 268.730469 49.917969 270.617188 47.214844 275.363281 46.5625 C 278.675781 46.109375 283.125 46.726562 288.585938 48.402344 C 288.894531 48.496094 289.074219 48.8125 288.996094 49.121094 L 287.824219 53.867188 C 287.78125 54.027344 287.679688 54.167969 287.535156 54.25 C 287.390625 54.332031 287.21875 54.347656 287.058594 54.300781 C 282.328125 52.851562 278.628906 52.292969 276.066406 52.644531 C 274.492188 52.863281 273.542969 53.398438 273.25 54.238281 C 272.453125 56.542969 274.574219 62.707031 281.128906 70.78125 C 287.765625 78.960938 296.699219 86.53125 305.632812 91.546875 C 305.910156 91.703125 306.019531 92.039062 305.890625 92.324219 L 303.898438 96.71875 C 303.832031 96.871094 303.699219 96.988281 303.539062 97.042969 C 303.476562 97.0625 303.414062 97.070312 303.347656 97.070312 " fill-opacity="1" fill-rule="nonzero"/><path fill="#5479f7" d="M 317.476562 96.195312 C 326.792969 90.878906 336.105469 82.855469 343.027344 74.183594 C 347.28125 68.859375 354.058594 58.898438 351.707031 51.992188 C 351.027344 50 349.300781 47.496094 344.929688 46.886719 C 341.757812 46.445312 337.464844 47.054688 332.175781 48.703125 L 333.328125 53.445312 C 338.070312 51.972656 341.796875 51.40625 344.398438 51.769531 C 346.191406 52.019531 347.285156 52.691406 347.648438 53.765625 C 348.515625 56.304688 346.425781 62.589844 339.800781 70.886719 C 333.222656 79.125 324.375 86.746094 315.519531 91.800781 L 317.476562 96.195312 " fill-opacity="1" fill-rule="nonzero"/><path fill="#000000" d="M 316.292969 92.054688 L 317.753906 95.335938 C 326.8125 90.058594 335.824219 82.242188 342.554688 73.808594 C 346.730469 68.578125 353.394531 58.820312 351.136719 52.1875 C 350.511719 50.355469 348.914062 48.050781 344.84375 47.488281 C 341.871094 47.074219 337.851562 47.621094 332.898438 49.113281 L 333.765625 52.683594 C 338.296875 51.324219 341.90625 50.8125 344.480469 51.175781 C 346.519531 51.457031 347.777344 52.261719 348.222656 53.570312 C 349.070312 56.074219 347.503906 62.207031 340.273438 71.261719 C 333.769531 79.414062 325.050781 86.964844 316.292969 92.054688 Z M 317.480469 96.796875 C 317.414062 96.796875 317.351562 96.789062 317.289062 96.769531 C 317.128906 96.714844 316.996094 96.597656 316.925781 96.441406 L 314.96875 92.046875 C 314.839844 91.761719 314.949219 91.429688 315.21875 91.277344 C 324.007812 86.257812 332.796875 78.691406 339.328125 70.511719 C 345.773438 62.433594 347.863281 56.269531 347.078125 53.960938 C 346.792969 53.121094 345.863281 52.585938 344.3125 52.371094 C 341.796875 52.019531 338.164062 52.578125 333.507812 54.023438 C 333.347656 54.074219 333.175781 54.054688 333.03125 53.972656 C 332.886719 53.890625 332.78125 53.753906 332.742188 53.589844 L 331.585938 48.84375 C 331.511719 48.535156 331.691406 48.222656 331.996094 48.128906 C 337.371094 46.453125 341.75 45.835938 345.011719 46.289062 C 349.691406 46.941406 351.546875 49.644531 352.28125 51.800781 C 354.722656 58.976562 347.828125 69.144531 343.5 74.5625 C 336.53125 83.289062 327.15625 91.367188 317.773438 96.71875 C 317.6875 96.769531 317.582031 96.796875 317.480469 96.796875 " fill-opacity="1" fill-rule="nonzero"/><path fill="#5479f7" d="M 310.339844 100.738281 C 334.433594 101.007812 334.691406 66.792969 339.875 39.539062 L 280.625 39.320312 C 285.414062 67.359375 286.289062 101.195312 310.339844 100.738281 " fill-opacity="1" fill-rule="nonzero"/><path fill="#000000" d="M 281.339844 39.929688 C 281.984375 43.769531 282.566406 47.765625 283.132812 51.632812 C 284.902344 63.742188 286.734375 76.261719 290.628906 85.402344 C 294.988281 95.628906 301.230469 100.308594 310.328125 100.136719 C 310.332031 100.136719 310.339844 100.136719 310.347656 100.136719 C 310.441406 100.136719 310.53125 100.136719 310.625 100.136719 C 319.289062 100.136719 325.296875 95.640625 329.511719 85.996094 C 333.324219 77.277344 335.144531 65.339844 336.910156 53.796875 C 337.601562 49.269531 338.316406 44.589844 339.144531 40.140625 Z M 309.863281 101.351562 C 289.183594 101.351562 285.5 76.167969 281.9375 51.808594 C 281.339844 47.707031 280.71875 43.46875 280.03125 39.421875 C 280 39.246094 280.046875 39.066406 280.164062 38.933594 C 280.277344 38.796875 280.445312 38.71875 280.625 38.71875 L 339.875 38.9375 C 340.054688 38.9375 340.222656 39.019531 340.335938 39.15625 C 340.453125 39.292969 340.5 39.476562 340.464844 39.65625 C 339.582031 44.292969 338.832031 49.21875 338.105469 53.980469 C 334.546875 77.269531 330.871094 101.34375 310.621094 101.34375 C 310.527344 101.34375 310.433594 101.34375 310.339844 101.34375 C 310.179688 101.347656 310.019531 101.351562 309.863281 101.351562 " fill-opacity="1" fill-rule="nonzero"/><path fill="#caddff" d="M 331.296875 71.476562 C 331.253906 71.476562 331.214844 71.472656 331.171875 71.464844 C 330.84375 71.398438 330.632812 71.078125 330.703125 70.75 C 331.800781 65.414062 332.542969 59.582031 333.261719 53.941406 C 333.742188 50.1875 334.238281 46.308594 334.832031 42.597656 C 334.882812 42.265625 335.195312 42.042969 335.523438 42.09375 C 335.855469 42.148438 336.078125 42.457031 336.027344 42.789062 C 335.433594 46.476562 334.9375 50.351562 334.460938 54.097656 C 333.738281 59.757812 332.992188 65.613281 331.886719 70.992188 C 331.828125 71.28125 331.574219 71.476562 331.296875 71.476562 " fill-opacity="1" fill-rule="nonzero"/><path fill="#caddff" d="M 310.855469 98.269531 C 310.574219 98.269531 310.324219 98.074219 310.261719 97.792969 C 310.195312 97.464844 310.402344 97.140625 310.726562 97.074219 C 319.769531 95.160156 325.589844 88.902344 329.054688 77.390625 C 329.148438 77.070312 329.488281 76.886719 329.800781 76.984375 C 330.125 77.082031 330.304688 77.417969 330.207031 77.738281 C 326.605469 89.71875 320.496094 96.238281 310.980469 98.257812 C 310.9375 98.265625 310.894531 98.269531 310.855469 98.269531 " fill-opacity="1" fill-rule="nonzero"/><path fill="#5479f7" d="M 342.136719 42.574219 L 278.933594 42.574219 C 278.265625 42.574219 277.722656 42.03125 277.722656 41.363281 L 277.722656 35.996094 C 277.722656 35.324219 278.265625 34.785156 278.933594 34.785156 L 342.136719 34.785156 C 342.804688 34.785156 343.347656 35.324219 343.347656 35.996094 L 343.347656 41.363281 C 343.347656 42.03125 342.804688 42.574219 342.136719 42.574219 " fill-opacity="1" fill-rule="nonzero"/><path fill="#000000" d="M 281.617188 35.386719 C 279.804688 35.386719 278.324219 36.863281 278.324219 38.679688 C 278.324219 40.492188 279.804688 41.96875 281.617188 41.96875 L 339.453125 41.96875 C 341.265625 41.96875 342.746094 40.492188 342.746094 38.679688 C 342.746094 36.863281 341.265625 35.386719 339.453125 35.386719 Z M 339.453125 43.179688 L 281.617188 43.179688 C 279.136719 43.179688 277.117188 41.160156 277.117188 38.679688 C 277.117188 36.199219 279.136719 34.179688 281.617188 34.179688 L 339.453125 34.179688 C 341.933594 34.179688 343.953125 36.199219 343.953125 38.679688 C 343.953125 41.160156 341.933594 43.179688 339.453125 43.179688 " fill-opacity="1" fill-rule="nonzero"/><path fill="#caddff" d="M 323.140625 38.601562 C 322.808594 38.601562 322.539062 38.335938 322.535156 38.003906 C 322.53125 37.667969 322.796875 37.398438 323.132812 37.394531 L 335.421875 37.257812 C 335.425781 37.257812 335.425781 37.257812 335.429688 37.257812 C 335.757812 37.257812 336.027344 37.523438 336.035156 37.855469 C 336.035156 38.1875 335.769531 38.460938 335.4375 38.464844 L 323.144531 38.601562 C 323.144531 38.601562 323.140625 38.601562 323.140625 38.601562 " fill-opacity="1" fill-rule="nonzero"/><path fill="#caddff" d="M 313.070312 38.71875 C 312.742188 38.71875 312.472656 38.453125 312.46875 38.121094 C 312.464844 37.785156 312.734375 37.511719 313.066406 37.507812 L 319.910156 37.429688 C 319.914062 37.429688 319.914062 37.429688 319.917969 37.429688 C 320.25 37.429688 320.519531 37.699219 320.523438 38.03125 C 320.523438 38.363281 320.257812 38.636719 319.925781 38.640625 L 313.078125 38.71875 C 313.078125 38.71875 313.074219 38.71875 313.070312 38.71875 " fill-opacity="1" fill-rule="nonzero"/><path fill="#ffffff" d="M 109.644531 278.230469 L 107.816406 294.425781 L 114.707031 297.292969 L 117.242188 279.636719 L 109.644531 278.230469 " fill-opacity="1" fill-rule="nonzero"/><path fill="#000000" d="M 108.46875 294.039062 L 114.21875 296.433594 L 116.5625 280.125 L 110.171875 278.941406 Z M 114.707031 297.894531 C 114.625 297.894531 114.546875 297.878906 114.472656 297.847656 L 107.582031 294.980469 C 107.335938 294.878906 107.1875 294.625 107.214844 294.355469 L 109.042969 278.164062 C 109.0625 277.996094 109.148438 277.847656 109.28125 277.746094 C 109.417969 277.644531 109.585938 277.605469 109.753906 277.636719 L 117.351562 279.042969 C 117.671875 279.101562 117.886719 279.402344 117.839844 279.722656 L 115.304688 297.378906 C 115.277344 297.5625 115.167969 297.722656 115.003906 297.816406 C 114.910156 297.867188 114.808594 297.894531 114.707031 297.894531 " fill-opacity="1" fill-rule="nonzero"/><path fill="#99b9ff" d="M 106.210938 292.894531 C 105.996094 294.429688 105.644531 297.277344 105.617188 299.828125 C 105.597656 301.433594 106.800781 302.789062 108.394531 302.988281 C 112.890625 303.566406 123.09375 304.199219 131.78125 303.410156 C 132.378906 303.355469 133.429688 302.925781 133.722656 301.4375 C 134.707031 296.449219 126.03125 295.230469 116.515625 291.613281 C 116.144531 291.46875 115.722656 291.554688 115.433594 291.832031 L 114.410156 292.824219 C 113.382812 293.820312 111.859375 294.101562 110.546875 293.539062 L 107.425781 292.210938 C 106.894531 291.984375 106.292969 292.324219 106.210938 292.894531 " fill-opacity="1" fill-rule="nonzero"/><path fill="#000000" d="M 106.8125 292.980469 C 106.601562 294.453125 106.25 297.300781 106.222656 299.835938 C 106.207031 301.128906 107.171875 302.222656 108.46875 302.390625 C 113.109375 302.984375 123.128906 303.589844 131.726562 302.808594 C 131.917969 302.789062 132.871094 302.640625 133.128906 301.320312 C 133.75 298.179688 129.800781 296.722656 122.761719 294.414062 C 120.6875 293.734375 118.542969 293.027344 116.300781 292.175781 C 116.148438 292.117188 115.972656 292.152344 115.855469 292.265625 L 114.828125 293.257812 C 113.625 294.425781 111.851562 294.753906 110.308594 294.09375 L 107.1875 292.765625 C 107.082031 292.71875 106.992188 292.753906 106.949219 292.777344 C 106.90625 292.804688 106.828125 292.863281 106.8125 292.980469 Z M 122.730469 304.386719 C 116.875 304.386719 111.410156 303.988281 108.316406 303.589844 C 106.410156 303.347656 104.992188 301.726562 105.011719 299.824219 C 105.042969 297.21875 105.402344 294.3125 105.613281 292.808594 C 105.679688 292.347656 105.949219 291.953125 106.355469 291.726562 C 106.757812 291.5 107.234375 291.472656 107.664062 291.65625 L 110.78125 292.984375 C 111.878906 293.449219 113.136719 293.21875 113.988281 292.390625 L 115.015625 291.398438 C 115.46875 290.960938 116.140625 290.824219 116.730469 291.046875 C 118.945312 291.890625 121.078125 292.589844 123.140625 293.265625 C 129.863281 295.472656 135.171875 297.214844 134.316406 301.554688 C 133.984375 303.234375 132.773438 303.925781 131.839844 304.011719 C 128.878906 304.28125 125.75 304.386719 122.730469 304.386719 " fill-opacity="1" fill-rule="nonzero"/><path fill="#ffffff" d="M 105.625 299.445312 C 105.625 299.445312 105.617188 299.707031 105.617188 299.828125 C 105.597656 301.433594 106.800781 302.789062 108.394531 302.988281 C 112.890625 303.566406 123.09375 304.199219 131.78125 303.410156 C 132.378906 303.355469 133.429688 302.925781 133.722656 301.4375 C 133.8125 300.984375 133.757812 300.164062 133.757812 300.164062 L 133.140625 300.191406 C 124.359375 300.625 115.558594 300.414062 106.808594 299.5625 L 105.625 299.445312 " fill-opacity="1" fill-rule="nonzero"/><path fill="#000000" d="M 106.234375 300.113281 C 106.347656 301.28125 107.265625 302.238281 108.46875 302.390625 C 113.109375 302.984375 123.128906 303.589844 131.726562 302.808594 C 131.917969 302.789062 132.871094 302.640625 133.128906 301.320312 C 133.15625 301.183594 133.167969 300.988281 133.167969 300.796875 C 124.390625 301.230469 115.5 301.015625 106.75 300.164062 Z M 122.730469 304.386719 C 116.875 304.386719 111.410156 303.988281 108.316406 303.589844 C 106.410156 303.347656 104.992188 301.726562 105.011719 299.824219 L 105.019531 299.433594 C 105.023438 299.265625 105.097656 299.105469 105.222656 298.996094 C 105.347656 298.882812 105.515625 298.828125 105.683594 298.84375 L 106.867188 298.960938 C 115.558594 299.808594 124.386719 300.019531 133.113281 299.589844 L 133.726562 299.558594 C 134.066406 299.542969 134.339844 299.792969 134.359375 300.121094 C 134.367188 300.214844 134.417969 301.035156 134.316406 301.554688 C 133.984375 303.234375 132.773438 303.925781 131.839844 304.011719 C 128.878906 304.28125 125.75 304.386719 122.730469 304.386719 " fill-opacity="1" fill-rule="nonzero"/><path fill="#000000" d="M 118.699219 297.601562 C 118.542969 297.601562 118.390625 297.542969 118.269531 297.425781 C 118.035156 297.191406 118.035156 296.804688 118.269531 296.570312 L 121.609375 293.230469 C 121.84375 292.996094 122.226562 292.996094 122.464844 293.230469 C 122.699219 293.464844 122.699219 293.851562 122.464844 294.085938 L 119.125 297.425781 C 119.007812 297.542969 118.851562 297.601562 118.699219 297.601562 " fill-opacity="1" fill-rule="nonzero"/><path fill="#000000" d="M 121.976562 297.945312 C 121.824219 297.945312 121.675781 297.890625 121.558594 297.777344 C 121.316406 297.546875 121.308594 297.164062 121.542969 296.925781 L 124.207031 294.152344 C 124.441406 293.914062 124.824219 293.90625 125.0625 294.140625 C 125.304688 294.371094 125.3125 294.753906 125.078125 294.992188 L 122.414062 297.761719 C 122.292969 297.886719 122.136719 297.945312 121.976562 297.945312 " fill-opacity="1" fill-rule="nonzero"/><path fill="#000000" d="M 134.660156 171.511719 C 134.660156 171.511719 130.46875 173.945312 128.832031 188.210938 C 127.195312 202.480469 127.742188 219.296875 116.34375 235.980469 C 107.242188 249.296875 108.039062 271.78125 106.71875 286.515625 C 106.652344 287.226562 107.199219 287.84375 107.914062 287.867188 L 116.640625 288.167969 C 117.199219 288.1875 117.699219 287.835938 117.867188 287.308594 C 119.429688 282.480469 127.183594 259.183594 135.898438 245.675781 C 145.105469 231.402344 156.304688 194.347656 156.304688 194.347656 C 156.304688 194.347656 154.222656 184.984375 153.9375 176.007812 C 153.648438 167.03125 134.660156 171.511719 134.660156 171.511719 " fill-opacity="1" fill-rule="nonzero"/><path fill="#ffffff" d="M 186.054688 230.195312 L 182.371094 246.070312 L 188.886719 249.710938 L 193.441406 232.46875 L 186.054688 230.195312 " fill-opacity="1" fill-rule="nonzero"/><path fill="#000000" d="M 183.066406 245.765625 L 188.5 248.804688 L 192.710938 232.875 L 186.496094 230.964844 Z M 188.886719 250.316406 C 188.785156 250.316406 188.683594 250.289062 188.59375 250.238281 L 182.078125 246.597656 C 181.84375 246.464844 181.726562 246.195312 181.785156 245.933594 L 185.464844 230.058594 C 185.503906 229.894531 185.605469 229.753906 185.753906 229.667969 C 185.898438 229.585938 186.070312 229.566406 186.230469 229.617188 L 193.621094 231.890625 C 193.929688 231.988281 194.109375 232.308594 194.023438 232.621094 L 189.46875 249.867188 C 189.421875 250.046875 189.292969 250.195312 189.121094 250.269531 C 189.046875 250.300781 188.964844 250.316406 188.886719 250.316406 " fill-opacity="1" fill-rule="nonzero"/><path fill="#99b9ff" d="M 181.589844 245.132812 C 181.375 246.667969 179.996094 249.578125 179.964844 252.128906 C 179.945312 253.734375 181.152344 255.085938 182.742188 255.289062 C 187.238281 255.867188 198.472656 256.4375 207.160156 255.648438 C 207.757812 255.59375 208.808594 255.160156 209.101562 253.675781 C 210.085938 248.6875 201.40625 247.464844 191.894531 243.851562 C 191.523438 243.707031 191.101562 243.792969 190.8125 244.070312 L 189.789062 245.0625 C 188.761719 246.058594 187.238281 246.339844 185.925781 245.777344 L 182.804688 244.449219 C 182.273438 244.222656 181.671875 244.5625 181.589844 245.132812 " fill-opacity="1" fill-rule="nonzero"/><path fill="#000000" d="M 182.191406 245.214844 C 182.101562 245.832031 181.859375 246.605469 181.578125 247.496094 C 181.132812 248.886719 180.585938 250.621094 180.570312 252.136719 C 180.554688 253.425781 181.523438 254.523438 182.820312 254.691406 C 186.894531 255.214844 198.199219 255.855469 207.105469 255.046875 C 207.296875 255.027344 208.25 254.875 208.507812 253.558594 C 209.128906 250.417969 205.175781 248.960938 198.140625 246.652344 C 196.066406 245.96875 193.921875 245.265625 191.679688 244.414062 C 191.523438 244.355469 191.351562 244.390625 191.234375 244.503906 L 190.207031 245.496094 C 189.003906 246.660156 187.230469 246.988281 185.6875 246.332031 L 182.566406 245.003906 C 182.460938 244.957031 182.371094 244.992188 182.324219 245.015625 C 182.28125 245.039062 182.207031 245.097656 182.191406 245.214844 Z M 197.421875 256.636719 C 191.535156 256.636719 185.816406 256.292969 182.664062 255.886719 C 180.761719 255.644531 179.339844 254.027344 179.359375 252.121094 C 179.378906 250.425781 179.960938 248.597656 180.421875 247.132812 C 180.691406 246.292969 180.921875 245.566406 180.992188 245.046875 C 181.058594 244.585938 181.328125 244.191406 181.730469 243.964844 C 182.136719 243.734375 182.613281 243.710938 183.042969 243.890625 L 186.164062 245.222656 C 187.253906 245.6875 188.511719 245.457031 189.367188 244.628906 L 190.394531 243.636719 C 190.84375 243.199219 191.519531 243.0625 192.109375 243.285156 C 194.324219 244.128906 196.457031 244.824219 198.515625 245.503906 C 205.242188 247.707031 210.550781 249.449219 209.695312 253.792969 C 209.363281 255.46875 208.152344 256.164062 207.21875 256.25 C 204.195312 256.523438 200.78125 256.636719 197.421875 256.636719 " fill-opacity="1" fill-rule="nonzero"/><path fill="#ffffff" d="M 180.210938 251.640625 C 180.210938 251.640625 180.203125 251.898438 180.203125 252.023438 C 180.183594 253.628906 181.386719 254.980469 182.980469 255.183594 C 187.476562 255.761719 198.472656 256.4375 207.160156 255.648438 C 207.757812 255.59375 208.808594 255.160156 209.101562 253.675781 C 209.191406 253.21875 209.136719 252.398438 209.136719 252.398438 L 208.519531 252.429688 C 199.738281 252.863281 190.9375 252.652344 182.1875 251.796875 L 180.210938 251.640625 " fill-opacity="1" fill-rule="nonzero"/><path fill="#000000" d="M 180.820312 252.296875 C 180.929688 253.46875 181.847656 254.429688 183.054688 254.585938 C 186.996094 255.089844 198.054688 255.867188 207.105469 255.046875 C 207.296875 255.027344 208.25 254.875 208.507812 253.558594 C 208.535156 253.429688 208.546875 253.234375 208.546875 253.035156 C 199.765625 253.464844 190.878906 253.253906 182.128906 252.402344 Z M 198.257812 256.613281 C 191.734375 256.613281 185.628906 256.132812 182.902344 255.78125 C 180.996094 255.539062 179.578125 253.917969 179.597656 252.015625 L 179.605469 251.628906 C 179.609375 251.460938 179.683594 251.304688 179.804688 251.191406 C 179.929688 251.078125 180.089844 251.023438 180.257812 251.039062 L 182.234375 251.199219 C 190.9375 252.046875 199.765625 252.257812 208.492188 251.828125 L 209.105469 251.796875 C 209.445312 251.777344 209.714844 252.03125 209.738281 252.359375 C 209.746094 252.449219 209.796875 253.273438 209.695312 253.792969 C 209.363281 255.46875 208.152344 256.164062 207.21875 256.25 C 204.335938 256.511719 201.253906 256.613281 198.257812 256.613281 " fill-opacity="1" fill-rule="nonzero"/><path fill="#000000" d="M 194.078125 249.839844 C 193.921875 249.839844 193.765625 249.777344 193.648438 249.660156 C 193.414062 249.425781 193.414062 249.042969 193.648438 248.808594 L 196.988281 245.46875 C 197.222656 245.234375 197.605469 245.234375 197.839844 245.46875 C 198.078125 245.703125 198.078125 246.085938 197.839844 246.324219 L 194.503906 249.660156 C 194.382812 249.777344 194.230469 249.839844 194.078125 249.839844 " fill-opacity="1" fill-rule="nonzero"/><path fill="#000000" d="M 197.355469 250.183594 C 197.203125 250.183594 197.054688 250.128906 196.933594 250.015625 C 196.695312 249.785156 196.6875 249.402344 196.917969 249.160156 L 199.585938 246.390625 C 199.820312 246.152344 200.203125 246.144531 200.441406 246.375 C 200.683594 246.605469 200.691406 246.988281 200.457031 247.230469 L 197.789062 250 C 197.671875 250.121094 197.515625 250.183594 197.355469 250.183594 " fill-opacity="1" fill-rule="nonzero"/><path fill="#000000" d="M 151.472656 196.867188 C 151.472656 196.867188 171.082031 195.324219 192.964844 183.574219 C 193.609375 183.230469 194.027344 184.296875 193.636719 184.917969 C 192.535156 186.660156 191.949219 189.273438 190.304688 193.730469 C 188.28125 199.21875 184.011719 227.621094 182.601562 236.457031 C 182.476562 237.253906 183.078125 237.980469 183.886719 238.007812 L 192.300781 238.28125 C 192.832031 238.296875 193.324219 238.003906 193.554688 237.523438 C 196.589844 231.199219 216.414062 181.433594 215.65625 172.164062 C 214.835938 162.144531 203.394531 162.816406 198.621094 162.507812 C 193.683594 162.191406 148.921875 170.554688 148.921875 170.554688 L 151.472656 196.867188 " fill-opacity="1" fill-rule="nonzero"/><path fill="#ffffff" d="M 91.835938 182.230469 C 92.511719 181.421875 93.390625 180.476562 94.144531 179.730469 C 95.121094 178.769531 98.375 172.4375 98.375 172.4375 L 104.0625 174.046875 C 104.0625 174.046875 101.402344 178.699219 102.042969 181.015625 C 102.636719 183.171875 103.105469 187.730469 99.945312 191.046875 C 99.585938 191.429688 98.789062 191.527344 98.515625 191.464844 C 97.691406 191.273438 97.671875 190.125 98.078125 189.382812 L 99.21875 187.28125 C 99.320312 187.097656 99.167969 186.878906 98.957031 186.90625 C 98.105469 187.027344 96.226562 187.574219 94.261719 189.996094 C 92.75 191.863281 89.753906 196.023438 88.746094 195.332031 C 86.949219 194.101562 88.125 186.652344 91.835938 182.230469 " fill-opacity="1" fill-rule="nonzero"/><path fill="#000000" d="M 91.835938 182.230469 L 91.839844 182.230469 Z M 92.296875 182.621094 C 89.613281 185.816406 88.207031 190.875 88.578125 193.589844 C 88.660156 194.179688 88.828125 194.617188 89.046875 194.800781 C 89.808594 194.683594 92.054688 191.820312 93.023438 190.589844 C 93.304688 190.226562 93.566406 189.894531 93.792969 189.617188 C 95.859375 187.070312 97.863281 186.449219 98.875 186.308594 C 99.195312 186.261719 99.515625 186.398438 99.699219 186.667969 C 99.886719 186.9375 99.90625 187.28125 99.75 187.570312 L 98.609375 189.671875 C 98.425781 190.007812 98.371094 190.476562 98.484375 190.726562 C 98.527344 190.828125 98.582031 190.859375 98.652344 190.875 C 98.820312 190.902344 99.339844 190.808594 99.507812 190.628906 C 102.875 187.101562 101.726562 182.136719 101.460938 181.175781 C 100.90625 179.164062 102.421875 175.871094 103.171875 174.421875 L 98.683594 173.152344 C 97.886719 174.6875 95.460938 179.277344 94.570312 180.160156 C 93.820312 180.902344 92.949219 181.84375 92.296875 182.621094 Z M 89.003906 196.019531 C 88.789062 196.019531 88.589844 195.957031 88.40625 195.832031 C 87.867188 195.460938 87.519531 194.761719 87.382812 193.753906 C 86.976562 190.796875 88.386719 185.398438 91.371094 181.84375 C 92.054688 181.027344 92.933594 180.078125 93.71875 179.300781 C 94.378906 178.648438 96.59375 174.574219 97.835938 172.160156 C 97.96875 171.90625 98.261719 171.777344 98.539062 171.855469 L 104.226562 173.464844 C 104.40625 173.515625 104.550781 173.648438 104.621094 173.820312 C 104.695312 173.988281 104.679688 174.183594 104.589844 174.347656 C 103.882812 175.582031 102.15625 179.15625 102.625 180.855469 C 103.480469 183.953125 103.339844 188.363281 100.382812 191.464844 C 99.835938 192.039062 98.800781 192.152344 98.378906 192.054688 C 97.925781 191.945312 97.574219 191.652344 97.382812 191.222656 C 97.109375 190.617188 97.171875 189.78125 97.546875 189.09375 L 98.316406 187.679688 C 97.445312 187.96875 96.117188 188.667969 94.730469 190.375 C 94.507812 190.65625 94.25 190.980469 93.972656 191.335938 C 91.796875 194.105469 90.191406 196.019531 89.003906 196.019531 " fill-opacity="1" fill-rule="nonzero"/><path fill="#5479f7" d="M 228.234375 110.722656 L 224.558594 104.527344 C 223.953125 103.507812 222.050781 103.199219 221.097656 103.90625 C 200.320312 119.390625 178.214844 113.074219 174.796875 112.261719 C 166.328125 110.246094 162.054688 109.9375 155.367188 109.53125 C 145.582031 108.933594 131.5 114.59375 122.023438 124.066406 C 114.488281 131.601562 101.632812 156.039062 95.800781 173.019531 C 95.558594 173.734375 95.871094 174.519531 96.542969 174.867188 L 102.390625 177.902344 C 103.132812 178.285156 104.042969 178.003906 104.4375 177.265625 C 107.414062 171.660156 120.308594 148.40625 133.808594 140.730469 C 134.796875 140.167969 136.292969 140.761719 136.234375 141.902344 C 136.054688 145.476562 133.835938 158.726562 133.160156 171 C 133.070312 172.617188 134.1875 174.054688 135.785156 174.351562 L 141.6875 175.445312 C 151.988281 177.84375 161.644531 175.171875 165.898438 173.652344 C 167.199219 173.1875 167.832031 171.933594 168.027344 170.566406 C 168.355469 168.296875 172.925781 150.097656 181.261719 138.058594 C 182.3125 136.542969 183.898438 135.492188 185.742188 135.386719 C 193.175781 134.953125 214.328125 131.980469 228.140625 112.628906 C 228.546875 112.066406 228.585938 111.320312 228.234375 110.722656 " fill-opacity="1" fill-rule="nonzero"/><path fill="#ffffff" d="M 223.171875 106.390625 C 223.09375 105.929688 223.257812 105.460938 223.613281 105.15625 C 224.085938 104.757812 224.878906 104.074219 226.03125 103.066406 C 228.0625 101.289062 230.605469 97.742188 232.824219 96.675781 C 235.039062 95.613281 243.078125 92.472656 244.367188 93.136719 C 245.648438 93.804688 245.011719 95.3125 243.1875 96.191406 C 241.363281 97.066406 238.988281 97.964844 238.988281 97.964844 C 238.988281 97.964844 240.316406 97.890625 241.296875 99.425781 C 242.277344 100.957031 240.917969 101.578125 241.492188 102.335938 C 242.226562 103.308594 242.011719 104.441406 241.425781 104.933594 C 240.097656 106.066406 238.492188 103.832031 237.292969 106.144531 C 236.457031 107.75 234.488281 108.796875 230.496094 109.558594 C 229.421875 109.761719 228.402344 110.175781 227.476562 110.75 C 227.09375 110.992188 226.605469 111.007812 226.214844 110.789062 C 225.261719 110.25 223.605469 108.96875 223.171875 106.390625 " fill-opacity="1" fill-rule="nonzero"/><path fill="#000000" d="M 243.777344 93.632812 C 242.070312 93.632812 235.707031 95.960938 233.085938 97.21875 C 231.777344 97.847656 230.292969 99.46875 228.851562 101.042969 C 228 101.972656 227.191406 102.855469 226.429688 103.519531 C 225.273438 104.53125 224.476562 105.214844 224.003906 105.617188 C 223.8125 105.78125 223.722656 106.03125 223.765625 106.289062 C 224.160156 108.621094 225.65625 109.777344 226.511719 110.261719 C 226.707031 110.371094 226.957031 110.363281 227.15625 110.238281 C 228.164062 109.609375 229.25 109.179688 230.378906 108.964844 C 234.089844 108.253906 235.996094 107.328125 236.753906 105.867188 C 237.65625 104.128906 238.917969 104.394531 239.757812 104.570312 C 240.371094 104.695312 240.710938 104.753906 241.035156 104.476562 C 241.367188 104.191406 241.546875 103.414062 241.011719 102.699219 C 240.566406 102.117188 240.773438 101.539062 240.910156 101.15625 C 241.066406 100.722656 241.191406 100.382812 240.785156 99.75 C 240.027344 98.558594 239.054688 98.570312 239.011719 98.570312 C 238.726562 98.582031 238.457031 98.371094 238.398438 98.082031 C 238.34375 97.792969 238.5 97.503906 238.773438 97.402344 C 238.792969 97.394531 241.144531 96.5 242.925781 95.644531 C 243.953125 95.148438 244.429688 94.507812 244.433594 94.121094 C 244.4375 94.046875 244.4375 93.855469 244.085938 93.671875 C 244.015625 93.644531 243.910156 93.632812 243.777344 93.632812 Z M 226.8125 111.546875 C 226.503906 111.546875 226.195312 111.46875 225.917969 111.3125 C 224.875 110.726562 223.050781 109.316406 222.574219 106.488281 C 222.464844 105.820312 222.710938 105.132812 223.21875 104.695312 C 223.691406 104.296875 224.484375 103.617188 225.632812 102.613281 C 226.347656 101.988281 227.132812 101.132812 227.960938 100.226562 C 229.480469 98.570312 231.046875 96.859375 232.5625 96.132812 C 232.660156 96.085938 242.753906 91.621094 244.644531 92.601562 C 245.289062 92.9375 245.65625 93.496094 245.644531 94.136719 C 245.628906 95.097656 244.789062 96.089844 243.449219 96.734375 C 242.546875 97.167969 241.523438 97.601562 240.707031 97.9375 C 241.078125 98.191406 241.460938 98.5625 241.804688 99.097656 C 242.527344 100.230469 242.238281 101.03125 242.050781 101.5625 C 241.925781 101.910156 241.9375 101.925781 241.976562 101.972656 C 242.910156 103.210938 242.621094 104.714844 241.816406 105.394531 C 241.027344 106.066406 240.148438 105.886719 239.507812 105.75 C 238.707031 105.582031 238.304688 105.5 237.828125 106.421875 C 236.878906 108.25 234.71875 109.367188 230.609375 110.148438 C 229.625 110.339844 228.679688 110.710938 227.796875 111.265625 C 227.492188 111.453125 227.152344 111.546875 226.8125 111.546875 " fill-opacity="1" fill-rule="nonzero"/><path fill="#ffffff" d="M 169.453125 92.734375 L 158.460938 110.949219 C 158.308594 111.15625 156.695312 111.101562 154.875 111.285156 C 154.027344 111.371094 153.136719 111.5 152.398438 111.621094 C 151.796875 111.71875 151.625 112.507812 152.136719 112.84375 L 154.105469 114.148438 C 158.230469 116.878906 163.128906 118.292969 168.0625 117.957031 C 169.4375 117.867188 170.75 117.644531 171.921875 117.28125 L 176.132812 115.957031 C 176.761719 115.757812 176.757812 114.863281 176.125 114.671875 L 170.761719 113.046875 L 175.289062 103.441406 L 169.453125 92.734375 " fill-opacity="1" fill-rule="nonzero"/><path fill="#000000" d="M 169.425781 93.945312 L 158.976562 111.261719 C 158.96875 111.273438 158.960938 111.289062 158.953125 111.300781 C 158.691406 111.660156 158.25 111.683594 156.9375 111.746094 C 156.371094 111.773438 155.660156 111.8125 154.9375 111.882812 C 154.226562 111.957031 153.410156 112.066406 152.5 112.214844 C 152.480469 112.21875 152.453125 112.222656 152.441406 112.269531 C 152.433594 112.3125 152.457031 112.332031 152.472656 112.339844 L 154.4375 113.644531 C 158.53125 116.351562 163.355469 117.667969 168.027344 117.351562 C 169.402344 117.257812 170.652344 117.039062 171.742188 116.699219 L 175.953125 115.378906 C 175.972656 115.371094 176 115.363281 176 115.308594 C 176 115.261719 175.96875 115.25 175.949219 115.246094 L 170.585938 113.621094 C 170.421875 113.570312 170.285156 113.449219 170.210938 113.289062 C 170.140625 113.128906 170.140625 112.945312 170.21875 112.785156 L 174.613281 103.457031 Z M 166.65625 118.605469 C 162.183594 118.605469 157.660156 117.226562 153.773438 114.652344 L 151.804688 113.347656 C 151.363281 113.054688 151.148438 112.53125 151.257812 112.011719 C 151.371094 111.496094 151.78125 111.105469 152.304688 111.023438 C 153.238281 110.871094 154.082031 110.757812 154.816406 110.683594 C 155.570312 110.605469 156.296875 110.570312 156.878906 110.542969 C 157.320312 110.519531 157.808594 110.492188 158.050781 110.460938 L 168.9375 92.417969 C 169.050781 92.234375 169.257812 92.125 169.464844 92.128906 C 169.683594 92.132812 169.882812 92.25 169.984375 92.441406 L 175.824219 103.148438 C 175.914062 103.316406 175.921875 103.519531 175.839844 103.695312 L 171.609375 112.667969 L 176.300781 114.089844 C 176.839844 114.253906 177.207031 114.742188 177.207031 115.304688 C 177.210938 115.867188 176.851562 116.359375 176.3125 116.527344 L 172.101562 117.851562 C 170.925781 118.222656 169.582031 118.457031 168.109375 118.558594 C 167.625 118.589844 167.140625 118.605469 166.65625 118.605469 " fill-opacity="1" fill-rule="nonzero"/><path fill="#ffffff" d="M 174.359375 103.816406 C 174.9375 103.890625 175.53125 103.914062 176.140625 103.882812 L 177.226562 103.824219 C 177.226562 103.824219 183.453125 103 184.449219 101.457031 C 185.449219 99.914062 183.335938 94.308594 183.335938 94.308594 C 184.300781 93.5625 184.515625 92.617188 184.308594 92.300781 C 184.105469 91.984375 182.714844 91.496094 182.152344 91.082031 C 181.695312 90.746094 180.667969 88.0625 180.226562 86.914062 C 180.226562 86.914062 179.410156 82.363281 172.113281 82.953125 C 155.398438 84.308594 167.417969 99.773438 167.417969 99.773438 C 167.675781 100.078125 167.945312 100.363281 168.21875 100.636719 L 174.359375 103.816406 " fill-opacity="1" fill-rule="nonzero"/><path fill="#000000" d="M 183.835938 92.667969 Z M 175.617188 104.5 C 174.671875 104.5 173.746094 104.371094 172.855469 104.125 C 172.53125 104.03125 172.347656 103.699219 172.4375 103.378906 C 172.527344 103.058594 172.859375 102.871094 173.179688 102.960938 C 174.121094 103.222656 175.105469 103.328125 176.109375 103.277344 L 177.171875 103.222656 C 179.640625 102.890625 183.359375 102.027344 183.941406 101.128906 C 184.515625 100.238281 183.605469 96.730469 182.773438 94.523438 C 182.679688 94.273438 182.757812 93.996094 182.96875 93.832031 C 183.585938 93.351562 183.765625 92.832031 183.777344 92.625 C 183.613281 92.515625 183.230469 92.332031 182.96875 92.207031 C 182.539062 92 182.09375 91.789062 181.796875 91.570312 C 181.351562 91.242188 180.792969 90.078125 179.660156 87.128906 C 179.648438 87.09375 179.640625 87.054688 179.628906 87.019531 C 179.597656 86.859375 178.78125 83.019531 172.164062 83.558594 C 168.101562 83.886719 165.515625 85.042969 164.480469 86.992188 C 162.722656 90.300781 165.558594 95.316406 167.253906 98.3125 L 167.402344 98.582031 C 167.566406 98.871094 167.464844 99.242188 167.171875 99.402344 C 166.882812 99.570312 166.515625 99.464844 166.351562 99.175781 L 166.199219 98.90625 C 164.382812 95.695312 161.34375 90.320312 163.414062 86.425781 C 164.652344 84.085938 167.566406 82.714844 172.066406 82.355469 C 179.300781 81.765625 180.648438 86.109375 180.804688 86.734375 C 181.914062 89.621094 182.355469 90.4375 182.53125 90.609375 C 182.71875 90.746094 183.128906 90.945312 183.488281 91.117188 C 184.207031 91.460938 184.621094 91.667969 184.816406 91.972656 C 185.179688 92.53125 184.96875 93.601562 184.046875 94.492188 C 184.59375 96.023438 185.957031 100.238281 184.957031 101.785156 C 183.863281 103.472656 178.390625 104.277344 177.304688 104.421875 C 177.289062 104.425781 177.273438 104.425781 177.257812 104.425781 L 176.171875 104.484375 C 175.988281 104.496094 175.800781 104.5 175.617188 104.5 " fill-opacity="1" fill-rule="nonzero"/><path fill="#000000" d="M 168.703125 80.976562 C 170.527344 80.617188 172.601562 80.898438 173.488281 80.597656 C 174.921875 80.109375 174.886719 78.460938 176.90625 78.300781 C 178.679688 78.15625 180.332031 78.488281 181.230469 79.847656 C 181.378906 80.074219 181.511719 80.328125 181.613281 80.613281 C 183.015625 84.457031 181.082031 86.308594 180.226562 86.910156 C 180.226562 86.910156 174.8125 89.511719 173.878906 90.257812 C 173.003906 90.957031 171.972656 92.621094 172.539062 95.027344 C 172.609375 95.335938 172.460938 95.660156 172.179688 95.816406 C 171.855469 96 171.441406 95.90625 171.230469 95.597656 C 170.558594 94.628906 169.082031 92.753906 167.992188 93.1875 C 166.71875 93.691406 166.285156 96.890625 168.628906 97.683594 C 169.347656 97.925781 169.582031 98.867188 169.066406 99.421875 C 168.632812 99.886719 167.976562 100.207031 166.984375 99.957031 C 166.984375 99.957031 161.160156 95.804688 160.46875 90.335938 C 159.78125 84.867188 166.277344 81.453125 168.703125 80.976562 " fill-opacity="1" fill-rule="nonzero"/><path fill="#000000" d="M 157.769531 31.941406 L 157.773438 31.941406 Z M 159.933594 31.417969 C 159.816406 31.417969 159.695312 31.429688 159.574219 31.449219 C 159.039062 31.546875 158.574219 31.84375 158.265625 32.285156 C 157.957031 32.730469 157.839844 33.269531 157.933594 33.804688 C 158.03125 34.335938 158.328125 34.800781 158.769531 35.113281 C 159.691406 35.75 160.957031 35.523438 161.597656 34.605469 C 161.90625 34.160156 162.023438 33.621094 161.929688 33.089844 C 161.832031 32.554688 161.535156 32.09375 161.089844 31.78125 C 160.746094 31.542969 160.347656 31.417969 159.933594 31.417969 Z M 159.925781 36.683594 C 159.289062 36.683594 158.644531 36.492188 158.082031 36.101562 C 157.371094 35.609375 156.898438 34.867188 156.742188 34.019531 C 156.59375 33.167969 156.78125 32.304688 157.273438 31.597656 C 157.769531 30.886719 158.507812 30.414062 159.359375 30.261719 C 160.210938 30.109375 161.070312 30.296875 161.78125 30.789062 C 162.492188 31.28125 162.964844 32.023438 163.117188 32.875 C 163.273438 33.726562 163.082031 34.585938 162.589844 35.296875 C 161.960938 36.199219 160.949219 36.683594 159.925781 36.683594 " fill-opacity="1" fill-rule="nonzero"/><path fill="#000000" d="M 344.601562 99.597656 C 344.429688 99.597656 344.261719 99.527344 344.140625 99.386719 C 343.925781 99.132812 343.957031 98.75 344.207031 98.535156 L 346.160156 96.871094 C 346.414062 96.65625 346.796875 96.6875 347.011719 96.941406 C 347.230469 97.191406 347.199219 97.574219 346.945312 97.792969 L 344.992188 99.453125 C 344.878906 99.550781 344.742188 99.597656 344.601562 99.597656 " fill-opacity="1" fill-rule="nonzero"/><path fill="#000000" d="M 338.433594 104.855469 C 338.261719 104.855469 338.09375 104.785156 337.972656 104.644531 C 337.757812 104.390625 337.789062 104.007812 338.042969 103.792969 L 339.992188 102.128906 C 340.25 101.914062 340.628906 101.945312 340.84375 102.195312 C 341.0625 102.453125 341.03125 102.832031 340.777344 103.050781 L 338.824219 104.710938 C 338.710938 104.808594 338.570312 104.855469 338.433594 104.855469 " fill-opacity="1" fill-rule="nonzero"/><path fill="#000000" d="M 340.695312 99.289062 C 340.523438 99.289062 340.355469 99.21875 340.234375 99.078125 L 338.570312 97.125 C 338.355469 96.871094 338.382812 96.492188 338.636719 96.277344 C 338.894531 96.058594 339.273438 96.089844 339.492188 96.34375 L 341.152344 98.292969 C 341.371094 98.546875 341.339844 98.929688 341.085938 99.148438 C 340.972656 99.242188 340.835938 99.289062 340.695312 99.289062 " fill-opacity="1" fill-rule="nonzero"/><path fill="#000000" d="M 345.953125 105.453125 C 345.78125 105.453125 345.617188 105.382812 345.492188 105.242188 L 343.828125 103.289062 C 343.613281 103.039062 343.640625 102.65625 343.898438 102.441406 C 344.152344 102.222656 344.535156 102.253906 344.75 102.507812 L 346.414062 104.460938 C 346.628906 104.714844 346.597656 105.09375 346.34375 105.308594 C 346.230469 105.40625 346.09375 105.453125 345.953125 105.453125 " fill-opacity="1" fill-rule="nonzero"/><path fill="#000000" d="M 74.75 294.140625 C 74.425781 294.140625 74.160156 293.886719 74.148438 293.5625 L 74.050781 291 C 74.039062 290.664062 74.296875 290.386719 74.632812 290.375 C 74.96875 290.363281 75.246094 290.621094 75.257812 290.953125 L 75.355469 293.515625 C 75.367188 293.847656 75.105469 294.128906 74.773438 294.140625 C 74.765625 294.140625 74.757812 294.140625 74.75 294.140625 " fill-opacity="1" fill-rule="nonzero"/><path fill="#000000" d="M 75.054688 302.238281 C 74.734375 302.238281 74.464844 301.984375 74.453125 301.65625 L 74.355469 299.097656 C 74.34375 298.761719 74.605469 298.480469 74.9375 298.46875 C 75.277344 298.457031 75.550781 298.714844 75.5625 299.050781 L 75.660156 301.609375 C 75.671875 301.945312 75.414062 302.226562 75.078125 302.238281 C 75.070312 302.238281 75.0625 302.238281 75.054688 302.238281 " fill-opacity="1" fill-rule="nonzero"/><path fill="#000000" d="M 69.523438 297.109375 C 69.203125 297.109375 68.933594 296.855469 68.921875 296.53125 C 68.910156 296.195312 69.167969 295.914062 69.503906 295.902344 L 72.066406 295.808594 C 72.410156 295.792969 72.679688 296.054688 72.691406 296.386719 C 72.703125 296.71875 72.445312 297 72.109375 297.015625 L 69.546875 297.109375 C 69.539062 297.109375 69.53125 297.109375 69.523438 297.109375 " fill-opacity="1" fill-rule="nonzero"/><path fill="#000000" d="M 77.621094 296.804688 C 77.300781 296.804688 77.03125 296.550781 77.019531 296.222656 C 77.007812 295.890625 77.265625 295.609375 77.601562 295.597656 L 80.164062 295.5 C 80.5 295.488281 80.777344 295.75 80.789062 296.082031 C 80.800781 296.414062 80.542969 296.695312 80.207031 296.707031 L 77.644531 296.804688 C 77.636719 296.804688 77.628906 296.804688 77.621094 296.804688 " fill-opacity="1" fill-rule="nonzero"/><path fill="#000000" d="M 50.25 247.832031 C 50.03125 247.832031 49.820312 247.714844 49.710938 247.503906 C 37.953125 224.761719 33.1875 199.226562 35.929688 173.660156 C 36.621094 167.222656 37.789062 160.808594 39.402344 154.585938 C 39.488281 154.265625 39.816406 154.074219 40.140625 154.15625 C 40.460938 154.238281 40.65625 154.570312 40.574219 154.894531 C 38.972656 161.054688 37.8125 167.410156 37.128906 173.789062 C 34.414062 199.121094 39.132812 224.417969 50.785156 246.953125 C 50.9375 247.246094 50.824219 247.609375 50.527344 247.765625 C 50.4375 247.808594 50.34375 247.832031 50.25 247.832031 " fill-opacity="1" fill-rule="nonzero"/><path fill="#000000" d="M 51.917969 250.957031 C 51.707031 250.957031 51.5 250.84375 51.390625 250.644531 C 50.820312 249.613281 50.257812 248.558594 49.710938 247.503906 C 49.558594 247.210938 49.675781 246.84375 49.972656 246.691406 C 50.269531 246.535156 50.632812 246.652344 50.785156 246.953125 C 51.324219 247.992188 51.882812 249.039062 52.449219 250.058594 C 52.609375 250.351562 52.503906 250.71875 52.210938 250.878906 C 52.117188 250.929688 52.019531 250.957031 51.917969 250.957031 " fill-opacity="1" fill-rule="nonzero"/><path fill="#000000" d="M 44.761719 263.742188 C 44.554688 263.742188 44.351562 263.632812 44.238281 263.4375 C 36.09375 249.210938 30.421875 233.792969 27.371094 217.609375 C 24.214844 200.863281 23.960938 183.726562 26.617188 166.671875 C 26.667969 166.339844 26.976562 166.117188 27.304688 166.167969 C 27.636719 166.21875 27.863281 166.527344 27.808594 166.855469 C 22.644531 200.03125 28.851562 234.121094 45.285156 262.835938 C 45.453125 263.125 45.351562 263.496094 45.0625 263.660156 C 44.96875 263.714844 44.863281 263.742188 44.761719 263.742188 " fill-opacity="1" fill-rule="nonzero"/><path fill="#000000" d="M 27.371094 158.375 L 30.8125 159.585938 L 30.71875 155.496094 Z M 31.433594 161.046875 C 31.367188 161.046875 31.300781 161.039062 31.234375 161.011719 L 25.984375 159.171875 C 25.78125 159.097656 25.628906 158.925781 25.589844 158.710938 C 25.550781 158.5 25.625 158.28125 25.789062 158.140625 L 30.902344 153.746094 C 31.078125 153.59375 31.328125 153.558594 31.542969 153.652344 C 31.753906 153.746094 31.894531 153.957031 31.898438 154.191406 L 32.039062 160.429688 C 32.042969 160.628906 31.949219 160.816406 31.789062 160.933594 C 31.6875 161.007812 31.5625 161.046875 31.433594 161.046875 " fill-opacity="1" fill-rule="nonzero"/><path fill="#000000" d="M 210.738281 157.316406 C 210.554688 157.316406 210.371094 157.230469 210.253906 157.070312 C 210.054688 156.800781 210.109375 156.421875 210.378906 156.222656 L 227.988281 143.183594 C 228.257812 142.984375 228.636719 143.042969 228.835938 143.308594 C 229.03125 143.578125 228.976562 143.957031 228.710938 144.15625 L 211.097656 157.195312 C 210.992188 157.277344 210.867188 157.316406 210.738281 157.316406 " fill-opacity="1" fill-rule="nonzero"/><path fill="#000000" d="M 209.933594 101.335938 C 209.75 101.335938 209.566406 101.253906 209.449219 101.09375 C 209.25 100.824219 209.308594 100.445312 209.574219 100.25 L 254.503906 66.972656 C 254.773438 66.777344 255.152344 66.832031 255.347656 67.101562 C 255.546875 67.367188 255.492188 67.746094 255.222656 67.945312 L 210.292969 101.21875 C 210.183594 101.300781 210.058594 101.335938 209.933594 101.335938 " fill-opacity="1" fill-rule="nonzero"/><path fill="#000000" d="M 241.703125 86.371094 C 241.523438 86.371094 241.339844 86.285156 241.21875 86.128906 C 241.023438 85.859375 241.078125 85.480469 241.347656 85.28125 L 264.976562 67.78125 C 265.246094 67.582031 265.625 67.640625 265.820312 67.90625 C 266.019531 68.175781 265.964844 68.554688 265.695312 68.753906 L 242.0625 86.25 C 241.957031 86.332031 241.828125 86.371094 241.703125 86.371094 " fill-opacity="1" fill-rule="nonzero"/><path fill="#000000" d="M 75.53125 160.992188 C 75.121094 160.992188 74.714844 160.917969 74.320312 160.765625 C 73.46875 160.433594 72.800781 159.785156 72.433594 158.933594 C 71.6875 157.207031 72.464844 155.175781 74.164062 154.414062 C 74.46875 154.277344 74.824219 154.414062 74.960938 154.71875 C 75.097656 155.023438 74.960938 155.378906 74.65625 155.515625 C 73.558594 156.011719 73.058594 157.328125 73.542969 158.457031 C 73.78125 159.007812 74.210938 159.425781 74.757812 159.636719 C 75.292969 159.847656 75.875 159.828125 76.398438 159.597656 C 77.5 159.101562 78 157.78125 77.511719 156.65625 C 77.378906 156.347656 77.523438 155.992188 77.828125 155.859375 C 78.132812 155.726562 78.492188 155.871094 78.621094 156.175781 C 79.371094 157.90625 78.59375 159.933594 76.894531 160.699219 C 76.457031 160.894531 75.992188 160.992188 75.53125 160.992188 " fill-opacity="1" fill-rule="nonzero"/><path fill="#ffffff" d="M 111.140625 37.847656 C 117.140625 36.28125 123.273438 39.875 124.839844 45.871094 C 126.402344 51.871094 122.808594 57.996094 116.8125 59.5625 C 110.8125 61.128906 104.679688 57.539062 103.113281 51.539062 C 101.550781 45.542969 105.144531 39.410156 111.140625 37.847656 Z M 91.597656 52.292969 L 92.699219 56.507812 L 97.460938 56.351562 C 97.890625 57.28125 98.390625 58.164062 98.957031 58.992188 L 96.390625 62.996094 L 99.453125 66.097656 L 103.496094 63.582031 C 104.324219 64.164062 105.203125 64.675781 106.113281 65.113281 L 105.894531 69.871094 L 110.097656 71.027344 L 112.339844 66.835938 C 113.335938 66.921875 114.351562 66.925781 115.375 66.847656 L 117.5625 71.078125 L 121.78125 69.976562 L 121.625 65.21875 C 122.554688 64.789062 123.4375 64.289062 124.265625 63.722656 L 128.273438 66.285156 L 131.375 63.222656 L 128.855469 59.183594 C 129.441406 58.355469 129.953125 57.476562 130.390625 56.566406 L 135.148438 56.785156 L 136.304688 52.582031 L 132.109375 50.34375 C 132.199219 49.34375 132.203125 48.328125 132.125 47.304688 L 136.355469 45.117188 L 135.253906 40.902344 L 130.492188 41.058594 C 130.0625 40.128906 129.5625 39.246094 128.996094 38.417969 L 131.5625 34.414062 L 128.5 31.3125 L 124.457031 33.828125 C 123.628906 33.246094 122.753906 32.734375 121.839844 32.292969 L 122.058594 27.535156 L 117.855469 26.382812 L 115.613281 30.578125 C 114.613281 30.488281 113.601562 30.484375 112.578125 30.5625 L 110.390625 26.332031 L 106.171875 27.433594 L 106.328125 32.195312 C 105.398438 32.621094 104.515625 33.121094 103.6875 33.691406 L 99.679688 31.125 L 96.578125 34.1875 L 99.097656 38.226562 C 98.511719 39.058594 98 39.933594 97.5625 40.847656 L 92.804688 40.625 L 91.648438 44.828125 L 95.84375 47.066406 C 95.753906 48.066406 95.75 49.082031 95.828125 50.105469 L 91.597656 52.292969 " fill-opacity="1" fill-rule="nonzero"/><path fill="#000000" d="M 112.992188 38.933594 L 113.144531 39.515625 C 110.402344 40.234375 108.097656 41.972656 106.664062 44.421875 C 105.230469 46.867188 104.835938 49.726562 105.550781 52.472656 C 107.027344 58.136719 112.84375 61.542969 118.507812 60.0625 C 121.253906 59.347656 123.554688 57.605469 124.992188 55.160156 C 126.425781 52.710938 126.820312 49.851562 126.105469 47.109375 C 124.625 41.445312 118.8125 38.039062 113.144531 39.515625 Z M 115.828125 61.617188 C 110.578125 61.617188 105.769531 58.089844 104.382812 52.777344 C 103.582031 49.71875 104.023438 46.535156 105.621094 43.808594 C 107.21875 41.082031 109.78125 39.144531 112.839844 38.347656 C 119.152344 36.699219 125.625 40.492188 127.273438 46.800781 C 128.070312 49.859375 127.632812 53.046875 126.035156 55.769531 C 124.4375 58.496094 121.871094 60.4375 118.816406 61.234375 C 117.816406 61.492188 116.816406 61.617188 115.828125 61.617188 Z M 117.226562 67.328125 C 117.453125 67.328125 117.660156 67.453125 117.765625 67.65625 L 119.730469 71.453125 L 123.011719 70.597656 L 122.871094 66.324219 C 122.863281 66.078125 123 65.855469 123.222656 65.753906 C 124.121094 65.335938 124.980469 64.851562 125.777344 64.304688 C 125.976562 64.167969 126.238281 64.167969 126.445312 64.296875 L 130.042969 66.601562 L 132.457031 64.21875 L 130.195312 60.585938 C 130.066406 60.382812 130.074219 60.117188 130.214844 59.917969 C 130.777344 59.121094 131.273438 58.269531 131.699219 57.386719 C 131.800781 57.167969 132.03125 57.035156 132.269531 57.046875 L 136.546875 57.246094 L 137.445312 53.972656 L 133.675781 51.960938 C 133.460938 51.84375 133.335938 51.617188 133.359375 51.371094 C 133.445312 50.414062 133.449219 49.425781 133.371094 48.4375 C 133.351562 48.195312 133.480469 47.964844 133.695312 47.855469 L 137.5 45.890625 L 136.640625 42.605469 L 132.363281 42.75 C 132.121094 42.757812 131.898438 42.617188 131.796875 42.398438 C 131.378906 41.496094 130.890625 40.636719 130.347656 39.84375 C 130.210938 39.644531 130.207031 39.378906 130.339844 39.175781 L 132.644531 35.578125 L 130.257812 33.164062 L 126.625 35.425781 C 126.421875 35.554688 126.15625 35.546875 125.960938 35.410156 C 125.160156 34.847656 124.308594 34.347656 123.429688 33.925781 C 123.207031 33.820312 123.074219 33.59375 123.085938 33.351562 L 123.285156 29.078125 L 120.011719 28.175781 L 118 31.945312 C 117.886719 32.160156 117.652344 32.285156 117.410156 32.261719 C 116.453125 32.175781 115.464844 32.171875 114.476562 32.25 C 114.230469 32.269531 114.003906 32.140625 113.890625 31.925781 L 111.925781 28.125 L 108.640625 28.980469 L 108.785156 33.257812 C 108.792969 33.5 108.652344 33.722656 108.433594 33.828125 C 107.53125 34.242188 106.671875 34.730469 105.878906 35.273438 C 105.679688 35.410156 105.414062 35.414062 105.210938 35.285156 L 101.613281 32.976562 L 99.195312 35.363281 L 101.460938 38.992188 C 101.589844 39.199219 101.582031 39.460938 101.441406 39.660156 C 100.878906 40.460938 100.378906 41.3125 99.957031 42.191406 C 99.851562 42.410156 99.625 42.542969 99.386719 42.53125 L 95.109375 42.335938 L 94.207031 45.609375 L 97.980469 47.617188 C 98.195312 47.734375 98.320312 47.964844 98.296875 48.207031 C 98.210938 49.164062 98.207031 50.152344 98.28125 51.140625 C 98.300781 51.386719 98.171875 51.617188 97.957031 51.726562 L 94.15625 53.691406 L 95.011719 56.976562 L 99.289062 56.832031 C 99.53125 56.824219 99.757812 56.960938 99.859375 57.179688 C 100.277344 58.082031 100.761719 58.941406 101.304688 59.734375 C 101.445312 59.9375 101.449219 60.199219 101.316406 60.402344 L 99.011719 64 L 101.394531 66.417969 L 105.027344 64.15625 C 105.234375 64.023438 105.496094 64.03125 105.695312 64.171875 C 106.496094 64.734375 107.347656 65.230469 108.226562 65.65625 C 108.445312 65.757812 108.582031 65.984375 108.570312 66.226562 L 108.371094 70.503906 L 111.644531 71.402344 L 113.65625 67.632812 C 113.769531 67.417969 114.003906 67.292969 114.242188 67.316406 C 115.203125 67.402344 116.191406 67.40625 117.179688 67.332031 C 117.195312 67.328125 117.210938 67.328125 117.226562 67.328125 Z M 119.414062 72.765625 C 119.191406 72.765625 118.984375 72.644531 118.878906 72.4375 L 116.871094 68.5625 C 116.089844 68.605469 115.304688 68.601562 114.535156 68.550781 L 112.480469 72.398438 C 112.347656 72.648438 112.0625 72.773438 111.789062 72.695312 L 107.585938 71.542969 C 107.3125 71.464844 107.128906 71.210938 107.140625 70.929688 L 107.34375 66.566406 C 106.648438 66.214844 105.976562 65.820312 105.332031 65.386719 L 101.625 67.699219 C 101.382812 67.847656 101.074219 67.808594 100.875 67.609375 L 97.8125 64.503906 C 97.613281 64.304688 97.578125 63.992188 97.734375 63.757812 L 100.085938 60.085938 C 99.664062 59.441406 99.277344 58.757812 98.933594 58.050781 L 94.570312 58.199219 C 94.28125 58.207031 94.039062 58.019531 93.964844 57.746094 L 92.863281 53.527344 C 92.792969 53.257812 92.921875 52.96875 93.171875 52.839844 L 97.050781 50.835938 C 97.003906 50.050781 97.007812 49.265625 97.0625 48.5 L 93.214844 46.445312 C 92.964844 46.3125 92.839844 46.027344 92.914062 45.753906 L 94.070312 41.550781 C 94.144531 41.277344 94.390625 41.09375 94.683594 41.105469 L 99.046875 41.308594 C 99.398438 40.617188 99.792969 39.941406 100.226562 39.296875 L 97.914062 35.589844 C 97.765625 35.351562 97.804688 35.039062 98.003906 34.839844 L 101.109375 31.777344 C 101.308594 31.578125 101.621094 31.546875 101.859375 31.699219 L 105.53125 34.050781 C 106.175781 33.632812 106.855469 33.246094 107.5625 32.902344 L 107.417969 28.539062 C 107.40625 28.257812 107.59375 28.003906 107.867188 27.933594 L 112.089844 26.835938 C 112.363281 26.761719 112.648438 26.890625 112.777344 27.140625 L 114.78125 31.019531 C 115.566406 30.972656 116.351562 30.976562 117.121094 31.03125 L 119.171875 27.183594 C 119.304688 26.933594 119.59375 26.808594 119.867188 26.882812 L 124.070312 28.039062 C 124.34375 28.117188 124.527344 28.371094 124.515625 28.648438 L 124.3125 33.015625 C 125.003906 33.363281 125.679688 33.757812 126.324219 34.191406 L 130.03125 31.882812 C 130.269531 31.734375 130.582031 31.769531 130.78125 31.972656 L 133.84375 35.074219 C 134.042969 35.277344 134.074219 35.589844 133.921875 35.824219 L 131.570312 39.496094 C 131.988281 40.136719 132.375 40.820312 132.71875 41.527344 L 137.085938 41.382812 C 137.371094 41.371094 137.617188 41.5625 137.6875 41.832031 L 138.789062 46.050781 C 138.859375 46.324219 138.734375 46.609375 138.484375 46.742188 L 134.605469 48.746094 C 134.648438 49.53125 134.644531 50.3125 134.59375 51.082031 L 138.441406 53.132812 C 138.691406 53.265625 138.8125 53.554688 138.738281 53.828125 L 137.582031 58.03125 C 137.507812 58.304688 137.25 58.484375 136.972656 58.472656 L 132.609375 58.269531 C 132.257812 58.964844 131.863281 59.636719 131.429688 60.28125 L 133.738281 63.988281 C 133.886719 64.230469 133.851562 64.542969 133.652344 64.738281 L 130.546875 67.800781 C 130.347656 68 130.035156 68.035156 129.796875 67.878906 L 126.125 65.527344 C 125.480469 65.949219 124.796875 66.332031 124.089844 66.679688 L 124.238281 71.039062 C 124.246094 71.324219 124.058594 71.574219 123.785156 71.648438 L 119.566406 72.746094 C 119.515625 72.761719 119.464844 72.765625 119.414062 72.765625 " fill-opacity="1" fill-rule="nonzero"/><path fill="#99b9ff" d="M 53.476562 69.519531 C 63.742188 66.839844 74.234375 72.988281 76.914062 83.25 C 79.59375 93.511719 73.445312 104 63.179688 106.679688 C 52.914062 109.359375 42.417969 103.210938 39.742188 92.949219 C 37.0625 82.6875 43.210938 72.195312 53.476562 69.519531 Z M 20.035156 94.234375 L 21.917969 101.453125 L 30.0625 101.183594 C 30.800781 102.773438 31.65625 104.285156 32.625 105.703125 L 28.234375 112.554688 L 33.476562 117.863281 L 40.394531 113.554688 C 41.8125 114.554688 43.3125 115.433594 44.875 116.179688 L 44.496094 124.320312 L 51.691406 126.300781 L 55.523438 119.121094 C 57.234375 119.273438 58.972656 119.28125 60.722656 119.144531 L 64.464844 126.382812 L 71.683594 124.496094 L 71.414062 116.355469 C 73.007812 115.617188 74.519531 114.761719 75.9375 113.792969 L 82.789062 118.1875 L 88.101562 112.941406 L 83.789062 106.027344 C 84.789062 104.609375 85.667969 103.113281 86.417969 101.546875 L 94.558594 101.925781 L 96.539062 94.734375 L 89.355469 90.902344 C 89.511719 89.191406 89.519531 87.453125 89.382812 85.703125 L 96.621094 81.964844 L 94.734375 74.742188 L 86.589844 75.015625 C 85.855469 73.421875 85 71.910156 84.027344 70.496094 L 88.421875 63.644531 L 83.179688 58.335938 L 76.257812 62.644531 C 74.839844 61.644531 73.34375 60.769531 71.78125 60.019531 L 72.15625 51.878906 L 64.964844 49.898438 L 61.132812 57.078125 C 59.421875 56.925781 57.683594 56.917969 55.933594 57.054688 L 52.191406 49.816406 L 44.96875 51.699219 L 45.242188 59.84375 C 43.648438 60.578125 42.136719 61.433594 40.71875 62.402344 L 33.863281 58.015625 L 28.554688 63.253906 L 32.863281 70.171875 C 31.867188 71.589844 30.988281 73.085938 30.238281 74.648438 L 22.097656 74.273438 L 20.117188 81.464844 L 27.300781 85.296875 C 27.144531 87.007812 27.136719 88.746094 27.273438 90.492188 L 20.035156 94.234375 " fill-opacity="1" fill-rule="nonzero"/><path fill="#000000" d="M 56.796875 71.957031 C 51.988281 73.210938 47.957031 76.261719 45.441406 80.550781 C 42.929688 84.835938 42.238281 89.84375 43.492188 94.652344 C 44.746094 99.460938 47.800781 103.488281 52.085938 106 C 56.375 108.515625 61.382812 109.207031 66.191406 107.953125 C 71 106.695312 75.035156 103.644531 77.546875 99.359375 C 80.058594 95.070312 80.75 90.066406 79.496094 85.257812 C 78.242188 80.449219 75.191406 76.421875 70.902344 73.90625 C 66.613281 71.394531 61.605469 70.703125 56.796875 71.957031 Z M 61.460938 109.769531 C 57.984375 109.769531 54.554688 108.847656 51.476562 107.046875 C 46.910156 104.371094 43.660156 100.078125 42.324219 94.957031 C 40.988281 89.839844 41.722656 84.503906 44.402344 79.941406 C 47.078125 75.375 51.371094 72.125 56.492188 70.789062 C 61.613281 69.453125 66.945312 70.191406 71.511719 72.867188 C 76.078125 75.539062 79.328125 79.832031 80.667969 84.953125 C 82.003906 90.074219 81.265625 95.40625 78.589844 99.96875 C 75.914062 104.535156 71.621094 107.785156 66.5 109.121094 C 64.832031 109.554688 63.140625 109.769531 61.460938 109.769531 Z M 63.890625 120.394531 C 64.113281 120.394531 64.324219 120.519531 64.425781 120.722656 L 67.945312 127.53125 L 74.234375 125.890625 L 73.976562 118.230469 C 73.96875 117.988281 74.105469 117.761719 74.328125 117.660156 C 75.890625 116.941406 77.382812 116.09375 78.761719 115.152344 C 78.960938 115.011719 79.226562 115.007812 79.429688 115.140625 L 85.875 119.269531 L 90.5 114.710938 L 86.445312 108.203125 C 86.316406 107.996094 86.324219 107.734375 86.464844 107.535156 C 87.441406 106.148438 88.304688 104.667969 89.039062 103.144531 C 89.144531 102.921875 89.371094 102.789062 89.613281 102.800781 L 97.273438 103.15625 L 98.992188 96.894531 L 92.238281 93.289062 C 92.023438 93.175781 91.898438 92.945312 91.921875 92.703125 C 92.070312 91.039062 92.078125 89.324219 91.945312 87.609375 C 91.925781 87.367188 92.054688 87.136719 92.269531 87.023438 L 99.082031 83.503906 L 97.441406 77.21875 L 89.777344 77.476562 C 89.535156 77.484375 89.3125 77.347656 89.210938 77.125 C 88.488281 75.5625 87.640625 74.070312 86.695312 72.691406 C 86.558594 72.492188 86.554688 72.226562 86.6875 72.023438 L 90.820312 65.578125 L 86.257812 60.957031 L 79.746094 65.011719 C 79.539062 65.140625 79.277344 65.132812 79.078125 64.992188 C 77.691406 64.015625 76.214844 63.152344 74.6875 62.417969 C 74.46875 62.3125 74.332031 62.085938 74.34375 61.847656 L 74.699219 54.1875 L 68.4375 52.464844 L 64.832031 59.21875 C 64.71875 59.433594 64.484375 59.558594 64.242188 59.539062 C 62.578125 59.386719 60.863281 59.378906 59.148438 59.511719 C 58.90625 59.53125 58.675781 59.402344 58.5625 59.1875 L 55.042969 52.378906 L 48.757812 54.019531 L 49.011719 61.679688 C 49.019531 61.921875 48.882812 62.144531 48.664062 62.246094 C 47.097656 62.96875 45.605469 63.816406 44.226562 64.761719 C 44.027344 64.898438 43.765625 64.898438 43.558594 64.769531 L 37.113281 60.636719 L 32.492188 65.199219 L 36.546875 71.710938 C 36.671875 71.914062 36.664062 72.175781 36.527344 72.375 C 35.550781 73.761719 34.683594 75.238281 33.949219 76.765625 C 33.847656 76.984375 33.621094 77.121094 33.378906 77.109375 L 25.71875 76.753906 L 23.996094 83.015625 L 30.75 86.617188 C 30.964844 86.734375 31.089844 86.964844 31.070312 87.207031 C 30.917969 88.871094 30.910156 90.585938 31.042969 92.300781 C 31.0625 92.546875 30.933594 92.773438 30.71875 92.882812 L 23.910156 96.40625 L 25.546875 102.6875 L 33.210938 102.433594 C 33.453125 102.425781 33.679688 102.5625 33.78125 102.785156 C 34.5 104.347656 35.347656 105.839844 36.292969 107.21875 C 36.429688 107.417969 36.433594 107.679688 36.300781 107.886719 L 32.171875 114.328125 L 36.734375 118.949219 L 43.242188 114.898438 C 43.449219 114.769531 43.710938 114.777344 43.910156 114.917969 C 45.296875 115.894531 46.777344 116.757812 48.304688 117.492188 C 48.523438 117.597656 48.65625 117.820312 48.644531 118.0625 L 48.289062 125.722656 L 54.554688 127.441406 L 58.15625 120.691406 C 58.273438 120.476562 58.503906 120.351562 58.746094 120.371094 C 60.410156 120.523438 62.125 120.53125 63.84375 120.398438 C 63.859375 120.394531 63.875 120.394531 63.890625 120.394531 Z M 67.632812 128.84375 C 67.410156 128.84375 67.203125 128.71875 67.09375 128.515625 L 63.535156 121.628906 C 62.023438 121.730469 60.515625 121.722656 59.035156 121.609375 L 55.390625 128.441406 C 55.257812 128.6875 54.96875 128.8125 54.699219 128.738281 L 47.503906 126.757812 C 47.230469 126.683594 47.046875 126.429688 47.058594 126.148438 L 47.421875 118.402344 C 46.078125 117.742188 44.78125 116.980469 43.542969 116.132812 L 36.960938 120.230469 C 36.722656 120.382812 36.410156 120.347656 36.214844 120.144531 L 30.972656 114.835938 C 30.773438 114.632812 30.738281 114.324219 30.890625 114.085938 L 35.070312 107.566406 C 34.25 106.335938 33.507812 105.023438 32.855469 103.652344 L 25.105469 103.914062 C 24.8125 103.917969 24.574219 103.734375 24.5 103.460938 L 22.617188 96.246094 C 22.546875 95.96875 22.671875 95.683594 22.925781 95.554688 L 29.808594 91.996094 C 29.710938 90.484375 29.71875 88.972656 29.832031 87.5 L 23 83.851562 C 22.75 83.71875 22.628906 83.433594 22.703125 83.160156 L 24.679688 75.96875 C 24.753906 75.695312 25 75.511719 25.292969 75.523438 L 33.039062 75.886719 C 33.703125 74.542969 34.464844 73.242188 35.308594 72.011719 L 31.210938 65.429688 C 31.058594 65.191406 31.097656 64.878906 31.296875 64.679688 L 36.609375 59.4375 C 36.808594 59.242188 37.121094 59.207031 37.359375 59.359375 L 43.875 63.539062 C 45.109375 62.714844 46.421875 61.976562 47.792969 61.320312 L 47.53125 53.578125 C 47.523438 53.292969 47.710938 53.042969 47.984375 52.972656 L 55.203125 51.089844 C 55.476562 51.015625 55.765625 51.144531 55.894531 51.394531 L 59.453125 58.28125 C 60.96875 58.179688 62.476562 58.183594 63.953125 58.300781 L 67.597656 51.472656 C 67.730469 51.222656 68.019531 51.097656 68.289062 51.175781 L 75.484375 53.152344 C 75.757812 53.226562 75.941406 53.476562 75.929688 53.761719 L 75.570312 61.503906 C 76.910156 62.167969 78.210938 62.929688 79.445312 63.773438 L 86.027344 59.675781 C 86.265625 59.527344 86.578125 59.566406 86.777344 59.765625 L 92.019531 65.074219 C 92.21875 65.273438 92.25 65.589844 92.097656 65.824219 L 87.917969 72.339844 C 88.738281 73.574219 89.484375 74.886719 90.136719 76.257812 L 97.882812 75.996094 C 98.167969 75.984375 98.417969 76.175781 98.488281 76.449219 L 100.371094 83.667969 C 100.445312 83.9375 100.316406 84.226562 100.066406 84.355469 L 93.179688 87.914062 C 93.277344 89.429688 93.273438 90.9375 93.160156 92.414062 L 99.988281 96.054688 C 100.238281 96.1875 100.363281 96.476562 100.285156 96.75 L 98.308594 103.941406 C 98.234375 104.214844 97.980469 104.398438 97.699219 104.386719 L 89.953125 104.027344 C 89.289062 105.363281 88.527344 106.664062 87.679688 107.902344 L 91.78125 114.480469 C 91.929688 114.71875 91.894531 115.03125 91.691406 115.230469 L 86.382812 120.46875 C 86.179688 120.667969 85.867188 120.703125 85.632812 120.546875 L 79.113281 116.371094 C 77.878906 117.191406 76.566406 117.9375 75.199219 118.589844 L 75.457031 126.332031 C 75.464844 126.613281 75.277344 126.867188 75.003906 126.9375 L 67.785156 128.824219 C 67.734375 128.835938 67.683594 128.84375 67.632812 128.84375 " fill-opacity="1" fill-rule="nonzero"/></svg>