<svg xmlns="http://www.w3.org/2000/svg" xmlns:xlink="http://www.w3.org/1999/xlink" width="500" zoomAndPan="magnify" viewBox="0 0 375 374.999991" height="500" preserveAspectRatio="xMidYMid meet" version="1.0"><path fill="#caddff" d="M 36.226562 84.867188 C 61.507812 42.699219 109.628906 32.394531 127.78125 28.503906 C 189.546875 15.273438 280.945312 31.171875 325.042969 103.039062 C 363.746094 166.117188 342.195312 233.484375 339.070312 242.71875 C 333.835938 258.210938 320.722656 295.363281 283.542969 320.527344 C 225.664062 359.707031 137.441406 350.917969 107.25 310.476562 C 93.070312 291.480469 104.542969 282.722656 88.03125 249.136719 C 65.914062 204.15625 38.464844 205.238281 25.671875 169.226562 C 11.234375 128.574219 33.886719 88.765625 36.226562 84.867188 " fill-opacity="1" fill-rule="nonzero"/><path fill="#19598f" d="M 235.328125 204.328125 L 172.027344 204.730469 C 171.617188 204.730469 171.484375 205.113281 171.484375 205.484375 L 171.484375 259.90625 C 171.484375 265.117188 135.519531 278.652344 135.167969 277.964844 L 135.125 283.722656 C 135.121094 284.796875 136.054688 285.746094 137.242188 285.746094 L 138.035156 285.746094 C 138.039062 285.746094 138.042969 285.746094 138.050781 285.746094 L 191.121094 285.746094 C 193.585938 285.746094 196.019531 285.191406 198.246094 284.246094 L 227.429688 271.832031 C 232.683594 269.597656 235.996094 264.796875 235.996094 259.558594 L 235.996094 205.082031 C 235.996094 204.714844 235.738281 204.328125 235.328125 204.328125 " fill-opacity="1" fill-rule="nonzero"/><path fill="#ffffff" d="M 165.074219 201.558594 L 165.074219 255.992188 C 165.074219 261.359375 161.65625 266.246094 156.285156 268.5625 L 136.601562 277.050781 C 135.316406 277.605469 135.753906 279.347656 137.179688 279.347656 L 191.265625 279.347656 C 193.695312 279.347656 196.097656 278.863281 198.296875 277.929688 L 220.105469 268.648438 C 225.519531 266.347656 228.96875 261.4375 228.96875 256.046875 L 228.96875 201.558594 C 228.96875 201.335938 228.769531 201.15625 228.519531 201.15625 L 165.519531 201.15625 C 165.273438 201.15625 165.074219 201.335938 165.074219 201.558594 " fill-opacity="1" fill-rule="nonzero"/><path fill="#000000" d="M 165.664062 201.746094 L 165.664062 255.992188 C 165.664062 261.5625 162.074219 266.710938 156.519531 269.105469 L 136.835938 277.597656 C 136.398438 277.785156 136.414062 278.109375 136.441406 278.238281 C 136.492188 278.480469 136.714844 278.757812 137.179688 278.757812 L 191.265625 278.757812 C 193.601562 278.757812 195.953125 278.28125 198.066406 277.382812 L 219.875 268.105469 C 225.039062 265.90625 228.375 261.175781 228.375 256.046875 L 228.375 201.746094 Z M 191.265625 279.941406 L 137.179688 279.941406 C 136.242188 279.941406 135.460938 279.339844 135.28125 278.480469 C 135.113281 277.65625 135.546875 276.863281 136.367188 276.507812 L 156.050781 268.019531 C 161.171875 265.8125 164.480469 261.089844 164.480469 255.992188 L 164.480469 201.558594 C 164.480469 201.011719 164.945312 200.5625 165.519531 200.5625 L 228.519531 200.5625 C 229.09375 200.5625 229.5625 201.011719 229.5625 201.558594 L 229.5625 256.046875 C 229.5625 261.648438 225.941406 266.808594 220.339844 269.191406 L 198.53125 278.472656 C 196.273438 279.433594 193.757812 279.941406 191.265625 279.941406 " fill-opacity="1" fill-rule="nonzero"/><path fill="#0c2840" d="M 47.121094 232 L 319.957031 232.617188 C 322.347656 232.617188 324.726562 230.804688 325.03125 228.40625 L 346.824219 56.644531 C 347.355469 52.464844 344.152344 48.304688 340.035156 48.410156 L 70.363281 49.851562 L 47.121094 232 " fill-opacity="1" fill-rule="nonzero"/><path fill="#19598f" d="M 329.324219 49.015625 C 334.015625 49.015625 338.253906 53.824219 337.652344 58.539062 L 316.128906 228.363281 C 315.824219 230.761719 313.285156 232.789062 310.898438 232.789062 L 42.886719 232.351562 C 40.027344 232.351562 38.113281 229.949219 38.480469 227.074219 L 60.769531 54.101562 C 61.074219 51.703125 62.644531 49.015625 65.03125 49.015625 L 329.324219 49.015625 " fill-opacity="1" fill-rule="nonzero"/><path fill="#ffffff" d="M 315.339844 24.882812 C 320.035156 24.882812 324.273438 29.691406 323.675781 34.40625 L 302.148438 204.230469 C 301.84375 206.628906 299.300781 208.65625 296.917969 208.65625 L 26.558594 208.21875 C 23.699219 208.21875 21.785156 205.816406 22.152344 202.941406 L 44.441406 29.96875 C 44.746094 27.570312 46.316406 24.882812 48.703125 24.882812 L 315.339844 24.882812 " fill-opacity="1" fill-rule="nonzero"/><path fill="#000000" d="M 126.523438 25.175781 L 101.605469 25.175781 C 101.277344 25.175781 101.011719 24.910156 101.011719 24.582031 C 101.011719 24.253906 101.277344 23.992188 101.605469 23.992188 L 126.523438 23.992188 C 126.851562 23.992188 127.117188 24.253906 127.117188 24.582031 C 127.117188 24.910156 126.851562 25.175781 126.523438 25.175781 " fill-opacity="1" fill-rule="nonzero"/><path fill="#000000" d="M 59.691406 208.566406 C 59.691406 208.566406 59.6875 208.566406 59.6875 208.566406 L 26.421875 208.511719 C 24.933594 208.511719 23.597656 207.921875 22.65625 206.855469 C 21.671875 205.738281 21.222656 204.175781 21.429688 202.566406 L 33.972656 105.230469 C 34.015625 104.90625 34.308594 104.675781 34.632812 104.71875 C 34.957031 104.761719 35.1875 105.058594 35.148438 105.382812 L 22.601562 202.714844 C 22.441406 203.988281 22.785156 205.210938 23.546875 206.074219 C 24.257812 206.882812 25.277344 207.324219 26.425781 207.324219 L 59.691406 207.382812 C 60.019531 207.382812 60.28125 207.652344 60.28125 207.976562 C 60.28125 208.300781 60.015625 208.566406 59.691406 208.566406 " fill-opacity="1" fill-rule="nonzero"/><path fill="#000000" d="M 296.785156 208.949219 L 147.316406 208.699219 C 146.984375 208.699219 146.722656 208.433594 146.722656 208.105469 C 146.722656 207.78125 146.988281 207.515625 147.316406 207.515625 L 296.785156 207.765625 C 298.953125 207.765625 301.167969 205.902344 301.425781 203.855469 L 309.148438 142.945312 C 309.1875 142.617188 309.488281 142.390625 309.808594 142.429688 C 310.132812 142.46875 310.363281 142.769531 310.324219 143.09375 L 302.601562 204.003906 C 302.265625 206.640625 299.546875 208.949219 296.785156 208.949219 " fill-opacity="1" fill-rule="nonzero"/><path fill="#000000" d="M 320.707031 57.042969 C 320.683594 57.042969 320.65625 57.042969 320.632812 57.039062 C 320.304688 56.996094 320.078125 56.699219 320.121094 56.378906 L 322.953125 34.03125 C 323.214844 31.949219 322.46875 29.734375 320.902344 27.953125 C 319.34375 26.1875 317.269531 25.175781 315.203125 25.175781 L 240.699219 25.175781 C 240.375 25.175781 240.109375 24.910156 240.109375 24.582031 C 240.109375 24.253906 240.375 23.992188 240.699219 23.992188 L 315.203125 23.992188 C 317.609375 23.992188 320.007812 25.148438 321.789062 27.167969 C 323.582031 29.207031 324.433594 31.765625 324.125 34.183594 L 321.292969 56.523438 C 321.257812 56.824219 321 57.042969 320.707031 57.042969 " fill-opacity="1" fill-rule="nonzero"/><path fill="#ffffff" d="M 114.449219 65.601562 C 114.449219 91.816406 93.558594 113.070312 67.789062 113.070312 C 42.019531 113.070312 21.128906 91.816406 21.128906 65.601562 C 21.128906 39.382812 42.019531 18.132812 67.789062 18.132812 C 93.558594 18.132812 114.449219 39.382812 114.449219 65.601562 " fill-opacity="1" fill-rule="nonzero"/><path fill="#caddff" d="M 55.449219 21.949219 C 55.257812 22.234375 55.828125 23.199219 56.960938 23.199219 C 58.09375 23.199219 58.660156 23.007812 59.132812 24.253906 C 59.605469 25.507812 58.941406 29.734375 59.605469 31.269531 C 60.265625 32.808594 61.398438 33.769531 62.25 32.90625 C 63.097656 32.039062 63.003906 29.734375 64.042969 29.15625 C 65.082031 28.578125 68.859375 26.273438 69.050781 24.351562 C 69.238281 22.429688 67.917969 20.988281 64.609375 20.605469 C 61.304688 20.222656 56.867188 19.835938 55.449219 21.949219 " fill-opacity="1" fill-rule="nonzero"/><path fill="#19598f" d="M 43.242188 65.003906 C 42.800781 65.253906 42.535156 65.738281 42.558594 66.25 C 42.625 67.863281 42.023438 71.878906 40.765625 73.160156 C 39.15625 74.792969 39.75 77.738281 39.726562 78.925781 C 39.675781 81.339844 39.902344 82.414062 42.453125 83.566406 C 45.003906 84.71875 46.003906 84.785156 46.191406 87.089844 C 46.378906 89.398438 46.671875 98.304688 47.429688 100.613281 C 48.183594 102.917969 49.789062 106.664062 50.640625 107.53125 C 51.492188 108.394531 53.476562 108.875 52.246094 105.609375 C 51.019531 102.34375 50.261719 100.804688 51.679688 98.976562 C 53.097656 97.152344 55.457031 92.925781 55.648438 91.292969 C 55.835938 89.65625 56.6875 88.699219 57.441406 88.503906 C 58.195312 88.3125 59.804688 87.738281 60.273438 87.160156 C 60.746094 86.582031 59.804688 84.949219 59.519531 83.507812 C 59.234375 82.066406 59.234375 81.203125 61.597656 80.050781 C 63.957031 78.894531 62.824219 75.628906 59.613281 74.765625 C 56.402344 73.898438 54.417969 72.074219 54.796875 70.246094 C 55.175781 68.421875 52.625 68.613281 51.113281 67.75 C 49.601562 66.882812 49.648438 65.527344 47.964844 64.878906 C 45.691406 64.003906 44.097656 64.519531 43.242188 65.003906 " fill-opacity="1" fill-rule="nonzero"/><path fill="#19598f" d="M 101.761719 62.988281 C 100.964844 61.773438 101.0625 59.851562 103.054688 57.222656 C 104.617188 55.152344 102.375 53.085938 101.339844 52.292969 C 101.148438 52.148438 101.234375 51.847656 101.472656 51.820312 C 102.753906 51.671875 105.726562 52.109375 107.03125 58.839844 C 108.722656 67.542969 109.421875 64.507812 110.316406 63.496094 C 111.210938 62.484375 109.535156 60.59375 111.210938 58.636719 C 112.269531 57.40625 112.804688 55.605469 113.078125 54.140625 C 109.710938 40.332031 100.410156 28.914062 88.082031 22.847656 C 88.101562 24.359375 87.742188 29.640625 81.664062 27.460938 C 81.664062 27.460938 77.882812 25.640625 78.777344 33.03125 C 79.671875 40.417969 82.757812 32.523438 83.355469 32.21875 C 83.953125 31.917969 85.542969 31.511719 84.847656 36.472656 C 84.847656 36.472656 84.746094 38.191406 81.664062 37.890625 C 78.578125 37.585938 77.980469 39.105469 77.980469 39.914062 C 77.980469 40.722656 78.28125 42.847656 76.589844 44.367188 C 74.898438 45.882812 75.394531 49.832031 77.683594 48.515625 C 79.972656 47.199219 81.5625 43.050781 83.652344 42.648438 C 85.742188 42.242188 87.632812 44.972656 89.621094 44.265625 C 91.613281 43.558594 90.714844 40.117188 91.710938 40.117188 C 92.707031 40.117188 94.796875 42.140625 94.496094 43.660156 C 94.199219 45.175781 91.113281 45.882812 91.910156 47.707031 C 92.707031 49.527344 94.398438 48.921875 94.894531 50.136719 C 95.394531 51.351562 92.40625 52.769531 90.019531 51.25 C 87.632812 49.730469 87.234375 51.957031 86.039062 50.945312 C 84.847656 49.933594 84.746094 47.808594 83.054688 48.515625 C 81.363281 49.226562 80.371094 50.640625 78.179688 51.652344 C 75.992188 52.667969 74.203125 53.980469 74.203125 55.398438 C 74.203125 56.816406 74.996094 58.335938 74.597656 60.5625 C 74.203125 62.789062 73.503906 68.859375 80.667969 67.648438 C 87.832031 66.429688 86.9375 70.175781 86.9375 70.582031 C 86.9375 70.984375 86.835938 76.25 87.535156 77.160156 C 88.230469 78.070312 89.820312 80.703125 87.535156 84.144531 C 85.246094 87.582031 86.140625 95.277344 88.230469 94.265625 C 90.320312 93.253906 92.40625 89.304688 94.996094 87.28125 C 97.582031 85.257812 101.164062 76.453125 99.671875 73.71875 C 98.179688 70.984375 101.761719 68.757812 102.257812 66.9375 C 102.753906 65.113281 102.554688 64.207031 101.761719 62.988281 " fill-opacity="1" fill-rule="nonzero"/><path fill="#19598f" d="M 34.101562 32.757812 C 34.136719 34.441406 33.84375 36.277344 32.875 37.996094 C 29.945312 43.183594 30.042969 45.78125 29.757812 50.96875 C 29.472656 56.15625 35.917969 65.304688 37.523438 66.265625 C 39.128906 67.226562 39.378906 64.941406 39.378906 63.117188 C 39.378906 61.289062 38.691406 59.097656 37.75 56.984375 C 36.804688 54.871094 36.804688 53.527344 37.085938 52.660156 C 37.371094 51.796875 38.503906 51.507812 39.257812 52.371094 C 40.015625 53.238281 41.832031 54.003906 42.703125 53.464844 C 43.777344 52.800781 43.359375 50.199219 43.734375 49.335938 C 44.113281 48.46875 46.191406 47.894531 47.042969 46.070312 C 47.890625 44.242188 49.308594 43.476562 51.007812 42.609375 C 52.710938 41.746094 54.21875 41.359375 54.503906 40.78125 C 54.789062 40.207031 54.410156 38.863281 54.882812 37.324219 C 55.355469 35.785156 56.488281 33.960938 56.015625 33.191406 C 55.542969 32.421875 54.125 31.171875 51.480469 33.097656 C 48.835938 35.015625 48.175781 35.015625 47.421875 33.578125 C 46.664062 32.132812 48.269531 28.386719 51.574219 28.386719 C 54.882812 28.386719 55.542969 27.234375 55.636719 26.371094 C 55.730469 25.503906 54.691406 24.542969 53.558594 24.351562 C 52.425781 24.160156 52.238281 24.832031 47.515625 26.753906 C 44.363281 28.035156 41.589844 27.734375 40.09375 27.394531 C 37.949219 29.007812 35.941406 30.800781 34.101562 32.757812 " fill-opacity="1" fill-rule="nonzero"/><path fill="#19598f" d="M 106.21875 87.21875 C 106.140625 89.371094 104.183594 91.445312 103.007812 92.160156 C 101.832031 92.878906 100.03125 93.992188 100.03125 95.824219 C 100.03125 97.007812 100 98.511719 100.269531 99.675781 C 106.488281 93.539062 107.714844 92.351562 111.277344 83.097656 C 111.09375 81.921875 106.296875 85.066406 106.21875 87.21875 " fill-opacity="1" fill-rule="nonzero"/><path fill="#000000" d="M 67.789062 18.722656 C 42.386719 18.722656 21.722656 39.75 21.722656 65.597656 C 21.722656 91.445312 42.386719 112.476562 67.789062 112.476562 C 93.191406 112.476562 113.855469 91.445312 113.855469 65.597656 C 113.855469 39.75 93.191406 18.722656 67.789062 18.722656 Z M 67.789062 113.660156 C 41.734375 113.660156 20.535156 92.097656 20.535156 65.597656 C 20.535156 39.097656 41.734375 17.539062 67.789062 17.539062 C 93.84375 17.539062 115.042969 39.097656 115.042969 65.597656 C 115.042969 92.097656 93.84375 113.660156 67.789062 113.660156 " fill-opacity="1" fill-rule="nonzero"/><path fill="#caddff" d="M 70.003906 132.007812 L 45.351562 132.007812 C 43.597656 132.007812 42.179688 130.585938 42.179688 128.835938 L 42.179688 128.804688 C 42.179688 127.050781 43.597656 125.632812 45.351562 125.632812 L 70.003906 125.632812 C 71.753906 125.632812 73.175781 127.050781 73.175781 128.804688 L 73.175781 128.835938 C 73.175781 130.585938 71.753906 132.007812 70.003906 132.007812 " fill-opacity="1" fill-rule="nonzero"/><path fill="#caddff" d="M 58.683594 145.488281 L 43.734375 145.488281 C 41.980469 145.488281 40.5625 144.070312 40.5625 142.316406 L 40.5625 142.285156 C 40.5625 140.53125 41.980469 139.113281 43.734375 139.113281 L 58.683594 139.113281 C 60.433594 139.113281 61.855469 140.53125 61.855469 142.285156 L 61.855469 142.316406 C 61.855469 144.070312 60.433594 145.488281 58.683594 145.488281 " fill-opacity="1" fill-rule="nonzero"/><path fill="#caddff" d="M 86.175781 158.96875 L 42.117188 158.96875 C 40.363281 158.96875 38.945312 157.550781 38.945312 155.796875 L 38.945312 155.765625 C 38.945312 154.015625 40.363281 152.59375 42.117188 152.59375 L 86.175781 152.59375 C 87.925781 152.59375 89.34375 154.015625 89.34375 155.765625 L 89.34375 155.796875 C 89.34375 157.550781 87.925781 158.96875 86.175781 158.96875 " fill-opacity="1" fill-rule="nonzero"/><path fill="#caddff" d="M 97.898438 172.449219 L 40.5 172.449219 C 38.75 172.449219 37.328125 171.03125 37.328125 169.28125 L 37.328125 169.246094 C 37.328125 167.496094 38.75 166.074219 40.5 166.074219 L 97.898438 166.074219 C 99.648438 166.074219 101.070312 167.496094 101.070312 169.246094 L 101.070312 169.28125 C 101.070312 171.03125 99.648438 172.449219 97.898438 172.449219 " fill-opacity="1" fill-rule="nonzero"/><path fill="#000000" d="M 223.582031 48.742188 C 221.101562 47.378906 216.753906 46.773438 211.925781 42.1875 C 209.574219 39.949219 206.175781 36.71875 205.945312 31.878906 C 205.683594 26.222656 209.84375 20.160156 215.515625 18.867188 C 230.664062 15.414062 236.808594 26.171875 240.84375 33.058594 C 243.566406 37.695312 248.074219 43.300781 251.582031 45.132812 C 259.742188 49.390625 267.144531 38.613281 275.554688 41.789062 C 282.792969 44.519531 280.332031 53.648438 288.285156 58.566406 C 297.414062 64.21875 304.921875 54.8125 315.859375 59.488281 C 325.902344 63.785156 332.824219 77.386719 330.273438 86.527344 C 328.503906 92.859375 323.539062 92.203125 319.199219 99.644531 C 312.4375 111.242188 320.230469 120.140625 315.804688 130.21875 C 309.875 143.726562 287.386719 147.097656 273.234375 145.503906 C 270.609375 145.207031 243.21875 141.707031 231.945312 119.941406 C 218.273438 93.535156 236.375 55.785156 223.582031 48.742188 " fill-opacity="1" fill-rule="nonzero"/><path fill="#000000" d="M 209.15625 208.289062 L 280.902344 208.289062 C 278.636719 187.367188 274.855469 169.484375 268.714844 159.019531 L 225.675781 161.585938 C 225.675781 161.585938 226.082031 162.875 226.816406 165.257812 L 215.070312 166.1875 C 215.070312 166.1875 212.066406 186.578125 209.15625 208.289062 " fill-opacity="1" fill-rule="nonzero"/><path fill="#ffffff" d="M 209.464844 168.054688 C 209.464844 168.054688 208.207031 192.039062 212.761719 196.164062 C 212.761719 196.164062 224.914062 179.320312 224.546875 168.054688 L 209.464844 168.054688 " fill-opacity="1" fill-rule="nonzero"/><path fill="#000000" d="M 210.027344 168.648438 C 209.722656 175.316406 209.695312 191.054688 212.707031 195.207031 C 214.796875 192.167969 223.90625 178.371094 223.960938 168.648438 Z M 212.761719 196.753906 C 212.617188 196.753906 212.472656 196.703125 212.367188 196.601562 C 207.65625 192.335938 208.820312 169.015625 208.871094 168.023438 C 208.890625 167.707031 209.148438 167.460938 209.464844 167.460938 L 224.546875 167.460938 C 224.867188 167.460938 225.125 167.714844 225.136719 168.035156 C 225.507812 179.371094 213.742188 195.816406 213.242188 196.511719 C 213.144531 196.644531 212.992188 196.734375 212.824219 196.75 C 212.804688 196.753906 212.785156 196.753906 212.761719 196.753906 " fill-opacity="1" fill-rule="nonzero"/><path fill="#ffffff" d="M 228.28125 166.441406 C 228.28125 166.441406 234.222656 185.109375 239.660156 189.371094 C 245.097656 193.636719 256.851562 171.011719 264.421875 169.808594 C 271.996094 168.601562 282.105469 186.96875 282.105469 186.96875 C 282.105469 186.96875 277.820312 163.210938 271.09375 158.75 L 228.28125 166.441406 " fill-opacity="1" fill-rule="nonzero"/><path fill="#000000" d="M 229.058594 166.90625 C 230.15625 170.207031 235.355469 185.242188 240.027344 188.90625 C 242.527344 190.867188 247.308594 185.308594 251.933594 179.933594 C 256.214844 174.957031 260.644531 169.808594 264.332031 169.222656 C 270.324219 168.265625 277.523438 178.394531 280.824219 183.65625 C 279.378906 177.050781 275.792969 162.886719 270.957031 159.375 Z M 241.183594 190.507812 C 240.511719 190.507812 239.882812 190.296875 239.296875 189.839844 C 233.78125 185.511719 227.964844 167.390625 227.71875 166.621094 C 227.667969 166.460938 227.6875 166.28125 227.777344 166.136719 C 227.863281 165.992188 228.011719 165.890625 228.179688 165.859375 L 270.988281 158.167969 C 271.140625 158.140625 271.296875 158.171875 271.421875 158.257812 C 278.277344 162.804688 282.511719 185.882812 282.6875 186.863281 C 282.738281 187.148438 282.574219 187.429688 282.300781 187.523438 C 282.027344 187.621094 281.722656 187.507812 281.585938 187.253906 C 281.484375 187.074219 271.589844 169.257812 264.519531 170.390625 C 261.257812 170.910156 256.972656 175.890625 252.828125 180.707031 C 248.515625 185.722656 244.398438 190.507812 241.183594 190.507812 " fill-opacity="1" fill-rule="nonzero"/><path fill="#ffffff" d="M 152.363281 60.867188 L 142.625 51.40625 C 142.625 51.40625 139.90625 53.570312 144.070312 58.652344 C 142.933594 58.691406 141.75 58.765625 139.851562 58.902344 C 138.324219 59.011719 136.804688 58.609375 135.644531 57.566406 C 134.292969 56.355469 132.609375 54.882812 131.984375 54.484375 C 130.875 53.78125 129.429688 52.660156 127.941406 52.683594 C 126.445312 52.703125 124.964844 53.894531 124.964844 53.894531 L 130.203125 60.832031 C 132.359375 63.683594 135.328125 65.742188 138.679688 66.707031 L 144.027344 68.242188 C 147.078125 69.121094 149.320312 71.835938 149.699219 75.121094 L 152.304688 97.679688 L 163.652344 86.707031 C 163.652344 86.707031 156.671875 66.902344 152.363281 60.867188 " fill-opacity="1" fill-rule="nonzero"/><path fill="#000000" d="M 125.808594 54.027344 L 130.675781 60.472656 C 132.769531 63.242188 135.59375 65.199219 138.84375 66.136719 L 144.191406 67.671875 C 147.488281 68.621094 149.878906 71.515625 150.289062 75.054688 L 152.753906 96.417969 L 162.964844 86.546875 C 162 83.851562 155.8125 66.757812 151.910156 61.25 L 142.671875 52.273438 C 142.230469 53.042969 141.777344 54.914062 144.527344 58.273438 C 144.671875 58.449219 144.703125 58.6875 144.609375 58.894531 C 144.515625 59.097656 144.316406 59.234375 144.089844 59.242188 C 142.972656 59.28125 141.800781 59.355469 139.894531 59.492188 C 138.109375 59.617188 136.460938 59.089844 135.25 58.007812 C 132.757812 55.773438 131.933594 55.15625 131.667969 54.984375 C 131.507812 54.882812 131.347656 54.773438 131.175781 54.664062 C 130.230469 54.035156 129.054688 53.25 127.949219 53.273438 C 127.183594 53.28125 126.351562 53.6875 125.808594 54.027344 Z M 152.304688 98.269531 C 152.234375 98.269531 152.167969 98.257812 152.105469 98.234375 C 151.890625 98.160156 151.742188 97.96875 151.714844 97.746094 L 149.109375 75.1875 C 148.757812 72.128906 146.699219 69.625 143.867188 68.8125 L 138.519531 67.273438 C 135.015625 66.265625 131.980469 64.160156 129.730469 61.1875 L 124.496094 54.25 C 124.300781 53.996094 124.347656 53.632812 124.597656 53.433594 C 124.664062 53.378906 126.253906 52.109375 127.933594 52.089844 C 129.398438 52.058594 130.746094 52.957031 131.828125 53.675781 C 131.992188 53.78125 132.152344 53.890625 132.300781 53.984375 C 132.832031 54.324219 134.089844 55.378906 136.039062 57.125 C 137.007812 57.992188 138.347656 58.414062 139.8125 58.3125 C 141.109375 58.21875 142.070312 58.15625 142.910156 58.109375 C 141.609375 56.285156 141.03125 54.621094 141.183594 53.160156 C 141.339844 51.707031 142.164062 51.015625 142.257812 50.941406 C 142.492188 50.753906 142.824219 50.773438 143.039062 50.980469 L 152.773438 60.441406 C 152.800781 60.464844 152.824219 60.488281 152.84375 60.519531 C 157.15625 66.554688 163.921875 85.699219 164.207031 86.511719 C 164.285156 86.730469 164.226562 86.972656 164.0625 87.132812 L 152.714844 98.105469 C 152.601562 98.210938 152.453125 98.269531 152.304688 98.269531 " fill-opacity="1" fill-rule="nonzero"/><path fill="#ffffff" d="M 165.601562 80.539062 L 137.378906 108.800781 L 152.304688 122.191406 L 176.148438 97.117188 L 165.601562 80.539062 " fill-opacity="1" fill-rule="nonzero"/><path fill="#000000" d="M 138.238281 108.777344 L 152.269531 121.367188 L 175.398438 97.050781 L 165.5 81.480469 Z M 152.304688 122.785156 C 152.164062 122.785156 152.019531 122.734375 151.910156 122.632812 L 136.984375 109.242188 C 136.863281 109.132812 136.789062 108.980469 136.785156 108.820312 C 136.78125 108.65625 136.84375 108.5 136.960938 108.382812 L 165.183594 80.121094 C 165.308594 79.992188 165.488281 79.933594 165.667969 79.949219 C 165.84375 79.96875 166.003906 80.070312 166.101562 80.222656 L 176.644531 96.804688 C 176.792969 97.03125 176.761719 97.332031 176.574219 97.53125 L 152.734375 122.601562 C 152.617188 122.722656 152.460938 122.785156 152.304688 122.785156 " fill-opacity="1" fill-rule="nonzero"/><path fill="#0c2840" d="M 141.582031 121.003906 L 174.0625 89.3125 C 174.0625 89.3125 176.585938 95.53125 182.820312 94.34375 C 189.945312 92.988281 196.609375 82.023438 201.070312 77.261719 C 202.359375 75.882812 204.644531 76.535156 205.027344 78.390625 L 208.316406 116.121094 C 208.316406 116.121094 188.09375 152.355469 141.582031 121.003906 " fill-opacity="1" fill-rule="nonzero"/><path fill="#0c2840" d="M 200.421875 77.910156 C 200.421875 77.910156 214.832031 58.476562 251.894531 72.292969 C 251.894531 72.292969 253.929688 98.148438 261.621094 118.921875 C 269.3125 139.695312 278.65625 152.457031 277.265625 166.332031 C 273.148438 164.382812 268.585938 163.675781 264.101562 164.296875 L 210.351562 171.769531 C 206.761719 172.269531 203.390625 169.808594 202.652344 166.105469 C 201.613281 160.929688 200.847656 151.660156 201.367188 135.191406 C 202.265625 106.847656 193.21875 93.988281 200.421875 77.910156 " fill-opacity="1" fill-rule="nonzero"/><path fill="#ffffff" d="M 273.765625 127.867188 L 264.894531 144.625 L 260.113281 141.886719 C 257.375 140.316406 254.710938 139.207031 251.15625 140.804688 C 251.15625 140.804688 239.078125 147.703125 237.796875 149.503906 C 236.773438 150.945312 237.539062 153.011719 239.222656 153.359375 C 239.222656 153.359375 241.308594 154.5625 251.171875 151.457031 C 254.710938 150.34375 265.304688 154.328125 268.902344 153 C 272.503906 151.667969 283.578125 134.074219 283.578125 134.074219 L 273.765625 127.867188 " fill-opacity="1" fill-rule="nonzero"/><path fill="#000000" d="M 239.519531 152.847656 C 239.523438 152.847656 241.78125 153.792969 250.992188 150.890625 C 252.855469 150.308594 256.234375 150.964844 259.8125 151.667969 C 263.347656 152.355469 267 153.070312 268.699219 152.445312 C 271.402344 151.441406 279.476562 139.429688 282.761719 134.261719 L 273.988281 128.707031 L 265.417969 144.902344 C 265.34375 145.046875 265.214844 145.148438 265.058594 145.195312 C 264.90625 145.238281 264.738281 145.21875 264.597656 145.140625 L 259.820312 142.398438 C 257.332031 140.976562 254.820312 139.820312 251.421875 141.332031 C 246.613281 144.078125 239.160156 148.605469 238.28125 149.84375 C 237.902344 150.375 237.824219 151.058594 238.0625 151.675781 C 238.292969 152.253906 238.757812 152.660156 239.34375 152.777344 C 239.40625 152.792969 239.46875 152.8125 239.519531 152.847656 Z M 240.890625 154.175781 C 239.796875 154.175781 239.257812 154.015625 239.035156 153.925781 C 238.101562 153.707031 237.328125 153.03125 236.964844 152.109375 C 236.574219 151.121094 236.707031 150.019531 237.316406 149.160156 C 238.628906 147.304688 249.617188 141.003906 250.863281 140.289062 C 250.878906 140.28125 250.894531 140.269531 250.914062 140.261719 C 254.828125 138.507812 257.746094 139.847656 260.40625 141.371094 L 264.65625 143.808594 L 273.242188 127.589844 C 273.320312 127.445312 273.457031 127.335938 273.613281 127.292969 C 273.773438 127.25 273.945312 127.277344 274.082031 127.367188 L 283.894531 133.578125 C 284.171875 133.75 284.253906 134.117188 284.082031 134.390625 C 282.933594 136.210938 272.789062 152.191406 269.109375 153.554688 C 267.101562 154.296875 263.449219 153.582031 259.585938 152.828125 C 256.308594 152.1875 252.921875 151.527344 251.347656 152.023438 C 245.808594 153.765625 242.640625 154.175781 240.890625 154.175781 " fill-opacity="1" fill-rule="nonzero"/><path fill="#ffffff" d="M 273.765625 115.695312 L 269.253906 127.378906 L 295.277344 145.191406 C 295.277344 145.191406 300.664062 129.722656 300.945312 123.488281 L 273.765625 115.695312 " fill-opacity="1" fill-rule="nonzero"/><path fill="#000000" d="M 269.972656 127.15625 L 294.96875 144.265625 C 296 141.214844 299.886719 129.460938 300.324219 123.925781 L 274.125 116.410156 Z M 295.273438 145.785156 C 295.15625 145.785156 295.039062 145.75 294.941406 145.679688 L 268.917969 127.867188 C 268.691406 127.714844 268.601562 127.425781 268.699219 127.167969 L 273.210938 115.480469 C 273.324219 115.195312 273.632812 115.039062 273.929688 115.125 L 301.109375 122.921875 C 301.371094 122.996094 301.546875 123.242188 301.535156 123.515625 C 301.257812 129.765625 296.054688 144.753906 295.832031 145.386719 C 295.773438 145.5625 295.632812 145.699219 295.457031 145.757812 C 295.398438 145.777344 295.335938 145.785156 295.273438 145.785156 " fill-opacity="1" fill-rule="nonzero"/><path fill="#0c2840" d="M 246.375 96.648438 L 265.90625 107.273438 C 269.53125 108.863281 271.410156 113.0625 270.253906 116.988281 L 269.875 118.273438 L 304.101562 131.5625 C 304.101562 131.5625 308.863281 114.796875 301.035156 99.726562 C 293.214844 84.65625 249.488281 71.601562 249.488281 71.601562 L 246.375 96.648438 " fill-opacity="1" fill-rule="nonzero"/><path fill="#ffffff" d="M 218.183594 51.40625 L 221.917969 68.78125 L 211.335938 72.71875 C 211.335938 72.71875 225.449219 81.5625 246.03125 73.585938 L 235.207031 67.546875 L 227.992188 46.332031 L 218.183594 51.40625 " fill-opacity="1" fill-rule="nonzero"/><path fill="#000000" d="M 212.777344 72.8125 C 216.390625 74.585938 228.429688 79.3125 244.625 73.476562 L 234.917969 68.066406 C 234.792969 67.992188 234.691406 67.875 234.648438 67.738281 L 227.652344 47.171875 L 218.855469 51.722656 L 222.5 68.65625 C 222.558594 68.945312 222.402344 69.234375 222.125 69.335938 Z M 229.023438 77.484375 C 218.011719 77.484375 211.125 73.28125 211.023438 73.21875 C 210.832031 73.097656 210.726562 72.878906 210.75 72.65625 C 210.773438 72.433594 210.921875 72.238281 211.132812 72.164062 L 221.234375 68.402344 L 217.605469 51.527344 C 217.546875 51.269531 217.671875 51 217.910156 50.878906 L 227.71875 45.804688 C 227.871094 45.726562 228.054688 45.71875 228.214844 45.78125 C 228.375 45.847656 228.496094 45.976562 228.550781 46.140625 L 235.695312 67.140625 L 246.320312 73.066406 C 246.519531 73.179688 246.640625 73.394531 246.625 73.625 C 246.605469 73.855469 246.460938 74.054688 246.246094 74.136719 C 239.824219 76.625 234.003906 77.484375 229.023438 77.484375 " fill-opacity="1" fill-rule="nonzero"/><path fill="#ffffff" d="M 228.6875 51.402344 C 228.6875 51.402344 232.710938 52.550781 233.421875 48.921875 C 234.128906 45.289062 230.796875 45.839844 230.796875 45.839844 C 230.796875 45.839844 233.664062 37.75 228.046875 37.546875 C 222.429688 37.339844 218.183594 35.59375 218.183594 35.59375 C 218.183594 35.59375 214.8125 43.371094 214.078125 49.6875 C 213.632812 53.496094 214.144531 56.773438 216.929688 57.488281 C 224.550781 59.449219 228.6875 51.402344 228.6875 51.402344 " fill-opacity="1" fill-rule="nonzero"/><path fill="#000000" d="M 218.507812 36.351562 C 217.753906 38.1875 215.273438 44.527344 214.664062 49.757812 C 214.171875 53.972656 214.984375 56.378906 217.078125 56.917969 C 224.160156 58.742188 228.117188 51.210938 228.15625 51.132812 C 228.285156 50.882812 228.574219 50.757812 228.84375 50.835938 C 228.863281 50.839844 230.558594 51.304688 231.738281 50.578125 C 232.316406 50.222656 232.671875 49.644531 232.835938 48.808594 C 233.015625 47.882812 232.921875 47.222656 232.554688 46.84375 C 231.992188 46.265625 230.902344 46.425781 230.890625 46.429688 C 230.683594 46.460938 230.472656 46.386719 230.339844 46.222656 C 230.207031 46.0625 230.164062 45.84375 230.234375 45.648438 C 230.25 45.605469 231.746094 41.304688 230.332031 39.230469 C 229.859375 38.535156 229.105469 38.179688 228.023438 38.136719 C 223.472656 37.972656 219.847656 36.828125 218.507812 36.351562 Z M 219.273438 58.390625 C 218.488281 58.390625 217.65625 58.289062 216.78125 58.066406 C 214.023438 57.355469 212.917969 54.515625 213.488281 49.621094 C 214.226562 43.292969 217.5 35.679688 217.636719 35.359375 C 217.765625 35.0625 218.109375 34.925781 218.40625 35.046875 C 218.449219 35.0625 222.632812 36.757812 228.066406 36.957031 C 229.53125 37.007812 230.625 37.550781 231.316406 38.566406 C 232.648438 40.53125 232.003906 43.746094 231.597656 45.238281 C 232.15625 45.289062 232.871094 45.46875 233.402344 46.019531 C 234.058594 46.691406 234.257812 47.707031 234 49.035156 C 233.773438 50.199219 233.21875 51.058594 232.355469 51.589844 C 231.164062 52.320312 229.710938 52.203125 228.984375 52.074219 C 228.109375 53.519531 224.761719 58.390625 219.273438 58.390625 " fill-opacity="1" fill-rule="nonzero"/><path fill="#000000" d="M 201.183594 122.773438 C 200.867188 122.773438 200.605469 122.519531 200.59375 122.199219 L 199.839844 99.042969 C 199.832031 98.714844 200.085938 98.445312 200.414062 98.433594 C 200.734375 98.417969 201.011719 98.679688 201.023438 99.007812 L 201.777344 122.160156 C 201.785156 122.484375 201.53125 122.761719 201.207031 122.769531 C 201.199219 122.769531 201.191406 122.773438 201.183594 122.773438 " fill-opacity="1" fill-rule="nonzero"/><path fill="#ffffff" d="M 276.925781 325.492188 C 276.925781 325.492188 278.121094 325.492188 279.265625 324.671875 C 282.808594 322.136719 290.167969 316.46875 295.195312 317.175781 C 303.621094 318.363281 304.621094 325.3125 304.621094 325.3125 C 304.621094 325.3125 311.722656 325.046875 311.582031 329.824219 C 311.472656 333.488281 309.40625 338.148438 303.664062 340.710938 C 295.832031 344.207031 287.984375 346.867188 279.324219 341.132812 C 277.640625 340.019531 275.644531 339.5 273.644531 339.703125 C 268.78125 340.199219 196.242188 341.777344 196.242188 341.777344 C 179.648438 341.777344 164.425781 332.472656 156.722656 317.625 L 141.433594 288.15625 L 158.949219 238.695312 L 186.417969 303.175781 C 199.726562 321.53125 275.539062 325.808594 276.925781 325.492188 " fill-opacity="1" fill-rule="nonzero"/><path fill="#000000" d="M 274.492188 339.066406 C 276.296875 339.066406 278.101562 339.609375 279.648438 340.636719 C 288.101562 346.230469 295.71875 343.609375 303.421875 340.167969 C 310.25 337.121094 310.941406 331.464844 310.992188 329.804688 C 311.019531 328.867188 310.734375 328.117188 310.125 327.511719 C 308.386719 325.785156 304.679688 325.902344 304.644531 325.90625 C 304.335938 325.910156 304.078125 325.695312 304.035156 325.398438 C 303.996094 325.132812 302.976562 318.867188 295.117188 317.761719 C 290.6875 317.140625 284.019531 321.964844 280.4375 324.558594 C 280.144531 324.769531 279.867188 324.972656 279.609375 325.15625 C 278.324219 326.074219 276.976562 326.085938 276.925781 326.082031 L 276.925781 326.078125 C 275.011719 326.171875 256.101562 325.125 236.050781 321.921875 C 217.074219 318.886719 192.976562 313.234375 185.9375 303.523438 C 185.914062 303.488281 185.890625 303.449219 185.875 303.410156 L 159 240.324219 L 142.078125 288.109375 L 157.25 317.347656 C 164.875 332.050781 179.820312 341.183594 196.242188 341.183594 C 196.957031 341.167969 268.796875 339.601562 273.585938 339.113281 C 273.886719 339.082031 274.191406 339.066406 274.492188 339.066406 Z M 289.898438 345.046875 C 286.378906 345.046875 282.746094 344.109375 278.996094 341.625 C 277.414062 340.578125 275.535156 340.105469 273.707031 340.289062 C 268.871094 340.785156 199.21875 342.304688 196.253906 342.367188 C 179.375 342.371094 164.027344 332.988281 156.199219 317.894531 L 140.90625 288.425781 C 140.832031 288.28125 140.820312 288.113281 140.875 287.957031 L 158.394531 238.5 C 158.472656 238.269531 158.6875 238.113281 158.929688 238.105469 C 159.171875 238.097656 159.398438 238.242188 159.496094 238.464844 L 186.933594 302.882812 C 192.335938 310.246094 209.25 316.402344 235.867188 320.691406 C 257.007812 324.097656 275.90625 325.015625 276.824219 324.90625 C 276.871094 324.898438 276.882812 324.898438 276.925781 324.898438 C 276.957031 324.898438 277.96875 324.875 278.921875 324.191406 C 279.175781 324.011719 279.449219 323.8125 279.742188 323.597656 C 283.71875 320.71875 290.378906 315.898438 295.28125 316.589844 C 302.6875 317.632812 304.652344 323.027344 305.097656 324.71875 C 306.277344 324.746094 309.265625 324.988281 310.960938 326.667969 C 311.804688 327.507812 312.210938 328.574219 312.175781 329.839844 C 312.121094 331.675781 311.363281 337.921875 303.90625 341.25 C 299.4375 343.246094 294.773438 345.046875 289.898438 345.046875 " fill-opacity="1" fill-rule="nonzero"/><path fill="#ffffff" d="M 257.867188 312.234375 L 264.878906 299.824219 L 270.640625 303.601562 C 270.957031 303.808594 271.222656 304.089844 271.414062 304.421875 L 271.757812 305.019531 C 272.191406 305.773438 272.992188 306.238281 273.84375 306.230469 C 274.308594 306.222656 274.765625 306.355469 275.160156 306.613281 L 317.980469 334.640625 C 318.335938 334.875 318.660156 335.148438 318.941406 335.464844 L 327.59375 345.160156 L 315.546875 342.410156 C 314.890625 342.257812 314.257812 342.023438 313.65625 341.707031 L 268.589844 317.898438 C 268.203125 317.695312 267.882812 317.390625 267.652344 317.015625 L 267.597656 316.921875 C 267.160156 316.203125 266.382812 315.761719 265.558594 315.765625 L 265.140625 315.769531 C 264.761719 315.769531 264.382812 315.675781 264.039062 315.496094 L 257.867188 312.234375 " fill-opacity="1" fill-rule="nonzero"/><path fill="#000000" d="M 265.570312 315.175781 C 266.59375 315.175781 267.566406 315.726562 268.105469 316.613281 L 268.160156 316.707031 C 268.335938 316.992188 268.578125 317.222656 268.867188 317.375 L 313.9375 341.183594 C 314.492188 341.476562 315.074219 341.695312 315.683594 341.832031 L 325.917969 344.167969 L 318.5 335.859375 C 318.253906 335.582031 317.96875 335.339844 317.660156 335.136719 L 274.835938 307.109375 C 274.539062 306.914062 274.203125 306.804688 273.855469 306.820312 C 272.792969 306.816406 271.785156 306.257812 271.242188 305.316406 L 270.902344 304.714844 C 270.757812 304.46875 270.558594 304.253906 270.316406 304.09375 L 265.089844 300.667969 L 258.683594 311.992188 L 264.320312 314.972656 C 264.574219 315.105469 264.863281 315.167969 265.140625 315.175781 L 265.558594 315.175781 C 265.5625 315.175781 265.566406 315.175781 265.570312 315.175781 Z M 327.597656 345.75 C 327.550781 345.75 327.507812 345.746094 327.460938 345.734375 L 315.417969 342.984375 C 314.714844 342.824219 314.027344 342.570312 313.382812 342.230469 L 268.316406 318.421875 C 267.835938 318.167969 267.433594 317.789062 267.152344 317.324219 L 267.09375 317.230469 C 266.765625 316.691406 266.183594 316.355469 265.570312 316.355469 C 265.566406 316.355469 265.566406 316.355469 265.5625 316.355469 L 265.148438 316.359375 C 265.140625 316.359375 265.140625 316.359375 265.136719 316.359375 C 264.664062 316.359375 264.191406 316.242188 263.765625 316.019531 L 257.59375 312.753906 C 257.449219 312.683594 257.34375 312.554688 257.300781 312.398438 C 257.257812 312.246094 257.273438 312.082031 257.351562 311.941406 L 264.367188 299.535156 C 264.449219 299.390625 264.582031 299.289062 264.742188 299.25 C 264.902344 299.210938 265.070312 299.242188 265.210938 299.328125 L 270.964844 303.105469 C 271.359375 303.363281 271.695312 303.714844 271.929688 304.125 L 272.273438 304.722656 C 272.601562 305.292969 273.203125 305.644531 273.839844 305.636719 C 274.421875 305.621094 274.992188 305.796875 275.484375 306.117188 L 318.308594 334.144531 C 318.703125 334.402344 319.066406 334.714844 319.382812 335.070312 L 328.039062 344.765625 C 328.207031 344.957031 328.238281 345.238281 328.105469 345.460938 C 328 345.640625 327.800781 345.75 327.597656 345.75 " fill-opacity="1" fill-rule="nonzero"/><path fill="#000000" d="M 315.816406 340.710938 C 315.726562 340.710938 315.636719 340.691406 315.546875 340.644531 C 315.257812 340.496094 315.140625 340.140625 315.289062 339.847656 L 317.863281 334.8125 C 318.011719 334.523438 318.367188 334.40625 318.660156 334.554688 C 318.949219 334.703125 319.066406 335.0625 318.917969 335.355469 L 316.34375 340.386719 C 316.238281 340.59375 316.03125 340.710938 315.816406 340.710938 " fill-opacity="1" fill-rule="nonzero"/><path fill="#0c2840" d="M 254.910156 293.679688 L 265.113281 299.914062 L 257.914062 312.300781 L 247.707031 306.070312 C 245.839844 304.929688 245.199219 302.496094 246.277344 300.640625 L 249.570312 294.976562 C 250.648438 293.117188 253.039062 292.539062 254.910156 293.679688 " fill-opacity="1" fill-rule="nonzero"/><path fill="#000000" d="M 252.851562 293.6875 C 252.582031 293.6875 252.316406 293.722656 252.050781 293.785156 C 251.214844 294 250.515625 294.527344 250.078125 295.273438 L 246.789062 300.9375 C 245.871094 302.515625 246.421875 304.589844 248.015625 305.566406 L 257.707031 311.480469 L 264.3125 300.117188 L 254.601562 294.1875 C 254.058594 293.855469 253.457031 293.6875 252.851562 293.6875 Z M 257.914062 312.894531 C 257.804688 312.894531 257.699219 312.863281 257.605469 312.808594 L 247.398438 306.574219 C 245.257812 305.269531 244.527344 302.472656 245.761719 300.34375 L 249.054688 294.675781 C 249.652344 293.65625 250.609375 292.929688 251.757812 292.640625 C 252.933594 292.339844 254.160156 292.53125 255.214844 293.175781 L 265.421875 299.410156 C 265.695312 299.578125 265.785156 299.933594 265.625 300.210938 L 258.425781 312.601562 C 258.34375 312.738281 258.210938 312.839844 258.058594 312.875 C 258.011719 312.886719 257.960938 312.894531 257.914062 312.894531 " fill-opacity="1" fill-rule="nonzero"/><path fill="#000000" d="M 267.960938 314.589844 C 267.859375 314.589844 267.753906 314.5625 267.660156 314.507812 C 267.378906 314.339844 267.285156 313.976562 267.453125 313.695312 L 270.925781 307.867188 C 271.09375 307.585938 271.457031 307.492188 271.738281 307.660156 C 272.019531 307.828125 272.109375 308.191406 271.945312 308.472656 L 268.46875 314.300781 C 268.359375 314.488281 268.164062 314.589844 267.960938 314.589844 " fill-opacity="1" fill-rule="nonzero"/><path fill="#000000" d="M 288.453125 319.519531 C 288.347656 319.519531 288.238281 319.488281 288.140625 319.425781 L 275.359375 311.320312 C 275.085938 311.144531 275 310.777344 275.175781 310.503906 C 275.351562 310.226562 275.71875 310.144531 275.992188 310.320312 L 288.773438 318.425781 C 289.046875 318.601562 289.128906 318.96875 288.957031 319.242188 C 288.84375 319.417969 288.652344 319.519531 288.453125 319.519531 " fill-opacity="1" fill-rule="nonzero"/><path fill="#000000" d="M 315.097656 336.214844 C 314.988281 336.214844 314.878906 336.183594 314.78125 336.125 L 309.789062 332.984375 C 309.511719 332.808594 309.429688 332.441406 309.605469 332.167969 C 309.777344 331.890625 310.144531 331.804688 310.421875 331.980469 L 315.410156 335.121094 C 315.6875 335.296875 315.773438 335.660156 315.597656 335.9375 C 315.484375 336.117188 315.292969 336.214844 315.097656 336.214844 " fill-opacity="1" fill-rule="nonzero"/><path fill="#ffffff" d="M 256.773438 307.917969 C 256.667969 307.917969 256.558594 307.886719 256.460938 307.828125 L 248.683594 303.003906 C 248.40625 302.828125 248.320312 302.464844 248.496094 302.1875 C 248.667969 301.910156 249.03125 301.824219 249.308594 301.996094 L 257.085938 306.820312 C 257.363281 306.992188 257.449219 307.359375 257.277344 307.636719 C 257.164062 307.816406 256.96875 307.917969 256.773438 307.917969 " fill-opacity="1" fill-rule="nonzero"/><path fill="#ffffff" d="M 276.925781 325.492188 C 276.925781 325.492188 287.375 324.175781 294.035156 325.105469 C 299.21875 325.832031 314.5625 322.109375 311.355469 332.140625 C 310.664062 334.300781 310.300781 335.738281 308.402344 337.777344 C 307.363281 338.890625 304.519531 341.1875 302.910156 341.90625 C 295.070312 345.40625 287.96875 346.871094 279.296875 341.113281 C 277.625 340.007812 275.636719 339.5 273.648438 339.703125 C 272.488281 339.820312 276.558594 325.574219 276.925781 325.492188 " fill-opacity="1" fill-rule="nonzero"/><path fill="#000000" d="M 290.972656 345.570312 C 287.128906 345.570312 283.222656 344.429688 278.96875 341.609375 C 277.40625 340.574219 275.539062 340.105469 273.707031 340.289062 C 272.429688 340.421875 268.335938 340.566406 268.160156 340.570312 C 267.839844 340.585938 267.5625 340.328125 267.550781 340 C 267.539062 339.675781 267.792969 339.398438 268.121094 339.386719 C 268.160156 339.386719 272.347656 339.238281 273.585938 339.113281 C 275.691406 338.898438 277.835938 339.433594 279.625 340.621094 C 287.894531 346.113281 294.574219 344.976562 302.664062 341.367188 C 304.160156 340.699219 306.941406 338.472656 307.96875 337.375 C 309.648438 335.570312 310.046875 334.308594 310.652344 332.394531 L 310.792969 331.960938 C 311.382812 330.109375 311.332031 328.761719 310.628906 327.828125 C 309.085938 325.773438 304.484375 325.902344 300.425781 326.019531 C 297.847656 326.09375 295.414062 326.164062 293.855469 325.671875 C 285.972656 323.195312 277.199219 326.023438 277.109375 326.050781 C 277.09375 326.058594 277.074219 326.0625 277.058594 326.066406 C 276.660156 326.160156 275.515625 326.125 272.839844 325.9375 C 272.511719 325.917969 272.265625 325.636719 272.289062 325.308594 C 272.3125 324.984375 272.59375 324.734375 272.921875 324.757812 C 275.171875 324.914062 276.464844 324.964844 276.773438 324.917969 C 277.492188 324.6875 286.144531 322.011719 294.210938 324.542969 C 295.582031 324.972656 297.917969 324.90625 300.390625 324.835938 C 304.734375 324.710938 309.660156 324.570312 311.578125 327.117188 C 312.507812 328.359375 312.625 330.109375 311.917969 332.320312 L 311.785156 332.75 C 311.175781 334.667969 310.695312 336.183594 308.835938 338.179688 C 307.722656 339.375 304.84375 341.691406 303.148438 342.449219 C 298.945312 344.324219 294.996094 345.570312 290.972656 345.570312 " fill-opacity="1" fill-rule="nonzero"/><path fill="#0c2840" d="M 116.199219 204.042969 C 116.199219 204.042969 148.386719 208.355469 159.078125 221.515625 C 172.617188 238.1875 178.453125 262.960938 180.351562 273.664062 C 180.90625 276.8125 180.839844 280.035156 180.15625 283.152344 L 179.367188 286.726562 C 176.585938 299.347656 165.195312 308.097656 152.414062 307.425781 L 153.054688 307.425781 C 150.988281 307.320312 147.976562 306.628906 147.101562 304.734375 L 143.71875 298.5 L 143.402344 300.746094 C 140.859375 317.335938 155.136719 340.191406 155.136719 340.191406 L 116.054688 334.871094 C 96.492188 332.886719 77.878906 325.097656 62.945312 312.175781 C 54.839844 305.164062 48.570312 298.597656 45.863281 290.628906 C 41.273438 277.089844 41.691406 273.234375 40.402344 256.8125 C 39.527344 245.632812 43.558594 230.109375 50.496094 221.351562 C 60.695312 208.488281 79.546875 199.34375 116.199219 204.042969 " fill-opacity="1" fill-rule="nonzero"/><path fill="#caddff" d="M 145.90625 304.949219 C 145.683594 304.949219 145.46875 304.824219 145.371094 304.609375 L 136.355469 285.476562 C 136.214844 285.179688 136.339844 284.828125 136.636719 284.6875 C 136.933594 284.550781 137.285156 284.675781 137.425781 284.972656 L 146.441406 304.105469 C 146.578125 304.398438 146.453125 304.75 146.15625 304.890625 C 146.074219 304.929688 145.992188 304.949219 145.90625 304.949219 " fill-opacity="1" fill-rule="nonzero"/><path fill="#000000" d="M 121.269531 139.417969 C 130.597656 133.941406 131.859375 117.445312 124.941406 113.859375 C 118.695312 110.625 110.992188 114.148438 101.335938 118.761719 C 96.742188 120.953125 90.0625 120.847656 82.988281 122.238281 C 50.335938 128.640625 51.863281 168.429688 83.90625 194.183594 C 106.988281 212.730469 120.554688 148.109375 120.554688 148.109375 L 121.269531 139.417969 " fill-opacity="1" fill-rule="nonzero"/><path fill="#ffffff" d="M 114.015625 143.304688 C 114.605469 137.945312 120.28125 137.664062 121.269531 139.417969 C 123.671875 143.683594 124.816406 146.644531 125.203125 148.457031 C 125.71875 150.890625 123.480469 153.324219 124.683594 155.933594 C 125.890625 158.542969 127.78125 161.496094 127.953125 166.191406 C 128.121094 170.777344 132.726562 191.800781 116.5625 191.136719 C 115.925781 191.109375 115.398438 191.613281 115.40625 192.253906 C 115.445312 195.453125 115.613281 204.257812 116.316406 209.023438 C 116.699219 211.621094 115.097656 214.089844 112.597656 214.800781 C 106.128906 216.648438 94.082031 219.246094 85.066406 216.285156 C 82.722656 215.515625 81.492188 212.917969 82.328125 210.578125 C 83.394531 207.585938 84.882812 199.183594 83.90625 194.183594 C 83.90625 194.183594 89.304688 193.648438 95.316406 190.859375 C 104.558594 186.574219 109.101562 176.144531 106.550781 166.203125 C 106 164.0625 104.8125 161.023438 106.050781 157.804688 C 107.996094 152.742188 110.527344 153.863281 112.207031 155.511719 C 112.886719 156.175781 114.015625 155.691406 114.015625 154.738281 L 114.015625 143.304688 " fill-opacity="1" fill-rule="nonzero"/><path fill="#000000" d="M 84.597656 194.695312 C 85.378906 199.902344 83.9375 207.820312 82.886719 210.777344 C 82.527344 211.773438 82.589844 212.847656 83.054688 213.796875 C 83.507812 214.722656 84.289062 215.40625 85.25 215.722656 C 94.132812 218.640625 106.097656 216.042969 112.4375 214.234375 C 114.652344 213.601562 116.070312 211.398438 115.730469 209.109375 C 115.03125 204.359375 114.855469 195.746094 114.8125 192.261719 C 114.808594 191.792969 114.988281 191.351562 115.324219 191.023438 C 115.660156 190.699219 116.117188 190.527344 116.585938 190.542969 C 120.140625 190.6875 122.898438 189.742188 124.78125 187.726562 C 129.15625 183.050781 128.136719 173.703125 127.589844 168.6875 C 127.476562 167.636719 127.382812 166.8125 127.363281 166.210938 C 127.222656 162.425781 125.9375 159.828125 124.800781 157.535156 C 124.570312 157.070312 124.351562 156.621094 124.148438 156.183594 C 123.382812 154.523438 123.835938 152.933594 124.238281 151.527344 C 124.539062 150.488281 124.820312 149.507812 124.621094 148.578125 C 124.367188 147.378906 123.527344 144.628906 120.753906 139.710938 C 120.484375 139.230469 119.40625 138.875 118.144531 139.132812 C 117.410156 139.285156 114.984375 140.03125 114.609375 143.335938 L 114.609375 154.738281 C 114.609375 155.425781 114.21875 156.015625 113.589844 156.277344 C 112.964844 156.542969 112.277344 156.410156 111.792969 155.933594 C 111.125 155.28125 110.132812 154.546875 109.179688 154.75 C 108.238281 154.957031 107.34375 156.085938 106.605469 158.015625 C 105.601562 160.617188 106.304688 163.121094 106.871094 165.128906 C 106.960938 165.453125 107.046875 165.761719 107.125 166.054688 C 109.78125 176.402344 104.921875 187.058594 95.566406 191.394531 C 90.65625 193.671875 86.207031 194.464844 84.597656 194.695312 Z M 94.574219 218.21875 C 91.222656 218.21875 87.890625 217.835938 84.882812 216.847656 C 83.613281 216.429688 82.585938 215.53125 81.992188 214.320312 C 81.382812 213.078125 81.304688 211.679688 81.769531 210.378906 C 82.800781 207.492188 84.28125 199.195312 83.328125 194.296875 L 83.203125 193.660156 L 83.847656 193.59375 C 83.902344 193.589844 89.226562 193.03125 95.066406 190.320312 C 103.90625 186.226562 108.492188 176.144531 105.976562 166.347656 C 105.902344 166.066406 105.820312 165.765625 105.730469 165.449219 C 105.152344 163.386719 104.355469 160.558594 105.5 157.589844 C 106.402344 155.238281 107.558594 153.890625 108.929688 153.59375 C 110.105469 153.335938 111.347656 153.839844 112.621094 155.089844 C 112.824219 155.285156 113.046875 155.222656 113.132812 155.1875 C 113.199219 155.15625 113.425781 155.039062 113.425781 154.738281 L 113.421875 143.273438 L 113.425781 143.242188 C 113.734375 140.453125 115.40625 138.484375 117.90625 137.976562 C 119.609375 137.625 121.207031 138.101562 121.785156 139.128906 C 124.492188 143.929688 125.453125 146.785156 125.78125 148.332031 C 126.039062 149.550781 125.703125 150.722656 125.378906 151.855469 C 125 153.175781 124.640625 154.425781 125.222656 155.683594 C 125.421875 156.113281 125.636719 156.554688 125.863281 157.011719 C 126.992188 159.289062 128.398438 162.128906 128.546875 166.167969 C 128.566406 166.726562 128.660156 167.574219 128.765625 168.558594 C 129.332031 173.765625 130.390625 183.460938 125.644531 188.539062 C 123.515625 190.816406 120.449219 191.890625 116.535156 191.726562 C 116.390625 191.726562 116.253906 191.773438 116.152344 191.871094 C 116.050781 191.972656 115.996094 192.105469 115.996094 192.246094 C 116.039062 195.707031 116.210938 204.257812 116.902344 208.9375 C 117.328125 211.808594 115.546875 214.578125 112.761719 215.371094 C 108.410156 216.613281 101.453125 218.214844 94.574219 218.21875 " fill-opacity="1" fill-rule="nonzero"/><path fill="#000000" d="M 128.304688 164.113281 L 127.691406 163.101562 C 132.792969 160.007812 129.542969 151.285156 128.582031 149.007812 L 113.972656 156.164062 L 113.453125 155.101562 L 129.152344 147.410156 L 129.410156 147.949219 C 129.644531 148.441406 135.070312 160.015625 128.304688 164.113281 " fill-opacity="1" fill-rule="nonzero"/><path fill="#000000" d="M 128.417969 170.28125 C 128.265625 170.28125 128.113281 170.222656 128 170.105469 C 127.769531 169.875 127.765625 169.5 128 169.269531 L 130.066406 167.199219 C 130.675781 166.589844 130.753906 165.632812 130.253906 164.929688 L 128.832031 162.921875 C 128.644531 162.65625 128.707031 162.289062 128.972656 162.097656 C 129.238281 161.910156 129.609375 161.972656 129.796875 162.238281 L 131.222656 164.242188 C 132.054688 165.421875 131.921875 167.015625 130.90625 168.035156 L 128.835938 170.105469 C 128.71875 170.222656 128.570312 170.28125 128.417969 170.28125 " fill-opacity="1" fill-rule="nonzero"/><path fill="#000000" d="M 111.773438 172.101562 C 111.4375 172.101562 111.078125 172.058594 110.699219 171.96875 C 108.886719 171.515625 107.328125 169.957031 106.074219 167.332031 C 105.933594 167.039062 106.058594 166.683594 106.355469 166.542969 C 106.648438 166.402344 107.003906 166.527344 107.144531 166.824219 C 108.238281 169.113281 109.53125 170.457031 110.984375 170.816406 C 112.535156 171.203125 113.746094 170.320312 113.757812 170.3125 C 114.019531 170.117188 114.390625 170.171875 114.585938 170.433594 C 114.78125 170.695312 114.726562 171.066406 114.464844 171.261719 C 114.410156 171.304688 113.316406 172.101562 111.773438 172.101562 " fill-opacity="1" fill-rule="nonzero"/><path fill="#ffffff" d="M 35.535156 251.335938 C 46.535156 258.6875 71.828125 271.105469 114.515625 268.476562 C 117.429688 268.292969 120.128906 270.042969 121.15625 272.804688 L 123.699219 283.082031 C 128.003906 300.5 136.101562 316.722656 147.402344 330.578125 L 155.324219 340.289062 C 155.550781 340.566406 155.339844 340.984375 154.984375 340.957031 L 125.976562 338.804688 C 81.085938 332.804688 46.214844 310.054688 35.027344 268.609375 L 31.214844 254.480469 C 30.523438 251.921875 33.339844 249.875 35.535156 251.335938 " fill-opacity="1" fill-rule="nonzero"/><path fill="#000000" d="M 155.136719 340.785156 C 154.964844 340.785156 154.792969 340.707031 154.675781 340.5625 L 147.117188 331.164062 C 135.722656 317.191406 127.398438 300.523438 123.054688 282.953125 L 120.589844 272.980469 C 119.640625 270.472656 117.226562 268.898438 114.550781 269.0625 C 74.054688 271.566406 49.066406 260.367188 37.777344 253.472656 C 36.300781 252.570312 34.804688 252.976562 33.894531 253.65625 C 32.972656 254.34375 32.15625 255.691406 32.617188 257.402344 L 35.597656 268.453125 C 45.511719 305.179688 75.4375 329.617188 119.863281 337.273438 C 120.1875 337.328125 120.402344 337.632812 120.347656 337.957031 C 120.292969 338.277344 119.984375 338.496094 119.664062 338.4375 C 97.980469 334.703125 79.699219 327.089844 65.324219 315.808594 C 50.027344 303.804688 39.640625 287.972656 34.457031 268.761719 L 31.472656 257.707031 C 30.957031 255.800781 31.613281 253.886719 33.183594 252.707031 C 34.738281 251.542969 36.734375 251.449219 38.394531 252.464844 C 49.566406 259.285156 74.300781 270.359375 114.476562 267.882812 C 117.679688 267.683594 120.585938 269.582031 121.710938 272.597656 C 121.71875 272.621094 121.726562 272.640625 121.730469 272.664062 L 124.207031 282.667969 C 128.507812 300.070312 136.75 316.578125 148.039062 330.417969 L 155.597656 339.820312 C 155.800781 340.074219 155.761719 340.449219 155.507812 340.652344 C 155.398438 340.742188 155.265625 340.785156 155.136719 340.785156 " fill-opacity="1" fill-rule="nonzero"/><path fill="#ffffff" d="M 344.710938 260.394531 C 342.703125 256.21875 342.511719 252.007812 344.710938 247.757812 L 343.128906 245.839844 L 290.957031 247.277344 L 292.445312 261.140625 L 343.238281 261.628906 L 344.710938 260.394531 " fill-opacity="1" fill-rule="nonzero"/><path fill="#19598f" d="M 292.980469 260.554688 L 343.023438 261.035156 L 343.980469 260.234375 C 342.058594 255.980469 342.066406 251.8125 344.007812 247.835938 L 342.859375 246.441406 L 291.613281 247.851562 Z M 343.238281 262.21875 C 343.230469 262.21875 343.230469 262.21875 343.230469 262.21875 L 292.441406 261.734375 C 292.136719 261.730469 291.886719 261.503906 291.855469 261.207031 L 290.367188 247.339844 C 290.351562 247.175781 290.402344 247.011719 290.507812 246.886719 C 290.621094 246.761719 290.777344 246.6875 290.941406 246.683594 L 343.113281 245.25 C 343.296875 245.242188 343.46875 245.324219 343.589844 245.464844 L 345.164062 247.378906 C 345.320312 247.5625 345.34375 247.816406 345.234375 248.027344 C 343.207031 251.949219 343.210938 255.910156 345.242188 260.140625 C 345.359375 260.382812 345.296875 260.675781 345.089844 260.847656 L 343.617188 262.082031 C 343.507812 262.171875 343.375 262.21875 343.238281 262.21875 " fill-opacity="1" fill-rule="nonzero"/><path fill="#0c2840" d="M 256.960938 244.3125 L 346.109375 244.3125 C 347.046875 244.3125 347.804688 245.082031 347.804688 246.027344 C 347.804688 246.976562 347.046875 247.742188 346.109375 247.742188 L 300.269531 247.742188 C 297.570312 247.742188 295.382812 249.953125 295.382812 252.679688 L 295.382812 255.457031 C 295.382812 258.183594 297.570312 260.394531 300.269531 260.394531 L 346.109375 260.394531 C 347.046875 260.394531 347.804688 261.164062 347.804688 262.109375 C 347.804688 263.054688 347.046875 263.824219 346.109375 263.824219 L 256.960938 263.824219 C 251.984375 263.824219 247.949219 259.746094 247.949219 254.71875 L 247.949219 253.417969 C 247.949219 248.390625 251.984375 244.3125 256.960938 244.3125 " fill-opacity="1" fill-rule="nonzero"/><path fill="#ffffff" d="M 340.234375 284.355469 L 258.839844 284.355469 L 258.839844 265.828125 L 340.234375 265.828125 C 338.097656 271.882812 338.035156 278.460938 340.234375 284.355469 " fill-opacity="1" fill-rule="nonzero"/><path fill="#19598f" d="M 259.433594 283.761719 L 339.394531 283.761719 C 337.554688 278.273438 337.558594 272.179688 339.410156 266.421875 L 259.433594 266.421875 Z M 340.234375 284.949219 L 258.839844 284.949219 C 258.515625 284.949219 258.246094 284.679688 258.246094 284.355469 L 258.246094 265.828125 C 258.246094 265.5 258.515625 265.234375 258.839844 265.234375 L 340.234375 265.234375 C 340.425781 265.234375 340.605469 265.328125 340.714844 265.484375 C 340.828125 265.644531 340.855469 265.84375 340.792969 266.023438 C 338.671875 272.03125 338.667969 278.464844 340.789062 284.148438 C 340.855469 284.328125 340.832031 284.53125 340.722656 284.691406 C 340.609375 284.851562 340.425781 284.949219 340.234375 284.949219 " fill-opacity="1" fill-rule="nonzero"/><path fill="#caddff" d="M 332.976562 272.914062 L 271.363281 272.914062 C 271.039062 272.914062 270.773438 272.648438 270.773438 272.320312 C 270.773438 271.992188 271.039062 271.730469 271.363281 271.730469 L 332.976562 271.730469 C 333.304688 271.730469 333.570312 271.992188 333.570312 272.320312 C 333.570312 272.648438 333.304688 272.914062 332.976562 272.914062 " fill-opacity="1" fill-rule="nonzero"/><path fill="#caddff" d="M 321.988281 278.09375 L 271.363281 278.09375 C 271.035156 278.09375 270.773438 277.828125 270.773438 277.5 C 270.773438 277.171875 271.035156 276.90625 271.363281 276.90625 L 321.988281 276.90625 C 322.316406 276.90625 322.578125 277.171875 322.578125 277.5 C 322.578125 277.828125 322.316406 278.09375 321.988281 278.09375 " fill-opacity="1" fill-rule="nonzero"/><path fill="#19598f" d="M 268.152344 266.710938 L 341.328125 266.710938 C 342.097656 266.710938 342.722656 266.082031 342.722656 265.300781 C 342.722656 264.519531 342.097656 263.886719 341.328125 263.886719 L 249.042969 263.886719 C 245.652344 263.886719 242.902344 266.667969 242.902344 270.09375 L 242.902344 279.851562 C 242.902344 283.28125 245.652344 286.058594 249.042969 286.058594 L 341.328125 286.058594 C 342.097656 286.058594 342.722656 285.425781 342.722656 284.648438 C 342.722656 283.867188 342.097656 283.234375 341.328125 283.234375 L 268.152344 283.234375 C 265.753906 283.234375 263.8125 281.269531 263.8125 278.847656 L 263.8125 271.097656 C 263.8125 268.675781 265.753906 266.710938 268.152344 266.710938 " fill-opacity="1" fill-rule="nonzero"/><path fill="#caddff" d="M 301.304688 252.328125 C 300.976562 252.328125 300.714844 252.0625 300.714844 251.734375 C 300.714844 251.40625 300.976562 251.144531 301.304688 251.144531 L 338.914062 251.144531 C 339.242188 251.144531 339.507812 251.40625 339.507812 251.734375 C 339.507812 252.0625 339.242188 252.328125 338.914062 252.328125 L 301.304688 252.328125 " fill-opacity="1" fill-rule="nonzero"/><path fill="#ffffff" d="M 196.222656 18.753906 L 137.347656 18.753906 C 135.136719 18.753906 133.273438 20.417969 133.007812 22.632812 L 130.820312 40.773438 C 130.503906 43.40625 132.535156 45.722656 135.160156 45.722656 L 183.878906 45.722656 L 189.710938 56.519531 L 190.980469 45.722656 L 193.886719 45.722656 C 196.082031 45.722656 197.9375 44.078125 198.21875 41.875 L 200.558594 23.738281 C 200.898438 21.09375 198.859375 18.753906 196.222656 18.753906 " fill-opacity="1" fill-rule="nonzero"/><path fill="#000000" d="M 137.347656 19.34375 C 135.4375 19.34375 133.824219 20.789062 133.59375 22.707031 L 131.40625 40.84375 C 131.277344 41.941406 131.617188 43.042969 132.347656 43.863281 C 133.0625 44.667969 134.085938 45.132812 135.160156 45.132812 L 183.875 45.132812 C 184.09375 45.132812 184.292969 45.253906 184.398438 45.441406 L 189.339844 54.589844 L 190.390625 45.65625 C 190.429688 45.355469 190.679688 45.132812 190.980469 45.132812 L 193.886719 45.132812 C 195.777344 45.132812 197.386719 43.699219 197.632812 41.800781 L 199.96875 23.664062 C 200.109375 22.5625 199.773438 21.457031 199.046875 20.625 C 198.328125 19.8125 197.296875 19.34375 196.222656 19.34375 Z M 189.707031 57.109375 C 189.496094 57.109375 189.292969 56.992188 189.1875 56.800781 L 183.523438 46.316406 L 135.160156 46.316406 C 133.75 46.316406 132.402344 45.710938 131.460938 44.648438 C 130.507812 43.574219 130.058594 42.132812 130.230469 40.703125 L 132.417969 22.566406 C 132.722656 20.054688 134.839844 18.160156 137.347656 18.160156 L 196.222656 18.160156 C 197.640625 18.160156 198.992188 18.773438 199.933594 19.84375 C 200.886719 20.929688 201.328125 22.375 201.144531 23.816406 L 198.808594 41.953125 C 198.484375 44.441406 196.371094 46.316406 193.886719 46.316406 L 191.503906 46.316406 L 190.296875 56.589844 C 190.265625 56.84375 190.074219 57.050781 189.820312 57.097656 C 189.785156 57.105469 189.746094 57.109375 189.707031 57.109375 " fill-opacity="1" fill-rule="nonzero"/><path fill="#19598f" d="M 161.074219 30.011719 L 180.386719 30.011719 C 180.726562 30.011719 181 29.738281 181 29.398438 L 181 26.6875 C 181 26.351562 180.726562 26.078125 180.386719 26.078125 L 161.074219 26.078125 C 160.734375 26.078125 160.460938 26.351562 160.460938 26.6875 L 160.460938 29.398438 C 160.460938 29.738281 160.734375 30.011719 161.074219 30.011719 " fill-opacity="1" fill-rule="nonzero"/><path fill="#19598f" d="M 142.8125 30.011719 L 154.382812 30.011719 C 154.71875 30.011719 154.996094 29.738281 154.996094 29.398438 L 154.996094 26.6875 C 154.996094 26.351562 154.71875 26.078125 154.382812 26.078125 L 142.8125 26.078125 C 142.472656 26.078125 142.199219 26.351562 142.199219 26.6875 L 142.199219 29.398438 C 142.199219 29.738281 142.472656 30.011719 142.8125 30.011719 " fill-opacity="1" fill-rule="nonzero"/><path fill="#19598f" d="M 141.242188 38.511719 L 186.742188 38.511719 C 187.078125 38.511719 187.351562 38.238281 187.351562 37.902344 L 187.351562 35.191406 C 187.351562 34.855469 187.078125 34.578125 186.742188 34.578125 L 141.242188 34.578125 C 140.902344 34.578125 140.628906 34.855469 140.628906 35.191406 L 140.628906 37.902344 C 140.628906 38.238281 140.902344 38.511719 141.242188 38.511719 " fill-opacity="1" fill-rule="nonzero"/></svg>