<svg xmlns="http://www.w3.org/2000/svg" xmlns:xlink="http://www.w3.org/1999/xlink" width="500" zoomAndPan="magnify" viewBox="0 0 375 374.999991" height="500" preserveAspectRatio="xMidYMid meet" version="1.0"><rect x="-37.5" width="450" fill="#ffffff" y="-37.499999" height="449.999989" fill-opacity="1"/><rect x="-37.5" width="450" fill="#ffffff" y="-37.499999" height="449.999989" fill-opacity="1"/><path fill="#caddff" d="M 36.222656 84.800781 C 61.507812 42.675781 109.628906 32.375 127.777344 28.492188 C 189.542969 15.273438 280.9375 31.15625 325.03125 102.953125 C 363.734375 165.964844 342.183594 233.269531 339.0625 242.496094 C 333.824219 257.972656 320.710938 295.085938 283.53125 320.226562 C 225.65625 359.367188 137.4375 350.585938 107.246094 310.183594 C 93.066406 291.210938 104.539062 282.457031 88.027344 248.90625 C 65.910156 203.972656 38.460938 205.050781 25.671875 169.074219 C 11.234375 128.460938 33.886719 88.695312 36.222656 84.800781 " fill-opacity="1" fill-rule="nonzero"/><path fill="#99b9ff" d="M 235.320312 204.140625 L 172.023438 204.542969 C 171.613281 204.542969 171.476562 204.929688 171.476562 205.296875 L 171.476562 259.664062 C 171.476562 264.867188 135.515625 278.390625 135.164062 277.707031 L 135.121094 283.457031 C 135.117188 284.53125 136.050781 285.480469 137.238281 285.480469 L 138.03125 285.480469 C 138.035156 285.480469 138.039062 285.480469 138.046875 285.480469 L 191.117188 285.480469 C 193.582031 285.480469 196.011719 284.925781 198.242188 283.980469 L 227.421875 271.578125 C 232.675781 269.347656 235.988281 264.550781 235.988281 259.320312 L 235.988281 204.894531 C 235.988281 204.527344 235.730469 204.140625 235.320312 204.140625 " fill-opacity="1" fill-rule="nonzero"/><path fill="#ffffff" d="M 165.070312 201.375 L 165.070312 255.753906 C 165.070312 261.117188 161.652344 266 156.28125 268.3125 L 136.597656 276.792969 C 135.3125 277.347656 135.75 279.085938 137.175781 279.085938 L 191.257812 279.085938 C 193.691406 279.085938 196.089844 278.601562 198.292969 277.667969 L 220.101562 268.398438 C 225.511719 266.097656 228.960938 261.195312 228.960938 255.808594 L 228.960938 201.375 C 228.960938 201.152344 228.761719 200.972656 228.511719 200.972656 L 165.515625 200.972656 C 165.269531 200.972656 165.070312 201.152344 165.070312 201.375 " fill-opacity="1" fill-rule="nonzero"/><path fill="#000000" d="M 165.660156 201.5625 L 165.660156 255.753906 C 165.660156 261.320312 162.070312 266.460938 156.515625 268.855469 L 136.832031 277.335938 C 136.394531 277.527344 136.410156 277.851562 136.4375 277.980469 C 136.488281 278.21875 136.710938 278.496094 137.175781 278.496094 L 191.257812 278.496094 C 193.597656 278.496094 195.949219 278.019531 198.058594 277.125 L 219.871094 267.855469 C 225.035156 265.660156 228.367188 260.933594 228.367188 255.808594 L 228.367188 201.5625 Z M 191.257812 279.679688 L 137.175781 279.679688 C 136.238281 279.679688 135.457031 279.082031 135.277344 278.21875 C 135.109375 277.394531 135.542969 276.605469 136.363281 276.25 L 156.046875 267.769531 C 161.167969 265.5625 164.476562 260.847656 164.476562 255.753906 L 164.476562 201.375 C 164.476562 200.828125 164.941406 200.382812 165.515625 200.382812 L 228.511719 200.382812 C 229.085938 200.382812 229.554688 200.828125 229.554688 201.375 L 229.554688 255.808594 C 229.554688 261.40625 225.933594 266.5625 220.332031 268.941406 L 198.523438 278.210938 C 196.265625 279.171875 193.753906 279.679688 191.257812 279.679688 " fill-opacity="1" fill-rule="nonzero"/><path fill="#5479f7" d="M 47.117188 231.785156 L 319.949219 232.40625 C 322.335938 232.40625 324.71875 230.59375 325.019531 228.195312 L 346.816406 56.605469 C 347.34375 52.425781 344.140625 48.273438 340.027344 48.378906 L 70.359375 49.816406 L 47.117188 231.785156 " fill-opacity="1" fill-rule="nonzero"/><path fill="#99b9ff" d="M 329.3125 48.980469 C 334.007812 48.980469 338.242188 53.785156 337.640625 58.496094 L 316.117188 228.152344 C 315.816406 230.550781 313.277344 232.574219 310.886719 232.574219 L 42.886719 232.136719 C 40.023438 232.136719 38.113281 229.738281 38.480469 226.863281 L 60.769531 54.0625 C 61.074219 51.667969 62.644531 48.980469 65.03125 48.980469 L 329.3125 48.980469 " fill-opacity="1" fill-rule="nonzero"/><path fill="#ffffff" d="M 315.332031 24.875 C 320.027344 24.875 324.261719 29.679688 323.664062 34.390625 L 302.140625 204.042969 C 301.835938 206.441406 299.292969 208.46875 296.90625 208.46875 L 26.558594 208.027344 C 23.695312 208.027344 21.785156 205.628906 22.152344 202.753906 L 44.441406 29.953125 C 44.746094 27.558594 46.316406 24.875 48.703125 24.875 L 315.332031 24.875 " fill-opacity="1" fill-rule="nonzero"/><path fill="#000000" d="M 126.519531 25.164062 L 101.601562 25.164062 C 101.273438 25.164062 101.007812 24.898438 101.007812 24.574219 C 101.007812 24.246094 101.273438 23.980469 101.601562 23.980469 L 126.519531 23.980469 C 126.847656 23.980469 127.113281 24.246094 127.113281 24.574219 C 127.113281 24.898438 126.847656 25.164062 126.519531 25.164062 " fill-opacity="1" fill-rule="nonzero"/><path fill="#000000" d="M 59.6875 208.375 L 26.421875 208.320312 C 24.933594 208.320312 23.597656 207.734375 22.65625 206.667969 C 21.671875 205.550781 21.222656 203.988281 21.429688 202.382812 L 33.972656 105.140625 C 34.011719 104.816406 34.308594 104.589844 34.632812 104.632812 C 34.957031 104.671875 35.1875 104.96875 35.144531 105.292969 L 22.601562 202.53125 C 22.441406 203.800781 22.785156 205.023438 23.546875 205.886719 C 24.257812 206.691406 25.277344 207.136719 26.425781 207.136719 L 59.691406 207.195312 C 60.015625 207.195312 60.28125 207.460938 60.28125 207.785156 C 60.28125 208.109375 60.015625 208.375 59.6875 208.375 " fill-opacity="1" fill-rule="nonzero"/><path fill="#000000" d="M 296.773438 208.757812 L 147.308594 208.507812 C 146.980469 208.507812 146.714844 208.242188 146.71875 207.914062 C 146.71875 207.589844 146.984375 207.324219 147.308594 207.324219 C 147.308594 207.324219 147.308594 207.324219 147.3125 207.324219 L 296.773438 207.578125 C 298.945312 207.578125 301.15625 205.714844 301.417969 203.667969 L 309.136719 142.816406 C 309.179688 142.492188 309.476562 142.265625 309.800781 142.304688 C 310.121094 142.34375 310.351562 142.640625 310.3125 142.964844 L 302.59375 203.820312 C 302.257812 206.453125 299.539062 208.757812 296.773438 208.757812 " fill-opacity="1" fill-rule="nonzero"/><path fill="#000000" d="M 320.699219 57.003906 C 320.671875 57.003906 320.648438 57 320.621094 57 C 320.296875 56.957031 320.070312 56.660156 320.109375 56.335938 L 322.941406 34.015625 C 323.207031 31.933594 322.457031 29.71875 320.890625 27.941406 C 319.335938 26.175781 317.261719 25.164062 315.195312 25.164062 L 240.691406 25.164062 C 240.367188 25.164062 240.101562 24.898438 240.101562 24.574219 C 240.101562 24.246094 240.367188 23.980469 240.691406 23.980469 L 315.195312 23.980469 C 317.597656 23.980469 320 25.140625 321.777344 27.15625 C 323.570312 29.191406 324.421875 31.746094 324.117188 34.164062 L 321.285156 56.484375 C 321.246094 56.785156 320.992188 57.003906 320.699219 57.003906 " fill-opacity="1" fill-rule="nonzero"/><path fill="#ffffff" d="M 114.445312 65.550781 C 114.445312 91.742188 93.554688 112.972656 67.785156 112.972656 C 42.019531 112.972656 21.128906 91.742188 21.128906 65.550781 C 21.128906 39.359375 42.019531 18.128906 67.785156 18.128906 C 93.554688 18.128906 114.445312 39.359375 114.445312 65.550781 " fill-opacity="1" fill-rule="nonzero"/><path fill="#caddff" d="M 55.445312 21.941406 C 55.253906 22.230469 55.824219 23.191406 56.957031 23.191406 C 58.089844 23.191406 58.65625 23 59.128906 24.246094 C 59.601562 25.496094 58.941406 29.71875 59.601562 31.253906 C 60.265625 32.789062 61.398438 33.75 62.246094 32.886719 C 63.097656 32.023438 63.003906 29.71875 64.042969 29.144531 C 65.082031 28.566406 68.859375 26.265625 69.046875 24.34375 C 69.234375 22.421875 67.914062 20.984375 64.609375 20.597656 C 61.304688 20.214844 56.863281 19.832031 55.445312 21.941406 " fill-opacity="1" fill-rule="nonzero"/><path fill="#99b9ff" d="M 43.242188 64.953125 C 42.800781 65.207031 42.535156 65.6875 42.558594 66.199219 C 42.625 67.808594 42.023438 71.820312 40.761719 73.105469 C 39.15625 74.734375 39.75 77.675781 39.722656 78.863281 C 39.671875 81.273438 39.902344 82.347656 42.453125 83.5 C 45.003906 84.652344 46 84.714844 46.191406 87.019531 C 46.378906 89.324219 46.671875 98.222656 47.429688 100.527344 C 48.183594 102.832031 49.789062 106.574219 50.640625 107.4375 C 51.488281 108.300781 53.472656 108.785156 52.246094 105.519531 C 51.019531 102.257812 50.261719 100.71875 51.679688 98.894531 C 53.09375 97.070312 55.457031 92.847656 55.644531 91.214844 C 55.832031 89.582031 56.683594 88.625 57.441406 88.433594 C 58.195312 88.238281 59.800781 87.664062 60.273438 87.085938 C 60.746094 86.511719 59.800781 84.882812 59.519531 83.441406 C 59.234375 82 59.234375 81.136719 61.59375 79.984375 C 63.957031 78.832031 62.824219 75.570312 59.613281 74.707031 C 56.402344 73.839844 54.417969 72.015625 54.796875 70.191406 C 55.171875 68.367188 52.621094 68.5625 51.113281 67.695312 C 49.601562 66.832031 49.644531 65.476562 47.964844 64.828125 C 45.691406 63.957031 44.09375 64.472656 43.242188 64.953125 " fill-opacity="1" fill-rule="nonzero"/><path fill="#99b9ff" d="M 101.757812 62.941406 C 100.960938 61.730469 101.0625 59.808594 103.050781 57.179688 C 104.613281 55.113281 102.371094 53.050781 101.335938 52.257812 C 101.148438 52.113281 101.230469 51.8125 101.46875 51.785156 C 102.75 51.636719 105.722656 52.074219 107.03125 58.796875 C 108.722656 67.492188 109.417969 64.460938 110.3125 63.449219 C 111.207031 62.4375 109.53125 60.550781 111.207031 58.59375 C 112.265625 57.363281 112.800781 55.566406 113.074219 54.101562 C 109.707031 40.308594 100.40625 28.898438 88.082031 22.839844 C 88.097656 24.351562 87.738281 29.628906 81.660156 27.449219 C 81.660156 27.449219 77.878906 25.632812 78.777344 33.011719 C 79.671875 40.394531 82.753906 32.507812 83.351562 32.203125 C 83.949219 31.902344 85.539062 31.496094 84.84375 36.449219 C 84.84375 36.449219 84.746094 38.167969 81.660156 37.867188 C 78.578125 37.5625 77.980469 39.082031 77.980469 39.890625 C 77.980469 40.699219 78.277344 42.820312 76.585938 44.335938 C 74.894531 45.855469 75.394531 49.796875 77.683594 48.484375 C 79.96875 47.167969 81.5625 43.023438 83.648438 42.621094 C 85.738281 42.214844 87.628906 44.945312 89.621094 44.238281 C 91.609375 43.527344 90.714844 40.089844 91.707031 40.089844 C 92.703125 40.089844 94.792969 42.113281 94.496094 43.628906 C 94.195312 45.148438 91.113281 45.855469 91.90625 47.675781 C 92.703125 49.492188 94.394531 48.886719 94.894531 50.101562 C 95.390625 51.316406 92.40625 52.730469 90.019531 51.214844 C 87.628906 49.699219 87.234375 51.921875 86.039062 50.910156 C 84.84375 49.898438 84.746094 47.777344 83.054688 48.484375 C 81.363281 49.191406 80.367188 50.605469 78.179688 51.617188 C 75.988281 52.628906 74.199219 53.941406 74.199219 55.359375 C 74.199219 56.773438 74.996094 58.292969 74.597656 60.515625 C 74.199219 62.742188 73.503906 68.808594 80.664062 67.59375 C 87.828125 66.378906 86.933594 70.121094 86.933594 70.527344 C 86.933594 70.929688 86.835938 76.191406 87.53125 77.097656 C 88.226562 78.007812 89.820312 80.636719 87.53125 84.078125 C 85.242188 87.511719 86.136719 95.199219 88.226562 94.1875 C 90.316406 93.175781 92.40625 89.234375 94.992188 87.210938 C 97.578125 85.1875 101.160156 76.390625 99.667969 73.660156 C 98.175781 70.929688 101.757812 68.707031 102.253906 66.886719 C 102.753906 65.066406 102.554688 64.15625 101.757812 62.941406 " fill-opacity="1" fill-rule="nonzero"/><path fill="#99b9ff" d="M 34.101562 32.738281 C 34.136719 34.421875 33.84375 36.257812 32.875 37.972656 C 29.945312 43.15625 30.039062 45.75 29.757812 50.933594 C 29.472656 56.117188 35.917969 65.253906 37.523438 66.214844 C 39.128906 67.175781 39.375 64.890625 39.375 63.070312 C 39.375 61.246094 38.691406 59.054688 37.746094 56.945312 C 36.800781 54.832031 36.800781 53.488281 37.085938 52.625 C 37.367188 51.761719 38.503906 51.472656 39.257812 52.335938 C 40.015625 53.199219 41.828125 53.964844 42.703125 53.425781 C 43.773438 52.765625 43.359375 50.167969 43.734375 49.300781 C 44.113281 48.4375 46.191406 47.859375 47.042969 46.039062 C 47.890625 44.214844 49.308594 43.445312 51.007812 42.582031 C 52.707031 41.71875 54.21875 41.335938 54.503906 40.757812 C 54.785156 40.179688 54.40625 38.839844 54.878906 37.304688 C 55.351562 35.765625 56.484375 33.941406 56.015625 33.175781 C 55.542969 32.40625 54.125 31.15625 51.480469 33.078125 C 48.835938 34.996094 48.175781 34.996094 47.417969 33.558594 C 46.664062 32.117188 48.269531 28.375 51.574219 28.375 C 54.878906 28.375 55.542969 27.222656 55.636719 26.359375 C 55.730469 25.492188 54.691406 24.535156 53.558594 24.34375 C 52.425781 24.152344 52.234375 24.824219 47.511719 26.742188 C 44.363281 28.023438 41.589844 27.722656 40.09375 27.382812 C 37.949219 28.992188 35.941406 30.785156 34.101562 32.738281 " fill-opacity="1" fill-rule="nonzero"/><path fill="#99b9ff" d="M 106.214844 87.148438 C 106.136719 89.296875 104.179688 91.367188 103.003906 92.085938 C 101.828125 92.800781 100.027344 93.914062 100.027344 95.746094 C 100.027344 96.925781 99.996094 98.429688 100.265625 99.589844 C 106.484375 93.460938 107.714844 92.277344 111.273438 83.03125 C 111.089844 81.855469 106.292969 85 106.214844 87.148438 " fill-opacity="1" fill-rule="nonzero"/><path fill="#000000" d="M 67.785156 18.71875 C 42.386719 18.71875 21.71875 39.726562 21.71875 65.546875 C 21.71875 91.371094 42.386719 112.382812 67.785156 112.382812 C 93.1875 112.382812 113.855469 91.371094 113.855469 65.546875 C 113.855469 39.726562 93.1875 18.71875 67.785156 18.71875 Z M 67.785156 113.5625 C 41.734375 113.5625 20.535156 92.023438 20.535156 65.546875 C 20.535156 39.074219 41.734375 17.535156 67.785156 17.535156 C 93.839844 17.535156 115.039062 39.074219 115.039062 65.546875 C 115.039062 92.023438 93.839844 113.5625 67.785156 113.5625 " fill-opacity="1" fill-rule="nonzero"/><path fill="#caddff" d="M 70 131.894531 L 45.347656 131.894531 C 43.597656 131.894531 42.179688 130.472656 42.179688 128.722656 L 42.179688 128.691406 C 42.179688 126.941406 43.597656 125.523438 45.347656 125.523438 L 70 125.523438 C 71.753906 125.523438 73.171875 126.941406 73.171875 128.691406 L 73.171875 128.722656 C 73.171875 130.472656 71.753906 131.894531 70 131.894531 " fill-opacity="1" fill-rule="nonzero"/><path fill="#caddff" d="M 58.683594 145.359375 L 43.734375 145.359375 C 41.980469 145.359375 40.5625 143.941406 40.5625 142.191406 L 40.5625 142.160156 C 40.5625 140.410156 41.980469 138.992188 43.734375 138.992188 L 58.683594 138.992188 C 60.433594 138.992188 61.851562 140.410156 61.851562 142.160156 L 61.851562 142.191406 C 61.851562 143.941406 60.433594 145.359375 58.683594 145.359375 " fill-opacity="1" fill-rule="nonzero"/><path fill="#caddff" d="M 86.171875 158.828125 L 42.117188 158.828125 C 40.363281 158.828125 38.945312 157.410156 38.945312 155.660156 L 38.945312 155.628906 C 38.945312 153.878906 40.363281 152.460938 42.117188 152.460938 L 86.171875 152.460938 C 87.921875 152.460938 89.34375 153.878906 89.34375 155.628906 L 89.34375 155.660156 C 89.34375 157.410156 87.921875 158.828125 86.171875 158.828125 " fill-opacity="1" fill-rule="nonzero"/><path fill="#caddff" d="M 97.894531 172.296875 L 40.5 172.296875 C 38.746094 172.296875 37.328125 170.878906 37.328125 169.128906 L 37.328125 169.09375 C 37.328125 167.34375 38.746094 165.925781 40.5 165.925781 L 97.894531 165.925781 C 99.644531 165.925781 101.066406 167.34375 101.066406 169.09375 L 101.066406 169.128906 C 101.066406 170.878906 99.644531 172.296875 97.894531 172.296875 " fill-opacity="1" fill-rule="nonzero"/><path fill="#000000" d="M 223.574219 48.707031 C 221.097656 47.347656 216.746094 46.742188 211.917969 42.160156 C 209.566406 39.925781 206.167969 36.699219 205.941406 31.863281 C 205.675781 26.214844 209.835938 20.152344 215.507812 18.863281 C 230.660156 15.414062 236.800781 26.160156 240.835938 33.039062 C 243.558594 37.675781 248.066406 43.273438 251.574219 45.101562 C 259.734375 49.359375 267.136719 38.59375 275.546875 41.761719 C 282.785156 44.492188 280.324219 53.613281 288.273438 58.523438 C 297.402344 64.167969 304.910156 54.773438 315.847656 59.445312 C 325.890625 63.738281 332.8125 77.324219 330.261719 86.457031 C 328.492188 92.78125 323.53125 92.125 319.1875 99.5625 C 312.429688 111.148438 320.222656 120.039062 315.792969 130.105469 C 309.867188 143.597656 287.378906 146.96875 273.226562 145.375 C 270.601562 145.078125 243.210938 141.582031 231.941406 119.839844 C 218.265625 93.457031 236.367188 55.746094 223.574219 48.707031 " fill-opacity="1" fill-rule="nonzero"/><path fill="#000000" d="M 209.152344 208.097656 L 280.894531 208.097656 C 278.625 187.199219 274.847656 169.332031 268.703125 158.878906 L 225.667969 161.441406 C 225.667969 161.441406 226.078125 162.726562 226.808594 165.109375 L 215.0625 166.039062 C 215.0625 166.039062 212.058594 186.410156 209.152344 208.097656 " fill-opacity="1" fill-rule="nonzero"/><path fill="#ffffff" d="M 209.457031 167.902344 C 209.457031 167.902344 208.199219 191.863281 212.753906 195.984375 C 212.753906 195.984375 224.90625 179.15625 224.539062 167.902344 L 209.457031 167.902344 " fill-opacity="1" fill-rule="nonzero"/><path fill="#000000" d="M 210.019531 168.496094 C 209.714844 175.15625 209.6875 190.882812 212.699219 195.03125 C 214.792969 191.992188 223.898438 178.210938 223.953125 168.496094 Z M 212.753906 196.574219 C 212.609375 196.574219 212.46875 196.523438 212.359375 196.421875 C 207.652344 192.160156 208.816406 168.863281 208.867188 167.871094 C 208.882812 167.558594 209.144531 167.3125 209.457031 167.3125 L 224.539062 167.3125 C 224.859375 167.3125 225.121094 167.566406 225.128906 167.882812 C 225.5 179.210938 213.738281 195.636719 213.238281 196.332031 C 213.136719 196.46875 212.988281 196.554688 212.816406 196.574219 C 212.796875 196.574219 212.777344 196.574219 212.753906 196.574219 " fill-opacity="1" fill-rule="nonzero"/><path fill="#ffffff" d="M 228.273438 166.292969 C 228.273438 166.292969 234.21875 184.941406 239.652344 189.199219 C 245.089844 193.460938 256.84375 170.859375 264.414062 169.65625 C 271.984375 168.449219 282.09375 186.796875 282.09375 186.796875 C 282.09375 186.796875 277.808594 163.0625 271.085938 158.609375 L 228.273438 166.292969 " fill-opacity="1" fill-rule="nonzero"/><path fill="#000000" d="M 229.050781 166.753906 C 230.148438 170.054688 235.347656 185.074219 240.019531 188.734375 C 242.519531 190.691406 247.300781 185.140625 251.925781 179.769531 C 256.207031 174.796875 260.636719 169.65625 264.320312 169.070312 C 270.316406 168.117188 277.515625 178.234375 280.8125 183.488281 C 279.371094 176.890625 275.785156 162.742188 270.949219 159.234375 Z M 241.175781 190.332031 C 240.507812 190.332031 239.875 190.125 239.289062 189.667969 C 233.773438 185.34375 227.957031 167.238281 227.710938 166.472656 C 227.660156 166.308594 227.679688 166.132812 227.769531 165.988281 C 227.859375 165.84375 228.003906 165.738281 228.171875 165.710938 L 270.980469 158.027344 C 271.132812 158 271.285156 158.03125 271.414062 158.117188 C 278.269531 162.660156 282.5 185.714844 282.679688 186.691406 C 282.730469 186.976562 282.566406 187.257812 282.292969 187.355469 C 282.015625 187.453125 281.714844 187.335938 281.578125 187.085938 C 281.476562 186.902344 271.582031 169.105469 264.507812 170.238281 C 261.25 170.757812 256.964844 175.730469 252.820312 180.542969 C 248.507812 185.554688 244.390625 190.332031 241.175781 190.332031 " fill-opacity="1" fill-rule="nonzero"/><path fill="#ffffff" d="M 152.359375 60.820312 L 142.621094 51.371094 C 142.621094 51.371094 139.902344 53.53125 144.0625 58.609375 C 142.929688 58.648438 141.746094 58.722656 139.847656 58.859375 C 138.320312 58.964844 136.800781 58.566406 135.640625 57.523438 C 134.289062 56.316406 132.605469 54.84375 131.980469 54.445312 C 130.871094 53.742188 129.425781 52.625 127.9375 52.644531 C 126.441406 52.664062 124.964844 53.855469 124.964844 53.855469 L 130.199219 60.785156 C 132.355469 63.636719 135.324219 65.691406 138.675781 66.65625 L 144.023438 68.191406 C 147.074219 69.070312 149.316406 71.78125 149.695312 75.0625 L 152.296875 97.597656 L 163.644531 86.636719 C 163.644531 86.636719 156.667969 66.851562 152.359375 60.820312 " fill-opacity="1" fill-rule="nonzero"/><path fill="#000000" d="M 125.804688 53.988281 L 130.671875 60.429688 C 132.765625 63.195312 135.589844 65.152344 138.839844 66.085938 L 144.1875 67.621094 C 147.480469 68.570312 149.875 71.460938 150.28125 74.996094 L 152.75 96.339844 L 162.960938 86.476562 C 161.996094 83.785156 155.808594 66.707031 151.90625 61.207031 L 142.667969 52.238281 C 142.226562 53.003906 141.769531 54.875 144.523438 58.230469 C 144.667969 58.40625 144.699219 58.644531 144.605469 58.851562 C 144.511719 59.054688 144.3125 59.191406 144.085938 59.199219 C 142.96875 59.238281 141.796875 59.3125 139.890625 59.449219 C 138.101562 59.574219 136.453125 59.046875 135.246094 57.964844 C 132.753906 55.734375 131.929688 55.117188 131.664062 54.945312 C 131.503906 54.84375 131.34375 54.734375 131.171875 54.625 C 130.226562 54 129.050781 53.210938 127.945312 53.234375 C 127.179688 53.246094 126.347656 53.652344 125.804688 53.988281 Z M 152.300781 98.1875 C 152.230469 98.1875 152.164062 98.175781 152.097656 98.152344 C 151.886719 98.078125 151.734375 97.886719 151.710938 97.664062 L 149.105469 75.128906 C 148.753906 72.074219 146.695312 69.574219 143.859375 68.757812 L 138.515625 67.222656 C 135.011719 66.214844 131.976562 64.113281 129.726562 61.140625 L 124.492188 54.210938 C 124.296875 53.957031 124.34375 53.59375 124.59375 53.394531 C 124.660156 53.339844 126.25 52.074219 127.929688 52.050781 C 129.394531 52.023438 130.742188 52.921875 131.824219 53.636719 C 131.988281 53.746094 132.148438 53.851562 132.296875 53.945312 C 132.828125 54.285156 134.085938 55.339844 136.035156 57.082031 C 137.003906 57.949219 138.34375 58.371094 139.804688 58.269531 C 141.105469 58.175781 142.066406 58.113281 142.90625 58.066406 C 141.605469 56.242188 141.027344 54.582031 141.179688 53.121094 C 141.335938 51.671875 142.160156 50.980469 142.253906 50.90625 C 142.484375 50.71875 142.820312 50.738281 143.03125 50.945312 L 152.769531 60.394531 C 152.796875 60.417969 152.820312 60.445312 152.839844 60.476562 C 157.152344 66.503906 163.917969 85.628906 164.203125 86.441406 C 164.28125 86.660156 164.222656 86.902344 164.058594 87.0625 L 152.710938 98.023438 C 152.597656 98.128906 152.449219 98.1875 152.300781 98.1875 " fill-opacity="1" fill-rule="nonzero"/><path fill="#ffffff" d="M 165.597656 80.472656 L 137.375 108.707031 L 152.300781 122.085938 L 176.140625 97.039062 L 165.597656 80.472656 " fill-opacity="1" fill-rule="nonzero"/><path fill="#000000" d="M 138.234375 108.6875 L 152.265625 121.265625 L 175.394531 96.96875 L 165.492188 81.414062 Z M 152.296875 122.675781 C 152.15625 122.675781 152.015625 122.628906 151.902344 122.527344 L 136.980469 109.152344 C 136.859375 109.039062 136.785156 108.886719 136.78125 108.726562 C 136.777344 108.5625 136.839844 108.40625 136.953125 108.292969 L 165.179688 80.058594 C 165.304688 79.929688 165.480469 79.867188 165.660156 79.886719 C 165.839844 79.90625 166 80.007812 166.097656 80.15625 L 176.640625 96.722656 C 176.785156 96.953125 176.757812 97.25 176.566406 97.449219 L 152.726562 122.492188 C 152.613281 122.617188 152.453125 122.675781 152.296875 122.675781 " fill-opacity="1" fill-rule="nonzero"/><path fill="#5479f7" d="M 141.578125 120.898438 L 174.058594 89.238281 C 174.058594 89.238281 176.582031 95.449219 182.8125 94.265625 C 189.941406 92.910156 196.605469 81.957031 201.0625 77.199219 C 202.351562 75.820312 204.640625 76.472656 205.023438 78.328125 L 208.308594 116.019531 C 208.308594 116.019531 188.085938 152.21875 141.578125 120.898438 " fill-opacity="1" fill-rule="nonzero"/><path fill="#5479f7" d="M 200.414062 77.847656 C 200.414062 77.847656 214.824219 58.433594 251.882812 72.234375 C 251.882812 72.234375 253.921875 98.066406 261.613281 118.820312 C 269.304688 139.570312 278.648438 152.320312 277.257812 166.183594 C 273.140625 164.234375 268.578125 163.527344 264.09375 164.152344 L 210.34375 171.613281 C 206.757812 172.113281 203.386719 169.65625 202.644531 165.957031 C 201.605469 160.785156 200.839844 151.527344 201.359375 135.070312 C 202.257812 106.757812 193.214844 93.910156 200.414062 77.847656 " fill-opacity="1" fill-rule="nonzero"/><path fill="#ffffff" d="M 273.757812 127.757812 L 264.886719 144.5 L 260.105469 141.761719 C 257.367188 140.195312 254.703125 139.085938 251.148438 140.679688 C 251.148438 140.679688 239.070312 147.574219 237.792969 149.371094 C 236.765625 150.8125 237.53125 152.875 239.21875 153.222656 C 239.21875 153.222656 241.300781 154.425781 251.164062 151.320312 C 254.703125 150.210938 265.292969 154.191406 268.894531 152.863281 C 272.492188 151.535156 283.570312 133.957031 283.570312 133.957031 L 273.757812 127.757812 " fill-opacity="1" fill-rule="nonzero"/><path fill="#000000" d="M 239.511719 152.710938 C 239.515625 152.710938 241.773438 153.65625 250.984375 150.757812 C 252.847656 150.175781 256.226562 150.832031 259.800781 151.53125 C 263.339844 152.222656 266.992188 152.9375 268.6875 152.308594 C 271.394531 151.308594 279.464844 139.308594 282.753906 134.140625 L 273.980469 128.597656 L 265.410156 144.773438 C 265.332031 144.917969 265.207031 145.023438 265.050781 145.066406 C 264.894531 145.113281 264.730469 145.089844 264.589844 145.011719 L 259.8125 142.273438 C 257.324219 140.851562 254.808594 139.699219 251.414062 141.207031 C 246.605469 143.953125 239.152344 148.476562 238.273438 149.710938 C 237.894531 150.242188 237.816406 150.925781 238.054688 151.539062 C 238.285156 152.121094 238.753906 152.523438 239.335938 152.644531 C 239.398438 152.65625 239.460938 152.679688 239.511719 152.710938 Z M 240.882812 154.039062 C 239.789062 154.039062 239.25 153.878906 239.027344 153.789062 C 238.09375 153.570312 237.320312 152.894531 236.957031 151.972656 C 236.566406 150.984375 236.699219 149.882812 237.308594 149.03125 C 238.621094 147.175781 249.609375 140.878906 250.855469 140.164062 C 250.871094 140.15625 250.886719 140.148438 250.90625 140.140625 C 254.820312 138.386719 257.738281 139.726562 260.398438 141.246094 L 264.648438 143.679688 L 273.234375 127.476562 C 273.3125 127.332031 273.449219 127.226562 273.605469 127.183594 C 273.765625 127.140625 273.933594 127.167969 274.074219 127.257812 L 283.886719 133.460938 C 284.160156 133.632812 284.246094 133.996094 284.070312 134.273438 C 282.925781 136.089844 272.78125 152.058594 269.097656 153.417969 C 267.09375 154.160156 263.441406 153.445312 259.578125 152.691406 C 256.300781 152.050781 252.914062 151.390625 251.339844 151.886719 C 245.800781 153.628906 242.632812 154.039062 240.882812 154.039062 " fill-opacity="1" fill-rule="nonzero"/><path fill="#ffffff" d="M 273.757812 115.59375 L 269.246094 127.269531 L 295.265625 145.0625 C 295.265625 145.0625 300.65625 129.609375 300.9375 123.378906 L 273.757812 115.59375 " fill-opacity="1" fill-rule="nonzero"/><path fill="#000000" d="M 269.964844 127.046875 L 294.957031 144.140625 C 295.992188 141.089844 299.878906 129.347656 300.316406 123.820312 L 274.113281 116.3125 Z M 295.265625 145.65625 C 295.148438 145.65625 295.03125 145.621094 294.929688 145.554688 L 268.910156 127.757812 C 268.683594 127.605469 268.59375 127.3125 268.691406 127.058594 L 273.203125 115.382812 C 273.3125 115.097656 273.625 114.941406 273.917969 115.027344 L 301.097656 122.8125 C 301.363281 122.890625 301.539062 123.136719 301.527344 123.410156 C 301.246094 129.652344 296.046875 144.625 295.824219 145.257812 C 295.765625 145.433594 295.625 145.570312 295.449219 145.628906 C 295.390625 145.648438 295.328125 145.65625 295.265625 145.65625 " fill-opacity="1" fill-rule="nonzero"/><path fill="#5479f7" d="M 246.367188 96.566406 L 265.898438 107.183594 C 269.519531 108.769531 271.402344 112.96875 270.246094 116.886719 L 269.867188 118.171875 L 304.09375 131.449219 C 304.09375 131.449219 308.851562 114.699219 301.027344 99.640625 C 293.203125 84.585938 249.480469 71.546875 249.480469 71.546875 L 246.367188 96.566406 " fill-opacity="1" fill-rule="nonzero"/><path fill="#ffffff" d="M 218.175781 51.371094 L 221.910156 68.730469 L 211.332031 72.664062 C 211.332031 72.664062 225.441406 81.5 246.023438 73.53125 L 235.199219 67.496094 L 227.984375 46.300781 L 218.175781 51.371094 " fill-opacity="1" fill-rule="nonzero"/><path fill="#000000" d="M 212.769531 72.757812 C 216.382812 74.527344 228.421875 79.25 244.617188 73.417969 L 234.910156 68.011719 C 234.785156 67.941406 234.6875 67.824219 234.640625 67.6875 L 227.644531 47.140625 L 218.847656 51.683594 L 222.492188 68.605469 C 222.550781 68.890625 222.394531 69.179688 222.117188 69.285156 Z M 229.015625 77.421875 C 218.003906 77.421875 211.117188 73.222656 211.019531 73.164062 C 210.824219 73.042969 210.722656 72.824219 210.742188 72.601562 C 210.765625 72.375 210.914062 72.183594 211.125 72.105469 L 221.226562 68.351562 L 217.597656 51.492188 C 217.539062 51.230469 217.667969 50.964844 217.90625 50.84375 L 227.714844 45.777344 C 227.867188 45.695312 228.046875 45.6875 228.207031 45.75 C 228.367188 45.816406 228.488281 45.949219 228.542969 46.109375 L 235.6875 67.089844 L 246.3125 73.011719 C 246.511719 73.121094 246.632812 73.339844 246.617188 73.566406 C 246.597656 73.796875 246.453125 73.996094 246.238281 74.078125 C 239.816406 76.5625 233.996094 77.421875 229.015625 77.421875 " fill-opacity="1" fill-rule="nonzero"/><path fill="#ffffff" d="M 228.679688 51.367188 C 228.679688 51.367188 232.707031 52.515625 233.414062 48.886719 C 234.121094 45.261719 230.789062 45.8125 230.789062 45.8125 C 230.789062 45.8125 233.65625 37.730469 228.039062 37.523438 C 222.421875 37.316406 218.175781 35.574219 218.175781 35.574219 C 218.175781 35.574219 214.808594 43.34375 214.074219 49.652344 C 213.625 53.457031 214.136719 56.730469 216.921875 57.449219 C 224.546875 59.40625 228.679688 51.367188 228.679688 51.367188 " fill-opacity="1" fill-rule="nonzero"/><path fill="#000000" d="M 218.5 36.328125 C 217.75 38.164062 215.265625 44.5 214.660156 49.726562 C 214.164062 53.933594 214.976562 56.339844 217.070312 56.878906 C 224.152344 58.699219 228.109375 51.175781 228.148438 51.097656 C 228.277344 50.847656 228.566406 50.722656 228.839844 50.800781 C 228.855469 50.804688 230.554688 51.269531 231.730469 50.542969 C 232.308594 50.1875 232.667969 49.613281 232.828125 48.777344 C 233.007812 47.851562 232.914062 47.191406 232.546875 46.8125 C 231.984375 46.234375 230.894531 46.394531 230.882812 46.398438 C 230.675781 46.429688 230.46875 46.355469 230.332031 46.195312 C 230.199219 46.03125 230.15625 45.8125 230.226562 45.617188 C 230.246094 45.574219 231.738281 41.28125 230.324219 39.207031 C 229.851562 38.511719 229.097656 38.15625 228.019531 38.117188 C 223.46875 37.949219 219.839844 36.808594 218.5 36.328125 Z M 219.265625 58.347656 C 218.480469 58.347656 217.648438 58.25 216.773438 58.023438 C 214.019531 57.3125 212.910156 54.476562 213.480469 49.585938 C 214.21875 43.261719 217.492188 35.660156 217.628906 35.339844 C 217.761719 35.042969 218.101562 34.90625 218.402344 35.027344 C 218.441406 35.042969 222.625 36.734375 228.0625 36.933594 C 229.523438 36.988281 230.621094 37.53125 231.308594 38.542969 C 232.640625 40.507812 232 43.71875 231.589844 45.207031 C 232.148438 45.257812 232.863281 45.441406 233.394531 45.988281 C 234.050781 46.660156 234.25 47.671875 233.992188 49.003906 C 233.765625 50.164062 233.210938 51.023438 232.347656 51.554688 C 231.15625 52.285156 229.703125 52.164062 228.976562 52.039062 C 228.101562 53.480469 224.753906 58.347656 219.265625 58.347656 " fill-opacity="1" fill-rule="nonzero"/><path fill="#000000" d="M 201.179688 122.667969 C 200.859375 122.667969 200.597656 122.414062 200.585938 122.09375 L 199.835938 98.960938 C 199.824219 98.632812 200.078125 98.363281 200.40625 98.351562 C 200.726562 98.335938 201.007812 98.597656 201.019531 98.921875 L 201.773438 122.054688 C 201.78125 122.378906 201.527344 122.65625 201.199219 122.664062 C 201.191406 122.664062 201.1875 122.667969 201.179688 122.667969 " fill-opacity="1" fill-rule="nonzero"/><path fill="#ffffff" d="M 276.917969 325.183594 C 276.917969 325.183594 278.113281 325.1875 279.257812 324.367188 C 282.796875 321.832031 290.160156 316.171875 295.1875 316.878906 C 303.609375 318.0625 304.609375 325.007812 304.609375 325.007812 C 304.609375 325.007812 311.710938 324.742188 311.570312 329.511719 C 311.464844 333.175781 309.398438 337.828125 303.652344 340.390625 C 295.824219 343.878906 287.976562 346.539062 279.3125 340.8125 C 277.632812 339.699219 275.632812 339.179688 273.636719 339.382812 C 268.769531 339.878906 196.234375 341.453125 196.234375 341.453125 C 179.644531 341.453125 164.421875 332.160156 156.71875 317.324219 L 141.425781 287.886719 L 158.945312 238.476562 L 186.410156 302.890625 C 199.71875 321.226562 275.53125 325.503906 276.917969 325.183594 " fill-opacity="1" fill-rule="nonzero"/><path fill="#000000" d="M 274.484375 338.75 C 276.289062 338.75 278.089844 339.289062 279.640625 340.316406 C 288.089844 345.90625 295.707031 343.285156 303.414062 339.847656 C 310.242188 336.804688 310.933594 331.152344 310.980469 329.496094 C 311.007812 328.558594 310.726562 327.808594 310.117188 327.203125 C 308.375 325.480469 304.671875 325.59375 304.632812 325.597656 C 304.328125 325.601562 304.066406 325.390625 304.023438 325.089844 C 303.984375 324.828125 302.96875 318.570312 295.105469 317.464844 C 290.679688 316.84375 284.011719 321.664062 280.429688 324.253906 C 280.136719 324.464844 279.859375 324.664062 279.601562 324.851562 C 278.316406 325.769531 276.96875 325.777344 276.914062 325.773438 C 275 325.867188 256.09375 324.820312 236.042969 321.617188 C 217.066406 318.585938 192.972656 312.9375 185.933594 303.238281 C 185.90625 303.203125 185.882812 303.164062 185.867188 303.125 L 158.996094 240.105469 L 142.074219 287.839844 L 157.242188 317.050781 C 164.871094 331.738281 179.8125 340.863281 196.238281 340.863281 C 196.949219 340.847656 268.789062 339.28125 273.578125 338.792969 C 273.878906 338.761719 274.179688 338.75 274.484375 338.75 Z M 289.890625 344.722656 C 286.367188 344.722656 282.738281 343.785156 278.988281 341.304688 C 277.40625 340.257812 275.527344 339.785156 273.695312 339.96875 C 268.863281 340.460938 199.210938 341.980469 196.25 342.042969 C 179.371094 342.046875 164.023438 332.675781 156.191406 317.597656 L 140.902344 288.15625 C 140.828125 288.011719 140.816406 287.84375 140.871094 287.6875 L 158.386719 238.277344 C 158.46875 238.050781 158.683594 237.890625 158.925781 237.882812 C 159.164062 237.878906 159.394531 238.019531 159.492188 238.242188 L 186.929688 302.597656 C 192.332031 309.957031 209.246094 316.105469 235.859375 320.390625 C 257 323.792969 275.898438 324.710938 276.816406 324.601562 C 276.863281 324.589844 276.871094 324.589844 276.917969 324.589844 C 276.949219 324.589844 277.960938 324.570312 278.914062 323.886719 C 279.167969 323.707031 279.441406 323.507812 279.734375 323.292969 C 283.710938 320.417969 290.371094 315.601562 295.269531 316.292969 C 302.675781 317.332031 304.644531 322.722656 305.085938 324.414062 C 306.269531 324.441406 309.253906 324.683594 310.949219 326.363281 C 311.792969 327.199219 312.203125 328.265625 312.164062 329.527344 C 312.109375 331.363281 311.355469 337.601562 303.898438 340.929688 C 299.425781 342.921875 294.761719 344.722656 289.890625 344.722656 " fill-opacity="1" fill-rule="nonzero"/><path fill="#ffffff" d="M 257.859375 311.941406 L 264.871094 299.546875 L 270.632812 303.316406 C 270.949219 303.523438 271.214844 303.804688 271.402344 304.136719 L 271.75 304.734375 C 272.183594 305.488281 272.984375 305.953125 273.835938 305.941406 C 274.300781 305.9375 274.757812 306.070312 275.152344 306.328125 L 317.972656 334.324219 C 318.324219 334.558594 318.648438 334.835938 318.929688 335.148438 L 327.582031 344.835938 L 315.539062 342.085938 C 314.882812 341.9375 314.246094 341.699219 313.648438 341.382812 L 268.582031 317.601562 C 268.195312 317.398438 267.875 317.089844 267.644531 316.71875 L 267.585938 316.625 C 267.152344 315.90625 266.375 315.464844 265.550781 315.46875 L 265.132812 315.472656 C 264.753906 315.472656 264.375 315.378906 264.03125 315.199219 L 257.859375 311.941406 " fill-opacity="1" fill-rule="nonzero"/><path fill="#000000" d="M 265.5625 314.878906 C 266.585938 314.878906 267.554688 315.429688 268.097656 316.316406 L 268.152344 316.410156 C 268.328125 316.691406 268.570312 316.921875 268.859375 317.078125 L 313.925781 340.859375 C 314.480469 341.152344 315.066406 341.371094 315.671875 341.507812 L 325.90625 343.84375 L 318.488281 335.542969 C 318.242188 335.265625 317.960938 335.023438 317.652344 334.820312 L 274.828125 306.820312 C 274.53125 306.628906 274.195312 306.519531 273.84375 306.53125 C 272.78125 306.527344 271.777344 305.96875 271.234375 305.027344 L 270.894531 304.429688 C 270.75 304.183594 270.546875 303.96875 270.308594 303.8125 L 265.078125 300.386719 L 258.675781 311.703125 L 264.3125 314.675781 C 264.566406 314.808594 264.855469 314.871094 265.132812 314.878906 L 265.550781 314.878906 C 265.554688 314.878906 265.554688 314.878906 265.5625 314.878906 Z M 327.585938 345.425781 C 327.542969 345.425781 327.496094 345.417969 327.453125 345.410156 L 315.410156 342.664062 C 314.703125 342.5 314.019531 342.25 313.371094 341.90625 L 268.304688 318.121094 C 267.828125 317.871094 267.425781 317.492188 267.140625 317.023438 L 267.082031 316.933594 C 266.757812 316.394531 266.171875 316.058594 265.5625 316.058594 C 265.558594 316.058594 265.554688 316.058594 265.554688 316.058594 L 265.136719 316.0625 C 265.132812 316.0625 265.132812 316.0625 265.125 316.0625 C 264.652344 316.0625 264.179688 315.945312 263.757812 315.722656 L 257.582031 312.460938 C 257.441406 312.390625 257.335938 312.261719 257.292969 312.105469 C 257.25 311.953125 257.265625 311.789062 257.34375 311.648438 L 264.359375 299.253906 C 264.441406 299.109375 264.574219 299.007812 264.734375 298.96875 C 264.894531 298.933594 265.0625 298.960938 265.199219 299.050781 L 270.957031 302.820312 C 271.351562 303.082031 271.683594 303.433594 271.921875 303.839844 L 272.265625 304.4375 C 272.589844 305.007812 273.195312 305.359375 273.832031 305.347656 C 274.414062 305.335938 274.984375 305.507812 275.476562 305.832031 L 318.300781 333.832031 C 318.695312 334.089844 319.054688 334.398438 319.375 334.753906 L 328.027344 344.4375 C 328.199219 344.632812 328.226562 344.914062 328.09375 345.132812 C 327.988281 345.316406 327.789062 345.425781 327.585938 345.425781 " fill-opacity="1" fill-rule="nonzero"/><path fill="#000000" d="M 315.808594 340.390625 C 315.714844 340.390625 315.625 340.367188 315.539062 340.324219 C 315.25 340.175781 315.132812 339.820312 315.28125 339.53125 L 317.851562 334.5 C 318 334.207031 318.355469 334.09375 318.648438 334.242188 C 318.941406 334.390625 319.054688 334.746094 318.90625 335.039062 L 316.335938 340.066406 C 316.230469 340.273438 316.019531 340.390625 315.808594 340.390625 " fill-opacity="1" fill-rule="nonzero"/><path fill="#5479f7" d="M 254.902344 293.40625 L 265.105469 299.632812 L 257.90625 312.007812 L 247.699219 305.785156 C 245.832031 304.640625 245.191406 302.214844 246.269531 300.359375 L 249.5625 294.699219 C 250.640625 292.84375 253.03125 292.265625 254.902344 293.40625 " fill-opacity="1" fill-rule="nonzero"/><path fill="#000000" d="M 252.84375 293.414062 C 252.574219 293.414062 252.304688 293.445312 252.042969 293.511719 C 251.207031 293.726562 250.507812 294.25 250.070312 294.996094 L 246.78125 300.65625 C 245.863281 302.230469 246.414062 304.304688 248.007812 305.277344 L 257.699219 311.1875 L 264.300781 299.835938 L 254.589844 293.914062 C 254.050781 293.582031 253.449219 293.414062 252.84375 293.414062 Z M 257.90625 312.601562 C 257.796875 312.601562 257.691406 312.570312 257.597656 312.515625 L 247.390625 306.289062 C 245.25 304.980469 244.519531 302.1875 245.753906 300.0625 L 249.046875 294.402344 C 249.644531 293.378906 250.601562 292.65625 251.75 292.367188 C 252.925781 292.066406 254.152344 292.257812 255.207031 292.902344 L 265.410156 299.128906 C 265.6875 299.296875 265.777344 299.652344 265.617188 299.929688 L 258.417969 312.308594 C 258.335938 312.445312 258.203125 312.542969 258.050781 312.582031 C 258 312.59375 257.953125 312.601562 257.90625 312.601562 " fill-opacity="1" fill-rule="nonzero"/><path fill="#000000" d="M 267.953125 314.296875 C 267.847656 314.296875 267.746094 314.269531 267.652344 314.210938 C 267.367188 314.046875 267.277344 313.679688 267.445312 313.402344 L 270.917969 307.578125 C 271.085938 307.296875 271.449219 307.207031 271.730469 307.375 C 272.007812 307.539062 272.101562 307.902344 271.933594 308.183594 L 268.460938 314.007812 C 268.351562 314.191406 268.15625 314.296875 267.953125 314.296875 " fill-opacity="1" fill-rule="nonzero"/><path fill="#000000" d="M 288.445312 319.21875 C 288.339844 319.21875 288.226562 319.1875 288.128906 319.125 L 275.351562 311.027344 C 275.074219 310.855469 274.992188 310.488281 275.167969 310.210938 C 275.34375 309.9375 275.710938 309.851562 275.984375 310.027344 L 288.765625 318.128906 C 289.039062 318.300781 289.121094 318.667969 288.945312 318.941406 C 288.832031 319.121094 288.644531 319.21875 288.445312 319.21875 " fill-opacity="1" fill-rule="nonzero"/><path fill="#000000" d="M 315.085938 335.898438 C 314.976562 335.898438 314.867188 335.867188 314.769531 335.808594 L 309.78125 332.667969 C 309.503906 332.496094 309.417969 332.128906 309.59375 331.851562 C 309.769531 331.578125 310.132812 331.496094 310.410156 331.667969 L 315.402344 334.804688 C 315.679688 334.980469 315.761719 335.34375 315.585938 335.621094 C 315.476562 335.800781 315.285156 335.898438 315.085938 335.898438 " fill-opacity="1" fill-rule="nonzero"/><path fill="#ffffff" d="M 256.765625 307.628906 C 256.660156 307.628906 256.550781 307.597656 256.453125 307.539062 L 248.675781 302.71875 C 248.398438 302.546875 248.3125 302.179688 248.488281 301.902344 C 248.660156 301.625 249.023438 301.542969 249.300781 301.714844 L 257.078125 306.53125 C 257.355469 306.707031 257.441406 307.070312 257.269531 307.347656 C 257.15625 307.527344 256.960938 307.628906 256.765625 307.628906 " fill-opacity="1" fill-rule="nonzero"/><path fill="#ffffff" d="M 276.917969 325.183594 C 276.917969 325.183594 287.367188 323.871094 294.023438 324.800781 C 299.207031 325.527344 314.550781 321.808594 311.347656 331.828125 C 310.65625 333.984375 310.292969 335.421875 308.390625 337.460938 C 307.355469 338.570312 304.511719 340.867188 302.898438 341.585938 C 295.058594 345.078125 287.957031 346.542969 279.285156 340.792969 C 277.617188 339.6875 275.625 339.179688 273.640625 339.382812 C 272.480469 339.5 276.546875 325.269531 276.917969 325.183594 " fill-opacity="1" fill-rule="nonzero"/><path fill="#000000" d="M 290.964844 345.246094 C 287.117188 345.246094 283.210938 344.105469 278.957031 341.285156 C 277.398438 340.253906 275.53125 339.785156 273.699219 339.96875 C 272.421875 340.101562 268.328125 340.246094 268.152344 340.25 C 267.828125 340.261719 267.550781 340.007812 267.539062 339.679688 C 267.53125 339.355469 267.785156 339.078125 268.113281 339.066406 C 268.152344 339.066406 272.339844 338.921875 273.578125 338.792969 C 275.683594 338.578125 277.828125 339.113281 279.613281 340.300781 C 287.886719 345.785156 294.566406 344.652344 302.65625 341.046875 C 304.152344 340.378906 306.929688 338.15625 307.957031 337.054688 C 309.636719 335.257812 310.039062 333.992188 310.644531 332.082031 L 310.78125 331.648438 C 311.371094 329.800781 311.320312 328.449219 310.621094 327.519531 C 309.074219 325.464844 304.472656 325.597656 300.417969 325.714844 C 297.839844 325.785156 295.40625 325.855469 293.847656 325.367188 C 285.964844 322.894531 277.1875 325.714844 277.101562 325.746094 C 277.082031 325.753906 277.066406 325.757812 277.046875 325.757812 C 276.652344 325.851562 275.507812 325.816406 272.828125 325.632812 C 272.503906 325.609375 272.257812 325.328125 272.28125 325.003906 C 272.304688 324.675781 272.585938 324.429688 272.910156 324.453125 C 275.160156 324.605469 276.457031 324.660156 276.765625 324.609375 C 277.480469 324.378906 286.136719 321.710938 294.199219 324.238281 C 295.570312 324.667969 297.90625 324.601562 300.382812 324.53125 C 304.726562 324.40625 309.652344 324.265625 311.566406 326.808594 C 312.5 328.050781 312.617188 329.796875 311.910156 332.007812 L 311.773438 332.4375 C 311.164062 334.355469 310.6875 335.867188 308.824219 337.863281 C 307.710938 339.054688 304.835938 341.367188 303.140625 342.125 C 298.933594 344 294.984375 345.246094 290.964844 345.246094 " fill-opacity="1" fill-rule="nonzero"/><path fill="#5479f7" d="M 116.195312 203.859375 C 116.195312 203.859375 148.382812 208.164062 159.074219 221.3125 C 172.613281 237.96875 178.449219 262.714844 180.34375 273.410156 C 180.902344 276.554688 180.835938 279.773438 180.148438 282.886719 L 179.359375 286.460938 C 176.582031 299.070312 165.1875 307.808594 152.410156 307.136719 L 153.050781 307.140625 C 150.984375 307.03125 147.972656 306.339844 147.097656 304.449219 L 143.714844 298.222656 L 143.398438 300.464844 C 140.855469 317.039062 155.132812 339.871094 155.132812 339.871094 L 116.050781 334.554688 C 96.492188 332.574219 77.878906 324.792969 62.945312 311.882812 C 54.835938 304.878906 48.566406 298.320312 45.863281 290.355469 C 41.269531 276.832031 41.691406 272.980469 40.402344 256.574219 C 39.527344 245.40625 43.554688 229.894531 50.496094 221.148438 C 60.695312 208.300781 79.542969 199.164062 116.195312 203.859375 " fill-opacity="1" fill-rule="nonzero"/><path fill="#caddff" d="M 145.898438 304.664062 C 145.679688 304.664062 145.464844 304.539062 145.367188 304.324219 L 136.347656 285.210938 C 136.210938 284.914062 136.335938 284.5625 136.632812 284.421875 C 136.929688 284.285156 137.28125 284.410156 137.421875 284.707031 L 146.4375 303.820312 C 146.574219 304.113281 146.449219 304.464844 146.152344 304.605469 C 146.070312 304.644531 145.984375 304.664062 145.898438 304.664062 " fill-opacity="1" fill-rule="nonzero"/><path fill="#000000" d="M 121.265625 139.296875 C 130.59375 133.824219 131.855469 117.34375 124.9375 113.761719 C 118.691406 110.53125 110.992188 114.050781 101.332031 118.65625 C 96.738281 120.847656 90.0625 120.746094 82.984375 122.132812 C 50.335938 128.53125 51.859375 168.277344 83.90625 194.007812 C 106.984375 212.535156 120.550781 147.980469 120.550781 147.980469 L 121.265625 139.296875 " fill-opacity="1" fill-rule="nonzero"/><path fill="#ffffff" d="M 114.011719 143.179688 C 114.601562 137.824219 120.277344 137.542969 121.265625 139.296875 C 123.667969 143.554688 124.8125 146.515625 125.199219 148.324219 C 125.714844 150.757812 123.476562 153.191406 124.679688 155.796875 C 125.886719 158.402344 127.777344 161.351562 127.949219 166.042969 C 128.117188 170.625 132.722656 191.628906 116.558594 190.964844 C 115.925781 190.9375 115.394531 191.441406 115.402344 192.082031 C 115.441406 195.277344 115.609375 204.070312 116.3125 208.832031 C 116.695312 211.425781 115.097656 213.890625 112.59375 214.605469 C 106.125 216.449219 94.078125 219.046875 85.0625 216.085938 C 82.71875 215.316406 81.488281 212.722656 82.324219 210.382812 C 83.390625 207.398438 84.878906 199 83.90625 194.007812 C 83.90625 194.007812 89.304688 193.46875 95.316406 190.683594 C 104.554688 186.40625 109.101562 175.988281 106.546875 166.050781 C 105.996094 163.917969 104.808594 160.878906 106.046875 157.664062 C 107.992188 152.605469 110.523438 153.726562 112.207031 155.375 C 112.882812 156.035156 114.011719 155.550781 114.011719 154.601562 L 114.011719 143.179688 " fill-opacity="1" fill-rule="nonzero"/><path fill="#000000" d="M 84.59375 194.515625 C 85.378906 199.722656 83.9375 207.628906 82.882812 210.582031 C 82.527344 211.582031 82.585938 212.652344 83.054688 213.601562 C 83.503906 214.527344 84.285156 215.207031 85.25 215.527344 C 94.128906 218.441406 106.09375 215.84375 112.433594 214.035156 C 114.648438 213.40625 116.066406 211.203125 115.726562 208.917969 C 115.027344 204.171875 114.851562 195.566406 114.808594 192.089844 C 114.804688 191.617188 114.984375 191.175781 115.324219 190.851562 C 115.65625 190.527344 116.113281 190.355469 116.582031 190.371094 C 120.136719 190.515625 122.894531 189.570312 124.777344 187.558594 C 129.152344 182.882812 128.132812 173.546875 127.585938 168.535156 C 127.472656 167.488281 127.378906 166.660156 127.359375 166.0625 C 127.21875 162.28125 125.933594 159.6875 124.800781 157.394531 C 124.570312 156.929688 124.347656 156.480469 124.144531 156.042969 C 123.378906 154.386719 123.832031 152.796875 124.234375 151.394531 C 124.535156 150.355469 124.816406 149.375 124.617188 148.449219 C 124.363281 147.25 123.523438 144.5 120.75 139.585938 C 120.480469 139.109375 119.40625 138.753906 118.140625 139.011719 C 117.40625 139.164062 114.984375 139.910156 114.605469 143.210938 L 114.605469 154.601562 C 114.605469 155.285156 114.214844 155.878906 113.585938 156.140625 C 112.964844 156.402344 112.273438 156.269531 111.789062 155.796875 C 111.121094 155.140625 110.128906 154.40625 109.179688 154.613281 C 108.234375 154.820312 107.34375 155.945312 106.601562 157.875 C 105.601562 160.476562 106.304688 162.972656 106.867188 164.984375 C 106.957031 165.304688 107.046875 165.613281 107.121094 165.90625 C 109.777344 176.242188 104.917969 186.890625 95.5625 191.222656 C 90.65625 193.496094 86.203125 194.289062 84.59375 194.515625 Z M 94.570312 218.015625 C 91.21875 218.015625 87.886719 217.636719 84.878906 216.648438 C 83.609375 216.234375 82.582031 215.335938 81.988281 214.125 C 81.382812 212.882812 81.304688 211.488281 81.769531 210.183594 C 82.796875 207.300781 84.277344 199.015625 83.324219 194.121094 L 83.199219 193.484375 L 83.847656 193.417969 C 83.898438 193.414062 89.222656 192.855469 95.066406 190.148438 C 103.902344 186.054688 108.488281 175.984375 105.972656 166.199219 C 105.902344 165.917969 105.816406 165.617188 105.726562 165.300781 C 105.148438 163.238281 104.355469 160.417969 105.496094 157.449219 C 106.398438 155.097656 107.554688 153.753906 108.925781 153.457031 C 110.101562 153.199219 111.34375 153.703125 112.621094 154.949219 C 112.820312 155.148438 113.042969 155.085938 113.128906 155.050781 C 113.195312 155.019531 113.421875 154.902344 113.421875 154.601562 L 113.421875 143.113281 C 113.730469 140.332031 115.40625 138.363281 117.902344 137.855469 C 119.605469 137.503906 121.203125 137.980469 121.78125 139.003906 C 124.488281 143.804688 125.449219 146.65625 125.777344 148.203125 C 126.035156 149.421875 125.699219 150.585938 125.375 151.71875 C 124.996094 153.042969 124.636719 154.289062 125.21875 155.546875 C 125.417969 155.976562 125.632812 156.414062 125.859375 156.871094 C 126.988281 159.148438 128.394531 161.984375 128.542969 166.019531 C 128.5625 166.574219 128.65625 167.425781 128.761719 168.40625 C 129.328125 173.609375 130.386719 183.296875 125.640625 188.367188 C 123.511719 190.640625 120.445312 191.71875 116.53125 191.554688 C 116.386719 191.550781 116.25 191.597656 116.148438 191.699219 C 116.046875 191.796875 115.992188 191.929688 115.992188 192.070312 C 116.035156 195.53125 116.207031 204.070312 116.898438 208.746094 C 117.324219 211.613281 115.542969 214.378906 112.757812 215.175781 C 108.40625 216.414062 101.453125 218.015625 94.570312 218.015625 " fill-opacity="1" fill-rule="nonzero"/><path fill="#000000" d="M 128.300781 163.96875 L 127.6875 162.957031 C 132.789062 159.867188 129.539062 151.148438 128.578125 148.878906 L 113.96875 156.023438 L 113.449219 154.960938 L 129.148438 147.28125 L 129.40625 147.820312 C 129.640625 148.308594 135.066406 159.871094 128.300781 163.96875 " fill-opacity="1" fill-rule="nonzero"/><path fill="#000000" d="M 128.414062 170.128906 C 128.261719 170.128906 128.109375 170.070312 127.996094 169.953125 C 127.765625 169.722656 127.761719 169.347656 127.996094 169.117188 L 130.0625 167.046875 C 130.671875 166.441406 130.75 165.484375 130.25 164.78125 L 128.828125 162.777344 C 128.640625 162.511719 128.703125 162.144531 128.96875 161.953125 C 129.234375 161.765625 129.605469 161.828125 129.792969 162.09375 L 131.21875 164.097656 C 132.050781 165.273438 131.917969 166.863281 130.902344 167.882812 L 128.832031 169.953125 C 128.714844 170.070312 128.566406 170.128906 128.414062 170.128906 " fill-opacity="1" fill-rule="nonzero"/><path fill="#000000" d="M 111.773438 171.945312 C 111.433594 171.945312 111.074219 171.90625 110.699219 171.8125 C 108.882812 171.363281 107.324219 169.804688 106.070312 167.183594 C 105.933594 166.886719 106.054688 166.535156 106.351562 166.394531 C 106.648438 166.253906 107 166.378906 107.140625 166.671875 C 108.234375 168.960938 109.527344 170.304688 110.984375 170.664062 C 112.53125 171.050781 113.742188 170.167969 113.753906 170.160156 C 114.015625 169.964844 114.386719 170.019531 114.582031 170.28125 C 114.777344 170.542969 114.722656 170.914062 114.460938 171.109375 C 114.40625 171.148438 113.3125 171.945312 111.773438 171.945312 " fill-opacity="1" fill-rule="nonzero"/><path fill="#ffffff" d="M 35.53125 251.105469 C 46.535156 258.445312 71.824219 270.855469 114.511719 268.226562 C 117.425781 268.042969 120.125 269.789062 121.152344 272.550781 L 123.695312 282.820312 C 128 300.21875 136.097656 316.425781 147.398438 330.265625 L 155.320312 339.96875 C 155.546875 340.246094 155.332031 340.664062 154.980469 340.636719 L 125.972656 338.484375 C 81.085938 332.492188 46.210938 309.761719 35.027344 268.359375 L 31.214844 254.246094 C 30.523438 251.6875 33.339844 249.640625 35.53125 251.105469 " fill-opacity="1" fill-rule="nonzero"/><path fill="#000000" d="M 155.132812 340.460938 C 154.960938 340.460938 154.789062 340.386719 154.667969 340.242188 L 147.113281 330.851562 C 135.71875 316.894531 127.394531 300.242188 123.050781 282.6875 L 120.585938 272.726562 C 119.636719 270.222656 117.222656 268.648438 114.546875 268.8125 C 74.054688 271.3125 49.066406 260.125 37.777344 253.238281 C 36.296875 252.335938 34.800781 252.742188 33.894531 253.417969 C 32.972656 254.109375 32.152344 255.453125 32.617188 257.160156 L 35.597656 268.203125 C 45.507812 304.894531 75.433594 329.308594 119.859375 336.953125 C 120.183594 337.007812 120.398438 337.316406 120.34375 337.636719 C 120.289062 337.960938 119.980469 338.175781 119.660156 338.121094 C 97.976562 334.386719 79.695312 326.78125 65.324219 315.511719 C 50.027344 303.519531 39.640625 287.707031 34.457031 268.511719 L 31.472656 257.46875 C 30.957031 255.5625 31.613281 253.648438 33.183594 252.472656 C 34.738281 251.308594 36.734375 251.214844 38.394531 252.230469 C 49.566406 259.046875 74.300781 270.109375 114.472656 267.632812 C 117.675781 267.433594 120.582031 269.328125 121.707031 272.34375 C 121.714844 272.367188 121.722656 272.386719 121.726562 272.410156 L 124.203125 282.40625 C 128.503906 299.789062 136.746094 316.28125 148.03125 330.109375 L 155.59375 339.5 C 155.796875 339.753906 155.757812 340.128906 155.503906 340.332031 C 155.394531 340.421875 155.261719 340.460938 155.132812 340.460938 " fill-opacity="1" fill-rule="nonzero"/><path fill="#ffffff" d="M 344.699219 260.152344 C 342.691406 255.980469 342.5 251.773438 344.699219 247.527344 L 343.117188 245.613281 L 290.949219 247.046875 L 292.4375 260.898438 L 343.226562 261.386719 L 344.699219 260.152344 " fill-opacity="1" fill-rule="nonzero"/><path fill="#99b9ff" d="M 292.96875 260.3125 L 343.015625 260.792969 L 343.96875 259.992188 C 342.046875 255.742188 342.058594 251.582031 343.996094 247.605469 L 342.847656 246.210938 L 291.601562 247.621094 Z M 343.226562 261.976562 C 343.222656 261.976562 343.222656 261.976562 343.21875 261.976562 L 292.429688 261.492188 C 292.128906 261.488281 291.878906 261.261719 291.847656 260.960938 L 290.359375 247.109375 C 290.34375 246.945312 290.394531 246.785156 290.5 246.660156 C 290.609375 246.535156 290.765625 246.460938 290.929688 246.457031 L 343.105469 245.023438 C 343.285156 245.015625 343.460938 245.097656 343.578125 245.238281 L 345.152344 247.148438 C 345.308594 247.332031 345.332031 247.589844 345.222656 247.796875 C 343.195312 251.714844 343.199219 255.671875 345.230469 259.898438 C 345.347656 260.140625 345.285156 260.433594 345.078125 260.605469 L 343.605469 261.839844 C 343.496094 261.929688 343.363281 261.976562 343.226562 261.976562 " fill-opacity="1" fill-rule="nonzero"/><path fill="#5479f7" d="M 256.949219 244.089844 L 346.097656 244.089844 C 347.035156 244.089844 347.792969 244.855469 347.792969 245.800781 C 347.792969 246.746094 347.035156 247.511719 346.097656 247.511719 L 300.261719 247.511719 C 297.5625 247.511719 295.375 249.722656 295.375 252.445312 L 295.375 255.21875 C 295.375 257.945312 297.5625 260.152344 300.261719 260.152344 L 346.097656 260.152344 C 347.035156 260.152344 347.792969 260.921875 347.792969 261.867188 C 347.792969 262.8125 347.035156 263.578125 346.097656 263.578125 L 256.949219 263.578125 C 251.976562 263.578125 247.941406 259.507812 247.941406 254.484375 L 247.941406 253.183594 C 247.941406 248.160156 251.976562 244.089844 256.949219 244.089844 " fill-opacity="1" fill-rule="nonzero"/><path fill="#ffffff" d="M 340.222656 284.089844 L 258.832031 284.089844 L 258.832031 265.582031 L 340.222656 265.582031 C 338.085938 271.628906 338.023438 278.203125 340.222656 284.089844 " fill-opacity="1" fill-rule="nonzero"/><path fill="#99b9ff" d="M 259.421875 283.496094 L 339.386719 283.496094 C 337.542969 278.015625 337.546875 271.925781 339.398438 266.171875 L 259.421875 266.171875 Z M 340.222656 284.679688 L 258.832031 284.679688 C 258.507812 284.679688 258.238281 284.414062 258.238281 284.089844 L 258.238281 265.578125 C 258.238281 265.253906 258.507812 264.988281 258.832031 264.988281 L 340.222656 264.988281 C 340.414062 264.988281 340.597656 265.082031 340.707031 265.238281 C 340.816406 265.394531 340.84375 265.597656 340.78125 265.777344 C 338.660156 271.777344 338.660156 278.207031 340.777344 283.882812 C 340.84375 284.0625 340.820312 284.265625 340.710938 284.425781 C 340.597656 284.585938 340.417969 284.679688 340.222656 284.679688 " fill-opacity="1" fill-rule="nonzero"/><path fill="#caddff" d="M 332.96875 272.660156 L 271.355469 272.660156 C 271.027344 272.660156 270.765625 272.394531 270.765625 272.066406 C 270.765625 271.742188 271.027344 271.476562 271.355469 271.476562 L 332.96875 271.476562 C 333.292969 271.476562 333.558594 271.742188 333.558594 272.066406 C 333.558594 272.394531 333.292969 272.660156 332.96875 272.660156 " fill-opacity="1" fill-rule="nonzero"/><path fill="#caddff" d="M 321.976562 277.832031 L 271.355469 277.832031 C 271.027344 277.832031 270.761719 277.566406 270.761719 277.242188 C 270.761719 276.914062 271.027344 276.648438 271.355469 276.648438 L 321.976562 276.648438 C 322.304688 276.648438 322.570312 276.914062 322.570312 277.242188 C 322.570312 277.566406 322.304688 277.832031 321.976562 277.832031 " fill-opacity="1" fill-rule="nonzero"/><path fill="#99b9ff" d="M 268.144531 266.464844 L 341.316406 266.464844 C 342.089844 266.464844 342.714844 265.832031 342.714844 265.054688 C 342.714844 264.273438 342.089844 263.644531 341.316406 263.644531 L 249.035156 263.644531 C 245.644531 263.644531 242.894531 266.417969 242.894531 269.84375 L 242.894531 279.589844 C 242.894531 283.015625 245.644531 285.792969 249.035156 285.792969 L 341.316406 285.792969 C 342.089844 285.792969 342.714844 285.160156 342.714844 284.382812 C 342.714844 283.601562 342.089844 282.96875 341.316406 282.96875 L 268.144531 282.96875 C 265.746094 282.96875 263.800781 281.007812 263.800781 278.589844 L 263.800781 270.84375 C 263.800781 268.425781 265.746094 266.464844 268.144531 266.464844 " fill-opacity="1" fill-rule="nonzero"/><path fill="#caddff" d="M 301.296875 252.09375 C 300.96875 252.09375 300.703125 251.828125 300.703125 251.5 C 300.703125 251.175781 300.96875 250.910156 301.296875 250.910156 L 338.90625 250.910156 C 339.230469 250.910156 339.496094 251.175781 339.496094 251.5 C 339.496094 251.828125 339.230469 252.09375 338.90625 252.09375 L 301.296875 252.09375 " fill-opacity="1" fill-rule="nonzero"/><path fill="#ffffff" d="M 196.214844 18.75 L 137.34375 18.75 C 135.132812 18.75 133.269531 20.414062 133.003906 22.625 L 130.816406 40.75 C 130.5 43.378906 132.53125 45.695312 135.15625 45.695312 L 183.871094 45.695312 L 189.703125 56.476562 L 190.972656 45.695312 L 193.878906 45.695312 C 196.078125 45.695312 197.929688 44.046875 198.214844 41.851562 L 200.550781 23.730469 C 200.894531 21.089844 198.851562 18.75 196.214844 18.75 " fill-opacity="1" fill-rule="nonzero"/><path fill="#000000" d="M 137.34375 19.339844 C 135.433594 19.339844 133.820312 20.785156 133.589844 22.699219 L 131.402344 40.820312 C 131.273438 41.914062 131.613281 43.015625 132.34375 43.835938 C 133.058594 44.640625 134.082031 45.101562 135.15625 45.101562 L 183.871094 45.101562 C 184.085938 45.101562 184.289062 45.222656 184.390625 45.414062 L 189.335938 54.550781 L 190.386719 45.625 C 190.421875 45.328125 190.671875 45.101562 190.972656 45.101562 L 193.878906 45.101562 C 195.769531 45.101562 197.382812 43.671875 197.628906 41.777344 L 199.960938 23.65625 C 200.105469 22.554688 199.769531 21.449219 199.039062 20.621094 C 198.324219 19.808594 197.292969 19.339844 196.214844 19.339844 Z M 189.703125 57.070312 C 189.488281 57.070312 189.289062 56.953125 189.183594 56.757812 L 183.515625 46.285156 L 135.15625 46.285156 C 133.746094 46.285156 132.398438 45.679688 131.457031 44.617188 C 130.503906 43.546875 130.054688 42.109375 130.226562 40.675781 L 132.414062 22.558594 C 132.71875 20.046875 134.835938 18.15625 137.34375 18.15625 L 196.214844 18.15625 C 197.632812 18.15625 198.988281 18.769531 199.925781 19.839844 C 200.882812 20.925781 201.324219 22.367188 201.136719 23.804688 L 198.800781 41.925781 C 198.480469 44.414062 196.363281 46.285156 193.878906 46.285156 L 191.5 46.285156 L 190.292969 56.546875 C 190.261719 56.804688 190.070312 57.011719 189.816406 57.058594 C 189.777344 57.0625 189.742188 57.070312 189.703125 57.070312 " fill-opacity="1" fill-rule="nonzero"/><path fill="#99b9ff" d="M 161.070312 29.996094 L 180.382812 29.996094 C 180.71875 29.996094 180.996094 29.722656 180.996094 29.386719 L 180.996094 26.675781 C 180.996094 26.339844 180.71875 26.066406 180.382812 26.066406 L 161.070312 26.066406 C 160.730469 26.066406 160.457031 26.339844 160.457031 26.675781 L 160.457031 29.386719 C 160.457031 29.722656 160.730469 29.996094 161.070312 29.996094 " fill-opacity="1" fill-rule="nonzero"/><path fill="#99b9ff" d="M 142.804688 29.996094 L 154.375 29.996094 C 154.714844 29.996094 154.988281 29.722656 154.988281 29.386719 L 154.988281 26.675781 C 154.988281 26.339844 154.714844 26.066406 154.375 26.066406 L 142.804688 26.066406 C 142.46875 26.066406 142.195312 26.339844 142.195312 26.675781 L 142.195312 29.386719 C 142.195312 29.722656 142.46875 29.996094 142.804688 29.996094 " fill-opacity="1" fill-rule="nonzero"/><path fill="#99b9ff" d="M 141.234375 38.488281 L 186.734375 38.488281 C 187.074219 38.488281 187.347656 38.21875 187.347656 37.878906 L 187.347656 35.171875 C 187.347656 34.835938 187.074219 34.558594 186.734375 34.558594 L 141.234375 34.558594 C 140.898438 34.558594 140.625 34.835938 140.625 35.171875 L 140.625 37.878906 C 140.625 38.21875 140.898438 38.488281 141.234375 38.488281 " fill-opacity="1" fill-rule="nonzero"/></svg>