<svg xmlns="http://www.w3.org/2000/svg" xmlns:xlink="http://www.w3.org/1999/xlink" width="500" zoomAndPan="magnify" viewBox="0 0 375 374.999991" height="500" preserveAspectRatio="xMidYMid meet" version="1.0"><path fill="#caddff" d="M 276.960938 344.34375 C 221.652344 371.492188 120.976562 350.222656 84.359375 309.820312 C 21.726562 240.714844 35.335938 132.4375 62.386719 96.0625 C 131.226562 3.511719 197.679688 67.835938 233.753906 76.964844 C 286.96875 90.433594 339.652344 90.722656 348.160156 188.292969 C 353.285156 247.058594 345.800781 310.554688 276.960938 344.34375 " fill-opacity="1" fill-rule="nonzero"/><path fill="#000000" d="M 328.5 153.246094 C 311.433594 137.03125 302.414062 136.300781 295.101562 120.214844 C 290.988281 111.167969 295.464844 72.917969 258.535156 71.457031 C 253.769531 71.265625 235.457031 72.269531 233.058594 91.445312 C 232.09375 99.171875 232.554688 104.546875 233.066406 108.878906 C 233.507812 112.613281 233.445312 116.394531 232.796875 120.101562 C 231.84375 125.558594 229.535156 131.691406 224.25 135.640625 C 223.839844 135.945312 224.195312 136.589844 224.675781 136.410156 C 227.417969 135.367188 231.277344 133.429688 234.035156 130.113281 C 234.28125 129.816406 234.757812 130.023438 234.710938 130.40625 C 234.6875 130.582031 234.664062 130.761719 234.644531 130.941406 C 233.578125 139.046875 220.503906 147.148438 224.160156 162.875 C 227.820312 178.597656 311.679688 212.238281 325.574219 205.292969 C 339.46875 198.34375 344.21875 168.179688 328.5 153.246094 " fill-opacity="1" fill-rule="nonzero"/><path fill="#0c2840" d="M 316.410156 155.71875 C 316.410156 155.71875 300.925781 142.089844 277.386719 139.304688 C 277.386719 139.304688 236.503906 138.996094 220.085938 154.171875 C 203.671875 169.347656 193.761719 203.414062 194.691406 228.8125 L 316.410156 265.667969 L 316.410156 155.71875 " fill-opacity="1" fill-rule="nonzero"/><path fill="#0c2840" d="M 266.390625 159.59375 C 266.390625 159.59375 276.148438 162.066406 283.269531 156.800781 L 302.472656 213.792969 C 302.472656 213.792969 293.019531 159.863281 316.246094 155.683594 C 316.246094 155.683594 332.335938 165.007812 329.71875 196.273438 C 326.835938 230.644531 322.449219 254.210938 306.1875 255.601562 C 289.929688 256.996094 270.726562 250.800781 266.390625 159.59375 " fill-opacity="1" fill-rule="nonzero"/><path fill="#0c2840" d="M 126.472656 164.996094 L 140.179688 157.167969 C 140.566406 156.949219 141.058594 157.074219 141.292969 157.453125 C 144.261719 162.273438 162.519531 190.992188 176.078125 191.351562 C 190.882812 191.742188 209.898438 162.386719 219.011719 155.226562 L 231.136719 194.320312 C 231.136719 194.320312 208.261719 226.480469 166.890625 228.050781 C 143.910156 228.925781 127.867188 172.480469 126.082031 165.929688 C 125.984375 165.566406 126.144531 165.183594 126.472656 164.996094 " fill-opacity="1" fill-rule="nonzero"/><path fill="#caddff" d="M 300.992188 256.414062 C 293.640625 256.414062 288.332031 254.722656 284.15625 251.144531 C 278.351562 246.164062 274.457031 237.378906 271.511719 222.65625 C 268.808594 209.125 266.835938 190.347656 264.921875 159.863281 C 264.902344 159.554688 265.136719 159.285156 265.445312 159.269531 C 265.75 159.25 266.019531 159.484375 266.042969 159.792969 C 269.320312 211.902344 273.136719 240.203125 284.886719 250.289062 C 289.808594 254.515625 296.164062 255.9375 306.140625 255.042969 C 306.441406 255.015625 306.71875 255.242188 306.746094 255.554688 C 306.777344 255.859375 306.546875 256.136719 306.238281 256.164062 C 304.382812 256.328125 302.636719 256.414062 300.992188 256.414062 " fill-opacity="1" fill-rule="nonzero"/><path fill="#caddff" d="M 306.195312 222.1875 C 305.960938 222.1875 305.742188 222.039062 305.664062 221.804688 L 283.722656 157.203125 C 283.625 156.910156 283.777344 156.589844 284.074219 156.492188 C 284.367188 156.390625 284.6875 156.546875 284.785156 156.84375 L 306.726562 221.445312 C 306.824219 221.738281 306.667969 222.058594 306.375 222.15625 C 306.316406 222.175781 306.253906 222.1875 306.195312 222.1875 " fill-opacity="1" fill-rule="nonzero"/><path fill="#caddff" d="M 300.589844 189.039062 C 300.585938 189.039062 300.582031 189.039062 300.578125 189.039062 C 300.269531 189.03125 300.019531 188.777344 300.027344 188.46875 C 300.277344 174.804688 302.894531 165.152344 307.8125 159.777344 C 308.019531 159.550781 308.378906 159.535156 308.605469 159.742188 C 308.832031 159.953125 308.847656 160.308594 308.640625 160.539062 C 303.914062 165.703125 301.394531 175.105469 301.148438 188.488281 C 301.144531 188.792969 300.894531 189.039062 300.589844 189.039062 " fill-opacity="1" fill-rule="nonzero"/><path fill="#caddff" d="M 223.1875 200.246094 C 222.875 200.246094 222.625 199.996094 222.625 199.6875 L 222.625 179.9375 C 222.625 179.628906 222.875 179.378906 223.1875 179.378906 C 223.496094 179.378906 223.746094 179.628906 223.746094 179.9375 L 223.746094 199.6875 C 223.746094 199.996094 223.496094 200.246094 223.1875 200.246094 " fill-opacity="1" fill-rule="nonzero"/><path fill="#ffffff" d="M 255.121094 120.210938 C 255.121094 120.210938 255.507812 130.9375 255.058594 138.085938 C 254.851562 141.457031 252.503906 144.308594 249.246094 145.203125 L 244.964844 146.375 C 242.761719 146.980469 242.542969 150.023438 244.640625 150.933594 C 252.917969 154.53125 269.550781 159.125 289.109375 150.242188 C 291.191406 149.292969 290.945312 146.257812 288.726562 145.683594 L 280.296875 143.496094 C 277.164062 142.683594 274.839844 140.050781 274.425781 136.839844 L 271.210938 111.925781 L 255.121094 120.210938 " fill-opacity="1" fill-rule="nonzero"/><path fill="#000000" d="M 255.695312 120.550781 C 255.753906 122.472656 256.019531 131.757812 255.621094 138.121094 C 255.398438 141.71875 252.894531 144.785156 249.394531 145.742188 L 245.113281 146.917969 C 244.175781 147.175781 243.796875 147.945312 243.746094 148.582031 C 243.703125 149.214844 243.972656 150.03125 244.863281 150.421875 C 252.976562 153.945312 269.480469 158.539062 288.875 149.730469 C 289.769531 149.324219 290.027344 148.496094 289.96875 147.859375 C 289.917969 147.230469 289.523438 146.46875 288.585938 146.226562 L 280.15625 144.039062 C 276.78125 143.167969 274.3125 140.367188 273.867188 136.910156 L 270.757812 112.789062 Z M 266.042969 155.933594 C 256.726562 155.933594 249.164062 153.511719 244.417969 151.449219 C 243.238281 150.9375 242.539062 149.78125 242.628906 148.5 C 242.71875 147.222656 243.578125 146.175781 244.816406 145.835938 L 249.101562 144.664062 C 252.132812 143.828125 254.304688 141.171875 254.5 138.050781 C 254.941406 131.007812 254.5625 120.339844 254.5625 120.230469 L 254.546875 119.875 L 271.664062 111.058594 L 274.980469 136.765625 C 275.367188 139.765625 277.511719 142.195312 280.4375 142.957031 L 288.871094 145.140625 C 290.109375 145.460938 290.980469 146.488281 291.089844 147.761719 C 291.203125 149.042969 290.515625 150.21875 289.339844 150.75 C 280.894531 154.589844 272.980469 155.933594 266.042969 155.933594 " fill-opacity="1" fill-rule="nonzero"/><path fill="#ffffff" d="M 243.84375 85.347656 C 240.445312 88.941406 238.683594 93.78125 238.695312 98.730469 C 238.699219 101.539062 240.167969 104.253906 240.617188 108.082031 C 241.773438 117.957031 245.957031 125.84375 257.386719 125.066406 C 257.386719 125.066406 271.109375 124.320312 272.785156 109.609375 C 272.785156 109.609375 273.585938 102.195312 270.238281 94.371094 C 267.984375 89.121094 261.609375 78.503906 251.738281 80.742188 C 248.34375 81.507812 245.765625 83.308594 243.84375 85.347656 " fill-opacity="1" fill-rule="nonzero"/><path fill="#000000" d="M 244.25 85.730469 C 241.015625 89.152344 239.242188 93.769531 239.253906 98.730469 C 239.257812 100.132812 239.648438 101.519531 240.097656 103.125 C 240.5 104.550781 240.957031 106.167969 241.171875 108.019531 C 242.550781 119.761719 247.839844 125.152344 257.347656 124.511719 C 257.898438 124.480469 270.625 123.601562 272.226562 109.546875 C 272.234375 109.476562 272.96875 102.179688 269.722656 94.59375 C 268.589844 91.953125 262.40625 78.902344 251.859375 81.289062 C 248.980469 81.941406 246.417969 83.4375 244.25 85.730469 Z M 255.875 125.683594 C 246.746094 125.683594 241.425781 119.792969 240.058594 108.152344 C 239.851562 106.386719 239.429688 104.882812 239.019531 103.425781 C 238.566406 101.8125 238.136719 100.289062 238.132812 98.730469 C 238.121094 93.484375 240.003906 88.59375 243.433594 84.960938 C 245.761719 82.5 248.511719 80.894531 251.613281 80.195312 C 263.027344 77.609375 269.558594 91.367188 270.75 94.152344 C 274.121094 102.015625 273.375 109.363281 273.339844 109.671875 C 271.628906 124.683594 257.558594 125.621094 257.417969 125.628906 C 256.890625 125.664062 256.378906 125.683594 255.875 125.683594 " fill-opacity="1" fill-rule="nonzero"/><path fill="#000000" d="M 263.285156 82.417969 C 263.285156 82.417969 261.824219 87.550781 253.785156 94.148438 C 248.570312 98.433594 239.488281 99.410156 237.957031 102.902344 C 237.957031 102.902344 232.367188 81.671875 250.433594 79.25 C 268.503906 76.828125 263.285156 82.417969 263.285156 82.417969 " fill-opacity="1" fill-rule="nonzero"/><path fill="#000000" d="M 335.082031 271.554688 C 335.027344 271.554688 334.976562 271.542969 334.921875 271.527344 L 225.585938 239.351562 C 225.289062 239.261719 225.121094 238.949219 225.207031 238.652344 C 225.292969 238.355469 225.605469 238.1875 225.902344 238.273438 L 335.238281 270.453125 C 335.535156 270.539062 335.707031 270.851562 335.617188 271.148438 C 335.546875 271.394531 335.320312 271.554688 335.082031 271.554688 " fill-opacity="1" fill-rule="nonzero"/><path fill="#ffffff" d="M 137.445312 157.835938 C 135.550781 153.722656 133.863281 145.785156 131.9375 143.058594 C 130.011719 140.332031 127.753906 137.96875 124.15625 135.710938 C 122.3125 134.550781 118.542969 132.332031 115.652344 131.558594 C 112.765625 130.785156 114.027344 136.363281 116.621094 137.363281 C 119.210938 138.363281 121.207031 140.1875 120.496094 140.679688 C 120.003906 141.019531 118.628906 142.503906 115.984375 141.867188 C 113.019531 141.15625 111.058594 138.367188 111.132812 135.320312 C 111.144531 134.792969 111.199219 134.257812 111.308594 133.734375 C 111.992188 130.558594 110.496094 127.25 107.507812 125.964844 C 106.097656 125.359375 104.398438 125.054688 102.402344 125.386719 C 99.242188 125.90625 98.488281 143.890625 110.53125 149.683594 C 113.027344 150.882812 123.292969 152.996094 125.402344 155.910156 C 127.515625 158.820312 129.035156 162.9375 129.035156 162.9375 L 137.445312 157.835938 " fill-opacity="1" fill-rule="nonzero"/><path fill="#000000" d="M 104.007812 125.8125 C 103.507812 125.8125 103.003906 125.855469 102.492188 125.941406 C 102.121094 126.003906 101.449219 126.894531 101.132812 129.105469 C 100.332031 134.6875 102.242188 145.078125 110.777344 149.179688 C 111.5 149.53125 112.988281 149.980469 114.714844 150.503906 C 118.976562 151.796875 124.28125 153.40625 125.859375 155.578125 C 127.519531 157.867188 128.800781 160.832031 129.316406 162.113281 L 136.730469 157.613281 C 135.976562 155.863281 135.25 153.554688 134.550781 151.316406 C 133.554688 148.144531 132.527344 144.871094 131.480469 143.382812 C 129.332031 140.34375 127.054688 138.191406 123.859375 136.1875 C 121.9375 134.980469 118.300781 132.847656 115.507812 132.101562 C 114.863281 131.925781 114.71875 132.1875 114.636719 132.445312 C 114.277344 133.546875 115.257812 136.238281 116.820312 136.839844 C 118.820312 137.609375 121.058594 139.144531 121.195312 140.285156 C 121.234375 140.632812 121.097656 140.945312 120.8125 141.140625 C 120.761719 141.179688 120.699219 141.226562 120.625 141.289062 C 119.972656 141.8125 118.441406 143.039062 115.851562 142.417969 C 112.710938 141.664062 110.488281 138.671875 110.570312 135.308594 C 110.585938 134.707031 110.648438 134.136719 110.761719 133.621094 C 111.402344 130.625 109.945312 127.625 107.289062 126.484375 C 106.25 126.039062 105.148438 125.8125 104.007812 125.8125 Z M 128.746094 163.769531 L 128.507812 163.132812 C 128.496094 163.09375 126.992188 159.054688 124.949219 156.238281 C 123.59375 154.371094 118.054688 152.691406 114.386719 151.578125 C 112.546875 151.019531 111.089844 150.578125 110.289062 150.191406 C 101.21875 145.828125 99.175781 134.84375 100.019531 128.945312 C 100.375 126.476562 101.1875 125.019531 102.308594 124.832031 C 104.214844 124.515625 106.039062 124.726562 107.730469 125.453125 C 110.878906 126.804688 112.613281 130.339844 111.859375 133.855469 C 111.761719 134.304688 111.707031 134.804688 111.691406 135.335938 C 111.625 138.175781 113.484375 140.691406 116.113281 141.324219 C 118.167969 141.816406 119.308594 140.902344 119.921875 140.410156 C 119.964844 140.378906 120.003906 140.347656 120.042969 140.316406 C 119.800781 139.863281 118.484375 138.683594 116.417969 137.886719 C 114.328125 137.082031 113 133.839844 113.566406 132.097656 C 113.882812 131.128906 114.71875 130.726562 115.796875 131.015625 C 118.730469 131.800781 122.480469 133.996094 124.457031 135.234375 C 127.738281 137.296875 130.1875 139.613281 132.394531 142.738281 C 133.546875 144.363281 134.554688 147.578125 135.621094 150.980469 C 136.375 153.382812 137.15625 155.871094 137.953125 157.601562 L 138.164062 158.058594 L 128.746094 163.769531 " fill-opacity="1" fill-rule="nonzero"/><path fill="#ffffff" d="M 125.472656 157.6875 L 135.808594 151.886719 C 136.265625 151.628906 136.84375 151.804688 137.082031 152.269531 L 140.558594 159.027344 C 140.789062 159.472656 140.621094 160.019531 140.183594 160.261719 L 129.800781 166.007812 C 129.34375 166.261719 128.765625 166.082031 128.527344 165.617188 L 125.101562 158.914062 C 124.875 158.472656 125.039062 157.929688 125.472656 157.6875 " fill-opacity="1" fill-rule="nonzero"/><path fill="#000000" d="M 136.257812 152.328125 C 136.199219 152.328125 136.136719 152.34375 136.082031 152.375 L 125.75 158.175781 C 125.578125 158.269531 125.515625 158.480469 125.601562 158.660156 L 129.027344 165.363281 C 129.074219 165.453125 129.152344 165.515625 129.246094 165.546875 C 129.34375 165.574219 129.441406 165.5625 129.53125 165.515625 L 139.914062 159.769531 C 140.085938 159.675781 140.152344 159.460938 140.0625 159.285156 L 136.582031 152.527344 C 136.539062 152.4375 136.460938 152.375 136.363281 152.34375 C 136.328125 152.335938 136.292969 152.328125 136.257812 152.328125 Z M 129.355469 166.6875 C 129.210938 166.6875 129.0625 166.664062 128.917969 166.621094 C 128.53125 166.5 128.214844 166.234375 128.03125 165.875 L 124.601562 159.167969 C 124.238281 158.453125 124.5 157.585938 125.199219 157.195312 L 135.53125 151.398438 C 135.886719 151.199219 136.296875 151.152344 136.6875 151.269531 C 137.078125 151.386719 137.394531 151.652344 137.582031 152.011719 L 141.058594 158.773438 C 141.429688 159.492188 141.164062 160.363281 140.457031 160.753906 L 130.074219 166.496094 C 129.847656 166.621094 129.605469 166.6875 129.355469 166.6875 " fill-opacity="1" fill-rule="nonzero"/><path fill="#000000" d="M 265.398438 120.109375 C 264.316406 120.109375 263.214844 119.957031 262.128906 119.640625 L 251.023438 116.421875 L 251.335938 115.339844 L 262.441406 118.5625 C 267.394531 120 272.617188 117.667969 274.855469 113.019531 L 277.121094 108.3125 L 278.132812 108.796875 L 275.867188 113.507812 C 273.882812 117.632812 269.773438 120.109375 265.398438 120.109375 " fill-opacity="1" fill-rule="nonzero"/><path fill="#caddff" d="M 277.253906 96.761719 C 276.949219 96.761719 276.699219 96.515625 276.695312 96.210938 C 276.691406 96.070312 276.304688 82.128906 268.90625 75.238281 C 265.957031 72.496094 262.257812 71.214844 257.910156 71.429688 C 257.59375 71.449219 257.339844 71.207031 257.324219 70.898438 C 257.308594 70.585938 257.546875 70.324219 257.855469 70.308594 C 262.519531 70.074219 266.496094 71.460938 269.671875 74.417969 C 277.421875 81.636719 277.800781 95.597656 277.816406 96.1875 C 277.824219 96.496094 277.578125 96.753906 277.265625 96.761719 C 277.261719 96.761719 277.257812 96.761719 277.253906 96.761719 " fill-opacity="1" fill-rule="nonzero"/><path fill="#0c2840" d="M 246.96875 115.832031 C 246.757812 114.175781 247.957031 112.65625 249.644531 112.445312 C 251.335938 112.230469 252.871094 113.402344 253.082031 115.058594 C 253.292969 116.714844 252.09375 118.234375 250.40625 118.449219 C 248.71875 118.660156 247.179688 117.488281 246.96875 115.832031 " fill-opacity="1" fill-rule="nonzero"/><path fill="#0c2840" d="M 269.222656 103.820312 C 268.632812 99.167969 271.613281 94.964844 275.878906 94.421875 C 276.34375 94.363281 278.078125 94.320312 278.53125 94.351562 C 282.230469 94.597656 284.136719 97.726562 284.664062 101.867188 C 285.226562 106.332031 283.527344 110.503906 279.535156 111.300781 C 279.371094 111.332031 278.1875 111.425781 278.015625 111.425781 C 273.339844 111.441406 269.808594 108.472656 269.222656 103.820312 " fill-opacity="1" fill-rule="nonzero"/><path fill="#19598f" d="M 271.066406 103.671875 C 270.570312 99.007812 273.628906 94.859375 277.90625 94.402344 C 282.179688 93.949219 286.050781 97.355469 286.546875 102.015625 C 287.042969 106.679688 283.980469 110.828125 279.707031 111.285156 C 275.429688 111.738281 271.5625 108.332031 271.066406 103.671875 " fill-opacity="1" fill-rule="nonzero"/><path fill="#ffffff" d="M 257.410156 111.117188 C 258.425781 109.785156 265.617188 112.511719 268.5625 113.597656 C 271.503906 114.679688 279.089844 124.902344 279.710938 131.714844 C 280.328125 138.527344 278.316406 149.988281 279.867188 154.015625 C 279.867188 154.015625 276.148438 157.421875 269.179688 156.492188 C 269.179688 156.492188 268.40625 149.988281 267.011719 147.664062 C 265.617188 145.34375 257.101562 139.148438 257.71875 134.964844 C 258.191406 131.796875 264.1875 129.425781 267.050781 128.464844 C 267.515625 128.308594 267.484375 127.644531 267.011719 127.539062 C 265.542969 127.207031 263.1875 126.941406 260.664062 127.6875 C 256.480469 128.929688 252.765625 126.914062 254.46875 124.589844 C 256 122.507812 262.140625 120.296875 266.519531 120.761719 C 266.699219 120.78125 266.761719 120.539062 266.597656 120.464844 C 263.1875 118.960938 254.664062 114.738281 257.410156 111.117188 " fill-opacity="1" fill-rule="nonzero"/><path fill="#000000" d="M 269.679688 155.988281 C 275.015625 156.570312 278.269531 154.519531 279.207031 153.824219 C 278.441406 151.320312 278.703125 146.832031 278.980469 142.09375 C 279.191406 138.4375 279.414062 134.65625 279.148438 131.765625 C 278.550781 125.171875 271.121094 115.136719 268.367188 114.125 L 267.996094 113.988281 C 266.40625 113.398438 263.996094 112.511719 261.839844 111.914062 C 258.300781 110.941406 257.863281 111.453125 257.859375 111.457031 C 257.464844 111.976562 257.347656 112.511719 257.5 113.097656 C 258 115.039062 261.488281 117.601562 266.824219 119.953125 C 267.148438 120.09375 267.320312 120.449219 267.226562 120.792969 C 267.136719 121.136719 266.816406 121.355469 266.457031 121.320312 C 262.285156 120.875 256.324219 123.011719 254.921875 124.921875 C 254.542969 125.4375 254.503906 125.894531 254.804688 126.320312 C 255.507812 127.324219 257.886719 127.925781 260.5 127.152344 C 263.113281 126.375 265.550781 126.636719 267.132812 126.992188 C 267.59375 127.09375 267.917969 127.480469 267.941406 127.953125 C 267.96875 128.429688 267.679688 128.847656 267.230469 128.996094 C 261.921875 130.773438 258.574219 133.035156 258.273438 135.050781 C 257.886719 137.65625 261.738281 141.421875 264.550781 144.175781 C 265.929688 145.527344 267.023438 146.597656 267.492188 147.375 C 268.730469 149.441406 269.476562 154.460938 269.679688 155.988281 Z M 271.566406 157.214844 C 270.796875 157.214844 269.976562 157.164062 269.105469 157.046875 L 268.671875 156.992188 L 268.621094 156.558594 C 268.613281 156.496094 267.847656 150.148438 266.53125 147.953125 C 266.132812 147.296875 265.035156 146.222656 263.761719 144.976562 C 260.613281 141.894531 256.695312 138.058594 257.164062 134.882812 C 257.652344 131.582031 263.164062 129.203125 266.601562 128.027344 C 265.152344 127.734375 263.054688 127.566406 260.820312 128.226562 C 257.96875 129.070312 254.984375 128.53125 253.886719 126.96875 C 253.308594 126.144531 253.355469 125.160156 254.015625 124.261719 C 255.410156 122.355469 260.257812 120.34375 264.585938 120.152344 C 261.269531 118.535156 257.097656 116.023438 256.414062 113.378906 C 256.171875 112.453125 256.355469 111.578125 256.960938 110.777344 C 257.988281 109.429688 261.925781 110.546875 268.382812 112.933594 L 268.753906 113.070312 C 271.785156 114.1875 279.625 124.582031 280.265625 131.664062 C 280.539062 134.636719 280.3125 138.460938 280.101562 142.160156 C 279.828125 146.816406 279.546875 151.632812 280.386719 153.8125 L 280.523438 154.171875 L 280.242188 154.429688 C 280.105469 154.558594 277.128906 157.214844 271.566406 157.214844 " fill-opacity="1" fill-rule="nonzero"/><path fill="#ffffff" d="M 267.816406 151.859375 C 269.574219 152.105469 274.234375 152.355469 279.867188 149.464844 C 280.210938 149.289062 280.628906 149.496094 280.703125 149.871094 L 282.011719 156.445312 C 282.058594 156.695312 281.945312 156.945312 281.722656 157.070312 C 280.203125 157.90625 274.257812 160.8125 268.238281 158.859375 C 268.023438 158.789062 267.871094 158.59375 267.84375 158.371094 L 267.15625 152.503906 C 267.113281 152.125 267.4375 151.804688 267.816406 151.859375 " fill-opacity="1" fill-rule="nonzero"/><path fill="#000000" d="M 267.734375 152.414062 C 267.730469 152.414062 267.726562 152.414062 267.722656 152.421875 L 268.402344 158.304688 C 274.164062 160.191406 279.847656 157.460938 281.449219 156.578125 L 280.152344 149.984375 C 274.34375 152.929688 269.535156 152.664062 267.738281 152.414062 C 267.738281 152.414062 267.734375 152.414062 267.734375 152.414062 Z M 272.558594 160.085938 C 271.113281 160.085938 269.59375 159.890625 268.066406 159.394531 C 267.640625 159.257812 267.335938 158.878906 267.285156 158.433594 L 266.601562 152.570312 C 266.558594 152.214844 266.683594 151.867188 266.9375 151.617188 C 267.191406 151.367188 267.539062 151.253906 267.894531 151.304688 C 269.585938 151.539062 274.117188 151.785156 279.609375 148.964844 C 279.929688 148.800781 280.300781 148.796875 280.628906 148.953125 C 280.953125 149.113281 281.179688 149.40625 281.253906 149.765625 L 282.5625 156.335938 C 282.660156 156.828125 282.429688 157.320312 281.992188 157.5625 C 280.710938 158.265625 276.96875 160.085938 272.558594 160.085938 " fill-opacity="1" fill-rule="nonzero"/><path fill="#000000" d="M 170.257812 80.234375 L 170.261719 80.234375 Z M 187.5625 71.230469 C 186.074219 71.230469 184.574219 71.398438 183.089844 71.738281 C 177.933594 72.925781 173.542969 76.046875 170.734375 80.53125 C 167.921875 85.015625 167.027344 90.328125 168.214844 95.484375 C 169.398438 100.640625 172.519531 105.03125 177.003906 107.839844 C 186.261719 113.640625 198.511719 110.824219 204.3125 101.570312 C 207.125 97.082031 208.019531 91.773438 206.832031 86.617188 C 205.648438 81.457031 202.527344 77.070312 198.042969 74.261719 C 194.847656 72.261719 191.238281 71.230469 187.5625 71.230469 Z M 187.488281 111.980469 C 183.695312 111.980469 179.855469 110.949219 176.410156 108.789062 C 171.671875 105.824219 168.371094 101.1875 167.121094 95.734375 C 165.867188 90.285156 166.8125 84.675781 169.78125 79.9375 C 172.75 75.195312 177.386719 71.898438 182.835938 70.648438 C 188.289062 69.394531 193.898438 70.339844 198.636719 73.308594 C 203.375 76.277344 206.675781 80.914062 207.925781 86.363281 C 209.179688 91.8125 208.234375 97.425781 205.265625 102.164062 C 201.296875 108.5 194.46875 111.980469 187.488281 111.980469 " fill-opacity="1" fill-rule="nonzero"/><path fill="#000000" d="M 182.628906 79.03125 C 182.53125 79.03125 182.429688 79.042969 182.328125 79.066406 C 181.984375 79.144531 181.6875 79.355469 181.5 79.660156 L 174.253906 91.21875 C 174.066406 91.519531 174.003906 91.878906 174.085938 92.226562 C 174.164062 92.574219 174.375 92.867188 174.679688 93.054688 L 191.417969 103.542969 C 191.71875 103.730469 192.078125 103.792969 192.421875 103.714844 C 192.773438 103.632812 193.066406 103.421875 193.257812 103.121094 L 200.5 91.558594 C 200.6875 91.257812 200.746094 90.902344 200.667969 90.554688 C 200.589844 90.207031 200.378906 89.914062 200.074219 89.722656 L 183.335938 79.234375 C 183.121094 79.101562 182.878906 79.03125 182.628906 79.03125 Z M 192.121094 104.871094 C 191.664062 104.871094 191.21875 104.742188 190.824219 104.496094 L 174.082031 94.007812 C 173.523438 93.660156 173.136719 93.117188 172.992188 92.476562 C 172.84375 91.835938 172.957031 91.179688 173.304688 90.621094 L 180.546875 79.0625 C 181.265625 77.914062 182.785156 77.566406 183.929688 78.285156 L 200.671875 88.773438 C 201.230469 89.121094 201.617188 89.664062 201.761719 90.304688 C 201.910156 90.941406 201.796875 91.601562 201.449219 92.15625 L 194.207031 103.71875 C 193.859375 104.273438 193.3125 104.660156 192.675781 104.808594 C 192.492188 104.847656 192.304688 104.871094 192.121094 104.871094 " fill-opacity="1" fill-rule="nonzero"/><path fill="#000000" d="M 187.042969 92.65625 C 186.832031 92.65625 186.628906 92.535156 186.53125 92.328125 L 182.757812 84.113281 C 182.628906 83.832031 182.75 83.5 183.035156 83.371094 C 183.316406 83.238281 183.648438 83.363281 183.777344 83.644531 L 187.550781 91.859375 C 187.683594 92.140625 187.558594 92.472656 187.277344 92.601562 C 187.203125 92.636719 187.121094 92.65625 187.042969 92.65625 " fill-opacity="1" fill-rule="nonzero"/><path fill="#000000" d="M 187.085938 92.683594 C 186.78125 92.683594 186.53125 92.4375 186.527344 92.132812 C 186.519531 91.824219 186.765625 91.566406 187.078125 91.5625 L 196.113281 91.375 C 196.417969 91.355469 196.679688 91.613281 196.6875 91.925781 C 196.691406 92.234375 196.445312 92.492188 196.136719 92.496094 L 187.097656 92.683594 C 187.09375 92.683594 187.089844 92.683594 187.085938 92.683594 " fill-opacity="1" fill-rule="nonzero"/><path fill="#0c2840" d="M 117.144531 95.671875 L 104.546875 98.511719 C 102.996094 98.859375 101.789062 100.082031 101.457031 101.636719 L 99.777344 109.546875 L 94.015625 103.042969 C 93.03125 101.933594 91.519531 101.445312 90.070312 101.769531 L 78.484375 104.382812 C 76.289062 104.878906 74.109375 103.496094 73.617188 101.300781 L 68.074219 76.710938 C 67.578125 74.515625 68.957031 72.335938 71.152344 71.84375 L 109.8125 63.128906 C 112.007812 62.636719 114.1875 64.015625 114.679688 66.210938 L 120.222656 90.800781 C 120.71875 92.996094 119.339844 95.175781 117.144531 95.671875 " fill-opacity="1" fill-rule="nonzero"/><path fill="#000000" d="M 79.597656 80.792969 C 79.34375 80.792969 79.109375 80.617188 79.050781 80.355469 C 78.984375 80.054688 79.171875 79.753906 79.472656 79.6875 L 107.265625 73.347656 C 107.566406 73.277344 107.867188 73.46875 107.9375 73.769531 C 108.007812 74.070312 107.816406 74.375 107.515625 74.441406 L 79.722656 80.78125 C 79.683594 80.789062 79.640625 80.792969 79.597656 80.792969 " fill-opacity="1" fill-rule="nonzero"/><path fill="#000000" d="M 80.410156 87.457031 C 80.15625 87.457031 79.925781 87.28125 79.863281 87.019531 C 79.796875 86.71875 79.984375 86.417969 80.285156 86.347656 L 100.882812 81.652344 C 101.1875 81.582031 101.488281 81.769531 101.554688 82.074219 C 101.625 82.375 101.433594 82.675781 101.132812 82.746094 L 80.535156 87.441406 C 80.496094 87.453125 80.453125 87.457031 80.410156 87.457031 " fill-opacity="1" fill-rule="nonzero"/><path fill="#000000" d="M 82.6875 93.957031 C 82.429688 93.957031 82.199219 93.78125 82.140625 93.523438 C 82.070312 93.21875 82.257812 92.917969 82.5625 92.851562 L 110.351562 86.511719 C 110.65625 86.441406 110.957031 86.632812 111.023438 86.933594 C 111.09375 87.238281 110.90625 87.539062 110.601562 87.605469 L 82.8125 93.945312 C 82.769531 93.953125 82.726562 93.957031 82.6875 93.957031 " fill-opacity="1" fill-rule="nonzero"/><path fill="#ffffff" d="M 88.902344 131.894531 L 82.382812 138.265625 C 81.578125 139.050781 81.304688 140.230469 81.683594 141.289062 L 83.601562 146.664062 L 77.730469 144.890625 C 76.726562 144.585938 75.640625 144.855469 74.890625 145.585938 L 68.890625 151.445312 C 67.757812 152.554688 65.933594 152.535156 64.824219 151.398438 L 52.386719 138.671875 C 51.277344 137.535156 51.296875 135.714844 52.433594 134.601562 L 72.445312 115.050781 C 73.582031 113.9375 75.402344 113.960938 76.511719 115.097656 L 88.949219 127.824219 C 90.058594 128.960938 90.039062 130.78125 88.902344 131.894531 " fill-opacity="1" fill-rule="nonzero"/><path fill="#19598f" d="M 60.421875 137.1875 C 60.273438 137.1875 60.128906 137.132812 60.019531 137.019531 C 59.804688 136.796875 59.808594 136.441406 60.03125 136.226562 L 73.84375 122.734375 C 74.066406 122.519531 74.421875 122.523438 74.636719 122.746094 C 74.855469 122.96875 74.847656 123.324219 74.628906 123.539062 L 60.8125 137.027344 C 60.703125 137.136719 60.5625 137.1875 60.421875 137.1875 " fill-opacity="1" fill-rule="nonzero"/><path fill="#19598f" d="M 64.160156 140.441406 C 64.011719 140.441406 63.867188 140.382812 63.757812 140.269531 C 63.542969 140.046875 63.546875 139.695312 63.765625 139.476562 L 77.582031 125.988281 C 77.800781 125.769531 78.160156 125.773438 78.375 125.996094 C 78.589844 126.21875 78.585938 126.574219 78.367188 126.789062 L 64.550781 140.277344 C 64.441406 140.386719 64.300781 140.441406 64.160156 140.441406 " fill-opacity="1" fill-rule="nonzero"/><path fill="#19598f" d="M 67.410156 143.6875 C 67.265625 143.6875 67.117188 143.632812 67.007812 143.519531 C 66.792969 143.296875 66.796875 142.941406 67.019531 142.726562 L 80.832031 129.234375 C 81.054688 129.019531 81.410156 129.023438 81.625 129.246094 C 81.84375 129.46875 81.839844 129.824219 81.617188 130.039062 L 67.800781 143.527344 C 67.691406 143.636719 67.550781 143.6875 67.410156 143.6875 " fill-opacity="1" fill-rule="nonzero"/><path fill="#000000" d="M 48.945312 207.785156 C 49.964844 218.660156 59.644531 226.679688 70.523438 225.660156 C 75.789062 225.164062 80.550781 222.648438 83.929688 218.574219 C 87.304688 214.5 88.890625 209.351562 88.398438 204.082031 C 87.902344 198.8125 85.386719 194.050781 81.3125 190.675781 C 77.234375 187.300781 72.089844 185.714844 66.820312 186.207031 C 55.945312 187.226562 47.925781 196.90625 48.945312 207.785156 Z M 68.65625 226.871094 C 57.984375 226.871094 48.84375 218.722656 47.828125 207.886719 C 46.75 196.394531 55.222656 186.167969 66.714844 185.089844 C 78.207031 184.015625 88.4375 192.484375 89.515625 203.976562 C 90.039062 209.546875 88.359375 214.984375 84.792969 219.289062 C 81.226562 223.597656 76.195312 226.253906 70.625 226.777344 C 69.964844 226.839844 69.308594 226.871094 68.65625 226.871094 " fill-opacity="1" fill-rule="nonzero"/><path fill="#000000" d="M 65.085938 194.507812 C 65.078125 194.507812 65.066406 194.507812 65.058594 194.511719 L 64.0625 194.691406 C 63.328125 194.828125 62.671875 195.195312 62.214844 195.726562 C 59.996094 198.320312 60.515625 203.710938 63.476562 208.839844 C 66.449219 213.984375 70.867188 217.128906 74.222656 216.484375 C 74.902344 216.355469 75.535156 215.976562 76.003906 215.425781 L 76.679688 214.632812 C 76.734375 214.570312 76.734375 214.417969 76.683594 214.351562 L 73.980469 211.003906 C 73.863281 210.859375 73.5625 210.714844 73.367188 210.71875 L 72.917969 210.726562 C 72.609375 210.734375 72.277344 210.808594 71.929688 210.949219 C 69.96875 211.753906 68.09375 210.550781 66.199219 207.269531 C 64.308594 203.996094 64.199219 201.773438 65.859375 200.476562 C 66.171875 200.234375 66.453125 199.902344 66.695312 199.5 L 66.796875 199.332031 C 66.890625 199.171875 66.921875 198.832031 66.855469 198.660156 L 65.308594 194.648438 C 65.277344 194.574219 65.171875 194.507812 65.085938 194.507812 Z M 73.316406 217.691406 C 69.667969 217.691406 65.457031 214.511719 62.507812 209.402344 C 59.257812 203.777344 58.800781 197.992188 61.363281 194.996094 C 61.984375 194.269531 62.871094 193.769531 63.859375 193.589844 L 64.855469 193.40625 C 65.472656 193.292969 66.128906 193.660156 66.355469 194.246094 L 67.902344 198.257812 C 68.089844 198.75 68.03125 199.460938 67.757812 199.910156 L 67.65625 200.078125 C 67.34375 200.601562 66.972656 201.03125 66.550781 201.359375 C 66.128906 201.691406 64.851562 202.6875 67.171875 206.707031 C 69.496094 210.734375 71.007812 210.117188 71.503906 209.910156 C 71.980469 209.71875 72.449219 209.613281 72.894531 209.605469 L 73.351562 209.597656 C 73.890625 209.585938 74.523438 209.890625 74.855469 210.300781 L 77.554688 213.644531 C 77.949219 214.132812 77.9375 214.886719 77.53125 215.359375 L 76.859375 216.152344 C 76.222656 216.898438 75.363281 217.410156 74.433594 217.585938 C 74.070312 217.65625 73.699219 217.691406 73.316406 217.691406 " fill-opacity="1" fill-rule="nonzero"/><path fill="#ffffff" d="M 225.3125 294.296875 L 118.953125 263.390625 C 117.300781 262.910156 116.164062 261.398438 116.164062 259.679688 L 116.164062 186.792969 C 116.164062 184.21875 118.636719 182.363281 121.109375 183.082031 L 227.46875 213.988281 C 229.117188 214.46875 230.011719 216.003906 230.011719 217.722656 L 229.847656 290.128906 C 229.847656 292.703125 227.785156 295.015625 225.3125 294.296875 " fill-opacity="1" fill-rule="nonzero"/><path fill="#000000" d="M 225.46875 293.761719 C 226.507812 294.0625 227.304688 293.691406 227.792969 293.324219 C 228.714844 292.632812 229.289062 291.40625 229.289062 290.128906 L 229.449219 217.722656 C 229.449219 216.136719 228.628906 214.914062 227.3125 214.527344 L 120.953125 183.621094 C 119.945312 183.328125 118.886719 183.519531 118.046875 184.152344 C 117.207031 184.78125 116.726562 185.746094 116.726562 186.792969 L 116.726562 259.679688 C 116.726562 261.136719 117.707031 262.441406 119.109375 262.851562 Z M 226.222656 294.992188 C 225.867188 294.992188 225.511719 294.941406 225.15625 294.835938 L 118.796875 263.929688 C 116.917969 263.382812 115.605469 261.636719 115.605469 259.679688 L 115.605469 186.792969 C 115.605469 185.386719 116.25 184.097656 117.375 183.253906 C 118.496094 182.410156 119.917969 182.152344 121.265625 182.542969 L 227.625 213.453125 C 229.414062 213.96875 230.570312 215.648438 230.570312 217.722656 L 230.410156 290.128906 C 230.410156 291.753906 229.664062 293.324219 228.464844 294.222656 C 227.789062 294.730469 227.015625 294.992188 226.222656 294.992188 " fill-opacity="1" fill-rule="nonzero"/><path fill="#000000" d="M 227.46875 213.988281 L 226.476562 213.703125 L 226.476562 294.425781 C 228.503906 294.382812 230.253906 292.753906 230.253906 290.585938 L 230.253906 217.699219 C 230.253906 215.980469 229.117188 214.46875 227.46875 213.988281 " fill-opacity="1" fill-rule="nonzero"/><path fill="#19598f" d="M 179.265625 298.738281 L 179.265625 240.386719 C 179.265625 237.476562 177.351562 234.910156 174.5625 234.078125 L 159 229.429688 C 156.277344 228.617188 153.546875 230.652344 153.546875 233.492188 L 153.546875 305.902344 C 153.546875 307.585938 154.648438 309.066406 156.261719 309.546875 L 177.953125 316.023438 C 178.800781 316.277344 179.710938 316.226562 180.523438 315.882812 L 199.359375 307.90625 C 200.660156 307.355469 200.574219 305.480469 199.226562 305.054688 L 179.265625 298.738281 " fill-opacity="1" fill-rule="nonzero"/><path fill="#caddff" d="M 183.410156 215.433594 L 155.882812 207.1875 C 155.507812 207.074219 155.253906 206.730469 155.253906 206.34375 L 155.253906 203.941406 C 155.253906 203.339844 155.832031 202.90625 156.40625 203.078125 L 183.164062 211.09375 C 183.742188 211.265625 184.140625 211.800781 184.140625 212.410156 L 184.140625 214.890625 C 184.140625 215.269531 183.773438 215.542969 183.410156 215.433594 " fill-opacity="1" fill-rule="nonzero"/><path fill="#caddff" d="M 179.835938 313.074219 C 179.523438 313.074219 179.273438 312.824219 179.273438 312.515625 L 179.273438 296.667969 C 179.273438 296.359375 179.523438 296.109375 179.835938 296.109375 C 180.144531 296.109375 180.394531 296.359375 180.394531 296.667969 L 180.394531 312.515625 C 180.394531 312.824219 180.144531 313.074219 179.835938 313.074219 " fill-opacity="1" fill-rule="nonzero"/><path fill="#0c2840" d="M 125.101562 294.175781 C 125.101562 303.667969 109.972656 326.484375 106.347656 331.8125 C 105.972656 332.359375 105.171875 332.359375 104.800781 331.808594 C 102.203125 327.992188 93.710938 315.214844 89.097656 304.78125 C 87.265625 300.640625 86.046875 296.871094 86.046875 294.175781 C 86.046875 283.390625 94.789062 274.648438 105.574219 274.648438 C 116.359375 274.648438 125.101562 283.390625 125.101562 294.175781 " fill-opacity="1" fill-rule="nonzero"/><path fill="#ffffff" d="M 114.503906 294.175781 C 114.503906 299.105469 110.503906 303.105469 105.574219 303.105469 C 100.640625 303.105469 96.644531 299.105469 96.644531 294.175781 C 96.644531 289.246094 100.640625 285.246094 105.574219 285.246094 C 110.503906 285.246094 114.503906 289.246094 114.503906 294.175781 " fill-opacity="1" fill-rule="nonzero"/><path fill="#000000" d="M 107.3125 302.632812 C 105.28125 302.632812 103.230469 301.980469 101.503906 300.640625 C 99.503906 299.085938 98.226562 296.84375 97.910156 294.332031 C 97.871094 294.023438 98.089844 293.742188 98.394531 293.703125 C 98.699219 293.664062 98.984375 293.882812 99.023438 294.191406 C 99.300781 296.40625 100.425781 298.382812 102.195312 299.753906 C 105.835938 302.585938 111.105469 301.921875 113.933594 298.277344 C 115.304688 296.511719 115.90625 294.316406 115.628906 292.097656 C 115.347656 289.882812 114.222656 287.90625 112.457031 286.535156 C 111.054688 285.445312 109.378906 284.839844 107.609375 284.78125 C 107.300781 284.769531 107.054688 284.511719 107.066406 284.199219 C 107.078125 283.890625 107.332031 283.648438 107.648438 283.660156 C 109.652344 283.726562 111.554688 284.414062 113.144531 285.648438 C 115.148438 287.203125 116.425781 289.441406 116.742188 291.957031 C 117.058594 294.472656 116.375 296.960938 114.820312 298.964844 C 112.953125 301.371094 110.148438 302.632812 107.3125 302.632812 " fill-opacity="1" fill-rule="nonzero"/><path fill="#19598f" d="M 293.636719 82.742188 C 293.535156 82.742188 293.433594 82.714844 293.339844 82.660156 C 293.078125 82.492188 293 82.148438 293.164062 81.882812 L 303.886719 64.816406 C 304.054688 64.558594 304.402344 64.476562 304.664062 64.640625 C 304.925781 64.808594 305.007812 65.152344 304.839844 65.417969 L 294.113281 82.480469 C 294.007812 82.648438 293.824219 82.742188 293.636719 82.742188 " fill-opacity="1" fill-rule="nonzero"/><path fill="#19598f" d="M 292.664062 96.394531 C 292.503906 96.394531 292.34375 96.324219 292.230469 96.191406 C 292.035156 95.949219 292.070312 95.597656 292.308594 95.402344 L 320.234375 72.378906 C 320.472656 72.183594 320.828125 72.214844 321.023438 72.457031 C 321.222656 72.695312 321.1875 73.046875 320.949219 73.246094 L 293.019531 96.265625 C 292.917969 96.351562 292.789062 96.394531 292.664062 96.394531 " fill-opacity="1" fill-rule="nonzero"/><path fill="#19598f" d="M 296.5625 101.761719 C 296.332031 101.761719 296.113281 101.613281 296.03125 101.382812 C 295.929688 101.089844 296.085938 100.769531 296.378906 100.667969 L 310.519531 95.792969 C 310.808594 95.691406 311.132812 95.847656 311.234375 96.140625 C 311.332031 96.433594 311.179688 96.75 310.886719 96.855469 L 296.746094 101.730469 C 296.683594 101.75 296.621094 101.761719 296.5625 101.761719 " fill-opacity="1" fill-rule="nonzero"/><path fill="#000000" d="M 135.910156 99.546875 C 134.605469 99.546875 133.539062 100.613281 133.539062 101.917969 C 133.539062 103.226562 134.605469 104.292969 135.910156 104.292969 C 137.21875 104.292969 138.285156 103.226562 138.285156 101.917969 C 138.285156 100.613281 137.21875 99.546875 135.910156 99.546875 Z M 135.910156 105.414062 C 133.984375 105.414062 132.417969 103.847656 132.417969 101.917969 C 132.417969 99.992188 133.984375 98.425781 135.910156 98.425781 C 137.839844 98.425781 139.40625 99.992188 139.40625 101.917969 C 139.40625 103.847656 137.839844 105.414062 135.910156 105.414062 " fill-opacity="1" fill-rule="nonzero"/><path fill="#000000" d="M 150.171875 111.976562 C 149.367188 111.976562 148.710938 112.632812 148.710938 113.4375 C 148.710938 114.242188 149.367188 114.898438 150.171875 114.898438 C 150.976562 114.898438 151.632812 114.242188 151.632812 113.4375 C 151.632812 112.632812 150.976562 111.976562 150.171875 111.976562 Z M 150.171875 116.023438 C 148.75 116.023438 147.589844 114.863281 147.589844 113.4375 C 147.589844 112.015625 148.75 110.855469 150.171875 110.855469 C 151.597656 110.855469 152.753906 112.015625 152.753906 113.4375 C 152.753906 114.863281 151.597656 116.023438 150.171875 116.023438 " fill-opacity="1" fill-rule="nonzero"/><path fill="#000000" d="M 72.566406 260.839844 C 67.691406 260.839844 63.515625 257.117188 63.050781 252.167969 C 62.558594 246.921875 66.429688 242.25 71.679688 241.757812 C 76.929688 241.265625 81.597656 245.136719 82.089844 250.382812 C 82.230469 251.859375 82.035156 253.304688 81.511719 254.679688 C 81.398438 254.96875 81.074219 255.113281 80.785156 255.003906 C 80.496094 254.890625 80.351562 254.566406 80.460938 254.277344 C 80.925781 253.066406 81.097656 251.789062 80.972656 250.488281 C 80.539062 245.855469 76.414062 242.441406 71.785156 242.875 C 67.152344 243.308594 63.734375 247.433594 64.167969 252.066406 C 64.605469 256.699219 68.730469 260.113281 73.359375 259.679688 C 74.496094 259.574219 75.574219 259.246094 76.570312 258.710938 C 76.839844 258.566406 77.183594 258.667969 77.328125 258.941406 C 77.476562 259.214844 77.375 259.554688 77.101562 259.699219 C 75.972656 260.304688 74.75 260.675781 73.464844 260.796875 C 73.164062 260.824219 72.863281 260.839844 72.566406 260.839844 " fill-opacity="1" fill-rule="nonzero"/><path fill="#19598f" d="M 94.46875 230.402344 C 94.46875 227.976562 96.433594 226.015625 98.859375 226.015625 C 101.28125 226.015625 103.246094 227.976562 103.246094 230.402344 C 103.246094 232.824219 101.28125 234.789062 98.859375 234.789062 C 96.433594 234.789062 94.46875 232.824219 94.46875 230.402344 " fill-opacity="1" fill-rule="nonzero"/><path fill="#19598f" d="M 245.855469 336.691406 C 245.855469 334.265625 247.824219 332.300781 250.246094 332.300781 C 252.667969 332.300781 254.632812 334.265625 254.632812 336.691406 C 254.632812 339.113281 252.667969 341.078125 250.246094 341.078125 C 247.824219 341.078125 245.855469 339.113281 245.855469 336.691406 " fill-opacity="1" fill-rule="nonzero"/><path fill="#000000" d="M 130.5625 79.953125 C 130.417969 79.953125 130.273438 79.898438 130.164062 79.789062 L 128.425781 78.050781 C 128.207031 77.832031 128.207031 77.476562 128.425781 77.257812 C 128.644531 77.039062 129 77.039062 129.21875 77.257812 L 130.957031 78.996094 C 131.179688 79.214844 131.179688 79.570312 130.957031 79.789062 C 130.847656 79.898438 130.707031 79.953125 130.5625 79.953125 " fill-opacity="1" fill-rule="nonzero"/><path fill="#000000" d="M 136.644531 86.035156 C 136.5 86.035156 136.355469 85.980469 136.246094 85.871094 L 134.507812 84.132812 C 134.289062 83.914062 134.289062 83.5625 134.507812 83.339844 C 134.726562 83.121094 135.082031 83.121094 135.300781 83.339844 L 137.039062 85.078125 C 137.257812 85.296875 137.257812 85.652344 137.039062 85.871094 C 136.929688 85.980469 136.785156 86.035156 136.644531 86.035156 " fill-opacity="1" fill-rule="nonzero"/><path fill="#000000" d="M 128.824219 86.035156 C 128.679688 86.035156 128.535156 85.980469 128.425781 85.871094 C 128.207031 85.652344 128.207031 85.296875 128.425781 85.078125 L 130.164062 83.339844 C 130.382812 83.121094 130.738281 83.121094 130.957031 83.339844 C 131.175781 83.5625 131.175781 83.914062 130.957031 84.132812 L 129.21875 85.871094 C 129.109375 85.980469 128.96875 86.035156 128.824219 86.035156 " fill-opacity="1" fill-rule="nonzero"/><path fill="#000000" d="M 134.90625 79.953125 C 134.761719 79.953125 134.617188 79.898438 134.507812 79.789062 C 134.289062 79.570312 134.289062 79.214844 134.507812 78.996094 L 136.246094 77.257812 C 136.464844 77.039062 136.820312 77.039062 137.039062 77.257812 C 137.257812 77.476562 137.257812 77.832031 137.039062 78.050781 L 135.300781 79.789062 C 135.191406 79.898438 135.050781 79.953125 134.90625 79.953125 " fill-opacity="1" fill-rule="nonzero"/><path fill="#19598f" d="M 158.898438 139.859375 C 158.886719 139.859375 158.875 139.859375 158.859375 139.859375 C 157.390625 139.757812 155.894531 139.699219 154.410156 139.683594 C 154.097656 139.679688 153.851562 139.425781 153.855469 139.113281 C 153.859375 138.804688 154.109375 138.546875 154.421875 138.558594 C 155.925781 138.578125 157.445312 138.636719 158.9375 138.738281 C 159.246094 138.757812 159.480469 139.027344 159.460938 139.335938 C 159.4375 139.632812 159.191406 139.859375 158.898438 139.859375 Z M 145.449219 140.070312 C 145.164062 140.070312 144.921875 139.851562 144.890625 139.5625 C 144.863281 139.253906 145.089844 138.980469 145.398438 138.949219 C 146.894531 138.804688 148.414062 138.699219 149.902344 138.632812 C 150.214844 138.617188 150.476562 138.859375 150.488281 139.167969 C 150.503906 139.476562 150.261719 139.738281 149.953125 139.753906 C 148.480469 139.816406 146.984375 139.921875 145.503906 140.066406 C 145.488281 140.066406 145.46875 140.070312 145.449219 140.070312 Z M 167.800781 140.976562 C 167.765625 140.976562 167.730469 140.972656 167.699219 140.96875 C 166.246094 140.699219 164.765625 140.46875 163.296875 140.285156 C 162.988281 140.246094 162.769531 139.964844 162.808594 139.660156 C 162.847656 139.351562 163.128906 139.132812 163.433594 139.171875 C 164.925781 139.359375 166.425781 139.589844 167.902344 139.863281 C 168.207031 139.917969 168.40625 140.210938 168.351562 140.519531 C 168.300781 140.789062 168.066406 140.976562 167.800781 140.976562 Z M 136.574219 141.390625 C 136.308594 141.390625 136.078125 141.203125 136.023438 140.9375 C 135.960938 140.632812 136.160156 140.339844 136.464844 140.277344 C 137.945312 139.980469 139.441406 139.722656 140.914062 139.5 C 141.21875 139.457031 141.503906 139.667969 141.550781 139.972656 C 141.597656 140.28125 141.386719 140.566406 141.078125 140.613281 C 139.625 140.828125 138.144531 141.085938 136.683594 141.378906 C 136.644531 141.386719 136.609375 141.390625 136.574219 141.390625 Z M 176.511719 143.113281 C 176.460938 143.113281 176.402344 143.101562 176.351562 143.085938 C 174.933594 142.652344 173.488281 142.253906 172.050781 141.902344 C 171.75 141.828125 171.566406 141.523438 171.640625 141.222656 C 171.714844 140.921875 172.019531 140.738281 172.320312 140.8125 C 173.773438 141.167969 175.242188 141.574219 176.675781 142.015625 C 176.972656 142.105469 177.140625 142.417969 177.050781 142.714844 C 176.976562 142.957031 176.753906 143.113281 176.511719 143.113281 Z M 182.960938 145.394531 C 182.890625 145.394531 182.820312 145.382812 182.753906 145.355469 C 182.03125 145.0625 181.296875 144.78125 180.574219 144.515625 C 180.28125 144.40625 180.132812 144.082031 180.242188 143.792969 C 180.347656 143.503906 180.671875 143.351562 180.960938 143.460938 C 181.695312 143.734375 182.4375 144.019531 183.171875 144.3125 C 183.457031 144.429688 183.597656 144.757812 183.480469 145.042969 C 183.394531 145.265625 183.183594 145.394531 182.960938 145.394531 " fill-opacity="1" fill-rule="nonzero"/><path fill="#19598f" d="M 104.972656 153.417969 C 104.777344 153.417969 104.589844 153.316406 104.484375 153.136719 C 104.332031 152.867188 104.421875 152.527344 104.691406 152.371094 L 105.113281 152.128906 C 105.382812 151.972656 105.726562 152.066406 105.878906 152.335938 C 106.035156 152.605469 105.941406 152.949219 105.671875 153.101562 L 105.253906 153.34375 C 105.164062 153.394531 105.066406 153.417969 104.972656 153.417969 Z M 97.394531 158.226562 C 97.214844 158.226562 97.039062 158.144531 96.933594 157.988281 C 96.753906 157.730469 96.816406 157.382812 97.074219 157.207031 C 98.304688 156.347656 99.570312 155.511719 100.832031 154.707031 C 101.09375 154.542969 101.441406 154.621094 101.605469 154.882812 C 101.773438 155.144531 101.695312 155.492188 101.433594 155.65625 C 100.183594 156.449219 98.933594 157.28125 97.714844 158.128906 C 97.617188 158.195312 97.503906 158.226562 97.394531 158.226562 Z M 90.238281 163.644531 C 90.074219 163.644531 89.914062 163.578125 89.800781 163.441406 C 89.605469 163.203125 89.640625 162.847656 89.878906 162.652344 C 91.035156 161.699219 92.226562 160.757812 93.421875 159.855469 C 93.667969 159.667969 94.019531 159.714844 94.207031 159.960938 C 94.394531 160.210938 94.34375 160.5625 94.097656 160.75 C 92.917969 161.644531 91.738281 162.574219 90.59375 163.515625 C 90.488281 163.605469 90.363281 163.644531 90.238281 163.644531 Z M 83.542969 169.628906 C 83.394531 169.628906 83.25 169.570312 83.140625 169.457031 C 82.921875 169.234375 82.929688 168.878906 83.152344 168.664062 C 84.226562 167.621094 85.339844 166.585938 86.457031 165.589844 C 86.6875 165.382812 87.039062 165.402344 87.246094 165.632812 C 87.453125 165.863281 87.433594 166.21875 87.203125 166.425781 C 86.097656 167.414062 85 168.4375 83.933594 169.46875 C 83.824219 169.574219 83.683594 169.628906 83.542969 169.628906 Z M 77.347656 176.125 C 77.21875 176.125 77.085938 176.078125 76.980469 175.988281 C 76.746094 175.78125 76.722656 175.425781 76.929688 175.195312 C 77.917969 174.066406 78.945312 172.949219 79.972656 171.867188 C 80.1875 171.640625 80.542969 171.632812 80.769531 171.847656 C 80.992188 172.0625 81 172.417969 80.789062 172.640625 C 79.765625 173.710938 78.753906 174.820312 77.769531 175.9375 C 77.660156 176.0625 77.503906 176.125 77.347656 176.125 Z M 71.691406 183.097656 C 71.574219 183.097656 71.457031 183.058594 71.355469 182.984375 C 71.105469 182.796875 71.054688 182.445312 71.242188 182.199219 C 72.140625 181 73.074219 179.800781 74.015625 178.640625 C 74.210938 178.402344 74.5625 178.363281 74.804688 178.558594 C 75.046875 178.753906 75.082031 179.109375 74.886719 179.347656 C 73.953125 180.5 73.027344 181.683594 72.140625 182.871094 C 72.03125 183.019531 71.859375 183.097656 71.691406 183.097656 " fill-opacity="1" fill-rule="nonzero"/><path fill="#19598f" d="M 255.105469 217.164062 C 255.097656 217.164062 255.089844 217.164062 255.082031 217.164062 C 254.773438 217.148438 254.53125 216.886719 254.546875 216.578125 C 254.671875 213.730469 254.804688 212.089844 254.804688 212.074219 C 254.828125 211.765625 255.101562 211.535156 255.410156 211.558594 C 255.71875 211.582031 255.949219 211.855469 255.921875 212.164062 C 255.921875 212.179688 255.792969 213.804688 255.667969 216.628906 C 255.65625 216.929688 255.40625 217.164062 255.105469 217.164062 Z M 254.886719 226.144531 C 254.882812 226.144531 254.878906 226.144531 254.878906 226.144531 C 254.570312 226.140625 254.320312 225.886719 254.324219 225.578125 C 254.332031 224.058594 254.355469 222.546875 254.394531 221.078125 C 254.398438 220.773438 254.648438 220.53125 254.953125 220.53125 C 254.960938 220.53125 254.960938 220.53125 254.96875 220.53125 C 255.277344 220.539062 255.523438 220.796875 255.515625 221.105469 C 255.480469 222.566406 255.457031 224.074219 255.445312 225.585938 C 255.441406 225.894531 255.191406 226.144531 254.886719 226.144531 Z M 50.273438 226.765625 C 50.226562 226.765625 50.179688 226.761719 50.128906 226.746094 C 49.832031 226.667969 49.652344 226.359375 49.734375 226.058594 C 49.8125 225.765625 49.890625 225.472656 49.972656 225.179688 C 50.054688 224.882812 50.363281 224.707031 50.660156 224.789062 C 50.960938 224.871094 51.136719 225.179688 51.054688 225.476562 C 50.972656 225.769531 50.894531 226.058594 50.816406 226.347656 C 50.75 226.601562 50.523438 226.765625 50.273438 226.765625 Z M 254.96875 235.132812 C 254.667969 235.132812 254.414062 234.890625 254.410156 234.589844 C 254.371094 233.09375 254.34375 231.574219 254.328125 230.082031 C 254.324219 229.773438 254.574219 229.519531 254.886719 229.515625 C 254.886719 229.515625 254.886719 229.515625 254.890625 229.515625 C 255.195312 229.515625 255.449219 229.761719 255.449219 230.070312 C 255.464844 231.558594 255.492188 233.070312 255.53125 234.558594 C 255.539062 234.867188 255.292969 235.125 254.984375 235.132812 C 254.980469 235.132812 254.972656 235.132812 254.96875 235.132812 Z M 48.320312 235.523438 C 48.289062 235.523438 48.253906 235.519531 48.21875 235.515625 C 47.914062 235.457031 47.714844 235.167969 47.765625 234.863281 C 48.03125 233.398438 48.332031 231.910156 48.660156 230.441406 C 48.726562 230.136719 49.027344 229.949219 49.328125 230.015625 C 49.632812 230.082031 49.824219 230.382812 49.753906 230.683594 C 49.429688 232.140625 49.132812 233.613281 48.871094 235.0625 C 48.824219 235.332031 48.585938 235.523438 48.320312 235.523438 Z M 255.351562 244.117188 C 255.054688 244.117188 254.808594 243.886719 254.789062 243.589844 C 254.703125 242.109375 254.625 240.59375 254.5625 239.089844 C 254.550781 238.78125 254.789062 238.519531 255.097656 238.507812 C 255.410156 238.492188 255.671875 238.734375 255.683594 239.042969 C 255.75 240.542969 255.824219 242.046875 255.914062 243.523438 C 255.929688 243.832031 255.695312 244.097656 255.382812 244.117188 C 255.375 244.117188 255.363281 244.117188 255.351562 244.117188 Z M 47.121094 244.417969 C 47.101562 244.417969 47.085938 244.414062 47.070312 244.414062 C 46.757812 244.386719 46.53125 244.113281 46.558594 243.804688 C 46.695312 242.320312 46.863281 240.808594 47.066406 239.320312 C 47.105469 239.011719 47.386719 238.796875 47.695312 238.839844 C 48.003906 238.882812 48.21875 239.164062 48.175781 239.46875 C 47.980469 240.945312 47.808594 242.4375 47.679688 243.90625 C 47.652344 244.195312 47.40625 244.417969 47.121094 244.417969 Z M 256.039062 253.082031 C 255.753906 253.082031 255.507812 252.863281 255.480469 252.574219 C 255.34375 251.089844 255.210938 249.578125 255.097656 248.085938 C 255.074219 247.777344 255.304688 247.503906 255.613281 247.480469 C 255.917969 247.460938 256.191406 247.691406 256.214844 248 C 256.328125 249.488281 256.457031 250.988281 256.601562 252.46875 C 256.628906 252.773438 256.402344 253.050781 256.09375 253.078125 C 256.074219 253.082031 256.058594 253.082031 256.039062 253.082031 Z M 46.722656 253.382812 C 46.414062 253.382812 46.164062 253.128906 46.164062 252.820312 L 46.164062 252.585938 C 46.164062 251.171875 46.195312 249.734375 46.257812 248.308594 C 46.269531 247.996094 46.53125 247.757812 46.84375 247.769531 C 47.152344 247.785156 47.390625 248.046875 47.378906 248.359375 C 47.316406 249.765625 47.285156 251.1875 47.285156 252.585938 L 47.285156 252.816406 C 47.285156 253.128906 47.035156 253.378906 46.726562 253.382812 C 46.722656 253.382812 46.722656 253.382812 46.722656 253.382812 Z M 257.0625 262.011719 C 256.785156 262.011719 256.546875 261.808594 256.507812 261.527344 C 256.308594 260.0625 256.121094 258.554688 255.953125 257.054688 C 255.917969 256.746094 256.136719 256.46875 256.445312 256.433594 C 256.753906 256.398438 257.03125 256.617188 257.066406 256.925781 C 257.238281 258.421875 257.425781 259.917969 257.617188 261.375 C 257.664062 261.683594 257.445312 261.964844 257.140625 262.007812 C 257.113281 262.011719 257.085938 262.011719 257.0625 262.011719 Z M 47.171875 262.34375 C 46.886719 262.34375 46.640625 262.125 46.613281 261.835938 C 46.46875 260.347656 46.355469 258.832031 46.28125 257.335938 C 46.265625 257.023438 46.503906 256.761719 46.8125 256.746094 C 47.121094 256.722656 47.386719 256.96875 47.402344 257.277344 C 47.476562 258.757812 47.585938 260.257812 47.730469 261.726562 C 47.761719 262.035156 47.535156 262.308594 47.226562 262.339844 C 47.207031 262.34375 47.191406 262.34375 47.171875 262.34375 Z M 258.457031 270.890625 C 258.1875 270.890625 257.953125 270.699219 257.902344 270.429688 C 257.640625 268.976562 257.390625 267.484375 257.15625 265.984375 C 257.109375 265.679688 257.320312 265.390625 257.625 265.34375 C 257.933594 265.296875 258.21875 265.503906 258.265625 265.8125 C 258.5 267.300781 258.75 268.789062 259.007812 270.230469 C 259.0625 270.535156 258.859375 270.828125 258.554688 270.882812 C 258.523438 270.886719 258.488281 270.890625 258.457031 270.890625 Z M 48.484375 271.214844 C 48.222656 271.214844 47.988281 271.03125 47.9375 270.761719 C 47.644531 269.296875 47.386719 267.800781 47.164062 266.316406 C 47.121094 266.007812 47.332031 265.722656 47.636719 265.679688 C 47.945312 265.632812 48.230469 265.84375 48.277344 266.152344 C 48.492188 267.617188 48.75 269.097656 49.035156 270.546875 C 49.097656 270.847656 48.898438 271.144531 48.59375 271.203125 C 48.558594 271.214844 48.519531 271.214844 48.484375 271.214844 Z M 260.261719 279.6875 C 260.007812 279.6875 259.777344 279.511719 259.714844 279.253906 C 259.382812 277.816406 259.058594 276.335938 258.753906 274.855469 C 258.691406 274.550781 258.886719 274.257812 259.191406 274.195312 C 259.496094 274.132812 259.792969 274.328125 259.855469 274.628906 C 260.15625 276.101562 260.476562 277.574219 260.808594 279 C 260.878906 279.300781 260.691406 279.601562 260.390625 279.671875 C 260.347656 279.683594 260.304688 279.6875 260.261719 279.6875 Z M 50.664062 279.917969 C 50.421875 279.917969 50.199219 279.761719 50.128906 279.519531 C 49.691406 278.085938 49.289062 276.621094 48.921875 275.167969 C 48.847656 274.867188 49.03125 274.5625 49.332031 274.488281 C 49.632812 274.414062 49.9375 274.597656 50.011719 274.894531 C 50.371094 276.332031 50.769531 277.777344 51.199219 279.195312 C 51.289062 279.492188 51.125 279.804688 50.828125 279.894531 C 50.773438 279.910156 50.71875 279.917969 50.664062 279.917969 Z M 305.011719 282.558594 C 304.722656 282.558594 304.480469 282.335938 304.453125 282.046875 C 304.425781 281.738281 304.652344 281.464844 304.960938 281.4375 C 306.507812 281.292969 308.035156 281.21875 309.492188 281.214844 C 309.492188 281.214844 309.492188 281.214844 309.496094 281.214844 C 309.804688 281.214844 310.054688 281.464844 310.054688 281.773438 C 310.058594 282.082031 309.804688 282.335938 309.496094 282.335938 C 308.074219 282.339844 306.582031 282.414062 305.066406 282.554688 C 305.046875 282.554688 305.027344 282.558594 305.011719 282.558594 Z M 318.390625 283.308594 C 318.347656 283.308594 318.300781 283.304688 318.257812 283.292969 C 316.882812 282.957031 315.421875 282.710938 313.914062 282.550781 C 313.605469 282.519531 313.382812 282.242188 313.414062 281.933594 C 313.445312 281.625 313.726562 281.402344 314.03125 281.433594 C 315.585938 281.597656 317.097656 281.855469 318.523438 282.199219 C 318.824219 282.277344 319.011719 282.578125 318.9375 282.878906 C 318.875 283.136719 318.644531 283.308594 318.390625 283.308594 Z M 296.277344 284.449219 C 296.050781 284.449219 295.832031 284.308594 295.75 284.082031 C 295.644531 283.789062 295.792969 283.46875 296.085938 283.359375 C 297.632812 282.792969 299.105469 282.355469 300.449219 282.066406 C 300.753906 282 301.050781 282.191406 301.117188 282.496094 C 301.183594 282.796875 300.992188 283.097656 300.691406 283.160156 C 299.390625 283.441406 297.96875 283.863281 296.46875 284.414062 C 296.40625 284.4375 296.34375 284.449219 296.277344 284.449219 Z M 326.605469 286.796875 C 326.5 286.796875 326.394531 286.765625 326.296875 286.707031 C 325.101562 285.917969 323.800781 285.230469 322.433594 284.65625 C 322.148438 284.535156 322.015625 284.207031 322.132812 283.917969 C 322.253906 283.632812 322.582031 283.5 322.867188 283.621094 C 324.296875 284.222656 325.660156 284.941406 326.914062 285.765625 C 327.171875 285.9375 327.246094 286.285156 327.074219 286.542969 C 326.96875 286.707031 326.789062 286.796875 326.605469 286.796875 Z M 288.113281 288.183594 C 287.914062 288.183594 287.71875 288.074219 287.621094 287.882812 C 287.472656 287.609375 287.578125 287.269531 287.851562 287.125 C 289.277344 286.371094 290.640625 285.695312 291.902344 285.109375 C 292.179688 284.976562 292.515625 285.101562 292.644531 285.382812 C 292.777344 285.664062 292.652344 286 292.375 286.128906 C 291.128906 286.703125 289.785156 287.375 288.375 288.117188 C 288.292969 288.164062 288.203125 288.183594 288.113281 288.183594 Z M 53.6875 288.367188 C 53.46875 288.367188 53.257812 288.234375 53.167969 288.019531 C 52.59375 286.632812 52.046875 285.214844 51.542969 283.804688 C 51.4375 283.515625 51.589844 283.195312 51.882812 283.089844 C 52.171875 282.984375 52.496094 283.136719 52.601562 283.429688 C 53.097656 284.820312 53.636719 286.21875 54.207031 287.589844 C 54.324219 287.875 54.1875 288.203125 53.902344 288.324219 C 53.832031 288.351562 53.757812 288.367188 53.6875 288.367188 Z M 262.546875 288.378906 C 262.308594 288.378906 262.082031 288.21875 262.007812 287.976562 C 261.589844 286.558594 261.183594 285.09375 260.796875 283.628906 C 260.71875 283.328125 260.898438 283.023438 261.199219 282.945312 C 261.5 282.863281 261.804688 283.042969 261.882812 283.34375 C 262.265625 284.796875 262.667969 286.25 263.085938 287.65625 C 263.175781 287.957031 263.003906 288.265625 262.707031 288.355469 C 262.65625 288.371094 262.601562 288.378906 262.546875 288.378906 Z M 280.3125 292.636719 C 280.121094 292.636719 279.9375 292.539062 279.832031 292.363281 C 279.667969 292.097656 279.757812 291.753906 280.019531 291.59375 C 281.410156 290.757812 282.679688 290.007812 283.90625 289.304688 C 284.171875 289.152344 284.515625 289.246094 284.667969 289.515625 C 284.824219 289.785156 284.730469 290.125 284.460938 290.28125 C 283.246094 290.976562 281.980469 291.722656 280.601562 292.554688 C 280.511719 292.609375 280.410156 292.636719 280.3125 292.636719 Z M 332.984375 293.023438 C 332.804688 293.023438 332.632812 292.941406 332.523438 292.785156 C 331.679688 291.574219 330.730469 290.449219 329.703125 289.445312 C 329.480469 289.226562 329.476562 288.871094 329.695312 288.652344 C 329.910156 288.429688 330.265625 288.425781 330.488281 288.644531 C 331.5625 289.695312 332.558594 290.871094 333.445312 292.140625 C 333.621094 292.394531 333.558594 292.746094 333.304688 292.921875 C 333.207031 292.992188 333.09375 293.023438 332.984375 293.023438 Z M 57.519531 296.480469 C 57.320312 296.480469 57.125 296.371094 57.023438 296.179688 C 56.316406 294.855469 55.636719 293.496094 54.996094 292.144531 C 54.863281 291.867188 54.984375 291.53125 55.265625 291.398438 C 55.546875 291.265625 55.878906 291.386719 56.011719 291.667969 C 56.640625 293 57.316406 294.34375 58.015625 295.652344 C 58.160156 295.925781 58.054688 296.265625 57.785156 296.414062 C 57.699219 296.457031 57.609375 296.480469 57.519531 296.480469 Z M 265.390625 296.910156 C 265.164062 296.910156 264.949219 296.769531 264.863281 296.542969 C 264.351562 295.167969 263.84375 293.734375 263.363281 292.289062 C 263.265625 291.996094 263.421875 291.675781 263.71875 291.578125 C 264.015625 291.480469 264.332031 291.640625 264.425781 291.933594 C 264.902344 293.367188 265.40625 294.785156 265.914062 296.152344 C 266.023438 296.441406 265.878906 296.765625 265.585938 296.875 C 265.523438 296.898438 265.457031 296.910156 265.390625 296.910156 Z M 272.683594 297.386719 C 272.496094 297.386719 272.316406 297.292969 272.210938 297.125 C 272.042969 296.863281 272.121094 296.519531 272.378906 296.351562 C 273.671875 295.527344 274.945312 294.726562 276.183594 293.953125 C 276.449219 293.789062 276.792969 293.867188 276.957031 294.128906 C 277.121094 294.394531 277.042969 294.738281 276.78125 294.902344 C 275.539062 295.675781 274.273438 296.476562 272.984375 297.296875 C 272.890625 297.359375 272.785156 297.386719 272.683594 297.386719 Z M 336.855469 301.085938 C 336.617188 301.085938 336.398438 300.929688 336.320312 300.691406 C 335.871094 299.25 335.335938 297.871094 334.722656 296.585938 C 334.589844 296.304688 334.710938 295.972656 334.988281 295.835938 C 335.269531 295.707031 335.605469 295.824219 335.738281 296.101562 C 336.371094 297.4375 336.929688 298.867188 337.390625 300.355469 C 337.484375 300.652344 337.320312 300.96875 337.023438 301.058594 C 336.96875 301.078125 336.914062 301.085938 336.855469 301.085938 Z M 62.101562 304.171875 C 61.917969 304.171875 61.742188 304.085938 61.632812 303.921875 C 60.808594 302.671875 60 301.386719 59.238281 300.105469 C 59.078125 299.839844 59.164062 299.492188 59.429688 299.335938 C 59.695312 299.175781 60.042969 299.261719 60.199219 299.53125 C 60.957031 300.796875 61.753906 302.066406 62.570312 303.300781 C 62.738281 303.558594 62.667969 303.910156 62.410156 304.078125 C 62.316406 304.140625 62.207031 304.171875 62.101562 304.171875 Z M 268.878906 305.183594 C 268.667969 305.183594 268.46875 305.066406 268.371094 304.863281 C 267.824219 303.703125 267.285156 302.507812 266.761719 301.292969 C 266.320312 301.578125 265.875 301.867188 265.429688 302.15625 C 265.167969 302.324219 264.820312 302.25 264.648438 301.988281 C 264.484375 301.726562 264.558594 301.382812 264.816406 301.210938 C 266.097656 300.386719 267.359375 299.574219 268.59375 298.777344 C 268.855469 298.609375 269.203125 298.683594 269.371094 298.945312 C 269.539062 299.207031 269.464844 299.554688 269.203125 299.71875 C 268.714844 300.035156 268.21875 300.355469 267.71875 300.675781 C 268.257812 301.9375 268.816406 303.179688 269.386719 304.382812 C 269.515625 304.660156 269.398438 304.996094 269.121094 305.128906 C 269.039062 305.164062 268.960938 305.183594 268.878906 305.183594 Z M 257.566406 307.109375 C 257.378906 307.109375 257.199219 307.015625 257.09375 306.847656 C 256.925781 306.589844 257.003906 306.242188 257.265625 306.074219 C 258.542969 305.257812 259.800781 304.445312 261.042969 303.648438 C 261.304688 303.480469 261.652344 303.554688 261.820312 303.816406 C 261.988281 304.074219 261.910156 304.421875 261.652344 304.59375 C 260.410156 305.390625 259.148438 306.203125 257.867188 307.019531 C 257.777344 307.078125 257.671875 307.109375 257.566406 307.109375 Z M 338.539062 309.886719 C 338.253906 309.886719 338.003906 309.667969 337.980469 309.375 C 337.847656 307.867188 337.648438 306.390625 337.382812 304.984375 C 337.324219 304.679688 337.523438 304.382812 337.828125 304.328125 C 338.132812 304.269531 338.425781 304.46875 338.484375 304.773438 C 338.753906 306.214844 338.960938 307.734375 339.101562 309.277344 C 339.125 309.585938 338.898438 309.855469 338.589844 309.882812 C 338.574219 309.886719 338.554688 309.886719 338.539062 309.886719 Z M 67.386719 311.410156 C 67.222656 311.410156 67.058594 311.339844 66.949219 311.199219 C 66.007812 310.03125 65.085938 308.828125 64.207031 307.621094 C 64.023438 307.371094 64.078125 307.019531 64.328125 306.835938 C 64.578125 306.65625 64.929688 306.707031 65.113281 306.957031 C 65.984375 308.152344 66.894531 309.34375 67.824219 310.496094 C 68.015625 310.738281 67.980469 311.09375 67.738281 311.285156 C 67.632812 311.367188 67.507812 311.410156 67.386719 311.410156 Z M 249.96875 311.90625 C 249.78125 311.90625 249.601562 311.8125 249.492188 311.640625 C 249.328125 311.378906 249.410156 311.03125 249.675781 310.867188 C 250.957031 310.070312 252.226562 309.273438 253.476562 308.484375 C 253.738281 308.316406 254.085938 308.394531 254.25 308.65625 C 254.414062 308.917969 254.339844 309.265625 254.078125 309.433594 C 252.820312 310.222656 251.550781 311.019531 250.265625 311.820312 C 250.175781 311.878906 250.074219 311.90625 249.96875 311.90625 Z M 273.125 313.089844 C 272.933594 313.089844 272.75 312.996094 272.644531 312.820312 C 271.878906 311.5625 271.125 310.242188 270.40625 308.898438 C 270.257812 308.625 270.359375 308.285156 270.632812 308.136719 C 270.90625 307.992188 271.246094 308.09375 271.394531 308.367188 C 272.105469 309.691406 272.847656 310.996094 273.605469 312.238281 C 273.765625 312.503906 273.679688 312.847656 273.417969 313.011719 C 273.324219 313.066406 273.222656 313.089844 273.125 313.089844 Z M 242.300781 316.585938 C 242.109375 316.585938 241.925781 316.488281 241.816406 316.3125 C 241.660156 316.046875 241.746094 315.699219 242.011719 315.542969 C 243.308594 314.769531 244.589844 313.996094 245.855469 313.222656 C 246.117188 313.0625 246.464844 313.144531 246.625 313.410156 C 246.785156 313.671875 246.703125 314.019531 246.4375 314.179688 C 245.171875 314.953125 243.886719 315.730469 242.585938 316.503906 C 242.496094 316.558594 242.398438 316.585938 242.300781 316.585938 Z M 73.3125 318.136719 C 73.167969 318.136719 73.019531 318.082031 72.910156 317.964844 C 71.871094 316.886719 70.839844 315.773438 69.851562 314.648438 C 69.648438 314.417969 69.667969 314.0625 69.902344 313.859375 C 70.132812 313.652344 70.488281 313.675781 70.695312 313.910156 C 71.671875 315.015625 72.6875 316.121094 73.71875 317.1875 C 73.933594 317.410156 73.925781 317.765625 73.703125 317.980469 C 73.59375 318.085938 73.453125 318.136719 73.3125 318.136719 Z M 338.390625 318.839844 C 338.359375 318.839844 338.332031 318.835938 338.300781 318.832031 C 337.996094 318.785156 337.785156 318.496094 337.835938 318.191406 C 338.058594 316.796875 338.171875 315.324219 338.179688 313.808594 C 338.183594 313.496094 338.433594 313.25 338.742188 313.25 C 339.054688 313.25 339.304688 313.503906 339.304688 313.8125 C 339.296875 315.386719 339.175781 316.917969 338.941406 318.367188 C 338.898438 318.644531 338.660156 318.839844 338.390625 318.839844 Z M 278.242188 320.457031 C 278.078125 320.457031 277.914062 320.386719 277.804688 320.246094 C 276.882812 319.09375 275.976562 317.871094 275.105469 316.617188 C 274.929688 316.359375 274.992188 316.011719 275.246094 315.832031 C 275.503906 315.65625 275.851562 315.71875 276.027344 315.976562 C 276.882812 317.210938 277.777344 318.410156 278.679688 319.546875 C 278.875 319.789062 278.835938 320.144531 278.589844 320.335938 C 278.488281 320.417969 278.367188 320.457031 278.242188 320.457031 Z M 234.535156 321.101562 C 234.339844 321.101562 234.148438 321 234.046875 320.816406 C 233.894531 320.546875 233.988281 320.203125 234.261719 320.050781 C 235.527344 319.335938 236.835938 318.585938 238.148438 317.820312 C 238.414062 317.664062 238.761719 317.753906 238.917969 318.023438 C 239.074219 318.289062 238.980469 318.632812 238.714844 318.789062 C 237.398438 319.558594 236.082031 320.308594 234.8125 321.027344 C 234.722656 321.078125 234.628906 321.101562 234.535156 321.101562 Z M 79.820312 324.3125 C 79.6875 324.3125 79.558594 324.265625 79.453125 324.171875 C 78.320312 323.191406 77.195312 322.171875 76.113281 321.140625 C 75.886719 320.929688 75.878906 320.574219 76.089844 320.347656 C 76.304688 320.125 76.660156 320.113281 76.882812 320.328125 C 77.957031 321.34375 79.070312 322.355469 80.1875 323.324219 C 80.421875 323.53125 80.445312 323.882812 80.242188 324.117188 C 80.132812 324.246094 79.976562 324.3125 79.820312 324.3125 Z M 226.65625 325.414062 C 226.457031 325.414062 226.261719 325.308594 226.160156 325.117188 C 226.015625 324.84375 226.121094 324.503906 226.394531 324.359375 C 227.695312 323.667969 229.027344 322.953125 230.339844 322.234375 C 230.613281 322.085938 230.957031 322.183594 231.101562 322.453125 C 231.253906 322.726562 231.15625 323.066406 230.882812 323.214844 C 229.558594 323.941406 228.226562 324.65625 226.917969 325.347656 C 226.835938 325.394531 226.746094 325.414062 226.65625 325.414062 Z M 284.328125 327.042969 C 284.191406 327.042969 284.054688 326.992188 283.945312 326.894531 C 282.859375 325.886719 281.78125 324.804688 280.746094 323.683594 C 280.535156 323.457031 280.550781 323.101562 280.777344 322.890625 C 281.007812 322.683594 281.359375 322.695312 281.570312 322.921875 C 282.585938 324.023438 283.640625 325.082031 284.707031 326.070312 C 284.9375 326.28125 284.949219 326.636719 284.738281 326.863281 C 284.628906 326.984375 284.476562 327.042969 284.328125 327.042969 Z M 335.351562 327.222656 C 335.25 327.222656 335.144531 327.195312 335.058594 327.136719 C 334.792969 326.976562 334.710938 326.628906 334.871094 326.367188 C 335.625 325.136719 336.261719 323.816406 336.757812 322.429688 C 336.863281 322.136719 337.183594 321.988281 337.472656 322.09375 C 337.765625 322.195312 337.917969 322.519531 337.8125 322.808594 C 337.292969 324.265625 336.621094 325.660156 335.828125 326.953125 C 335.722656 327.125 335.539062 327.222656 335.351562 327.222656 Z M 218.652344 329.488281 C 218.445312 329.488281 218.246094 329.375 218.148438 329.175781 C 218.011719 328.894531 218.125 328.558594 218.40625 328.421875 C 219.726562 327.78125 221.074219 327.105469 222.417969 326.425781 C 222.691406 326.28125 223.03125 326.394531 223.171875 326.667969 C 223.3125 326.945312 223.203125 327.28125 222.925781 327.421875 C 221.578125 328.109375 220.222656 328.785156 218.898438 329.429688 C 218.820312 329.46875 218.734375 329.488281 218.652344 329.488281 Z M 86.84375 329.890625 C 86.730469 329.890625 86.613281 329.855469 86.515625 329.78125 C 85.300781 328.902344 84.09375 327.984375 82.921875 327.054688 C 82.679688 326.863281 82.640625 326.511719 82.832031 326.265625 C 83.023438 326.023438 83.378906 325.984375 83.621094 326.175781 C 84.78125 327.097656 85.976562 328.003906 87.175781 328.875 C 87.425781 329.054688 87.480469 329.40625 87.300781 329.660156 C 87.1875 329.808594 87.019531 329.890625 86.84375 329.890625 Z M 291.386719 332.546875 C 291.28125 332.546875 291.175781 332.515625 291.082031 332.457031 C 289.828125 331.644531 288.585938 330.761719 287.390625 329.828125 C 287.148438 329.636719 287.105469 329.285156 287.292969 329.039062 C 287.484375 328.796875 287.839844 328.753906 288.082031 328.941406 C 289.25 329.855469 290.464844 330.71875 291.691406 331.511719 C 291.953125 331.679688 292.027344 332.027344 291.859375 332.289062 C 291.75 332.453125 291.570312 332.546875 291.386719 332.546875 Z M 210.511719 333.285156 C 210.296875 333.285156 210.09375 333.160156 210 332.953125 C 209.875 332.667969 210.003906 332.335938 210.285156 332.210938 C 211.632812 331.613281 213.003906 330.988281 214.359375 330.355469 C 214.644531 330.222656 214.976562 330.34375 215.109375 330.625 C 215.238281 330.90625 215.117188 331.242188 214.835938 331.371094 C 213.472656 332.011719 212.09375 332.636719 210.742188 333.238281 C 210.667969 333.269531 210.589844 333.285156 210.511719 333.285156 Z M 329.238281 333.714844 C 329.066406 333.714844 328.894531 333.636719 328.785156 333.484375 C 328.601562 333.234375 328.660156 332.882812 328.910156 332.703125 C 330.121094 331.824219 331.230469 330.855469 332.210938 329.824219 C 332.421875 329.601562 332.78125 329.589844 333.003906 329.804688 C 333.230469 330.015625 333.238281 330.371094 333.027344 330.597656 C 332 331.679688 330.835938 332.695312 329.570312 333.613281 C 329.46875 333.683594 329.351562 333.714844 329.238281 333.714844 Z M 94.328125 334.835938 C 94.226562 334.835938 94.128906 334.8125 94.039062 334.757812 C 92.757812 333.988281 91.472656 333.175781 90.222656 332.351562 C 89.964844 332.179688 89.894531 331.832031 90.0625 331.574219 C 90.234375 331.316406 90.582031 331.242188 90.839844 331.414062 C 92.078125 332.234375 93.347656 333.035156 94.617188 333.792969 C 94.882812 333.953125 94.96875 334.296875 94.808594 334.566406 C 94.703125 334.742188 94.519531 334.835938 94.328125 334.835938 Z M 299.3125 336.703125 C 299.242188 336.703125 299.171875 336.6875 299.101562 336.660156 C 297.703125 336.085938 296.324219 335.4375 294.992188 334.742188 C 294.714844 334.597656 294.613281 334.257812 294.753906 333.984375 C 294.898438 333.707031 295.238281 333.601562 295.511719 333.746094 C 296.816406 334.429688 298.164062 335.058594 299.527344 335.621094 C 299.816406 335.738281 299.949219 336.066406 299.832031 336.355469 C 299.742188 336.570312 299.53125 336.703125 299.3125 336.703125 Z M 202.234375 336.765625 C 202.011719 336.765625 201.800781 336.632812 201.714844 336.414062 C 201.597656 336.125 201.742188 335.800781 202.03125 335.683594 C 203.402344 335.140625 204.792969 334.570312 206.175781 333.988281 C 206.460938 333.871094 206.789062 334.003906 206.910156 334.289062 C 207.03125 334.574219 206.894531 334.902344 206.609375 335.023438 C 205.222656 335.609375 203.820312 336.179688 202.441406 336.726562 C 202.375 336.753906 202.304688 336.765625 202.234375 336.765625 Z M 321.257812 337.757812 C 321.023438 337.757812 320.804688 337.609375 320.726562 337.375 C 320.628906 337.078125 320.789062 336.761719 321.085938 336.664062 C 322.34375 336.253906 323.585938 335.75 324.773438 335.167969 C 324.898438 335.105469 325.023438 335.042969 325.148438 334.980469 C 325.425781 334.839844 325.765625 334.953125 325.902344 335.226562 C 326.042969 335.503906 325.933594 335.839844 325.65625 335.980469 C 325.527344 336.046875 325.398438 336.113281 325.265625 336.175781 C 324.03125 336.777344 322.742188 337.304688 321.433594 337.734375 C 321.378906 337.75 321.320312 337.757812 321.257812 337.757812 Z M 307.960938 339.023438 C 307.9375 339.023438 307.914062 339.019531 307.890625 339.015625 C 306.390625 338.832031 304.882812 338.539062 303.410156 338.140625 C 303.109375 338.0625 302.933594 337.753906 303.015625 337.453125 C 303.09375 337.15625 303.402344 336.976562 303.699219 337.058594 C 305.121094 337.441406 306.578125 337.726562 308.027344 337.902344 C 308.335938 337.941406 308.554688 338.222656 308.515625 338.53125 C 308.480469 338.8125 308.238281 339.023438 307.960938 339.023438 Z M 102.210938 339.117188 C 102.128906 339.117188 102.042969 339.097656 101.964844 339.058594 C 100.621094 338.402344 99.273438 337.710938 97.953125 336.996094 C 97.683594 336.847656 97.582031 336.507812 97.730469 336.234375 C 97.875 335.960938 98.21875 335.859375 98.488281 336.007812 C 99.792969 336.714844 101.128906 337.402344 102.457031 338.050781 C 102.734375 338.1875 102.851562 338.523438 102.714844 338.800781 C 102.617188 339 102.417969 339.117188 102.210938 339.117188 Z M 312.4375 339.25 C 312.136719 339.25 311.882812 339.007812 311.878906 338.703125 C 311.871094 338.394531 312.117188 338.136719 312.429688 338.128906 C 313.898438 338.101562 315.375 337.960938 316.8125 337.71875 C 317.113281 337.667969 317.40625 337.875 317.460938 338.179688 C 317.507812 338.484375 317.304688 338.773438 317 338.824219 C 315.507812 339.078125 313.976562 339.222656 312.453125 339.25 C 312.445312 339.25 312.441406 339.25 312.4375 339.25 Z M 193.820312 339.898438 C 193.585938 339.898438 193.371094 339.75 193.289062 339.515625 C 193.1875 339.226562 193.34375 338.90625 193.636719 338.804688 C 195.027344 338.320312 196.445312 337.8125 197.847656 337.292969 C 198.136719 337.183594 198.460938 337.332031 198.570312 337.621094 C 198.675781 337.914062 198.53125 338.234375 198.238281 338.34375 C 196.828125 338.867188 195.402344 339.378906 194.003906 339.863281 C 193.941406 339.886719 193.878906 339.898438 193.820312 339.898438 Z M 185.269531 342.632812 C 185.027344 342.632812 184.800781 342.476562 184.730469 342.230469 C 184.644531 341.933594 184.8125 341.621094 185.109375 341.535156 C 186.527344 341.117188 187.96875 340.675781 189.390625 340.21875 C 189.683594 340.125 190 340.289062 190.09375 340.582031 C 190.191406 340.878906 190.027344 341.195312 189.730469 341.289062 C 188.300781 341.746094 186.855469 342.191406 185.425781 342.613281 C 185.375 342.625 185.320312 342.632812 185.269531 342.632812 Z M 110.433594 342.691406 C 110.367188 342.691406 110.300781 342.679688 110.234375 342.65625 C 108.839844 342.121094 107.433594 341.546875 106.058594 340.949219 C 105.773438 340.824219 105.644531 340.496094 105.769531 340.210938 C 105.890625 339.925781 106.222656 339.796875 106.507812 339.917969 C 107.867188 340.511719 109.253906 341.078125 110.636719 341.609375 C 110.925781 341.71875 111.070312 342.042969 110.957031 342.332031 C 110.871094 342.554688 110.660156 342.691406 110.433594 342.691406 Z M 176.59375 344.945312 C 176.339844 344.945312 176.109375 344.773438 176.050781 344.515625 C 175.976562 344.214844 176.164062 343.914062 176.464844 343.839844 C 177.902344 343.496094 179.363281 343.128906 180.800781 342.742188 C 181.101562 342.664062 181.410156 342.839844 181.488281 343.140625 C 181.570312 343.4375 181.390625 343.746094 181.089844 343.824219 C 179.640625 344.214844 178.171875 344.585938 176.726562 344.929688 C 176.683594 344.941406 176.636719 344.945312 176.59375 344.945312 Z M 118.941406 345.527344 C 118.890625 345.527344 118.839844 345.523438 118.789062 345.503906 C 117.351562 345.097656 115.902344 344.648438 114.480469 344.175781 C 114.183594 344.078125 114.027344 343.761719 114.125 343.46875 C 114.222656 343.171875 114.539062 343.015625 114.835938 343.113281 C 116.242188 343.582031 117.675781 344.023438 119.09375 344.425781 C 119.394531 344.511719 119.566406 344.820312 119.480469 345.117188 C 119.410156 345.367188 119.1875 345.527344 118.941406 345.527344 Z M 167.8125 346.796875 C 167.546875 346.796875 167.308594 346.609375 167.261719 346.339844 C 167.207031 346.035156 167.40625 345.742188 167.710938 345.6875 C 169.164062 345.421875 170.644531 345.128906 172.101562 344.820312 C 172.402344 344.757812 172.703125 344.953125 172.765625 345.253906 C 172.832031 345.558594 172.636719 345.855469 172.332031 345.921875 C 170.863281 346.230469 169.378906 346.523438 167.914062 346.789062 C 167.878906 346.796875 167.84375 346.796875 167.8125 346.796875 Z M 127.671875 347.578125 C 127.636719 347.578125 127.601562 347.574219 127.566406 347.570312 C 126.097656 347.292969 124.613281 346.980469 123.15625 346.636719 C 122.851562 346.570312 122.664062 346.265625 122.738281 345.964844 C 122.808594 345.660156 123.109375 345.472656 123.410156 345.546875 C 124.855469 345.886719 126.320312 346.195312 127.773438 346.464844 C 128.078125 346.523438 128.28125 346.816406 128.222656 347.121094 C 128.171875 347.390625 127.9375 347.578125 127.671875 347.578125 Z M 158.941406 348.160156 C 158.660156 348.160156 158.417969 347.953125 158.382812 347.667969 C 158.34375 347.359375 158.5625 347.078125 158.871094 347.042969 C 160.335938 346.859375 161.828125 346.652344 163.300781 346.425781 C 163.605469 346.378906 163.890625 346.589844 163.941406 346.894531 C 163.988281 347.203125 163.777344 347.488281 163.472656 347.535156 C 161.988281 347.761719 160.488281 347.972656 159.011719 348.15625 C 158.988281 348.160156 158.964844 348.160156 158.941406 348.160156 Z M 136.554688 348.804688 C 136.539062 348.804688 136.523438 348.804688 136.503906 348.800781 C 135.015625 348.667969 133.507812 348.496094 132.023438 348.292969 C 131.714844 348.25 131.5 347.964844 131.542969 347.660156 C 131.585938 347.351562 131.867188 347.136719 132.175781 347.179688 C 133.644531 347.382812 135.136719 347.554688 136.605469 347.683594 C 136.914062 347.710938 137.140625 347.984375 137.113281 348.292969 C 137.085938 348.585938 136.84375 348.804688 136.554688 348.804688 Z M 150.003906 349.003906 C 149.710938 349.003906 149.460938 348.773438 149.445312 348.476562 C 149.425781 348.167969 149.660156 347.902344 149.96875 347.882812 C 150.226562 347.867188 150.484375 347.847656 150.742188 347.832031 C 151.96875 347.746094 153.207031 347.644531 154.425781 347.527344 C 154.734375 347.496094 155.007812 347.726562 155.039062 348.035156 C 155.066406 348.34375 154.839844 348.617188 154.53125 348.644531 C 153.304688 348.761719 152.054688 348.863281 150.820312 348.953125 C 150.558594 348.96875 150.300781 348.988281 150.039062 349.003906 C 150.027344 349.003906 150.015625 349.003906 150.003906 349.003906 Z M 144.636719 349.167969 C 143.433594 349.167969 142.214844 349.144531 141.007812 349.09375 C 140.699219 349.082031 140.457031 348.820312 140.472656 348.511719 C 140.484375 348.203125 140.734375 347.964844 141.054688 347.972656 C 142.539062 348.03125 144.035156 348.054688 145.511719 348.039062 C 145.824219 348.039062 146.074219 348.285156 146.078125 348.59375 C 146.082031 348.90625 145.832031 349.160156 145.523438 349.164062 C 145.226562 349.164062 144.929688 349.167969 144.636719 349.167969 " fill-opacity="1" fill-rule="nonzero"/><path fill="#19598f" d="M 185.859375 154.171875 C 185.851562 154.171875 185.84375 154.171875 185.835938 154.171875 C 184.378906 154.113281 182.863281 154.09375 181.378906 154.117188 C 181.074219 154.121094 180.816406 153.875 180.8125 153.566406 C 180.804688 153.253906 181.054688 153 181.363281 152.996094 C 182.867188 152.972656 184.402344 152.992188 185.882812 153.050781 C 186.191406 153.0625 186.433594 153.324219 186.421875 153.632812 C 186.410156 153.933594 186.160156 154.171875 185.859375 154.171875 Z M 172.410156 154.683594 C 172.128906 154.683594 171.882812 154.472656 171.851562 154.183594 C 171.816406 153.875 172.039062 153.601562 172.347656 153.566406 C 173.859375 153.402344 175.371094 153.269531 176.847656 153.171875 C 177.15625 153.15625 177.421875 153.386719 177.445312 153.699219 C 177.464844 154.007812 177.230469 154.273438 176.921875 154.292969 C 175.460938 154.386719 173.960938 154.515625 172.46875 154.679688 C 172.449219 154.683594 172.429688 154.683594 172.410156 154.683594 Z M 194.789062 155.078125 C 194.753906 155.078125 194.726562 155.074219 194.691406 155.066406 C 193.261719 154.828125 191.78125 154.628906 190.28125 154.480469 C 189.972656 154.449219 189.746094 154.171875 189.777344 153.867188 C 189.808594 153.558594 190.085938 153.332031 190.390625 153.363281 C 191.917969 153.515625 193.425781 153.71875 194.878906 153.960938 C 195.183594 154.011719 195.390625 154.300781 195.339844 154.609375 C 195.292969 154.882812 195.054688 155.078125 194.789062 155.078125 Z M 163.53125 156.046875 C 163.269531 156.046875 163.035156 155.863281 162.980469 155.59375 C 162.921875 155.289062 163.121094 154.996094 163.421875 154.933594 C 164.894531 154.644531 166.390625 154.382812 167.871094 154.15625 C 168.175781 154.109375 168.464844 154.320312 168.511719 154.625 C 168.558594 154.929688 168.347656 155.21875 168.042969 155.265625 C 166.578125 155.488281 165.09375 155.75 163.640625 156.035156 C 163.605469 156.046875 163.566406 156.046875 163.53125 156.046875 Z M 203.074219 157.097656 C 203.015625 157.097656 202.957031 157.089844 202.898438 157.070312 C 201.65625 156.664062 200.359375 156.292969 199.046875 155.96875 C 198.746094 155.890625 198.5625 155.589844 198.636719 155.289062 C 198.710938 154.988281 199.015625 154.804688 199.316406 154.878906 C 200.65625 155.207031 201.980469 155.585938 203.246094 156.003906 C 203.542969 156.097656 203.703125 156.417969 203.605469 156.710938 C 203.527344 156.949219 203.3125 157.097656 203.074219 157.097656 Z M 154.804688 158.195312 C 154.570312 158.195312 154.347656 158.042969 154.269531 157.804688 C 154.175781 157.511719 154.335938 157.195312 154.632812 157.097656 C 154.699219 157.078125 156.28125 156.566406 159.011719 155.902344 C 159.3125 155.832031 159.617188 156.015625 159.691406 156.316406 C 159.761719 156.617188 159.578125 156.921875 159.277344 156.992188 C 156.589844 157.648438 154.992188 158.160156 154.976562 158.167969 C 154.921875 158.183594 154.863281 158.195312 154.804688 158.195312 " fill-opacity="1" fill-rule="nonzero"/><path fill="#19598f" d="M 193.746094 128.050781 C 193.648438 128.050781 193.554688 128.027344 193.464844 127.976562 C 192.152344 127.222656 190.824219 126.550781 189.515625 125.988281 C 189.230469 125.863281 189.101562 125.53125 189.222656 125.25 C 189.34375 124.964844 189.675781 124.832031 189.960938 124.957031 C 191.308594 125.539062 192.675781 126.230469 194.023438 127.003906 C 194.296875 127.15625 194.386719 127.5 194.230469 127.769531 C 194.128906 127.953125 193.941406 128.050781 193.746094 128.050781 Z M 201.078125 133.226562 C 200.949219 133.226562 200.820312 133.183594 200.714844 133.09375 C 199.566406 132.125 198.382812 131.207031 197.199219 130.371094 C 196.949219 130.195312 196.886719 129.84375 197.066406 129.589844 C 197.246094 129.335938 197.597656 129.277344 197.847656 129.457031 C 199.054688 130.3125 200.261719 131.246094 201.4375 132.234375 C 201.675781 132.433594 201.707031 132.789062 201.507812 133.023438 C 201.394531 133.15625 201.238281 133.226562 201.078125 133.226562 Z M 207.460938 139.546875 C 207.300781 139.546875 207.136719 139.472656 207.023438 139.335938 C 207.015625 139.320312 205.917969 137.972656 204.007812 136.089844 C 203.785156 135.871094 203.78125 135.515625 204 135.296875 C 204.214844 135.074219 204.570312 135.074219 204.792969 135.289062 C 206.753906 137.222656 207.851562 138.574219 207.898438 138.628906 C 208.09375 138.871094 208.058594 139.222656 207.8125 139.417969 C 207.710938 139.503906 207.585938 139.546875 207.460938 139.546875 " fill-opacity="1" fill-rule="nonzero"/><path fill="#0c2840" d="M 322.585938 311.480469 C 322.585938 316.691406 314.667969 328.871094 312.125 332.652344 C 311.753906 333.203125 310.941406 333.203125 310.570312 332.652344 C 308.027344 328.871094 300.109375 316.691406 300.109375 311.480469 C 300.109375 305.277344 305.140625 300.242188 311.347656 300.242188 C 317.554688 300.242188 322.585938 305.277344 322.585938 311.480469 " fill-opacity="1" fill-rule="nonzero"/><path fill="#ffffff" d="M 315.375 311.484375 C 315.375 313.707031 313.570312 315.511719 311.34375 315.511719 C 309.121094 315.511719 307.316406 313.707031 307.316406 311.484375 C 307.316406 309.257812 309.121094 307.457031 311.34375 307.457031 C 313.570312 307.457031 315.375 309.257812 315.375 311.484375 " fill-opacity="1" fill-rule="nonzero"/></svg>