<svg xmlns="http://www.w3.org/2000/svg" xmlns:xlink="http://www.w3.org/1999/xlink" width="500" zoomAndPan="magnify" viewBox="0 0 375 374.999991" height="500" preserveAspectRatio="xMidYMid meet" version="1.0"><defs><clipPath id="91c20dea93"><path d="M 34.785156 69.910156 L 340.035156 69.910156 L 340.035156 295 L 34.785156 295 Z M 34.785156 69.910156 " clip-rule="nonzero"/></clipPath><clipPath id="88936cd0f6"><path d="M 266.613281 275.945312 L 295.777344 275.945312 L 295.777344 305.066406 L 266.613281 305.066406 Z M 266.613281 275.945312 " clip-rule="nonzero"/></clipPath></defs><path fill="#ffffff" d="M 296.304688 133.367188 C 292.492188 133.367188 288.808594 133.894531 285.304688 134.855469 C 285.324219 134.363281 285.339844 133.867188 285.339844 133.367188 C 285.339844 112.546875 268.460938 95.664062 247.636719 95.664062 C 243.015625 95.664062 238.589844 96.5 234.5 98.019531 C 229.464844 83.121094 215.382812 72.390625 198.78125 72.390625 C 183.925781 72.390625 171.082031 80.988281 164.9375 93.472656 C 158.117188 86.660156 148.699219 82.445312 138.292969 82.445312 C 120.070312 82.445312 104.863281 95.375 101.355469 112.566406 C 96.972656 110.96875 92.242188 110.097656 87.308594 110.097656 C 64.664062 110.097656 46.308594 128.453125 46.308594 151.097656 C 46.308594 161.796875 50.414062 171.539062 57.128906 178.839844 C 45.21875 185.996094 37.246094 199.035156 37.246094 213.945312 C 37.246094 236.542969 55.566406 254.867188 78.167969 254.867188 C 81.320312 254.867188 84.382812 254.496094 87.332031 253.824219 C 87.796875 274.964844 105.066406 291.964844 126.320312 291.964844 C 147.867188 291.964844 165.332031 274.5 165.332031 252.953125 C 165.332031 251.410156 165.230469 249.886719 165.058594 248.386719 C 170.519531 251.300781 176.753906 252.953125 183.375 252.953125 C 199.015625 252.953125 212.503906 243.742188 218.722656 230.449219 C 225.21875 235.292969 233.28125 238.160156 242.007812 238.160156 C 258.917969 238.160156 273.3125 227.398438 278.722656 212.351562 C 284.0625 214.855469 290.019531 216.265625 296.304688 216.265625 C 319.195312 216.265625 337.753906 197.707031 337.753906 174.816406 C 337.753906 151.925781 319.195312 133.367188 296.304688 133.367188 " fill-opacity="1" fill-rule="nonzero"/><g clip-path="url(#91c20dea93)"><path fill="#092135" d="M 87.332031 251.363281 C 87.875 251.363281 88.40625 251.542969 88.84375 251.882812 C 89.425781 252.335938 89.777344 253.027344 89.792969 253.765625 C 90.222656 273.472656 106.609375 289.507812 126.320312 289.507812 C 146.476562 289.507812 162.871094 273.109375 162.871094 252.953125 C 162.871094 251.582031 162.785156 250.140625 162.613281 248.675781 C 162.507812 247.765625 162.917969 246.871094 163.671875 246.355469 C 164.425781 245.84375 165.410156 245.789062 166.214844 246.21875 C 171.464844 249.015625 177.398438 250.496094 183.375 250.496094 C 197.5 250.496094 210.503906 242.21875 216.492188 229.40625 C 216.804688 228.738281 217.40625 228.246094 218.121094 228.066406 C 218.839844 227.886719 219.597656 228.039062 220.191406 228.476562 C 226.53125 233.203125 234.078125 235.699219 242.007812 235.699219 C 257.382812 235.699219 271.207031 225.984375 276.410156 211.519531 C 276.640625 210.867188 277.140625 210.34375 277.777344 210.078125 C 278.417969 209.816406 279.140625 209.832031 279.765625 210.125 C 284.96875 212.566406 290.535156 213.804688 296.308594 213.804688 C 317.804688 213.804688 335.292969 196.3125 335.292969 174.816406 C 335.292969 153.316406 317.804688 135.828125 296.308594 135.828125 C 292.816406 135.828125 289.332031 136.300781 285.953125 137.226562 C 285.199219 137.4375 284.386719 137.269531 283.773438 136.78125 C 283.160156 136.296875 282.816406 135.546875 282.84375 134.761719 C 282.863281 134.296875 282.882812 133.835938 282.882812 133.367188 C 282.882812 113.933594 267.070312 98.125 247.636719 98.125 C 243.417969 98.125 239.285156 98.867188 235.355469 100.328125 C 234.734375 100.558594 234.042969 100.527344 233.441406 100.242188 C 232.84375 99.953125 232.382812 99.4375 232.167969 98.808594 C 227.324219 84.480469 213.910156 74.851562 198.78125 74.851562 C 185.25 74.851562 173.128906 82.402344 167.144531 94.558594 C 166.796875 95.269531 166.125 95.769531 165.339844 95.898438 C 164.5625 96.027344 163.761719 95.773438 163.203125 95.214844 C 156.546875 88.566406 147.699219 84.90625 138.292969 84.90625 C 121.617188 84.90625 107.09375 96.746094 103.761719 113.058594 C 103.621094 113.757812 103.179688 114.367188 102.554688 114.714844 C 101.929688 115.0625 101.179688 115.121094 100.511719 114.875 C 96.289062 113.335938 91.84375 112.554688 87.308594 112.554688 C 66.058594 112.554688 48.769531 129.84375 48.769531 151.097656 C 48.769531 160.785156 52.382812 170.046875 58.941406 177.175781 C 59.441406 177.71875 59.667969 178.460938 59.5625 179.191406 C 59.457031 179.921875 59.03125 180.570312 58.394531 180.949219 C 46.691406 187.980469 39.703125 200.3125 39.703125 213.945312 C 39.703125 235.152344 56.957031 252.40625 78.167969 252.40625 C 81.035156 252.40625 83.933594 252.078125 86.785156 251.425781 C 86.964844 251.382812 87.148438 251.363281 87.332031 251.363281 Z M 126.320312 294.425781 C 104.929688 294.425781 86.988281 277.785156 85.039062 256.773438 C 82.753906 257.140625 80.453125 257.324219 78.167969 257.324219 C 54.246094 257.324219 34.785156 237.863281 34.785156 213.945312 C 34.785156 199.769531 41.863281 186.371094 53.429688 178.308594 C 47.230469 170.609375 43.851562 161.050781 43.851562 151.097656 C 43.851562 127.132812 63.34375 107.636719 87.308594 107.636719 C 91.496094 107.636719 95.617188 108.226562 99.585938 109.398438 C 104.359375 92.199219 120.214844 79.988281 138.292969 79.988281 C 147.921875 79.988281 157.03125 83.351562 164.285156 89.523438 C 171.511719 77.359375 184.453125 69.933594 198.78125 69.933594 C 215.195312 69.933594 229.84375 79.878906 235.972656 94.929688 C 239.742188 93.785156 243.65625 93.207031 247.636719 93.207031 C 269.242188 93.207031 286.914062 110.351562 287.769531 131.75 C 290.582031 131.191406 293.4375 130.910156 296.308594 130.910156 C 320.515625 130.910156 340.210938 150.605469 340.210938 174.816406 C 340.210938 199.027344 320.515625 218.722656 296.308594 218.722656 C 290.6875 218.722656 285.238281 217.679688 280.074219 215.617188 C 273.554688 230.675781 258.574219 240.621094 242.007812 240.621094 C 233.984375 240.621094 226.304688 238.363281 219.628906 234.070312 C 212.363281 247.125 198.433594 255.414062 183.375 255.414062 C 178.03125 255.414062 172.714844 254.371094 167.785156 252.375 C 167.789062 252.570312 167.789062 252.761719 167.789062 252.953125 C 167.789062 275.820312 149.1875 294.425781 126.320312 294.425781 " fill-opacity="1" fill-rule="nonzero"/></g><path fill="#092135" d="M 125.378906 147.398438 C 125.203125 147.398438 125.023438 147.378906 124.84375 147.339844 C 123.519531 147.046875 122.679688 145.734375 122.972656 144.40625 C 125.171875 134.460938 118.871094 124.578125 108.925781 122.378906 C 107.597656 122.082031 106.761719 120.769531 107.054688 119.445312 C 107.347656 118.121094 108.652344 117.292969 109.988281 117.574219 C 122.582031 120.363281 130.5625 132.875 127.777344 145.46875 C 127.523438 146.617188 126.507812 147.398438 125.378906 147.398438 " fill-opacity="1" fill-rule="nonzero"/><path fill="#092135" d="M 122.1875 130.304688 C 121.378906 130.304688 120.582031 129.90625 120.113281 129.167969 C 119.382812 128.023438 119.71875 126.503906 120.863281 125.773438 C 126.132812 122.414062 132.394531 121.308594 138.496094 122.65625 C 139.824219 122.949219 140.660156 124.261719 140.367188 125.589844 C 140.074219 126.914062 138.753906 127.742188 137.433594 127.460938 C 132.617188 126.390625 127.671875 127.269531 123.511719 129.921875 C 123.101562 130.183594 122.640625 130.304688 122.1875 130.304688 " fill-opacity="1" fill-rule="nonzero"/><path fill="#092135" d="M 260.488281 170.089844 C 259.195312 170.089844 258.113281 169.082031 258.039062 167.773438 C 257.355469 155.976562 264.175781 144.878906 275 140.152344 C 276.242188 139.613281 277.695312 140.179688 278.238281 141.425781 C 278.78125 142.667969 278.210938 144.117188 276.964844 144.664062 C 268.019531 148.570312 262.386719 157.742188 262.949219 167.492188 C 263.027344 168.847656 261.988281 170.011719 260.632812 170.085938 C 260.585938 170.089844 260.539062 170.089844 260.488281 170.089844 " fill-opacity="1" fill-rule="nonzero"/><path fill="#092135" d="M 265.578125 152.292969 C 264.996094 152.292969 264.414062 152.089844 263.945312 151.671875 C 258.289062 146.628906 254.9375 139.691406 254.503906 132.132812 C 254.429688 130.777344 255.460938 129.613281 256.820312 129.539062 C 258.214844 129.445312 259.335938 130.496094 259.414062 131.851562 C 259.773438 138.097656 262.546875 143.835938 267.21875 147.996094 C 268.230469 148.902344 268.320312 150.457031 267.417969 151.472656 C 266.929688 152.015625 266.257812 152.292969 265.578125 152.292969 " fill-opacity="1" fill-rule="nonzero"/><path fill="#19598f" d="M 256.246094 275.726562 C 256.246094 289.441406 245.125 300.558594 231.414062 300.558594 C 217.699219 300.558594 206.582031 289.441406 206.582031 275.726562 C 206.582031 262.015625 217.699219 250.898438 231.414062 250.898438 C 245.125 250.898438 256.246094 262.015625 256.246094 275.726562 " fill-opacity="1" fill-rule="nonzero"/><path fill="#092135" d="M 231.414062 253.355469 C 219.078125 253.355469 209.042969 263.390625 209.042969 275.726562 C 209.042969 288.066406 219.078125 298.097656 231.414062 298.097656 C 243.75 298.097656 253.785156 288.066406 253.785156 275.726562 C 253.785156 263.390625 243.75 253.355469 231.414062 253.355469 Z M 231.414062 303.019531 C 216.363281 303.019531 204.125 290.777344 204.125 275.726562 C 204.125 260.679688 216.363281 248.4375 231.414062 248.4375 C 246.460938 248.4375 258.703125 260.679688 258.703125 275.726562 C 258.703125 290.777344 246.460938 303.019531 231.414062 303.019531 " fill-opacity="1" fill-rule="nonzero"/><path fill="#19598f" d="M 293.277344 290.523438 C 293.277344 297.195312 287.867188 302.605469 281.195312 302.605469 C 274.519531 302.605469 269.109375 297.195312 269.109375 290.523438 C 269.109375 283.847656 274.519531 278.4375 281.195312 278.4375 C 287.867188 278.4375 293.277344 283.847656 293.277344 290.523438 " fill-opacity="1" fill-rule="nonzero"/><g clip-path="url(#88936cd0f6)"><path fill="#092135" d="M 281.195312 280.898438 C 275.886719 280.898438 271.570312 285.214844 271.570312 290.523438 C 271.570312 295.828125 275.886719 300.144531 281.195312 300.144531 C 286.5 300.144531 290.816406 295.828125 290.816406 290.523438 C 290.816406 285.214844 286.5 280.898438 281.195312 280.898438 Z M 281.195312 305.066406 C 273.175781 305.066406 266.652344 298.542969 266.652344 290.523438 C 266.652344 282.503906 273.175781 275.980469 281.195312 275.980469 C 289.210938 275.980469 295.734375 282.503906 295.734375 290.523438 C 295.734375 298.542969 289.210938 305.066406 281.195312 305.066406 " fill-opacity="1" fill-rule="nonzero"/></g><path fill="#19598f" d="M 171.839844 173.828125 L 171.683594 196.191406 L 233.097656 196.621094 L 233.523438 135.207031 L 209.289062 135.039062 L 208.792969 134.734375 C 211.617188 132.140625 213.175781 128.191406 212.4375 123.910156 C 211.625 119.21875 207.914062 115.386719 203.246094 114.449219 C 195.683594 112.921875 189.019531 118.636719 188.96875 125.941406 C 188.941406 129.519531 190.507812 132.738281 193.003906 134.925781 L 192.894531 134.925781 L 172.113281 134.78125 L 171.957031 157.0625 L 172.257812 157.066406 C 174.816406 154.359375 178.640625 152.859375 182.777344 153.511719 C 187.949219 154.328125 192.042969 158.648438 192.609375 163.851562 C 193.390625 171.023438 187.769531 177.0625 180.773438 177.011719 C 177.195312 176.988281 174 175.378906 171.847656 172.851562 L 171.839844 173.828125 " fill-opacity="1" fill-rule="nonzero"/><path fill="#092135" d="M 174.160156 193.75 L 230.652344 194.144531 L 231.046875 137.652344 L 209.273438 137.5 C 208.828125 137.496094 208.390625 137.371094 208.007812 137.136719 L 207.511719 136.835938 C 206.855469 136.433594 206.421875 135.746094 206.34375 134.976562 C 206.269531 134.207031 206.558594 133.449219 207.128906 132.925781 C 209.492188 130.757812 210.566406 127.539062 210.011719 124.328125 C 209.371094 120.605469 206.457031 117.601562 202.761719 116.859375 C 199.898438 116.285156 197.101562 116.953125 194.890625 118.75 C 192.710938 120.527344 191.445312 123.152344 191.425781 125.960938 C 191.40625 128.683594 192.574219 131.28125 194.625 133.074219 C 195.394531 133.75 195.667969 134.832031 195.304688 135.789062 C 194.945312 136.75 194.027344 137.386719 193.003906 137.386719 L 174.554688 137.257812 L 174.449219 152.425781 C 177.09375 151.101562 180.128906 150.605469 183.160156 151.082031 C 189.46875 152.078125 194.359375 157.222656 195.054688 163.585938 C 195.5 167.664062 194.1875 171.738281 191.460938 174.757812 C 188.730469 177.78125 184.785156 179.492188 180.753906 179.476562 C 178.46875 179.457031 176.253906 178.894531 174.269531 177.867188 Z M 233.097656 199.082031 C 233.078125 199.082031 171.667969 198.652344 171.667969 198.652344 C 171.011719 198.648438 170.390625 198.382812 169.933594 197.917969 C 169.472656 197.453125 169.21875 196.828125 169.222656 196.175781 L 169.386719 172.835938 C 169.394531 171.804688 170.039062 170.894531 171.003906 170.542969 C 171.96875 170.1875 173.050781 170.476562 173.71875 171.257812 C 175.488281 173.332031 178.0625 174.535156 180.789062 174.554688 C 183.4375 174.636719 186.019531 173.441406 187.8125 171.460938 C 189.625 169.453125 190.460938 166.84375 190.164062 164.121094 C 189.71875 160.019531 186.449219 156.582031 182.390625 155.941406 C 179.257812 155.453125 176.203125 156.472656 174.046875 158.753906 C 173.582031 159.246094 172.933594 159.523438 172.257812 159.523438 C 172.246094 159.523438 171.945312 159.523438 171.945312 159.523438 C 171.289062 159.519531 170.667969 159.257812 170.207031 158.792969 C 169.746094 158.328125 169.492188 157.699219 169.496094 157.046875 L 169.652344 134.761719 C 169.65625 134.109375 169.917969 133.484375 170.386719 133.027344 C 170.847656 132.574219 171.464844 132.320312 172.113281 132.320312 C 172.128906 132.320312 188.023438 132.433594 188.023438 132.433594 C 187.023438 130.4375 186.492188 128.210938 186.507812 125.925781 C 186.539062 121.644531 188.460938 117.636719 191.789062 114.933594 C 195.117188 112.230469 199.46875 111.179688 203.734375 112.035156 C 209.402344 113.175781 213.875 117.78125 214.859375 123.492188 C 215.410156 126.671875 214.898438 129.859375 213.472656 132.609375 L 233.542969 132.75 C 234.898438 132.761719 235.992188 133.867188 235.984375 135.226562 L 235.554688 196.640625 C 235.546875 197.992188 234.445312 199.082031 233.097656 199.082031 " fill-opacity="1" fill-rule="nonzero"/><path fill="#fef759" d="M 156.390625 180.203125 L 151.125 158.464844 L 91.4375 172.921875 L 105.894531 232.609375 L 129.449219 226.90625 L 130.003906 227.078125 C 127.894531 230.28125 127.335938 234.488281 129.09375 238.464844 C 131.015625 242.820312 135.546875 245.640625 140.300781 245.421875 C 148.007812 245.070312 153.09375 237.910156 151.371094 230.808594 C 150.527344 227.332031 148.230469 224.589844 145.277344 223.070312 L 145.386719 223.046875 L 165.582031 218.152344 L 160.335938 196.496094 L 160.042969 196.566406 C 158.21875 199.8125 154.871094 202.191406 150.699219 202.5625 C 145.484375 203.019531 140.46875 199.824219 138.65625 194.910156 C 136.160156 188.140625 140.152344 180.921875 146.953125 179.273438 C 150.429688 178.433594 153.921875 179.222656 156.621094 181.152344 L 156.390625 180.203125 " fill-opacity="1" fill-rule="nonzero"/><path fill="#092135" d="M 129.449219 224.445312 C 129.699219 224.445312 129.949219 224.484375 130.1875 224.558594 L 130.742188 224.734375 C 131.480469 224.964844 132.066406 225.527344 132.324219 226.253906 C 132.582031 226.984375 132.484375 227.789062 132.058594 228.433594 C 130.292969 231.109375 130.027344 234.488281 131.34375 237.472656 C 132.867188 240.933594 136.449219 243.152344 140.1875 242.964844 C 143.105469 242.828125 145.652344 241.5 147.367188 239.21875 C 149.054688 236.972656 149.640625 234.117188 148.980469 231.386719 C 148.339844 228.742188 146.582031 226.507812 144.15625 225.257812 C 143.246094 224.792969 142.71875 223.808594 142.835938 222.796875 C 142.949219 221.777344 143.683594 220.9375 144.675781 220.6875 L 162.613281 216.34375 L 159.042969 201.601562 C 156.796875 203.527344 153.964844 204.742188 150.917969 205.011719 C 144.558594 205.582031 138.5625 201.769531 136.347656 195.761719 C 134.929688 191.910156 135.214844 187.640625 137.128906 184.050781 C 139.046875 180.457031 142.414062 177.84375 146.371094 176.886719 C 148.59375 176.347656 150.886719 176.355469 153.050781 176.871094 L 149.316406 161.433594 L 94.40625 174.734375 L 107.707031 229.640625 L 128.871094 224.515625 C 129.0625 224.46875 129.257812 224.445312 129.449219 224.445312 Z M 139.78125 247.890625 C 134.242188 247.890625 129.097656 244.566406 126.84375 239.457031 C 125.539062 236.503906 125.265625 233.289062 125.980469 230.277344 L 106.476562 235 C 105.140625 235.316406 103.824219 234.507812 103.503906 233.191406 L 89.046875 173.503906 C 88.894531 172.867188 89 172.199219 89.339844 171.640625 C 89.679688 171.085938 90.226562 170.6875 90.859375 170.53125 L 150.546875 156.078125 C 151.183594 155.921875 151.851562 156.027344 152.40625 156.367188 C 152.964844 156.707031 153.363281 157.253906 153.519531 157.886719 L 159.011719 180.570312 C 159.253906 181.570312 158.847656 182.613281 157.996094 183.191406 C 157.144531 183.761719 156.023438 183.75 155.191406 183.152344 C 152.972656 181.566406 150.171875 181.019531 147.53125 181.667969 C 144.9375 182.292969 142.726562 184.007812 141.46875 186.363281 C 140.195312 188.753906 140.015625 191.488281 140.964844 194.058594 C 142.390625 197.925781 146.386719 200.464844 150.484375 200.109375 C 153.660156 199.832031 156.359375 198.101562 157.902344 195.359375 C 158.234375 194.769531 158.796875 194.34375 159.453125 194.179688 L 159.746094 194.105469 C 160.382812 193.949219 161.054688 194.054688 161.613281 194.394531 C 162.171875 194.730469 162.574219 195.28125 162.726562 195.914062 L 167.972656 217.574219 C 168.292969 218.894531 167.480469 220.222656 166.164062 220.542969 L 150.714844 224.285156 C 152.171875 225.980469 153.222656 228.007812 153.761719 230.230469 C 154.769531 234.390625 153.875 238.746094 151.300781 242.171875 C 148.726562 245.597656 144.757812 247.679688 140.414062 247.875 C 140.199219 247.886719 139.988281 247.890625 139.78125 247.890625 " fill-opacity="1" fill-rule="nonzero"/></svg>