<svg xmlns="http://www.w3.org/2000/svg" xmlns:xlink="http://www.w3.org/1999/xlink" width="500" zoomAndPan="magnify" viewBox="0 0 375 374.999991" height="500" preserveAspectRatio="xMidYMid meet" version="1.0"><defs><clipPath id="ef19283cc7"><path d="M 308 187 L 346 187 L 346 364.683594 L 308 364.683594 Z M 308 187 " clip-rule="nonzero"/></clipPath><clipPath id="bc884b06c1"><path d="M 234 186 L 313 186 L 313 364.683594 L 234 364.683594 Z M 234 186 " clip-rule="nonzero"/></clipPath><clipPath id="50cd16c797"><path d="M 354 155 L 356.25 155 L 356.25 164 L 354 164 Z M 354 155 " clip-rule="nonzero"/></clipPath><clipPath id="3c06e364f1"><path d="M 168 10.683594 L 177 10.683594 L 177 19 L 168 19 Z M 168 10.683594 " clip-rule="nonzero"/></clipPath></defs><path fill="#ffffff" d="M 214.820312 328.71875 C 219.023438 322.863281 222.277344 316.894531 224.785156 311.117188 C 225.367188 309.769531 219.917969 307.667969 220.425781 306.339844 C 220.964844 304.941406 227.453125 304.320312 227.910156 302.957031 C 233.960938 284.863281 233.167969 270.429688 233.167969 270.429688 C 226.453125 273.121094 220.519531 276.605469 215.273438 280.636719 C 213.859375 281.71875 215.101562 287.675781 213.785156 288.835938 C 212.757812 289.742188 209.160156 285.835938 208.1875 286.785156 C 197.703125 297.023438 190.570312 309.472656 185.734375 321.199219 C 185.738281 317.496094 185.574219 313.859375 185.269531 310.265625 C 185.144531 308.816406 178.761719 309.894531 178.59375 308.484375 C 178.429688 307.097656 184.554688 301.511719 184.355469 300.167969 C 180.417969 273.828125 169.78125 256.371094 169.78125 256.371094 C 162.878906 264.605469 157.742188 273.386719 154.003906 282.390625 C 153.40625 283.828125 158.011719 289.636719 157.484375 291.082031 C 156.90625 292.671875 150.980469 291.484375 150.484375 293.078125 C 143.125 316.652344 144.519531 339.449219 147.945312 358.6875 C 157.109375 360.628906 166.023438 361.597656 174.660156 361.691406 C 216.683594 363.199219 233 329.726562 233 329.726562 C 226.289062 328.320312 220.246094 328.097656 214.820312 328.71875 " fill-opacity="1" fill-rule="nonzero"/><path fill="#0c2840" d="M 148.316406 358.328125 C 157.160156 360.179688 166.023438 361.167969 174.664062 361.261719 C 196.21875 362.035156 210.824219 353.375 219.277344 345.976562 C 227.167969 339.066406 231.324219 331.941406 232.359375 330.03125 C 226.269531 328.808594 220.390625 328.511719 214.867188 329.144531 C 214.695312 329.164062 214.535156 329.082031 214.449219 328.9375 C 214.363281 328.789062 214.371094 328.605469 214.472656 328.46875 C 218.355469 323.054688 221.691406 317.164062 224.390625 310.949219 C 224.546875 310.585938 223.113281 309.582031 222.347656 309.042969 C 220.902344 308.03125 219.65625 307.15625 220.027344 306.1875 C 220.351562 305.347656 221.777344 304.882812 224.09375 304.21875 C 225.390625 303.847656 227.347656 303.285156 227.503906 302.820312 C 232.765625 287.078125 232.824219 273.976562 232.761719 271.058594 C 226.613281 273.578125 220.820312 276.914062 215.535156 280.976562 C 214.980469 281.402344 214.945312 283.292969 214.917969 284.8125 C 214.886719 286.691406 214.855469 288.460938 214.070312 289.15625 C 213.3125 289.824219 212.0625 289.015625 210.734375 288.15625 C 210.085938 287.734375 208.726562 286.855469 208.488281 287.09375 C 199.355469 296.011719 191.832031 307.542969 186.132812 321.359375 C 186.054688 321.550781 185.851562 321.660156 185.652344 321.621094 C 185.449219 321.578125 185.304688 321.402344 185.304688 321.199219 C 185.3125 317.664062 185.15625 314 184.839844 310.304688 C 184.8125 309.941406 182.761719 309.832031 181.886719 309.785156 C 179.957031 309.683594 178.292969 309.59375 178.167969 308.535156 C 178.070312 307.699219 179.242188 306.277344 181.164062 304.027344 C 182.285156 302.714844 183.984375 300.726562 183.929688 300.230469 C 180.425781 276.78125 171.480469 260.210938 169.71875 257.117188 C 163.386719 264.769531 158.234375 273.324219 154.402344 282.554688 C 154.179688 283.089844 155.351562 285.195312 156.128906 286.589844 C 157.429688 288.914062 158.191406 290.390625 157.886719 291.230469 C 157.503906 292.285156 155.796875 292.390625 153.992188 292.507812 C 152.753906 292.582031 151.054688 292.691406 150.894531 293.207031 C 144.84375 312.578125 144 333.882812 148.316406 358.328125 Z M 177.355469 362.167969 C 176.464844 362.167969 175.558594 362.152344 174.640625 362.117188 C 165.863281 362.023438 156.847656 361.011719 147.855469 359.109375 C 147.6875 359.074219 147.550781 358.9375 147.523438 358.765625 C 143.125 334.058594 143.960938 312.53125 150.074219 292.949219 C 150.410156 291.871094 152.125 291.761719 153.9375 291.648438 C 155.183594 291.570312 156.890625 291.464844 157.082031 290.9375 C 157.277344 290.40625 156.179688 288.441406 155.378906 287.003906 C 154.039062 284.601562 153.25 283.082031 153.609375 282.226562 C 157.554688 272.722656 162.886719 263.933594 169.449219 256.09375 C 169.539062 255.992188 169.671875 255.933594 169.8125 255.941406 C 169.949219 255.953125 170.074219 256.027344 170.144531 256.148438 C 170.253906 256.324219 180.875 273.980469 184.78125 300.105469 C 184.902344 300.925781 183.734375 302.34375 181.816406 304.585938 C 180.679688 305.917969 178.960938 307.925781 179.019531 308.4375 C 179.058594 308.773438 181.148438 308.886719 181.929688 308.929688 C 183.902344 309.035156 185.605469 309.128906 185.695312 310.230469 C 185.949219 313.230469 186.101562 316.207031 186.148438 319.113281 C 191.789062 306.035156 199.097656 295.0625 207.890625 286.476562 C 208.617188 285.765625 209.875 286.574219 211.199219 287.4375 C 211.910156 287.894531 213.234375 288.753906 213.503906 288.511719 C 214.003906 288.070312 214.035156 286.253906 214.0625 284.796875 C 214.09375 282.832031 214.125 280.976562 215.007812 280.296875 C 220.519531 276.0625 226.578125 272.609375 233.011719 270.03125 C 233.136719 269.980469 233.28125 269.996094 233.402344 270.070312 C 233.515625 270.144531 233.589844 270.269531 233.597656 270.40625 C 233.605469 270.550781 234.324219 285.128906 228.316406 303.089844 C 228.039062 303.925781 226.625 304.386719 224.332031 305.042969 C 223.011719 305.421875 221.019531 305.992188 220.828125 306.496094 C 220.699219 306.835938 222.144531 307.851562 222.839844 308.339844 C 224.265625 309.339844 225.613281 310.285156 225.175781 311.289062 C 222.582031 317.265625 219.402344 322.945312 215.71875 328.191406 C 221.222656 327.671875 227.0625 328.042969 233.089844 329.304688 C 233.21875 329.332031 233.328125 329.417969 233.386719 329.535156 C 233.445312 329.65625 233.445312 329.792969 233.386719 329.914062 C 233.34375 330 229.160156 338.453125 219.871094 346.597656 C 211.660156 353.796875 197.722656 362.167969 177.355469 362.167969 " fill-opacity="1" fill-rule="nonzero"/><path fill="#0c2840" d="M 186.308594 355.882812 C 186.183594 355.882812 186.0625 355.828125 185.976562 355.722656 C 185.828125 355.542969 185.851562 355.273438 186.035156 355.121094 C 197.355469 345.839844 221.355469 335.382812 221.597656 335.277344 C 221.816406 335.1875 222.066406 335.285156 222.160156 335.5 C 222.253906 335.71875 222.15625 335.972656 221.9375 336.066406 C 221.695312 336.167969 197.804688 346.578125 186.582031 355.785156 C 186.5 355.851562 186.40625 355.882812 186.308594 355.882812 " fill-opacity="1" fill-rule="nonzero"/><path fill="#0c2840" d="M 165.347656 353.210938 C 165.121094 353.210938 164.929688 353.03125 164.917969 352.804688 C 164.546875 344.621094 164.386719 336.324219 164.441406 328.136719 C 164.441406 327.898438 164.632812 327.710938 164.871094 327.710938 C 164.871094 327.710938 164.871094 327.710938 164.875 327.710938 C 165.109375 327.710938 165.300781 327.90625 165.300781 328.140625 C 165.246094 336.316406 165.40625 344.597656 165.773438 352.765625 C 165.789062 353 165.601562 353.199219 165.367188 353.210938 C 165.359375 353.210938 165.355469 353.210938 165.347656 353.210938 " fill-opacity="1" fill-rule="nonzero"/><path fill="#0c2840" d="M 165.089844 316.878906 C 165.085938 316.878906 165.082031 316.878906 165.078125 316.878906 C 164.84375 316.871094 164.65625 316.675781 164.664062 316.4375 C 165.09375 302.636719 166.144531 288.683594 167.78125 274.964844 L 168.53125 268.691406 C 168.5625 268.457031 168.773438 268.289062 169.011719 268.316406 C 169.246094 268.34375 169.414062 268.558594 169.382812 268.792969 L 168.636719 275.066406 C 167 288.757812 165.949219 302.6875 165.519531 316.464844 C 165.511719 316.695312 165.324219 316.878906 165.089844 316.878906 " fill-opacity="1" fill-rule="nonzero"/><path fill="#0c2840" d="M 125.125 79.175781 C 124.203125 72.273438 124.183594 62.367188 129.675781 53.785156 C 144.863281 30.0625 193.089844 30.730469 203.460938 48.820312 C 208.726562 58.003906 204.359375 71.882812 197.121094 79.789062 C 186.414062 91.484375 167.3125 92.441406 155.285156 86.441406 C 143.832031 80.726562 139.730469 69.167969 132.746094 70.660156 C 128.859375 71.484375 126.488281 75.832031 125.125 79.175781 " fill-opacity="1" fill-rule="nonzero"/><path fill="#ffffff" d="M 250.742188 100.265625 C 251.773438 98.816406 263.40625 81.863281 256.097656 62.535156 C 250.96875 48.964844 237.925781 37.96875 222.78125 37.378906 C 220.222656 37.277344 204.109375 36.648438 195.460938 49.519531 C 189.640625 58.1875 189 70.304688 194.664062 79.113281 C 201.390625 89.585938 214.238281 91.078125 216.144531 91.269531 C 229.488281 92.613281 236.84375 84.050781 244.121094 88.183594 C 248.574219 90.714844 250.113281 96.355469 250.742188 100.265625 " fill-opacity="1" fill-rule="nonzero"/><path fill="#0c2840" d="M 239.761719 86.621094 C 241.3125 86.621094 242.828125 86.957031 244.335938 87.8125 C 247.664062 89.703125 249.898438 93.515625 250.980469 99.148438 C 253.589844 95.125 262.203125 79.90625 255.699219 62.6875 C 250.285156 48.363281 237.046875 38.363281 222.761719 37.808594 C 217.21875 37.59375 203.503906 38.320312 195.816406 49.757812 C 189.949219 58.496094 189.621094 70.472656 195.023438 78.882812 C 201.449219 88.886719 213.78125 90.601562 216.1875 90.84375 C 222.554688 91.480469 227.492188 89.851562 231.847656 88.414062 C 234.675781 87.480469 237.269531 86.621094 239.761719 86.621094 Z M 250.738281 100.695312 C 250.707031 100.695312 250.675781 100.691406 250.640625 100.683594 C 250.472656 100.640625 250.34375 100.503906 250.316406 100.335938 C 249.363281 94.390625 247.210938 90.429688 243.910156 88.558594 C 240.320312 86.519531 236.699219 87.714844 232.117188 89.230469 C 227.679688 90.695312 222.648438 92.351562 216.101562 91.695312 C 212.621094 91.347656 200.773438 89.421875 194.300781 79.34375 C 188.71875 70.65625 189.050781 58.292969 195.105469 49.28125 C 203.03125 37.484375 217.109375 36.722656 222.796875 36.949219 C 237.421875 37.519531 250.964844 47.742188 256.5 62.382812 C 263.824219 81.765625 252.414062 98.652344 251.089844 100.515625 C 251.007812 100.628906 250.875 100.695312 250.738281 100.695312 " fill-opacity="1" fill-rule="nonzero"/><path fill="#0c2840" d="M 225.3125 67.515625 L 220.164062 67.515625 L 219.355469 48.753906 L 226.125 48.753906 Z M 219.167969 73.359375 C 219.167969 72.429688 219.503906 71.664062 220.175781 71.070312 C 220.847656 70.472656 221.6875 70.171875 222.691406 70.171875 C 223.699219 70.171875 224.535156 70.472656 225.207031 71.070312 C 225.882812 71.664062 226.21875 72.429688 226.21875 73.359375 C 226.21875 74.292969 225.882812 75.054688 225.207031 75.652344 C 224.535156 76.25 223.699219 76.546875 222.691406 76.546875 C 221.6875 76.546875 220.847656 76.25 220.175781 75.652344 C 219.503906 75.054688 219.167969 74.292969 219.167969 73.359375 " fill-opacity="1" fill-rule="nonzero"/><path fill="#ffffff" d="M 326.621094 242.921875 C 326.222656 243.773438 324.941406 244.960938 323.398438 246.125 L 318.59375 245.851562 C 319.199219 245.058594 319.859375 244.039062 320.546875 242.578125 C 322.601562 238.191406 322.035156 232.269531 319.507812 235.496094 C 316.980469 238.726562 317.007812 241.253906 317.03125 236.890625 C 317.054688 232.527344 321.210938 222.945312 321.210938 222.945312 C 324.679688 181.832031 312.90625 149.296875 312.90625 149.296875 L 329.449219 143.394531 C 338.410156 172.289062 328.90625 223.386719 328.90625 223.386719 C 328.90625 223.386719 327.90625 240.191406 326.621094 242.921875 " fill-opacity="1" fill-rule="nonzero"/><path fill="#0c2840" d="M 326.617188 242.921875 L 326.621094 242.921875 Z M 319.402344 245.46875 L 323.265625 245.6875 C 324.832031 244.492188 325.910156 243.421875 326.230469 242.738281 C 327.21875 240.640625 328.132812 229.144531 328.476562 223.359375 C 328.480469 223.34375 328.480469 223.324219 328.484375 223.308594 C 328.578125 222.800781 337.773438 172.488281 329.171875 143.949219 L 313.453125 149.554688 C 314.777344 153.457031 324.867188 184.703125 321.636719 222.984375 C 321.632812 223.03125 321.621094 223.078125 321.605469 223.117188 C 321.5625 223.214844 317.484375 232.671875 317.460938 236.894531 L 317.460938 237.105469 C 317.457031 237.382812 317.457031 237.644531 317.457031 237.878906 C 317.828125 237.195312 318.378906 236.242188 319.167969 235.234375 C 320.15625 233.972656 320.882812 234.027344 321.320312 234.296875 C 322.667969 235.125 322.472656 239.476562 320.933594 242.757812 C 320.453125 243.78125 319.960938 244.660156 319.402344 245.46875 Z M 323.398438 246.554688 C 323.390625 246.554688 323.382812 246.554688 323.371094 246.554688 L 318.570312 246.277344 C 318.414062 246.273438 318.269531 246.175781 318.207031 246.03125 C 318.136719 245.886719 318.15625 245.714844 318.253906 245.589844 C 318.96875 244.652344 319.574219 243.636719 320.15625 242.394531 C 321.679688 239.140625 321.570312 235.457031 320.871094 235.027344 C 320.730469 234.941406 320.378906 235.082031 319.84375 235.761719 C 318.921875 236.941406 318.339844 238.042969 317.988281 238.703125 C 317.613281 239.414062 317.445312 239.742188 317.03125 239.636719 C 316.585938 239.523438 316.585938 239.292969 316.601562 237.097656 L 316.601562 236.890625 C 316.625 232.628906 320.390625 223.765625 320.789062 222.84375 C 324.191406 182.332031 312.621094 149.769531 312.503906 149.445312 C 312.464844 149.335938 312.472656 149.21875 312.519531 149.113281 C 312.566406 149.007812 312.65625 148.933594 312.761719 148.890625 L 329.300781 142.988281 C 329.414062 142.949219 329.535156 142.957031 329.640625 143.007812 C 329.742188 143.0625 329.824219 143.15625 329.855469 143.265625 C 338.667969 171.671875 329.589844 222.023438 329.332031 223.4375 C 329.273438 224.433594 328.300781 240.359375 327.007812 243.105469 C 326.503906 244.175781 324.90625 245.527344 323.65625 246.46875 C 323.582031 246.523438 323.488281 246.554688 323.398438 246.554688 " fill-opacity="1" fill-rule="nonzero"/><path fill="#0c2840" d="M 304.285156 342.644531 C 304.199219 342.644531 304.113281 342.617188 304.039062 342.566406 L 298.921875 339.027344 C 298.726562 338.894531 298.679688 338.625 298.816406 338.429688 C 298.949219 338.234375 299.214844 338.1875 299.414062 338.324219 L 304.527344 341.859375 C 304.722656 341.996094 304.773438 342.261719 304.636719 342.457031 C 304.554688 342.578125 304.421875 342.644531 304.285156 342.644531 " fill-opacity="1" fill-rule="nonzero"/><path fill="#ffffff" d="M 285.996094 321.722656 L 286.730469 330.167969 C 286.792969 332.546875 284.988281 334.496094 282.796875 334.433594 L 280.261719 334.359375 C 278.207031 334.300781 276.574219 332.484375 276.574219 330.257812 L 275.914062 319.546875 L 285.996094 321.722656 " fill-opacity="1" fill-rule="nonzero"/><path fill="#0c2840" d="M 276.375 320.089844 L 277 330.230469 C 277 332.261719 278.4375 333.875 280.269531 333.929688 L 282.808594 334.007812 C 283.695312 334.046875 284.53125 333.6875 285.1875 333.035156 C 285.917969 332.304688 286.324219 331.265625 286.292969 330.183594 L 285.59375 322.078125 Z M 282.898438 334.867188 C 282.859375 334.867188 282.820312 334.867188 282.78125 334.863281 L 280.246094 334.789062 C 277.945312 334.722656 276.140625 332.730469 276.140625 330.257812 L 275.484375 319.578125 C 275.476562 319.441406 275.53125 319.3125 275.632812 319.222656 C 275.734375 319.136719 275.871094 319.101562 276.003906 319.128906 L 286.085938 321.304688 C 286.265625 321.34375 286.40625 321.5 286.417969 321.6875 L 287.152344 330.132812 C 287.1875 331.476562 286.691406 332.746094 285.789062 333.644531 C 285 334.433594 283.976562 334.867188 282.898438 334.867188 " fill-opacity="1" fill-rule="nonzero"/><path fill="#0c2840" d="M 288.957031 328.066406 L 288.773438 330.53125 C 288.605469 332.839844 288.78125 335.117188 289.945312 337.113281 C 290.941406 338.824219 291.972656 341.246094 291.972656 343.949219 C 291.972656 343.949219 271.996094 348.582031 254.539062 344.191406 C 254.539062 344.191406 254.457031 342.128906 259.8125 340.949219 C 265.167969 339.773438 271.59375 338.96875 272.023438 337.148438 C 272.449219 335.324219 272.449219 330.507812 273.203125 329.542969 C 273.953125 328.578125 280.378906 326.972656 283.699219 329.542969 C 283.699219 329.542969 286.679688 327.425781 288.957031 328.066406 " fill-opacity="1" fill-rule="nonzero"/><path fill="#ffffff" d="M 254.480469 348.378906 C 254.359375 347.238281 254.363281 345.308594 254.535156 344.1875 C 254.535156 344.1875 271.324219 347.324219 291.972656 343.949219 L 291.972656 348.265625 C 291.972656 349.207031 291.277344 350 290.347656 350.125 C 285.507812 350.765625 268.824219 352.277344 255.875 349.894531 C 255.128906 349.757812 254.558594 349.132812 254.480469 348.378906 " fill-opacity="1" fill-rule="nonzero"/><path fill="#0c2840" d="M 254.90625 344.6875 C 254.792969 345.808594 254.804688 347.386719 254.90625 348.332031 C 254.964844 348.898438 255.394531 349.371094 255.953125 349.472656 C 267.867188 351.667969 283.621094 350.582031 290.292969 349.699219 C 291.003906 349.605469 291.542969 348.988281 291.542969 348.265625 L 291.542969 344.453125 C 273.132812 347.375 257.695312 345.144531 254.90625 344.6875 Z M 272.621094 351.617188 C 266.996094 351.617188 261.035156 351.28125 255.796875 350.316406 C 254.867188 350.144531 254.148438 349.367188 254.050781 348.421875 C 253.933594 347.296875 253.925781 345.335938 254.113281 344.121094 C 254.128906 344.007812 254.195312 343.90625 254.289062 343.839844 C 254.382812 343.769531 254.5 343.746094 254.613281 343.765625 C 254.78125 343.800781 271.574219 346.847656 291.902344 343.527344 C 292.027344 343.503906 292.152344 343.539062 292.25 343.621094 C 292.347656 343.703125 292.402344 343.824219 292.402344 343.949219 L 292.402344 348.265625 C 292.402344 349.417969 291.539062 350.398438 290.402344 350.550781 C 286.613281 351.050781 279.90625 351.617188 272.621094 351.617188 " fill-opacity="1" fill-rule="nonzero"/><path fill="#0c2840" d="M 262.632812 342.714844 C 262.457031 342.714844 262.292969 342.609375 262.230469 342.4375 L 261.625 340.820312 C 261.542969 340.597656 261.65625 340.347656 261.878906 340.265625 C 262.101562 340.183594 262.347656 340.296875 262.429688 340.519531 L 263.03125 342.136719 C 263.117188 342.359375 263 342.609375 262.78125 342.691406 C 262.730469 342.707031 262.679688 342.714844 262.632812 342.714844 " fill-opacity="1" fill-rule="nonzero"/><path fill="#0c2840" d="M 266.75 342.636719 C 266.582031 342.636719 266.421875 342.539062 266.351562 342.371094 L 265.378906 340.035156 C 265.289062 339.820312 265.394531 339.566406 265.613281 339.476562 C 265.832031 339.386719 266.082031 339.488281 266.171875 339.707031 L 267.144531 342.042969 C 267.234375 342.261719 267.132812 342.515625 266.914062 342.605469 C 266.859375 342.628906 266.800781 342.636719 266.75 342.636719 " fill-opacity="1" fill-rule="nonzero"/><path fill="#0c2840" d="M 271.085938 341.511719 C 270.957031 341.511719 270.832031 341.457031 270.75 341.347656 L 269.035156 339.152344 C 268.886719 338.964844 268.921875 338.695312 269.105469 338.546875 C 269.296875 338.402344 269.5625 338.4375 269.710938 338.625 L 271.421875 340.820312 C 271.570312 341.007812 271.539062 341.273438 271.351562 341.421875 C 271.273438 341.484375 271.179688 341.511719 271.085938 341.511719 " fill-opacity="1" fill-rule="nonzero"/><path fill="#0c2840" d="M 275.316406 338.648438 C 275.257812 338.648438 275.195312 338.636719 275.140625 338.609375 L 272.007812 337.191406 C 271.792969 337.089844 271.695312 336.835938 271.796875 336.621094 C 271.890625 336.40625 272.148438 336.3125 272.363281 336.40625 L 275.496094 337.828125 C 275.710938 337.925781 275.804688 338.179688 275.707031 338.394531 C 275.636719 338.554688 275.480469 338.648438 275.316406 338.648438 " fill-opacity="1" fill-rule="nonzero"/><path fill="#0c2840" d="M 276.363281 334.226562 C 276.351562 334.226562 276.339844 334.226562 276.332031 334.226562 L 272.5 333.933594 C 272.265625 333.914062 272.085938 333.707031 272.105469 333.472656 C 272.121094 333.238281 272.320312 333.054688 272.566406 333.078125 L 276.394531 333.371094 C 276.628906 333.390625 276.808594 333.597656 276.789062 333.832031 C 276.773438 334.058594 276.585938 334.226562 276.363281 334.226562 " fill-opacity="1" fill-rule="nonzero"/><path fill="#ffffff" d="M 314.285156 324.25 L 315.015625 332.699219 C 315.082031 335.074219 313.277344 337.027344 311.085938 336.960938 L 308.550781 336.886719 C 306.496094 336.824219 304.863281 335.007812 304.863281 332.78125 L 304.207031 322.074219 L 314.285156 324.25 " fill-opacity="1" fill-rule="nonzero"/><path fill="#0c2840" d="M 304.664062 322.613281 L 305.292969 332.757812 C 305.292969 334.789062 306.730469 336.402344 308.5625 336.457031 L 311.097656 336.53125 C 311.972656 336.570312 312.824219 336.210938 313.476562 335.5625 C 314.210938 334.828125 314.613281 333.789062 314.585938 332.710938 L 313.886719 324.601562 Z M 311.195312 337.390625 C 311.152344 337.390625 311.113281 337.390625 311.074219 337.390625 L 308.539062 337.3125 C 306.234375 337.246094 304.433594 335.257812 304.433594 332.78125 L 303.773438 322.101562 C 303.769531 321.964844 303.824219 321.835938 303.925781 321.75 C 304.027344 321.660156 304.164062 321.625 304.292969 321.65625 L 314.375 323.832031 C 314.5625 323.871094 314.699219 324.027344 314.710938 324.214844 L 315.441406 332.660156 C 315.480469 334 314.984375 335.273438 314.082031 336.171875 C 313.292969 336.960938 312.269531 337.390625 311.195312 337.390625 " fill-opacity="1" fill-rule="nonzero"/><path fill="#0c2840" d="M 317.921875 329.582031 L 317.738281 332.046875 C 317.566406 334.355469 317.742188 336.632812 318.90625 338.632812 C 319.902344 340.339844 320.9375 342.761719 320.9375 345.464844 C 320.9375 345.464844 300.960938 350.101562 283.5 345.707031 C 283.5 345.707031 283.421875 343.644531 288.777344 342.46875 C 294.132812 341.289062 300.558594 340.484375 300.988281 338.664062 C 301.417969 336.84375 301.417969 332.023438 302.164062 331.058594 C 302.914062 330.09375 309.34375 328.488281 312.664062 331.058594 C 312.664062 331.058594 315.644531 328.941406 317.921875 329.582031 " fill-opacity="1" fill-rule="nonzero"/><path fill="#ffffff" d="M 283.441406 349.894531 C 283.324219 348.757812 283.328125 346.828125 283.5 345.707031 C 283.5 345.707031 300.292969 348.839844 320.9375 345.464844 L 320.9375 349.78125 C 320.9375 350.722656 320.242188 351.519531 319.3125 351.640625 C 314.46875 352.28125 297.789062 353.796875 284.84375 351.410156 C 284.09375 351.273438 283.523438 350.652344 283.441406 349.894531 " fill-opacity="1" fill-rule="nonzero"/><path fill="#0c2840" d="M 283.867188 349.847656 C 283.929688 350.417969 284.359375 350.886719 284.917969 350.988281 C 296.828125 353.183594 312.585938 352.097656 319.253906 351.214844 C 319.96875 351.121094 320.503906 350.503906 320.503906 349.78125 L 320.503906 345.96875 C 302.097656 348.894531 286.660156 346.660156 283.871094 346.203125 C 283.757812 347.324219 283.769531 348.902344 283.867188 349.847656 Z M 301.582031 353.132812 C 295.960938 353.132812 289.996094 352.796875 284.761719 351.832031 C 283.832031 351.660156 283.113281 350.882812 283.015625 349.9375 C 282.898438 348.8125 282.890625 346.851562 283.078125 345.640625 C 283.09375 345.527344 283.15625 345.425781 283.253906 345.355469 C 283.347656 345.289062 283.464844 345.265625 283.578125 345.285156 C 283.746094 345.316406 300.539062 348.363281 320.867188 345.042969 C 320.988281 345.023438 321.117188 345.058594 321.214844 345.140625 C 321.3125 345.222656 321.363281 345.339844 321.363281 345.464844 L 321.363281 349.78125 C 321.363281 350.933594 320.503906 351.917969 319.367188 352.066406 C 315.578125 352.566406 308.867188 353.132812 301.582031 353.132812 " fill-opacity="1" fill-rule="nonzero"/><path fill="#0c2840" d="M 291.59375 344.234375 C 291.421875 344.234375 291.257812 344.128906 291.191406 343.957031 L 290.589844 342.335938 C 290.507812 342.113281 290.621094 341.867188 290.84375 341.78125 C 291.066406 341.703125 291.3125 341.8125 291.394531 342.035156 L 291.996094 343.65625 C 292.078125 343.878906 291.96875 344.125 291.746094 344.207031 C 291.695312 344.226562 291.644531 344.234375 291.59375 344.234375 " fill-opacity="1" fill-rule="nonzero"/><path fill="#0c2840" d="M 295.710938 344.15625 C 295.542969 344.15625 295.382812 344.054688 295.316406 343.890625 L 294.34375 341.554688 C 294.253906 341.335938 294.359375 341.085938 294.574219 340.992188 C 294.792969 340.902344 295.046875 341.003906 295.136719 341.226562 L 296.109375 343.5625 C 296.199219 343.78125 296.09375 344.03125 295.875 344.121094 C 295.824219 344.144531 295.765625 344.15625 295.710938 344.15625 " fill-opacity="1" fill-rule="nonzero"/><path fill="#0c2840" d="M 300.050781 343.027344 C 299.921875 343.027344 299.796875 342.972656 299.710938 342.867188 L 297.996094 340.667969 C 297.851562 340.480469 297.882812 340.210938 298.070312 340.066406 C 298.257812 339.921875 298.527344 339.953125 298.675781 340.140625 L 300.386719 342.335938 C 300.53125 342.523438 300.5 342.792969 300.316406 342.9375 C 300.234375 343 300.140625 343.027344 300.050781 343.027344 " fill-opacity="1" fill-rule="nonzero"/><path fill="#0c2840" d="M 304.28125 340.164062 C 304.222656 340.164062 304.160156 340.152344 304.105469 340.125 L 300.972656 338.707031 C 300.753906 338.609375 300.660156 338.355469 300.757812 338.140625 C 300.855469 337.921875 301.109375 337.828125 301.324219 337.925781 L 304.457031 339.34375 C 304.675781 339.441406 304.769531 339.695312 304.671875 339.914062 C 304.601562 340.070312 304.445312 340.164062 304.28125 340.164062 " fill-opacity="1" fill-rule="nonzero"/><path fill="#0c2840" d="M 305.328125 335.746094 C 305.316406 335.746094 305.304688 335.746094 305.296875 335.746094 L 301.464844 335.449219 C 301.230469 335.429688 301.054688 335.226562 301.070312 334.988281 C 301.085938 334.753906 301.285156 334.578125 301.53125 334.59375 L 305.363281 334.890625 C 305.59375 334.90625 305.773438 335.113281 305.753906 335.351562 C 305.738281 335.574219 305.546875 335.746094 305.328125 335.746094 " fill-opacity="1" fill-rule="nonzero"/><path fill="#0c2840" d="M 263.695312 223.417969 C 263.695312 223.417969 263.34375 245.242188 266.574219 261.535156 C 269.148438 274.539062 270.578125 291.140625 271.441406 310.507812 C 271.773438 317.890625 272.445312 325.628906 272.445312 325.636719 L 289.285156 326.308594 C 290.128906 324.808594 294.183594 297.226562 289.285156 274.445312 C 286.390625 260.984375 292.386719 241.761719 290.390625 229.53125 C 288.808594 219.855469 284.5 191.726562 284.5 191.726562 L 263.292969 191.855469 C 263.292969 191.855469 263.433594 206.695312 263.695312 223.417969 " fill-opacity="1" fill-rule="nonzero"/><path fill="#0c2840" d="M 287.941406 224.933594 C 287.941406 224.933594 290.101562 246.699219 293.328125 262.988281 C 295.90625 275.996094 296.148438 292.191406 300.074219 311.179688 C 301.253906 316.90625 302.082031 325.292969 302.085938 325.300781 L 317.914062 326.984375 C 318.761719 325.480469 322.476562 299.242188 317.578125 276.460938 C 314.6875 263.003906 318.988281 240.445312 316.996094 228.21875 C 315.417969 218.539062 313.128906 192.394531 313.128906 192.394531 L 282.214844 190.578125 C 282.214844 190.578125 287.683594 208.210938 287.941406 224.933594 " fill-opacity="1" fill-rule="nonzero"/><path fill="#ffffff" d="M 241.996094 150.640625 C 221.910156 154.316406 208.382812 140.117188 200.667969 110.097656 C 196.40625 108.828125 192.660156 105.546875 189.0625 101.695312 C 188.59375 101.195312 188.238281 100.59375 188.015625 99.945312 C 185.539062 92.867188 185.207031 88.929688 187.082031 88.21875 C 189.390625 87.199219 193.253906 93.160156 197.238281 99.660156 C 196.058594 96.402344 194.957031 93.25 195.707031 92.601562 C 197.875 91.953125 201.257812 97.070312 204.464844 101.351562 C 204.988281 102.050781 205.410156 102.816406 205.71875 103.628906 L 206.820312 106.523438 C 212.644531 116.90625 218.847656 125.65625 225.980469 130.40625 C 231.230469 133.660156 230.964844 132.316406 237.992188 133.839844 L 241.996094 150.640625 " fill-opacity="1" fill-rule="nonzero"/><path fill="#0c2840" d="M 187.644531 88.53125 C 187.507812 88.53125 187.375 88.558594 187.257812 88.609375 C 186.335938 88.960938 185.292969 90.863281 188.417969 99.804688 C 188.628906 100.40625 188.957031 100.957031 189.375 101.402344 C 192.503906 104.753906 196.308594 108.355469 200.789062 109.6875 C 200.933594 109.730469 201.046875 109.847656 201.082031 109.992188 C 204.945312 125.011719 210.300781 136.015625 216.996094 142.699219 C 223.679688 149.371094 231.910156 151.925781 241.472656 150.296875 L 237.636719 134.199219 C 235.457031 133.738281 234.019531 133.5625 232.855469 133.421875 C 230.429688 133.121094 229.328125 132.988281 225.753906 130.769531 C 219.410156 126.546875 213.28125 118.910156 206.445312 106.734375 C 206.433594 106.714844 206.425781 106.695312 206.414062 106.675781 L 205.320312 103.78125 C 205.023438 103.007812 204.621094 102.277344 204.125 101.613281 C 203.71875 101.066406 203.304688 100.511719 202.894531 99.953125 C 200.390625 96.550781 197.550781 92.714844 195.941406 92.988281 C 195.527344 93.6875 196.945312 97.601562 197.640625 99.515625 C 197.714844 99.71875 197.621094 99.949219 197.421875 100.046875 C 197.222656 100.140625 196.984375 100.070312 196.871094 99.882812 C 194.230469 95.578125 189.914062 88.53125 187.644531 88.53125 Z M 236.019531 151.632812 C 228.519531 151.632812 221.9375 148.847656 216.390625 143.308594 C 209.617188 136.550781 204.207031 125.492188 200.3125 110.4375 C 195.738281 108.996094 191.902344 105.363281 188.75 101.988281 C 188.25 101.457031 187.859375 100.796875 187.609375 100.085938 C 184.96875 92.539062 184.753906 88.640625 186.933594 87.816406 C 189.125 86.851562 192.050781 90.628906 195.605469 96.230469 C 194.917969 93.972656 194.820312 92.796875 195.429688 92.277344 C 195.472656 92.234375 195.527344 92.207031 195.585938 92.191406 C 197.765625 91.542969 200.59375 95.378906 203.589844 99.445312 C 203.996094 100 204.40625 100.554688 204.8125 101.097656 C 205.359375 101.828125 205.800781 102.628906 206.121094 103.476562 L 207.207031 106.339844 C 213.96875 118.378906 220.011719 125.914062 226.21875 130.046875 C 229.621094 132.15625 230.597656 132.277344 232.960938 132.566406 C 234.1875 132.71875 235.714844 132.90625 238.082031 133.421875 C 238.246094 133.453125 238.375 133.578125 238.410156 133.738281 L 242.414062 150.542969 C 242.441406 150.65625 242.417969 150.777344 242.355469 150.878906 C 242.289062 150.976562 242.1875 151.042969 242.074219 151.066406 C 239.992188 151.445312 237.972656 151.632812 236.019531 151.632812 " fill-opacity="1" fill-rule="nonzero"/><path fill="#ffffff" d="M 247.179688 120.355469 C 256.054688 117.070312 258.859375 115.554688 267.265625 113.28125 C 276.003906 110.917969 282.839844 110.328125 291.800781 111.320312 C 301.949219 112.441406 313.039062 114.179688 320.8125 122.015625 C 328.128906 129.390625 330.78125 140.589844 332.675781 151.207031 C 332.804688 151.945312 332.929688 152.722656 332.675781 153.421875 C 331.898438 155.550781 317.484375 154.714844 317.484375 154.710938 C 316.960938 157.644531 316.792969 161.828125 316.550781 164.8125 L 314.796875 201.574219 C 277.085938 212.257812 262.9375 201.441406 262.9375 201.441406 L 257.457031 158.246094 C 257.375 156.324219 256.289062 151.175781 256.289062 151.175781 L 242.039062 156.222656 C 237.28125 146.042969 235.234375 138.898438 230.5 128.703125 C 230.195312 128.050781 247.097656 120.386719 247.179688 120.355469 " fill-opacity="1" fill-rule="nonzero"/><path fill="#0c2840" d="M 247.179688 120.355469 L 247.183594 120.355469 Z M 317.484375 154.710938 L 317.488281 154.710938 Z M 263.335938 201.199219 C 264.90625 202.246094 279.535156 211.046875 314.378906 201.246094 L 316.121094 164.792969 C 316.183594 164.007812 316.242188 163.148438 316.304688 162.257812 C 316.472656 159.710938 316.667969 156.828125 317.0625 154.636719 C 317.097656 154.421875 317.292969 154.265625 317.503906 154.28125 C 317.511719 154.28125 317.515625 154.28125 317.523438 154.285156 C 321.585938 154.59375 331.777344 154.628906 332.273438 153.273438 C 332.496094 152.664062 332.359375 151.898438 332.25 151.285156 C 330.445312 141.183594 327.90625 129.773438 320.507812 122.320312 C 312.90625 114.660156 302.132812 112.894531 291.753906 111.746094 C 282.988281 110.777344 276.15625 111.324219 267.375 113.699219 C 261.476562 115.292969 258.308594 116.527344 253.921875 118.242188 C 252.066406 118.964844 249.960938 119.785156 247.335938 120.753906 C 246.054688 121.308594 232.617188 127.476562 230.992188 128.757812 C 233.292969 133.71875 234.976562 138.019531 236.609375 142.1875 C 238.253906 146.378906 239.949219 150.714844 242.261719 155.691406 L 256.144531 150.769531 C 256.261719 150.726562 256.390625 150.738281 256.5 150.796875 C 256.605469 150.859375 256.679688 150.964844 256.703125 151.085938 C 256.753906 151.296875 257.800781 156.292969 257.882812 158.230469 Z M 284.714844 206.707031 C 280.648438 206.707031 277.3125 206.378906 274.652344 205.9375 C 266.394531 204.566406 262.820312 201.894531 262.675781 201.78125 C 262.585938 201.714844 262.527344 201.609375 262.511719 201.496094 L 257.027344 158.300781 C 256.964844 156.746094 256.238281 153.0625 255.964844 151.742188 L 242.183594 156.628906 C 241.976562 156.703125 241.746094 156.605469 241.648438 156.40625 C 239.242188 151.253906 237.496094 146.804688 235.808594 142.5 C 234.160156 138.285156 232.449219 133.921875 230.109375 128.886719 C 230.050781 128.765625 230.050781 128.625 230.101562 128.496094 C 230.589844 127.320312 246.867188 120.011719 247.027344 119.953125 C 249.652344 118.980469 251.753906 118.164062 253.609375 117.441406 C 258.019531 115.71875 261.210938 114.476562 267.152344 112.871094 C 276.039062 110.464844 282.964844 109.910156 291.847656 110.894531 C 302.382812 112.058594 313.316406 113.855469 321.117188 121.714844 C 328.6875 129.347656 331.269531 140.902344 333.09375 151.132812 C 333.222656 151.847656 333.378906 152.738281 333.078125 153.570312 C 332.226562 155.898438 320.246094 155.3125 317.839844 155.164062 C 317.5 157.261719 317.320312 159.941406 317.15625 162.316406 C 317.097656 163.210938 317.039062 164.074219 316.976562 164.847656 L 315.21875 201.597656 C 315.214844 201.78125 315.085938 201.941406 314.910156 201.988281 C 302.21875 205.585938 292.230469 206.707031 284.714844 206.707031 " fill-opacity="1" fill-rule="nonzero"/><path fill="#0c2840" d="M 269.105469 87.761719 C 268.285156 87.214844 267.578125 86.621094 267.167969 85.941406 C 264.664062 81.8125 262.816406 73.8125 265.894531 69.492188 C 267.570312 70.515625 269.277344 71.460938 271.164062 72.1875 C 271.171875 71.664062 271.183594 71.140625 271.195312 70.617188 C 271.167969 71.871094 280.855469 71.375 281.820312 71.222656 C 285.070312 70.699219 288.671875 69.636719 291.875 71.097656 C 293.570312 71.875 294.816406 73.363281 296.003906 74.800781 C 298.957031 78.386719 299.453125 82.390625 299.386719 86.972656 C 299.324219 91.019531 298.542969 96.3125 294.445312 98.265625 C 290.253906 100.261719 283.910156 96.433594 280.363281 94.5 C 277.945312 93.179688 275.589844 91.726562 273.292969 90.199219 C 272.144531 89.4375 270.46875 88.671875 269.105469 87.761719 " fill-opacity="1" fill-rule="nonzero"/><path fill="#ffffff" d="M 291.855469 96.191406 L 291.855469 112.699219 C 291.855469 115.164062 289.859375 117.164062 287.394531 117.164062 L 282.160156 117.164062 C 279.691406 117.164062 277.695312 115.164062 277.695312 112.699219 L 277.695312 105.039062 L 291.855469 96.191406 " fill-opacity="1" fill-rule="nonzero"/><path fill="#0c2840" d="M 278.121094 105.28125 L 278.121094 112.699219 C 278.121094 114.921875 279.933594 116.734375 282.15625 116.734375 L 287.390625 116.734375 C 289.617188 116.734375 291.425781 114.921875 291.425781 112.699219 L 291.425781 96.964844 Z M 287.390625 117.589844 L 282.15625 117.589844 C 279.460938 117.589844 277.265625 115.394531 277.265625 112.699219 L 277.265625 105.042969 C 277.265625 104.894531 277.339844 104.757812 277.464844 104.679688 L 291.628906 95.824219 C 291.757812 95.742188 291.929688 95.738281 292.0625 95.816406 C 292.203125 95.890625 292.285156 96.035156 292.285156 96.191406 L 292.285156 112.699219 C 292.285156 115.394531 290.089844 117.589844 287.390625 117.589844 " fill-opacity="1" fill-rule="nonzero"/><path fill="#ffffff" d="M 275.167969 80.378906 C 271.542969 81.40625 269.015625 84.683594 268.832031 88.449219 C 268.523438 94.878906 268.921875 105.101562 274.699219 107.21875 C 282.871094 110.214844 289 102.589844 290.222656 101.089844 C 291.449219 99.589844 292.675781 94.824219 292.675781 94.824219 C 292.675781 94.824219 295.261719 94.691406 295.804688 92.511719 C 296.351562 90.332031 297.167969 86.519531 291.992188 86.65625 C 291.992188 86.65625 291.179688 79.4375 282.328125 79.4375 C 279.460938 79.4375 277.078125 79.835938 275.167969 80.378906 " fill-opacity="1" fill-rule="nonzero"/><path fill="#0c2840" d="M 275.285156 80.792969 C 271.855469 81.761719 269.4375 84.847656 269.261719 88.46875 C 268.910156 95.777344 269.589844 104.890625 274.847656 106.816406 C 279.953125 108.6875 285.140625 106.628906 289.855469 100.867188 L 289.890625 100.820312 C 291.042969 99.410156 292.246094 94.769531 292.257812 94.71875 C 292.304688 94.539062 292.464844 94.410156 292.652344 94.398438 C 292.742188 94.394531 294.929688 94.246094 295.390625 92.410156 C 295.664062 91.308594 296.179688 89.257812 295.246094 88.097656 C 294.675781 87.382812 293.582031 87.035156 292.003906 87.085938 C 291.789062 87.085938 291.59375 86.925781 291.566406 86.707031 C 291.535156 86.425781 290.671875 79.867188 282.324219 79.867188 C 279.820312 79.867188 277.453125 80.179688 275.285156 80.792969 Z M 278.460938 108.332031 C 277.148438 108.332031 275.84375 108.097656 274.550781 107.621094 C 268.804688 105.515625 268.035156 96.023438 268.40625 88.429688 C 268.597656 84.4375 271.269531 81.035156 275.050781 79.964844 C 277.292969 79.332031 279.738281 79.011719 282.324219 79.011719 C 290.25 79.011719 292.019531 84.679688 292.351562 86.222656 C 294.019531 86.242188 295.21875 86.691406 295.917969 87.5625 C 297.113281 89.054688 296.535156 91.371094 296.222656 92.617188 C 295.722656 94.613281 293.789062 95.105469 293.015625 95.21875 C 292.722656 96.292969 291.664062 100.011719 290.554688 101.363281 L 290.515625 101.410156 C 286.792969 105.964844 282.625 108.332031 278.460938 108.332031 " fill-opacity="1" fill-rule="nonzero"/><path fill="#0c2840" d="M 311.832031 363.878906 L 340.667969 356.539062 L 344.679688 190.613281 L 308.863281 188.09375 L 311.832031 363.878906 " fill-opacity="1" fill-rule="nonzero"/><g clip-path="url(#ef19283cc7)"><path fill="#0c2840" d="M 309.300781 188.550781 L 312.25 363.328125 L 340.246094 356.203125 L 344.242188 191.011719 Z M 311.832031 364.308594 C 311.738281 364.308594 311.648438 364.277344 311.570312 364.21875 C 311.464844 364.140625 311.40625 364.019531 311.402344 363.886719 L 308.4375 188.101562 C 308.433594 187.976562 308.484375 187.863281 308.566406 187.78125 C 308.660156 187.699219 308.773438 187.652344 308.894531 187.664062 L 344.710938 190.183594 C 344.9375 190.199219 345.117188 190.394531 345.109375 190.621094 L 341.097656 356.550781 C 341.09375 356.742188 340.960938 356.90625 340.773438 356.957031 L 311.9375 364.292969 C 311.902344 364.304688 311.867188 364.308594 311.832031 364.308594 " fill-opacity="1" fill-rule="nonzero"/></g><path fill="#ffffff" d="M 311.832031 363.878906 L 249.40625 362.960938 L 234.6875 189.105469 L 312.253906 187.226562 L 311.832031 363.878906 " fill-opacity="1" fill-rule="nonzero"/><g clip-path="url(#bc884b06c1)"><path fill="#0c2840" d="M 249.800781 362.539062 L 311.402344 363.445312 L 311.820312 187.667969 L 235.15625 189.523438 Z M 311.832031 364.308594 C 311.828125 364.308594 311.828125 364.308594 311.824219 364.308594 L 249.398438 363.390625 C 249.179688 363.386719 248.996094 363.21875 248.980469 363 L 234.261719 189.140625 C 234.253906 189.023438 234.289062 188.90625 234.371094 188.820312 C 234.449219 188.730469 234.5625 188.679688 234.679688 188.675781 L 312.242188 186.796875 C 312.359375 186.796875 312.46875 186.839844 312.550781 186.917969 C 312.632812 187 312.679688 187.109375 312.679688 187.226562 L 312.261719 363.878906 C 312.261719 363.996094 312.214844 364.105469 312.128906 364.183594 C 312.050781 364.261719 311.941406 364.308594 311.832031 364.308594 " fill-opacity="1" fill-rule="nonzero"/></g><path fill="#ffffff" d="M 311.890625 178.097656 L 348.328125 185.464844 L 348.328125 197.476562 L 310.851562 193.234375 L 311.890625 178.097656 " fill-opacity="1" fill-rule="nonzero"/><path fill="#0c2840" d="M 311.308594 192.851562 L 347.898438 196.996094 L 347.898438 185.8125 L 312.285156 178.613281 Z M 348.328125 197.90625 C 348.3125 197.90625 348.292969 197.902344 348.28125 197.902344 L 310.804688 193.660156 C 310.574219 193.632812 310.40625 193.433594 310.421875 193.203125 L 311.460938 178.066406 C 311.472656 177.941406 311.53125 177.828125 311.628906 177.753906 C 311.726562 177.679688 311.851562 177.652344 311.972656 177.671875 L 348.414062 185.042969 C 348.613281 185.082031 348.757812 185.257812 348.757812 185.464844 L 348.757812 197.476562 C 348.757812 197.597656 348.703125 197.714844 348.613281 197.796875 C 348.535156 197.867188 348.433594 197.90625 348.328125 197.90625 " fill-opacity="1" fill-rule="nonzero"/><path fill="#ffffff" d="M 311.011719 193.234375 L 228.414062 196.671875 L 228.167969 183.027344 L 311.996094 178.097656 L 311.011719 193.234375 " fill-opacity="1" fill-rule="nonzero"/><path fill="#0c2840" d="M 311.007812 193.234375 L 311.015625 193.234375 Z M 228.601562 183.433594 L 228.832031 196.226562 L 310.605469 192.820312 L 311.535156 178.554688 Z M 228.410156 197.101562 C 228.304688 197.101562 228.195312 197.0625 228.117188 196.988281 C 228.03125 196.90625 227.984375 196.796875 227.984375 196.683594 L 227.738281 183.035156 C 227.734375 182.804688 227.910156 182.613281 228.140625 182.597656 L 311.96875 177.667969 C 312.089844 177.660156 312.214844 177.707031 312.300781 177.792969 C 312.386719 177.882812 312.433594 178 312.421875 178.125 L 311.4375 193.261719 C 311.421875 193.480469 311.25 193.652344 311.03125 193.664062 L 228.425781 197.101562 C 228.421875 197.101562 228.417969 197.101562 228.410156 197.101562 " fill-opacity="1" fill-rule="nonzero"/><path fill="#0c2840" d="M 270.871094 157.960938 C 267.976562 156.589844 266.808594 153.257812 268.28125 150.558594 L 274.5625 139.046875 C 276.03125 136.347656 279.609375 135.261719 282.503906 136.632812 C 285.402344 138.007812 286.566406 141.339844 285.09375 144.035156 L 278.816406 155.546875 C 277.34375 158.246094 273.769531 159.332031 270.871094 157.960938 " fill-opacity="1" fill-rule="nonzero"/><path fill="#0c2840" d="M 271.085938 179.699219 C 270.863281 179.699219 270.671875 179.523438 270.65625 179.292969 C 269.902344 166.15625 269.941406 161.671875 275.6875 146.027344 C 275.769531 145.804688 276.015625 145.691406 276.238281 145.773438 C 276.460938 145.855469 276.574219 146.101562 276.492188 146.324219 C 270.804688 161.808594 270.769531 166.246094 271.515625 179.242188 C 271.527344 179.484375 271.347656 179.683594 271.109375 179.699219 C 271.101562 179.699219 271.09375 179.699219 271.085938 179.699219 " fill-opacity="1" fill-rule="nonzero"/><path fill="#0c2840" d="M 281.492188 180.128906 C 279.1875 177.488281 275.601562 176.058594 271.648438 176.253906 C 267.695312 176.453125 264.292969 178.230469 262.3125 181.085938 L 281.492188 180.128906 " fill-opacity="1" fill-rule="nonzero"/><path fill="#0c2840" d="M 274.824219 302.808594 C 274.71875 302.808594 274.613281 302.769531 274.53125 302.6875 C 274.359375 302.527344 274.351562 302.253906 274.515625 302.082031 L 287.886719 287.960938 C 288.050781 287.789062 288.320312 287.78125 288.492188 287.945312 C 288.664062 288.105469 288.671875 288.378906 288.511719 288.550781 L 275.136719 302.675781 C 275.050781 302.761719 274.9375 302.808594 274.824219 302.808594 " fill-opacity="1" fill-rule="nonzero"/><path fill="#0c2840" d="M 257.0625 321.566406 C 256.953125 321.566406 256.851562 321.53125 256.765625 321.453125 C 256.59375 321.289062 256.589844 321.015625 256.75 320.84375 L 268.855469 308.058594 C 269.019531 307.886719 269.289062 307.878906 269.460938 308.042969 C 269.632812 308.203125 269.640625 308.476562 269.480469 308.648438 L 257.375 321.433594 C 257.289062 321.523438 257.175781 321.566406 257.0625 321.566406 " fill-opacity="1" fill-rule="nonzero"/><path fill="#0c2840" d="M 271.082031 321.164062 C 270.972656 321.164062 270.867188 321.125 270.785156 321.046875 C 270.617188 320.882812 270.605469 320.609375 270.769531 320.4375 L 301.902344 287.554688 C 302.070312 287.382812 302.339844 287.378906 302.511719 287.539062 C 302.683594 287.703125 302.691406 287.976562 302.527344 288.148438 L 271.394531 321.03125 C 271.308594 321.117188 271.195312 321.164062 271.082031 321.164062 " fill-opacity="1" fill-rule="nonzero"/><path fill="#ffffff" d="M 110.289062 306.144531 L 109.808594 313.738281 C 109.800781 315.875 111.457031 317.585938 113.425781 317.484375 L 115.699219 317.363281 C 117.542969 317.265625 118.96875 315.601562 118.925781 313.605469 L 119.292969 303.980469 L 110.289062 306.144531 " fill-opacity="1" fill-rule="nonzero"/><path fill="#0c2840" d="M 110.699219 306.488281 L 110.238281 313.765625 C 110.234375 314.699219 110.613281 315.613281 111.28125 316.246094 C 111.871094 316.808594 112.628906 317.101562 113.402344 317.054688 L 115.675781 316.9375 C 117.296875 316.851562 118.535156 315.390625 118.496094 313.613281 L 118.839844 304.527344 Z M 113.257812 317.917969 C 112.308594 317.917969 111.402344 317.550781 110.6875 316.867188 C 109.851562 316.074219 109.378906 314.929688 109.382812 313.738281 L 109.863281 306.117188 C 109.871094 305.929688 110.007812 305.769531 110.1875 305.726562 L 119.191406 303.5625 C 119.320312 303.53125 119.460938 303.5625 119.5625 303.648438 C 119.667969 303.734375 119.726562 303.863281 119.722656 303.996094 L 119.351562 313.621094 C 119.40625 315.839844 117.808594 317.683594 115.722656 317.792969 L 113.449219 317.910156 C 113.382812 317.914062 113.320312 317.917969 113.257812 317.917969 " fill-opacity="1" fill-rule="nonzero"/><path fill="#ffffff" d="M 109.4375 312.871094 C 108.90625 312.28125 107.976562 312.296875 107.46875 312.90625 C 106.464844 314.113281 105.011719 316.167969 104.566406 318.386719 C 103.863281 321.886719 102.710938 329.238281 105.132812 329.980469 C 106.929688 330.535156 125.785156 329.476562 135.117188 328.921875 C 138.054688 328.742188 139.523438 325.214844 137.515625 323.0625 C 135.992188 321.425781 133.097656 319.753906 129.714844 318.371094 C 124.636719 316.296875 122.203125 314.417969 121.039062 313.132812 C 120.246094 312.253906 118.949219 312.046875 117.953125 312.6875 L 114.96875 314.617188 C 113.519531 315.554688 111.605469 315.296875 110.453125 314.011719 L 109.4375 312.871094 " fill-opacity="1" fill-rule="nonzero"/><path fill="#0c2840" d="M 108.46875 312.867188 C 108.464844 312.867188 108.457031 312.867188 108.453125 312.867188 C 108.199219 312.871094 107.960938 312.984375 107.800781 313.183594 C 106.746094 314.445312 105.402344 316.386719 104.984375 318.46875 C 103.699219 324.871094 103.804688 329.125 105.257812 329.570312 C 106.476562 329.945312 117.351562 329.550781 135.089844 328.492188 C 136.300781 328.417969 137.332031 327.671875 137.785156 326.539062 C 138.234375 325.417969 138.015625 324.226562 137.203125 323.351562 C 135.789062 321.835938 133.074219 320.207031 129.550781 318.769531 C 124.320312 316.632812 121.863281 314.679688 120.722656 313.417969 C 120.058594 312.683594 118.992188 312.527344 118.183594 313.046875 L 115.199219 314.980469 C 113.566406 316.035156 111.433594 315.75 110.136719 314.296875 L 109.117188 313.160156 C 108.953125 312.972656 108.714844 312.867188 108.46875 312.867188 Z M 108.042969 330.5625 C 106.460938 330.5625 105.386719 330.507812 105.007812 330.390625 C 102.445312 329.605469 103.125 323.382812 104.144531 318.300781 C 104.597656 316.042969 106.023438 313.972656 107.140625 312.632812 C 107.460938 312.246094 107.933594 312.019531 108.4375 312.011719 C 108.945312 312 109.421875 312.210938 109.757812 312.585938 L 110.773438 313.722656 C 111.789062 314.859375 113.457031 315.085938 114.734375 314.257812 L 117.71875 312.328125 C 118.878906 311.578125 120.410156 311.796875 121.359375 312.84375 C 122.4375 314.039062 124.792969 315.898438 129.875 317.972656 C 133.511719 319.460938 136.335938 321.164062 137.832031 322.769531 C 138.859375 323.875 139.148438 325.445312 138.582031 326.859375 C 138.003906 328.300781 136.683594 329.253906 135.140625 329.347656 C 125.195312 329.941406 113.546875 330.558594 108.042969 330.5625 " fill-opacity="1" fill-rule="nonzero"/><path fill="#0c2840" d="M 119.640625 322.484375 C 119.507812 322.484375 119.375 322.425781 119.292969 322.308594 C 119.152344 322.117188 119.195312 321.851562 119.386719 321.710938 L 123.90625 318.425781 C 124.097656 318.289062 124.367188 318.328125 124.503906 318.523438 C 124.644531 318.714844 124.601562 318.980469 124.410156 319.121094 L 119.890625 322.40625 C 119.816406 322.457031 119.726562 322.484375 119.640625 322.484375 " fill-opacity="1" fill-rule="nonzero"/><path fill="#0c2840" d="M 129.945312 218.113281 C 129.945312 218.113281 128.414062 236.894531 125.859375 251.585938 C 123.816406 263.308594 125.636719 278.515625 122.507812 295.636719 C 121.566406 300.800781 120.058594 308.675781 120.058594 308.683594 L 109.375 309.238281 C 108.585938 307.90625 103.65625 283.75 107.578125 263.207031 C 109.894531 251.066406 102.28125 234.375 103.820312 223.359375 C 105.035156 214.640625 108.316406 189.308594 108.316406 189.308594 L 127.351562 188.980469 C 127.351562 188.980469 129.828125 203.097656 129.945312 218.113281 " fill-opacity="1" fill-rule="nonzero"/><path fill="#0c2840" d="M 108.695312 189.730469 C 108.285156 192.882812 105.367188 215.371094 104.242188 223.417969 C 103.53125 228.527344 104.808594 234.839844 106.160156 241.523438 C 107.675781 249.019531 109.242188 256.773438 108 263.285156 C 104.25 282.933594 108.671875 306.035156 109.648438 308.792969 L 119.699219 308.269531 C 119.992188 306.734375 121.257812 300.105469 122.085938 295.558594 C 123.8125 286.109375 124.027344 277.125 124.21875 269.199219 C 124.375 262.808594 124.519531 256.769531 125.433594 251.511719 C 127.925781 237.214844 129.460938 218.792969 129.515625 218.097656 C 129.410156 204.617188 127.371094 191.71875 126.988281 189.417969 Z M 109.375 309.667969 C 109.222656 309.667969 109.082031 309.585938 109.003906 309.457031 C 108.238281 308.164062 103.140625 284.171875 107.15625 263.125 C 108.367188 256.777344 106.816406 249.109375 105.316406 241.695312 C 103.949219 234.9375 102.660156 228.554688 103.394531 223.296875 C 104.59375 214.683594 107.859375 189.503906 107.890625 189.25 C 107.917969 189.039062 108.097656 188.882812 108.308594 188.878906 L 127.34375 188.550781 C 127.347656 188.550781 127.347656 188.550781 127.351562 188.550781 C 127.558594 188.550781 127.738281 188.703125 127.773438 188.90625 C 127.800781 189.046875 130.257812 203.230469 130.375 218.109375 C 130.375 218.121094 130.375 218.132812 130.375 218.144531 C 130.359375 218.335938 128.8125 237.117188 126.28125 251.660156 C 125.375 256.855469 125.230469 262.859375 125.078125 269.21875 C 124.886719 277.175781 124.667969 286.195312 122.929688 295.714844 C 122.191406 299.761719 120.5 308.710938 120.464844 308.816406 C 120.410156 308.984375 120.257812 309.101562 120.078125 309.109375 L 109.394531 309.667969 C 109.386719 309.667969 109.378906 309.667969 109.375 309.667969 " fill-opacity="1" fill-rule="nonzero"/><path fill="#ffffff" d="M 75.023438 290.796875 L 70.191406 301.402344 C 69.472656 303.574219 70.496094 305.851562 72.429688 306.378906 L 74.660156 306.988281 C 76.472656 307.480469 78.402344 306.246094 79.023438 304.195312 L 84.183594 293.082031 L 75.023438 290.796875 " fill-opacity="1" fill-rule="nonzero"/><path fill="#0c2840" d="M 70.589844 301.558594 C 70.257812 302.578125 70.339844 303.664062 70.808594 304.539062 C 71.195312 305.257812 71.8125 305.765625 72.542969 305.964844 L 74.773438 306.574219 C 76.371094 307.011719 78.058594 305.910156 78.613281 304.070312 C 78.621094 304.050781 78.628906 304.03125 78.636719 304.015625 L 83.574219 293.375 L 75.265625 291.296875 Z M 75.484375 307.527344 C 75.171875 307.527344 74.859375 307.488281 74.550781 307.402344 L 72.316406 306.792969 C 71.355469 306.53125 70.550781 305.875 70.054688 304.945312 C 69.46875 303.855469 69.371094 302.515625 69.78125 301.265625 C 69.789062 301.253906 69.792969 301.238281 69.800781 301.222656 L 74.632812 290.617188 C 74.71875 290.429688 74.925781 290.332031 75.128906 290.378906 L 84.285156 292.667969 C 84.410156 292.699219 84.515625 292.78125 84.570312 292.898438 C 84.625 293.015625 84.625 293.148438 84.574219 293.261719 L 79.425781 304.347656 C 78.832031 306.273438 77.207031 307.527344 75.484375 307.527344 " fill-opacity="1" fill-rule="nonzero"/><path fill="#ffffff" d="M 60.765625 308.769531 C 59.828125 309.96875 59.859375 311.664062 60.832031 312.835938 C 64.230469 316.945312 71.914062 326.175781 74.265625 328.59375 C 77.324219 331.730469 82.363281 333.898438 85.71875 333.269531 C 89.074219 332.640625 86.839844 323.335938 85.375 319.453125 C 83.195312 313.6875 83.113281 305.503906 81.617188 303.996094 C 80.742188 303.117188 78.054688 303.59375 75.964844 304.144531 C 74.34375 304.570312 72.640625 303.839844 71.804688 302.386719 L 70.46875 300.066406 C 70.128906 299.476562 69.332031 299.359375 68.835938 299.828125 C 67.3125 301.277344 64.183594 304.414062 60.765625 308.769531 " fill-opacity="1" fill-rule="nonzero"/><path fill="#0c2840" d="M 61.105469 309.035156 C 60.296875 310.0625 60.320312 311.546875 61.164062 312.5625 C 64.410156 316.488281 72.21875 325.875 74.574219 328.292969 C 77.636719 331.4375 82.5 333.4375 85.640625 332.847656 C 86.03125 332.773438 86.328125 332.542969 86.554688 332.140625 C 87.886719 329.769531 86.179688 322.808594 84.972656 319.605469 C 83.871094 316.6875 83.3125 313.25 82.820312 310.21875 C 82.382812 307.511719 81.964844 304.957031 81.3125 304.296875 C 81.046875 304.03125 80.003906 303.523438 76.074219 304.558594 C 74.277344 305.03125 72.367188 304.226562 71.433594 302.601562 L 70.097656 300.28125 C 70 300.117188 69.835938 300.003906 69.644531 299.976562 C 69.460938 299.949219 69.273438 300.007812 69.132812 300.140625 C 67.589844 301.609375 64.492188 304.714844 61.105469 309.035156 Z M 84.503906 333.804688 C 81.179688 333.804688 76.8125 331.820312 73.960938 328.890625 C 71.582031 326.453125 63.753906 317.042969 60.5 313.109375 C 59.40625 311.785156 59.375 309.847656 60.429688 308.503906 C 63.851562 304.140625 66.980469 301 68.542969 299.519531 C 68.871094 299.203125 69.320312 299.058594 69.769531 299.125 C 70.222656 299.191406 70.613281 299.457031 70.839844 299.855469 L 72.175781 302.175781 C 72.917969 303.464844 74.433594 304.105469 75.855469 303.730469 C 79.109375 302.871094 81.09375 302.863281 81.917969 303.691406 C 82.769531 304.546875 83.144531 306.867188 83.667969 310.082031 C 84.152344 313.074219 84.703125 316.464844 85.773438 319.300781 C 86.953125 322.417969 88.875 329.765625 87.304688 332.558594 C 86.949219 333.1875 86.445312 333.570312 85.796875 333.691406 C 85.390625 333.769531 84.957031 333.804688 84.503906 333.804688 " fill-opacity="1" fill-rule="nonzero"/><path fill="#0c2840" d="M 75.679688 314.226562 C 75.464844 314.226562 75.277344 314.066406 75.253906 313.847656 C 75.226562 313.613281 75.394531 313.398438 75.628906 313.371094 L 80.542969 312.792969 C 80.78125 312.761719 80.992188 312.933594 81.019531 313.171875 C 81.046875 313.40625 80.878906 313.617188 80.644531 313.644531 L 75.730469 314.226562 C 75.710938 314.226562 75.695312 314.226562 75.679688 314.226562 " fill-opacity="1" fill-rule="nonzero"/><path fill="#0c2840" d="M 106.808594 187.230469 C 100.035156 172.867188 81.007812 181.949219 81.785156 209.921875 C 82.089844 220.882812 81.992188 239.351562 84.035156 247.003906 C 84.800781 249.890625 84.375 252.96875 82.945312 255.59375 C 72.851562 274.148438 73.90625 275.761719 72.382812 292.925781 C 72.359375 293.199219 78.042969 298.929688 81.183594 299.207031 C 90.925781 287.527344 97.679688 264.660156 102.320312 256.078125 C 106.96875 247.488281 109.394531 200.839844 109.394531 200.839844 C 109.394531 200.839844 110.960938 196.035156 106.808594 187.230469 " fill-opacity="1" fill-rule="nonzero"/><path fill="#0c2840" d="M 72.824219 292.832031 C 73.449219 293.667969 78.253906 298.292969 81.003906 298.75 C 87.449219 290.921875 92.558594 278.230469 96.667969 268.015625 C 98.679688 263.019531 100.417969 258.699219 101.945312 255.875 C 106.492188 247.464844 108.941406 201.285156 108.96875 200.820312 C 108.96875 200.78125 108.976562 200.746094 108.988281 200.707031 C 109 200.664062 110.433594 195.921875 106.417969 187.410156 C 104.082031 182.457031 100.066406 180.121094 95.6875 181.167969 C 88.859375 182.796875 81.730469 192.488281 82.214844 209.910156 C 82.273438 211.976562 82.316406 214.3125 82.363281 216.78125 C 82.558594 227.453125 82.804688 240.734375 84.445312 246.894531 C 85.238281 249.855469 84.835938 253.015625 83.324219 255.796875 C 74.488281 272.035156 74.230469 275.285156 73.273438 287.375 C 73.144531 289.011719 73.003906 290.816406 72.824219 292.832031 Z M 81.183594 299.632812 C 81.171875 299.632812 81.160156 299.632812 81.144531 299.632812 C 79.371094 299.476562 77 297.785156 75.324219 296.394531 C 75.289062 296.367188 71.898438 293.535156 71.957031 292.890625 C 72.140625 290.820312 72.285156 288.980469 72.417969 287.308594 C 73.386719 275.074219 73.648438 271.785156 82.570312 255.386719 C 83.976562 252.796875 84.351562 249.863281 83.617188 247.117188 C 81.949219 240.851562 81.703125 227.515625 81.503906 216.796875 C 81.457031 214.328125 81.414062 211.996094 81.359375 209.933594 C 80.859375 192.03125 88.332031 182.039062 95.488281 180.332031 C 100.296875 179.183594 104.671875 181.695312 107.195312 187.046875 C 111.179688 195.492188 109.996094 200.3125 109.820312 200.917969 C 109.6875 203.46875 107.300781 247.769531 102.699219 256.28125 C 101.195312 259.066406 99.464844 263.363281 97.464844 268.335938 C 93.296875 278.6875 88.117188 291.566406 81.511719 299.480469 C 81.429688 299.578125 81.308594 299.632812 81.183594 299.632812 " fill-opacity="1" fill-rule="nonzero"/><path fill="#0c2840" d="M 81.183594 299.632812 C 81.171875 299.632812 81.160156 299.632812 81.144531 299.632812 C 79.371094 299.476562 77 297.785156 75.324219 296.394531 C 75.289062 296.367188 71.898438 293.535156 71.957031 292.890625 C 72.140625 290.820312 72.285156 288.980469 72.417969 287.308594 C 73.386719 275.074219 73.648438 271.785156 82.570312 255.386719 C 83.976562 252.796875 84.351562 249.863281 83.617188 247.117188 C 81.949219 240.851562 81.703125 227.515625 81.503906 216.796875 C 81.457031 214.328125 81.414062 211.996094 81.359375 209.933594 C 80.859375 192.03125 88.332031 182.039062 95.488281 180.332031 C 100.296875 179.183594 104.671875 181.695312 107.195312 187.046875 L 107.363281 187.40625 C 107.460938 187.617188 107.367188 187.875 107.152344 187.972656 C 106.9375 188.074219 106.683594 187.976562 106.582031 187.765625 L 106.417969 187.410156 C 104.082031 182.457031 100.070312 180.121094 95.6875 181.167969 C 88.859375 182.796875 81.730469 192.488281 82.214844 209.910156 C 82.273438 211.976562 82.316406 214.3125 82.363281 216.78125 C 82.558594 227.453125 82.804688 240.734375 84.445312 246.894531 C 85.238281 249.855469 84.835938 253.015625 83.324219 255.796875 C 74.488281 272.035156 74.230469 275.285156 73.273438 287.375 C 73.144531 289.011719 73.003906 290.816406 72.824219 292.832031 C 73.449219 293.667969 78.253906 298.292969 81.003906 298.75 C 87.449219 290.921875 92.558594 278.230469 96.667969 268.015625 C 98.679688 263.019531 100.417969 258.699219 101.945312 255.875 C 103.929688 252.203125 105.828125 240.613281 107.429688 222.347656 L 107.457031 222.050781 C 107.582031 220.378906 107.914062 215.933594 111.386719 213.402344 C 111.578125 213.261719 111.847656 213.304688 111.988281 213.496094 C 112.125 213.6875 112.082031 213.957031 111.890625 214.09375 C 108.742188 216.390625 108.429688 220.550781 108.308594 222.117188 L 108.285156 222.425781 C 107.160156 235.238281 105.277344 251.515625 102.699219 256.28125 C 101.195312 259.066406 99.464844 263.363281 97.464844 268.335938 C 93.296875 278.6875 88.117188 291.566406 81.511719 299.480469 C 81.429688 299.578125 81.308594 299.632812 81.183594 299.632812 " fill-opacity="1" fill-rule="nonzero"/><path fill="#0c2840" d="M 84.8125 141.511719 C 82.367188 141.339844 78.359375 142.742188 70.9375 135.253906 C 59.175781 146.109375 41.777344 141.691406 34.726562 134.265625 C 26.109375 125.199219 25.972656 107.328125 36.933594 97.402344 C 27.746094 97.953125 25.035156 94.59375 24.210938 93.25 C 19.347656 85.347656 29.382812 65.382812 39.976562 64.621094 C 43.886719 64.34375 49.410156 68.820312 60.292969 77.785156 C 71.535156 87.046875 72.117188 88.949219 75.335938 89.074219 C 84.796875 89.449219 86.546875 73.449219 98.839844 70.625 C 108.792969 68.339844 119.289062 75.640625 120.121094 87.746094 C 120.457031 92.617188 114.371094 92.019531 111.546875 101.914062 C 107.914062 114.625 99.808594 142.550781 84.8125 141.511719 " fill-opacity="1" fill-rule="nonzero"/><path fill="#ffffff" d="M 133.339844 120.757812 C 143.234375 122.300781 147.753906 122.167969 155.8125 118.179688 C 155.8125 118.179688 164.777344 112.945312 163.859375 110.394531 L 160.6875 87.570312 C 160.175781 84.105469 160.378906 80.578125 161.28125 77.195312 L 164.246094 68.191406 C 164.75 66.664062 167.007812 67.027344 167 68.636719 L 166.980469 73.273438 C 166.980469 73.273438 168.5 73.257812 169.136719 73 C 170.527344 72.441406 171.554688 71.234375 172.023438 69.808594 C 172.5625 68.160156 173.449219 65.527344 173.832031 64.796875 C 174.394531 63.71875 175.042969 62.160156 176.25 61.457031 L 176.289062 61.433594 C 177.554688 60.714844 179.101562 61.75 178.914062 63.199219 L 178.273438 68.207031 C 177.808594 71.84375 176.191406 75.238281 173.660156 77.890625 L 168.644531 83.152344 C 167.714844 84.121094 167.460938 85.558594 168.003906 86.792969 L 177.21875 107.816406 C 179.296875 112.667969 179.902344 117.273438 178.695312 120.332031 C 172.40625 136.261719 131.566406 147.140625 131.566406 147.140625 L 133.339844 120.757812 " fill-opacity="1" fill-rule="nonzero"/><path fill="#0c2840" d="M 133.738281 121.253906 L 132.035156 146.566406 C 137.027344 145.160156 172.5625 134.695312 178.296875 120.175781 C 179.4375 117.277344 178.902344 112.835938 176.824219 107.984375 L 167.609375 86.964844 C 166.996094 85.570312 167.28125 83.957031 168.332031 82.851562 L 173.351562 77.59375 C 175.832031 74.988281 177.390625 71.726562 177.847656 68.15625 L 178.488281 63.144531 C 178.554688 62.632812 178.335938 62.148438 177.90625 61.859375 C 177.476562 61.574219 176.949219 61.550781 176.5 61.8125 L 176.460938 61.832031 C 175.535156 62.371094 174.9375 63.5625 174.457031 64.519531 C 174.371094 64.683594 174.289062 64.847656 174.210938 65 C 173.933594 65.523438 173.304688 67.28125 172.429688 69.945312 C 171.902344 71.550781 170.761719 72.808594 169.296875 73.398438 C 168.605469 73.675781 167.148438 73.699219 166.984375 73.703125 C 166.855469 73.714844 166.757812 73.660156 166.675781 73.578125 C 166.59375 73.496094 166.550781 73.386719 166.550781 73.269531 L 166.570312 68.636719 C 166.574219 68.015625 166.128906 67.722656 165.746094 67.660156 C 165.363281 67.597656 164.847656 67.738281 164.652344 68.324219 L 161.6875 77.332031 C 160.804688 80.648438 160.605469 84.082031 161.113281 87.503906 L 164.277344 110.296875 C 165.167969 113.050781 157.570312 117.652344 156.03125 118.550781 C 148.027344 122.507812 143.367188 122.726562 133.738281 121.253906 Z M 131.566406 147.570312 C 131.46875 147.570312 131.371094 147.535156 131.292969 147.472656 C 131.1875 147.382812 131.128906 147.25 131.140625 147.113281 L 132.914062 120.726562 C 132.921875 120.609375 132.976562 120.496094 133.074219 120.421875 C 133.164062 120.34375 133.285156 120.3125 133.40625 120.332031 C 143.308594 121.878906 147.667969 121.730469 155.625 117.796875 C 159.191406 115.710938 164.003906 112.070312 163.457031 110.542969 C 163.445312 110.515625 163.4375 110.484375 163.433594 110.457031 L 160.265625 87.625 C 159.742188 84.09375 159.941406 80.542969 160.863281 77.085938 L 163.835938 68.058594 C 164.125 67.175781 164.964844 66.664062 165.882812 66.8125 C 166.796875 66.964844 167.433594 67.714844 167.429688 68.640625 L 167.410156 72.832031 C 167.917969 72.804688 168.632812 72.738281 168.976562 72.601562 C 170.207031 72.109375 171.167969 71.039062 171.613281 69.675781 C 172.242188 67.761719 173.070312 65.324219 173.449219 64.601562 C 173.527344 64.453125 173.605469 64.296875 173.6875 64.132812 C 174.21875 63.074219 174.882812 61.757812 176.03125 61.085938 C 176.035156 61.085938 176.070312 61.066406 176.074219 61.066406 C 176.800781 60.648438 177.6875 60.679688 178.382812 61.148438 C 179.078125 61.613281 179.449219 62.421875 179.34375 63.253906 L 178.699219 68.261719 C 178.214844 72.015625 176.582031 75.449219 173.96875 78.1875 L 168.953125 83.445312 C 168.140625 84.296875 167.921875 85.542969 168.394531 86.621094 L 177.609375 107.640625 C 179.78125 112.703125 180.316406 117.386719 179.09375 120.492188 C 172.796875 136.441406 133.355469 147.109375 131.675781 147.554688 C 131.640625 147.5625 131.605469 147.570312 131.566406 147.570312 " fill-opacity="1" fill-rule="nonzero"/><path fill="#ffffff" d="M 142.179688 119.917969 C 142.761719 120.203125 143.066406 120.855469 142.921875 121.488281 L 138.621094 140.644531 C 137.230469 146.242188 136.464844 151.976562 136.339844 157.742188 L 135.566406 193.667969 C 135.566406 193.667969 117.203125 207.539062 80.386719 198.800781 L 76.628906 164.957031 C 75.847656 157.910156 74.105469 151 71.453125 144.425781 L 66.535156 132.246094 C 66.261719 131.5625 66.476562 130.78125 67.066406 130.332031 C 69.640625 128.386719 76.859375 123.238281 84.410156 120.722656 C 97.226562 116.449219 129.863281 113.859375 142.179688 119.917969 " fill-opacity="1" fill-rule="nonzero"/><path fill="#0c2840" d="M 80.777344 198.453125 C 114.976562 206.480469 133.234375 194.761719 135.144531 193.445312 L 135.910156 157.734375 C 136.035156 151.945312 136.808594 146.160156 138.203125 140.542969 L 142.503906 121.394531 C 142.605469 120.949219 142.394531 120.5 141.988281 120.300781 C 130.164062 114.484375 97.820312 116.703125 84.546875 121.128906 C 77.109375 123.609375 70.023438 128.632812 67.324219 130.675781 C 66.890625 131.003906 66.730469 131.585938 66.933594 132.085938 L 71.851562 144.265625 C 74.519531 150.878906 76.269531 157.824219 77.054688 164.910156 Z M 103.652344 202.101562 C 96.996094 202.101562 89.1875 201.332031 80.285156 199.21875 C 80.109375 199.175781 79.976562 199.027344 79.957031 198.847656 L 76.203125 165.003906 C 75.425781 157.996094 73.695312 151.128906 71.054688 144.585938 L 66.140625 132.40625 C 65.789062 131.546875 66.066406 130.554688 66.808594 129.992188 C 69.542969 127.921875 76.71875 122.832031 84.273438 120.316406 C 90.847656 118.125 102.308594 116.4375 113.464844 116.019531 C 121.015625 115.734375 134.808594 115.8125 142.367188 119.535156 C 143.128906 119.90625 143.527344 120.75 143.34375 121.582031 L 139.039062 140.738281 C 137.65625 146.308594 136.890625 152.027344 136.769531 157.75 L 135.996094 193.679688 C 135.992188 193.808594 135.929688 193.933594 135.824219 194.011719 C 135.636719 194.15625 131.0625 197.558594 121.890625 199.925781 C 117.386719 201.089844 111.277344 202.101562 103.652344 202.101562 " fill-opacity="1" fill-rule="nonzero"/><path fill="#ffffff" d="M 65.105469 137.699219 C 65.753906 136.425781 66.515625 135.292969 67.351562 134.265625 L 71.453125 144.425781 C 73.101562 148.515625 74.394531 152.730469 75.328125 157.027344 C 76.082031 161.398438 81.605469 184.34375 86.488281 183.800781 C 92.644531 183.113281 88.054688 192.621094 74.273438 191.425781 C 63.828125 190.519531 59.253906 149.1875 65.105469 137.699219 " fill-opacity="1" fill-rule="nonzero"/><path fill="#0c2840" d="M 65.105469 137.699219 L 65.109375 137.699219 Z M 67.230469 135.117188 C 66.5625 136 65.976562 136.929688 65.488281 137.894531 C 60.800781 147.085938 62.90625 175.1875 69.121094 186.382812 C 70.734375 189.285156 72.480469 190.839844 74.3125 190.996094 C 81.695312 191.636719 86.753906 189.125 88.332031 186.515625 C 88.761719 185.804688 88.859375 185.164062 88.597656 184.753906 C 88.308594 184.304688 87.558594 184.113281 86.535156 184.226562 C 86.464844 184.234375 86.390625 184.238281 86.320312 184.238281 C 80.417969 184.242188 74.953125 157.378906 74.902344 157.101562 C 73.976562 152.835938 72.679688 148.617188 71.054688 144.585938 Z M 76.570312 191.957031 C 75.820312 191.957031 75.042969 191.921875 74.238281 191.851562 C 72.101562 191.667969 70.128906 189.96875 68.371094 186.800781 C 62.066406 175.433594 59.949219 146.867188 64.722656 137.503906 C 65.347656 136.273438 66.121094 135.097656 67.019531 133.996094 C 67.113281 133.875 67.265625 133.820312 67.414062 133.84375 C 67.566406 133.863281 67.691406 133.964844 67.75 134.105469 L 71.851562 144.265625 C 73.496094 148.339844 74.804688 152.605469 75.746094 156.9375 C 76.828125 163.195312 82.179688 183.382812 86.300781 183.382812 C 86.347656 183.382812 86.394531 183.378906 86.441406 183.375 C 88.304688 183.167969 89.042969 183.859375 89.320312 184.292969 C 89.765625 184.988281 89.671875 185.960938 89.066406 186.960938 C 87.535156 189.496094 83.058594 191.957031 76.570312 191.957031 " fill-opacity="1" fill-rule="nonzero"/><path fill="#ffffff" d="M 113.164062 100.632812 L 112.28125 117.894531 L 117.992188 119.234375 C 119.953125 119.691406 120.246094 122.375 118.421875 123.230469 C 113.304688 125.617188 104.433594 128.144531 93.707031 124.472656 C 91.855469 123.839844 91.570312 121.339844 93.242188 120.324219 L 97.335938 117.832031 L 101.136719 97.609375 L 113.164062 100.632812 " fill-opacity="1" fill-rule="nonzero"/><path fill="#0c2840" d="M 101.472656 98.132812 L 97.757812 117.910156 C 97.734375 118.03125 97.660156 118.132812 97.558594 118.195312 L 93.464844 120.6875 C 92.828125 121.074219 92.5 121.746094 92.578125 122.484375 C 92.660156 123.21875 93.144531 123.824219 93.84375 124.0625 C 104.230469 127.621094 112.84375 125.359375 118.242188 122.839844 C 119.039062 122.464844 119.261719 121.714844 119.203125 121.136719 C 119.140625 120.550781 118.765625 119.855469 117.894531 119.648438 L 112.183594 118.3125 C 111.980469 118.261719 111.84375 118.078125 111.851562 117.871094 L 112.71875 100.960938 Z M 104.617188 126.761719 C 101.234375 126.761719 97.527344 126.230469 93.566406 124.875 C 92.546875 124.527344 91.84375 123.648438 91.726562 122.574219 C 91.609375 121.515625 92.105469 120.507812 93.019531 119.953125 L 96.949219 117.5625 L 100.714844 97.527344 C 100.738281 97.410156 100.804688 97.308594 100.90625 97.246094 C 101.003906 97.183594 101.125 97.160156 101.242188 97.191406 L 113.269531 100.214844 C 113.46875 100.261719 113.605469 100.445312 113.59375 100.652344 L 112.726562 117.554688 L 118.089844 118.8125 C 119.167969 119.066406 119.941406 119.941406 120.054688 121.046875 C 120.167969 122.140625 119.597656 123.152344 118.605469 123.617188 C 115.121094 125.242188 110.335938 126.761719 104.617188 126.761719 " fill-opacity="1" fill-rule="nonzero"/><path fill="#ffffff" d="M 97.496094 100.191406 C 97.496094 100.191406 92.203125 100.058594 91.511719 95.816406 C 90.457031 89.355469 95.8125 90.4375 95.8125 90.4375 C 95.8125 90.4375 95.03125 84.816406 102.441406 85.097656 C 107.082031 85.277344 111.015625 85.566406 113.53125 85.789062 C 115.328125 85.945312 116.816406 87.253906 117.1875 89.023438 C 117.917969 92.496094 118.914062 98.402344 118.476562 103.214844 C 118.078125 107.621094 116.476562 111.109375 112.371094 110.96875 C 101.132812 110.582031 97.496094 100.191406 97.496094 100.191406 " fill-opacity="1" fill-rule="nonzero"/><path fill="#0c2840" d="M 94.988281 90.800781 C 94.335938 90.800781 93.382812 90.933594 92.703125 91.589844 C 91.875 92.390625 91.617188 93.789062 91.9375 95.746094 C 92.5625 99.585938 97.304688 99.757812 97.503906 99.761719 C 97.683594 99.765625 97.839844 99.882812 97.898438 100.050781 C 97.933594 100.152344 101.585938 110.167969 112.386719 110.539062 C 115.699219 110.648438 117.597656 108.175781 118.050781 103.175781 C 118.488281 98.328125 117.4375 92.28125 116.769531 89.113281 C 116.433594 87.519531 115.117188 86.355469 113.492188 86.214844 C 111.015625 86 107.082031 85.707031 102.425781 85.527344 C 100.027344 85.4375 98.289062 85.96875 97.257812 87.105469 C 95.992188 88.503906 96.234375 90.359375 96.238281 90.378906 C 96.257812 90.515625 96.207031 90.65625 96.105469 90.75 C 96.007812 90.847656 95.863281 90.886719 95.726562 90.859375 C 95.71875 90.855469 95.417969 90.800781 94.988281 90.800781 Z M 112.597656 111.402344 C 112.519531 111.402344 112.4375 111.402344 112.355469 111.398438 C 101.980469 111.042969 97.875 102.257812 97.195312 100.597656 C 96.03125 100.492188 91.730469 99.824219 91.089844 95.886719 C 90.722656 93.628906 91.066406 91.976562 92.109375 90.964844 C 93.152344 89.96875 94.585938 89.902344 95.359375 89.953125 C 95.363281 89.179688 95.535156 87.730469 96.621094 86.53125 C 97.832031 85.195312 99.796875 84.570312 102.457031 84.671875 C 107.132812 84.847656 111.078125 85.144531 113.570312 85.359375 C 115.570312 85.535156 117.195312 86.972656 117.609375 88.933594 C 118.285156 92.15625 119.355469 98.296875 118.902344 103.253906 C 118.296875 109.941406 115.195312 111.402344 112.597656 111.402344 " fill-opacity="1" fill-rule="nonzero"/><path fill="#0c2840" d="M 122.203125 363.019531 L 151.039062 355.683594 L 155.050781 189.753906 L 119.234375 187.234375 L 122.203125 363.019531 " fill-opacity="1" fill-rule="nonzero"/><path fill="#0c2840" d="M 119.671875 187.695312 L 122.621094 362.46875 L 150.617188 355.347656 L 154.613281 190.152344 Z M 122.203125 363.449219 C 122.109375 363.449219 122.019531 363.417969 121.941406 363.359375 C 121.839844 363.28125 121.777344 363.15625 121.773438 363.027344 L 118.808594 187.242188 C 118.804688 187.121094 118.851562 187.007812 118.941406 186.921875 C 119.027344 186.839844 119.144531 186.796875 119.265625 186.808594 L 155.082031 189.328125 C 155.308594 189.34375 155.484375 189.535156 155.480469 189.765625 L 151.46875 355.691406 C 151.460938 355.882812 151.332031 356.050781 151.144531 356.097656 L 122.308594 363.4375 C 122.273438 363.445312 122.238281 363.449219 122.203125 363.449219 " fill-opacity="1" fill-rule="nonzero"/><path fill="#ffffff" d="M 122.203125 363.019531 L 59.777344 362.101562 L 45.0625 188.246094 L 122.625 186.367188 L 122.203125 363.019531 " fill-opacity="1" fill-rule="nonzero"/><path fill="#0c2840" d="M 60.171875 361.679688 L 121.773438 362.585938 L 122.195312 186.808594 L 45.527344 188.664062 Z M 122.203125 363.449219 C 122.199219 363.449219 122.199219 363.449219 122.195312 363.449219 L 59.773438 362.53125 C 59.550781 362.527344 59.371094 362.359375 59.351562 362.140625 L 44.632812 188.285156 C 44.625 188.167969 44.664062 188.046875 44.742188 187.960938 C 44.820312 187.871094 44.933594 187.820312 45.050781 187.816406 L 122.613281 185.9375 C 122.726562 185.933594 122.839844 185.980469 122.925781 186.0625 C 123.007812 186.140625 123.054688 186.253906 123.054688 186.367188 L 122.632812 363.019531 C 122.632812 363.136719 122.585938 363.246094 122.503906 363.328125 C 122.421875 363.40625 122.316406 363.449219 122.203125 363.449219 " fill-opacity="1" fill-rule="nonzero"/><path fill="#ffffff" d="M 122.261719 177.238281 L 158.699219 184.605469 L 158.699219 196.621094 L 121.222656 192.375 L 122.261719 177.238281 " fill-opacity="1" fill-rule="nonzero"/><path fill="#0c2840" d="M 121.679688 191.996094 L 158.269531 196.136719 L 158.269531 184.957031 L 122.65625 177.753906 Z M 158.699219 197.046875 C 158.683594 197.046875 158.664062 197.046875 158.648438 197.042969 L 121.171875 192.804688 C 120.945312 192.777344 120.777344 192.574219 120.792969 192.347656 L 121.832031 177.207031 C 121.839844 177.085938 121.902344 176.972656 122 176.898438 C 122.097656 176.820312 122.226562 176.792969 122.34375 176.816406 L 158.78125 184.183594 C 158.984375 184.226562 159.125 184.402344 159.125 184.605469 L 159.125 196.621094 C 159.125 196.742188 159.074219 196.855469 158.984375 196.9375 C 158.90625 197.011719 158.800781 197.046875 158.699219 197.046875 " fill-opacity="1" fill-rule="nonzero"/><path fill="#ffffff" d="M 121.382812 192.375 L 38.785156 195.816406 L 38.539062 182.171875 L 122.367188 177.238281 L 121.382812 192.375 " fill-opacity="1" fill-rule="nonzero"/><path fill="#0c2840" d="M 121.382812 192.375 L 121.386719 192.375 Z M 38.972656 182.574219 L 39.203125 195.367188 L 120.980469 191.960938 L 121.90625 177.695312 Z M 38.785156 196.246094 C 38.675781 196.246094 38.570312 196.203125 38.488281 196.128906 C 38.40625 196.050781 38.355469 195.9375 38.355469 195.824219 L 38.109375 182.175781 C 38.105469 181.949219 38.28125 181.753906 38.511719 181.742188 L 122.34375 176.808594 C 122.464844 176.800781 122.585938 176.847656 122.671875 176.933594 C 122.757812 177.023438 122.804688 177.140625 122.796875 177.265625 L 121.8125 192.402344 C 121.796875 192.625 121.621094 192.796875 121.398438 192.804688 L 38.800781 196.246094 C 38.796875 196.246094 38.789062 196.246094 38.785156 196.246094 " fill-opacity="1" fill-rule="nonzero"/><path fill="#0c2840" d="M 81.242188 157.101562 C 78.347656 155.730469 77.179688 152.402344 78.652344 149.703125 L 84.933594 138.191406 C 86.402344 135.488281 89.980469 134.40625 92.875 135.777344 C 95.773438 137.148438 96.941406 140.480469 95.46875 143.179688 L 89.1875 154.6875 C 87.714844 157.386719 84.140625 158.476562 81.242188 157.101562 " fill-opacity="1" fill-rule="nonzero"/><path fill="#0c2840" d="M 81.457031 178.839844 C 81.230469 178.839844 81.042969 178.664062 81.027344 178.4375 C 80.273438 165.296875 80.3125 160.816406 86.058594 145.167969 C 86.140625 144.945312 86.386719 144.832031 86.609375 144.914062 C 86.832031 144.996094 86.945312 145.242188 86.863281 145.464844 C 81.175781 160.949219 81.140625 165.386719 81.886719 178.386719 C 81.898438 178.625 81.71875 178.828125 81.480469 178.839844 C 81.472656 178.839844 81.464844 178.839844 81.457031 178.839844 " fill-opacity="1" fill-rule="nonzero"/><path fill="#0c2840" d="M 91.859375 179.273438 C 89.5625 176.628906 85.976562 175.203125 82.023438 175.398438 C 78.070312 175.59375 74.667969 177.371094 72.683594 180.226562 L 91.859375 179.273438 " fill-opacity="1" fill-rule="nonzero"/><path fill="#0c2840" d="M 77.472656 219.578125 C 77.367188 219.578125 77.261719 219.539062 77.179688 219.460938 C 77.007812 219.296875 77 219.023438 77.164062 218.851562 L 90.535156 204.730469 C 90.699219 204.558594 90.96875 204.550781 91.140625 204.714844 C 91.3125 204.875 91.320312 205.148438 91.15625 205.320312 L 77.785156 219.441406 C 77.703125 219.53125 77.589844 219.578125 77.472656 219.578125 " fill-opacity="1" fill-rule="nonzero"/><path fill="#0c2840" d="M 59.710938 238.335938 C 59.605469 238.335938 59.5 238.296875 59.414062 238.21875 C 59.242188 238.058594 59.238281 237.785156 59.398438 237.613281 L 71.507812 224.828125 C 71.667969 224.65625 71.941406 224.648438 72.113281 224.8125 C 72.285156 224.972656 72.292969 225.242188 72.128906 225.417969 L 60.023438 238.203125 C 59.9375 238.292969 59.824219 238.335938 59.710938 238.335938 " fill-opacity="1" fill-rule="nonzero"/><path fill="#0c2840" d="M 73.730469 237.933594 C 73.625 237.933594 73.515625 237.894531 73.433594 237.816406 C 73.261719 237.652344 73.253906 237.378906 73.417969 237.207031 L 104.554688 204.324219 C 104.71875 204.152344 104.988281 204.148438 105.160156 204.308594 C 105.332031 204.472656 105.339844 204.746094 105.175781 204.917969 L 74.042969 237.800781 C 73.957031 237.890625 73.84375 237.933594 73.730469 237.933594 " fill-opacity="1" fill-rule="nonzero"/><g clip-path="url(#50cd16c797)"><path fill="#0c2840" d="M 355.289062 163.878906 C 355.277344 163.878906 355.265625 163.878906 355.253906 163.875 C 355.019531 163.859375 354.839844 163.652344 354.859375 163.417969 C 355.050781 160.863281 355.1875 158.273438 355.269531 155.714844 C 355.277344 155.480469 355.46875 155.296875 355.699219 155.296875 C 355.703125 155.296875 355.707031 155.296875 355.714844 155.296875 C 355.949219 155.304688 356.136719 155.503906 356.125 155.738281 C 356.046875 158.3125 355.90625 160.914062 355.714844 163.484375 C 355.699219 163.707031 355.511719 163.878906 355.289062 163.878906 " fill-opacity="1" fill-rule="nonzero"/></g><path fill="#0c2840" d="M 354.449219 150.949219 C 354.226562 150.949219 354.039062 150.777344 354.023438 150.550781 C 352.703125 133.046875 346.578125 115.644531 336.308594 100.230469 C 336.179688 100.035156 336.234375 99.765625 336.429688 99.636719 C 336.628906 99.5 336.894531 99.558594 337.023438 99.753906 C 347.375 115.292969 353.546875 132.835938 354.878906 150.488281 C 354.894531 150.722656 354.71875 150.929688 354.480469 150.949219 C 354.46875 150.949219 354.460938 150.949219 354.449219 150.949219 " fill-opacity="1" fill-rule="nonzero"/><path fill="#0c2840" d="M 330.355469 94.757812 C 331.367188 96.628906 332.449219 98.359375 332.976562 99.191406 L 336.617188 94.273438 Z M 332.957031 100.375 C 332.949219 100.375 332.945312 100.375 332.941406 100.375 C 332.804688 100.371094 332.671875 100.296875 332.597656 100.179688 C 332.578125 100.15625 330.785156 97.433594 329.285156 94.578125 C 329.21875 94.449219 329.222656 94.300781 329.292969 94.171875 C 329.359375 94.046875 329.488281 93.960938 329.636719 93.953125 L 337.492188 93.347656 C 337.664062 93.335938 337.816406 93.421875 337.898438 93.570312 C 337.980469 93.714844 337.96875 93.894531 337.867188 94.03125 L 333.296875 100.199219 C 333.21875 100.308594 333.089844 100.375 332.957031 100.375 " fill-opacity="1" fill-rule="nonzero"/><path fill="#0c2840" d="M 67.871094 44.917969 C 67.738281 44.917969 67.609375 44.859375 67.523438 44.742188 C 67.386719 44.550781 67.429688 44.285156 67.621094 44.144531 C 81.054688 34.433594 96.265625 26.964844 112.839844 21.953125 C 129.308594 16.976562 146.726562 14.542969 164.597656 14.707031 C 164.832031 14.710938 165.019531 14.902344 165.019531 15.140625 C 165.015625 15.375 164.828125 15.566406 164.589844 15.566406 C 164.589844 15.566406 164.589844 15.566406 164.585938 15.566406 C 128.964844 15.238281 94.703125 25.621094 68.125 44.839844 C 68.046875 44.894531 67.960938 44.917969 67.871094 44.917969 " fill-opacity="1" fill-rule="nonzero"/><path fill="#0c2840" d="M 73.632812 51.128906 C 73.496094 51.128906 73.363281 51.066406 73.28125 50.945312 C 73.144531 50.753906 73.191406 50.484375 73.386719 50.347656 C 93.230469 36.46875 117.324219 27.617188 143.054688 24.757812 C 143.285156 24.734375 143.5 24.902344 143.527344 25.136719 C 143.550781 25.371094 143.382812 25.585938 143.148438 25.613281 C 117.558594 28.457031 93.605469 37.253906 73.878906 51.054688 C 73.800781 51.105469 73.71875 51.128906 73.632812 51.128906 " fill-opacity="1" fill-rule="nonzero"/><g clip-path="url(#3c06e364f1)"><path fill="#0c2840" d="M 169.199219 11.828125 C 168.996094 13.941406 168.929688 15.984375 168.90625 16.972656 L 174.667969 14.917969 Z M 168.46875 18.011719 C 168.378906 18.011719 168.292969 17.984375 168.21875 17.933594 C 168.105469 17.851562 168.039062 17.722656 168.039062 17.578125 C 168.039062 17.546875 168.066406 14.289062 168.410156 11.082031 C 168.425781 10.941406 168.511719 10.816406 168.640625 10.75 C 168.769531 10.683594 168.921875 10.6875 169.046875 10.757812 L 175.910156 14.628906 C 176.058594 14.714844 176.140625 14.871094 176.128906 15.039062 C 176.113281 15.207031 176.003906 15.351562 175.84375 15.40625 L 168.613281 17.988281 C 168.566406 18.003906 168.515625 18.011719 168.46875 18.011719 " fill-opacity="1" fill-rule="nonzero"/></g><path fill="#0c2840" d="M 22.511719 150.941406 C 22.070312 150.941406 21.636719 151.0625 21.25 151.296875 C 20.6875 151.632812 20.292969 152.171875 20.132812 152.808594 C 19.804688 154.125 20.609375 155.460938 21.925781 155.785156 C 22.5625 155.945312 23.222656 155.84375 23.785156 155.507812 C 24.347656 155.167969 24.746094 154.628906 24.902344 153.992188 C 25.0625 153.355469 24.960938 152.695312 24.621094 152.132812 C 24.285156 151.570312 23.746094 151.175781 23.109375 151.015625 C 22.910156 150.96875 22.710938 150.941406 22.511719 150.941406 Z M 22.523438 156.71875 C 22.253906 156.71875 21.984375 156.683594 21.71875 156.621094 C 19.945312 156.179688 18.859375 154.375 19.300781 152.601562 C 19.511719 151.742188 20.046875 151.019531 20.808594 150.5625 C 21.566406 150.105469 22.457031 149.96875 23.316406 150.183594 C 24.175781 150.394531 24.902344 150.929688 25.355469 151.691406 C 25.816406 152.449219 25.949219 153.339844 25.734375 154.199219 C 25.523438 155.058594 24.988281 155.785156 24.226562 156.242188 C 23.707031 156.554688 23.121094 156.71875 22.523438 156.71875 " fill-opacity="1" fill-rule="nonzero"/><path fill="#0c2840" d="M 33.597656 176.492188 C 33.5625 176.492188 33.527344 176.488281 33.492188 176.480469 L 31.777344 176.050781 C 31.546875 175.996094 31.40625 175.761719 31.464844 175.53125 C 31.519531 175.304688 31.753906 175.164062 31.984375 175.21875 L 33.699219 175.644531 C 33.929688 175.703125 34.070312 175.9375 34.015625 176.167969 C 33.964844 176.359375 33.789062 176.492188 33.597656 176.492188 " fill-opacity="1" fill-rule="nonzero"/><path fill="#0c2840" d="M 26.382812 174.703125 C 26.347656 174.703125 26.316406 174.699219 26.28125 174.6875 L 24.5625 174.261719 C 24.332031 174.207031 24.191406 173.972656 24.25 173.742188 C 24.304688 173.511719 24.539062 173.371094 24.769531 173.429688 L 26.488281 173.855469 C 26.714844 173.914062 26.855469 174.144531 26.800781 174.375 C 26.75 174.570312 26.578125 174.703125 26.382812 174.703125 " fill-opacity="1" fill-rule="nonzero"/><path fill="#0c2840" d="M 29.8125 172.632812 C 29.78125 172.632812 29.746094 172.628906 29.710938 172.621094 C 29.480469 172.566406 29.339844 172.332031 29.398438 172.101562 L 29.824219 170.382812 C 29.878906 170.15625 30.113281 170.015625 30.34375 170.070312 C 30.574219 170.128906 30.714844 170.363281 30.65625 170.589844 L 30.230469 172.308594 C 30.179688 172.503906 30.007812 172.632812 29.8125 172.632812 " fill-opacity="1" fill-rule="nonzero"/><path fill="#0c2840" d="M 28.023438 179.847656 C 27.988281 179.847656 27.957031 179.84375 27.917969 179.835938 C 27.691406 179.78125 27.550781 179.546875 27.605469 179.316406 L 28.03125 177.597656 C 28.089844 177.367188 28.324219 177.230469 28.554688 177.285156 C 28.78125 177.34375 28.921875 177.574219 28.867188 177.804688 L 28.441406 179.523438 C 28.390625 179.71875 28.214844 179.847656 28.023438 179.847656 " fill-opacity="1" fill-rule="nonzero"/></svg>