<svg xmlns="http://www.w3.org/2000/svg" xmlns:xlink="http://www.w3.org/1999/xlink" width="500" zoomAndPan="magnify" viewBox="0 0 375 374.999991" height="500" preserveAspectRatio="xMidYMid meet" version="1.0"><path fill="#caddff" d="M 105.550781 116.660156 C 136.351562 85.660156 127.535156 66.234375 148.609375 51.882812 C 181.039062 29.796875 241.5625 48.796875 277.269531 79.171875 C 321.003906 116.378906 343.566406 184.3125 317.863281 245.765625 C 290.488281 311.214844 218.464844 345.1875 154.203125 334.949219 C 96.8125 325.808594 40.394531 280.578125 34.742188 226.328125 C 34.128906 220.449219 31.425781 188.664062 50.394531 161.257812 C 66.074219 138.609375 81.136719 141.234375 105.550781 116.660156 " fill-opacity="1" fill-rule="nonzero"/><path fill="#0c2840" d="M 133.296875 330.480469 C 134.40625 327.140625 141.601562 304.894531 137.015625 292.265625 C 136.378906 290.507812 135.386719 287.78125 132.777344 285.691406 C 127.558594 281.515625 122.65625 285.320312 118.515625 282.289062 C 113.058594 278.292969 118.648438 269.527344 112.332031 257.546875 C 110.816406 254.675781 108.460938 250.203125 103.628906 248.121094 C 98.230469 245.800781 95.304688 248.855469 90.007812 247.121094 C 83.402344 244.957031 83.816406 238.855469 77.425781 233.078125 C 70.691406 226.996094 57.90625 222.621094 48.878906 228.105469 C 41.007812 232.886719 38.976562 243.347656 39.695312 250.40625 C 40.753906 260.839844 48.339844 269.046875 56.042969 272.636719 C 67.117188 277.796875 77.859375 273.144531 79.5 277.183594 C 81.027344 280.945312 71.78125 285.140625 72.609375 292.28125 C 73.1875 297.269531 78.472656 301.917969 83.699219 302.9375 C 90.941406 304.351562 94.8125 298.152344 99.191406 300.238281 C 103.785156 302.421875 101.65625 310.246094 105.191406 317.082031 C 108.105469 322.722656 115.292969 328.5 133.296875 330.480469 " fill-opacity="1" fill-rule="nonzero"/><path fill="#ffffff" d="M 133.425781 328.210938 C 133.1875 328.210938 132.972656 328.054688 132.910156 327.816406 C 125.382812 299.074219 106.246094 279.160156 91.515625 267.515625 C 75.546875 254.890625 61.191406 249.003906 61.050781 248.945312 C 60.777344 248.832031 60.644531 248.523438 60.753906 248.25 C 60.867188 247.980469 61.175781 247.847656 61.449219 247.957031 C 61.59375 248.015625 76.089844 253.960938 92.175781 266.679688 C 101.625 274.152344 109.777344 282.46875 116.398438 291.394531 C 124.679688 302.5625 130.582031 314.726562 133.941406 327.542969 C 134.015625 327.828125 133.84375 328.121094 133.558594 328.195312 C 133.515625 328.207031 133.46875 328.210938 133.425781 328.210938 " fill-opacity="1" fill-rule="nonzero"/><path fill="#ffffff" d="M 133.296875 330.480469 C 147.421875 293.679688 144.59375 278.023438 138.515625 270.667969 C 136.703125 268.46875 132.484375 264.425781 129.699219 257.203125 C 126.085938 247.835938 128.386719 242.226562 127.695312 234.34375 C 126.335938 218.921875 114.382812 204.671875 101.566406 198.140625 C 92.609375 193.578125 75.574219 188.882812 65.65625 197.515625 C 61.460938 201.167969 57.410156 208.183594 59.570312 213.003906 C 62.65625 219.902344 76.207031 215.390625 83.214844 224.53125 C 87.039062 229.519531 84.125 232.273438 88.230469 237.535156 C 94.699219 245.824219 104.945312 242.835938 107.292969 248.824219 C 109.570312 254.625 100.445312 258.949219 102.128906 266.453125 C 104.050781 275.011719 116.808594 275.578125 117.746094 283.867188 C 118.304688 288.808594 113.898438 289.621094 113.921875 295.386719 C 113.953125 302.402344 120.496094 305.023438 126.929688 315.144531 C 130.535156 320.820312 132.1875 326.277344 133.296875 330.480469 " fill-opacity="1" fill-rule="nonzero"/><path fill="#caddff" d="M 133.527344 327.300781 C 133.523438 327.300781 133.519531 327.300781 133.515625 327.300781 C 133.222656 327.292969 132.988281 327.050781 132.996094 326.757812 C 133.757812 295.933594 127.261719 263.5625 115.625 240.160156 C 100.28125 209.320312 79.386719 201.152344 79.179688 201.070312 C 78.902344 200.96875 78.765625 200.660156 78.867188 200.386719 C 78.972656 200.113281 79.277344 199.972656 79.554688 200.078125 C 79.773438 200.15625 84.996094 202.15625 92.210938 208.054688 C 98.847656 213.480469 108.460938 223.371094 116.574219 239.6875 C 121.855469 250.300781 126.269531 263.355469 129.34375 277.4375 C 132.882812 293.660156 134.46875 310.261719 134.0625 326.78125 C 134.054688 327.070312 133.816406 327.300781 133.527344 327.300781 " fill-opacity="1" fill-rule="nonzero"/><path fill="#19598f" d="M 256.695312 232.179688 L 253.914062 213.964844 L 269.601562 194.917969 L 244.226562 205.183594 L 244.226562 227.601562 L 170.105469 227.601562 L 170.105469 196.476562 L 139.011719 174.617188 L 139.011719 215.464844 C 154.839844 232.320312 155.6875 240.085938 155.6875 249.296875 L 155.6875 264.769531 C 155.6875 273.285156 154.191406 281.707031 151.605469 289.824219 C 151.050781 291.5625 150.742188 293.5 150.742188 295.542969 C 150.742188 303.058594 154.917969 309.148438 160.070312 309.148438 C 165.222656 309.148438 169.398438 303.058594 169.398438 295.542969 C 169.398438 293.5 169.089844 291.5625 168.535156 289.824219 C 165.953125 281.710938 164.457031 273.285156 164.457031 264.769531 C 164.457031 260.515625 167.90625 257.066406 172.160156 257.066406 L 172.761719 257.066406 C 177.351562 257.066406 181.070312 260.785156 181.070312 265.371094 L 181.070312 273.683594 C 181.070312 276.765625 180.316406 279.789062 179.015625 282.585938 C 178.394531 283.914062 178.035156 285.515625 178.035156 287.238281 C 178.035156 291.824219 180.585938 295.542969 183.730469 295.542969 C 186.875 295.542969 189.425781 291.824219 189.425781 287.238281 C 189.425781 285.515625 189.0625 283.914062 188.445312 282.585938 C 187.140625 279.789062 186.390625 269.132812 186.390625 266.046875 L 186.390625 261.519531 C 186.390625 256.070312 190.804688 251.65625 196.25 251.65625 C 201.695312 251.65625 206.113281 256.070312 206.113281 261.519531 L 206.113281 267.820312 C 206.113281 272.3125 205.015625 287.09375 203.066406 291.140625 C 201.78125 293.804688 201.015625 297.15625 201.015625 300.792969 C 201.015625 309.484375 205.386719 316.53125 210.777344 316.53125 C 216.164062 316.53125 220.535156 309.484375 220.535156 300.792969 C 220.535156 297.15625 219.773438 293.804688 218.488281 291.140625 C 216.539062 287.09375 215.441406 282.691406 215.441406 278.199219 L 215.441406 264.601562 C 215.441406 262.050781 217.527344 259.882812 220.082031 259.929688 C 222.554688 259.976562 224.546875 261.996094 224.546875 264.484375 L 224.546875 265.871094 C 224.546875 268.472656 223.992188 273.828125 222.804688 276.144531 C 222.007812 277.691406 221.535156 279.632812 221.535156 281.746094 C 221.535156 286.789062 224.234375 290.878906 227.558594 290.878906 C 230.886719 290.878906 233.582031 286.789062 233.582031 281.746094 C 233.582031 279.632812 233.109375 277.691406 232.316406 276.144531 C 231.128906 273.828125 230.570312 271.242188 230.570312 268.636719 L 230.570312 259.320312 C 230.570312 256.089844 233.082031 253.339844 236.308594 253.226562 C 239.699219 253.105469 242.480469 255.816406 242.480469 259.175781 L 242.480469 260.882812 C 242.480469 262.503906 242.234375 264.125 241.652344 265.636719 C 241.378906 266.351562 241.21875 267.214844 241.21875 268.144531 C 241.21875 270.613281 242.347656 272.613281 243.746094 272.613281 C 245.140625 272.613281 246.269531 270.613281 246.269531 268.144531 C 246.269531 267.214844 246.109375 266.351562 245.835938 265.636719 C 245.253906 264.125 245.007812 262.503906 245.007812 260.882812 L 245.007812 245.960938 L 245.007812 250.777344 C 245.007812 244.242188 246.308594 239.101562 256.695312 232.179688 " fill-opacity="1" fill-rule="nonzero"/><path fill="#ffffff" d="M 154.796875 287.058594 C 154.753906 287.058594 154.703125 287.054688 154.65625 287.042969 C 154.375 286.964844 154.207031 286.671875 154.285156 286.390625 C 155.402344 282.265625 156.21875 278.125 156.710938 274.074219 C 156.746094 273.785156 157.011719 273.578125 157.304688 273.613281 C 157.59375 273.644531 157.800781 273.910156 157.765625 274.203125 C 157.269531 278.304688 156.445312 282.496094 155.3125 286.667969 C 155.246094 286.90625 155.03125 287.058594 154.796875 287.058594 Z M 205.261719 291.941406 C 205.199219 291.941406 205.132812 291.929688 205.070312 291.90625 C 204.796875 291.800781 204.660156 291.496094 204.765625 291.21875 C 205.492188 289.339844 206.164062 285.984375 206.710938 281.519531 C 206.746094 281.230469 207.011719 281.023438 207.304688 281.058594 C 207.59375 281.09375 207.800781 281.359375 207.765625 281.652344 C 207.203125 286.261719 206.527344 289.613281 205.757812 291.601562 C 205.675781 291.8125 205.476562 291.941406 205.261719 291.941406 Z M 182.503906 293.527344 C 182.402344 293.527344 182.296875 293.496094 182.203125 293.429688 C 180.640625 292.359375 179.632812 289.929688 179.632812 287.238281 C 179.632812 285.800781 179.917969 284.425781 180.460938 283.261719 C 180.585938 282.992188 180.902344 282.875 181.167969 283 C 181.433594 283.125 181.550781 283.441406 181.425781 283.707031 C 180.949219 284.734375 180.695312 285.957031 180.695312 287.238281 C 180.695312 289.910156 181.753906 291.832031 182.808594 292.554688 C 183.050781 292.722656 183.109375 293.050781 182.945312 293.296875 C 182.839844 293.445312 182.675781 293.527344 182.503906 293.527344 Z M 184.589844 293.738281 C 184.394531 293.738281 184.203125 293.625 184.113281 293.4375 C 183.984375 293.171875 184.09375 292.851562 184.359375 292.726562 C 185.203125 292.316406 185.964844 291.242188 186.390625 289.847656 C 186.476562 289.566406 186.773438 289.40625 187.054688 289.492188 C 187.335938 289.578125 187.496094 289.875 187.410156 290.15625 C 186.898438 291.832031 185.929688 293.148438 184.824219 293.683594 C 184.75 293.71875 184.667969 293.738281 184.589844 293.738281 Z M 160.070312 307.550781 C 155.878906 307.550781 152.339844 302.050781 152.339844 295.542969 C 152.339844 293.710938 152.601562 291.945312 153.125 290.308594 C 153.214844 290.027344 153.515625 289.875 153.792969 289.960938 C 154.074219 290.050781 154.230469 290.351562 154.140625 290.628906 C 153.652344 292.167969 153.402344 293.820312 153.402344 295.542969 C 153.402344 301.472656 156.457031 306.488281 160.070312 306.488281 C 162.21875 306.488281 164.265625 304.683594 165.546875 301.664062 C 166.1875 300.15625 166.585938 298.417969 166.703125 296.644531 C 166.722656 296.351562 166.972656 296.128906 167.269531 296.148438 C 167.5625 296.167969 167.785156 296.417969 167.765625 296.714844 C 167.640625 298.605469 167.214844 300.460938 166.527344 302.078125 C 166.523438 302.078125 166.523438 302.082031 166.523438 302.082031 C 165.070312 305.503906 162.65625 307.550781 160.070312 307.550781 Z M 210.773438 314.933594 C 208.1875 314.933594 205.714844 312.726562 204.167969 309.027344 C 204.054688 308.753906 204.183594 308.445312 204.453125 308.328125 C 204.726562 308.21875 205.039062 308.34375 205.152344 308.617188 C 206.527344 311.90625 208.628906 313.871094 210.773438 313.871094 C 214.558594 313.871094 217.875 307.757812 217.875 300.792969 C 217.875 298.339844 217.480469 295.933594 216.730469 293.832031 C 216.632812 293.554688 216.773438 293.25 217.050781 293.148438 C 217.328125 293.050781 217.632812 293.195312 217.730469 293.472656 C 218.523438 295.691406 218.941406 298.21875 218.941406 300.792969 C 218.941406 308.457031 215.203125 314.933594 210.773438 314.933594 " fill-opacity="1" fill-rule="nonzero"/><path fill="#19598f" d="M 294.992188 159.027344 C 294.992188 207.992188 255.566406 247.6875 206.929688 247.6875 C 158.292969 247.6875 118.867188 207.992188 118.867188 159.027344 C 118.867188 110.0625 158.292969 70.371094 206.929688 70.371094 C 255.566406 70.371094 294.992188 110.0625 294.992188 159.027344 " fill-opacity="1" fill-rule="nonzero"/><path fill="#caddff" d="M 190.007812 78.300781 C 189.644531 78.832031 190.71875 80.632812 192.859375 80.632812 C 194.996094 80.632812 196.066406 80.273438 196.957031 82.605469 C 197.847656 84.9375 196.601562 92.835938 197.847656 95.707031 C 199.097656 98.578125 201.238281 100.371094 202.839844 98.757812 C 204.445312 97.144531 204.265625 92.835938 206.226562 91.757812 C 208.1875 90.683594 215.320312 86.375 215.675781 82.785156 C 216.03125 79.195312 213.535156 76.503906 207.296875 75.785156 C 201.058594 75.066406 192.679688 74.351562 190.007812 78.300781 " fill-opacity="1" fill-rule="nonzero"/><path fill="#0c2840" d="M 161.40625 157.914062 C 160.476562 158.382812 159.917969 159.28125 159.960938 160.242188 C 160.101562 163.253906 158.835938 170.75 156.175781 173.148438 C 152.789062 176.199219 154.035156 181.695312 153.984375 183.917969 C 153.878906 188.421875 154.359375 190.429688 159.742188 192.582031 C 165.121094 194.734375 167.230469 194.859375 167.628906 199.164062 C 168.027344 203.472656 168.648438 220.109375 170.242188 224.417969 C 171.835938 228.726562 175.222656 235.726562 177.015625 237.339844 C 178.8125 238.957031 182.996094 239.851562 180.40625 233.75 C 177.816406 227.648438 176.21875 224.777344 179.210938 221.367188 C 182.199219 217.957031 187.183594 210.0625 187.582031 207.011719 C 187.980469 203.960938 189.773438 202.164062 191.367188 201.804688 C 192.960938 201.445312 196.351562 200.367188 197.347656 199.292969 C 198.34375 198.214844 196.351562 195.164062 195.75 192.472656 C 195.15625 189.78125 195.15625 188.167969 200.136719 186.011719 C 205.121094 183.859375 202.726562 177.753906 195.953125 176.140625 C 189.175781 174.527344 184.988281 171.117188 185.785156 167.707031 C 186.585938 164.296875 181.203125 164.65625 178.015625 163.039062 C 174.824219 161.425781 174.921875 158.886719 171.371094 157.679688 C 166.574219 156.046875 163.207031 157.011719 161.40625 157.914062 " fill-opacity="1" fill-rule="nonzero"/><path fill="#0c2840" d="M 271.046875 154.152344 C 269.542969 151.878906 269.730469 148.292969 273.488281 143.375 C 276.4375 139.515625 272.203125 135.652344 270.25 134.175781 C 269.894531 133.90625 270.054688 133.339844 270.5 133.289062 C 272.917969 133.011719 278.527344 133.832031 280.996094 146.402344 C 284.1875 162.660156 285.503906 156.988281 287.195312 155.097656 C 288.882812 153.207031 285.722656 149.675781 288.882812 146.023438 C 290.878906 143.71875 291.886719 140.359375 292.402344 137.621094 C 286.050781 111.835938 268.496094 90.503906 245.230469 79.171875 C 245.265625 82.003906 244.585938 91.863281 233.117188 87.796875 C 233.117188 87.796875 225.980469 84.394531 227.671875 98.195312 C 229.359375 111.996094 235.179688 97.25 236.308594 96.683594 C 237.4375 96.113281 240.4375 95.359375 239.125 104.621094 C 239.125 104.621094 238.9375 107.835938 233.117188 107.269531 C 227.296875 106.703125 226.167969 109.539062 226.167969 111.050781 C 226.167969 112.5625 226.730469 116.53125 223.539062 119.367188 C 220.347656 122.203125 221.289062 129.574219 225.605469 127.121094 C 229.925781 124.660156 232.929688 116.910156 236.871094 116.15625 C 240.816406 115.398438 244.382812 120.5 248.140625 119.175781 C 251.894531 117.855469 250.203125 111.429688 252.082031 111.429688 C 253.957031 111.429688 257.902344 115.210938 257.335938 118.046875 C 256.773438 120.882812 250.953125 122.203125 252.457031 125.605469 C 253.957031 129.007812 257.148438 127.875 258.089844 130.140625 C 259.03125 132.410156 253.394531 135.058594 248.890625 132.222656 C 244.382812 129.386719 243.628906 133.542969 241.378906 131.652344 C 239.125 129.765625 238.9375 125.792969 235.746094 127.121094 C 232.554688 128.441406 230.675781 131.085938 226.542969 132.976562 C 222.414062 134.867188 219.035156 137.324219 219.035156 139.972656 C 219.035156 142.621094 220.535156 145.457031 219.785156 149.613281 C 219.035156 153.773438 217.71875 165.113281 231.238281 162.847656 C 244.757812 160.578125 243.070312 167.570312 243.070312 168.328125 C 243.070312 169.085938 242.878906 178.914062 244.191406 180.617188 C 245.511719 182.316406 248.511719 187.234375 244.191406 193.660156 C 239.875 200.085938 241.566406 214.453125 245.511719 212.566406 C 249.453125 210.675781 253.394531 203.300781 258.277344 199.519531 C 263.160156 195.738281 269.917969 179.292969 267.101562 174.1875 C 264.285156 169.085938 271.046875 164.925781 271.984375 161.523438 C 272.921875 158.121094 272.546875 156.421875 271.046875 154.152344 " fill-opacity="1" fill-rule="nonzero"/><path fill="#0c2840" d="M 143.875 96.90625 C 143.953125 100.054688 143.667969 104.261719 141.648438 107.476562 C 135.546875 117.167969 135.742188 122.011719 135.152344 131.703125 C 134.5625 141.394531 147.992188 158.476562 151.335938 160.273438 C 154.679688 162.066406 155.199219 157.796875 155.199219 154.386719 C 155.199219 150.980469 153.769531 146.890625 151.800781 142.941406 C 149.832031 138.992188 149.832031 136.480469 150.421875 134.863281 C 151.011719 133.25 153.375 132.710938 154.949219 134.328125 C 156.523438 135.941406 160.308594 137.375 162.125 136.363281 C 164.359375 135.125 163.492188 130.265625 164.277344 128.652344 C 165.066406 127.035156 169.394531 125.960938 171.164062 122.550781 C 172.9375 119.140625 175.886719 117.707031 179.429688 116.089844 C 182.972656 114.472656 186.121094 113.753906 186.710938 112.679688 C 187.300781 111.601562 186.515625 109.089844 187.5 106.21875 C 188.480469 103.347656 190.839844 99.9375 189.859375 98.5 C 188.875 97.066406 185.925781 94.734375 180.414062 98.324219 C 174.90625 101.910156 173.527344 101.910156 171.953125 99.21875 C 170.378906 96.527344 173.722656 89.527344 180.609375 89.527344 C 187.5 89.527344 188.875 87.375 189.070312 85.757812 C 189.269531 84.144531 187.105469 82.351562 184.742188 81.988281 C 182.378906 81.632812 181.988281 82.886719 172.148438 86.476562 C 165.582031 88.871094 159.480469 87.527344 156.363281 86.890625 C 151.894531 89.902344 147.714844 93.253906 143.875 96.90625 " fill-opacity="1" fill-rule="nonzero"/><path fill="#0c2840" d="M 290.84375 175 C 289.511719 174.703125 289.804688 177.976562 288.03125 178.570312 C 286.257812 179.167969 285.519531 180.058594 285.960938 183.335938 C 286.40625 186.609375 285.667969 190.925781 283.894531 192.5625 C 282.117188 194.199219 279.605469 195.390625 279.457031 199.410156 C 279.308594 203.425781 275.617188 207.296875 273.398438 208.636719 C 271.179688 209.976562 267.777344 212.058594 267.777344 215.480469 C 267.777344 217.6875 267.722656 220.503906 268.234375 222.671875 C 279.96875 211.210938 288.542969 196.496094 292.515625 179.96875 C 292.167969 177.769531 291.601562 175.167969 290.84375 175 " fill-opacity="1" fill-rule="nonzero"/><path fill="#ffffff" d="M 208.59375 247.609375 C 208.300781 247.609375 208.066406 247.375 208.0625 247.082031 C 208.058594 246.789062 208.292969 246.546875 208.585938 246.542969 C 226.808594 246.304688 244.214844 240.472656 258.925781 229.679688 C 270.726562 221.023438 280.210938 209.464844 286.351562 196.257812 C 286.476562 195.992188 286.792969 195.875 287.0625 196 C 287.324219 196.125 287.441406 196.441406 287.316406 196.707031 C 281.101562 210.078125 271.5 221.777344 259.554688 230.539062 C 244.664062 241.464844 227.042969 247.363281 208.601562 247.609375 C 208.597656 247.609375 208.59375 247.609375 208.59375 247.609375 " fill-opacity="1" fill-rule="nonzero"/><path fill="#ffffff" d="M 118.523438 159.5625 C 118.234375 159.5625 117.996094 159.328125 117.992188 159.035156 C 117.851562 145.238281 120.957031 131.425781 126.96875 119.089844 C 133.183594 106.339844 142.542969 95.144531 154.039062 86.710938 C 170.917969 74.328125 191.726562 68.347656 212.632812 69.871094 C 233.292969 71.378906 252.898438 80.078125 267.839844 94.371094 C 268.054688 94.570312 268.058594 94.910156 267.855469 95.121094 C 267.65625 95.335938 267.316406 95.34375 267.101562 95.140625 C 236.230469 65.605469 188.945312 62.421875 154.667969 87.570312 C 132.082031 104.136719 118.769531 130.851562 119.054688 159.027344 C 119.058594 159.320312 118.824219 159.5625 118.53125 159.5625 C 118.527344 159.5625 118.527344 159.5625 118.523438 159.5625 " fill-opacity="1" fill-rule="nonzero"/><path fill="#ffffff" d="M 257.511719 159.484375 L 257.511719 57.335938 C 257.511719 52.671875 253.730469 48.894531 249.070312 48.894531 C 244.40625 48.894531 240.625 52.671875 240.625 57.335938 L 240.625 159.484375 C 234.847656 162.523438 230.902344 168.585938 230.902344 175.570312 C 230.902344 185.601562 239.035156 193.734375 249.070312 193.734375 C 259.101562 193.734375 267.234375 185.601562 267.234375 175.570312 C 267.234375 168.585938 263.292969 162.523438 257.511719 159.484375 " fill-opacity="1" fill-rule="nonzero"/><path fill="#000000" d="M 249.070312 49.425781 C 244.707031 49.425781 241.15625 52.972656 241.15625 57.335938 L 241.15625 159.484375 C 241.15625 159.683594 241.046875 159.863281 240.875 159.957031 C 235.050781 163.015625 231.433594 169 231.433594 175.570312 C 231.433594 185.292969 239.34375 193.203125 249.070312 193.203125 C 258.792969 193.203125 266.703125 185.292969 266.703125 175.570312 C 266.703125 169 263.085938 163.015625 257.265625 159.957031 C 257.085938 159.863281 256.980469 159.683594 256.980469 159.484375 L 256.980469 57.335938 C 256.980469 52.972656 253.429688 49.425781 249.070312 49.425781 Z M 249.070312 194.269531 C 238.757812 194.269531 230.371094 185.882812 230.371094 175.570312 C 230.371094 168.710938 234.085938 162.457031 240.09375 159.167969 L 240.09375 57.335938 C 240.09375 52.386719 244.121094 48.359375 249.070312 48.359375 C 254.015625 48.359375 258.042969 52.386719 258.042969 57.335938 L 258.042969 159.167969 C 264.050781 162.457031 267.765625 168.710938 267.765625 175.570312 C 267.765625 185.882812 259.378906 194.269531 249.070312 194.269531 " fill-opacity="1" fill-rule="nonzero"/><path fill="#0c2840" d="M 246.597656 169.601562 L 246.597656 57.335938 C 246.597656 55.96875 247.707031 54.859375 249.070312 54.859375 C 250.433594 54.859375 251.542969 55.96875 251.542969 57.335938 L 251.542969 169.601562 L 246.597656 169.601562 " fill-opacity="1" fill-rule="nonzero"/><path fill="#19598f" d="M 249.070312 187.769531 C 242.34375 187.769531 236.871094 182.296875 236.871094 175.570312 C 236.871094 168.84375 242.34375 163.375 249.070312 163.375 C 255.792969 163.375 261.265625 168.84375 261.265625 175.570312 C 261.265625 182.296875 255.792969 187.769531 249.070312 187.769531 " fill-opacity="1" fill-rule="nonzero"/><path fill="#ffffff" d="M 244.421875 184.152344 C 244.332031 184.152344 244.242188 184.125 244.15625 184.078125 C 241.125 182.320312 239.242188 179.0625 239.242188 175.570312 C 239.242188 173.671875 239.789062 171.828125 240.816406 170.238281 C 240.976562 169.992188 241.304688 169.921875 241.554688 170.082031 C 241.800781 170.242188 241.871094 170.570312 241.710938 170.816406 C 240.792969 172.234375 240.308594 173.878906 240.308594 175.570312 C 240.308594 178.683594 241.984375 181.589844 244.691406 183.15625 C 244.945312 183.304688 245.03125 183.632812 244.882812 183.882812 C 244.785156 184.054688 244.605469 184.152344 244.421875 184.152344 " fill-opacity="1" fill-rule="nonzero"/><path fill="#ffffff" d="M 249.070312 185.398438 C 248.191406 185.398438 247.324219 185.28125 246.484375 185.050781 C 246.199219 184.976562 246.035156 184.683594 246.113281 184.398438 C 246.1875 184.113281 246.480469 183.949219 246.765625 184.027344 C 247.511719 184.230469 248.289062 184.335938 249.070312 184.335938 C 249.363281 184.335938 249.601562 184.570312 249.601562 184.867188 C 249.601562 185.15625 249.363281 185.398438 249.070312 185.398438 " fill-opacity="1" fill-rule="nonzero"/><path fill="#caddff" d="M 246.597656 169.601562 L 246.597656 57.335938 C 246.597656 55.96875 247.707031 54.859375 249.070312 54.859375 C 250.433594 54.859375 251.542969 55.96875 251.542969 57.335938 L 251.542969 169.601562 L 246.597656 169.601562 " fill-opacity="1" fill-rule="nonzero"/><path fill="#19598f" d="M 246.59375 72.640625 L 246.59375 169.605469 L 251.542969 169.605469 L 251.542969 72.640625 L 246.59375 72.640625 " fill-opacity="1" fill-rule="nonzero"/><path fill="#0c2840" d="M 254.429688 64.945312 L 243.339844 64.945312 C 243.046875 64.945312 242.808594 64.703125 242.808594 64.414062 C 242.808594 64.117188 243.046875 63.878906 243.339844 63.878906 L 254.429688 63.878906 C 254.71875 63.878906 254.957031 64.117188 254.957031 64.414062 C 254.957031 64.703125 254.71875 64.945312 254.429688 64.945312 " fill-opacity="1" fill-rule="nonzero"/><path fill="#0c2840" d="M 254.425781 78.941406 L 243.339844 78.941406 C 243.046875 78.941406 242.804688 78.703125 242.804688 78.410156 C 242.804688 78.117188 243.046875 77.878906 243.339844 77.878906 L 254.425781 77.878906 C 254.71875 77.878906 254.960938 78.117188 254.960938 78.410156 C 254.960938 78.703125 254.71875 78.941406 254.425781 78.941406 " fill-opacity="1" fill-rule="nonzero"/><path fill="#0c2840" d="M 247.605469 68.445312 L 243.339844 68.445312 C 243.046875 68.445312 242.808594 68.207031 242.808594 67.910156 C 242.808594 67.617188 243.046875 67.378906 243.339844 67.378906 L 247.605469 67.378906 C 247.898438 67.378906 248.136719 67.617188 248.136719 67.910156 C 248.136719 68.207031 247.898438 68.445312 247.605469 68.445312 " fill-opacity="1" fill-rule="nonzero"/><path fill="#0c2840" d="M 247.601562 71.945312 L 243.339844 71.945312 C 243.046875 71.945312 242.808594 71.707031 242.808594 71.410156 C 242.808594 71.121094 243.046875 70.878906 243.339844 70.878906 L 247.601562 70.878906 C 247.898438 70.878906 248.132812 71.121094 248.132812 71.410156 C 248.132812 71.707031 247.898438 71.945312 247.601562 71.945312 " fill-opacity="1" fill-rule="nonzero"/><path fill="#0c2840" d="M 247.605469 75.445312 L 243.339844 75.445312 C 243.046875 75.445312 242.808594 75.207031 242.808594 74.910156 C 242.808594 74.617188 243.046875 74.378906 243.339844 74.378906 L 247.605469 74.378906 C 247.898438 74.378906 248.136719 74.617188 248.136719 74.910156 C 248.136719 75.207031 247.898438 75.445312 247.605469 75.445312 " fill-opacity="1" fill-rule="nonzero"/><path fill="#0c2840" d="M 247.605469 82.441406 L 243.339844 82.441406 C 243.046875 82.441406 242.808594 82.203125 242.808594 81.910156 C 242.808594 81.617188 243.046875 81.378906 243.339844 81.378906 L 247.605469 81.378906 C 247.898438 81.378906 248.136719 81.617188 248.136719 81.910156 C 248.136719 82.203125 247.898438 82.441406 247.605469 82.441406 " fill-opacity="1" fill-rule="nonzero"/><path fill="#0c2840" d="M 247.605469 85.941406 L 243.339844 85.941406 C 243.046875 85.941406 242.808594 85.703125 242.808594 85.410156 C 242.808594 85.113281 243.046875 84.875 243.339844 84.875 L 247.605469 84.875 C 247.898438 84.875 248.136719 85.113281 248.136719 85.410156 C 248.136719 85.703125 247.898438 85.941406 247.605469 85.941406 " fill-opacity="1" fill-rule="nonzero"/><path fill="#0c2840" d="M 247.605469 89.441406 L 243.339844 89.441406 C 243.046875 89.441406 242.808594 89.203125 242.808594 88.90625 C 242.808594 88.613281 243.046875 88.375 243.339844 88.375 L 247.605469 88.375 C 247.898438 88.375 248.136719 88.613281 248.136719 88.90625 C 248.136719 89.203125 247.898438 89.441406 247.605469 89.441406 " fill-opacity="1" fill-rule="nonzero"/><path fill="#0c2840" d="M 254.425781 92.941406 L 243.335938 92.941406 C 243.046875 92.941406 242.804688 92.703125 242.804688 92.410156 C 242.804688 92.117188 243.046875 91.878906 243.335938 91.878906 L 254.425781 91.878906 C 254.71875 91.878906 254.957031 92.117188 254.957031 92.410156 C 254.957031 92.703125 254.71875 92.941406 254.425781 92.941406 " fill-opacity="1" fill-rule="nonzero"/><path fill="#0c2840" d="M 247.601562 96.441406 L 243.339844 96.441406 C 243.046875 96.441406 242.804688 96.203125 242.804688 95.910156 C 242.804688 95.613281 243.046875 95.375 243.339844 95.375 L 247.601562 95.375 C 247.898438 95.375 248.132812 95.613281 248.132812 95.910156 C 248.132812 96.203125 247.898438 96.441406 247.601562 96.441406 " fill-opacity="1" fill-rule="nonzero"/><path fill="#0c2840" d="M 247.605469 99.941406 L 243.339844 99.941406 C 243.046875 99.941406 242.808594 99.703125 242.808594 99.40625 C 242.808594 99.113281 243.046875 98.875 243.339844 98.875 L 247.605469 98.875 C 247.898438 98.875 248.136719 99.113281 248.136719 99.40625 C 248.136719 99.703125 247.898438 99.941406 247.605469 99.941406 " fill-opacity="1" fill-rule="nonzero"/><path fill="#0c2840" d="M 247.605469 103.4375 L 243.339844 103.4375 C 243.046875 103.4375 242.808594 103.199219 242.808594 102.90625 C 242.808594 102.613281 243.046875 102.375 243.339844 102.375 L 247.605469 102.375 C 247.898438 102.375 248.136719 102.613281 248.136719 102.90625 C 248.136719 103.199219 247.898438 103.4375 247.605469 103.4375 " fill-opacity="1" fill-rule="nonzero"/><path fill="#0c2840" d="M 254.425781 106.9375 L 243.339844 106.9375 C 243.046875 106.9375 242.808594 106.699219 242.808594 106.40625 C 242.808594 106.109375 243.046875 105.875 243.339844 105.875 L 254.425781 105.875 C 254.71875 105.875 254.960938 106.109375 254.960938 106.40625 C 254.960938 106.699219 254.71875 106.9375 254.425781 106.9375 " fill-opacity="1" fill-rule="nonzero"/><path fill="#0c2840" d="M 247.605469 110.4375 L 243.339844 110.4375 C 243.046875 110.4375 242.808594 110.199219 242.808594 109.90625 C 242.808594 109.609375 243.046875 109.371094 243.339844 109.371094 L 247.605469 109.371094 C 247.898438 109.371094 248.136719 109.609375 248.136719 109.90625 C 248.136719 110.199219 247.898438 110.4375 247.605469 110.4375 " fill-opacity="1" fill-rule="nonzero"/><path fill="#0c2840" d="M 247.601562 113.9375 L 243.339844 113.9375 C 243.046875 113.9375 242.804688 113.699219 242.804688 113.40625 C 242.804688 113.113281 243.046875 112.875 243.339844 112.875 L 247.601562 112.875 C 247.898438 112.875 248.136719 113.113281 248.136719 113.40625 C 248.136719 113.699219 247.898438 113.9375 247.601562 113.9375 " fill-opacity="1" fill-rule="nonzero"/><path fill="#0c2840" d="M 247.601562 117.4375 L 243.339844 117.4375 C 243.046875 117.4375 242.804688 117.199219 242.804688 116.90625 C 242.804688 116.613281 243.046875 116.371094 243.339844 116.371094 L 247.601562 116.371094 C 247.898438 116.371094 248.136719 116.613281 248.136719 116.90625 C 248.136719 117.199219 247.898438 117.4375 247.601562 117.4375 " fill-opacity="1" fill-rule="nonzero"/><path fill="#0c2840" d="M 254.425781 120.933594 L 243.339844 120.933594 C 243.046875 120.933594 242.808594 120.699219 242.808594 120.402344 C 242.808594 120.109375 243.046875 119.871094 243.339844 119.871094 L 254.425781 119.871094 C 254.71875 119.871094 254.960938 120.109375 254.960938 120.402344 C 254.960938 120.699219 254.71875 120.933594 254.425781 120.933594 " fill-opacity="1" fill-rule="nonzero"/><path fill="#0c2840" d="M 247.605469 124.433594 L 243.339844 124.433594 C 243.046875 124.433594 242.808594 124.195312 242.808594 123.902344 C 242.808594 123.609375 243.046875 123.371094 243.339844 123.371094 L 247.605469 123.371094 C 247.898438 123.371094 248.136719 123.609375 248.136719 123.902344 C 248.136719 124.195312 247.898438 124.433594 247.605469 124.433594 " fill-opacity="1" fill-rule="nonzero"/><path fill="#0c2840" d="M 247.605469 127.933594 L 243.339844 127.933594 C 243.046875 127.933594 242.808594 127.695312 242.808594 127.402344 C 242.808594 127.105469 243.046875 126.871094 243.339844 126.871094 L 247.605469 126.871094 C 247.898438 126.871094 248.136719 127.105469 248.136719 127.402344 C 248.136719 127.695312 247.898438 127.933594 247.605469 127.933594 " fill-opacity="1" fill-rule="nonzero"/><path fill="#0c2840" d="M 247.605469 131.433594 L 243.339844 131.433594 C 243.046875 131.433594 242.808594 131.195312 242.808594 130.902344 C 242.808594 130.609375 243.046875 130.371094 243.339844 130.371094 L 247.605469 130.371094 C 247.898438 130.371094 248.136719 130.609375 248.136719 130.902344 C 248.136719 131.195312 247.898438 131.433594 247.605469 131.433594 " fill-opacity="1" fill-rule="nonzero"/><path fill="#0c2840" d="M 254.425781 134.933594 L 243.339844 134.933594 C 243.046875 134.933594 242.808594 134.695312 242.808594 134.402344 C 242.808594 134.105469 243.046875 133.867188 243.339844 133.867188 L 254.425781 133.867188 C 254.71875 133.867188 254.960938 134.105469 254.960938 134.402344 C 254.960938 134.695312 254.71875 134.933594 254.425781 134.933594 " fill-opacity="1" fill-rule="nonzero"/><path fill="#0c2840" d="M 247.605469 138.433594 L 243.339844 138.433594 C 243.046875 138.433594 242.808594 138.195312 242.808594 137.898438 C 242.808594 137.605469 243.046875 137.367188 243.339844 137.367188 L 247.605469 137.367188 C 247.898438 137.367188 248.136719 137.605469 248.136719 137.898438 C 248.136719 138.195312 247.898438 138.433594 247.605469 138.433594 " fill-opacity="1" fill-rule="nonzero"/><path fill="#0c2840" d="M 247.605469 141.929688 L 243.339844 141.929688 C 243.046875 141.929688 242.808594 141.695312 242.808594 141.398438 C 242.808594 141.105469 243.046875 140.867188 243.339844 140.867188 L 247.605469 140.867188 C 247.898438 140.867188 248.136719 141.105469 248.136719 141.398438 C 248.136719 141.695312 247.898438 141.929688 247.605469 141.929688 " fill-opacity="1" fill-rule="nonzero"/><path fill="#0c2840" d="M 247.605469 145.429688 L 243.339844 145.429688 C 243.046875 145.429688 242.808594 145.191406 242.808594 144.898438 C 242.808594 144.605469 243.046875 144.367188 243.339844 144.367188 L 247.605469 144.367188 C 247.898438 144.367188 248.136719 144.605469 248.136719 144.898438 C 248.136719 145.191406 247.898438 145.429688 247.605469 145.429688 " fill-opacity="1" fill-rule="nonzero"/><path fill="#0c2840" d="M 254.425781 148.929688 L 243.339844 148.929688 C 243.046875 148.929688 242.808594 148.691406 242.808594 148.398438 C 242.808594 148.105469 243.046875 147.867188 243.339844 147.867188 L 254.425781 147.867188 C 254.71875 147.867188 254.960938 148.105469 254.960938 148.398438 C 254.960938 148.691406 254.71875 148.929688 254.425781 148.929688 " fill-opacity="1" fill-rule="nonzero"/><path fill="#0c2840" d="M 247.605469 152.429688 L 243.339844 152.429688 C 243.046875 152.429688 242.808594 152.191406 242.808594 151.898438 C 242.808594 151.601562 243.046875 151.363281 243.339844 151.363281 L 247.605469 151.363281 C 247.898438 151.363281 248.136719 151.601562 248.136719 151.898438 C 248.136719 152.191406 247.898438 152.429688 247.605469 152.429688 " fill-opacity="1" fill-rule="nonzero"/><path fill="#0c2840" d="M 247.605469 155.929688 L 243.339844 155.929688 C 243.046875 155.929688 242.808594 155.691406 242.808594 155.394531 C 242.808594 155.105469 243.046875 154.863281 243.339844 154.863281 L 247.605469 154.863281 C 247.898438 154.863281 248.136719 155.105469 248.136719 155.394531 C 248.136719 155.691406 247.898438 155.929688 247.605469 155.929688 " fill-opacity="1" fill-rule="nonzero"/><path fill="#0c2840" d="M 247.605469 159.429688 L 243.339844 159.429688 C 243.046875 159.429688 242.808594 159.191406 242.808594 158.898438 C 242.808594 158.601562 243.046875 158.363281 243.339844 158.363281 L 247.605469 158.363281 C 247.898438 158.363281 248.136719 158.601562 248.136719 158.898438 C 248.136719 159.191406 247.898438 159.429688 247.605469 159.429688 " fill-opacity="1" fill-rule="nonzero"/><path fill="#ffffff" d="M 196 144.972656 L 171.273438 100.777344 C 169.015625 96.746094 163.210938 96.746094 160.957031 100.777344 L 136.230469 144.972656 C 134.023438 148.914062 136.871094 153.769531 141.386719 153.769531 L 190.839844 153.769531 C 195.355469 153.769531 198.203125 148.914062 196 144.972656 " fill-opacity="1" fill-rule="nonzero"/><path fill="#000000" d="M 166.113281 98.28125 C 164.136719 98.28125 162.386719 99.3125 161.417969 101.035156 L 136.695312 145.230469 C 135.753906 146.914062 135.773438 148.914062 136.75 150.578125 C 137.722656 152.242188 139.460938 153.238281 141.386719 153.238281 L 190.839844 153.238281 C 192.769531 153.238281 194.503906 152.242188 195.480469 150.578125 C 196.457031 148.914062 196.476562 146.914062 195.535156 145.230469 L 170.808594 101.035156 C 169.84375 99.3125 168.089844 98.28125 166.113281 98.28125 Z M 190.839844 154.300781 L 141.386719 154.300781 C 139.078125 154.300781 137 153.109375 135.832031 151.117188 C 134.660156 149.125 134.636719 146.726562 135.765625 144.710938 L 160.492188 100.515625 C 161.644531 98.449219 163.746094 97.21875 166.113281 97.21875 C 168.480469 97.21875 170.582031 98.449219 171.738281 100.515625 L 196.460938 144.710938 C 197.589844 146.726562 197.566406 149.125 196.398438 151.117188 C 195.230469 153.109375 193.152344 154.300781 190.839844 154.300781 " fill-opacity="1" fill-rule="nonzero"/><path fill="#0c2840" d="M 148.441406 135.796875 C 148.351562 135.796875 148.265625 135.777344 148.183594 135.730469 C 147.925781 135.585938 147.832031 135.261719 147.976562 135.003906 L 163.992188 106.382812 C 164.429688 105.601562 165.222656 105.136719 166.113281 105.136719 C 167.007812 105.136719 167.804688 105.601562 168.238281 106.382812 L 169.953125 109.449219 C 170.097656 109.703125 170.003906 110.027344 169.75 110.171875 C 169.492188 110.316406 169.167969 110.222656 169.023438 109.96875 L 167.3125 106.902344 C 167.0625 106.464844 166.617188 106.203125 166.113281 106.203125 C 165.613281 106.203125 165.164062 106.464844 164.921875 106.902344 L 148.90625 135.523438 C 148.808594 135.699219 148.628906 135.796875 148.441406 135.796875 " fill-opacity="1" fill-rule="nonzero"/><path fill="#0c2840" d="M 175.507812 121 C 175.324219 121 175.140625 120.902344 175.042969 120.730469 L 171.695312 114.746094 C 171.554688 114.488281 171.644531 114.164062 171.898438 114.023438 C 172.15625 113.878906 172.480469 113.96875 172.625 114.226562 L 175.972656 120.210938 C 176.117188 120.464844 176.027344 120.789062 175.765625 120.933594 C 175.6875 120.980469 175.597656 121 175.507812 121 " fill-opacity="1" fill-rule="nonzero"/><path fill="#0c2840" d="M 187.582031 148.378906 L 176.714844 148.378906 C 176.421875 148.378906 176.183594 148.136719 176.183594 147.84375 C 176.183594 147.550781 176.421875 147.3125 176.714844 147.3125 L 187.582031 147.3125 C 188.070312 147.3125 188.515625 147.058594 188.765625 146.636719 C 189.011719 146.210938 189.015625 145.703125 188.777344 145.273438 C 188.632812 145.019531 188.726562 144.691406 188.980469 144.550781 C 189.238281 144.40625 189.5625 144.5 189.707031 144.753906 C 190.132812 145.515625 190.121094 146.421875 189.679688 147.175781 C 189.238281 147.925781 188.453125 148.378906 187.582031 148.378906 " fill-opacity="1" fill-rule="nonzero"/><path fill="#0c2840" d="M 172.160156 148.378906 L 144.648438 148.378906 C 143.773438 148.378906 142.988281 147.925781 142.546875 147.175781 C 142.105469 146.421875 142.097656 145.515625 142.523438 144.753906 L 145.402344 139.609375 C 145.542969 139.351562 145.871094 139.261719 146.125 139.40625 C 146.382812 139.546875 146.472656 139.871094 146.332031 140.128906 L 143.453125 145.273438 C 143.210938 145.703125 143.21875 146.210938 143.464844 146.636719 C 143.714844 147.058594 144.15625 147.3125 144.648438 147.3125 L 172.160156 147.3125 C 172.457031 147.3125 172.695312 147.550781 172.695312 147.84375 C 172.695312 148.136719 172.457031 148.378906 172.160156 148.378906 " fill-opacity="1" fill-rule="nonzero"/><path fill="#19598f" d="M 169.328125 142.089844 C 169.328125 143.863281 167.890625 145.304688 166.113281 145.304688 C 164.339844 145.304688 162.902344 143.863281 162.902344 142.089844 C 162.902344 140.316406 164.339844 138.875 166.113281 138.875 C 167.890625 138.875 169.328125 140.316406 169.328125 142.089844 " fill-opacity="1" fill-rule="nonzero"/><path fill="#19598f" d="M 166.664062 114.484375 L 165.5625 114.484375 C 164.015625 114.484375 162.78125 115.765625 162.832031 117.3125 L 163.382812 133.109375 C 163.4375 134.578125 164.644531 135.746094 166.113281 135.746094 C 167.582031 135.746094 168.789062 134.578125 168.84375 133.109375 L 169.394531 117.3125 C 169.449219 115.765625 168.210938 114.484375 166.664062 114.484375 " fill-opacity="1" fill-rule="nonzero"/><path fill="#000000" d="M 58.703125 293.652344 C 58.703125 293.652344 57.332031 296.496094 54.011719 299.109375 C 52.710938 300.132812 53.882812 303.316406 53.882812 303.316406 L 58.269531 306.1875 C 58.242188 304.742188 58.539062 303.304688 59.152344 301.996094 C 59.792969 300.636719 62.140625 299.046875 63.21875 297.871094 L 58.703125 293.652344 " fill-opacity="1" fill-rule="nonzero"/><path fill="#ffffff" d="M 46.695312 304.804688 C 46.875 308.054688 47.605469 317.070312 50.265625 322.929688 C 50.820312 324.152344 52.460938 324.378906 53.347656 323.367188 C 53.859375 322.78125 54.46875 321.96875 55.1875 320.839844 C 57.589844 317.054688 58.933594 305.722656 59.179688 303.457031 C 59.207031 303.207031 59.113281 302.960938 58.929688 302.792969 L 57.691406 301.652344 C 57.152344 301.15625 56.304688 301.234375 55.867188 301.820312 L 55.652344 302.101562 C 55.484375 302.328125 55.132812 302.289062 55.019531 302.03125 L 53.988281 299.703125 C 53.695312 299.042969 52.910156 298.761719 52.265625 299.085938 C 51.132812 299.664062 49.339844 300.761719 47.496094 302.648438 C 46.9375 303.21875 46.648438 304.003906 46.695312 304.804688 " fill-opacity="1" fill-rule="nonzero"/><path fill="#000000" d="M 52.832031 299.484375 C 52.722656 299.484375 52.609375 299.507812 52.507812 299.5625 C 51.375 300.136719 49.652344 301.203125 47.875 303.019531 C 47.425781 303.480469 47.1875 304.121094 47.226562 304.773438 C 47.421875 308.261719 48.152344 316.992188 50.75 322.710938 C 50.933594 323.117188 51.296875 323.390625 51.746094 323.457031 C 52.199219 323.523438 52.648438 323.355469 52.945312 323.015625 C 53.5 322.382812 54.101562 321.554688 54.738281 320.554688 C 57.078125 316.871094 58.40625 305.617188 58.652344 303.398438 C 58.660156 303.320312 58.628906 303.238281 58.570312 303.183594 L 57.328125 302.042969 C 57.183594 301.90625 56.988281 301.84375 56.789062 301.859375 C 56.589844 301.878906 56.414062 301.976562 56.292969 302.140625 L 56.078125 302.421875 C 55.882812 302.683594 55.574219 302.8125 55.253906 302.777344 C 54.933594 302.742188 54.664062 302.542969 54.53125 302.246094 L 53.503906 299.917969 C 53.421875 299.734375 53.269531 299.59375 53.078125 299.527344 C 52.996094 299.496094 52.914062 299.484375 52.832031 299.484375 Z M 51.945312 324.535156 C 51.828125 324.535156 51.710938 324.527344 51.589844 324.511719 C 50.789062 324.390625 50.113281 323.882812 49.78125 323.148438 C 47.109375 317.269531 46.359375 308.382812 46.164062 304.832031 C 46.109375 303.882812 46.457031 302.949219 47.117188 302.273438 C 48.996094 300.355469 50.820312 299.222656 52.023438 298.613281 C 52.464844 298.390625 52.96875 298.355469 53.433594 298.523438 C 53.898438 298.6875 54.277344 299.039062 54.476562 299.488281 L 55.394531 301.5625 L 55.441406 301.5 C 55.738281 301.101562 56.195312 300.847656 56.691406 300.800781 C 57.1875 300.753906 57.683594 300.921875 58.050781 301.261719 L 59.289062 302.402344 C 59.597656 302.683594 59.753906 303.101562 59.707031 303.515625 C 59.460938 305.773438 58.101562 317.242188 55.636719 321.125 C 54.972656 322.171875 54.335938 323.042969 53.746094 323.714844 C 53.285156 324.242188 52.632812 324.535156 51.945312 324.535156 " fill-opacity="1" fill-rule="nonzero"/><path fill="#000000" d="M 51.980469 321.976562 C 51.757812 321.976562 51.550781 321.835938 51.476562 321.613281 C 49.292969 315.085938 48.507812 307.378906 48.269531 304.371094 C 48.25 304.078125 48.46875 303.824219 48.761719 303.800781 C 49.058594 303.777344 49.308594 303.996094 49.332031 304.289062 C 49.566406 307.257812 50.335938 314.859375 52.488281 321.273438 C 52.578125 321.554688 52.429688 321.855469 52.152344 321.949219 C 52.09375 321.96875 52.039062 321.976562 51.980469 321.976562 " fill-opacity="1" fill-rule="nonzero"/><path fill="#000000" d="M 56.03125 314.527344 C 56.011719 314.527344 55.988281 314.523438 55.964844 314.523438 L 53.4375 314.199219 C 53.148438 314.164062 52.941406 313.894531 52.976562 313.605469 C 53.015625 313.3125 53.28125 313.109375 53.574219 313.144531 L 56.097656 313.464844 C 56.390625 313.503906 56.597656 313.769531 56.558594 314.0625 C 56.527344 314.332031 56.296875 314.527344 56.03125 314.527344 " fill-opacity="1" fill-rule="nonzero"/><path fill="#000000" d="M 56.414062 310.628906 C 56.394531 310.628906 56.371094 310.628906 56.347656 310.625 L 52.960938 310.203125 C 52.667969 310.167969 52.460938 309.902344 52.5 309.609375 C 52.535156 309.316406 52.800781 309.113281 53.09375 309.148438 L 56.480469 309.570312 C 56.773438 309.605469 56.980469 309.871094 56.941406 310.164062 C 56.910156 310.433594 56.679688 310.628906 56.414062 310.628906 " fill-opacity="1" fill-rule="nonzero"/><path fill="#000000" d="M 100.835938 312.628906 L 100.890625 314.953125 C 100.933594 316.800781 100.527344 318.632812 99.707031 320.289062 L 99.628906 320.449219 L 110.949219 321.582031 C 110.949219 321.582031 106.058594 318.117188 107.253906 313.511719 C 107.851562 311.222656 100.835938 312.628906 100.835938 312.628906 " fill-opacity="1" fill-rule="nonzero"/><path fill="#ffffff" d="M 98.460938 329.375 C 97.675781 329.375 97.019531 328.765625 96.964844 327.980469 C 96.84375 326.195312 96.894531 323.035156 98.386719 320.417969 C 98.800781 319.691406 99.605469 319.320312 100.394531 319.464844 L 106.839844 320.640625 C 107.507812 320.746094 108.179688 320.492188 108.632812 319.960938 L 109.230469 319.167969 C 109.652344 318.609375 110.40625 318.414062 111.042969 318.703125 C 113.746094 319.929688 120.632812 323.339844 122.785156 327.136719 C 123.351562 328.132812 122.628906 329.375 121.476562 329.375 L 98.460938 329.375 " fill-opacity="1" fill-rule="nonzero"/><path fill="#000000" d="M 100.050781 319.964844 C 99.5625 319.964844 99.109375 320.230469 98.847656 320.683594 C 97.410156 323.207031 97.382812 326.3125 97.496094 327.941406 C 97.53125 328.445312 97.957031 328.84375 98.464844 328.84375 L 121.476562 328.84375 C 121.828125 328.84375 122.140625 328.664062 122.316406 328.363281 C 122.492188 328.0625 122.492188 327.699219 122.324219 327.398438 C 120.261719 323.757812 113.59375 320.445312 110.824219 319.1875 C 110.410156 319 109.929688 319.125 109.65625 319.488281 L 109.058594 320.285156 C 108.460938 320.980469 107.609375 321.300781 106.753906 321.164062 L 100.296875 319.988281 C 100.214844 319.972656 100.132812 319.964844 100.050781 319.964844 Z M 121.476562 329.90625 L 98.464844 329.90625 C 97.398438 329.90625 96.507812 329.078125 96.4375 328.015625 C 96.3125 326.269531 96.347656 322.921875 97.925781 320.15625 C 98.445312 319.246094 99.472656 318.753906 100.488281 318.941406 L 106.9375 320.113281 C 107.40625 320.191406 107.894531 320.003906 108.230469 319.617188 L 108.804688 318.847656 C 109.382812 318.082031 110.394531 317.824219 111.265625 318.21875 C 114.128906 319.519531 121.03125 322.964844 123.25 326.875 C 123.609375 327.507812 123.605469 328.265625 123.234375 328.898438 C 122.867188 329.527344 122.210938 329.90625 121.476562 329.90625 " fill-opacity="1" fill-rule="nonzero"/><path fill="#000000" d="M 119.164062 327.800781 C 119.160156 327.800781 119.160156 327.800781 119.160156 327.800781 L 99.839844 327.730469 C 99.546875 327.726562 99.308594 327.488281 99.3125 327.195312 C 99.3125 326.902344 99.550781 326.664062 99.84375 326.664062 L 119.164062 326.738281 C 119.457031 326.738281 119.695312 326.976562 119.695312 327.273438 C 119.691406 327.5625 119.457031 327.800781 119.164062 327.800781 " fill-opacity="1" fill-rule="nonzero"/><path fill="#000000" d="M 110.472656 324.714844 C 110.371094 324.714844 110.273438 324.6875 110.183594 324.628906 C 109.9375 324.46875 109.867188 324.136719 110.027344 323.890625 L 111.894531 321.019531 C 112.054688 320.773438 112.382812 320.699219 112.628906 320.863281 C 112.875 321.023438 112.945312 321.351562 112.785156 321.597656 L 110.917969 324.46875 C 110.816406 324.628906 110.644531 324.714844 110.472656 324.714844 " fill-opacity="1" fill-rule="nonzero"/><path fill="#000000" d="M 113.488281 325.433594 C 113.382812 325.433594 113.277344 325.398438 113.183594 325.335938 C 112.945312 325.167969 112.882812 324.835938 113.050781 324.597656 L 114.703125 322.226562 C 114.871094 321.984375 115.203125 321.925781 115.445312 322.09375 C 115.6875 322.261719 115.746094 322.59375 115.578125 322.832031 L 113.925781 325.203125 C 113.820312 325.351562 113.65625 325.433594 113.488281 325.433594 " fill-opacity="1" fill-rule="nonzero"/><path fill="#19598f" d="M 108.199219 215.007812 C 105.902344 201.738281 88.304688 204.871094 82.632812 227.910156 C 80.628906 236.042969 79.058594 249.992188 78.3125 257.40625 C 77.996094 260.582031 77.324219 263.878906 75.359375 266.394531 C 67.46875 276.5 62.148438 281.539062 57.03125 295.226562 C 56.957031 295.425781 58.425781 298.648438 60.769531 300.039062 C 61.058594 300.210938 61.410156 300.238281 61.734375 300.136719 C 72.164062 296.746094 82.960938 273.9375 88.605469 268.054688 C 94.339844 262.082031 107.246094 226.714844 107.246094 226.714844 C 107.246094 226.714844 109.609375 223.140625 108.199219 215.007812 " fill-opacity="1" fill-rule="nonzero"/><path fill="#19598f" d="M 121.253906 239.222656 C 121.253906 239.222656 118.417969 257.402344 116.4375 267.296875 C 114.460938 277.191406 114.683594 290.066406 111.042969 304.363281 C 110.1875 307.726562 108.589844 312.460938 107.925781 314.386719 C 107.75 314.90625 107.257812 315.25 106.710938 315.238281 L 101.285156 315.125 C 100.6875 315.113281 100.183594 314.6875 100.070312 314.101562 C 99.183594 309.417969 95.894531 289.359375 101.851562 276.292969 C 104.570312 270.332031 97.496094 251.371094 99.4375 242.140625 C 100.972656 234.835938 105.21875 213.597656 105.21875 213.597656 L 118.398438 214.429688 C 118.398438 214.429688 122.027344 226.515625 121.253906 239.222656 " fill-opacity="1" fill-rule="nonzero"/><path fill="#ffffff" d="M 135.074219 175.296875 C 138.582031 176.984375 143.886719 178.453125 147.761719 178.867188 C 149.527344 179.054688 151.070312 179.164062 151.839844 179.210938 C 152.230469 179.234375 152.621094 179.167969 152.980469 179.011719 C 153.925781 178.597656 155.96875 177.5 159.210938 174.757812 C 162.527344 171.945312 168.535156 165.351562 169.417969 165.320312 C 170.136719 165.296875 171.964844 165.644531 173.800781 163.9375 C 174.761719 163.042969 175.21875 161.871094 175.164062 160.769531 C 175.113281 159.789062 175.449219 158.808594 176.148438 158.121094 C 176.507812 157.761719 176.785156 157.320312 176.699219 156.832031 C 176.527344 155.792969 174.546875 155.609375 174.546875 155.609375 C 176.222656 152.519531 173.125 151.496094 172.710938 153.144531 C 172.191406 155.199219 169.074219 157.449219 167.515625 159.902344 C 165.84375 162.542969 162.71875 163.40625 158.054688 166.347656 C 157.082031 166.957031 155.953125 167.71875 154.851562 168.476562 C 151.921875 170.496094 148.054688 170.503906 145.125 168.484375 C 143.589844 167.425781 142.074219 166.417969 141.230469 165.960938 L 135.074219 175.296875 " fill-opacity="1" fill-rule="nonzero"/><path fill="#000000" d="M 169.5 165.84375 Z M 135.859375 175.074219 C 139.242188 176.601562 144.152344 177.949219 147.816406 178.335938 C 149.582031 178.523438 151.117188 178.632812 151.875 178.679688 C 152.183594 178.699219 152.488281 178.648438 152.769531 178.523438 C 153.671875 178.125 155.667969 177.058594 158.867188 174.347656 C 160.277344 173.15625 162.164062 171.285156 163.988281 169.476562 C 167.683594 165.808594 168.777344 164.8125 169.398438 164.789062 C 169.511719 164.785156 169.644531 164.789062 169.800781 164.796875 C 170.632812 164.824219 172.023438 164.867188 173.441406 163.546875 C 174.25 162.792969 174.683594 161.792969 174.632812 160.796875 C 174.570312 159.632812 174.988281 158.515625 175.773438 157.742188 C 176.082031 157.4375 176.214844 157.160156 176.175781 156.917969 C 176.101562 156.472656 175.046875 156.191406 174.496094 156.140625 L 173.695312 156.0625 L 174.078125 155.355469 C 174.5625 154.464844 174.640625 153.691406 174.300781 153.226562 C 174.09375 152.945312 173.792969 152.863281 173.582031 152.90625 C 173.398438 152.941406 173.277344 153.066406 173.226562 153.273438 C 172.890625 154.601562 171.675781 155.902344 170.386719 157.277344 C 169.507812 158.222656 168.59375 159.195312 167.964844 160.1875 C 166.765625 162.082031 164.921875 163.085938 162.378906 164.46875 C 161.1875 165.117188 159.839844 165.847656 158.335938 166.796875 C 157.476562 167.339844 156.40625 168.050781 155.152344 168.914062 C 152.0625 171.046875 147.910156 171.050781 144.824219 168.921875 C 143.304688 167.875 142.15625 167.121094 141.398438 166.671875 Z M 151.996094 179.75 C 151.933594 179.75 151.871094 179.746094 151.808594 179.742188 C 151.039062 179.695312 149.488281 179.585938 147.703125 179.394531 C 143.730469 178.972656 138.324219 177.449219 134.84375 175.777344 L 134.296875 175.511719 L 141.054688 165.261719 L 141.480469 165.492188 C 142.230469 165.898438 143.558594 166.757812 145.429688 168.046875 C 148.15625 169.925781 151.820312 169.925781 154.550781 168.039062 C 155.8125 167.167969 156.894531 166.445312 157.769531 165.894531 C 159.304688 164.929688 160.664062 164.1875 161.867188 163.535156 C 164.277344 162.226562 166.015625 161.28125 167.066406 159.617188 C 167.75 158.542969 168.695312 157.53125 169.609375 156.550781 C 170.800781 155.277344 171.929688 154.074219 172.195312 153.015625 C 172.347656 152.410156 172.789062 151.976562 173.378906 151.859375 C 174.035156 151.730469 174.734375 152.019531 175.160156 152.597656 C 175.40625 152.929688 175.851562 153.796875 175.320312 155.203125 C 176.046875 155.382812 177.066406 155.800781 177.226562 156.738281 C 177.296875 157.15625 177.230469 157.796875 176.519531 158.496094 C 175.953125 159.058594 175.648438 159.878906 175.695312 160.742188 C 175.761719 162.054688 175.207031 163.359375 174.164062 164.324219 C 172.425781 165.945312 170.695312 165.890625 169.765625 165.859375 C 169.65625 165.855469 169.5625 165.851562 169.476562 165.855469 C 168.917969 166.085938 166.601562 168.382812 164.734375 170.230469 C 162.898438 172.054688 160.996094 173.941406 159.554688 175.164062 C 156.253906 177.957031 154.152344 179.078125 153.195312 179.496094 C 152.820312 179.664062 152.40625 179.75 151.996094 179.75 " fill-opacity="1" fill-rule="nonzero"/><path fill="#000000" d="M 173.003906 158.277344 C 172.867188 158.277344 172.730469 158.226562 172.625 158.121094 C 172.417969 157.914062 172.417969 157.578125 172.625 157.371094 C 173.382812 156.609375 174.132812 155.246094 174.140625 155.230469 C 174.28125 154.972656 174.605469 154.878906 174.863281 155.019531 C 175.121094 155.160156 175.214844 155.484375 175.074219 155.742188 C 175.039062 155.800781 174.242188 157.257812 173.378906 158.121094 C 173.273438 158.226562 173.136719 158.277344 173.003906 158.277344 " fill-opacity="1" fill-rule="nonzero"/><path fill="#ffffff" d="M 139.820312 138.1875 C 140.734375 138.222656 141.273438 138.804688 141.105469 139.707031 C 141 140.261719 140.277344 141.507812 139.570312 142.464844 C 138.632812 143.738281 139.867188 149.488281 137.726562 151.425781 C 135.585938 153.367188 127.140625 161.863281 127.140625 161.863281 L 121.304688 159.488281 L 132.589844 150.320312 C 133.300781 149.742188 133.609375 148.804688 133.382812 147.917969 L 132.253906 143.476562 C 132.132812 143.007812 132.242188 142.507812 132.546875 142.128906 L 134.589844 139.589844 C 134.820312 139.308594 135.097656 139.070312 135.40625 138.894531 C 135.929688 138.59375 136.558594 138.535156 137.136719 138.703125 L 137.726562 138.875 C 137.847656 138.859375 139.113281 138.160156 139.820312 138.1875 " fill-opacity="1" fill-rule="nonzero"/><path fill="#000000" d="M 122.339844 159.332031 L 127.011719 161.234375 C 128.453125 159.789062 135.425781 152.796875 137.367188 151.035156 C 138.488281 150.015625 138.550781 147.546875 138.601562 145.566406 C 138.640625 144.015625 138.671875 142.789062 139.144531 142.148438 C 139.914062 141.105469 140.511719 139.992188 140.582031 139.609375 C 140.617188 139.425781 140.628906 139.167969 140.480469 138.984375 C 140.351562 138.824219 140.109375 138.730469 139.800781 138.71875 C 139.40625 138.707031 138.589844 139.078125 138.242188 139.234375 C 137.996094 139.347656 137.902344 139.390625 137.785156 139.402344 L 137.679688 139.414062 L 136.988281 139.214844 C 136.535156 139.082031 136.058594 139.132812 135.671875 139.355469 C 135.417969 139.503906 135.191406 139.695312 135.003906 139.925781 L 132.960938 142.464844 C 132.761719 142.710938 132.691406 143.039062 132.769531 143.34375 L 133.898438 147.785156 C 134.175781 148.871094 133.792969 150.027344 132.925781 150.734375 Z M 127.265625 162.488281 L 120.269531 159.640625 L 132.253906 149.90625 C 132.800781 149.460938 133.042969 148.730469 132.867188 148.046875 L 131.738281 143.609375 C 131.578125 142.980469 131.722656 142.300781 132.132812 141.796875 L 134.175781 139.257812 C 134.445312 138.921875 134.769531 138.644531 135.144531 138.429688 C 135.777344 138.070312 136.558594 137.980469 137.285156 138.195312 L 137.699219 138.3125 C 137.730469 138.300781 137.761719 138.285156 137.800781 138.265625 C 138.472656 137.960938 139.234375 137.636719 139.839844 137.65625 C 140.464844 137.679688 140.988281 137.914062 141.3125 138.324219 C 141.628906 138.714844 141.738281 139.230469 141.628906 139.804688 C 141.484375 140.5625 140.578125 142 140 142.78125 C 139.726562 143.152344 139.695312 144.449219 139.664062 145.59375 C 139.609375 147.777344 139.542969 150.496094 138.082031 151.820312 C 135.980469 153.730469 127.601562 162.152344 127.515625 162.238281 L 127.265625 162.488281 " fill-opacity="1" fill-rule="nonzero"/><path fill="#000000" d="M 135.320312 142.769531 C 135.234375 142.769531 135.144531 142.75 135.066406 142.707031 C 134.808594 142.5625 134.710938 142.242188 134.855469 141.980469 C 135.097656 141.539062 137.289062 137.675781 139.84375 137.675781 C 139.867188 137.675781 139.890625 137.675781 139.914062 137.675781 C 140.207031 137.683594 140.4375 137.929688 140.429688 138.222656 C 140.421875 138.515625 140.167969 138.742188 139.882812 138.742188 C 138.238281 138.6875 136.367188 141.433594 135.785156 142.496094 C 135.691406 142.671875 135.507812 142.769531 135.320312 142.769531 " fill-opacity="1" fill-rule="nonzero"/><path fill="#000000" d="M 107.328125 157.066406 C 107.328125 157.066406 117.296875 156.671875 123.558594 158.09375 C 127.714844 159.035156 138.761719 161.894531 142.464844 165.113281 C 142.464844 165.113281 144.234375 175.097656 135.863281 182.824219 L 128.519531 181.144531 C 128.519531 181.144531 130.78125 224.316406 124.199219 238.476562 C 123.792969 239.351562 117.578125 241.203125 117.578125 241.203125 C 117.578125 241.203125 116.886719 226.582031 115.78125 226.914062 C 114.671875 227.242188 110.167969 243.105469 108.828125 243.347656 C 94.484375 245.929688 77.667969 243.671875 77.394531 243.132812 C 77.257812 242.855469 77.039062 231.101562 84.398438 217.074219 C 89.101562 208.109375 95.523438 199.996094 96.550781 194.652344 C 98.1875 186.121094 93.613281 174.492188 94.972656 164.804688 C 95.261719 162.746094 95.179688 157.34375 107.328125 157.066406 " fill-opacity="1" fill-rule="nonzero"/><path fill="#000000" d="M 122.292969 139.203125 C 122.292969 139.203125 126.703125 138.207031 124.046875 130.75 C 121.371094 123.242188 112.933594 125.914062 109.707031 125.664062 C 106.476562 125.410156 99.933594 120.488281 97.609375 119.324219 C 95.285156 118.160156 87.644531 112.792969 77.425781 122.386719 C 77.425781 122.386719 75.839844 124.871094 67.191406 124.832031 C 59.667969 124.792969 46.832031 130.019531 52.054688 139.472656 C 53.558594 142.195312 56.015625 144.195312 58.878906 145.167969 C 59.398438 145.347656 59.964844 145.511719 60.578125 145.65625 C 62.347656 146.078125 63.804688 147.398438 64.394531 149.191406 C 66.324219 155.039062 72.648438 166.140625 91.375 153.125 C 92.785156 152.144531 94.542969 151.90625 96.140625 152.453125 C 98.101562 153.121094 100.433594 156.113281 109.4375 154.117188 C 115.226562 152.832031 116.535156 146.402344 117.832031 143.425781 C 119.351562 139.929688 122.292969 139.203125 122.292969 139.203125 " fill-opacity="1" fill-rule="nonzero"/><path fill="#ffffff" d="M 116.542969 142.492188 C 116.820312 140.679688 116.957031 139.273438 118.832031 139.640625 C 120.257812 139.921875 121.523438 137.6875 122.671875 138.582031 C 122.886719 138.75 123.34375 139.660156 123.539062 140.027344 C 125.078125 142.941406 125.066406 150.15625 122.84375 151.605469 C 120.621094 153.054688 117.945312 150.296875 116.636719 152.21875 C 115.324219 154.140625 115.183594 156.765625 115.027344 159.796875 C 114.566406 160.09375 112.296875 160.515625 110.984375 160.507812 C 108.335938 160.484375 106.78125 158.234375 106.625 158.003906 C 107.09375 157.207031 107.546875 156.265625 107.976562 155.195312 C 108.226562 154.5625 108.6875 153.101562 108.6875 153.101562 C 110.753906 152 112.558594 150.484375 113.992188 148.671875 C 115.316406 147 116.160156 145 116.480469 142.894531 L 116.542969 142.492188 " fill-opacity="1" fill-rule="nonzero"/><path fill="#000000" d="M 107.261719 157.96875 C 107.738281 158.574219 109.042969 159.957031 110.988281 159.972656 C 111.003906 159.972656 111.023438 159.972656 111.039062 159.972656 C 112.183594 159.972656 113.867188 159.65625 114.511719 159.441406 C 114.667969 156.46875 114.84375 153.898438 116.195312 151.917969 C 117.078125 150.625 118.429688 150.953125 119.621094 151.242188 C 120.671875 151.496094 121.667969 151.734375 122.550781 151.160156 C 124.476562 149.90625 124.53125 143.046875 123.066406 140.277344 L 122.980469 140.113281 C 122.855469 139.871094 122.46875 139.128906 122.328125 138.988281 C 122.070312 138.789062 121.769531 138.921875 121 139.421875 C 120.34375 139.851562 119.597656 140.335938 118.730469 140.164062 C 118.289062 140.078125 117.980469 140.105469 117.78125 140.242188 C 117.378906 140.527344 117.25 141.378906 117.101562 142.363281 L 117.007812 142.976562 C 116.667969 145.199219 115.769531 147.285156 114.410156 149 C 112.957031 150.839844 111.179688 152.339844 109.128906 153.46875 C 108.992188 153.898438 108.671875 154.882812 108.472656 155.390625 C 108.09375 156.335938 107.6875 157.203125 107.261719 157.96875 Z M 111.027344 161.039062 C 111.011719 161.039062 110.996094 161.039062 110.980469 161.039062 C 108.078125 161.015625 106.371094 158.578125 106.183594 158.296875 L 106 158.023438 L 106.167969 157.734375 C 106.632812 156.941406 107.074219 156.019531 107.480469 154.996094 C 107.722656 154.390625 108.171875 152.957031 108.179688 152.941406 L 108.242188 152.734375 L 108.4375 152.632812 C 110.4375 151.5625 112.167969 150.121094 113.574219 148.339844 C 114.820312 146.765625 115.644531 144.855469 115.957031 142.816406 L 116.050781 142.207031 C 116.234375 140.980469 116.394531 139.917969 117.167969 139.375 C 117.617188 139.058594 118.195312 138.972656 118.9375 139.121094 C 119.378906 139.207031 119.886719 138.878906 120.417969 138.53125 C 121.160156 138.050781 122.078125 137.449219 122.996094 138.160156 C 123.234375 138.347656 123.488281 138.777344 123.925781 139.621094 L 124.007812 139.777344 C 125.609375 142.800781 125.710938 150.371094 123.132812 152.050781 C 121.863281 152.878906 120.480469 152.542969 119.371094 152.277344 C 118.074219 151.960938 117.5 151.894531 117.074219 152.519531 C 115.84375 154.324219 115.710938 156.871094 115.558594 159.824219 L 115.542969 160.09375 L 115.316406 160.242188 C 114.695312 160.644531 112.324219 161.039062 111.027344 161.039062 " fill-opacity="1" fill-rule="nonzero"/><path fill="#000000" d="M 119.941406 146.917969 C 119.921875 146.917969 119.902344 146.917969 119.878906 146.914062 C 118.027344 146.695312 116.949219 144.71875 116.699219 142.855469 C 116.476562 141.175781 116.929688 139.851562 117.851562 139.480469 C 119.523438 138.804688 120.929688 140.664062 121.496094 141.867188 C 121.621094 142.132812 121.507812 142.449219 121.242188 142.574219 C 120.976562 142.699219 120.660156 142.589844 120.535156 142.324219 C 120.523438 142.300781 119.398438 140.003906 118.25 140.464844 C 117.878906 140.613281 117.59375 141.496094 117.757812 142.714844 C 117.945312 144.121094 118.726562 145.707031 120.003906 145.855469 C 120.296875 145.890625 120.503906 146.15625 120.472656 146.449219 C 120.441406 146.71875 120.210938 146.917969 119.941406 146.917969 " fill-opacity="1" fill-rule="nonzero"/><path fill="#000000" d="M 179.265625 81.238281 L 176.140625 90.332031 L 181.84375 87.859375 Z M 175.246094 91.832031 C 175.113281 91.832031 174.984375 91.785156 174.882812 91.691406 C 174.730469 91.546875 174.675781 91.328125 174.742188 91.125 L 178.734375 79.519531 C 178.804688 79.308594 179 79.164062 179.226562 79.160156 C 179.445312 79.15625 179.652344 79.292969 179.730469 79.5 L 183.019531 87.953125 C 183.125 88.21875 182.996094 88.519531 182.734375 88.632812 L 175.457031 91.789062 C 175.386719 91.816406 175.316406 91.832031 175.246094 91.832031 " fill-opacity="1" fill-rule="nonzero"/><path fill="#000000" d="M 160.101562 95.492188 C 159.921875 95.492188 159.75 95.40625 159.648438 95.242188 L 135.605469 56.429688 C 135.449219 56.179688 135.527344 55.851562 135.777344 55.695312 C 136.027344 55.542969 136.355469 55.617188 136.511719 55.871094 L 160.550781 94.679688 C 160.707031 94.933594 160.632812 95.257812 160.378906 95.414062 C 160.292969 95.46875 160.195312 95.492188 160.101562 95.492188 " fill-opacity="1" fill-rule="nonzero"/><path fill="#000000" d="M 152.976562 100.566406 C 152.875 100.566406 152.769531 100.535156 152.679688 100.472656 L 125.40625 82.109375 C 125.160156 81.941406 125.097656 81.613281 125.261719 81.367188 C 125.425781 81.125 125.757812 81.058594 126 81.226562 L 153.273438 99.589844 C 153.519531 99.753906 153.582031 100.085938 153.417969 100.332031 C 153.316406 100.480469 153.148438 100.566406 152.976562 100.566406 " fill-opacity="1" fill-rule="nonzero"/><path fill="#000000" d="M 146.808594 108.203125 C 146.582031 108.203125 146.359375 108.175781 146.144531 108.121094 C 145.378906 107.921875 145 107.453125 144.664062 107.042969 C 144.410156 106.726562 144.1875 106.457031 143.789062 106.285156 C 143.03125 105.960938 142.3125 106.339844 141.484375 106.777344 C 140.625 107.230469 139.652344 107.742188 138.507812 107.46875 C 137.113281 107.132812 136.570312 105.902344 136.09375 104.820312 C 135.667969 103.851562 135.265625 102.9375 134.339844 102.601562 C 133.28125 102.21875 132.214844 102.839844 131.085938 103.496094 C 129.847656 104.222656 128.445312 105.039062 126.917969 104.460938 C 125.636719 103.980469 125.097656 102.847656 124.617188 101.847656 C 124.210938 100.996094 123.859375 100.257812 123.148438 100.070312 C 122.117188 99.796875 120.65625 100.707031 118.921875 102.703125 C 118.726562 102.925781 118.390625 102.949219 118.171875 102.757812 C 117.949219 102.5625 117.925781 102.226562 118.117188 102.003906 C 120.195312 99.617188 121.929688 98.648438 123.417969 99.039062 C 124.605469 99.355469 125.101562 100.386719 125.578125 101.390625 C 126.007812 102.285156 126.414062 103.132812 127.292969 103.464844 C 128.347656 103.863281 129.417969 103.238281 130.550781 102.578125 C 131.78125 101.859375 133.179688 101.046875 134.703125 101.601562 C 136.054688 102.09375 136.59375 103.3125 137.066406 104.390625 C 137.5 105.371094 137.875 106.222656 138.753906 106.433594 C 139.511719 106.613281 140.230469 106.234375 140.988281 105.835938 C 141.921875 105.34375 142.984375 104.785156 144.207031 105.304688 C 144.851562 105.582031 145.207031 106.019531 145.492188 106.371094 C 145.777344 106.722656 145.984375 106.976562 146.410156 107.089844 C 147.121094 107.269531 147.996094 106.945312 149.015625 106.125 C 149.242188 105.941406 149.582031 105.976562 149.761719 106.203125 C 149.949219 106.433594 149.914062 106.765625 149.683594 106.953125 C 148.65625 107.78125 147.691406 108.203125 146.808594 108.203125 " fill-opacity="1" fill-rule="nonzero"/><path fill="#000000" d="M 177.921875 333.039062 C 177.65625 333.039062 177.429688 332.84375 177.394531 332.574219 C 177.355469 332.285156 177.5625 332.019531 177.851562 331.980469 C 227.925781 325.433594 265.289062 306.390625 288.90625 275.375 C 306.941406 251.691406 313.347656 225.308594 315.546875 207.351562 C 317.933594 187.890625 316.027344 173.875 316.007812 173.734375 C 315.96875 173.445312 316.171875 173.175781 316.460938 173.132812 C 316.753906 173.09375 317.023438 173.296875 317.0625 173.589844 C 317.082031 173.726562 319.003906 187.886719 316.605469 207.480469 C 314.386719 225.570312 307.933594 252.144531 289.753906 276.019531 C 265.957031 307.265625 228.355469 326.449219 177.988281 333.035156 C 177.96875 333.039062 177.941406 333.039062 177.921875 333.039062 " fill-opacity="1" fill-rule="nonzero"/><path fill="#000000" d="M 232.226562 312.210938 C 232.015625 312.210938 231.816406 312.085938 231.734375 311.878906 C 231.621094 311.605469 231.753906 311.296875 232.027344 311.1875 C 257.746094 300.78125 273.664062 284.949219 282.492188 273.496094 C 292.046875 261.101562 295.566406 251.0625 295.597656 250.960938 C 295.695312 250.683594 296 250.535156 296.277344 250.632812 C 296.554688 250.730469 296.699219 251.03125 296.605469 251.308594 C 296.570312 251.410156 292.996094 261.613281 283.335938 274.148438 C 274.429688 285.703125 258.363281 301.679688 232.429688 312.171875 C 232.363281 312.199219 232.292969 312.210938 232.226562 312.210938 " fill-opacity="1" fill-rule="nonzero"/><path fill="#000000" d="M 299.589844 236.125 C 297.960938 236.125 296.632812 237.449219 296.632812 239.078125 C 296.632812 240.707031 297.960938 242.035156 299.589844 242.035156 C 301.21875 242.035156 302.546875 240.707031 302.546875 239.078125 C 302.546875 237.449219 301.21875 236.125 299.589844 236.125 Z M 299.589844 243.097656 C 297.375 243.097656 295.570312 241.296875 295.570312 239.078125 C 295.570312 236.863281 297.375 235.058594 299.589844 235.058594 C 301.804688 235.058594 303.609375 236.863281 303.609375 239.078125 C 303.609375 241.296875 301.804688 243.097656 299.589844 243.097656 " fill-opacity="1" fill-rule="nonzero"/></svg>