<svg xmlns="http://www.w3.org/2000/svg" xmlns:xlink="http://www.w3.org/1999/xlink" width="500" zoomAndPan="magnify" viewBox="0 0 375 374.999991" height="500" preserveAspectRatio="xMidYMid meet" version="1.0"><path fill="#caddff" d="M 208.726562 21.824219 C 133.867188 7.992188 76.839844 59.710938 72.613281 63.671875 C 65.914062 69.953125 18.746094 115.648438 20.941406 187.316406 C 22.875 250.472656 62.394531 309.503906 118.328125 331.960938 C 205.578125 367.003906 324.753906 309.835938 341.691406 208.242188 C 356.253906 120.878906 289.207031 36.695312 208.726562 21.824219 " fill-opacity="1" fill-rule="nonzero"/><path fill="#ffffff" d="M 201.125 206.582031 L 181.207031 206.582031 C 180.105469 206.582031 179.292969 207.613281 179.558594 208.679688 C 180.847656 213.859375 182.792969 218.140625 184.234375 220.871094 C 185.292969 222.878906 187.371094 224.136719 189.640625 224.136719 L 192.691406 224.136719 C 194.960938 224.136719 197.042969 222.878906 198.101562 220.871094 C 199.539062 218.140625 201.484375 213.859375 202.773438 208.679688 C 203.042969 207.613281 202.226562 206.582031 201.125 206.582031 " fill-opacity="1" fill-rule="nonzero"/><path fill="#0c2840" d="M 181.207031 207.164062 C 180.859375 207.164062 180.539062 207.320312 180.324219 207.59375 C 180.117188 207.863281 180.042969 208.207031 180.125 208.539062 C 181.410156 213.691406 183.347656 217.941406 184.75 220.597656 C 185.710938 222.421875 187.582031 223.554688 189.640625 223.554688 L 192.691406 223.554688 C 194.75 223.554688 196.625 222.421875 197.582031 220.597656 C 198.984375 217.941406 200.925781 213.691406 202.207031 208.539062 C 202.292969 208.207031 202.21875 207.863281 202.003906 207.59375 C 201.792969 207.320312 201.472656 207.164062 201.125 207.164062 Z M 192.691406 224.722656 L 189.640625 224.722656 C 187.148438 224.722656 184.878906 223.351562 183.714844 221.144531 C 182.285156 218.429688 180.304688 214.085938 178.992188 208.820312 C 178.824219 208.140625 178.972656 207.429688 179.40625 206.875 C 179.84375 206.316406 180.5 205.996094 181.207031 205.996094 L 201.125 205.996094 C 201.835938 205.996094 202.488281 206.316406 202.925781 206.875 C 203.359375 207.429688 203.511719 208.140625 203.339844 208.820312 C 202.027344 214.085938 200.046875 218.429688 198.613281 221.144531 C 197.453125 223.351562 195.183594 224.722656 192.691406 224.722656 " fill-opacity="1" fill-rule="nonzero"/><path fill="#0c2840" d="M 187.746094 156.445312 C 187.8125 153.054688 187.375 147.800781 184.429688 142.5625 C 178.296875 131.664062 164.898438 127.257812 163.574219 129.011719 C 162.613281 130.289062 167.503906 135.523438 176.507812 145.171875 C 181.050781 150.039062 185.003906 153.871094 187.746094 156.445312 " fill-opacity="1" fill-rule="nonzero"/><path fill="#0c2840" d="M 189.152344 156.546875 C 188.734375 149.726562 189.285156 144.164062 189.871094 140.371094 C 192.070312 125.988281 197.492188 118.621094 198.71875 117.015625 C 199.617188 115.835938 204.007812 110.082031 205.894531 110.964844 C 207.519531 111.722656 206.574219 117.050781 205.117188 124.96875 C 203.765625 132.3125 203.089844 135.984375 201.695312 139.4375 C 200.144531 143.273438 196.742188 150.015625 189.152344 156.546875 " fill-opacity="1" fill-rule="nonzero"/><path fill="#0c2840" d="M 187.792969 157.980469 C 185.984375 156.25 181.320312 152.296875 175.085938 152.507812 C 172.191406 152.601562 168.574219 153.613281 168.550781 154.699219 C 168.519531 156.144531 174.855469 157.488281 178.667969 157.953125 C 182.457031 158.410156 185.636719 158.226562 187.792969 157.980469 " fill-opacity="1" fill-rule="nonzero"/><path fill="#0c2840" d="M 190.800781 161.0625 C 191.632812 162.371094 192.816406 164.109375 194.382812 166.042969 C 195.136719 166.976562 197.375 169.71875 199.980469 171.953125 C 204.039062 175.433594 210.867188 179.296875 212.277344 177.820312 C 213.628906 176.40625 210.367188 169.675781 205.160156 166.292969 C 203.445312 165.179688 201.671875 164.53125 198.582031 163.398438 C 195.425781 162.242188 192.722656 161.515625 190.800781 161.0625 " fill-opacity="1" fill-rule="nonzero"/><path fill="#0c2840" d="M 192.183594 204.390625 C 192.167969 204.390625 192.148438 204.390625 192.128906 204.390625 C 191.808594 204.355469 191.574219 204.074219 191.605469 203.753906 C 194.191406 176.738281 188.511719 160.222656 188.457031 160.058594 C 188.347656 159.753906 188.507812 159.421875 188.8125 159.3125 C 189.117188 159.207031 189.449219 159.367188 189.554688 159.671875 C 189.613281 159.835938 195.378906 176.570312 192.765625 203.863281 C 192.738281 204.164062 192.484375 204.390625 192.183594 204.390625 " fill-opacity="1" fill-rule="nonzero"/><path fill="#0c2840" d="M 188.273438 204.390625 C 188.265625 204.390625 188.261719 204.390625 188.253906 204.390625 C 187.933594 204.382812 187.679688 204.113281 187.6875 203.789062 C 187.695312 203.539062 188.316406 178.574219 179.917969 166.582031 C 179.734375 166.320312 179.796875 165.953125 180.0625 165.769531 C 180.324219 165.582031 180.691406 165.648438 180.875 165.914062 C 189.496094 178.222656 188.886719 202.785156 188.855469 203.824219 C 188.847656 204.140625 188.585938 204.390625 188.273438 204.390625 " fill-opacity="1" fill-rule="nonzero"/><path fill="#19598f" d="M 179.699219 170.796875 C 180.246094 171.382812 182.703125 174.125 182.691406 178.363281 C 182.679688 182.539062 180.277344 186.511719 179.289062 186.269531 C 178.457031 186.066406 178.121094 182.765625 179.699219 170.796875 " fill-opacity="1" fill-rule="nonzero"/><path fill="#19598f" d="M 177.855469 169.285156 C 175.34375 172.285156 171.339844 176.351562 165.515625 179.71875 C 159.070312 183.4375 150.367188 186.3125 149.355469 184.617188 C 148.527344 183.226562 153.019531 179.042969 155.308594 177.183594 C 158.664062 174.453125 165.710938 169.871094 177.855469 169.285156 " fill-opacity="1" fill-rule="nonzero"/><path fill="#19598f" d="M 177.1875 166.773438 C 174.71875 163.863281 170.605469 159.867188 164.511719 157.171875 C 151.53125 151.425781 136.625 154.703125 136.386719 157.183594 C 136.257812 158.515625 140.457031 158.542969 152.179688 163.9375 C 159.980469 167.527344 163.089844 169.800781 168.378906 169.53125 C 172.167969 169.339844 175.207031 167.9375 177.1875 166.773438 " fill-opacity="1" fill-rule="nonzero"/><path fill="#19598f" d="M 180.605469 164.660156 C 183.671875 161.621094 188.957031 157.300781 196.539062 155.234375 C 201.304688 153.933594 208.871094 153.011719 209.628906 154.996094 C 210.445312 157.125 203.46875 162.726562 195.976562 164.832031 C 189.585938 166.628906 183.898438 165.582031 180.605469 164.660156 " fill-opacity="1" fill-rule="nonzero"/><path fill="#0c2840" d="M 246.824219 268.621094 L 251.777344 268.621094 L 246.761719 247.988281 L 238.203125 247.988281 L 246.824219 268.621094 " fill-opacity="1" fill-rule="nonzero"/><path fill="#0c2840" d="M 270.628906 268.621094 L 275.582031 268.621094 L 270.5625 247.988281 L 262.007812 247.988281 L 270.628906 268.621094 " fill-opacity="1" fill-rule="nonzero"/><path fill="#0c2840" d="M 204.320312 268.621094 L 199.363281 268.621094 L 204.382812 247.988281 L 212.941406 247.988281 L 204.320312 268.621094 " fill-opacity="1" fill-rule="nonzero"/><path fill="#0c2840" d="M 180.277344 268.621094 L 175.320312 268.621094 L 180.339844 247.988281 L 188.898438 247.988281 L 180.277344 268.621094 " fill-opacity="1" fill-rule="nonzero"/><path fill="#ffffff" d="M 197.644531 249.507812 L 268.851562 249.507812 C 273.792969 249.507812 278.117188 246.179688 279.382812 241.40625 L 290.511719 199.777344 C 292.351562 192.855469 287.375 186.074219 280.214844 186.074219 L 208.769531 186.074219 C 203.832031 186.074219 199.507812 189.398438 198.234375 194.175781 L 187.109375 235.804688 C 185.273438 242.722656 190.488281 249.507812 197.644531 249.507812 " fill-opacity="1" fill-rule="nonzero"/><path fill="#0c2840" d="M 208.769531 186.660156 C 204.101562 186.660156 200 189.8125 198.800781 194.328125 L 187.671875 235.957031 C 186.84375 239.074219 187.5 242.335938 189.46875 244.894531 C 191.4375 247.453125 194.417969 248.921875 197.644531 248.921875 L 268.851562 248.921875 C 273.519531 248.921875 277.621094 245.769531 278.820312 241.253906 L 289.949219 199.625 C 290.796875 196.429688 290.152344 193.125 288.179688 190.558594 C 286.273438 188.082031 283.371094 186.660156 280.214844 186.660156 Z M 268.851562 250.089844 L 197.644531 250.089844 C 194.050781 250.089844 190.734375 248.457031 188.539062 245.605469 C 186.347656 242.757812 185.625 239.128906 186.546875 235.65625 L 197.671875 194.023438 C 199.007812 189 203.574219 185.492188 208.769531 185.492188 L 280.214844 185.492188 C 283.734375 185.492188 286.972656 187.078125 289.101562 189.847656 C 291.300781 192.703125 292.019531 196.378906 291.074219 199.925781 L 279.949219 241.554688 C 278.613281 246.582031 274.050781 250.089844 268.851562 250.089844 " fill-opacity="1" fill-rule="nonzero"/><path fill="#0c2840" d="M 268.851562 250.089844 L 263.980469 250.089844 C 263.660156 250.089844 263.398438 249.828125 263.398438 249.507812 C 263.398438 249.183594 263.660156 248.921875 263.980469 248.921875 L 268.851562 248.921875 C 273.519531 248.921875 277.621094 245.769531 278.820312 241.253906 L 289.949219 199.625 C 290.796875 196.429688 290.152344 193.125 288.179688 190.558594 C 286.273438 188.082031 283.371094 186.660156 280.214844 186.660156 L 208.769531 186.660156 C 204.101562 186.660156 200 189.8125 198.800781 194.328125 L 187.671875 235.957031 C 186.84375 239.074219 187.5 242.335938 189.46875 244.894531 C 191.4375 247.453125 194.417969 248.921875 197.644531 248.921875 L 213.8125 248.921875 C 214.136719 248.921875 214.398438 249.183594 214.398438 249.507812 C 214.398438 249.828125 214.136719 250.089844 213.8125 250.089844 L 197.644531 250.089844 C 194.050781 250.089844 190.734375 248.457031 188.539062 245.605469 C 186.347656 242.757812 185.625 239.128906 186.546875 235.65625 L 197.671875 194.023438 C 199.007812 189 203.574219 185.492188 208.769531 185.492188 L 280.214844 185.492188 C 283.734375 185.492188 286.972656 187.078125 289.101562 189.847656 C 291.300781 192.703125 292.019531 196.378906 291.074219 199.925781 L 279.949219 241.554688 C 278.613281 246.582031 274.050781 250.089844 268.851562 250.089844 " fill-opacity="1" fill-rule="nonzero"/><path fill="#0c2840" d="M 217.441406 249.746094 L 178.972656 249.746094 C 175.789062 249.746094 173.003906 247.605469 172.1875 244.53125 L 165.023438 217.570312 C 163.839844 213.117188 167.199219 208.75 171.808594 208.75 L 210.277344 208.75 C 213.457031 208.75 216.242188 210.890625 217.0625 213.964844 L 224.015625 238.25 C 225.199219 242.703125 222.050781 249.746094 217.441406 249.746094 " fill-opacity="1" fill-rule="nonzero"/><path fill="#0c2840" d="M 232.003906 241.363281 L 239.589844 213.921875 C 240.410156 210.847656 243.191406 208.632812 246.375 208.632812 L 264.039062 208.632812 C 266.464844 208.632812 268.59375 207 269.214844 204.652344 L 272.796875 191.191406 C 273.558594 188.320312 276.03125 186.25 278.941406 185.992188 L 280.457031 185.992188 C 287.988281 185.863281 292.199219 192.03125 291.242188 198.5 L 286.304688 217.152344 C 286.273438 217.292969 286.242188 217.433594 286.207031 217.570312 L 279.523438 242.621094 C 278.363281 246.773438 273.785156 250.210938 270 250.210938 L 238.785156 250.210938 C 234.175781 250.210938 230.820312 245.816406 232.003906 241.363281 " fill-opacity="1" fill-rule="nonzero"/><path fill="#ffffff" d="M 171.671875 208.835938 L 177.527344 208.835938 C 180.710938 208.835938 183.496094 211.054688 184.3125 214.128906 L 191.714844 242.121094 L 231.820312 242.121094 L 239.257812 214.128906 C 240.074219 211.054688 242.859375 208.835938 246.039062 208.835938 L 251.898438 208.835938 C 256.507812 208.835938 259.867188 213.175781 258.679688 217.628906 L 251.519531 244.578125 C 250.699219 247.652344 247.914062 249.785156 244.734375 249.785156 L 178.835938 249.785156 C 175.402344 249.546875 172.867188 247.640625 172.050781 244.5625 L 164.886719 217.628906 C 163.703125 213.175781 167.0625 208.835938 171.671875 208.835938 " fill-opacity="1" fill-rule="nonzero"/><path fill="#0c2840" d="M 242.992188 250.488281 L 178.835938 250.488281 C 178.824219 250.488281 178.808594 250.488281 178.792969 250.484375 C 175.101562 250.226562 172.371094 248.09375 171.488281 244.773438 L 164.324219 217.871094 C 163.71875 215.582031 164.191406 213.199219 165.628906 211.335938 C 167.074219 209.453125 169.277344 208.371094 171.671875 208.371094 L 177.527344 208.371094 C 180.957031 208.371094 183.980469 210.726562 184.875 214.101562 L 192.398438 240.699219 L 232.082031 240.699219 L 238.691406 214.109375 C 239.589844 210.726562 242.609375 208.371094 246.039062 208.371094 L 252.703125 208.371094 C 253.023438 208.371094 253.285156 208.632812 253.285156 208.953125 C 253.285156 209.277344 253.023438 209.539062 252.703125 209.539062 L 246.039062 209.539062 C 243.136719 209.539062 240.582031 211.535156 239.820312 214.398438 L 233.105469 241.425781 C 233.039062 241.683594 232.804688 241.867188 232.539062 241.867188 L 191.957031 241.867188 C 191.695312 241.867188 191.464844 241.695312 191.394531 241.441406 L 183.75 214.410156 C 182.988281 211.535156 180.429688 209.539062 177.527344 209.539062 L 171.671875 209.539062 C 169.644531 209.539062 167.777344 210.453125 166.554688 212.046875 C 165.339844 213.625 164.941406 215.636719 165.453125 217.570312 L 172.617188 244.472656 C 173.363281 247.28125 175.695312 249.09375 178.855469 249.320312 L 242.992188 249.320312 C 243.3125 249.320312 243.574219 249.582031 243.574219 249.902344 C 243.574219 250.226562 243.3125 250.488281 242.992188 250.488281 " fill-opacity="1" fill-rule="nonzero"/><path fill="#0c2840" d="M 196.15625 242.054688 L 234.789062 242.054688 C 237.792969 242.054688 240.226562 239.617188 240.226562 236.613281 L 240.226562 234.769531 C 240.226562 231.765625 237.792969 229.328125 234.789062 229.328125 L 196.15625 229.328125 C 193.152344 229.328125 190.714844 231.765625 190.714844 234.769531 L 190.714844 236.613281 C 190.714844 239.617188 193.152344 242.054688 196.15625 242.054688 " fill-opacity="1" fill-rule="nonzero"/><path fill="#ffffff" d="M 192.425781 242.125 L 230.800781 242.125 C 233.875 242.125 236.367188 239.632812 236.367188 236.558594 L 236.367188 234.671875 C 236.367188 231.597656 233.875 229.105469 230.800781 229.105469 L 192.425781 229.105469 C 189.351562 229.105469 186.859375 231.597656 186.859375 234.671875 L 186.859375 236.558594 C 186.859375 239.632812 189.351562 242.125 192.425781 242.125 " fill-opacity="1" fill-rule="nonzero"/><path fill="#0c2840" d="M 192.425781 229.6875 C 189.675781 229.6875 187.441406 231.925781 187.441406 234.671875 L 187.441406 236.558594 C 187.441406 239.304688 189.675781 241.542969 192.425781 241.542969 L 230.800781 241.542969 C 233.550781 241.542969 235.785156 239.304688 235.785156 236.558594 L 235.785156 234.671875 C 235.785156 231.925781 233.550781 229.6875 230.800781 229.6875 Z M 230.800781 242.707031 L 192.425781 242.707031 C 189.03125 242.707031 186.273438 239.949219 186.273438 236.558594 L 186.273438 234.671875 C 186.273438 231.28125 189.03125 228.519531 192.425781 228.519531 L 230.800781 228.519531 C 234.191406 228.519531 236.953125 231.28125 236.953125 234.671875 L 236.953125 236.558594 C 236.953125 239.949219 234.191406 242.707031 230.800781 242.707031 " fill-opacity="1" fill-rule="nonzero"/><path fill="#000000" d="M 204.195312 242.636719 L 203.757812 242.636719 C 203.4375 242.636719 203.175781 242.375 203.175781 242.054688 C 203.175781 241.730469 203.4375 241.46875 203.757812 241.46875 L 204.195312 241.46875 C 204.519531 241.46875 204.78125 241.730469 204.78125 242.054688 C 204.78125 242.375 204.519531 242.636719 204.195312 242.636719 " fill-opacity="1" fill-rule="nonzero"/><path fill="#0c2840" d="M 190.746094 229.914062 C 188.925781 229.914062 187.441406 231.394531 187.441406 233.21875 L 187.441406 238.164062 C 187.441406 239.988281 188.925781 241.46875 190.746094 241.46875 L 232.480469 241.46875 C 234.300781 241.46875 235.785156 239.988281 235.785156 238.164062 L 235.785156 233.21875 C 235.785156 231.394531 234.300781 229.914062 232.480469 229.914062 Z M 232.480469 242.636719 L 190.746094 242.636719 C 188.28125 242.636719 186.273438 240.632812 186.273438 238.164062 L 186.273438 233.21875 C 186.273438 230.75 188.28125 228.746094 190.746094 228.746094 L 232.480469 228.746094 C 234.945312 228.746094 236.953125 230.75 236.953125 233.21875 L 236.953125 238.164062 C 236.953125 240.632812 234.945312 242.636719 232.480469 242.636719 " fill-opacity="1" fill-rule="nonzero"/><path fill="#ffffff" d="M 258.832031 266.441406 L 254.96875 281.089844 C 254.199219 284.015625 253.996094 287.066406 254.371094 290.070312 L 255.144531 296.253906 L 235.636719 293.074219 L 238.15625 291.214844 C 242.535156 287.992188 245.625 283.316406 246.882812 278.03125 L 250.238281 263.898438 L 258.832031 266.441406 " fill-opacity="1" fill-rule="nonzero"/><path fill="#000000" d="M 237.097656 292.722656 L 254.46875 295.554688 L 253.792969 290.140625 C 253.40625 287.050781 253.613281 283.953125 254.40625 280.941406 L 258.125 266.84375 L 250.664062 264.632812 L 247.449219 278.164062 C 246.164062 283.582031 242.984375 288.382812 238.503906 291.683594 Z M 255.144531 296.839844 C 255.113281 296.839844 255.082031 296.835938 255.050781 296.832031 L 235.539062 293.648438 C 235.308594 293.609375 235.121094 293.4375 235.066406 293.210938 C 235.011719 292.980469 235.097656 292.742188 235.289062 292.601562 L 237.808594 290.746094 C 242.070312 287.605469 245.089844 283.042969 246.3125 277.894531 L 249.671875 263.765625 C 249.707031 263.609375 249.808594 263.476562 249.945312 263.394531 C 250.085938 263.3125 250.25 263.292969 250.40625 263.339844 L 259 265.882812 C 259.300781 265.972656 259.480469 266.285156 259.398438 266.589844 L 255.535156 281.238281 C 254.777344 284.105469 254.582031 287.054688 254.949219 289.996094 L 255.722656 296.183594 C 255.746094 296.367188 255.679688 296.546875 255.550781 296.675781 C 255.4375 296.78125 255.292969 296.839844 255.144531 296.839844 " fill-opacity="1" fill-rule="nonzero"/><path fill="#0c2840" d="M 257.042969 299.28125 C 257.1875 296.695312 257.226562 291.546875 255.539062 288.320312 C 255.238281 287.746094 254.546875 287.496094 253.945312 287.738281 L 249.480469 289.523438 C 248.789062 289.800781 248.035156 289.289062 248.035156 288.542969 L 248.035156 288.242188 C 248.035156 287.804688 247.695312 287.449219 247.261719 287.425781 L 243.417969 287.226562 C 241.984375 287.152344 240.550781 287.421875 239.242188 288.007812 C 235.265625 289.792969 226.820312 294.003906 224.800781 298.40625 C 224.34375 299.40625 225.089844 300.546875 226.1875 300.597656 C 229.671875 300.753906 238.492188 301.03125 255.359375 300.886719 C 256.257812 300.878906 256.992188 300.175781 257.042969 299.28125 " fill-opacity="1" fill-rule="nonzero"/><path fill="#000000" d="M 242.957031 287.796875 C 241.765625 287.796875 240.574219 288.054688 239.480469 288.542969 C 235.878906 290.15625 227.292969 294.375 225.332031 298.648438 C 225.203125 298.929688 225.222656 299.25 225.390625 299.527344 C 225.566406 299.816406 225.875 300 226.214844 300.015625 C 229.972656 300.183594 238.753906 300.445312 255.351562 300.304688 C 255.941406 300.296875 256.425781 299.835938 256.460938 299.246094 C 256.613281 296.585938 256.625 291.660156 255.023438 288.589844 C 254.859375 288.28125 254.492188 288.148438 254.160156 288.277344 L 249.695312 290.066406 C 249.191406 290.269531 248.621094 290.207031 248.171875 289.902344 C 247.71875 289.59375 247.453125 289.089844 247.453125 288.542969 L 247.453125 288.242188 C 247.453125 288.117188 247.355469 288.015625 247.234375 288.011719 L 243.386719 287.808594 C 243.246094 287.800781 243.101562 287.796875 242.957031 287.796875 Z M 246.304688 301.511719 C 235.414062 301.511719 229.175781 301.316406 226.160156 301.179688 C 225.4375 301.148438 224.773438 300.757812 224.394531 300.132812 C 224.027344 299.53125 223.980469 298.792969 224.273438 298.160156 C 226.320312 293.691406 234.382812 289.550781 239.003906 287.476562 C 240.398438 286.855469 241.933594 286.566406 243.449219 286.644531 L 247.292969 286.84375 C 248.035156 286.882812 248.617188 287.496094 248.617188 288.242188 L 248.617188 288.542969 C 248.617188 288.703125 248.691406 288.84375 248.824219 288.933594 C 248.957031 289.023438 249.113281 289.042969 249.261719 288.984375 L 253.726562 287.195312 C 254.613281 286.839844 255.617188 287.207031 256.058594 288.046875 C 257.789062 291.367188 257.785156 296.53125 257.625 299.316406 C 257.558594 300.511719 256.5625 301.460938 255.363281 301.472656 C 252.039062 301.5 249.023438 301.511719 246.304688 301.511719 " fill-opacity="1" fill-rule="nonzero"/><path fill="#000000" d="M 241.363281 298.542969 C 233.265625 298.542969 229.390625 298.105469 229.339844 298.097656 C 229.019531 298.0625 228.789062 297.769531 228.828125 297.453125 C 228.867188 297.132812 229.160156 296.902344 229.472656 296.9375 C 229.550781 296.949219 237.390625 297.828125 254.234375 297.0625 C 254.5625 297.046875 254.828125 297.296875 254.839844 297.617188 C 254.855469 297.9375 254.605469 298.210938 254.285156 298.226562 C 249.167969 298.460938 244.867188 298.542969 241.363281 298.542969 " fill-opacity="1" fill-rule="nonzero"/><path fill="#000000" d="M 236.972656 294.394531 C 236.785156 294.394531 236.597656 294.304688 236.488281 294.132812 C 236.308594 293.863281 236.386719 293.5 236.65625 293.324219 L 243.292969 288.972656 C 243.5625 288.792969 243.925781 288.871094 244.101562 289.136719 C 244.277344 289.40625 244.203125 289.769531 243.933594 289.945312 L 237.292969 294.300781 C 237.195312 294.363281 237.085938 294.394531 236.972656 294.394531 " fill-opacity="1" fill-rule="nonzero"/><path fill="#ffffff" d="M 298.371094 268.917969 L 300.730469 285.480469 L 306.699219 285.480469 L 306.121094 269.191406 L 298.371094 268.917969 " fill-opacity="1" fill-rule="nonzero"/><path fill="#000000" d="M 301.234375 284.894531 L 306.097656 284.894531 L 305.554688 269.753906 L 299.046875 269.527344 Z M 306.699219 286.0625 L 300.730469 286.0625 C 300.4375 286.0625 300.195312 285.847656 300.152344 285.558594 L 297.792969 269 C 297.769531 268.828125 297.820312 268.65625 297.9375 268.527344 C 298.050781 268.398438 298.222656 268.332031 298.390625 268.335938 L 306.140625 268.609375 C 306.445312 268.617188 306.691406 268.863281 306.703125 269.167969 L 307.285156 285.457031 C 307.289062 285.617188 307.230469 285.769531 307.121094 285.882812 C 307.011719 286 306.859375 286.0625 306.699219 286.0625 " fill-opacity="1" fill-rule="nonzero"/><path fill="#0c2840" d="M 300.957031 300.890625 C 303.402344 301.152344 306.828125 301.777344 312.058594 300.941406 C 313.589844 300.695312 314.550781 299.15625 314.136719 297.664062 C 313.027344 293.730469 310.710938 286.472656 307.78125 282.667969 C 307.570312 282.390625 307.136719 282.46875 307.023438 282.796875 L 306.917969 283.480469 C 306.855469 283.890625 306.296875 283.972656 306.121094 283.597656 L 305.476562 282.230469 C 305.324219 281.976562 305.0625 281.8125 304.765625 281.785156 L 302.5 281.699219 C 302.019531 281.652344 301.585938 281.984375 301.503906 282.460938 L 301.425781 283.539062 C 301.394531 283.957031 300.835938 284.078125 300.636719 283.707031 L 299.660156 282.703125 C 299.460938 282.433594 299.035156 282.582031 299.042969 282.917969 L 299.160156 287.21875 C 299.246094 290.328125 299.019531 293.4375 298.484375 296.503906 L 298.21875 298.042969 C 298.078125 299.464844 299.539062 300.738281 300.957031 300.890625 " fill-opacity="1" fill-rule="nonzero"/><path fill="#000000" d="M 298.796875 298.121094 C 298.707031 299.195312 299.933594 300.195312 301.019531 300.3125 C 301.332031 300.34375 301.660156 300.382812 302.007812 300.425781 C 304.316406 300.703125 307.480469 301.082031 311.96875 300.363281 C 312.53125 300.273438 313.015625 299.957031 313.328125 299.46875 C 313.640625 298.980469 313.730469 298.378906 313.570312 297.824219 C 312.496094 293.992188 310.296875 287.097656 307.535156 283.308594 L 307.496094 283.570312 C 307.429688 284.007812 307.085938 284.347656 306.648438 284.410156 C 306.210938 284.476562 305.785156 284.246094 305.59375 283.847656 L 304.964844 282.511719 C 304.90625 282.429688 304.816406 282.375 304.714844 282.367188 L 302.476562 282.28125 C 302.273438 282.261719 302.121094 282.375 302.082031 282.539062 L 302.007812 283.578125 C 301.972656 284.027344 301.65625 284.394531 301.214844 284.488281 C 300.808594 284.578125 300.402344 284.410156 300.175781 284.066406 L 299.644531 283.523438 L 299.742188 287.203125 C 299.828125 290.34375 299.597656 293.507812 299.0625 296.601562 Z M 306.914062 301.945312 C 304.878906 301.945312 303.230469 301.746094 301.871094 301.582031 C 301.527344 301.542969 301.203125 301.503906 300.894531 301.472656 C 299.214844 301.289062 297.464844 299.761719 297.636719 297.988281 L 297.644531 297.945312 L 297.910156 296.402344 C 298.433594 293.382812 298.660156 290.296875 298.578125 287.234375 L 298.460938 282.929688 C 298.449219 282.523438 298.699219 282.164062 299.082031 282.03125 C 299.453125 281.90625 299.855469 282.023438 300.097656 282.320312 L 300.871094 283.113281 L 300.925781 282.359375 C 301.0625 281.589844 301.777344 281.042969 302.554688 281.117188 L 304.789062 281.203125 C 305.300781 281.246094 305.730469 281.519531 305.976562 281.929688 L 306.003906 281.980469 L 306.421875 282.863281 L 306.46875 282.609375 C 306.589844 282.25 306.898438 281.992188 307.273438 281.929688 C 307.640625 281.867188 308.015625 282.015625 308.246094 282.3125 C 311.226562 286.183594 313.566406 293.496094 314.695312 297.507812 C 314.941406 298.386719 314.800781 299.328125 314.3125 300.097656 C 313.824219 300.859375 313.039062 301.375 312.152344 301.515625 C 310.164062 301.835938 308.429688 301.945312 306.914062 301.945312 " fill-opacity="1" fill-rule="nonzero"/><path fill="#000000" d="M 306.046875 298.867188 C 303.097656 298.867188 301.269531 298.1875 301.15625 298.144531 C 300.855469 298.027344 300.703125 297.691406 300.820312 297.390625 C 300.933594 297.089844 301.269531 296.9375 301.570312 297.050781 C 301.609375 297.066406 305.496094 298.492188 311.050781 297.035156 C 311.363281 296.949219 311.683594 297.136719 311.765625 297.449219 C 311.847656 297.761719 311.660156 298.078125 311.351562 298.160156 C 309.34375 298.6875 307.550781 298.867188 306.046875 298.867188 " fill-opacity="1" fill-rule="nonzero"/><path fill="#000000" d="M 308.820312 292.8125 L 303.34375 292.8125 C 303.019531 292.8125 302.761719 292.550781 302.761719 292.226562 C 302.761719 291.902344 303.019531 291.644531 303.34375 291.644531 L 308.820312 291.644531 C 309.140625 291.644531 309.402344 291.902344 309.402344 292.226562 C 309.402344 292.550781 309.140625 292.8125 308.820312 292.8125 " fill-opacity="1" fill-rule="nonzero"/><path fill="#000000" d="M 259.8125 159.945312 C 259.8125 159.945312 251.980469 210.519531 251.671875 222.59375 C 251.359375 234.667969 246.335938 271.210938 246.335938 271.210938 C 246.335938 271.210938 252.789062 273.605469 260.160156 271.929688 C 260.160156 271.929688 283.269531 207.21875 284.996094 187.382812 C 286.722656 167.542969 280.949219 158.460938 280.949219 158.460938 L 259.8125 159.945312 " fill-opacity="1" fill-rule="nonzero"/><path fill="#000000" d="M 267.46875 156.800781 C 267.46875 156.800781 294.007812 237.835938 294.441406 270.777344 C 294.441406 270.777344 300.289062 272.148438 308.695312 270.777344 C 308.695312 270.777344 314.085938 180.335938 298.550781 155 L 267.46875 156.800781 " fill-opacity="1" fill-rule="nonzero"/><path fill="#000000" d="M 275.019531 87.414062 C 276.6875 97.011719 286.4375 107.316406 296.238281 105.953125 C 297.839844 105.734375 302.160156 104.820312 306.695312 99.570312 C 312.949219 104.042969 320.917969 102.859375 325.21875 97.664062 C 330.46875 91.316406 329.75 79.574219 322.101562 73.546875 C 328.164062 73.496094 329.792969 71.164062 330.273438 70.246094 C 333.113281 64.835938 325.617188 52.171875 318.625 52.152344 C 316.042969 52.144531 312.617188 55.335938 305.871094 61.714844 C 298.90625 68.304688 298.609375 69.582031 296.5 69.8125 C 290.300781 70.484375 288.449219 59.921875 280.226562 58.753906 C 274.597656 57.953125 268.3125 61.886719 267.835938 65.601562 C 267.429688 68.789062 271.542969 69.914062 273.859375 76.28125 C 275.585938 81.019531 274.25 83 275.019531 87.414062 " fill-opacity="1" fill-rule="nonzero"/><path fill="#000000" d="M 283.171875 55.179688 C 282.691406 56.648438 283.171875 60.808594 285.378906 61.53125 C 287.585938 62.25 290.6875 59.257812 291.167969 57.789062 C 291.648438 56.320312 290.246094 54.546875 288.039062 53.824219 C 285.828125 53.105469 283.652344 53.710938 283.171875 55.179688 " fill-opacity="1" fill-rule="nonzero"/><path fill="#ffffff" d="M 256.523438 160.570312 C 256.523438 160.570312 254.066406 176.988281 257.070312 180.136719 C 257.070312 180.136719 266.898438 169.367188 267.367188 161.59375 L 256.523438 160.570312 " fill-opacity="1" fill-rule="nonzero"/><path fill="#000000" d="M 257.019531 161.203125 C 256.382812 165.757812 255.40625 176.027344 257.117188 179.199219 C 259.019531 177 265.980469 168.566406 266.734375 162.121094 Z M 257.070312 180.71875 C 256.910156 180.71875 256.757812 180.652344 256.648438 180.539062 C 253.535156 177.277344 255.691406 162.195312 255.945312 160.484375 C 255.992188 160.179688 256.273438 159.960938 256.578125 159.992188 L 267.421875 161.011719 C 267.734375 161.042969 267.96875 161.3125 267.949219 161.628906 C 267.476562 169.519531 257.910156 180.082031 257.5 180.527344 C 257.394531 180.648438 257.242188 180.71875 257.078125 180.71875 C 257.078125 180.71875 257.074219 180.71875 257.070312 180.71875 " fill-opacity="1" fill-rule="nonzero"/><path fill="#ffffff" d="M 270.15625 160.738281 C 270.15625 160.738281 273.21875 173.984375 276.851562 177.285156 C 280.480469 180.589844 290.402344 165.820312 295.921875 165.503906 C 301.441406 165.1875 307.519531 178.507812 307.519531 178.507812 C 307.519531 178.507812 305.980469 161.871094 301.433594 158.347656 L 270.15625 160.738281 " fill-opacity="1" fill-rule="nonzero"/><path fill="#000000" d="M 270.886719 161.269531 C 271.554688 163.96875 274.238281 174.121094 277.242188 176.855469 C 278.816406 178.285156 282.730469 174.675781 286.1875 171.492188 C 289.609375 168.339844 293.148438 165.078125 295.890625 164.921875 C 300.078125 164.6875 304.339844 171.289062 306.539062 175.300781 C 305.855469 170.425781 304.234375 161.542969 301.246094 158.949219 Z M 307.519531 179.09375 C 307.292969 179.09375 307.082031 178.964844 306.988281 178.753906 C 305.34375 175.148438 300.136719 165.851562 295.957031 166.085938 C 293.632812 166.21875 290.25 169.335938 286.976562 172.351562 C 282.78125 176.214844 278.820312 179.867188 276.457031 177.71875 C 272.734375 174.332031 269.714844 161.417969 269.589844 160.871094 C 269.550781 160.703125 269.585938 160.53125 269.683594 160.394531 C 269.785156 160.253906 269.941406 160.167969 270.113281 160.15625 L 301.390625 157.765625 C 301.535156 157.753906 301.675781 157.796875 301.792969 157.886719 C 306.484375 161.523438 308.035156 177.765625 308.101562 178.457031 C 308.125 178.738281 307.941406 179 307.667969 179.074219 C 307.617188 179.085938 307.570312 179.09375 307.519531 179.09375 " fill-opacity="1" fill-rule="nonzero"/><path fill="#ffffff" d="M 221.023438 81.613281 L 215.96875 76.347656 C 215.113281 75.453125 213.667969 76.457031 214.207031 77.574219 L 215.761719 80.785156 C 215.761719 80.785156 214.699219 81.277344 214.175781 81.3125 C 213.023438 81.386719 211.90625 80.890625 211.109375 80.054688 C 210.1875 79.089844 208.691406 77.554688 208.1875 77.175781 C 207.4375 76.617188 206.472656 75.75 205.398438 75.664062 L 205.367188 75.660156 C 204.246094 75.578125 203.515625 76.8125 204.125 77.753906 L 206.234375 81.019531 C 207.769531 83.390625 210.019531 85.210938 212.65625 86.210938 L 219.488281 88.800781 L 219.992188 108.273438 L 228.863281 101.496094 L 224.878906 88.617188 C 224.085938 86.046875 222.773438 83.660156 221.023438 81.613281 " fill-opacity="1" fill-rule="nonzero"/><path fill="#000000" d="M 205.28125 76.242188 C 204.984375 76.242188 204.738281 76.378906 204.597656 76.621094 C 204.445312 76.878906 204.449219 77.183594 204.613281 77.4375 L 206.726562 80.703125 C 208.199219 82.988281 210.324219 84.699219 212.867188 85.664062 L 219.695312 88.257812 C 219.914062 88.339844 220.0625 88.546875 220.070312 88.785156 L 220.546875 107.117188 L 228.1875 101.28125 L 224.324219 88.789062 C 223.546875 86.285156 222.289062 84 220.589844 82.007812 L 215.546875 76.75 C 215.273438 76.460938 214.980469 76.628906 214.898438 76.683594 C 214.816406 76.742188 214.558594 76.957031 214.730469 77.320312 L 216.285156 80.527344 C 216.355469 80.671875 216.363281 80.832031 216.3125 80.980469 C 216.257812 81.128906 216.148438 81.246094 216.007812 81.3125 C 215.8125 81.402344 214.816406 81.855469 214.210938 81.894531 C 212.925781 81.972656 211.636719 81.453125 210.6875 80.457031 C 209.226562 78.929688 208.1875 77.90625 207.839844 77.644531 C 207.730469 77.566406 207.621094 77.480469 207.507812 77.390625 C 206.847656 76.882812 206.101562 76.304688 205.351562 76.246094 C 205.328125 76.242188 205.304688 76.242188 205.28125 76.242188 Z M 219.992188 108.859375 C 219.90625 108.859375 219.824219 108.839844 219.742188 108.800781 C 219.542969 108.707031 219.417969 108.507812 219.410156 108.289062 L 218.914062 89.207031 L 212.449219 86.757812 C 209.675781 85.703125 207.359375 83.828125 205.746094 81.335938 L 203.632812 78.070312 C 203.230469 77.449219 203.214844 76.664062 203.59375 76.023438 C 203.972656 75.386719 204.667969 75.023438 205.410156 75.078125 C 206.542969 75.171875 207.46875 75.890625 208.21875 76.464844 C 208.328125 76.554688 208.4375 76.632812 208.539062 76.710938 C 209.054688 77.097656 210.449219 78.523438 211.53125 79.652344 C 212.242188 80.398438 213.195312 80.789062 214.136719 80.726562 C 214.3125 80.714844 214.644531 80.609375 214.96875 80.484375 L 213.683594 77.828125 C 213.316406 77.070312 213.539062 76.207031 214.230469 75.726562 C 214.921875 75.246094 215.808594 75.335938 216.390625 75.941406 L 221.445312 81.210938 C 221.449219 81.21875 221.457031 81.226562 221.464844 81.234375 C 223.277344 83.355469 224.613281 85.78125 225.4375 88.445312 L 229.421875 101.324219 C 229.492188 101.558594 229.414062 101.8125 229.21875 101.960938 L 220.347656 108.738281 C 220.246094 108.816406 220.121094 108.859375 219.992188 108.859375 " fill-opacity="1" fill-rule="nonzero"/><path fill="#ffffff" d="M 230.667969 97.386719 L 208.542969 114.914062 L 218.402344 125.140625 L 237.171875 109.507812 L 230.667969 97.386719 " fill-opacity="1" fill-rule="nonzero"/><path fill="#000000" d="M 209.40625 114.972656 L 218.445312 124.347656 L 236.429688 109.363281 L 230.484375 98.273438 Z M 218.402344 125.722656 C 218.25 125.722656 218.097656 125.664062 217.984375 125.546875 L 208.121094 115.320312 C 208.007812 115.203125 207.949219 115.042969 207.960938 114.878906 C 207.96875 114.714844 208.050781 114.5625 208.179688 114.460938 L 230.304688 96.925781 C 230.441406 96.820312 230.617188 96.777344 230.785156 96.8125 C 230.953125 96.847656 231.097656 96.957031 231.179688 97.109375 L 237.6875 109.230469 C 237.816406 109.476562 237.757812 109.777344 237.542969 109.957031 L 218.777344 125.589844 C 218.667969 125.679688 218.535156 125.722656 218.402344 125.722656 " fill-opacity="1" fill-rule="nonzero"/><path fill="#ffffff" d="M 210.851562 122.757812 L 236.257812 103.15625 C 236.257812 103.15625 239.039062 107.386719 243.59375 107.84375 C 248.152344 108.296875 260.03125 95.996094 260.03125 95.996094 L 260.402344 124.042969 C 260.402344 124.042969 242.253906 147.484375 210.851562 122.757812 " fill-opacity="1" fill-rule="nonzero"/><path fill="#ffffff" d="M 268.3125 92.28125 C 273.433594 91.238281 279.082031 88.785156 293.210938 94.046875 C 293.210938 94.046875 300.113281 97.96875 300.550781 103.683594 C 301.03125 109.910156 296.601562 121.183594 298.175781 129.449219 C 301.0625 144.570312 304.371094 149.515625 306.023438 161.914062 C 306.023438 161.914062 300.304688 160.570312 296.152344 160.839844 L 257.023438 162.335938 C 254.414062 162.4375 252.148438 160.515625 251.855469 157.917969 C 251.445312 154.285156 251.4375 147.847656 252.9375 136.558594 C 253.707031 130.785156 253.359375 111.6875 257.457031 99.9375 C 258.625 96.59375 264.839844 92.988281 268.3125 92.28125 " fill-opacity="1" fill-rule="nonzero"/><path fill="#ffffff" d="M 307.878906 125.011719 L 302.144531 136.640625 L 319.699219 150.660156 C 319.699219 150.660156 325.875 137.785156 326.480469 133.515625 L 307.878906 125.011719 " fill-opacity="1" fill-rule="nonzero"/><path fill="#000000" d="M 302.878906 136.476562 L 319.488281 149.742188 C 320.703125 147.164062 325.054688 137.753906 325.832031 133.859375 L 308.152344 125.777344 Z M 319.699219 151.242188 C 319.570312 151.242188 319.441406 151.199219 319.335938 151.113281 L 301.78125 137.09375 C 301.570312 136.925781 301.503906 136.628906 301.625 136.382812 L 307.355469 124.753906 C 307.496094 124.472656 307.835938 124.351562 308.121094 124.484375 L 326.722656 132.984375 C 326.957031 133.089844 327.09375 133.339844 327.058594 133.597656 C 326.445312 137.90625 320.480469 150.382812 320.226562 150.910156 C 320.148438 151.074219 320 151.1875 319.828125 151.226562 C 319.785156 151.238281 319.742188 151.242188 319.699219 151.242188 " fill-opacity="1" fill-rule="nonzero"/><path fill="#ffffff" d="M 290.683594 111.542969 L 302.566406 117.90625 C 305.066406 119.242188 306.144531 122.257812 305.058594 124.878906 L 304.703125 125.738281 L 328.449219 137.207031 C 328.449219 137.207031 331.980469 126.359375 328.3125 115.089844 C 322.003906 95.742188 281.703125 91.375 281.703125 91.375 L 290.683594 111.542969 " fill-opacity="1" fill-rule="nonzero"/><path fill="#000000" d="M 253.398438 129.335938 C 253.503906 129.335938 253.605469 129.363281 253.699219 129.417969 C 253.882812 129.53125 253.992188 129.734375 253.980469 129.949219 C 253.832031 132.941406 253.710938 135.175781 253.515625 136.636719 C 251.964844 148.316406 252.070312 154.621094 252.433594 157.851562 C 252.691406 160.128906 254.699219 161.84375 257 161.753906 L 296.128906 160.257812 C 299.410156 160.042969 303.582031 160.804688 305.332031 161.167969 C 304.464844 155.109375 303.210938 150.902344 301.761719 146.0625 C 300.453125 141.683594 298.96875 136.714844 297.605469 129.558594 C 296.816406 125.417969 297.496094 120.523438 298.351562 115.851562 C 298.382812 115.667969 298.503906 115.511719 298.671875 115.429688 C 298.839844 115.347656 299.035156 115.355469 299.199219 115.441406 L 302.839844 117.390625 C 305.617188 118.875 306.804688 122.195312 305.597656 125.105469 L 305.453125 125.453125 L 328.078125 136.378906 C 328.746094 133.902344 330.820312 124.675781 327.753906 115.273438 C 322.871094 100.285156 297.003906 94.425781 286.113281 92.601562 C 284.636719 92.304688 283.179688 92.09375 281.761719 91.96875 L 281.691406 91.960938 C 281.679688 91.960938 281.667969 91.957031 281.65625 91.957031 C 275.046875 91.398438 272.277344 92.007812 269.339844 92.652344 C 268.875 92.753906 268.410156 92.859375 267.921875 92.957031 C 265.804688 93.386719 261.101562 95.511719 259.734375 97.121094 C 259.722656 97.132812 259.714844 97.144531 259.703125 97.15625 C 256.261719 100.59375 247.953125 108.433594 243.832031 108.4375 C 243.730469 108.4375 243.632812 108.429688 243.539062 108.421875 C 239.683594 108.035156 237.070312 105.167969 236.140625 103.980469 L 211.804688 122.761719 C 230.738281 137.386719 244.695312 134.476562 253.097656 129.417969 C 253.191406 129.363281 253.296875 129.335938 253.398438 129.335938 Z M 256.832031 162.921875 C 254.011719 162.921875 251.59375 160.792969 251.273438 157.984375 C 250.734375 153.1875 251.097656 145.953125 252.359375 136.480469 C 252.523438 135.242188 252.636719 133.394531 252.761719 130.960938 C 247.777344 133.734375 242.335938 134.960938 236.574219 134.617188 C 228.242188 134.117188 219.464844 130.28125 210.492188 123.21875 C 210.351562 123.105469 210.265625 122.9375 210.269531 122.753906 C 210.269531 122.574219 210.351562 122.40625 210.496094 122.296875 L 235.902344 102.691406 C 236.03125 102.59375 236.191406 102.554688 236.355469 102.578125 C 236.515625 102.605469 236.65625 102.699219 236.746094 102.835938 C 236.773438 102.875 239.4375 106.839844 243.652344 107.261719 C 246.523438 107.554688 253.382812 101.8125 258.859375 96.347656 C 260.414062 94.546875 265.375 92.285156 267.691406 91.8125 C 268.167969 91.714844 268.628906 91.613281 269.089844 91.515625 C 272.105469 90.851562 274.953125 90.226562 281.699219 90.789062 C 281.714844 90.792969 281.746094 90.792969 281.769531 90.792969 L 281.878906 90.808594 C 283.324219 90.933594 284.828125 91.152344 286.324219 91.457031 C 297.40625 93.3125 323.78125 99.316406 328.863281 114.910156 C 332.554688 126.226562 329.148438 136.933594 329.003906 137.386719 C 328.949219 137.546875 328.832031 137.675781 328.675781 137.742188 C 328.523438 137.808594 328.347656 137.804688 328.195312 137.730469 L 304.449219 126.265625 C 304.171875 126.128906 304.046875 125.800781 304.164062 125.515625 L 304.519531 124.660156 C 305.496094 122.304688 304.535156 119.621094 302.289062 118.417969 L 299.359375 116.847656 C 298.59375 121.167969 298.039062 125.613281 298.75 129.339844 C 300.105469 136.441406 301.578125 141.375 302.882812 145.730469 C 304.40625 150.832031 305.722656 155.238281 306.601562 161.839844 C 306.625 162.027344 306.554688 162.21875 306.414062 162.347656 C 306.273438 162.476562 306.078125 162.527344 305.890625 162.480469 C 305.832031 162.46875 300.207031 161.164062 296.191406 161.421875 L 257.046875 162.917969 C 256.972656 162.921875 256.902344 162.921875 256.832031 162.921875 " fill-opacity="1" fill-rule="nonzero"/><path fill="#000000" d="M 253.203125 134.132812 C 253.183594 134.132812 253.164062 134.128906 253.144531 134.128906 C 252.828125 134.097656 252.589844 133.8125 252.621094 133.492188 L 253.101562 128.484375 C 253.316406 125.722656 253.417969 123.144531 253.523438 120.648438 C 253.582031 119.226562 253.640625 117.753906 253.71875 116.28125 L 253.925781 112.433594 C 253.941406 112.109375 254.222656 111.863281 254.542969 111.878906 C 254.863281 111.898438 255.109375 112.171875 255.09375 112.492188 L 254.882812 116.34375 C 254.804688 117.808594 254.742188 119.277344 254.6875 120.695312 C 254.585938 123.203125 254.480469 125.792969 254.261719 128.585938 L 253.78125 133.601562 C 253.753906 133.90625 253.5 134.132812 253.203125 134.132812 " fill-opacity="1" fill-rule="nonzero"/><path fill="#ffffff" d="M 304.25 138.316406 L 297.894531 148.210938 L 294.738281 146.070312 C 292.804688 144.761719 290.441406 144.257812 288.144531 144.671875 C 288.144531 144.671875 284.75 145.121094 283.300781 146.289062 C 279.804688 149.109375 282.902344 150.867188 283.574219 151.21875 C 284.648438 151.789062 286.144531 152.320312 287.738281 152.089844 C 288.671875 151.960938 291.121094 152.277344 293.339844 153.480469 C 295.015625 154.390625 296.972656 156.25 299.632812 155.527344 C 301.90625 154.910156 302.90625 153.570312 302.90625 153.570312 L 311.363281 144 L 304.25 138.316406 " fill-opacity="1" fill-rule="nonzero"/><path fill="#000000" d="M 288.214844 151.480469 C 289.476562 151.480469 291.636719 151.890625 293.617188 152.964844 C 293.972656 153.160156 294.332031 153.386719 294.707031 153.628906 C 296.132812 154.535156 297.605469 155.472656 299.480469 154.964844 C 301.535156 154.40625 302.429688 153.234375 302.4375 153.222656 C 302.449219 153.207031 302.457031 153.195312 302.46875 153.183594 L 310.519531 144.074219 L 304.386719 139.175781 L 298.382812 148.523438 C 298.300781 148.65625 298.164062 148.75 298.011719 148.78125 C 297.859375 148.8125 297.695312 148.78125 297.566406 148.691406 L 294.410156 146.550781 C 292.59375 145.320312 290.40625 144.855469 288.246094 145.242188 C 287.320312 145.367188 284.746094 145.871094 283.664062 146.746094 C 282.976562 147.300781 282.175781 148.132812 282.253906 148.949219 C 282.335938 149.785156 283.285156 150.410156 283.84375 150.703125 C 284.765625 151.191406 286.171875 151.726562 287.65625 151.515625 C 287.8125 151.492188 288.003906 151.480469 288.214844 151.480469 Z M 298.429688 156.273438 C 296.695312 156.273438 295.273438 155.371094 294.082031 154.613281 C 293.722656 154.382812 293.378906 154.167969 293.058594 153.992188 C 290.925781 152.835938 288.59375 152.558594 287.820312 152.671875 C 286.027344 152.925781 284.371094 152.304688 283.300781 151.734375 C 281.976562 151.035156 281.191406 150.085938 281.09375 149.058594 C 280.988281 147.988281 281.609375 146.90625 282.933594 145.835938 C 284.492188 144.578125 287.921875 144.109375 288.066406 144.09375 C 290.5 143.65625 292.996094 144.183594 295.0625 145.585938 L 297.726562 147.390625 L 303.757812 138.003906 C 303.847656 137.863281 303.988281 137.769531 304.152344 137.742188 C 304.316406 137.714844 304.484375 137.757812 304.613281 137.863281 L 311.726562 143.542969 C 311.851562 143.644531 311.929688 143.789062 311.941406 143.949219 C 311.957031 144.109375 311.90625 144.265625 311.800781 144.386719 L 303.355469 153.941406 C 303.199219 154.144531 302.085938 155.464844 299.785156 156.089844 C 299.3125 156.21875 298.863281 156.273438 298.429688 156.273438 " fill-opacity="1" fill-rule="nonzero"/><path fill="#ffffff" d="M 270.359375 80.902344 L 271.878906 93.53125 L 264.015625 95.953125 C 264.015625 95.953125 275.25 103.722656 288.941406 95.890625 L 281.550781 92.730469 L 277.738281 78.078125 L 270.359375 80.902344 " fill-opacity="1" fill-rule="nonzero"/><path fill="#000000" d="M 265.460938 96.121094 C 268.480469 97.707031 277.285156 101.300781 287.605469 95.953125 L 281.320312 93.269531 C 281.15625 93.195312 281.03125 93.054688 280.988281 92.878906 L 277.339844 78.855469 L 270.992188 81.285156 L 272.460938 93.460938 C 272.492188 93.742188 272.320312 94.003906 272.050781 94.085938 Z M 276.382812 99.945312 C 268.890625 99.945312 263.761719 96.488281 263.683594 96.433594 C 263.5 96.308594 263.40625 96.085938 263.4375 95.867188 C 263.476562 95.644531 263.632812 95.460938 263.84375 95.398438 L 271.242188 93.117188 L 269.777344 80.972656 C 269.746094 80.707031 269.902344 80.453125 270.148438 80.355469 L 277.53125 77.53125 C 277.6875 77.472656 277.859375 77.480469 278.007812 77.558594 C 278.15625 77.632812 278.261719 77.769531 278.304688 77.929688 L 282.042969 92.308594 L 289.171875 95.351562 C 289.375 95.4375 289.511719 95.632812 289.523438 95.855469 C 289.535156 96.074219 289.421875 96.285156 289.230469 96.394531 C 284.578125 99.058594 280.175781 99.945312 276.382812 99.945312 " fill-opacity="1" fill-rule="nonzero"/><path fill="#ffffff" d="M 277.910156 81.613281 C 277.910156 81.613281 280.730469 82.679688 281.476562 80.226562 C 282.21875 77.777344 279.785156 77.929688 279.785156 77.929688 C 279.785156 77.929688 282.375 72.558594 278.351562 72.035156 C 274.324219 71.511719 271.386719 70.023438 271.386719 70.023438 C 271.386719 70.023438 268.457031 75.148438 267.519531 79.445312 C 266.953125 82.035156 267.109375 84.324219 269.0625 85.003906 C 274.417969 86.871094 277.910156 81.613281 277.910156 81.613281 " fill-opacity="1" fill-rule="nonzero"/><path fill="#000000" d="M 271.632812 70.78125 C 270.90625 72.132812 268.835938 76.152344 268.085938 79.566406 C 267.484375 82.332031 267.878906 83.972656 269.253906 84.453125 C 274.109375 86.144531 277.292969 81.488281 277.425781 81.289062 C 277.574219 81.066406 277.863281 80.972656 278.113281 81.066406 C 278.144531 81.078125 279.296875 81.492188 280.128906 81.078125 C 280.507812 80.890625 280.765625 80.558594 280.914062 80.058594 C 281.03125 79.679688 281.117188 79.167969 280.886719 78.875 C 280.628906 78.542969 280.03125 78.5 279.820312 78.511719 C 279.617188 78.523438 279.417969 78.425781 279.304688 78.253906 C 279.1875 78.082031 279.171875 77.863281 279.261719 77.679688 C 279.625 76.917969 280.425781 74.683594 279.773438 73.480469 C 279.511719 72.996094 279.019531 72.710938 278.273438 72.613281 C 275.132812 72.207031 272.660156 71.234375 271.632812 70.78125 Z M 271.335938 85.988281 C 270.5625 85.988281 269.742188 85.859375 268.871094 85.554688 C 267.476562 85.070312 266.011719 83.59375 266.949219 79.320312 C 267.898438 74.984375 270.757812 69.945312 270.878906 69.734375 C 271.03125 69.464844 271.371094 69.363281 271.648438 69.503906 C 271.675781 69.519531 274.554688 70.953125 278.425781 71.457031 C 279.550781 71.601562 280.351562 72.097656 280.800781 72.929688 C 281.566406 74.339844 281.019531 76.351562 280.621094 77.433594 C 281.019531 77.53125 281.472656 77.734375 281.800781 78.148438 C 282.238281 78.703125 282.316406 79.457031 282.03125 80.398438 C 281.785156 81.210938 281.316406 81.792969 280.644531 82.128906 C 279.742188 82.570312 278.707031 82.425781 278.132812 82.289062 C 277.355469 83.273438 274.886719 85.988281 271.335938 85.988281 " fill-opacity="1" fill-rule="nonzero"/><path fill="#19598f" d="M 54.164062 182.546875 C 53.203125 185.835938 51.695312 190.382812 53.363281 192.566406 C 56.394531 196.53125 58.910156 195.894531 62.652344 194.53125 C 70.136719 191.804688 82.082031 187.492188 85.570312 189.886719 L 85.726562 182.546875 L 54.164062 182.546875 " fill-opacity="1" fill-rule="nonzero"/><path fill="#000000" d="M 54.601562 183.132812 L 54.527344 183.371094 C 53.648438 186.339844 52.445312 190.40625 53.828125 192.210938 C 56.628906 195.878906 58.820312 195.308594 62.453125 193.984375 C 71.65625 190.628906 80.910156 187.515625 85.007812 188.960938 L 85.128906 183.132812 Z M 58.304688 196.15625 C 56.449219 196.15625 54.742188 195.328125 52.898438 192.917969 C 51.160156 190.644531 52.40625 186.425781 53.410156 183.042969 L 53.601562 182.382812 C 53.675781 182.136719 53.902344 181.964844 54.164062 181.964844 L 85.726562 181.964844 C 85.882812 181.964844 86.03125 182.027344 86.140625 182.140625 C 86.25 182.253906 86.3125 182.402344 86.308594 182.5625 L 86.152344 189.902344 C 86.148438 190.113281 86.027344 190.308594 85.835938 190.40625 C 85.644531 190.507812 85.417969 190.488281 85.238281 190.367188 C 81.957031 188.117188 69.53125 192.644531 62.851562 195.078125 C 61.171875 195.691406 59.699219 196.15625 58.304688 196.15625 " fill-opacity="1" fill-rule="nonzero"/><path fill="#ffffff" d="M 106.089844 298.59375 L 111.941406 325.269531 L 122.097656 325.800781 L 116.492188 296.925781 L 106.089844 298.59375 " fill-opacity="1" fill-rule="nonzero"/><path fill="#000000" d="M 112.417969 324.710938 L 121.382812 325.179688 L 116.027344 297.589844 L 106.792969 299.074219 Z M 122.097656 326.382812 C 122.085938 326.382812 122.078125 326.382812 122.066406 326.382812 L 111.914062 325.851562 C 111.652344 325.839844 111.429688 325.652344 111.371094 325.394531 L 105.523438 298.722656 C 105.488281 298.5625 105.519531 298.398438 105.609375 298.265625 C 105.699219 298.132812 105.839844 298.042969 106 298.019531 L 116.398438 296.347656 C 116.710938 296.296875 117.003906 296.503906 117.066406 296.8125 L 122.667969 325.6875 C 122.703125 325.863281 122.65625 326.046875 122.535156 326.179688 C 122.425781 326.308594 122.265625 326.382812 122.097656 326.382812 " fill-opacity="1" fill-rule="nonzero"/><path fill="#0c2840" d="M 108.40625 322.996094 C 108.109375 325.089844 107.632812 328.96875 107.59375 332.449219 C 107.566406 334.632812 109.207031 336.476562 111.375 336.753906 C 117.503906 337.539062 131.402344 338.398438 143.242188 337.324219 C 144.054688 337.25 145.488281 336.660156 145.886719 334.636719 C 147.226562 327.84375 135.40625 326.179688 122.441406 321.25 C 121.933594 321.058594 121.359375 321.171875 120.96875 321.550781 L 119.570312 322.902344 C 118.175781 324.257812 116.101562 324.640625 114.308594 323.878906 L 110.058594 322.0625 C 109.332031 321.753906 108.515625 322.21875 108.40625 322.996094 " fill-opacity="1" fill-rule="nonzero"/><path fill="#000000" d="M 108.40625 322.996094 L 108.410156 322.996094 Z M 109.589844 322.550781 C 109.484375 322.550781 109.382812 322.578125 109.289062 322.628906 C 109.121094 322.726562 109.007812 322.890625 108.984375 323.078125 C 108.699219 325.089844 108.214844 328.984375 108.175781 332.453125 C 108.152344 334.332031 109.5625 335.929688 111.449219 336.171875 C 117.777344 336.988281 131.457031 337.808594 143.191406 336.742188 C 143.476562 336.71875 144.929688 336.488281 145.3125 334.523438 C 146.242188 329.828125 139.859375 327.734375 131.027344 324.839844 C 128.203125 323.914062 125.285156 322.957031 122.234375 321.796875 C 121.9375 321.683594 121.601562 321.75 121.375 321.96875 L 119.980469 323.320312 C 118.40625 324.84375 116.09375 325.269531 114.078125 324.414062 L 109.828125 322.601562 C 109.75 322.570312 109.667969 322.550781 109.589844 322.550781 Z M 130.90625 338.414062 C 122.941406 338.414062 115.511719 337.871094 111.300781 337.332031 C 108.824219 337.015625 106.980469 334.914062 107.007812 332.441406 C 107.050781 328.90625 107.539062 324.957031 107.828125 322.917969 C 107.90625 322.363281 108.226562 321.890625 108.714844 321.613281 C 109.199219 321.339844 109.773438 321.308594 110.285156 321.527344 L 114.539062 323.339844 C 116.117188 324.011719 117.933594 323.679688 119.167969 322.484375 L 120.566406 321.132812 C 121.113281 320.601562 121.933594 320.433594 122.648438 320.707031 C 125.671875 321.855469 128.582031 322.808594 131.390625 323.730469 C 140.441406 326.699219 147.585938 329.042969 146.460938 334.75 C 146.035156 336.90625 144.492188 337.796875 143.296875 337.90625 C 139.269531 338.269531 135.019531 338.414062 130.90625 338.414062 " fill-opacity="1" fill-rule="nonzero"/><path fill="#ffffff" d="M 107.601562 331.925781 C 107.601562 331.925781 107.59375 332.277344 107.59375 332.449219 C 107.566406 334.632812 109.207031 336.476562 111.375 336.753906 C 117.503906 337.539062 131.402344 338.398438 143.242188 337.324219 C 144.054688 337.25 145.488281 336.660156 145.886719 334.636719 C 146.007812 334.019531 145.933594 332.898438 145.933594 332.898438 L 145.09375 332.941406 C 133.128906 333.53125 121.136719 333.242188 109.214844 332.082031 L 107.601562 331.925781 " fill-opacity="1" fill-rule="nonzero"/><path fill="#000000" d="M 108.175781 332.566406 C 108.210938 334.398438 109.601562 335.9375 111.449219 336.171875 C 117.777344 336.988281 131.457031 337.808594 143.191406 336.742188 C 143.476562 336.71875 144.929688 336.488281 145.3125 334.523438 C 145.367188 334.261719 145.378906 333.855469 145.371094 333.511719 L 145.125 333.523438 C 133.171875 334.113281 121.070312 333.824219 109.160156 332.664062 Z M 130.90625 338.414062 C 122.941406 338.414062 115.511719 337.871094 111.300781 337.332031 C 108.824219 337.015625 106.980469 334.914062 107.007812 332.441406 C 107.011719 332.269531 107.019531 331.914062 107.019531 331.914062 C 107.023438 331.75 107.09375 331.597656 107.214844 331.488281 C 107.335938 331.378906 107.5 331.328125 107.65625 331.34375 L 109.273438 331.5 C 121.128906 332.65625 133.171875 332.945312 145.066406 332.359375 L 145.90625 332.316406 C 146.226562 332.300781 146.496094 332.542969 146.515625 332.859375 C 146.523438 332.980469 146.59375 334.074219 146.460938 334.75 C 146.035156 336.90625 144.492188 337.796875 143.296875 337.90625 C 139.269531 338.269531 135.019531 338.414062 130.90625 338.414062 " fill-opacity="1" fill-rule="nonzero"/><path fill="#000000" d="M 125.414062 329.171875 C 125.265625 329.171875 125.117188 329.113281 125.003906 329 C 124.773438 328.769531 124.773438 328.402344 125.003906 328.175781 L 129.550781 323.628906 C 129.777344 323.398438 130.148438 323.398438 130.375 323.628906 C 130.605469 323.855469 130.605469 324.222656 130.375 324.453125 L 125.828125 329 C 125.714844 329.113281 125.566406 329.171875 125.414062 329.171875 " fill-opacity="1" fill-rule="nonzero"/><path fill="#000000" d="M 129.882812 329.644531 C 129.738281 329.644531 129.589844 329.589844 129.480469 329.480469 C 129.246094 329.257812 129.238281 328.886719 129.460938 328.65625 L 133.097656 324.878906 C 133.320312 324.648438 133.691406 324.640625 133.921875 324.867188 C 134.152344 325.089844 134.160156 325.457031 133.9375 325.691406 L 130.304688 329.464844 C 130.1875 329.582031 130.035156 329.644531 129.882812 329.644531 " fill-opacity="1" fill-rule="nonzero"/><path fill="#ffffff" d="M 60.875 302.160156 L 58.335938 319.957031 L 52.847656 319.957031 L 52.542969 302.453125 L 60.875 302.160156 " fill-opacity="1" fill-rule="nonzero"/><path fill="#000000" d="M 53.421875 319.375 L 57.832031 319.375 L 60.195312 302.765625 L 53.132812 303.015625 Z M 58.335938 320.542969 L 52.847656 320.542969 C 52.527344 320.542969 52.269531 320.285156 52.265625 319.96875 L 51.957031 302.460938 C 51.953125 302.144531 52.203125 301.878906 52.519531 301.871094 L 60.851562 301.578125 C 61.023438 301.566406 61.191406 301.640625 61.304688 301.769531 C 61.421875 301.898438 61.476562 302.070312 61.449219 302.242188 L 58.914062 320.042969 C 58.875 320.328125 58.628906 320.542969 58.335938 320.542969 " fill-opacity="1" fill-rule="nonzero"/><path fill="#0c2840" d="M 51.214844 337.28125 C 47.957031 336.746094 46.121094 334.40625 46.019531 332.394531 C 45.722656 326.402344 47.304688 320.710938 50.273438 316.847656 C 50.597656 316.425781 51.246094 316.460938 51.527344 316.90625 L 51.605469 316.980469 C 52.117188 317.445312 52.878906 317.414062 53.40625 316.964844 C 53.84375 316.59375 54.402344 316.378906 54.996094 316.367188 L 55.828125 316.355469 C 56.757812 316.34375 57.675781 316.863281 58.164062 317.636719 C 58.386719 317.996094 58.910156 318.019531 59.191406 317.703125 L 59.664062 317.175781 C 59.980469 316.867188 60.511719 317.085938 60.527344 317.527344 L 61.035156 333.914062 C 60.789062 337.121094 55.480469 337.984375 51.214844 337.28125 " fill-opacity="1" fill-rule="nonzero"/><path fill="#000000" d="M 51.3125 336.707031 C 54.578125 337.242188 57.9375 336.773438 59.480469 335.5625 C 60.074219 335.09375 60.394531 334.550781 60.453125 333.898438 L 59.949219 317.730469 L 59.628906 318.089844 C 59.367188 318.382812 58.976562 318.539062 58.585938 318.503906 C 58.203125 318.472656 57.871094 318.269531 57.667969 317.949219 C 57.28125 317.335938 56.546875 316.914062 55.835938 316.941406 L 55.003906 316.953125 C 54.558594 316.957031 54.125 317.121094 53.785156 317.410156 C 53.015625 318.066406 51.933594 318.066406 51.214844 317.410156 L 51.078125 317.289062 L 51.035156 317.21875 C 50.992188 317.148438 50.921875 317.136719 50.882812 317.132812 C 50.84375 317.128906 50.78125 317.140625 50.734375 317.199219 C 47.820312 321 46.3125 326.523438 46.605469 332.363281 C 46.691406 334.109375 48.371094 336.222656 51.3125 336.707031 Z M 54 338.089844 C 53.003906 338.089844 52.019531 338.007812 51.121094 337.859375 C 47.539062 337.269531 45.550781 334.675781 45.4375 332.421875 C 45.132812 326.3125 46.726562 320.503906 49.808594 316.488281 C 50.078125 316.144531 50.492188 315.945312 50.9375 315.96875 C 51.347656 315.984375 51.730469 316.191406 51.972656 316.523438 L 52 316.546875 C 52.277344 316.800781 52.710938 316.789062 53.027344 316.519531 C 53.578125 316.054688 54.273438 315.792969 54.988281 315.785156 L 55.816406 315.773438 C 56.9375 315.757812 58.054688 316.367188 58.65625 317.328125 C 58.695312 317.34375 58.730469 317.34375 58.757812 317.3125 L 59.257812 316.753906 C 59.574219 316.449219 60.023438 316.363281 60.429688 316.53125 C 60.835938 316.695312 61.097656 317.070312 61.109375 317.507812 L 61.621094 333.925781 L 61.617188 333.960938 C 61.539062 334.953125 61.066406 335.800781 60.203125 336.480469 C 58.734375 337.628906 56.339844 338.089844 54 338.089844 " fill-opacity="1" fill-rule="nonzero"/><path fill="#ffffff" d="M 60.898438 329.53125 C 60.808594 329.890625 60.65625 330.230469 60.441406 330.535156 C 59.707031 331.554688 57.703125 333.558594 53.425781 333.210938 C 48.355469 332.796875 46.035156 329.269531 46.035156 329.269531 C 45.972656 330.296875 45.96875 331.339844 46.019531 332.394531 C 46.121094 334.40625 47.957031 336.746094 51.214844 337.28125 C 55.480469 337.984375 60.789062 337.121094 61.035156 333.914062 L 60.898438 329.53125 " fill-opacity="1" fill-rule="nonzero"/><path fill="#000000" d="M 46.570312 330.773438 C 46.566406 331.304688 46.578125 331.835938 46.605469 332.363281 C 46.691406 334.109375 48.371094 336.222656 51.3125 336.707031 C 54.578125 337.242188 57.9375 336.773438 59.480469 335.5625 C 60.074219 335.09375 60.394531 334.550781 60.453125 333.898438 L 60.378906 331.519531 C 59.332031 332.613281 57.183594 334.101562 53.378906 333.792969 C 49.972656 333.515625 47.75 331.917969 46.570312 330.773438 Z M 54 338.089844 C 53.003906 338.089844 52.019531 338.007812 51.121094 337.859375 C 47.539062 337.269531 45.550781 334.675781 45.4375 332.421875 C 45.386719 331.359375 45.390625 330.285156 45.453125 329.234375 C 45.46875 328.984375 45.640625 328.769531 45.886719 328.707031 C 46.128906 328.640625 46.382812 328.738281 46.523438 328.949219 C 46.542969 328.980469 48.769531 332.246094 53.472656 332.628906 C 57.375 332.945312 59.214844 331.238281 59.964844 330.191406 C 60.132812 329.964844 60.253906 329.691406 60.335938 329.382812 C 60.40625 329.101562 60.671875 328.917969 60.964844 328.949219 C 61.253906 328.984375 61.472656 329.222656 61.484375 329.511719 L 61.621094 333.894531 C 61.621094 333.917969 61.621094 333.9375 61.617188 333.960938 C 61.539062 334.953125 61.066406 335.800781 60.203125 336.480469 C 58.734375 337.628906 56.339844 338.089844 54 338.089844 " fill-opacity="1" fill-rule="nonzero"/><path fill="#000000" d="M 57.40625 325.566406 L 51.523438 325.566406 C 51.199219 325.566406 50.9375 325.304688 50.9375 324.984375 C 50.9375 324.664062 51.199219 324.402344 51.523438 324.402344 L 57.40625 324.402344 C 57.730469 324.402344 57.992188 324.664062 57.992188 324.984375 C 57.992188 325.304688 57.730469 325.566406 57.40625 325.566406 " fill-opacity="1" fill-rule="nonzero"/><path fill="#000000" d="M 58.019531 322.601562 L 52.132812 322.601562 C 51.808594 322.601562 51.546875 322.339844 51.546875 322.015625 C 51.546875 321.695312 51.808594 321.433594 52.132812 321.433594 L 58.019531 321.433594 C 58.339844 321.433594 58.601562 321.695312 58.601562 322.015625 C 58.601562 322.339844 58.339844 322.601562 58.019531 322.601562 " fill-opacity="1" fill-rule="nonzero"/><path fill="#000000" d="M 102.792969 185.046875 C 102.792969 185.046875 113.472656 238.828125 113.808594 251.804688 C 114.144531 264.785156 121.496094 313.480469 121.496094 313.480469 C 121.496094 313.480469 114.203125 316.996094 108.898438 316.96875 C 108.898438 316.96875 77.574219 235.851562 75.714844 214.53125 C 73.859375 193.207031 80.066406 183.449219 80.066406 183.449219 L 102.792969 185.046875 " fill-opacity="1" fill-rule="nonzero"/><path fill="#000000" d="M 94.558594 181.664062 C 94.558594 181.664062 62.417969 276.375 61.953125 311.777344 C 61.953125 311.777344 59.996094 313.0625 50.957031 311.585938 C 50.957031 311.585938 44.441406 206.960938 61.144531 179.730469 L 94.558594 181.664062 " fill-opacity="1" fill-rule="nonzero"/><path fill="#0c2840" d="M 97.085938 112.160156 C 103.304688 112.132812 108.980469 115.644531 111.703125 121.199219 C 114.851562 127.632812 119.300781 144.46875 119.472656 151.824219 C 119.777344 164.730469 108.421875 165.40625 108.183594 165.417969 C 108.175781 165.417969 108.175781 165.417969 108.175781 165.421875 C 108.203125 165.703125 109.527344 179.753906 109.632812 182.242188 C 109.824219 186.777344 101.414062 193.851562 91.753906 190.367188 C 82.144531 186.898438 55.886719 179.988281 53.222656 185.871094 C 53.214844 185.882812 53.203125 185.878906 53.207031 185.867188 L 64.222656 145.003906 C 64.222656 145 64.21875 144.996094 64.214844 144.996094 L 55.171875 145.433594 C 55.171875 145.433594 55.171875 145.433594 55.167969 145.433594 L 50.3125 142.625 C 48.820312 141.761719 48.058594 140.023438 48.441406 138.339844 L 49.667969 132.90625 C 53.207031 118.792969 62.683594 112.320312 74.917969 112.261719 L 97.085938 112.160156 " fill-opacity="1" fill-rule="nonzero"/><path fill="#000000" d="M 60.203125 182.988281 C 70.464844 182.988281 87.707031 188.285156 91.953125 189.816406 C 96.527344 191.46875 101.535156 190.789062 105.339844 187.996094 C 107.667969 186.285156 109.125 184.035156 109.050781 182.269531 C 108.945312 179.785156 107.609375 165.621094 107.597656 165.476562 C 107.582031 165.320312 107.632812 165.15625 107.738281 165.039062 C 107.839844 164.917969 107.996094 164.84375 108.15625 164.835938 C 108.601562 164.8125 119.179688 164.101562 118.890625 151.839844 C 118.714844 144.414062 114.214844 127.65625 111.179688 121.457031 C 108.582031 116.15625 103.085938 112.746094 97.160156 112.746094 C 97.136719 112.746094 97.113281 112.746094 97.089844 112.746094 L 74.917969 112.847656 C 62.070312 112.90625 53.535156 119.890625 50.230469 133.046875 L 49.007812 138.464844 C 48.683594 139.910156 49.324219 141.378906 50.605469 142.121094 L 55.3125 144.839844 L 64.1875 144.414062 C 64.371094 144.402344 64.558594 144.488281 64.675781 144.632812 C 64.792969 144.777344 64.832031 144.972656 64.789062 145.152344 L 54.308594 184.023438 C 55.691406 183.292969 57.75 182.988281 60.203125 182.988281 Z M 96.988281 191.871094 C 95.171875 191.871094 93.332031 191.558594 91.554688 190.914062 C 79.894531 186.707031 55.980469 181.195312 53.753906 186.113281 C 53.625 186.390625 53.300781 186.53125 53.011719 186.425781 C 52.726562 186.320312 52.5625 186.003906 52.644531 185.710938 L 63.453125 145.617188 L 55.203125 146.015625 C 55.148438 146.019531 55.09375 146.011719 55.042969 146 C 54.984375 145.988281 54.929688 145.96875 54.878906 145.9375 L 50.019531 143.128906 C 48.296875 142.132812 47.433594 140.15625 47.871094 138.210938 L 49.097656 132.777344 C 52.496094 119.230469 61.664062 111.742188 74.914062 111.679688 L 97.082031 111.578125 L 97.085938 112.160156 L 97.082031 111.578125 C 97.109375 111.578125 97.136719 111.578125 97.160156 111.578125 C 103.527344 111.578125 109.4375 115.246094 112.226562 120.941406 C 115.308594 127.234375 119.878906 144.261719 120.058594 151.808594 C 120.335938 163.621094 111.285156 165.617188 108.8125 165.941406 C 109.066406 168.644531 110.121094 179.996094 110.214844 182.21875 C 110.308594 184.398438 108.703125 186.972656 106.03125 188.933594 C 103.390625 190.871094 100.222656 191.871094 96.988281 191.871094 " fill-opacity="1" fill-rule="nonzero"/><path fill="#000000" d="M 106.957031 166.324219 C 98.453125 166.324219 86.5625 159.765625 77.917969 153.324219 C 77.660156 153.132812 77.609375 152.765625 77.800781 152.507812 C 77.992188 152.25 78.359375 152.199219 78.617188 152.390625 C 87.226562 158.800781 100.203125 165.972656 108.429688 165.082031 C 108.75 165.046875 109.035156 165.277344 109.070312 165.597656 C 109.105469 165.917969 108.875 166.207031 108.554688 166.242188 C 108.039062 166.296875 107.503906 166.324219 106.957031 166.324219 " fill-opacity="1" fill-rule="nonzero"/><path fill="#ffffff" d="M 102.105469 144.902344 C 103.792969 144.589844 104.613281 141.625 110.550781 141.273438 C 127.683594 140.25 119.378906 131.550781 109.5625 133.210938 C 106.308594 133.757812 105.03125 135.863281 103.808594 136.398438 C 93.539062 140.878906 98.734375 145.527344 102.105469 144.902344 " fill-opacity="1" fill-rule="nonzero"/><path fill="#000000" d="M 112.023438 133.585938 C 111.253906 133.585938 110.460938 133.648438 109.660156 133.785156 C 107.609375 134.128906 106.410156 135.136719 105.445312 135.945312 C 104.945312 136.363281 104.511719 136.726562 104.039062 136.929688 C 100 138.695312 97.898438 140.769531 98.421875 142.480469 C 98.832031 143.816406 100.683594 144.574219 101.996094 144.328125 C 102.398438 144.253906 102.808594 143.910156 103.324219 143.476562 C 104.523438 142.46875 106.332031 140.9375 110.515625 140.691406 C 118.058594 140.242188 119.488281 138.351562 119.75 137.785156 C 119.972656 137.292969 119.871094 136.761719 119.445312 136.203125 C 118.359375 134.789062 115.421875 133.585938 112.023438 133.585938 Z M 101.480469 145.542969 C 99.777344 145.542969 97.835938 144.554688 97.308594 142.820312 C 96.882812 141.429688 97.128906 138.675781 103.574219 135.863281 C 103.890625 135.722656 104.265625 135.410156 104.695312 135.050781 C 105.714844 134.199219 107.105469 133.03125 109.464844 132.632812 C 114.472656 131.789062 118.820312 133.476562 120.371094 135.492188 C 121.058594 136.390625 121.21875 137.378906 120.808594 138.269531 C 119.898438 140.269531 116.359375 141.511719 110.582031 141.855469 C 106.789062 142.082031 105.21875 143.402344 104.074219 144.367188 C 103.453125 144.894531 102.917969 145.347656 102.210938 145.476562 C 101.976562 145.519531 101.730469 145.542969 101.480469 145.542969 " fill-opacity="1" fill-rule="nonzero"/><path fill="#0c2840" d="M 97.511719 139.457031 L 102.957031 144.796875 C 91.535156 155.902344 78.191406 166.003906 60.359375 166.148438 C 50.585938 160.402344 45.628906 149.066406 48.617188 137.535156 L 69.542969 135.617188 C 69.113281 151.628906 82.90625 143.828125 97.511719 139.457031 " fill-opacity="1" fill-rule="nonzero"/><path fill="#000000" d="M 62.714844 166.316406 C 61.617188 166.316406 60.550781 166.242188 59.523438 166.085938 C 59.207031 166.035156 58.988281 165.738281 59.035156 165.417969 C 59.085938 165.101562 59.378906 164.882812 59.699219 164.929688 C 73.5625 167.046875 94.71875 153.609375 102.25 145.769531 L 96.558594 140.074219 C 87.167969 141.382812 77.933594 143.746094 70.125 145.894531 C 69.8125 145.980469 69.492188 145.796875 69.40625 145.484375 C 69.320312 145.171875 69.503906 144.851562 69.8125 144.765625 C 77.738281 142.589844 87.128906 140.1875 96.6875 138.882812 L 96.972656 138.839844 L 103.871094 145.742188 L 103.492188 146.152344 C 96.695312 153.515625 77.089844 166.316406 62.714844 166.316406 " fill-opacity="1" fill-rule="nonzero"/><path fill="#ffffff" d="M 71.933594 143.257812 C 70.242188 142.945312 70.707031 140.984375 64.769531 140.632812 C 47.632812 139.609375 55.9375 130.910156 65.753906 132.570312 C 69.007812 133.117188 70.28125 135.234375 71.511719 135.757812 C 80.21875 139.457031 75.304688 143.878906 71.933594 143.257812 " fill-opacity="1" fill-rule="nonzero"/><path fill="#000000" d="M 72.039062 142.683594 C 73.539062 142.960938 75.375 142.03125 75.742188 140.808594 C 76.1875 139.335938 74.5625 137.6875 71.28125 136.292969 C 70.804688 136.089844 70.363281 135.722656 69.855469 135.296875 C 68.894531 134.488281 67.695312 133.488281 65.65625 133.144531 C 61.324219 132.410156 57.207031 133.828125 55.875 135.5625 C 55.445312 136.117188 55.34375 136.652344 55.570312 137.144531 C 55.828125 137.710938 57.261719 139.601562 64.804688 140.046875 C 68.984375 140.300781 70.175781 141.332031 71.042969 142.089844 C 71.417969 142.414062 71.640625 142.609375 72.039062 142.683594 Z M 72.601562 143.898438 C 72.339844 143.898438 72.082031 143.878906 71.828125 143.832031 C 71.117188 143.699219 70.6875 143.328125 70.277344 142.96875 C 69.535156 142.324219 68.519531 141.441406 64.734375 141.214844 C 58.957031 140.871094 55.421875 139.628906 54.507812 137.628906 C 54.101562 136.738281 54.257812 135.75 54.949219 134.851562 C 56.5 132.835938 60.84375 131.148438 65.851562 131.992188 C 68.203125 132.390625 69.589844 133.550781 70.605469 134.402344 C 71.042969 134.765625 71.417969 135.082031 71.738281 135.21875 C 77.066406 137.484375 77.234375 139.90625 76.859375 141.148438 C 76.386719 142.722656 74.476562 143.898438 72.601562 143.898438 " fill-opacity="1" fill-rule="nonzero"/><path fill="#000000" d="M 74.984375 144.3125 C 74.898438 144.3125 74.808594 144.292969 74.726562 144.25 C 74.4375 144.105469 74.320312 143.757812 74.464844 143.46875 L 77.15625 138.082031 L 84.589844 140.941406 C 84.890625 141.058594 85.042969 141.394531 84.925781 141.695312 C 84.8125 141.996094 84.472656 142.148438 84.171875 142.03125 L 77.726562 139.554688 L 75.507812 143.988281 C 75.40625 144.195312 75.199219 144.3125 74.984375 144.3125 " fill-opacity="1" fill-rule="nonzero"/><path fill="#ffffff" d="M 86.273438 98.230469 L 87.207031 109.179688 C 87.464844 110.535156 89.71875 112.234375 89.71875 112.234375 L 91.386719 112.808594 C 91.863281 112.972656 91.863281 113.644531 91.390625 113.808594 C 85.238281 115.960938 81.242188 116.617188 72.421875 113.535156 C 72.109375 112.964844 76.191406 110.332031 76.339844 108.988281 L 76.589844 94.898438 L 86.273438 98.230469 " fill-opacity="1" fill-rule="nonzero"/><path fill="#000000" d="M 73.265625 113.210938 C 81.472656 115.980469 85.238281 115.332031 91.050781 113.308594 L 89.527344 112.785156 C 89.472656 112.765625 89.417969 112.738281 89.367188 112.699219 C 89.117188 112.511719 86.925781 110.820312 86.632812 109.292969 C 86.628906 109.269531 86.628906 109.25 86.625 109.230469 L 85.722656 98.660156 L 77.160156 95.710938 L 76.925781 109 C 76.921875 109.015625 76.921875 109.035156 76.921875 109.050781 C 76.824219 109.9375 75.789062 110.925781 74.335938 112.21875 C 73.988281 112.53125 73.554688 112.917969 73.265625 113.210938 Z M 82.542969 116.21875 C 79.648438 116.21875 76.484375 115.574219 72.226562 114.089844 C 72.089844 114.039062 71.976562 113.945312 71.90625 113.816406 C 71.546875 113.148438 72.261719 112.507812 73.558594 111.347656 C 74.351562 110.640625 75.667969 109.464844 75.757812 108.945312 L 76.007812 94.886719 C 76.007812 94.703125 76.101562 94.527344 76.253906 94.421875 C 76.40625 94.3125 76.601562 94.285156 76.78125 94.347656 L 86.464844 97.679688 C 86.679688 97.753906 86.835938 97.953125 86.855469 98.183594 L 87.785156 109.097656 C 87.960938 109.898438 89.199219 111.09375 90 111.714844 L 91.578125 112.257812 C 92.03125 112.414062 92.328125 112.828125 92.328125 113.308594 C 92.328125 113.789062 92.035156 114.203125 91.582031 114.363281 C 88.25 115.527344 85.542969 116.21875 82.542969 116.21875 " fill-opacity="1" fill-rule="nonzero"/><path fill="#000000" d="M 97.175781 82.449219 C 94.71875 81.222656 95.601562 85.027344 87.792969 78.371094 C 84.59375 75.644531 84.574219 80.816406 83.730469 80.125 C 80.613281 77.574219 78.800781 78.199219 77.714844 78.457031 C 76.457031 78.757812 74.78125 80.050781 74.320312 81.71875 C 73.710938 83.917969 76.203125 85.738281 75.84375 90.785156 C 75.589844 94.335938 74.519531 96.09375 75.570312 97.078125 C 76.632812 98.074219 78.28125 96.796875 79.523438 97.796875 C 81.128906 99.089844 79.417969 102.078125 80.632812 104.144531 C 81.402344 105.449219 83.84375 106.953125 88.890625 106.726562 C 89.710938 106.6875 90.386719 106.074219 90.496094 105.261719 C 90.640625 104.222656 90.8125 102.90625 90.875 101.636719 C 91.160156 95.585938 89.800781 93.605469 91.058594 92.546875 C 92.984375 90.921875 96.40625 93.800781 97.789062 92.382812 C 99.222656 90.90625 100.539062 84.132812 97.175781 82.449219 " fill-opacity="1" fill-rule="nonzero"/><path fill="#ffffff" d="M 83.714844 91.058594 C 83.78125 91.835938 83.796875 92.617188 83.757812 93.398438 C 83.683594 94.859375 83.578125 97.367188 83.625 98.777344 C 83.683594 100.523438 88.539062 100.988281 90.0625 101.089844 C 90.308594 101.105469 90.515625 100.914062 90.515625 100.664062 L 90.59375 99.210938 L 91.753906 99.394531 C 91.898438 99.398438 92.046875 99.371094 92.175781 99.300781 C 92.496094 99.125 92.648438 98.773438 92.582031 98.441406 C 92.246094 96.707031 91.570312 93.804688 91.941406 90.734375 C 91.980469 90.421875 91.832031 90.113281 91.5625 89.949219 C 90.628906 89.394531 88.328125 88.292969 85.382812 88.863281 C 84.34375 89.0625 83.621094 90.007812 83.714844 91.058594 " fill-opacity="1" fill-rule="nonzero"/><path fill="#000000" d="M 87.023438 89.289062 C 86.539062 89.289062 86.027344 89.332031 85.492188 89.4375 C 84.742188 89.582031 84.226562 90.257812 84.296875 91.007812 C 84.367188 91.808594 84.378906 92.621094 84.339844 93.429688 C 84.269531 94.816406 84.160156 97.355469 84.207031 98.757812 C 84.230469 99.40625 86.246094 100.226562 89.941406 100.496094 L 90.046875 98.53125 L 91.796875 98.8125 C 91.835938 98.808594 91.871094 98.800781 91.894531 98.789062 C 92 98.730469 92.023438 98.625 92.007812 98.550781 L 91.914062 98.070312 C 91.554688 96.273438 91.015625 93.558594 91.363281 90.664062 C 91.375 90.578125 91.335938 90.492188 91.261719 90.453125 C 90.609375 90.0625 89.058594 89.289062 87.023438 89.289062 Z M 89.933594 100.648438 C 89.933594 100.652344 89.933594 100.660156 89.933594 100.664062 Z M 90.089844 101.675781 C 90.066406 101.675781 90.046875 101.675781 90.023438 101.671875 C 86.875 101.460938 83.109375 100.789062 83.042969 98.796875 C 82.992188 97.351562 83.105469 94.773438 83.175781 93.371094 C 83.210938 92.617188 83.199219 91.855469 83.132812 91.109375 C 83.011719 89.761719 83.933594 88.546875 85.273438 88.289062 C 88.445312 87.675781 90.9375 88.898438 91.859375 89.449219 C 92.328125 89.726562 92.585938 90.261719 92.519531 90.804688 C 92.195312 93.511719 92.714844 96.117188 93.058594 97.84375 L 93.15625 98.332031 C 93.269531 98.925781 92.988281 99.519531 92.457031 99.8125 C 92.25 99.925781 92 99.988281 91.742188 99.976562 L 91.660156 99.972656 L 91.144531 99.886719 L 91.097656 100.699219 C 91.097656 100.945312 90.980469 101.214844 90.777344 101.402344 C 90.59375 101.578125 90.34375 101.675781 90.089844 101.675781 " fill-opacity="1" fill-rule="nonzero"/><path fill="#ffffff" d="M 81.105469 95.605469 C 78.074219 95.546875 78.089844 92.707031 79.234375 91.4375 C 79.71875 90.902344 80.605469 91.160156 80.753906 91.863281 L 81.445312 95.199219 C 81.492188 95.414062 81.324219 95.609375 81.105469 95.605469 " fill-opacity="1" fill-rule="nonzero"/><path fill="#19598f" d="M 224.382812 63.101562 C 224.890625 56.511719 224.386719 47.125 218.730469 39.289062 C 203.09375 17.617188 157.445312 20.796875 148.574219 38.484375 C 144.074219 47.457031 148.945312 60.371094 156.21875 67.480469 C 166.976562 77.992188 185.121094 77.894531 196.195312 71.574219 C 206.742188 65.558594 210.019531 54.394531 216.710938 55.433594 C 220.433594 56.007812 222.914062 60.003906 224.382812 63.101562 " fill-opacity="1" fill-rule="nonzero"/><path fill="#ffffff" d="M 202.515625 45.417969 L 164.082031 45.417969 C 163.761719 45.417969 163.5 45.15625 163.5 44.832031 C 163.5 44.511719 163.761719 44.25 164.082031 44.25 L 202.515625 44.25 C 202.839844 44.25 203.101562 44.511719 203.101562 44.832031 C 203.101562 45.15625 202.839844 45.417969 202.515625 45.417969 " fill-opacity="1" fill-rule="nonzero"/><path fill="#ffffff" d="M 193.644531 52.171875 L 174.308594 52.171875 C 173.984375 52.171875 173.726562 51.910156 173.726562 51.589844 C 173.726562 51.265625 173.984375 51.007812 174.308594 51.007812 L 193.644531 51.007812 C 193.96875 51.007812 194.230469 51.265625 194.230469 51.589844 C 194.230469 51.910156 193.96875 52.171875 193.644531 52.171875 " fill-opacity="1" fill-rule="nonzero"/><path fill="#ffffff" d="M 123.601562 105.136719 C 122.621094 103.761719 111.605469 87.707031 118.527344 69.398438 C 123.382812 56.546875 135.738281 46.132812 150.085938 45.574219 C 152.503906 45.476562 167.765625 44.882812 175.957031 57.074219 C 181.472656 65.285156 182.078125 76.753906 176.714844 85.101562 C 170.34375 95.019531 158.175781 96.433594 156.371094 96.617188 C 143.726562 97.886719 136.761719 89.78125 129.871094 93.695312 C 125.652344 96.089844 124.195312 101.433594 123.601562 105.136719 " fill-opacity="1" fill-rule="nonzero"/><path fill="#000000" d="M 151.511719 46.128906 C 150.996094 46.128906 150.527344 46.140625 150.105469 46.15625 C 136.644531 46.679688 124.171875 56.105469 119.070312 69.605469 C 113.121094 85.351562 120.585938 99.328125 123.285156 103.613281 C 124.351562 98.460938 126.464844 94.957031 129.582031 93.1875 C 133.363281 91.039062 137.15625 92.292969 141.550781 93.742188 C 145.660156 95.101562 150.316406 96.636719 156.3125 96.035156 C 158.574219 95.808594 170.179688 94.195312 176.222656 84.789062 C 181.304688 76.882812 180.992188 65.617188 175.472656 57.398438 C 168.828125 47.507812 157.375 46.128906 151.511719 46.128906 Z M 123.601562 105.71875 C 123.414062 105.71875 123.238281 105.628906 123.125 105.476562 C 121.863281 103.703125 111.011719 87.636719 117.980469 69.191406 C 120.433594 62.703125 124.839844 56.742188 130.386719 52.417969 C 136.269531 47.832031 143.070312 45.261719 150.0625 44.992188 C 155.472656 44.777344 168.886719 45.503906 176.441406 56.75 C 182.214844 65.34375 182.527344 77.132812 177.207031 85.417969 C 171.03125 95.03125 159.742188 96.863281 156.429688 97.195312 C 150.1875 97.824219 145.402344 96.246094 141.183594 94.851562 C 136.886719 93.433594 133.488281 92.308594 130.15625 94.199219 C 127.082031 95.945312 125.070312 99.660156 124.175781 105.230469 C 124.140625 105.460938 123.964844 105.652344 123.734375 105.703125 C 123.691406 105.714844 123.644531 105.71875 123.601562 105.71875 " fill-opacity="1" fill-rule="nonzero"/><path fill="#000000" d="M 166.675781 69.023438 L 130.546875 69.023438 C 130.222656 69.023438 129.960938 68.761719 129.960938 68.4375 C 129.960938 68.117188 130.222656 67.855469 130.546875 67.855469 L 166.675781 67.855469 C 167 67.855469 167.261719 68.117188 167.261719 68.4375 C 167.261719 68.761719 167 69.023438 166.675781 69.023438 " fill-opacity="1" fill-rule="nonzero"/><path fill="#000000" d="M 155.34375 73.730469 L 142.417969 73.730469 C 142.09375 73.730469 141.832031 73.472656 141.832031 73.148438 C 141.832031 72.824219 142.09375 72.566406 142.417969 72.566406 L 155.34375 72.566406 C 155.664062 72.566406 155.925781 72.824219 155.925781 73.148438 C 155.925781 73.472656 155.664062 73.730469 155.34375 73.730469 " fill-opacity="1" fill-rule="nonzero"/><path fill="#000000" d="M 60.355469 66.554688 C 60.234375 66.554688 60.109375 66.515625 60.003906 66.4375 C 59.746094 66.242188 59.699219 65.875 59.890625 65.621094 C 68.933594 53.710938 80.5625 43.945312 93.527344 37.375 C 93.816406 37.230469 94.167969 37.347656 94.3125 37.632812 C 94.457031 37.921875 94.34375 38.273438 94.054688 38.417969 C 81.246094 44.90625 69.757812 54.554688 60.820312 66.324219 C 60.707031 66.476562 60.53125 66.554688 60.355469 66.554688 " fill-opacity="1" fill-rule="nonzero"/><path fill="#000000" d="M 53.253906 68.871094 C 53.152344 68.871094 53.046875 68.847656 52.953125 68.789062 C 52.679688 68.625 52.589844 68.265625 52.753906 67.988281 C 61.617188 53.214844 75.246094 40.644531 91.132812 32.601562 C 91.417969 32.457031 91.769531 32.570312 91.914062 32.855469 C 92.0625 33.144531 91.945312 33.496094 91.660156 33.640625 C 75.96875 41.589844 62.507812 54 53.753906 68.589844 C 53.644531 68.773438 53.453125 68.871094 53.253906 68.871094 " fill-opacity="1" fill-rule="nonzero"/><path fill="#000000" d="M 99.457031 33.308594 C 100.800781 33.488281 102.179688 33.929688 103.308594 34.542969 C 103.050781 32.722656 102.507812 31.167969 102.144531 30.277344 Z M 104.015625 36.273438 C 103.886719 36.273438 103.761719 36.230469 103.65625 36.152344 C 102.332031 35.125 100.105469 34.402344 98.234375 34.390625 C 98.007812 34.390625 97.800781 34.253906 97.707031 34.042969 C 97.613281 33.835938 97.648438 33.589844 97.800781 33.417969 L 101.875 28.824219 C 102.003906 28.679688 102.195312 28.605469 102.386719 28.632812 C 102.578125 28.65625 102.742188 28.777344 102.832031 28.945312 C 102.894531 29.070312 104.371094 32.015625 104.597656 35.652344 C 104.609375 35.878906 104.488281 36.097656 104.289062 36.203125 C 104.203125 36.25 104.109375 36.273438 104.015625 36.273438 " fill-opacity="1" fill-rule="nonzero"/><path fill="#000000" d="M 170.449219 329.386719 C 168.800781 329.386719 167.15625 329.347656 165.519531 329.269531 C 165.195312 329.253906 164.949219 328.980469 164.964844 328.65625 C 164.976562 328.335938 165.253906 328.082031 165.574219 328.101562 C 181.4375 328.867188 197.765625 325.871094 212.792969 319.441406 C 213.089844 319.3125 213.433594 319.453125 213.558594 319.75 C 213.683594 320.042969 213.546875 320.386719 213.25 320.515625 C 199.617188 326.351562 184.917969 329.386719 170.449219 329.386719 " fill-opacity="1" fill-rule="nonzero"/><path fill="#000000" d="M 170.261719 335.292969 C 168.574219 335.292969 166.890625 335.25 165.210938 335.167969 C 164.886719 335.152344 164.640625 334.878906 164.65625 334.558594 C 164.671875 334.238281 164.941406 333.984375 165.265625 334.003906 C 184.703125 334.941406 204.433594 330.367188 220.828125 321.125 C 221.109375 320.96875 221.464844 321.066406 221.625 321.347656 C 221.78125 321.625 221.683594 321.984375 221.402344 322.140625 C 206.238281 330.691406 188.253906 335.292969 170.261719 335.292969 " fill-opacity="1" fill-rule="nonzero"/><path fill="#000000" d="M 186.242188 317.78125 C 185.632812 317.78125 185.035156 318.085938 184.6875 318.640625 C 184.15625 319.496094 184.421875 320.625 185.277344 321.15625 C 186.132812 321.6875 187.261719 321.425781 187.792969 320.566406 C 188.046875 320.152344 188.128906 319.664062 188.019531 319.1875 C 187.90625 318.714844 187.617188 318.308594 187.203125 318.054688 C 186.902344 317.867188 186.570312 317.78125 186.242188 317.78125 Z M 186.234375 322.601562 C 185.683594 322.601562 185.140625 322.449219 184.660156 322.148438 C 183.257812 321.277344 182.828125 319.429688 183.695312 318.027344 C 184.566406 316.625 186.417969 316.191406 187.820312 317.0625 C 188.5 317.484375 188.972656 318.144531 189.15625 318.925781 C 189.335938 319.703125 189.207031 320.503906 188.78125 321.183594 C 188.359375 321.863281 187.699219 322.335938 186.921875 322.519531 C 186.695312 322.574219 186.460938 322.601562 186.234375 322.601562 " fill-opacity="1" fill-rule="nonzero"/><path fill="#000000" d="M 194.441406 314.714844 C 193.636719 316.710938 193.300781 318.617188 193.164062 319.679688 L 197.613281 318.164062 C 196.363281 317.230469 195.210938 315.976562 194.441406 314.714844 Z M 192.496094 321.109375 C 192.371094 321.109375 192.25 321.066406 192.148438 320.992188 C 191.992188 320.875 191.90625 320.691406 191.914062 320.496094 C 191.921875 320.34375 192.109375 316.71875 193.878906 313.113281 C 193.976562 312.90625 194.1875 312.777344 194.417969 312.785156 C 194.644531 312.792969 194.851562 312.933594 194.9375 313.144531 C 195.65625 314.863281 197.414062 316.789062 199.214844 317.828125 C 199.414062 317.941406 199.527344 318.160156 199.503906 318.390625 C 199.480469 318.617188 199.328125 318.8125 199.113281 318.886719 L 192.6875 321.078125 C 192.625 321.097656 192.5625 321.109375 192.496094 321.109375 " fill-opacity="1" fill-rule="nonzero"/></svg>