<svg xmlns="http://www.w3.org/2000/svg" xmlns:xlink="http://www.w3.org/1999/xlink" width="500" zoomAndPan="magnify" viewBox="0 0 375 374.999991" height="500" preserveAspectRatio="xMidYMid meet" version="1.0"><defs><clipPath id="0d92de1246"><path d="M 12 12.054688 L 360 12.054688 L 360 360 L 12 360 Z M 12 12.054688 " clip-rule="nonzero"/></clipPath><clipPath id="bae2f0583a"><path d="M 198.792969 13.085938 L 314.304688 13.085938 L 314.304688 79.941406 L 198.792969 79.941406 Z M 198.792969 13.085938 " clip-rule="nonzero"/></clipPath><clipPath id="43f39caa44"><path d="M 214.535156 13.085938 L 300.082031 13.085938 L 300.082031 64.195312 L 214.535156 64.195312 Z M 214.535156 13.085938 " clip-rule="nonzero"/></clipPath></defs><g clip-path="url(#0d92de1246)"><path fill="#caddff" d="M 13.375 170.238281 C 13.679688 165.230469 14.066406 160.285156 14.515625 155.433594 C 17.71875 120.824219 37.640625 66.171875 68.296875 45.199219 C 93.128906 28.210938 106.636719 13.402344 136.429688 12.890625 C 184.789062 12.054688 195.199219 61.996094 235.054688 85.21875 C 254.167969 96.355469 306.101562 64.3125 325.941406 88.554688 C 363.460938 134.414062 360.542969 204.246094 359.289062 231.136719 C 358.398438 250.308594 345.289062 289.632812 308.902344 321.347656 C 269.339844 355.828125 186.453125 362.9375 154.96875 358.09375 C 99.085938 349.503906 34.878906 321.183594 19.835938 261.863281 C 12.574219 233.21875 11.523438 200.558594 13.375 170.238281 " fill-opacity="1" fill-rule="nonzero"/></g><path fill="#0c2840" d="M 90.558594 229.582031 C 90.214844 229.582031 89.929688 229.300781 89.929688 228.953125 C 89.929688 228.65625 89.929688 228.65625 94.46875 223.035156 C 94.6875 222.761719 95.082031 222.71875 95.351562 222.9375 C 95.621094 223.15625 95.664062 223.550781 95.445312 223.824219 C 92.144531 227.914062 91.257812 229.050781 91.109375 229.253906 C 91.003906 229.449219 90.796875 229.582031 90.558594 229.582031 " fill-opacity="1" fill-rule="nonzero"/><path fill="#ffffff" d="M 50.921875 117.765625 L 50.921875 30.542969 C 50.921875 26.5625 47.695312 23.335938 43.714844 23.335938 C 39.730469 23.335938 36.503906 26.5625 36.503906 30.542969 L 36.503906 117.765625 C 31.570312 120.359375 28.203125 125.539062 28.203125 131.5 C 28.203125 140.066406 35.148438 147.011719 43.714844 147.011719 C 52.28125 147.011719 59.226562 140.066406 59.226562 131.5 C 59.226562 125.539062 55.859375 120.359375 50.921875 117.765625 " fill-opacity="1" fill-rule="nonzero"/><path fill="#000000" d="M 43.714844 23.964844 C 40.085938 23.964844 37.132812 26.917969 37.132812 30.542969 L 37.132812 117.765625 C 37.132812 118 37.003906 118.210938 36.796875 118.320312 C 31.882812 120.90625 28.832031 125.957031 28.832031 131.5 C 28.832031 139.703125 35.507812 146.382812 43.714844 146.382812 C 51.917969 146.382812 58.597656 139.703125 58.597656 131.5 C 58.597656 125.957031 55.542969 120.90625 50.628906 118.320312 C 50.425781 118.210938 50.296875 118 50.296875 117.765625 L 50.296875 30.542969 C 50.296875 26.917969 47.34375 23.964844 43.714844 23.964844 Z M 43.714844 147.636719 C 34.816406 147.636719 27.574219 140.398438 27.574219 131.5 C 27.574219 125.613281 30.746094 120.242188 35.875 117.390625 L 35.875 30.542969 C 35.875 26.222656 39.390625 22.707031 43.714844 22.707031 C 48.035156 22.707031 51.550781 26.222656 51.550781 30.542969 L 51.550781 117.390625 C 56.683594 120.242188 59.851562 125.613281 59.851562 131.5 C 59.851562 140.398438 52.613281 147.636719 43.714844 147.636719 " fill-opacity="1" fill-rule="nonzero"/><path fill="#19598f" d="M 41.601562 126.402344 L 41.601562 30.542969 C 41.601562 29.378906 42.550781 28.429688 43.714844 28.429688 C 44.878906 28.429688 45.828125 29.378906 45.828125 30.542969 L 45.828125 126.402344 L 41.601562 126.402344 " fill-opacity="1" fill-rule="nonzero"/><path fill="#0c2840" d="M 41.601562 43.609375 L 41.601562 126.402344 L 45.828125 126.402344 L 45.828125 43.609375 L 41.601562 43.609375 " fill-opacity="1" fill-rule="nonzero"/><path fill="#0c2840" d="M 43.714844 141.914062 C 37.972656 141.914062 33.300781 137.242188 33.300781 131.5 C 33.300781 125.757812 37.972656 121.085938 43.714844 121.085938 C 49.457031 121.085938 54.128906 125.757812 54.128906 131.5 C 54.128906 137.242188 49.457031 141.914062 43.714844 141.914062 " fill-opacity="1" fill-rule="nonzero"/><path fill="#ffffff" d="M 39.746094 139 C 39.636719 139 39.53125 138.972656 39.429688 138.914062 C 36.789062 137.382812 35.148438 134.542969 35.148438 131.5 C 35.148438 129.847656 35.625 128.238281 36.523438 126.851562 C 36.710938 126.5625 37.101562 126.480469 37.390625 126.667969 C 37.683594 126.855469 37.765625 127.246094 37.578125 127.535156 C 36.8125 128.71875 36.40625 130.089844 36.40625 131.5 C 36.40625 134.09375 37.808594 136.519531 40.0625 137.828125 C 40.363281 138.003906 40.464844 138.386719 40.289062 138.6875 C 40.171875 138.886719 39.960938 139 39.746094 139 " fill-opacity="1" fill-rule="nonzero"/><path fill="#ffffff" d="M 43.714844 140.0625 C 42.949219 140.0625 42.191406 139.964844 41.460938 139.765625 C 41.125 139.671875 40.929688 139.324219 41.019531 138.992188 C 41.109375 138.65625 41.457031 138.460938 41.792969 138.550781 C 42.417969 138.71875 43.0625 138.808594 43.714844 138.808594 C 44.0625 138.808594 44.34375 139.089844 44.34375 139.4375 C 44.34375 139.78125 44.0625 140.0625 43.714844 140.0625 " fill-opacity="1" fill-rule="nonzero"/><path fill="#000000" d="M 48.289062 37.214844 L 38.820312 37.214844 C 38.476562 37.214844 38.195312 36.933594 38.195312 36.585938 C 38.195312 36.238281 38.476562 35.957031 38.820312 35.957031 L 48.289062 35.957031 C 48.632812 35.957031 48.917969 36.238281 48.917969 36.585938 C 48.917969 36.933594 48.632812 37.214844 48.289062 37.214844 " fill-opacity="1" fill-rule="nonzero"/><path fill="#000000" d="M 48.289062 49.167969 L 38.820312 49.167969 C 38.476562 49.167969 38.195312 48.886719 38.195312 48.542969 C 38.195312 48.191406 38.476562 47.910156 38.820312 47.910156 L 48.289062 47.910156 C 48.632812 47.910156 48.917969 48.191406 48.917969 48.542969 C 48.917969 48.886719 48.632812 49.167969 48.289062 49.167969 " fill-opacity="1" fill-rule="nonzero"/><path fill="#000000" d="M 42.464844 40.203125 L 38.824219 40.203125 C 38.476562 40.203125 38.195312 39.921875 38.195312 39.574219 C 38.195312 39.226562 38.476562 38.945312 38.824219 38.945312 L 42.464844 38.945312 C 42.8125 38.945312 43.089844 39.226562 43.089844 39.574219 C 43.089844 39.921875 42.8125 40.203125 42.464844 40.203125 " fill-opacity="1" fill-rule="nonzero"/><path fill="#000000" d="M 42.460938 43.191406 L 38.824219 43.191406 C 38.476562 43.191406 38.195312 42.910156 38.195312 42.5625 C 38.195312 42.214844 38.476562 41.933594 38.824219 41.933594 L 42.460938 41.933594 C 42.808594 41.933594 43.089844 42.214844 43.089844 42.5625 C 43.089844 42.910156 42.808594 43.191406 42.460938 43.191406 " fill-opacity="1" fill-rule="nonzero"/><path fill="#000000" d="M 42.464844 46.179688 L 38.824219 46.179688 C 38.476562 46.179688 38.195312 45.898438 38.195312 45.550781 C 38.195312 45.203125 38.476562 44.921875 38.824219 44.921875 L 42.464844 44.921875 C 42.8125 44.921875 43.089844 45.203125 43.089844 45.550781 C 43.089844 45.898438 42.8125 46.179688 42.464844 46.179688 " fill-opacity="1" fill-rule="nonzero"/><path fill="#000000" d="M 42.464844 52.15625 L 38.824219 52.15625 C 38.476562 52.15625 38.195312 51.871094 38.195312 51.527344 C 38.195312 51.179688 38.476562 50.898438 38.824219 50.898438 L 42.464844 50.898438 C 42.808594 50.898438 43.089844 51.179688 43.089844 51.527344 C 43.089844 51.871094 42.808594 52.15625 42.464844 52.15625 " fill-opacity="1" fill-rule="nonzero"/><path fill="#000000" d="M 42.460938 55.144531 L 38.820312 55.144531 C 38.476562 55.144531 38.195312 54.863281 38.195312 54.515625 C 38.195312 54.167969 38.476562 53.886719 38.820312 53.886719 L 42.460938 53.886719 C 42.808594 53.886719 43.089844 54.167969 43.089844 54.515625 C 43.089844 54.863281 42.808594 55.144531 42.460938 55.144531 " fill-opacity="1" fill-rule="nonzero"/><path fill="#000000" d="M 42.464844 58.128906 L 38.824219 58.128906 C 38.476562 58.128906 38.195312 57.847656 38.195312 57.503906 C 38.195312 57.15625 38.476562 56.875 38.824219 56.875 L 42.464844 56.875 C 42.808594 56.875 43.089844 57.15625 43.089844 57.503906 C 43.089844 57.847656 42.808594 58.128906 42.464844 58.128906 " fill-opacity="1" fill-rule="nonzero"/><path fill="#000000" d="M 48.289062 61.117188 L 38.824219 61.117188 C 38.476562 61.117188 38.195312 60.835938 38.195312 60.488281 C 38.195312 60.144531 38.476562 59.859375 38.824219 59.859375 L 48.289062 59.859375 C 48.636719 59.859375 48.917969 60.144531 48.917969 60.488281 C 48.917969 60.835938 48.636719 61.117188 48.289062 61.117188 " fill-opacity="1" fill-rule="nonzero"/><path fill="#000000" d="M 42.460938 64.109375 L 38.820312 64.109375 C 38.476562 64.109375 38.195312 63.828125 38.195312 63.480469 C 38.195312 63.132812 38.476562 62.851562 38.820312 62.851562 L 42.460938 62.851562 C 42.808594 62.851562 43.089844 63.132812 43.089844 63.480469 C 43.089844 63.828125 42.808594 64.109375 42.460938 64.109375 " fill-opacity="1" fill-rule="nonzero"/><path fill="#000000" d="M 42.464844 67.09375 L 38.824219 67.09375 C 38.476562 67.09375 38.195312 66.8125 38.195312 66.464844 C 38.195312 66.117188 38.476562 65.835938 38.824219 65.835938 L 42.464844 65.835938 C 42.808594 65.835938 43.089844 66.117188 43.089844 66.464844 C 43.089844 66.8125 42.808594 67.09375 42.464844 67.09375 " fill-opacity="1" fill-rule="nonzero"/><path fill="#000000" d="M 42.460938 70.082031 L 38.820312 70.082031 C 38.476562 70.082031 38.195312 69.804688 38.195312 69.457031 C 38.195312 69.109375 38.476562 68.828125 38.820312 68.828125 L 42.460938 68.828125 C 42.808594 68.828125 43.089844 69.109375 43.089844 69.457031 C 43.089844 69.804688 42.808594 70.082031 42.460938 70.082031 " fill-opacity="1" fill-rule="nonzero"/><path fill="#000000" d="M 48.289062 73.070312 L 38.824219 73.070312 C 38.476562 73.070312 38.195312 72.789062 38.195312 72.441406 C 38.195312 72.09375 38.476562 71.8125 38.824219 71.8125 L 48.289062 71.8125 C 48.636719 71.8125 48.917969 72.09375 48.917969 72.441406 C 48.917969 72.789062 48.636719 73.070312 48.289062 73.070312 " fill-opacity="1" fill-rule="nonzero"/><path fill="#000000" d="M 42.460938 76.058594 L 38.820312 76.058594 C 38.476562 76.058594 38.195312 75.78125 38.195312 75.433594 C 38.195312 75.085938 38.476562 74.804688 38.820312 74.804688 L 42.460938 74.804688 C 42.808594 74.804688 43.089844 75.085938 43.089844 75.433594 C 43.089844 75.78125 42.808594 76.058594 42.460938 76.058594 " fill-opacity="1" fill-rule="nonzero"/><path fill="#000000" d="M 42.464844 79.046875 L 38.824219 79.046875 C 38.476562 79.046875 38.195312 78.765625 38.195312 78.417969 C 38.195312 78.074219 38.476562 77.789062 38.824219 77.789062 L 42.464844 77.789062 C 42.808594 77.789062 43.089844 78.074219 43.089844 78.417969 C 43.089844 78.765625 42.808594 79.046875 42.464844 79.046875 " fill-opacity="1" fill-rule="nonzero"/><path fill="#000000" d="M 42.460938 82.039062 L 38.820312 82.039062 C 38.476562 82.039062 38.195312 81.757812 38.195312 81.410156 C 38.195312 81.0625 38.476562 80.78125 38.820312 80.78125 L 42.460938 80.78125 C 42.808594 80.78125 43.089844 81.0625 43.089844 81.410156 C 43.089844 81.757812 42.808594 82.039062 42.460938 82.039062 " fill-opacity="1" fill-rule="nonzero"/><path fill="#000000" d="M 48.289062 85.023438 L 38.824219 85.023438 C 38.476562 85.023438 38.195312 84.742188 38.195312 84.394531 C 38.195312 84.046875 38.476562 83.765625 38.824219 83.765625 L 48.289062 83.765625 C 48.636719 83.765625 48.917969 84.046875 48.917969 84.394531 C 48.917969 84.742188 48.636719 85.023438 48.289062 85.023438 " fill-opacity="1" fill-rule="nonzero"/><path fill="#000000" d="M 42.464844 88.007812 L 38.824219 88.007812 C 38.476562 88.007812 38.195312 87.730469 38.195312 87.382812 C 38.195312 87.035156 38.476562 86.753906 38.824219 86.753906 L 42.464844 86.753906 C 42.8125 86.753906 43.089844 87.035156 43.089844 87.382812 C 43.089844 87.730469 42.8125 88.007812 42.464844 88.007812 " fill-opacity="1" fill-rule="nonzero"/><path fill="#000000" d="M 42.464844 91 L 38.824219 91 C 38.476562 91 38.195312 90.71875 38.195312 90.371094 C 38.195312 90.023438 38.476562 89.742188 38.824219 89.742188 L 42.464844 89.742188 C 42.808594 89.742188 43.089844 90.023438 43.089844 90.371094 C 43.089844 90.71875 42.808594 91 42.464844 91 " fill-opacity="1" fill-rule="nonzero"/><path fill="#000000" d="M 42.464844 93.984375 L 38.824219 93.984375 C 38.476562 93.984375 38.195312 93.703125 38.195312 93.359375 C 38.195312 93.011719 38.476562 92.730469 38.824219 92.730469 L 42.464844 92.730469 C 42.8125 92.730469 43.089844 93.011719 43.089844 93.359375 C 43.089844 93.703125 42.8125 93.984375 42.464844 93.984375 " fill-opacity="1" fill-rule="nonzero"/><path fill="#000000" d="M 48.289062 96.976562 L 38.820312 96.976562 C 38.476562 96.976562 38.195312 96.695312 38.195312 96.347656 C 38.195312 96 38.476562 95.71875 38.820312 95.71875 L 48.289062 95.71875 C 48.632812 95.71875 48.917969 96 48.917969 96.347656 C 48.917969 96.695312 48.632812 96.976562 48.289062 96.976562 " fill-opacity="1" fill-rule="nonzero"/><path fill="#000000" d="M 42.464844 99.960938 L 38.824219 99.960938 C 38.476562 99.960938 38.195312 99.679688 38.195312 99.332031 C 38.195312 98.988281 38.476562 98.707031 38.824219 98.707031 L 42.464844 98.707031 C 42.808594 98.707031 43.089844 98.988281 43.089844 99.332031 C 43.089844 99.679688 42.808594 99.960938 42.464844 99.960938 " fill-opacity="1" fill-rule="nonzero"/><path fill="#000000" d="M 42.460938 102.953125 L 38.820312 102.953125 C 38.476562 102.953125 38.195312 102.671875 38.195312 102.324219 C 38.195312 101.976562 38.476562 101.695312 38.820312 101.695312 L 42.460938 101.695312 C 42.808594 101.695312 43.089844 101.976562 43.089844 102.324219 C 43.089844 102.671875 42.808594 102.953125 42.460938 102.953125 " fill-opacity="1" fill-rule="nonzero"/><path fill="#000000" d="M 42.464844 105.9375 L 38.824219 105.9375 C 38.476562 105.9375 38.195312 105.65625 38.195312 105.308594 C 38.195312 104.964844 38.476562 104.683594 38.824219 104.683594 L 42.464844 104.683594 C 42.808594 104.683594 43.089844 104.964844 43.089844 105.308594 C 43.089844 105.65625 42.808594 105.9375 42.464844 105.9375 " fill-opacity="1" fill-rule="nonzero"/><path fill="#000000" d="M 48.289062 108.929688 L 38.820312 108.929688 C 38.476562 108.929688 38.195312 108.648438 38.195312 108.300781 C 38.195312 107.953125 38.476562 107.671875 38.820312 107.671875 L 48.289062 107.671875 C 48.632812 107.671875 48.917969 107.953125 48.917969 108.300781 C 48.917969 108.648438 48.632812 108.929688 48.289062 108.929688 " fill-opacity="1" fill-rule="nonzero"/><path fill="#000000" d="M 42.464844 111.917969 L 38.824219 111.917969 C 38.476562 111.917969 38.195312 111.632812 38.195312 111.285156 C 38.195312 110.941406 38.476562 110.65625 38.824219 110.65625 L 42.464844 110.65625 C 42.808594 110.65625 43.089844 110.941406 43.089844 111.285156 C 43.089844 111.632812 42.808594 111.917969 42.464844 111.917969 " fill-opacity="1" fill-rule="nonzero"/><path fill="#000000" d="M 42.460938 114.90625 L 38.820312 114.90625 C 38.476562 114.90625 38.195312 114.625 38.195312 114.277344 C 38.195312 113.929688 38.476562 113.648438 38.820312 113.648438 L 42.460938 113.648438 C 42.808594 113.648438 43.089844 113.929688 43.089844 114.277344 C 43.089844 114.625 42.808594 114.90625 42.460938 114.90625 " fill-opacity="1" fill-rule="nonzero"/><path fill="#000000" d="M 42.464844 117.890625 L 38.824219 117.890625 C 38.476562 117.890625 38.195312 117.609375 38.195312 117.261719 C 38.195312 116.917969 38.476562 116.636719 38.824219 116.636719 L 42.464844 116.636719 C 42.808594 116.636719 43.089844 116.917969 43.089844 117.261719 C 43.089844 117.609375 42.808594 117.890625 42.464844 117.890625 " fill-opacity="1" fill-rule="nonzero"/><path fill="#ffffff" d="M 313.28125 147.542969 C 306.777344 135.792969 296.933594 125.652344 284.660156 118.070312 C 270.835938 109.527344 261.265625 110.925781 248.554688 122.847656 C 237.457031 133.257812 226.359375 143.664062 215.261719 154.074219 C 213.28125 155.933594 211.226562 157.835938 208.6875 158.796875 C 206.074219 159.785156 203.1875 159.683594 200.464844 160.320312 C 186.707031 163.535156 174.878906 183.007812 168.199219 194.089844 C 161.355469 205.445312 154.511719 216.800781 147.667969 228.15625 L 218.0625 243.855469 L 267.519531 224.59375 L 320.109375 231.796875 L 356.496094 225.667969 L 313.28125 147.542969 " fill-opacity="1" fill-rule="nonzero"/><path fill="#000000" d="M 148.65625 227.730469 L 218.011719 243.199219 L 267.289062 224.007812 C 267.390625 223.96875 267.5 223.957031 267.605469 223.96875 L 320.097656 231.160156 L 355.515625 225.195312 L 312.730469 147.847656 C 306.296875 136.222656 296.480469 126.109375 284.332031 118.601562 C 270.832031 110.261719 261.582031 111.492188 248.984375 123.304688 L 215.691406 154.527344 C 213.777344 156.328125 211.605469 158.363281 208.910156 159.382812 C 207.277344 160.003906 205.550781 160.210938 203.878906 160.414062 C 202.796875 160.546875 201.671875 160.683594 200.613281 160.929688 C 187 164.109375 175.121094 183.824219 168.738281 194.414062 C 163.949219 202.363281 159.15625 210.3125 154.363281 218.261719 Z M 218.0625 244.484375 C 218.015625 244.484375 217.96875 244.476562 217.925781 244.46875 L 147.53125 228.765625 C 147.335938 228.722656 147.171875 228.585938 147.089844 228.402344 C 147.011719 228.214844 147.027344 228.003906 147.128906 227.832031 L 153.289062 217.613281 C 158.082031 209.664062 162.875 201.714844 167.664062 193.765625 C 174.140625 183.015625 186.199219 163.007812 200.324219 159.707031 C 201.453125 159.445312 202.609375 159.304688 203.726562 159.167969 C 205.398438 158.964844 206.972656 158.773438 208.464844 158.210938 C 210.925781 157.28125 213.003906 155.332031 214.832031 153.613281 L 248.125 122.386719 C 261.074219 110.242188 271.066406 108.929688 284.992188 117.535156 C 297.320312 125.15625 307.296875 135.425781 313.832031 147.238281 L 357.046875 225.363281 C 357.144531 225.539062 357.148438 225.753906 357.058594 225.9375 C 356.972656 226.125 356.800781 226.253906 356.601562 226.285156 L 320.214844 232.417969 C 320.15625 232.425781 320.089844 232.429688 320.027344 232.417969 L 267.59375 225.238281 L 218.289062 244.4375 C 218.214844 244.46875 218.140625 244.484375 218.0625 244.484375 " fill-opacity="1" fill-rule="nonzero"/><path fill="#caddff" d="M 338.355469 199.394531 C 337.152344 197.273438 335.773438 195.246094 334.246094 193.332031 L 302.917969 154.121094 C 299.160156 149.417969 293.714844 146.246094 287.652344 145.230469 L 276.675781 143.394531 C 271.453125 142.402344 266.046875 143.589844 261.78125 146.660156 L 253.863281 152.363281 L 243.464844 151.105469 C 238.40625 150.496094 233.386719 152.503906 230.261719 156.394531 L 206.707031 185.679688 L 200.703125 181.753906 C 195.132812 178.113281 187.554688 179.542969 183.816406 184.941406 L 163.96875 220.726562 L 202.699219 238.332031 L 232.796875 233.40625 L 352.507812 224.246094 L 338.355469 199.394531 " fill-opacity="1" fill-rule="nonzero"/><path fill="#ffffff" d="M 293.992188 196.070312 C 288.777344 194.773438 282.234375 198.351562 278.019531 194.878906 C 275.25 192.589844 275.050781 188.285156 272.5625 185.695312 C 269.300781 182.300781 263.757812 183.175781 259.191406 184.308594 C 233.238281 190.738281 210.796875 218.511719 190.597656 235.917969 L 218.058594 243.855469 L 267.15625 235.71875 L 320.109375 234.046875 L 352.507812 229.609375 C 339.390625 217.980469 327.421875 204.996094 308.902344 203.261719 C 306.667969 203.054688 304.339844 203.011719 302.34375 201.996094 C 299.742188 200.664062 298.113281 197.871094 295.484375 196.601562 C 295 196.371094 294.5 196.195312 293.992188 196.070312 " fill-opacity="1" fill-rule="nonzero"/><path fill="#000000" d="M 191.882812 235.632812 L 218.101562 243.210938 L 267.050781 235.097656 C 267.082031 235.09375 267.105469 235.089844 267.136719 235.089844 L 320.058594 233.421875 L 351.074219 229.167969 C 349.808594 228.039062 348.546875 226.890625 347.320312 225.773438 C 335.785156 215.289062 324.890625 205.390625 308.839844 203.886719 C 308.511719 203.859375 308.179688 203.832031 307.84375 203.800781 C 305.890625 203.644531 303.867188 203.476562 302.058594 202.554688 C 300.699219 201.859375 299.605469 200.804688 298.546875 199.785156 C 297.472656 198.75 296.460938 197.769531 295.210938 197.167969 C 294.785156 196.964844 294.324219 196.800781 293.839844 196.679688 C 291.8125 196.171875 289.480469 196.460938 287.226562 196.734375 C 283.828125 197.152344 280.308594 197.582031 277.621094 195.363281 C 276.03125 194.046875 275.238281 192.148438 274.472656 190.320312 C 273.8125 188.746094 273.195312 187.257812 272.109375 186.128906 C 269.117188 183.015625 263.976562 183.769531 259.339844 184.917969 C 240.019531 189.707031 222.246094 206.820312 206.566406 221.917969 C 201.472656 226.824219 196.644531 231.476562 191.882812 235.632812 Z M 218.058594 244.484375 C 218.003906 244.484375 217.945312 244.472656 217.886719 244.457031 L 190.425781 236.519531 C 190.203125 236.457031 190.035156 236.273438 189.984375 236.050781 C 189.933594 235.824219 190.015625 235.589844 190.1875 235.441406 C 195.207031 231.117188 200.300781 226.210938 205.695312 221.015625 C 221.488281 205.804688 239.390625 188.566406 259.039062 183.699219 C 264.023438 182.460938 269.582031 181.683594 273.015625 185.257812 C 274.261719 186.558594 274.957031 188.222656 275.628906 189.835938 C 276.371094 191.605469 277.070312 193.273438 278.421875 194.390625 C 280.695312 196.269531 283.792969 195.890625 287.074219 195.488281 C 289.441406 195.199219 291.890625 194.898438 294.144531 195.460938 C 294.710938 195.601562 295.253906 195.796875 295.753906 196.035156 C 297.1875 196.726562 298.320312 197.820312 299.417969 198.878906 C 300.457031 199.878906 301.4375 200.824219 302.628906 201.433594 C 304.21875 202.246094 306.113281 202.402344 307.949219 202.550781 C 308.285156 202.578125 308.625 202.605469 308.960938 202.636719 C 325.425781 204.175781 336.984375 214.683594 348.164062 224.84375 C 349.71875 226.257812 351.328125 227.71875 352.929688 229.136719 C 353.113281 229.300781 353.183594 229.554688 353.113281 229.789062 C 353.039062 230.023438 352.839844 230.195312 352.597656 230.230469 L 320.199219 234.671875 C 320.171875 234.671875 320.152344 234.675781 320.128906 234.675781 L 267.21875 236.34375 L 218.164062 244.472656 C 218.128906 244.480469 218.09375 244.484375 218.058594 244.484375 " fill-opacity="1" fill-rule="nonzero"/><path fill="#ffffff" d="M 184.039062 140.625 C 177.539062 127.472656 167.691406 116.121094 155.421875 107.632812 L 146.445312 101.425781 C 142.917969 98.984375 138.027344 99.65625 135.34375 102.953125 L 126.101562 114.3125 C 124.074219 116.800781 121.257812 118.582031 118.082031 119.375 L 103.476562 123.023438 C 98.816406 124.183594 95.238281 127.789062 94.230469 132.332031 L 92.816406 138.71875 C 91.90625 142.828125 86.515625 144.152344 83.683594 140.964844 L 81.480469 138.484375 C 79.117188 135.824219 74.976562 135.507812 72.207031 137.769531 L 68.550781 140.761719 C 66.71875 142.257812 65.195312 144.074219 64.0625 146.117188 L 18.429688 230.867188 L 88.820312 248.441406 L 138.28125 226.878906 L 190.871094 234.945312 L 227.257812 228.082031 L 184.039062 140.625 " fill-opacity="1" fill-rule="nonzero"/><path fill="#000000" d="M 19.367188 230.449219 L 88.765625 247.78125 L 138.027344 226.304688 C 138.136719 226.257812 138.257812 226.238281 138.375 226.257812 L 190.859375 234.308594 L 226.324219 227.617188 L 183.476562 140.902344 C 177.042969 127.882812 167.214844 116.554688 155.0625 108.148438 L 146.089844 101.941406 C 142.820312 99.679688 138.3125 100.296875 135.832031 103.351562 L 126.589844 114.707031 C 124.488281 117.289062 121.523438 119.164062 118.234375 119.984375 L 103.628906 123.632812 C 99.171875 124.742188 95.804688 128.132812 94.84375 132.46875 L 93.429688 138.859375 C 92.957031 140.992188 91.375 142.601562 89.199219 143.167969 C 86.996094 143.742188 84.703125 143.054688 83.214844 141.382812 L 81.011719 138.902344 C 78.875 136.5 75.105469 136.214844 72.605469 138.257812 L 68.945312 141.25 C 67.167969 142.699219 65.710938 144.441406 64.609375 146.421875 Z M 88.820312 249.070312 C 88.769531 249.070312 88.71875 249.0625 88.667969 249.050781 L 18.277344 231.476562 C 18.089844 231.429688 17.933594 231.296875 17.855469 231.121094 C 17.777344 230.941406 17.785156 230.738281 17.875 230.570312 L 63.507812 145.820312 C 64.691406 143.691406 66.25 141.828125 68.152344 140.273438 L 71.808594 137.285156 C 74.824219 134.816406 79.375 135.167969 81.949219 138.066406 L 84.152344 140.546875 C 85.328125 141.867188 87.140625 142.40625 88.882812 141.953125 C 90.59375 141.507812 91.832031 140.25 92.203125 138.585938 L 93.617188 132.195312 C 94.683594 127.390625 98.402344 123.640625 103.324219 122.414062 L 117.929688 118.765625 C 120.953125 118.007812 123.683594 116.285156 125.613281 113.914062 L 134.855469 102.558594 C 137.75 99 142.996094 98.277344 146.804688 100.910156 L 155.777344 107.117188 C 168.105469 115.640625 178.070312 127.136719 184.601562 140.347656 L 227.820312 227.804688 C 227.90625 227.980469 227.902344 228.1875 227.816406 228.363281 C 227.730469 228.539062 227.5625 228.664062 227.371094 228.699219 L 190.988281 235.5625 C 190.917969 235.574219 190.84375 235.578125 190.773438 235.566406 L 138.363281 227.53125 L 89.074219 249.015625 C 88.992188 249.050781 88.90625 249.070312 88.820312 249.070312 " fill-opacity="1" fill-rule="nonzero"/><path fill="#caddff" d="M 209.117188 203.980469 C 207.910156 201.859375 206.535156 199.832031 205.003906 197.917969 L 173.679688 158.707031 C 169.921875 154.003906 164.476562 150.832031 158.410156 149.816406 L 147.4375 147.980469 C 142.214844 146.992188 136.808594 148.175781 132.542969 151.246094 L 124.625 156.945312 L 114.226562 155.691406 C 109.167969 155.082031 104.148438 157.089844 101.023438 160.976562 L 77.46875 190.265625 L 71.464844 186.339844 C 65.894531 182.699219 58.316406 184.128906 54.574219 189.527344 L 31.195312 229.46875 L 73.464844 242.917969 L 103.554688 237.992188 L 223.269531 228.832031 L 209.117188 203.980469 " fill-opacity="1" fill-rule="nonzero"/><path fill="#ffffff" d="M 167.8125 161.164062 C 163.472656 155.863281 155.273438 155.503906 150.449219 160.402344 L 147.636719 163.261719 C 145.484375 165.445312 141.957031 165.675781 139.523438 163.792969 L 138.488281 162.992188 C 135.625 160.777344 131.632812 160.550781 128.519531 162.421875 L 124.179688 165.03125 C 121.878906 166.417969 119.832031 168.160156 118.121094 170.1875 L 61.359375 237.515625 L 88.820312 248.441406 L 137.082031 245.304688 L 190.871094 234.945312 L 223.269531 228.832031 L 167.8125 161.164062 " fill-opacity="1" fill-rule="nonzero"/><path fill="#000000" d="M 62.402344 237.253906 L 88.921875 247.804688 L 137.003906 244.683594 L 190.753906 234.328125 L 222.113281 228.410156 L 167.328125 161.5625 C 165.375 159.179688 162.449219 157.730469 159.304688 157.589844 C 156.144531 157.433594 153.078125 158.628906 150.898438 160.84375 L 148.082031 163.703125 C 145.691406 166.132812 141.847656 166.382812 139.136719 164.289062 L 138.101562 163.488281 C 135.449219 161.4375 131.730469 161.226562 128.84375 162.960938 L 124.503906 165.570312 C 122.257812 166.925781 120.273438 168.613281 118.601562 170.59375 Z M 88.824219 249.070312 C 88.742188 249.070312 88.664062 249.054688 88.589844 249.023438 L 61.128906 238.101562 C 60.941406 238.023438 60.800781 237.867188 60.75 237.667969 C 60.703125 237.472656 60.75 237.265625 60.878906 237.109375 L 117.640625 169.785156 C 119.402344 167.699219 121.492188 165.917969 123.855469 164.496094 L 128.199219 161.882812 C 131.523438 159.882812 135.8125 160.128906 138.871094 162.496094 L 139.90625 163.296875 C 142.078125 164.972656 145.273438 164.761719 147.1875 162.820312 L 150.003906 159.960938 C 152.429688 157.496094 155.839844 156.167969 159.359375 156.332031 C 162.863281 156.492188 166.121094 158.109375 168.300781 160.765625 L 223.757812 228.433594 C 223.898438 228.605469 223.9375 228.839844 223.859375 229.046875 C 223.785156 229.253906 223.605469 229.410156 223.386719 229.449219 L 190.988281 235.558594 L 137.203125 245.921875 C 137.175781 245.929688 137.152344 245.933594 137.125 245.933594 L 88.863281 249.066406 C 88.847656 249.066406 88.835938 249.070312 88.824219 249.070312 " fill-opacity="1" fill-rule="nonzero"/><path fill="#0c2840" d="M 90.746094 214.765625 C 90.609375 214.765625 90.46875 214.71875 90.351562 214.625 C 90.082031 214.40625 90.042969 214.011719 90.257812 213.742188 C 101.195312 200.226562 120.03125 177.09375 120.21875 176.859375 C 120.4375 176.589844 120.832031 176.550781 121.101562 176.769531 C 121.371094 176.988281 121.414062 177.382812 121.191406 177.652344 C 121.003906 177.886719 102.167969 201.015625 91.234375 214.53125 C 91.113281 214.6875 90.929688 214.765625 90.746094 214.765625 " fill-opacity="1" fill-rule="nonzero"/><path fill="#0c2840" d="M 13.167969 235.304688 C 13.828125 256.40625 24.132812 277.359375 25.691406 280.46875 C 56.074219 341.015625 138.816406 357.617188 181.335938 360.117188 C 203.84375 361.441406 268.089844 360.207031 307.652344 325.722656 C 341.621094 296.117188 357.132812 256.34375 359.003906 235.304688 C 259.238281 239.472656 180.871094 227.714844 138.335938 247.8125 L 13.167969 235.304688 " fill-opacity="1" fill-rule="nonzero"/><path fill="#ffffff" d="M 135.578125 259.972656 C 133.023438 259.972656 130.328125 259.859375 127.464844 259.625 C 111.996094 258.335938 101.175781 254.023438 91.625 250.21875 C 80.789062 245.898438 71.425781 242.171875 55.675781 242.375 C 46.070312 242.5 36.398438 244.0625 26.933594 247.019531 C 22.21875 248.492188 16.578125 247.183594 14.328125 244.097656 C 12.082031 241.007812 14.078125 237.3125 18.792969 235.84375 C 30.699219 232.121094 42.984375 230.152344 55.296875 229.992188 C 76.554688 229.71875 89.785156 234.988281 101.457031 239.636719 C 110.539062 243.257812 118.382812 246.382812 129.851562 247.339844 C 143.941406 248.511719 151.472656 245.320312 161.894531 240.90625 C 173.167969 236.128906 187.195312 230.1875 211.867188 229.523438 C 230.089844 229.035156 242.023438 231.789062 252.554688 234.214844 C 262.839844 236.585938 272.554688 238.828125 288.632812 238.261719 C 308.476562 237.5625 325.714844 233.542969 343.785156 226.054688 C 348.203125 224.230469 354.042969 225.089844 356.832031 227.976562 C 359.625 230.871094 358.308594 234.695312 353.890625 236.519531 C 333.050781 245.152344 312.757812 249.8125 289.652344 250.625 C 269.820312 251.324219 257.3125 248.441406 246.273438 245.898438 C 236.054688 243.542969 227.230469 241.507812 212.640625 241.898438 C 193.128906 242.421875 182.949219 246.734375 172.167969 251.300781 C 162.085938 255.574219 151.707031 259.972656 135.578125 259.972656 " fill-opacity="1" fill-rule="nonzero"/><path fill="#19598f" d="M 135.578125 255.375 C 133.023438 255.375 130.328125 255.261719 127.464844 255.023438 C 111.996094 253.738281 101.175781 249.421875 91.625 245.617188 C 80.789062 241.300781 71.425781 237.574219 55.675781 237.777344 C 46.070312 237.902344 36.398438 239.464844 26.933594 242.421875 C 22.21875 243.894531 16.578125 242.585938 14.328125 239.496094 C 12.082031 236.410156 14.078125 232.714844 18.792969 231.246094 C 30.699219 227.523438 42.984375 225.554688 55.296875 225.394531 C 76.554688 225.117188 89.785156 230.386719 101.457031 235.039062 C 110.539062 238.660156 118.382812 241.785156 129.851562 242.738281 C 143.941406 243.914062 151.472656 240.722656 161.894531 236.304688 C 173.167969 231.527344 187.195312 225.585938 211.867188 224.925781 C 230.089844 224.4375 242.023438 227.1875 252.554688 229.617188 C 262.839844 231.988281 272.554688 234.226562 288.632812 233.660156 C 307.257812 233.007812 325.8125 228.898438 343.785156 221.457031 C 348.203125 219.628906 354.042969 220.488281 356.832031 223.378906 C 359.625 226.269531 358.308594 230.09375 353.890625 231.921875 C 333.15625 240.511719 311.542969 245.257812 289.652344 246.027344 C 269.820312 246.726562 257.3125 243.84375 246.273438 241.296875 C 236.054688 238.941406 227.230469 236.910156 212.640625 237.300781 C 193.128906 237.824219 182.949219 242.136719 172.167969 246.703125 C 162.085938 250.976562 151.707031 255.375 135.578125 255.375 " fill-opacity="1" fill-rule="nonzero"/><path fill="#19598f" d="M 72.164062 266.152344 C 72.164062 270.777344 68.28125 274.523438 63.492188 274.523438 C 58.707031 274.523438 54.824219 270.777344 54.824219 266.152344 C 54.824219 261.53125 63.492188 250.28125 63.492188 250.28125 C 63.492188 250.28125 72.164062 261.53125 72.164062 266.152344 " fill-opacity="1" fill-rule="nonzero"/><path fill="#ffffff" d="M 63.492188 271.804688 C 60.277344 271.804688 57.664062 269.269531 57.664062 266.152344 C 57.664062 263.769531 61.726562 257.609375 62.972656 255.777344 C 63.167969 255.488281 63.558594 255.414062 63.847656 255.609375 C 64.132812 255.804688 64.207031 256.195312 64.011719 256.480469 C 61.015625 260.890625 58.921875 264.867188 58.921875 266.152344 C 58.921875 268.574219 60.972656 270.546875 63.492188 270.546875 C 64.71875 270.546875 65.867188 270.085938 66.734375 269.25 C 66.984375 269.011719 67.378906 269.015625 67.621094 269.265625 C 67.863281 269.515625 67.855469 269.914062 67.605469 270.15625 C 66.503906 271.21875 65.042969 271.804688 63.492188 271.804688 " fill-opacity="1" fill-rule="nonzero"/><path fill="#ffffff" d="M 68.695312 266.78125 C 68.347656 266.78125 68.066406 266.5 68.066406 266.152344 C 68.066406 265.855469 67.921875 264.898438 66.601562 262.398438 C 66.4375 262.09375 66.554688 261.710938 66.859375 261.550781 C 67.167969 261.386719 67.546875 261.503906 67.710938 261.8125 C 68.796875 263.859375 69.324219 265.28125 69.324219 266.152344 C 69.324219 266.5 69.042969 266.78125 68.695312 266.78125 " fill-opacity="1" fill-rule="nonzero"/><path fill="#19598f" d="M 218.710938 341.613281 C 218.710938 346.234375 214.832031 349.980469 210.042969 349.980469 C 205.253906 349.980469 201.375 346.234375 201.375 341.613281 C 201.375 336.992188 210.042969 325.742188 210.042969 325.742188 C 210.042969 325.742188 218.710938 336.992188 218.710938 341.613281 " fill-opacity="1" fill-rule="nonzero"/><path fill="#ffffff" d="M 210.042969 347.261719 C 206.828125 347.261719 204.214844 344.730469 204.214844 341.613281 C 204.214844 339.226562 208.277344 333.066406 209.523438 331.234375 C 209.71875 330.949219 210.109375 330.875 210.394531 331.070312 C 210.683594 331.265625 210.757812 331.65625 210.5625 331.941406 C 207.5625 336.351562 205.46875 340.328125 205.46875 341.613281 C 205.46875 344.035156 207.523438 346.007812 210.042969 346.007812 C 211.265625 346.007812 212.417969 345.546875 213.28125 344.710938 C 213.535156 344.46875 213.929688 344.476562 214.171875 344.726562 C 214.414062 344.976562 214.40625 345.375 214.15625 345.613281 C 213.054688 346.675781 211.59375 347.261719 210.042969 347.261719 " fill-opacity="1" fill-rule="nonzero"/><path fill="#ffffff" d="M 215.242188 342.242188 C 214.898438 342.242188 214.617188 341.960938 214.617188 341.613281 C 214.617188 341.316406 214.472656 340.359375 213.148438 337.859375 C 212.988281 337.550781 213.105469 337.171875 213.410156 337.007812 C 213.71875 336.847656 214.097656 336.964844 214.257812 337.269531 C 215.34375 339.320312 215.875 340.742188 215.875 341.613281 C 215.875 341.960938 215.589844 342.242188 215.242188 342.242188 " fill-opacity="1" fill-rule="nonzero"/><path fill="#19598f" d="M 98.445312 286.167969 C 98.445312 290.785156 94.566406 294.53125 89.777344 294.53125 C 84.992188 294.53125 81.109375 290.785156 81.109375 286.167969 C 81.109375 281.542969 89.777344 270.289062 89.777344 270.289062 C 89.777344 270.289062 98.445312 281.542969 98.445312 286.167969 " fill-opacity="1" fill-rule="nonzero"/><path fill="#ffffff" d="M 89.777344 291.816406 C 86.5625 291.816406 83.949219 289.28125 83.949219 286.167969 C 83.949219 283.78125 88.011719 277.621094 89.257812 275.789062 C 89.453125 275.5 89.84375 275.425781 90.132812 275.621094 C 90.417969 275.816406 90.492188 276.207031 90.296875 276.492188 C 87.300781 280.902344 85.207031 284.878906 85.207031 286.167969 C 85.207031 288.585938 87.257812 290.558594 89.777344 290.558594 C 91 290.558594 92.152344 290.097656 93.015625 289.261719 C 93.265625 289.019531 93.664062 289.027344 93.90625 289.277344 C 94.148438 289.527344 94.140625 289.925781 93.890625 290.167969 C 92.789062 291.230469 91.328125 291.816406 89.777344 291.816406 " fill-opacity="1" fill-rule="nonzero"/><path fill="#ffffff" d="M 94.980469 286.792969 C 94.632812 286.792969 94.351562 286.511719 94.351562 286.167969 C 94.351562 285.867188 94.207031 284.910156 92.882812 282.410156 C 92.722656 282.101562 92.839844 281.722656 93.144531 281.558594 C 93.453125 281.398438 93.832031 281.515625 93.996094 281.824219 C 95.082031 283.871094 95.609375 285.292969 95.609375 286.167969 C 95.609375 286.511719 95.324219 286.792969 94.980469 286.792969 " fill-opacity="1" fill-rule="nonzero"/><path fill="#ffffff" d="M 272.328125 294.257812 C 271.597656 293.105469 270.757812 291.996094 269.816406 290.949219 L 250.5625 269.449219 C 248.253906 266.867188 244.847656 265.074219 241.019531 264.421875 L 234.089844 263.238281 C 230.796875 262.617188 227.351562 263.152344 224.601562 264.710938 L 219.492188 267.609375 L 212.917969 266.75 C 209.722656 266.328125 206.507812 267.308594 204.464844 269.328125 L 194.664062 282.9375 C 194.664062 282.9375 171.425781 309.453125 182.441406 309.964844 L 193.226562 311.796875 C 200.179688 312.433594 210.242188 308.664062 219.191406 309.507812 C 234.8125 310.96875 253.871094 310.765625 270.441406 308.152344 C 275.308594 307.980469 278.257812 303.59375 275.949219 299.957031 L 272.328125 294.257812 " fill-opacity="1" fill-rule="nonzero"/><path fill="#000000" d="M 193.308594 311.171875 C 196.46875 311.457031 200.355469 310.800781 204.476562 310.101562 C 209.355469 309.277344 214.402344 308.425781 219.25 308.878906 C 236.203125 310.46875 254.828125 309.980469 270.339844 307.53125 C 270.367188 307.527344 270.394531 307.527344 270.417969 307.523438 C 272.710938 307.441406 274.707031 306.308594 275.621094 304.570312 C 276.347656 303.195312 276.273438 301.636719 275.417969 300.292969 L 271.796875 294.59375 C 271.085938 293.472656 270.261719 292.386719 269.347656 291.367188 L 250.09375 269.867188 C 247.875 267.386719 244.613281 265.671875 240.914062 265.042969 L 233.988281 263.859375 C 230.832031 263.265625 227.527344 263.773438 224.910156 265.257812 L 219.804688 268.15625 C 219.683594 268.222656 219.546875 268.25 219.410156 268.230469 L 212.839844 267.375 C 209.863281 266.984375 206.84375 267.890625 204.945312 269.738281 L 195.175781 283.304688 C 195.160156 283.320312 195.148438 283.335938 195.136719 283.351562 C 190.375 288.785156 178.425781 303.84375 180.285156 308.214844 C 180.394531 308.472656 180.730469 309.253906 182.46875 309.335938 C 182.492188 309.335938 182.519531 309.339844 182.542969 309.34375 Z M 194.917969 312.496094 C 194.316406 312.496094 193.734375 312.472656 193.167969 312.421875 C 193.15625 312.421875 193.136719 312.417969 193.121094 312.414062 L 182.371094 310.589844 C 180.714844 310.503906 179.625 309.871094 179.128906 308.707031 C 176.632812 302.84375 192.273438 284.710938 194.171875 282.546875 L 203.957031 268.960938 C 203.976562 268.933594 204 268.90625 204.023438 268.882812 C 206.191406 266.738281 209.632812 265.6875 213 266.128906 L 219.367188 266.960938 L 224.289062 264.164062 C 227.164062 262.535156 230.777344 261.976562 234.207031 262.625 L 241.125 263.804688 C 245.101562 264.480469 248.621094 266.335938 251.03125 269.027344 L 270.285156 290.527344 C 271.246094 291.601562 272.109375 292.742188 272.859375 293.917969 L 276.476562 299.621094 C 277.582031 301.355469 277.675781 303.375 276.738281 305.15625 C 275.617188 307.28125 273.226562 308.667969 270.5 308.777344 C 254.894531 311.238281 236.175781 311.730469 219.132812 310.128906 C 214.449219 309.691406 209.484375 310.53125 204.683594 311.34375 C 201.1875 311.933594 197.855469 312.496094 194.917969 312.496094 " fill-opacity="1" fill-rule="nonzero"/><path fill="#caddff" d="M 213.285156 279.296875 L 192.601562 310.632812 C 196.015625 312.984375 209.261719 308.410156 218.894531 308.691406 L 224.652344 287.355469 L 222.332031 280.269531 C 221.15625 276.683594 215.417969 276.066406 213.285156 279.296875 " fill-opacity="1" fill-rule="nonzero"/><path fill="#caddff" d="M 242.960938 309.609375 C 245.300781 299.929688 247.757812 289.957031 248.1875 285.210938 C 248.253906 284.515625 249.136719 284.109375 249.875 284.4375 C 253.117188 285.867188 255.863281 288.695312 257.878906 293.589844 C 256.121094 298.199219 249.839844 303.835938 242.960938 309.609375 " fill-opacity="1" fill-rule="nonzero"/><path fill="#ffffff" d="M 155.742188 300.425781 C 153.253906 296.003906 143.117188 289.84375 138.414062 286.992188 L 134.976562 284.90625 C 133.625 284.085938 131.75 284.3125 130.722656 285.417969 L 127.183594 289.238281 C 126.40625 290.074219 125.328125 290.671875 124.109375 290.9375 L 118.515625 292.164062 C 116.730469 292.554688 115.359375 293.765625 114.976562 295.292969 L 114.433594 297.441406 C 114.085938 298.820312 112.019531 299.265625 110.933594 298.195312 L 110.089844 297.359375 C 109.1875 296.46875 107.597656 296.359375 106.539062 297.121094 L 105.136719 298.125 C 104.4375 298.628906 103.851562 299.242188 103.417969 299.925781 L 79.882812 323.03125 C 78.292969 324.589844 79.171875 327.078125 81.488281 327.574219 L 104.191406 332.445312 C 109.84375 333.660156 115.792969 333.214844 121.125 331.171875 L 131.847656 327.070312 L 151.992188 329.78125 L 169.074219 326.15625 C 174.570312 325.75 199.851562 323.320312 195.734375 320.09375 L 174.527344 314.640625 L 155.742188 300.425781 " fill-opacity="1" fill-rule="nonzero"/><path fill="#000000" d="M 108.167969 297.246094 C 107.71875 297.246094 107.265625 297.371094 106.90625 297.632812 L 105.503906 298.636719 C 104.867188 299.09375 104.34375 299.644531 103.949219 300.261719 C 103.925781 300.304688 103.894531 300.339844 103.859375 300.375 L 80.324219 323.476562 C 79.78125 324.011719 79.582031 324.707031 79.777344 325.386719 C 80.007812 326.171875 80.695312 326.761719 81.621094 326.960938 L 104.324219 331.832031 C 109.824219 333.015625 115.710938 332.570312 120.902344 330.585938 L 131.625 326.484375 C 131.722656 326.449219 131.828125 326.433594 131.929688 326.449219 L 151.96875 329.144531 L 168.945312 325.542969 C 168.972656 325.535156 169 325.53125 169.027344 325.527344 C 171.621094 325.335938 178.113281 324.738281 184.105469 323.84375 C 194.757812 322.253906 195.503906 320.957031 195.554688 320.796875 C 195.550781 320.796875 195.523438 320.746094 195.4375 320.667969 L 174.371094 315.25 C 174.289062 315.230469 174.214844 315.195312 174.148438 315.144531 L 155.363281 300.925781 C 155.296875 300.875 155.238281 300.808594 155.195312 300.734375 C 152.785156 296.449219 142.484375 290.199219 138.085938 287.527344 L 134.648438 285.441406 C 133.558594 284.78125 132.003906 284.960938 131.183594 285.84375 L 127.644531 289.664062 C 126.785156 290.589844 125.578125 291.257812 124.246094 291.550781 L 118.652344 292.777344 C 117.113281 293.113281 115.910156 294.164062 115.585938 295.445312 L 115.042969 297.59375 C 114.835938 298.414062 114.171875 299.058594 113.265625 299.308594 C 112.257812 299.589844 111.195312 299.332031 110.496094 298.640625 L 109.648438 297.808594 C 109.273438 297.4375 108.722656 297.246094 108.167969 297.246094 Z M 110.480469 333.738281 C 108.320312 333.738281 106.164062 333.511719 104.058594 333.0625 L 81.359375 328.1875 C 79.992188 327.898438 78.925781 326.957031 78.570312 325.738281 C 78.246094 324.617188 78.574219 323.433594 79.441406 322.582031 L 102.929688 299.527344 C 103.402344 298.796875 104.023438 298.152344 104.769531 297.613281 L 106.171875 296.609375 C 107.488281 295.667969 109.40625 295.800781 110.53125 296.914062 L 111.375 297.746094 C 111.753906 298.117188 112.363281 298.253906 112.929688 298.097656 C 113.394531 297.96875 113.726562 297.664062 113.824219 297.285156 L 114.367188 295.140625 C 114.8125 293.371094 116.351562 291.996094 118.382812 291.550781 L 123.976562 290.324219 C 125.0625 290.085938 126.039062 289.546875 126.722656 288.808594 L 130.261719 284.992188 C 131.488281 283.667969 133.703125 283.398438 135.304688 284.367188 L 138.738281 286.453125 C 143.5625 289.382812 153.546875 295.441406 156.226562 300 L 174.804688 314.066406 L 195.890625 319.488281 C 195.976562 319.507812 196.054688 319.546875 196.121094 319.601562 C 196.902344 320.214844 196.855469 320.839844 196.761719 321.15625 C 196.5625 321.804688 196.101562 323.324219 184.261719 325.089844 C 178.269531 325.984375 171.792969 326.585938 169.164062 326.777344 L 152.125 330.398438 C 152.054688 330.410156 151.980469 330.414062 151.910156 330.40625 L 131.921875 327.714844 L 121.351562 331.761719 C 117.921875 333.070312 114.203125 333.738281 110.480469 333.738281 " fill-opacity="1" fill-rule="nonzero"/><path fill="#caddff" d="M 117.460938 331.753906 L 119.53125 321.015625 L 117.105469 315.898438 L 127.265625 312.21875 L 132.871094 285.46875 L 131.402344 308.089844 L 131.402344 322.632812 L 146.875 328.421875 L 132.125 326.535156 L 117.460938 331.753906 " fill-opacity="1" fill-rule="nonzero"/><path fill="#caddff" d="M 79.941406 324.988281 L 99.871094 315.628906 L 107.414062 315.089844 L 104.988281 305.9375 L 107.414062 296.914062 C 92.882812 310.671875 78.402344 324.390625 79.941406 324.988281 " fill-opacity="1" fill-rule="nonzero"/><path fill="#000000" d="M 76.878906 110.664062 C 76.773438 110.664062 76.664062 110.636719 76.566406 110.578125 C 76.265625 110.40625 76.164062 110.019531 76.335938 109.722656 L 112.410156 47.386719 C 112.582031 47.089844 112.96875 46.984375 113.269531 47.160156 C 113.570312 47.332031 113.671875 47.714844 113.5 48.015625 L 77.425781 110.347656 C 77.308594 110.550781 77.097656 110.664062 76.878906 110.664062 " fill-opacity="1" fill-rule="nonzero"/><path fill="#000000" d="M 69.839844 107.867188 C 69.785156 107.867188 69.726562 107.859375 69.671875 107.84375 C 69.335938 107.753906 69.140625 107.40625 69.234375 107.070312 L 82.011719 60.644531 C 82.105469 60.308594 82.449219 60.113281 82.785156 60.203125 C 83.117188 60.292969 83.316406 60.640625 83.222656 60.976562 L 70.445312 107.40625 C 70.367188 107.683594 70.113281 107.867188 69.839844 107.867188 " fill-opacity="1" fill-rule="nonzero"/><path fill="#000000" d="M 86.21875 113.621094 C 86.058594 113.621094 85.898438 113.558594 85.777344 113.441406 C 85.53125 113.195312 85.527344 112.796875 85.769531 112.550781 L 108.160156 89.78125 C 108.402344 89.53125 108.800781 89.53125 109.046875 89.773438 C 109.296875 90.015625 109.300781 90.414062 109.054688 90.660156 L 86.664062 113.429688 C 86.542969 113.558594 86.378906 113.621094 86.21875 113.621094 " fill-opacity="1" fill-rule="nonzero"/><path fill="#000000" d="M 208.339844 106.261719 L 208.136719 108.96875 L 210.515625 107.65625 Z M 207.421875 110.707031 C 207.300781 110.707031 207.183594 110.675781 207.082031 110.609375 C 206.886719 110.484375 206.777344 110.261719 206.792969 110.03125 L 207.167969 105.113281 C 207.183594 104.894531 207.316406 104.699219 207.511719 104.597656 C 207.710938 104.5 207.949219 104.515625 208.132812 104.632812 L 212.082031 107.171875 C 212.265625 107.289062 212.375 107.5 212.371094 107.71875 C 212.363281 107.941406 212.238281 108.144531 212.046875 108.25 L 207.722656 110.628906 C 207.628906 110.683594 207.523438 110.707031 207.421875 110.707031 " fill-opacity="1" fill-rule="nonzero"/><path fill="#000000" d="M 221.695312 90.570312 C 221.570312 90.570312 221.441406 90.53125 221.328125 90.453125 C 221.046875 90.25 220.984375 89.859375 221.1875 89.574219 L 222.039062 88.386719 C 222.242188 88.101562 222.636719 88.039062 222.917969 88.242188 C 223.199219 88.441406 223.265625 88.835938 223.0625 89.117188 L 222.203125 90.308594 C 222.082031 90.480469 221.890625 90.570312 221.695312 90.570312 " fill-opacity="1" fill-rule="nonzero"/><path fill="#000000" d="M 218.023438 95.683594 C 217.898438 95.683594 217.769531 95.644531 217.65625 95.5625 C 217.378906 95.363281 217.3125 94.96875 217.515625 94.6875 L 219.027344 92.582031 C 219.230469 92.300781 219.621094 92.238281 219.902344 92.441406 C 220.183594 92.644531 220.25 93.035156 220.046875 93.316406 L 218.535156 95.421875 C 218.414062 95.59375 218.21875 95.683594 218.023438 95.683594 Z M 214.355469 100.792969 C 214.226562 100.792969 214.101562 100.753906 213.992188 100.675781 C 213.707031 100.472656 213.640625 100.078125 213.847656 99.796875 L 215.355469 97.691406 C 215.558594 97.410156 215.949219 97.347656 216.230469 97.546875 C 216.515625 97.753906 216.578125 98.144531 216.375 98.425781 L 214.867188 100.53125 C 214.746094 100.703125 214.550781 100.792969 214.355469 100.792969 " fill-opacity="1" fill-rule="nonzero"/><path fill="#000000" d="M 211.34375 104.988281 C 211.214844 104.988281 211.089844 104.949219 210.976562 104.871094 C 210.699219 104.667969 210.632812 104.273438 210.835938 103.992188 L 211.6875 102.800781 C 211.890625 102.519531 212.285156 102.457031 212.566406 102.65625 C 212.847656 102.859375 212.914062 103.25 212.710938 103.535156 L 211.855469 104.726562 C 211.730469 104.898438 211.539062 104.988281 211.34375 104.988281 " fill-opacity="1" fill-rule="nonzero"/><path fill="#000000" d="M 174.796875 75.851562 L 174.59375 78.5625 L 176.96875 77.25 Z M 173.875 80.300781 C 173.757812 80.300781 173.640625 80.265625 173.539062 80.203125 C 173.34375 80.074219 173.234375 79.855469 173.25 79.625 L 173.621094 74.707031 C 173.640625 74.484375 173.773438 74.289062 173.96875 74.191406 C 174.167969 74.09375 174.402344 74.105469 174.589844 74.226562 L 178.535156 76.761719 C 178.722656 76.882812 178.832031 77.09375 178.824219 77.3125 C 178.816406 77.535156 178.695312 77.734375 178.5 77.84375 L 174.179688 80.222656 C 174.085938 80.273438 173.980469 80.300781 173.875 80.300781 " fill-opacity="1" fill-rule="nonzero"/><path fill="#000000" d="M 189.777344 58.660156 C 189.644531 58.660156 189.511719 58.621094 189.398438 58.535156 C 189.121094 58.324219 189.0625 57.933594 189.273438 57.652344 L 190.15625 56.480469 C 190.367188 56.203125 190.757812 56.148438 191.035156 56.359375 C 191.3125 56.566406 191.367188 56.960938 191.160156 57.238281 L 190.28125 58.410156 C 190.15625 58.574219 189.964844 58.660156 189.777344 58.660156 " fill-opacity="1" fill-rule="nonzero"/><path fill="#000000" d="M 185.492188 64.355469 C 185.355469 64.355469 185.226562 64.316406 185.113281 64.230469 C 184.832031 64.023438 184.777344 63.628906 184.988281 63.351562 L 186.753906 61.003906 C 186.964844 60.726562 187.355469 60.671875 187.632812 60.878906 C 187.910156 61.089844 187.964844 61.484375 187.757812 61.761719 L 185.992188 64.105469 C 185.867188 64.273438 185.679688 64.355469 185.492188 64.355469 Z M 181.203125 70.058594 C 181.070312 70.058594 180.9375 70.015625 180.824219 69.929688 C 180.550781 69.722656 180.492188 69.328125 180.699219 69.050781 L 182.46875 66.703125 C 182.675781 66.429688 183.066406 66.371094 183.347656 66.578125 C 183.625 66.789062 183.679688 67.183594 183.472656 67.457031 L 181.707031 69.804688 C 181.582031 69.96875 181.394531 70.058594 181.203125 70.058594 " fill-opacity="1" fill-rule="nonzero"/><path fill="#000000" d="M 177.800781 74.582031 C 177.667969 74.582031 177.535156 74.539062 177.421875 74.457031 C 177.144531 74.246094 177.089844 73.851562 177.296875 73.578125 L 178.179688 72.402344 C 178.390625 72.125 178.78125 72.070312 179.058594 72.277344 C 179.335938 72.488281 179.390625 72.882812 179.183594 73.15625 L 178.300781 74.332031 C 178.179688 74.496094 177.992188 74.582031 177.800781 74.582031 " fill-opacity="1" fill-rule="nonzero"/><path fill="#000000" d="M 191.695312 91.449219 L 191.488281 94.15625 L 193.867188 92.84375 Z M 190.773438 95.894531 C 190.65625 95.894531 190.539062 95.863281 190.433594 95.792969 C 190.238281 95.671875 190.132812 95.449219 190.148438 95.21875 L 190.523438 90.300781 C 190.539062 90.082031 190.667969 89.882812 190.867188 89.785156 C 191.066406 89.6875 191.300781 89.699219 191.488281 89.820312 L 195.433594 92.355469 C 195.621094 92.476562 195.730469 92.6875 195.722656 92.90625 C 195.714844 93.128906 195.589844 93.332031 195.398438 93.4375 L 191.078125 95.816406 C 190.980469 95.867188 190.878906 95.894531 190.773438 95.894531 " fill-opacity="1" fill-rule="nonzero"/><path fill="#000000" d="M 205.050781 74.960938 C 204.929688 74.960938 204.804688 74.921875 204.695312 74.851562 C 204.410156 74.65625 204.332031 74.265625 204.53125 73.976562 L 205.355469 72.765625 C 205.546875 72.476562 205.941406 72.402344 206.226562 72.597656 C 206.515625 72.792969 206.589844 73.183594 206.394531 73.472656 L 205.566406 74.683594 C 205.449219 74.863281 205.25 74.960938 205.050781 74.960938 " fill-opacity="1" fill-rule="nonzero"/><path fill="#000000" d="M 201.367188 80.371094 C 201.246094 80.371094 201.121094 80.335938 201.015625 80.257812 C 200.730469 80.066406 200.65625 79.675781 200.847656 79.386719 L 202.367188 77.160156 C 202.5625 76.871094 202.953125 76.796875 203.238281 76.992188 C 203.527344 77.1875 203.601562 77.578125 203.402344 77.867188 L 201.886719 80.09375 C 201.765625 80.273438 201.570312 80.371094 201.367188 80.371094 Z M 197.6875 85.78125 C 197.566406 85.78125 197.441406 85.746094 197.332031 85.671875 C 197.046875 85.476562 196.972656 85.085938 197.167969 84.796875 L 198.683594 82.570312 C 198.878906 82.285156 199.269531 82.207031 199.558594 82.40625 C 199.84375 82.601562 199.917969 82.988281 199.722656 83.277344 L 198.207031 85.503906 C 198.085938 85.683594 197.886719 85.78125 197.6875 85.78125 " fill-opacity="1" fill-rule="nonzero"/><path fill="#000000" d="M 194.695312 90.175781 C 194.574219 90.175781 194.453125 90.140625 194.34375 90.070312 C 194.054688 89.871094 193.980469 89.480469 194.175781 89.195312 L 195.003906 87.984375 C 195.199219 87.695312 195.585938 87.621094 195.875 87.816406 C 196.164062 88.011719 196.238281 88.402344 196.039062 88.691406 L 195.214844 89.902344 C 195.09375 90.082031 194.898438 90.175781 194.695312 90.175781 " fill-opacity="1" fill-rule="nonzero"/><path fill="#000000" d="M 166.441406 58.320312 L 166.234375 61.027344 L 168.613281 59.714844 Z M 165.519531 62.769531 C 165.402344 62.769531 165.285156 62.734375 165.179688 62.667969 C 164.988281 62.542969 164.875 62.324219 164.894531 62.09375 L 165.265625 57.175781 C 165.28125 56.953125 165.414062 56.757812 165.613281 56.660156 C 165.8125 56.558594 166.046875 56.574219 166.234375 56.691406 L 170.179688 59.230469 C 170.367188 59.351562 170.476562 59.558594 170.46875 59.78125 C 170.460938 60 170.335938 60.203125 170.144531 60.308594 L 165.824219 62.6875 C 165.730469 62.742188 165.625 62.769531 165.519531 62.769531 " fill-opacity="1" fill-rule="nonzero"/><path fill="#000000" d="M 179.9375 44.039062 C 179.800781 44.039062 179.660156 43.992188 179.542969 43.898438 C 179.273438 43.679688 179.230469 43.285156 179.449219 43.015625 L 180.371094 41.875 C 180.589844 41.601562 180.984375 41.5625 181.253906 41.78125 C 181.523438 41.996094 181.566406 42.394531 181.347656 42.664062 L 180.429688 43.804688 C 180.304688 43.960938 180.125 44.039062 179.9375 44.039062 " fill-opacity="1" fill-rule="nonzero"/><path fill="#000000" d="M 176.238281 48.625 C 176.101562 48.625 175.960938 48.578125 175.84375 48.484375 C 175.574219 48.265625 175.535156 47.871094 175.753906 47.601562 L 177.273438 45.710938 C 177.492188 45.441406 177.886719 45.398438 178.160156 45.617188 C 178.429688 45.835938 178.46875 46.230469 178.253906 46.5 L 176.730469 48.390625 C 176.605469 48.542969 176.421875 48.625 176.238281 48.625 Z M 172.539062 53.210938 C 172.402344 53.210938 172.261719 53.164062 172.148438 53.070312 C 171.875 52.851562 171.832031 52.457031 172.050781 52.1875 L 173.574219 50.296875 C 173.792969 50.027344 174.1875 49.984375 174.457031 50.203125 C 174.726562 50.421875 174.769531 50.816406 174.554688 51.085938 L 173.03125 52.972656 C 172.90625 53.128906 172.722656 53.210938 172.539062 53.210938 " fill-opacity="1" fill-rule="nonzero"/><path fill="#000000" d="M 169.441406 57.046875 C 169.304688 57.046875 169.164062 57.003906 169.046875 56.910156 C 168.777344 56.691406 168.734375 56.296875 168.953125 56.023438 L 169.875 54.882812 C 170.09375 54.613281 170.488281 54.570312 170.757812 54.789062 C 171.027344 55.007812 171.070312 55.40625 170.851562 55.675781 L 169.933594 56.816406 C 169.808594 56.96875 169.625 57.046875 169.441406 57.046875 " fill-opacity="1" fill-rule="nonzero"/><g clip-path="url(#bae2f0583a)"><path fill="#19598f" d="M 311.910156 13.160156 C 308.429688 12.507812 305.15625 9.296875 304.632812 5.753906 C 304.222656 2.933594 305.425781 -0.0703125 307.675781 -1.820312 C 304.390625 -1.324219 300.917969 -2.179688 298.238281 -4.148438 C 300.25 -6.859375 302.746094 -9.207031 305.578125 -11.050781 C 302.746094 -10.402344 299.519531 -10.53125 297.257812 -12.363281 C 294.246094 -14.808594 294.703125 -19.558594 298.171875 -21.265625 C 295.0625 -22.285156 290.289062 -23.328125 287.574219 -20.867188 C 284.332031 -17.929688 277.445312 -21.925781 277.929688 -26.628906 C 277.929688 -26.628906 273.625 -22.308594 268.226562 -25.792969 C 268.226562 -25.792969 262.167969 -20.1875 258.351562 -27.167969 C 258.351562 -27.167969 253.527344 -20.710938 246.289062 -25.109375 C 246.289062 -25.109375 239.929688 -16.609375 232.375 -25.066406 C 232.375 -25.066406 234.75 -21.632812 231.558594 -17.097656 C 228.367188 -12.566406 223.152344 -17.226562 223.152344 -17.226562 C 223.152344 -17.226562 224.792969 -15.378906 222.300781 -8.894531 C 219.949219 -2.789062 210.96875 -7.925781 207.363281 -9.472656 C 209.492188 -6.183594 209.578125 -1.683594 207.582031 1.6875 C 207.085938 2.523438 206.449219 3.3125 205.59375 3.777344 C 203.59375 4.863281 200.953125 3.9375 198.941406 5.003906 C 201.582031 4.558594 204.273438 6.472656 205.167969 8.996094 C 206.042969 11.476562 205.355469 15.085938 203.957031 17.320312 C 203.558594 17.949219 198.882812 22.878906 198.855469 22.867188 C 200.59375 23.398438 202.429688 23.6875 204.234375 24.042969 C 207.1875 24.628906 210.671875 25.664062 211.523438 28.554688 C 212.277344 31.113281 210.480469 33.695312 208.59375 35.574219 C 206.699219 37.457031 204.472656 39.351562 204.054688 41.992188 C 206.042969 41.609375 208.03125 41.226562 210.015625 40.847656 C 219.039062 39.113281 217.75 50.140625 212.902344 54.257812 C 212.902344 54.257812 219.226562 49.722656 226.332031 55.394531 C 233.441406 61.066406 230.847656 68.488281 230.847656 68.488281 C 230.847656 68.488281 233.867188 64.039062 239.914062 65.757812 C 245.960938 67.476562 249.046875 80.238281 255.679688 79.816406 C 255.679688 79.816406 249.707031 72.765625 256.335938 70.027344 C 262.960938 67.285156 268.839844 74.234375 268.839844 74.234375 C 268.839844 74.234375 267.773438 65.582031 272.433594 65.328125 C 277.097656 65.074219 280.207031 68.078125 280.207031 68.078125 C 280.207031 68.078125 278.769531 63.050781 282.929688 60.546875 C 287.089844 58.042969 292.984375 60.109375 292.984375 60.109375 C 292.984375 60.109375 289.804688 55.394531 295.003906 52.265625 C 300.207031 49.136719 306.398438 55.378906 306.402344 55.382812 C 305.386719 54.359375 305.25 49.988281 304.3125 48.417969 C 302.589844 45.53125 298.929688 40.5625 305.996094 41.613281 C 308.222656 41.941406 310.445312 42.273438 312.667969 42.605469 C 310.816406 40.578125 308.964844 38.550781 307.113281 36.527344 C 306.507812 35.859375 305.859375 35.101562 305.867188 34.199219 C 305.878906 32.578125 307.882812 31.777344 309.503906 31.796875 C 311.121094 31.8125 312.914062 32.167969 314.230469 31.222656 C 313.042969 29.558594 311.222656 28.484375 309.707031 27.109375 C 306.664062 24.347656 307.617188 23.109375 308.824219 20.070312 C 309.746094 17.738281 310.570312 15.273438 311.910156 13.160156 " fill-opacity="1" fill-rule="nonzero"/></g><g clip-path="url(#43f39caa44)"><path fill="#caddff" d="M 261.699219 -21.15625 C 285.167969 -18.75 302.242188 2.21875 299.839844 25.6875 C 297.4375 49.152344 276.46875 66.230469 253 63.824219 C 229.535156 61.421875 212.457031 40.453125 214.859375 16.984375 C 217.261719 -6.480469 238.234375 -23.558594 261.699219 -21.15625 " fill-opacity="1" fill-rule="nonzero"/></g></svg>