<svg xmlns="http://www.w3.org/2000/svg" xmlns:xlink="http://www.w3.org/1999/xlink" width="500" zoomAndPan="magnify" viewBox="0 0 375 374.999991" height="500" preserveAspectRatio="xMidYMid meet" version="1.0"><path fill="#caddff" d="M 355.863281 190.140625 C 354.757812 212.230469 346.941406 236.128906 335.363281 257.5 C 329.101562 269.0625 321.742188 279.890625 313.742188 289.292969 C 271.667969 338.746094 194.925781 364.191406 125.570312 335 C 112.664062 329.570312 100.84375 322.59375 90.191406 314.394531 C 80.449219 306.902344 71.683594 298.386719 63.945312 289.085938 C 58.144531 282.109375 52.917969 274.691406 48.296875 266.933594 C 27.253906 231.613281 18.746094 189.285156 25.109375 149.585938 C 35.515625 84.632812 86.675781 20.828125 147.933594 14.511719 C 154.578125 13.824219 190.472656 10.8125 221.386719 32.328125 C 246.941406 50.113281 243.953125 67.15625 271.660156 94.835938 C 306.621094 129.75 328.632812 119.753906 344.746094 143.679688 C 349.5625 150.824219 352.707031 158.933594 354.414062 167.660156 C 355.8125 174.800781 356.253906 182.359375 355.863281 190.140625 " fill-opacity="1" fill-rule="nonzero"/><path fill="#19598f" d="M 112.683594 325.296875 C 60.734375 291.039062 49.972656 268.34375 51.011719 253.316406 C 51.324219 248.828125 53.015625 239.761719 49.953125 227.929688 C 45.984375 212.582031 37.875 207.5 31.519531 196.742188 C 19.085938 175.699219 21.332031 146.421875 31.785156 126.257812 C 39.085938 112.175781 56.636719 90.488281 77.304688 92.453125 C 86.046875 93.285156 97.695312 98.570312 99.355469 106.738281 C 101.730469 118.429688 80.191406 125.097656 79.597656 143.269531 C 79.269531 153.183594 85.546875 154.042969 85.109375 164.570312 C 84.425781 181.152344 68.527344 186.738281 71.015625 196.585938 C 73.425781 206.121094 89.109375 203.285156 93.84375 214.464844 C 99.25 227.214844 83.390625 239.667969 89.808594 251.175781 C 93.628906 258.027344 90.765625 268.386719 96.03125 275.808594 C 102.4375 284.84375 105.71875 280.855469 106.765625 299.761719 C 107.351562 310.359375 110.25 318.886719 112.683594 325.296875 " fill-opacity="1" fill-rule="nonzero"/><path fill="#caddff" d="M 70.113281 254.609375 C 69.878906 254.609375 69.65625 254.476562 69.558594 254.25 C 60.390625 233.105469 53.949219 212.046875 50.9375 193.347656 C 46.367188 164.988281 49.609375 143.492188 53.136719 130.449219 C 56.96875 116.285156 61.8125 108.953125 62.015625 108.644531 C 62.203125 108.367188 62.578125 108.296875 62.851562 108.480469 C 63.128906 108.664062 63.203125 109.039062 63.019531 109.316406 C 62.96875 109.390625 58.058594 116.835938 54.28125 130.828125 C 50.796875 143.746094 47.59375 165.042969 52.125 193.15625 C 55.125 211.757812 61.535156 232.714844 70.664062 253.769531 C 70.796875 254.074219 70.65625 254.429688 70.351562 254.5625 C 70.273438 254.59375 70.191406 254.609375 70.113281 254.609375 " fill-opacity="1" fill-rule="nonzero"/><path fill="#19598f" d="M 112.683594 325.296875 C 108.195312 322.03125 78.511719 300.089844 72.789062 279.664062 C 71.992188 276.820312 70.757812 272.410156 72.1875 267.324219 C 75.050781 257.171875 84.839844 257.550781 87.367188 249.855469 C 90.699219 239.707031 75.464844 233.59375 72.5625 212.414062 C 71.867188 207.332031 70.785156 199.421875 75.074219 192.3125 C 79.867188 184.375 86.429688 185.601562 91.636719 178.511719 C 98.128906 169.664062 91.992188 162.210938 94.886719 148.921875 C 97.933594 134.921875 110.328125 117.558594 126.957031 116.300781 C 141.453125 115.203125 153.675781 126.765625 159.242188 136.484375 C 167.46875 150.847656 165.277344 168.359375 158.6875 180.042969 C 149.214844 196.847656 131.148438 200.75 132.757812 207.445312 C 134.253906 213.675781 149.980469 210.558594 155.480469 220.488281 C 159.320312 227.421875 156.808594 238.25 151.039062 244.359375 C 143.039062 252.828125 132.375 248.433594 128.667969 255.132812 C 124.777344 262.160156 134.703125 270.246094 136.449219 282.269531 C 137.890625 292.1875 133.976562 306.207031 112.683594 325.296875 " fill-opacity="1" fill-rule="nonzero"/><path fill="#caddff" d="M 109.945312 322.421875 C 109.703125 322.421875 109.476562 322.277344 109.382812 322.035156 C 99.027344 294.957031 96.15625 265.339844 100.847656 234.007812 C 104.832031 207.394531 113.519531 184.964844 120.105469 170.835938 C 120.246094 170.535156 120.605469 170.40625 120.90625 170.542969 C 121.207031 170.6875 121.339844 171.042969 121.199219 171.34375 C 107.21875 201.34375 87.238281 260.753906 110.507812 321.605469 C 110.628906 321.917969 110.472656 322.265625 110.160156 322.382812 C 110.089844 322.410156 110.015625 322.421875 109.945312 322.421875 " fill-opacity="1" fill-rule="nonzero"/><path fill="#caddff" d="M 128.855469 116.828125 C 128.238281 116.828125 127.621094 116.851562 127 116.898438 C 111.390625 118.082031 98.714844 134.171875 95.476562 149.050781 C 94.253906 154.652344 94.667969 159.246094 95.035156 163.300781 C 95.535156 168.839844 95.96875 173.625 92.121094 178.867188 C 89.582031 182.324219 86.730469 183.867188 83.972656 185.363281 C 80.917969 187.015625 78.035156 188.574219 75.589844 192.625 C 71.410156 199.550781 72.464844 207.242188 73.160156 212.328125 C 74.636719 223.113281 79.355469 229.945312 83.148438 235.4375 C 86.78125 240.695312 89.644531 244.84375 87.9375 250.042969 C 86.710938 253.78125 83.925781 255.667969 80.980469 257.664062 C 77.671875 259.90625 74.253906 262.222656 72.769531 267.488281 C 71.382812 272.410156 72.578125 276.675781 73.367188 279.5 C 78.753906 298.726562 106.171875 319.769531 112.644531 324.523438 C 129.855469 308.992188 137.664062 294.808594 135.851562 282.355469 C 135.105469 277.230469 132.824219 272.78125 130.804688 268.859375 C 128.113281 263.621094 125.785156 259.09375 128.140625 254.839844 C 130.0625 251.367188 133.761719 250.65625 137.679688 249.90625 C 141.855469 249.101562 146.585938 248.191406 150.597656 243.945312 C 156.46875 237.726562 158.464844 227.117188 154.953125 220.78125 C 152.070312 215.578125 146.257812 214.113281 141.128906 212.824219 C 136.730469 211.71875 132.933594 210.761719 132.171875 207.585938 C 131.320312 204.054688 135.042969 201.417969 140.191406 197.773438 C 145.675781 193.886719 153.191406 188.566406 158.160156 179.75 C 163.917969 169.535156 167.523438 152.15625 158.71875 136.785156 C 152.910156 126.644531 141.570312 116.828125 128.855469 116.828125 Z M 112.722656 326.074219 L 112.328125 325.785156 C 104.300781 319.941406 77.675781 299.351562 72.207031 279.824219 C 71.378906 276.871094 70.128906 272.40625 71.609375 267.160156 C 73.214844 261.472656 76.980469 258.917969 80.304688 256.667969 C 83.074219 254.789062 85.695312 253.015625 86.792969 249.667969 C 88.316406 245.039062 85.734375 241.296875 82.160156 236.121094 C 78.292969 230.527344 73.484375 223.558594 71.96875 212.496094 C 71.246094 207.238281 70.160156 199.292969 74.558594 192 C 77.175781 187.671875 80.339844 185.957031 83.398438 184.304688 C 86.160156 182.808594 88.773438 181.394531 91.148438 178.152344 C 94.726562 173.28125 94.332031 168.925781 93.835938 163.40625 C 93.460938 159.269531 93.039062 154.574219 94.296875 148.792969 C 97.628906 133.484375 110.742188 116.921875 126.910156 115.699219 C 140.894531 114.640625 153.488281 125.226562 159.765625 136.1875 C 163.644531 142.960938 165.496094 150.953125 165.121094 159.296875 C 164.789062 166.695312 162.691406 174.171875 159.210938 180.339844 C 154.109375 189.390625 146.46875 194.804688 140.886719 198.753906 C 136.125 202.128906 132.683594 204.566406 133.339844 207.304688 C 133.933594 209.769531 137.40625 210.644531 141.421875 211.65625 C 146.523438 212.9375 152.871094 214.535156 156.007812 220.195312 C 159.8125 227.070312 157.78125 238.097656 151.476562 244.773438 C 147.195312 249.304688 142.261719 250.25 137.90625 251.085938 C 133.960938 251.84375 130.84375 252.441406 129.195312 255.421875 C 127.152344 259.113281 129.238281 263.171875 131.878906 268.308594 C 133.9375 272.316406 136.273438 276.855469 137.046875 282.183594 C 138.929688 295.144531 130.867188 309.804688 113.085938 325.746094 L 112.722656 326.074219 " fill-opacity="1" fill-rule="nonzero"/><path fill="#19598f" d="M 288.539062 214.390625 C 302.972656 221.15625 322.53125 237.773438 335.363281 257.5 C 329.101562 269.0625 321.738281 279.890625 313.738281 289.292969 C 271.664062 338.746094 194.925781 364.191406 125.570312 335 C 112.664062 329.570312 100.84375 322.59375 90.1875 314.394531 L 63.945312 289.085938 C 58.144531 282.109375 52.917969 274.691406 48.296875 266.933594 C 84.875 269.710938 235.347656 279.875 242.75 259.773438 C 251.1875 236.882812 175.671875 200.039062 208.8125 185.125 C 236.40625 172.707031 325.410156 168.664062 354.414062 167.660156 C 355.8125 174.800781 356.257812 182.359375 355.863281 190.140625 C 322.710938 193.121094 259.554688 200.800781 288.539062 214.390625 " fill-opacity="1" fill-rule="nonzero"/><path fill="#0c2840" d="M 331.371094 252.347656 C 331.1875 252.347656 331.003906 252.261719 330.886719 252.101562 C 319.113281 236.140625 302.390625 221.550781 288.28125 214.933594 C 282.644531 212.292969 280.125 209.726562 280.578125 207.089844 C 281.289062 202.980469 289.566406 199.394531 305.886719 196.128906 C 320.046875 193.296875 337.710938 191.277344 350.035156 190.078125 C 350.359375 190.046875 350.660156 190.289062 350.691406 190.621094 C 350.726562 190.949219 350.484375 191.246094 350.152344 191.277344 C 307.738281 195.398438 282.8125 201.234375 281.765625 207.296875 C 281.425781 209.265625 283.855469 211.53125 288.792969 213.84375 C 303.066406 220.539062 319.972656 235.273438 331.855469 251.390625 C 332.054688 251.65625 331.996094 252.035156 331.730469 252.230469 C 331.621094 252.3125 331.496094 252.347656 331.371094 252.347656 " fill-opacity="1" fill-rule="nonzero"/><path fill="#0c2840" d="M 210.792969 184.886719 C 210.554688 184.886719 210.324219 184.746094 210.230469 184.507812 C 210.109375 184.199219 210.257812 183.847656 210.566406 183.726562 C 238.582031 172.605469 316.542969 168.511719 348.757812 167.265625 C 349.085938 167.25 349.367188 167.507812 349.382812 167.84375 C 349.394531 168.175781 349.136719 168.457031 348.804688 168.46875 C 316.652344 169.710938 238.855469 173.796875 211.015625 184.847656 C 210.941406 184.875 210.863281 184.886719 210.792969 184.886719 " fill-opacity="1" fill-rule="nonzero"/><path fill="#0c2840" d="M 227.621094 268.238281 C 227.34375 268.238281 227.09375 268.046875 227.035156 267.761719 C 226.960938 267.4375 227.167969 267.117188 227.492188 267.046875 C 236.117188 265.132812 241.0625 262.617188 242.1875 259.566406 C 245.46875 250.65625 235.28125 239.292969 224.566406 228.417969 C 224.332031 228.179688 224.335938 227.796875 224.570312 227.5625 C 224.808594 227.332031 225.191406 227.332031 225.425781 227.570312 C 236.410156 238.722656 246.84375 250.414062 243.316406 259.980469 C 242.023438 263.496094 236.933594 266.1875 227.75 268.222656 C 227.707031 268.230469 227.664062 268.238281 227.621094 268.238281 " fill-opacity="1" fill-rule="nonzero"/><path fill="#0c2840" d="M 164.480469 272.570312 C 151.574219 272.570312 137.191406 272.28125 121.453125 271.703125 C 121.121094 271.6875 120.863281 271.410156 120.875 271.078125 C 120.886719 270.746094 121.175781 270.488281 121.5 270.496094 C 148.28125 271.484375 171.144531 271.632812 189.453125 270.9375 C 189.785156 270.917969 190.0625 271.183594 190.078125 271.515625 C 190.089844 271.847656 189.832031 272.128906 189.5 272.140625 C 181.921875 272.425781 173.566406 272.570312 164.480469 272.570312 " fill-opacity="1" fill-rule="nonzero"/><path fill="#0c2840" d="M 73.011719 269.25 C 73 269.25 72.988281 269.25 72.972656 269.246094 C 62.378906 268.578125 53.683594 267.949219 48.25 267.535156 C 47.917969 267.511719 47.667969 267.222656 47.695312 266.890625 C 47.71875 266.558594 48.011719 266.308594 48.339844 266.335938 C 53.769531 266.746094 62.460938 267.375 73.050781 268.046875 C 73.382812 268.066406 73.632812 268.351562 73.613281 268.683594 C 73.59375 269.003906 73.328125 269.25 73.011719 269.25 " fill-opacity="1" fill-rule="nonzero"/><path fill="#caddff" d="M 212.738281 301.71875 C 212.738281 301.71875 211.804688 310.941406 214.601562 314.589844 L 215.445312 316.132812 L 201.34375 314.472656 L 202.125 312.96875 C 203.519531 310.289062 204.21875 307.378906 204.167969 304.464844 L 212.738281 301.71875 " fill-opacity="1" fill-rule="nonzero"/><path fill="#000000" d="M 202.277344 313.976562 L 214.355469 315.398438 L 214.09375 314.917969 C 211.71875 311.761719 211.910156 305.023438 212.066406 302.5625 L 204.769531 304.902344 C 204.746094 307.753906 204.019531 310.628906 202.660156 313.246094 Z M 215.445312 316.734375 C 215.425781 316.734375 215.402344 316.734375 215.375 316.730469 L 201.269531 315.074219 C 201.074219 315.046875 200.902344 314.929688 200.808594 314.753906 C 200.714844 314.582031 200.714844 314.371094 200.808594 314.195312 L 201.589844 312.691406 C 202.933594 310.113281 203.613281 307.273438 203.5625 304.476562 C 203.558594 304.210938 203.730469 303.972656 203.980469 303.890625 L 212.554688 301.144531 C 212.75 301.082031 212.960938 301.121094 213.117188 301.25 C 213.277344 301.378906 213.359375 301.574219 213.339844 301.777344 C 213.328125 301.867188 212.460938 310.808594 215.078125 314.222656 C 215.097656 314.246094 215.113281 314.273438 215.128906 314.300781 L 215.976562 315.84375 C 216.082031 316.042969 216.070312 316.285156 215.945312 316.46875 C 215.832031 316.636719 215.648438 316.734375 215.445312 316.734375 " fill-opacity="1" fill-rule="nonzero"/><path fill="#ffffff" d="M 214.863281 309.8125 L 216.273438 311.460938 C 219.058594 314.722656 222.59375 317.257812 226.582031 318.851562 L 229.644531 320.074219 C 229.933594 320.191406 230.148438 320.445312 230.21875 320.75 L 230.25 320.90625 C 230.632812 322.640625 228.566406 326.527344 222.25 327.742188 C 218.339844 328.492188 209.226562 328.828125 198.335938 324.394531 C 197.648438 324.113281 197.21875 323.421875 197.285156 322.679688 C 197.523438 319.984375 198.335938 313.554688 200.84375 310.414062 C 201.125 310.0625 201.636719 310.023438 201.957031 310.335938 L 205.023438 313.351562 C 206.402344 314.703125 208.613281 314.679688 209.960938 313.296875 L 213.402344 309.765625 C 213.808594 309.347656 214.484375 309.371094 214.863281 309.8125 " fill-opacity="1" fill-rule="nonzero"/><path fill="#000000" d="M 201.441406 310.726562 C 201.4375 310.726562 201.433594 310.730469 201.433594 310.730469 C 201.40625 310.730469 201.355469 310.738281 201.316406 310.789062 C 198.898438 313.808594 198.113281 320.148438 197.886719 322.734375 C 197.84375 323.210938 198.113281 323.65625 198.5625 323.835938 C 211.011719 328.902344 220.382812 327.484375 222.136719 327.148438 C 226.417969 326.328125 228.277344 324.351562 229.003906 323.25 C 229.636719 322.285156 229.757812 321.476562 229.664062 321.035156 L 229.628906 320.878906 C 229.601562 320.769531 229.523438 320.675781 229.417969 320.632812 L 226.359375 319.410156 C 222.296875 317.789062 218.652344 315.175781 215.8125 311.851562 L 214.40625 310.203125 C 214.308594 310.089844 214.1875 310.070312 214.121094 310.070312 C 214.058594 310.066406 213.9375 310.078125 213.832031 310.1875 L 210.394531 313.71875 C 209.628906 314.5 208.605469 314.941406 207.511719 314.953125 C 206.417969 314.964844 205.382812 314.546875 204.601562 313.78125 L 201.535156 310.765625 C 201.507812 310.742188 201.476562 310.726562 201.441406 310.726562 Z M 216.726562 328.789062 C 212.320312 328.789062 205.769531 328.074219 198.109375 324.953125 C 197.167969 324.570312 196.597656 323.636719 196.6875 322.628906 C 196.921875 319.933594 197.753906 313.3125 200.375 310.039062 C 200.617188 309.734375 200.976562 309.546875 201.359375 309.523438 C 201.738281 309.503906 202.109375 309.640625 202.378906 309.90625 L 205.449219 312.921875 C 205.996094 313.460938 206.730469 313.753906 207.496094 313.746094 C 208.269531 313.738281 208.992188 313.429688 209.53125 312.875 L 212.96875 309.34375 C 213.28125 309.023438 213.714844 308.851562 214.164062 308.863281 C 214.609375 308.878906 215.03125 309.082031 215.324219 309.421875 L 216.730469 311.070312 C 219.441406 314.246094 222.925781 316.742188 226.804688 318.292969 L 229.867188 319.515625 C 230.34375 319.707031 230.695312 320.121094 230.804688 320.621094 L 230.839844 320.777344 C 231.035156 321.671875 230.734375 322.8125 230.011719 323.910156 C 229.179688 325.175781 227.082031 327.425781 222.359375 328.332031 C 221.636719 328.46875 219.65625 328.789062 216.726562 328.789062 " fill-opacity="1" fill-rule="nonzero"/><path fill="#000000" d="M 213.699219 323.136719 C 213.695312 323.136719 213.691406 323.136719 213.6875 323.136719 C 208.980469 323.097656 204.417969 322.097656 200.128906 320.171875 L 197.734375 319.09375 C 197.429688 318.957031 197.296875 318.601562 197.429688 318.296875 C 197.566406 317.996094 197.921875 317.859375 198.226562 317.996094 L 200.621094 319.070312 C 204.761719 320.933594 209.160156 321.894531 213.695312 321.933594 L 213.699219 321.933594 C 213.847656 321.933594 213.9375 321.847656 213.976562 321.792969 C 214.011719 321.742188 214.070312 321.628906 214.023438 321.488281 L 213.621094 320.253906 C 213.445312 319.710938 213.597656 319.136719 214.027344 318.757812 C 214.457031 318.378906 215.042969 318.292969 215.5625 318.53125 L 216.757812 319.085938 C 220.148438 320.65625 224.089844 320.769531 227.5625 319.398438 L 228.253906 319.125 C 228.5625 319.003906 228.914062 319.15625 229.035156 319.464844 C 229.15625 319.777344 229.007812 320.125 228.695312 320.246094 L 228.007812 320.519531 C 224.226562 322.011719 219.9375 321.886719 216.25 320.179688 L 215.054688 319.625 C 214.945312 319.574219 214.867188 319.625 214.828125 319.65625 C 214.789062 319.691406 214.730469 319.765625 214.765625 319.878906 L 215.167969 321.113281 C 215.324219 321.585938 215.242188 322.105469 214.945312 322.503906 C 214.65625 322.902344 214.191406 323.136719 213.699219 323.136719 " fill-opacity="1" fill-rule="nonzero"/><path fill="#ffffff" d="M 204.019531 305.847656 C 201.535156 288.703125 197.863281 269.824219 203.460938 255.625 C 204.203125 253.75 204.246094 251.671875 203.503906 249.800781 L 199.890625 240.6875 L 217.789062 234.722656 L 219.957031 253.824219 C 220.039062 254.542969 219.984375 255.269531 219.804688 255.96875 C 216.625 268.382812 214.367188 286.367188 212.28125 305.386719 L 204.019531 305.847656 " fill-opacity="1" fill-rule="nonzero"/><path fill="#000000" d="M 200.6875 241.058594 L 204.0625 249.578125 C 204.847656 251.5625 204.832031 253.785156 204.023438 255.84375 C 199.03125 268.507812 201.488281 284.867188 203.863281 300.6875 C 204.089844 302.207031 204.320312 303.71875 204.539062 305.214844 L 211.738281 304.816406 C 213.722656 286.746094 216.011719 268.359375 219.222656 255.820312 C 219.386719 255.179688 219.433594 254.53125 219.359375 253.890625 L 217.273438 235.527344 Z M 203.503906 306.480469 L 203.425781 305.933594 C 203.183594 304.257812 202.925781 302.570312 202.671875 300.867188 C 200.273438 284.886719 197.789062 268.367188 202.902344 255.402344 C 203.601562 253.628906 203.613281 251.71875 202.941406 250.023438 L 199.097656 240.316406 L 218.304688 233.914062 L 220.558594 253.753906 C 220.648438 254.539062 220.589844 255.335938 220.386719 256.121094 C 217.167969 268.703125 214.875 287.269531 212.878906 305.453125 L 212.824219 305.960938 L 203.503906 306.480469 " fill-opacity="1" fill-rule="nonzero"/><path fill="#000000" d="M 202.085938 181.050781 C 202.085938 181.050781 183.855469 175.394531 169.328125 170.660156 C 169.328125 170.660156 162.414062 199 179.496094 217 C 191.171875 229.296875 197.859375 245.566406 197.730469 246.8125 C 205.582031 244.992188 213.503906 244.042969 221.40625 243.832031 C 221.296875 241.144531 221.074219 238.578125 220.71875 236.191406 C 217.136719 212.175781 202.085938 181.050781 202.085938 181.050781 " fill-opacity="1" fill-rule="nonzero"/><path fill="#caddff" d="M 103.679688 275.105469 C 103.679688 275.105469 95.207031 278.105469 93.132812 282.203125 L 92.109375 283.632812 L 87.492188 270.203125 L 89.1875 270.257812 C 92.203125 270.351562 95.132812 269.71875 97.734375 268.410156 L 103.679688 275.105469 " fill-opacity="1" fill-rule="nonzero"/><path fill="#000000" d="M 88.34375 270.832031 L 92.296875 282.335938 L 92.617188 281.886719 C 94.429688 278.378906 100.425781 275.734375 102.648438 274.851562 L 97.589844 269.152344 C 95.011719 270.363281 92.113281 270.953125 89.167969 270.859375 Z M 92.109375 284.238281 C 92.078125 284.238281 92.050781 284.234375 92.019531 284.230469 C 91.796875 284.195312 91.609375 284.042969 91.539062 283.828125 L 86.921875 270.398438 C 86.855469 270.210938 86.890625 270.003906 87.007812 269.84375 C 87.125 269.683594 87.304688 269.597656 87.511719 269.601562 L 89.207031 269.652344 C 92.109375 269.746094 94.964844 269.128906 97.464844 267.871094 C 97.707031 267.75 98.003906 267.808594 98.1875 268.011719 L 104.128906 274.703125 C 104.261719 274.851562 104.3125 275.058594 104.261719 275.253906 C 104.214844 275.449219 104.070312 275.605469 103.878906 275.671875 C 103.796875 275.699219 95.613281 278.636719 93.671875 282.476562 C 93.65625 282.5 93.640625 282.53125 93.621094 282.554688 L 92.597656 283.984375 C 92.484375 284.144531 92.300781 284.238281 92.109375 284.238281 " fill-opacity="1" fill-rule="nonzero"/><path fill="#ffffff" d="M 97.550781 280.371094 L 96.675781 282.351562 C 94.941406 286.277344 94.191406 290.5625 94.484375 294.847656 L 94.707031 298.136719 C 94.730469 298.449219 94.59375 298.75 94.347656 298.945312 L 94.222656 299.042969 C 92.824219 300.140625 88.425781 299.960938 84.59375 294.792969 C 82.226562 291.59375 77.972656 283.53125 77.246094 271.792969 C 77.199219 271.050781 77.640625 270.363281 78.335938 270.105469 C 80.871094 269.148438 87.015625 267.09375 90.933594 267.996094 C 91.371094 268.097656 91.628906 268.542969 91.484375 268.964844 L 90.097656 273.035156 C 89.476562 274.863281 90.457031 276.84375 92.289062 277.460938 L 96.960938 279.03125 C 97.511719 279.214844 97.785156 279.835938 97.550781 280.371094 " fill-opacity="1" fill-rule="nonzero"/><path fill="#000000" d="M 97.550781 280.371094 L 97.554688 280.371094 Z M 88.71875 268.371094 C 85.085938 268.371094 80.566406 269.90625 78.546875 270.667969 C 78.101562 270.835938 77.816406 271.273438 77.847656 271.757812 C 78.675781 285.171875 84.015625 293 85.078125 294.433594 C 87.675781 297.941406 90.261719 298.761719 91.570312 298.9375 C 92.710938 299.089844 93.496094 298.847656 93.851562 298.570312 L 93.976562 298.472656 C 94.066406 298.402344 94.113281 298.289062 94.105469 298.175781 L 93.882812 294.886719 C 93.585938 290.527344 94.359375 286.109375 96.125 282.109375 L 97 280.125 C 97.058594 279.988281 97.027344 279.871094 97 279.8125 C 96.972656 279.753906 96.910156 279.648438 96.769531 279.601562 L 92.09375 278.03125 C 91.058594 277.683594 90.21875 276.953125 89.734375 275.96875 C 89.25 274.988281 89.175781 273.875 89.527344 272.839844 L 90.914062 268.769531 C 90.929688 268.734375 90.925781 268.695312 90.90625 268.660156 C 90.894531 268.636719 90.863281 268.597656 90.796875 268.582031 C 90.160156 268.4375 89.457031 268.371094 88.71875 268.371094 Z M 92.261719 300.191406 C 91.988281 300.191406 91.703125 300.171875 91.410156 300.128906 C 89.914062 299.929688 86.972656 299.015625 84.109375 295.152344 C 83.011719 293.671875 77.496094 285.585938 76.644531 271.832031 C 76.582031 270.816406 77.175781 269.898438 78.125 269.539062 C 80.652344 268.585938 86.980469 266.46875 91.070312 267.410156 C 91.445312 267.496094 91.769531 267.738281 91.957031 268.074219 C 92.144531 268.40625 92.179688 268.800781 92.054688 269.160156 L 90.667969 273.230469 C 90.421875 273.960938 90.472656 274.742188 90.8125 275.4375 C 91.15625 276.128906 91.746094 276.644531 92.480469 276.890625 L 97.152344 278.457031 C 97.574219 278.601562 97.921875 278.917969 98.101562 279.324219 C 98.285156 279.734375 98.285156 280.203125 98.101562 280.613281 L 97.226562 282.59375 C 95.539062 286.417969 94.800781 290.636719 95.085938 294.804688 L 95.308594 298.09375 C 95.34375 298.605469 95.125 299.101562 94.71875 299.417969 L 94.59375 299.519531 C 94.035156 299.957031 93.210938 300.191406 92.261719 300.191406 " fill-opacity="1" fill-rule="nonzero"/><path fill="#000000" d="M 94.550781 297.515625 C 94.40625 297.515625 94.257812 297.464844 94.140625 297.359375 L 93.597656 296.851562 C 90.617188 294.089844 88.871094 290.175781 88.808594 286.113281 L 88.789062 284.792969 C 88.789062 284.671875 88.710938 284.621094 88.664062 284.605469 C 88.617188 284.585938 88.523438 284.5625 88.4375 284.644531 L 87.5 285.542969 C 87.140625 285.882812 86.636719 286.035156 86.148438 285.945312 C 85.660156 285.851562 85.242188 285.53125 85.03125 285.082031 C 83.027344 280.824219 81.953125 276.28125 81.832031 271.578125 L 81.761719 268.953125 C 81.753906 268.621094 82.019531 268.34375 82.351562 268.335938 C 82.683594 268.332031 82.960938 268.589844 82.96875 268.921875 L 83.035156 271.546875 C 83.152344 276.082031 84.191406 280.464844 86.121094 284.570312 C 86.1875 284.707031 86.304688 284.746094 86.367188 284.761719 C 86.433594 284.773438 86.558594 284.777344 86.667969 284.671875 L 87.605469 283.773438 C 88.015625 283.378906 88.601562 283.269531 89.128906 283.492188 C 89.65625 283.710938 89.988281 284.203125 89.996094 284.773438 L 90.015625 286.09375 C 90.070312 289.832031 91.675781 293.429688 94.417969 295.96875 L 94.960938 296.472656 C 95.203125 296.699219 95.21875 297.082031 94.992188 297.324219 C 94.875 297.453125 94.714844 297.515625 94.550781 297.515625 " fill-opacity="1" fill-rule="nonzero"/><path fill="#ffffff" d="M 97.027344 268.679688 C 110.5 257.789062 124.136719 245.78125 139.207031 243.347656 C 141.195312 243.027344 143.003906 242.003906 144.234375 240.410156 L 151.011719 224.550781 L 166.921875 240.152344 L 153.304688 254.324219 C 152.425781 255.238281 151.328125 255.917969 150.109375 256.285156 C 137.578125 260.089844 117.988281 268.578125 100.917969 276.335938 L 97.027344 268.679688 " fill-opacity="1" fill-rule="nonzero"/><path fill="#000000" d="M 97.785156 268.839844 L 101.191406 275.546875 C 123.757812 265.308594 139.703125 258.816406 149.933594 255.710938 C 151.042969 255.375 152.0625 254.75 152.871094 253.90625 L 166.074219 240.164062 L 151.222656 225.597656 L 144.757812 240.714844 L 144.710938 240.777344 C 143.40625 242.464844 141.484375 243.589844 139.304688 243.941406 C 125.660156 246.148438 113.027344 256.433594 100.808594 266.382812 C 99.800781 267.203125 98.792969 268.027344 97.785156 268.839844 Z M 100.640625 277.121094 L 96.265625 268.519531 L 96.648438 268.210938 C 97.78125 267.296875 98.914062 266.371094 100.050781 265.449219 C 112.390625 255.398438 125.148438 245.007812 139.109375 242.753906 C 140.964844 242.453125 142.59375 241.511719 143.710938 240.097656 L 150.804688 223.503906 L 167.769531 240.140625 L 153.738281 254.742188 C 152.785156 255.734375 151.589844 256.46875 150.28125 256.863281 C 140.027344 259.976562 123.960938 266.527344 101.167969 276.882812 L 100.640625 277.121094 " fill-opacity="1" fill-rule="nonzero"/><path fill="#000000" d="M 179.703125 178.011719 C 179.703125 178.011719 170.082031 170.511719 169.621094 168.828125 C 169.621094 168.828125 159.945312 178.402344 155.777344 197.46875 C 154.019531 205.5 149.066406 216.507812 146.730469 226.996094 C 151.054688 233.144531 160.4375 239.742188 166.921875 242.90625 C 177.574219 230.980469 187.742188 211.730469 187.742188 211.730469 L 179.703125 178.011719 " fill-opacity="1" fill-rule="nonzero"/><path fill="#caddff" d="M 177.582031 229.101562 C 177.464844 229.101562 177.34375 229.066406 177.242188 228.992188 C 176.96875 228.804688 176.898438 228.429688 177.085938 228.15625 L 179.339844 224.890625 C 184.601562 217.253906 193.410156 204.476562 196.371094 199.832031 C 196.550781 199.550781 196.921875 199.46875 197.203125 199.648438 C 197.484375 199.828125 197.566406 200.199219 197.386719 200.480469 C 194.414062 205.140625 185.597656 217.929688 180.328125 225.574219 L 178.078125 228.839844 C 177.960938 229.007812 177.773438 229.101562 177.582031 229.101562 " fill-opacity="1" fill-rule="nonzero"/><path fill="#ffffff" d="M 136.777344 169.292969 C 136.617188 169.113281 136.269531 168.996094 135.902344 168.917969 C 136.015625 158.09375 136.738281 143.820312 135.910156 136.558594 C 135.691406 134.621094 136.988281 132.835938 138.90625 132.476562 C 146.355469 131.082031 152.765625 129.429688 157.710938 127.425781 L 153.394531 107.445312 C 143.070312 111.566406 133.914062 117.617188 125.847656 125.472656 C 124.535156 126.75 123.761719 128.480469 123.683594 130.308594 C 123.261719 140.015625 126.152344 155.953125 128.480469 168.628906 C 128.304688 168.753906 128.152344 168.910156 128.027344 169.097656 C 127.152344 170.421875 125.550781 174.304688 125.820312 176.839844 C 126.207031 180.449219 133.105469 184.414062 134.445312 183.765625 C 135.785156 183.117188 136.226562 177.503906 136.941406 177.300781 C 137.65625 177.09375 138.367188 179.363281 139.144531 180.605469 C 139.921875 181.847656 142.566406 183.304688 142.890625 182.019531 C 143.210938 180.730469 140.214844 175.65625 139.800781 174.285156 C 139.484375 173.238281 137.71875 170.351562 136.777344 169.292969 " fill-opacity="1" fill-rule="nonzero"/><path fill="#000000" d="M 136.324219 169.691406 Z M 152.953125 108.269531 C 143.128906 112.292969 134.152344 118.222656 126.265625 125.90625 C 125.0625 127.078125 124.359375 128.652344 124.285156 130.335938 C 123.859375 140.121094 126.871094 156.535156 129.074219 168.519531 L 129.140625 168.894531 L 128.832031 169.117188 C 128.710938 169.207031 128.609375 169.308594 128.53125 169.429688 C 127.683594 170.707031 126.171875 174.460938 126.417969 176.773438 C 126.617188 178.632812 128.929688 180.691406 130.847656 181.886719 C 132.671875 183.023438 133.921875 183.316406 134.1875 183.222656 C 134.691406 182.976562 135.214844 180.769531 135.496094 179.582031 C 135.949219 177.679688 136.15625 176.898438 136.773438 176.722656 C 137.746094 176.441406 138.3125 177.609375 138.960938 178.957031 C 139.191406 179.429688 139.425781 179.917969 139.65625 180.285156 C 140.277344 181.28125 141.980469 182.082031 142.304688 181.898438 C 142.464844 181.242188 141.09375 178.457031 140.359375 176.964844 C 139.8125 175.855469 139.378906 174.976562 139.222656 174.457031 C 138.9375 173.519531 137.238281 170.722656 136.328125 169.695312 C 136.3125 169.683594 136.191406 169.597656 135.773438 169.507812 L 135.296875 169.402344 L 135.300781 168.910156 C 135.332031 165.921875 135.410156 162.742188 135.488281 159.375 C 135.695312 150.757812 135.90625 141.84375 135.3125 136.625 C 135.058594 134.378906 136.585938 132.296875 138.792969 131.886719 C 146.433594 130.453125 152.402344 128.871094 157.015625 127.054688 Z M 134.066406 184.433594 C 133.082031 184.433594 131.738281 183.78125 130.925781 183.332031 C 128.464844 181.96875 125.496094 179.460938 125.222656 176.902344 C 124.9375 174.234375 126.546875 170.246094 127.527344 168.761719 C 127.613281 168.632812 127.714844 168.511719 127.824219 168.398438 C 125.621094 156.386719 122.652344 140.109375 123.082031 130.28125 C 123.167969 128.292969 124 126.429688 125.425781 125.042969 C 133.601562 117.078125 142.9375 110.96875 153.167969 106.886719 L 153.832031 106.621094 L 158.410156 127.792969 L 157.9375 127.980469 C 153.1875 129.910156 147 131.574219 139.015625 133.066406 C 137.425781 133.363281 136.328125 134.867188 136.511719 136.488281 C 137.113281 141.789062 136.898438 150.746094 136.695312 159.40625 C 136.617188 162.59375 136.546875 165.613281 136.511719 168.460938 C 136.835938 168.574219 137.066406 168.714844 137.226562 168.890625 C 138.167969 169.949219 140.019531 172.933594 140.375 174.109375 C 140.503906 174.53125 140.957031 175.453125 141.4375 176.433594 C 142.828125 179.253906 143.722656 181.179688 143.472656 182.164062 C 143.347656 182.675781 142.972656 183.015625 142.449219 183.097656 C 141.261719 183.285156 139.332031 182.039062 138.632812 180.921875 C 138.367188 180.5 138.117188 179.984375 137.878906 179.480469 C 137.675781 179.0625 137.371094 178.433594 137.136719 178.089844 C 136.984375 178.523438 136.808594 179.273438 136.667969 179.863281 C 136.121094 182.175781 135.660156 183.847656 134.707031 184.308594 C 134.523438 184.394531 134.304688 184.433594 134.066406 184.433594 " fill-opacity="1" fill-rule="nonzero"/><path fill="#0c2840" d="M 150.394531 107.21875 C 152.824219 114.414062 154.542969 121.878906 154.929688 129.320312 C 169.898438 127.371094 181.878906 130.472656 181.878906 130.472656 L 199.40625 106.21875 C 174.894531 96.929688 162.472656 103.085938 150.394531 107.21875 " fill-opacity="1" fill-rule="nonzero"/><path fill="#ffffff" d="M 259.929688 91.300781 C 258.449219 91.476562 256.203125 96.632812 255.457031 96.59375 C 254.71875 96.554688 255.734375 94.097656 255.40625 92.671875 C 255.078125 91.246094 252.925781 89.996094 252.925781 91.320312 C 252.925781 92.445312 251.828125 97.082031 251.773438 98.511719 C 251.730469 99.605469 252.460938 102.910156 253.003906 104.21875 C 253.042969 104.316406 253.125 104.410156 253.230469 104.507812 C 250.082031 108.035156 237.46875 121.511719 233.738281 125.949219 C 233.300781 126.46875 232.53125 126.519531 232.027344 126.066406 C 227.511719 122.050781 222.726562 118.492188 217.648438 115.417969 L 209.753906 130.53125 C 216.484375 136.566406 221.972656 140.675781 231.941406 144.753906 C 233.441406 145.367188 237.691406 143.882812 238.738281 142.644531 C 244.027344 136.359375 256.410156 114.945312 260.464844 108.050781 C 260.652344 107.734375 260.914062 107.484375 261.203125 107.261719 C 261.207031 107.261719 261.207031 107.261719 261.207031 107.257812 C 262.472656 106.292969 265.25 103.144531 265.820312 100.660156 C 266.636719 97.121094 261.40625 91.121094 259.929688 91.300781 " fill-opacity="1" fill-rule="nonzero"/><path fill="#000000" d="M 253.535156 91.242188 Z M 210.503906 130.394531 C 217.140625 136.316406 222.640625 140.296875 232.171875 144.195312 C 233.410156 144.699219 237.394531 143.304688 238.277344 142.253906 C 243.050781 136.585938 253.570312 118.621094 258.628906 109.988281 C 259.128906 109.132812 259.574219 108.378906 259.945312 107.742188 C 260.148438 107.398438 260.433594 107.089844 260.839844 106.78125 L 260.847656 106.773438 C 262.070312 105.832031 264.714844 102.785156 265.234375 100.523438 C 265.652344 98.703125 264.140625 96.003906 262.71875 94.246094 C 261.371094 92.582031 260.285156 91.898438 260 91.898438 C 260 91.898438 260 91.898438 259.996094 91.898438 C 259.433594 91.96875 258.222656 93.878906 257.570312 94.90625 C 256.523438 96.5625 256.078125 97.230469 255.429688 97.195312 C 255.183594 97.183594 254.96875 97.070312 254.816406 96.886719 C 254.46875 96.460938 254.570312 95.796875 254.714844 94.871094 C 254.824219 94.160156 254.945312 93.351562 254.820312 92.808594 C 254.660156 92.113281 253.90625 91.503906 253.527344 91.382812 C 253.511719 92.027344 253.257812 93.359375 252.964844 94.898438 C 252.6875 96.355469 252.402344 97.863281 252.375 98.535156 C 252.339844 99.515625 253.035156 102.71875 253.5625 103.984375 C 253.558594 103.980469 253.570312 104 253.640625 104.0625 L 254.070312 104.464844 L 253.679688 104.90625 C 252.570312 106.152344 250.28125 108.632812 247.632812 111.507812 C 242.722656 116.835938 236.609375 123.472656 234.199219 126.335938 C 233.886719 126.710938 233.445312 126.9375 232.957031 126.972656 C 232.472656 127.007812 231.996094 126.847656 231.625 126.515625 C 227.289062 122.65625 222.667969 119.210938 217.886719 116.269531 Z M 232.839844 145.488281 C 232.402344 145.488281 232.015625 145.429688 231.714844 145.308594 C 221.855469 141.28125 216.25 137.164062 209.351562 130.980469 L 209.003906 130.667969 L 217.410156 114.570312 L 217.960938 114.902344 C 223 117.953125 227.867188 121.558594 232.425781 125.617188 C 232.554688 125.726562 232.710938 125.785156 232.871094 125.769531 C 233.03125 125.757812 233.175781 125.6875 233.277344 125.5625 C 235.703125 122.675781 241.828125 116.03125 246.746094 110.691406 C 249.15625 108.078125 251.261719 105.789062 252.453125 104.464844 C 252.453125 104.460938 252.449219 104.453125 252.445312 104.449219 C 251.902344 103.140625 251.125 99.714844 251.171875 98.488281 C 251.203125 97.726562 251.484375 96.242188 251.78125 94.671875 C 252.035156 93.335938 252.324219 91.820312 252.324219 91.316406 C 252.324219 90.542969 252.824219 90.210938 253.257812 90.164062 C 254.273438 90.046875 255.707031 91.289062 255.996094 92.535156 C 256.171875 93.304688 256.03125 94.234375 255.90625 95.054688 C 255.890625 95.140625 255.878906 95.234375 255.863281 95.328125 C 256.089844 94.996094 256.34375 94.597656 256.554688 94.261719 C 257.828125 92.253906 258.808594 90.824219 259.859375 90.699219 C 260.898438 90.578125 262.34375 91.996094 263.113281 92.855469 C 264.996094 94.949219 266.984375 98.285156 266.410156 100.792969 C 265.808594 103.410156 262.988281 106.652344 261.574219 107.734375 L 261.550781 107.753906 C 261.277344 107.96875 261.101562 108.15625 260.984375 108.355469 C 260.613281 108.988281 260.171875 109.742188 259.667969 110.597656 C 254.59375 119.257812 244.035156 137.285156 239.199219 143.03125 C 238.199219 144.21875 234.929688 145.488281 232.839844 145.488281 " fill-opacity="1" fill-rule="nonzero"/><path fill="#0c2840" d="M 206.144531 131.207031 L 219.679688 140.90625 L 230.503906 123.085938 C 223.472656 114.628906 218.664062 104.480469 206.035156 102.789062 L 206.144531 131.207031 " fill-opacity="1" fill-rule="nonzero"/><path fill="#000000" d="M 262.183594 101.515625 L 262.097656 101.507812 C 259.644531 101.355469 257.664062 99.554688 257.28125 97.128906 L 256.84375 94.34375 L 258.035156 94.15625 L 258.472656 96.941406 C 258.761719 98.777344 260.242188 100.148438 262.089844 100.300781 L 265.539062 99.527344 L 265.800781 100.699219 L 262.183594 101.515625 " fill-opacity="1" fill-rule="nonzero"/><path fill="#0c2840" d="M 212.941406 107.398438 C 212.378906 105.222656 210.613281 103.578125 208.410156 103.160156 C 192.492188 100.140625 185.042969 102.605469 184.398438 102.898438 C 160.945312 113.632812 162.066406 132.753906 161.058594 149.300781 C 160.019531 166.332031 157.066406 177.199219 157.066406 177.199219 C 169.5 198.203125 206.707031 183.394531 206.707031 183.394531 C 201.34375 160.648438 212.117188 128.695312 212.117188 128.695312 C 217.101562 129.097656 214.84375 114.789062 212.941406 107.398438 " fill-opacity="1" fill-rule="nonzero"/><path fill="#caddff" d="M 209.300781 139.703125 C 209.226562 139.703125 209.148438 139.6875 209.070312 139.65625 C 208.765625 139.53125 208.617188 139.175781 208.746094 138.871094 C 210.402344 134.894531 211.933594 126.664062 212.09375 120.890625 C 212.101562 120.566406 212.371094 120.308594 212.695312 120.308594 C 212.703125 120.308594 212.707031 120.308594 212.714844 120.308594 C 213.042969 120.316406 213.308594 120.59375 213.300781 120.925781 C 213.136719 126.816406 211.558594 135.246094 209.859375 139.332031 C 209.761719 139.5625 209.539062 139.703125 209.300781 139.703125 " fill-opacity="1" fill-rule="nonzero"/><path fill="#19598f" d="M 186.125 119.113281 L 202.664062 119.589844 C 204.730469 119.648438 206.257812 121.539062 205.882812 123.574219 L 201.273438 148.570312 C 200.964844 150.246094 199.453125 151.429688 197.753906 151.324219 L 182.089844 150.375 C 180.109375 150.253906 178.660156 148.460938 178.960938 146.5 L 182.691406 121.976562 C 182.949219 120.292969 184.421875 119.066406 186.125 119.113281 " fill-opacity="1" fill-rule="nonzero"/><path fill="#000000" d="M 188.820312 90.671875 C 187.199219 91.488281 185.976562 91.605469 185.09375 91.554688 C 181.90625 91.375 179.863281 88.804688 179.453125 88.292969 C 177.339844 85.636719 176.324219 81.277344 178.113281 78.714844 C 179.402344 76.871094 181.027344 77.566406 182.507812 75.503906 C 184.195312 73.164062 182.46875 71.253906 184.023438 69.207031 C 185.8125 66.847656 189.757812 67.027344 190.46875 67.0625 C 192.898438 67.171875 193.1875 68.378906 195.492188 68.316406 C 197.839844 68.253906 198.152344 67.070312 200.304688 67.0625 C 202.019531 67.050781 204.515625 67.777344 205.632812 69.761719 C 207.039062 72.246094 205.601562 75.519531 203.9375 77.25 C 201.9375 79.324219 200.523438 78.210938 197.722656 79.902344 C 192.867188 82.832031 194.03125 88.046875 188.820312 90.671875 " fill-opacity="1" fill-rule="nonzero"/><path fill="#ffffff" d="M 197.867188 101.722656 L 196.550781 93.542969 C 196.84375 93.511719 199.261719 93.085938 199.539062 92.949219 C 201.78125 91.832031 201.160156 86.207031 201.160156 86.207031 L 202.40625 84.71875 L 198.6875 76.398438 C 194.738281 79.6875 193.328125 76.457031 189.421875 78.074219 C 185.515625 79.695312 187.636719 84.042969 187.636719 84.042969 C 187.636719 84.042969 184.441406 82.640625 185.125 85.726562 C 185.636719 88.058594 187.339844 88.207031 188.457031 88.113281 L 186.375 102.136719 C 186.375 102.136719 179.667969 104.042969 178.375 104.382812 C 180.058594 104.304688 191.726562 109.378906 204.960938 103.835938 L 197.867188 101.722656 " fill-opacity="1" fill-rule="nonzero"/><path fill="#000000" d="M 180.910156 104.308594 C 184.957031 105.328125 193.542969 107.324219 203.101562 103.910156 L 197.691406 102.300781 C 197.472656 102.234375 197.308594 102.046875 197.269531 101.816406 L 195.957031 93.640625 C 195.929688 93.476562 195.96875 93.308594 196.070312 93.179688 C 196.171875 93.046875 196.320312 92.964844 196.484375 92.945312 C 196.792969 92.910156 198.984375 92.519531 199.292969 92.402344 C 200.792969 91.652344 200.707031 87.625 200.558594 86.273438 C 200.539062 86.109375 200.589844 85.949219 200.695312 85.820312 L 201.699219 84.621094 L 198.449219 77.34375 C 196.328125 78.863281 194.835938 78.613281 193.386719 78.371094 C 192.25 78.179688 191.179688 78.003906 189.652344 78.632812 C 188.75 79.007812 188.148438 79.574219 187.867188 80.320312 C 187.269531 81.875 188.167969 83.765625 188.175781 83.785156 C 188.285156 84.011719 188.242188 84.28125 188.066406 84.464844 C 187.890625 84.644531 187.621094 84.699219 187.390625 84.597656 C 186.898438 84.382812 186.0625 84.207031 185.78125 84.4375 C 185.609375 84.578125 185.582031 85.015625 185.710938 85.597656 C 186.03125 87.050781 186.863281 87.644531 188.40625 87.511719 C 188.589844 87.496094 188.769531 87.566406 188.898438 87.699219 C 189.023438 87.835938 189.082031 88.019531 189.050781 88.203125 L 186.96875 102.226562 C 186.933594 102.460938 186.769531 102.652344 186.535156 102.714844 C 186.351562 102.769531 183.25 103.652344 180.910156 104.308594 Z M 191.855469 107.03125 C 186.753906 107.03125 182.613281 105.984375 180.253906 105.386719 C 179.421875 105.175781 178.644531 104.976562 178.402344 104.988281 C 178.097656 105.003906 177.824219 104.78125 177.777344 104.476562 C 177.730469 104.171875 177.921875 103.882812 178.21875 103.804688 C 179.316406 103.511719 184.40625 102.070312 185.835938 101.664062 L 187.753906 88.726562 C 185.613281 88.617188 184.820312 87.144531 184.535156 85.855469 C 184.292969 84.757812 184.453125 83.96875 185.015625 83.503906 C 185.488281 83.117188 186.128906 83.082031 186.683594 83.160156 C 186.453125 82.292969 186.296875 81.058594 186.738281 79.898438 C 187.144531 78.828125 187.96875 78.027344 189.191406 77.519531 C 191.039062 76.753906 192.390625 76.984375 193.589844 77.183594 C 195.085938 77.429688 196.265625 77.632812 198.300781 75.933594 C 198.445312 75.816406 198.636719 75.769531 198.820312 75.8125 C 199.003906 75.855469 199.15625 75.980469 199.238281 76.152344 L 202.953125 84.472656 C 203.046875 84.683594 203.011719 84.929688 202.867188 85.105469 L 201.78125 86.398438 C 201.890625 87.664062 202.136719 92.332031 199.808594 93.492188 C 199.507812 93.640625 198.082031 93.898438 197.242188 94.042969 L 198.398438 101.253906 L 205.128906 103.257812 C 205.375 103.332031 205.546875 103.550781 205.558594 103.800781 C 205.574219 104.058594 205.425781 104.292969 205.191406 104.390625 C 200.421875 106.390625 195.847656 107.03125 191.855469 107.03125 " fill-opacity="1" fill-rule="nonzero"/><path fill="#000000" d="M 195.636719 94.210938 C 192.152344 94.210938 190.554688 91.5625 190.484375 91.4375 C 190.3125 91.152344 190.410156 90.785156 190.699219 90.617188 C 190.984375 90.449219 191.351562 90.542969 191.519531 90.828125 C 191.585938 90.933594 193.109375 93.40625 196.46875 92.945312 C 196.800781 92.902344 197.105469 93.132812 197.148438 93.460938 C 197.191406 93.792969 196.960938 94.09375 196.632812 94.140625 C 196.285156 94.1875 195.953125 94.210938 195.636719 94.210938 " fill-opacity="1" fill-rule="nonzero"/><path fill="#000000" d="M 261.257812 341.046875 C 260.988281 341.046875 260.742188 340.867188 260.675781 340.59375 C 260.589844 340.273438 260.785156 339.945312 261.109375 339.863281 C 269.765625 337.640625 278.1875 334.339844 286.128906 330.054688 C 305.207031 319.757812 320.683594 304.261719 330.878906 285.234375 C 331.035156 284.941406 331.402344 284.832031 331.695312 284.988281 C 331.988281 285.144531 332.097656 285.511719 331.941406 285.804688 C 321.632812 305.039062 305.984375 320.707031 286.703125 331.113281 C 278.671875 335.445312 270.164062 338.78125 261.410156 341.027344 C 261.355469 341.039062 261.308594 341.046875 261.257812 341.046875 " fill-opacity="1" fill-rule="nonzero"/><path fill="#000000" d="M 331.410156 286.121094 C 331.3125 286.121094 331.214844 286.101562 331.125 286.050781 C 330.832031 285.894531 330.722656 285.53125 330.878906 285.238281 C 331.355469 284.347656 331.816406 283.453125 332.257812 282.574219 C 332.410156 282.273438 332.769531 282.15625 333.066406 282.304688 C 333.363281 282.453125 333.484375 282.816406 333.335938 283.113281 C 332.890625 284 332.421875 284.90625 331.941406 285.804688 C 331.832031 286.007812 331.625 286.121094 331.410156 286.121094 " fill-opacity="1" fill-rule="nonzero"/><path fill="#000000" d="M 286.019531 341.082031 C 285.792969 341.082031 285.578125 340.953125 285.472656 340.738281 C 285.328125 340.4375 285.453125 340.078125 285.757812 339.933594 C 311.523438 327.578125 332.445312 306.804688 344.679688 281.441406 C 344.824219 281.140625 345.183594 281.015625 345.484375 281.15625 C 345.785156 281.304688 345.910156 281.664062 345.765625 281.964844 C 339.699219 294.546875 331.597656 305.96875 321.703125 315.917969 C 311.457031 326.214844 299.539062 334.660156 286.277344 341.023438 C 286.195312 341.0625 286.105469 341.082031 286.019531 341.082031 " fill-opacity="1" fill-rule="nonzero"/><path fill="#000000" d="M 333.113281 277.871094 L 335.765625 278.847656 L 335.746094 275.679688 Z M 336.375 280.320312 C 336.304688 280.320312 336.230469 280.304688 336.164062 280.28125 L 331.71875 278.640625 C 331.515625 278.566406 331.371094 278.390625 331.332031 278.179688 C 331.296875 277.964844 331.375 277.75 331.539062 277.613281 L 335.949219 273.9375 C 336.128906 273.789062 336.382812 273.757812 336.589844 273.855469 C 336.800781 273.953125 336.9375 274.164062 336.941406 274.398438 L 336.972656 279.710938 C 336.976562 279.910156 336.878906 280.09375 336.71875 280.210938 C 336.617188 280.28125 336.496094 280.320312 336.375 280.320312 " fill-opacity="1" fill-rule="nonzero"/><path fill="#000000" d="M 135.617188 31.539062 C 135.335938 31.539062 135.082031 31.339844 135.027344 31.050781 C 134.960938 30.726562 135.175781 30.410156 135.5 30.34375 L 137.789062 29.894531 C 138.117188 29.832031 138.429688 30.042969 138.496094 30.367188 C 138.558594 30.695312 138.347656 31.011719 138.019531 31.078125 L 135.734375 31.527344 C 135.695312 31.535156 135.65625 31.539062 135.617188 31.539062 " fill-opacity="1" fill-rule="nonzero"/><path fill="#000000" d="M 143.621094 29.960938 C 143.335938 29.960938 143.085938 29.761719 143.03125 29.472656 C 142.964844 29.148438 143.179688 28.832031 143.503906 28.769531 L 145.792969 28.320312 C 146.117188 28.253906 146.433594 28.464844 146.5 28.792969 C 146.5625 29.121094 146.351562 29.4375 146.023438 29.5 L 143.738281 29.949219 C 143.699219 29.957031 143.660156 29.960938 143.621094 29.960938 " fill-opacity="1" fill-rule="nonzero"/><path fill="#000000" d="M 141.769531 35.671875 C 141.488281 35.671875 141.234375 35.46875 141.179688 35.183594 L 140.730469 32.894531 C 140.667969 32.570312 140.878906 32.253906 141.207031 32.1875 C 141.53125 32.125 141.851562 32.339844 141.914062 32.664062 L 142.363281 34.953125 C 142.425781 35.277344 142.210938 35.59375 141.886719 35.660156 C 141.847656 35.667969 141.808594 35.671875 141.769531 35.671875 " fill-opacity="1" fill-rule="nonzero"/><path fill="#000000" d="M 140.203125 27.667969 C 139.917969 27.667969 139.667969 27.46875 139.609375 27.179688 L 139.164062 24.894531 C 139.097656 24.566406 139.3125 24.25 139.636719 24.1875 C 139.964844 24.121094 140.28125 24.335938 140.34375 24.660156 L 140.792969 26.949219 C 140.855469 27.277344 140.644531 27.589844 140.316406 27.65625 C 140.277344 27.664062 140.238281 27.667969 140.203125 27.667969 " fill-opacity="1" fill-rule="nonzero"/><path fill="#000000" d="M 81.726562 75.582031 C 81.601562 75.582031 81.472656 75.542969 81.363281 75.457031 C 81.097656 75.253906 81.046875 74.878906 81.25 74.613281 C 94.429688 57.472656 108.113281 48.210938 117.269531 43.457031 C 117.566406 43.304688 117.929688 43.421875 118.082031 43.714844 C 118.234375 44.011719 118.121094 44.375 117.824219 44.527344 C 108.777344 49.222656 95.25 58.382812 82.207031 75.347656 C 82.085938 75.5 81.910156 75.582031 81.726562 75.582031 " fill-opacity="1" fill-rule="nonzero"/><path fill="#000000" d="M 83.164062 63.074219 C 83.019531 63.074219 82.878906 63.023438 82.761719 62.921875 C 82.511719 62.703125 82.492188 62.320312 82.714844 62.074219 C 98.078125 44.855469 113.210938 36.515625 123.199219 32.550781 C 123.507812 32.425781 123.859375 32.578125 123.980469 32.886719 C 124.101562 33.195312 123.953125 33.546875 123.644531 33.667969 C 113.773438 37.585938 98.820312 45.832031 83.613281 62.875 C 83.492188 63.007812 83.328125 63.074219 83.164062 63.074219 " fill-opacity="1" fill-rule="nonzero"/><path fill="#000000" d="M 274.980469 51.707031 C 274.703125 51.707031 274.453125 51.515625 274.390625 51.234375 L 273.855469 48.777344 C 273.785156 48.453125 273.992188 48.128906 274.320312 48.058594 C 274.640625 47.988281 274.964844 48.199219 275.035156 48.523438 L 275.570312 50.976562 C 275.640625 51.300781 275.433594 51.621094 275.109375 51.691406 C 275.066406 51.703125 275.023438 51.707031 274.980469 51.707031 " fill-opacity="1" fill-rule="nonzero"/><path fill="#000000" d="M 276.855469 60.304688 C 276.578125 60.304688 276.328125 60.109375 276.265625 59.828125 L 275.730469 57.371094 C 275.660156 57.046875 275.863281 56.726562 276.191406 56.65625 C 276.515625 56.585938 276.835938 56.792969 276.910156 57.113281 L 277.441406 59.570312 C 277.511719 59.898438 277.308594 60.214844 276.984375 60.289062 C 276.941406 60.296875 276.898438 60.304688 276.855469 60.304688 " fill-opacity="1" fill-rule="nonzero"/><path fill="#000000" d="M 270.121094 55.980469 C 269.84375 55.980469 269.59375 55.789062 269.535156 55.503906 C 269.460938 55.179688 269.667969 54.859375 269.992188 54.789062 L 272.449219 54.253906 C 272.78125 54.183594 273.09375 54.390625 273.167969 54.714844 C 273.238281 55.042969 273.03125 55.363281 272.703125 55.433594 L 270.25 55.964844 C 270.207031 55.972656 270.164062 55.980469 270.121094 55.980469 " fill-opacity="1" fill-rule="nonzero"/><path fill="#000000" d="M 278.71875 54.113281 C 278.4375 54.113281 278.191406 53.917969 278.128906 53.636719 C 278.058594 53.3125 278.265625 52.992188 278.589844 52.921875 L 281.046875 52.386719 C 281.375 52.316406 281.691406 52.523438 281.765625 52.847656 C 281.832031 53.175781 281.625 53.496094 281.300781 53.566406 L 278.84375 54.097656 C 278.804688 54.109375 278.757812 54.113281 278.71875 54.113281 " fill-opacity="1" fill-rule="nonzero"/><path fill="#000000" d="M 302.636719 79.433594 C 301.871094 79.433594 301.109375 79.757812 300.578125 80.386719 C 299.625 81.523438 299.769531 83.222656 300.902344 84.179688 C 302.039062 85.136719 303.742188 84.992188 304.695312 83.859375 C 305.652344 82.722656 305.507812 81.023438 304.375 80.066406 C 303.867188 79.640625 303.25 79.433594 302.636719 79.433594 Z M 302.636719 86.015625 C 301.75 86.015625 300.859375 85.714844 300.125 85.101562 C 298.484375 83.714844 298.273438 81.253906 299.660156 79.613281 C 301.042969 77.96875 303.507812 77.761719 305.148438 79.144531 C 306.792969 80.53125 307 82.992188 305.617188 84.636719 C 304.851562 85.546875 303.746094 86.015625 302.636719 86.015625 " fill-opacity="1" fill-rule="nonzero"/></svg>