<svg xmlns="http://www.w3.org/2000/svg" xmlns:xlink="http://www.w3.org/1999/xlink" width="500" zoomAndPan="magnify" viewBox="0 0 375 374.999991" height="500" preserveAspectRatio="xMidYMid meet" version="1.0"><defs><clipPath id="3b6ad8036b"><path d="M 12.289062 100 L 218 100 L 218 299 L 12.289062 299 Z M 12.289062 100 " clip-rule="nonzero"/></clipPath></defs><path fill="#ffffff" d="M 96.953125 76.0625 L 46.398438 76.0625 C 35.683594 76.0625 27 84.746094 27 95.460938 L 27 105.808594 C 27 116.523438 35.683594 125.207031 46.398438 125.207031 L 96.953125 125.207031 C 107.667969 125.207031 116.351562 116.523438 116.351562 105.808594 L 116.351562 95.460938 C 116.351562 84.746094 107.667969 76.0625 96.953125 76.0625 " fill-opacity="1" fill-rule="nonzero"/><path fill="#000000" d="M 217.5 100.371094 C 214.617188 98.238281 212.902344 94.347656 213.964844 90.921875 C 215.027344 87.496094 219.257812 85.210938 222.488281 86.773438 C 222.769531 77.675781 230.210938 69.320312 239.210938 67.992188 C 248.214844 66.664062 257.75 72.515625 260.644531 81.140625 C 266.792969 75.402344 276.425781 73.75 284.132812 77.113281 C 291.839844 80.476562 297.179688 88.664062 297.152344 97.074219 C 300.609375 96.007812 304.359375 96.242188 307.878906 97.085938 C 320.070312 100.019531 330.007812 110.746094 332.003906 123.128906 C 333.699219 133.652344 329.839844 144.75 322.539062 152.515625 C 315.234375 160.277344 304.753906 164.753906 294.121094 165.484375 C 284.558594 166.140625 274.753906 163.832031 266.699219 158.640625 C 258.644531 153.445312 252.433594 145.335938 249.890625 136.09375 C 248.367188 130.542969 248.132812 124.644531 246.027344 119.285156 C 243.824219 113.675781 239.503906 108.976562 234.214844 106.125 C 229.132812 103.382812 221.980469 103.691406 217.5 100.371094 " fill-opacity="1" fill-rule="nonzero"/><path fill="#0c2840" d="M 217.242188 240.171875 L 310.605469 252.136719 L 304.8125 159.539062 C 304.300781 153.777344 301.734375 148.390625 297.589844 144.355469 C 290.796875 137.734375 282.28125 133.035156 272.910156 130.90625 C 261.960938 128.414062 248.578125 126.492188 237.75 128.363281 C 227.859375 130.074219 219.363281 136.375 214.84375 145.335938 L 202.558594 169.667969 L 212.855469 186.003906 C 222.808594 201.796875 224.644531 221.390625 217.800781 238.757812 L 217.242188 240.171875 " fill-opacity="1" fill-rule="nonzero"/><path fill="#ffffff" d="M 254.84375 108.347656 L 263.5 129.058594 C 263.5 129.058594 254.980469 139.203125 245.648438 137.757812 C 236.320312 136.3125 245.921875 126.875 245.921875 126.875 L 241.167969 116.597656 C 241.167969 116.597656 248.351562 104.585938 254.84375 108.347656 " fill-opacity="1" fill-rule="nonzero"/><path fill="#000000" d="M 245.921875 127.152344 C 245.816406 127.152344 245.714844 127.09375 245.667969 126.988281 L 240.914062 116.714844 C 240.878906 116.632812 240.882812 116.535156 240.929688 116.457031 C 241.230469 115.957031 248.332031 104.25 254.980469 108.105469 C 255.117188 108.183594 255.160156 108.355469 255.082031 108.488281 C 255.007812 108.621094 254.835938 108.664062 254.703125 108.585938 C 248.871094 105.207031 242.265625 115.367188 241.484375 116.617188 L 246.171875 126.757812 C 246.238281 126.894531 246.175781 127.0625 246.039062 127.125 C 246 127.144531 245.960938 127.152344 245.921875 127.152344 " fill-opacity="1" fill-rule="nonzero"/><path fill="#ffffff" d="M 250.101562 101.359375 C 250.101562 101.359375 243.238281 104.445312 236.9375 99.238281 C 230.636719 94.03125 229.792969 91.402344 229.792969 91.402344 L 224.398438 95.914062 C 224.398438 95.914062 226.992188 121.167969 237.714844 121.738281 C 248.433594 122.304688 251.792969 112.050781 251.792969 112.050781 C 251.792969 112.050781 256.632812 112.894531 259.40625 108.839844 C 261.667969 105.539062 262.183594 98.839844 254.84375 98.003906 C 252.332031 97.714844 250.101562 101.359375 250.101562 101.359375 " fill-opacity="1" fill-rule="nonzero"/><path fill="#000000" d="M 250.101562 101.359375 Z M 224.691406 96.03125 C 224.929688 98.089844 227.78125 120.929688 237.726562 121.457031 C 248.113281 122.007812 251.496094 112.066406 251.527344 111.964844 C 251.570312 111.835938 251.703125 111.753906 251.839844 111.777344 C 251.886719 111.785156 256.539062 112.539062 259.175781 108.683594 C 260.390625 106.910156 261.195312 103.914062 260.105469 101.523438 C 259.269531 99.699219 257.441406 98.578125 254.8125 98.277344 C 252.511719 98.015625 250.359375 101.46875 250.335938 101.503906 C 250.308594 101.554688 250.265625 101.59375 250.214844 101.613281 C 250.144531 101.644531 243.121094 104.710938 236.761719 99.453125 C 231.71875 95.285156 230.136719 92.75 229.691406 91.855469 Z M 238.558594 122.039062 C 238.273438 122.039062 237.988281 122.03125 237.699219 122.015625 C 226.863281 121.441406 224.230469 96.984375 224.121094 95.941406 C 224.113281 95.851562 224.148438 95.761719 224.222656 95.703125 L 229.617188 91.1875 C 229.6875 91.128906 229.785156 91.109375 229.875 91.136719 C 229.960938 91.160156 230.03125 91.230469 230.058594 91.316406 C 230.070312 91.34375 230.988281 93.960938 237.117188 99.023438 C 242.855469 103.769531 249.15625 101.441406 249.914062 101.136719 C 250.265625 100.585938 252.394531 97.441406 254.875 97.726562 C 258.457031 98.136719 259.96875 99.890625 260.609375 101.289062 C 261.792969 103.878906 260.933594 107.101562 259.636719 108.996094 C 257.144531 112.636719 253 112.460938 251.976562 112.355469 C 251.421875 113.808594 247.847656 122.035156 238.558594 122.039062 " fill-opacity="1" fill-rule="nonzero"/><path fill="#000000" d="M 251.585938 108.179688 C 251.550781 108.179688 251.515625 108.171875 251.476562 108.15625 C 251.335938 108.097656 251.269531 107.933594 251.332031 107.792969 C 252.203125 105.773438 253.875 104.164062 255.925781 103.375 C 256.066406 103.320312 256.230469 103.390625 256.285156 103.535156 C 256.339844 103.679688 256.269531 103.839844 256.125 103.894531 C 254.242188 104.621094 252.640625 106.160156 251.84375 108.011719 C 251.796875 108.117188 251.695312 108.179688 251.585938 108.179688 " fill-opacity="1" fill-rule="nonzero"/><path fill="#ffffff" d="M 150.117188 124.066406 L 221.910156 124.066406 C 224.425781 124.066406 226.464844 126.105469 226.464844 128.621094 L 226.464844 192.527344 C 226.464844 195.039062 224.425781 197.082031 221.910156 197.082031 L 150.117188 197.082031 C 147.597656 197.082031 145.558594 195.039062 145.558594 192.527344 L 145.558594 128.621094 C 145.558594 126.105469 147.597656 124.066406 150.117188 124.066406 " fill-opacity="1" fill-rule="nonzero"/><path fill="#000000" d="M 150.117188 124.34375 C 147.757812 124.34375 145.835938 126.265625 145.835938 128.621094 L 145.835938 192.527344 C 145.835938 194.882812 147.757812 196.800781 150.117188 196.800781 L 221.910156 196.800781 C 224.265625 196.800781 226.183594 194.882812 226.183594 192.527344 L 226.183594 128.621094 C 226.183594 126.265625 224.265625 124.34375 221.910156 124.34375 Z M 221.910156 197.359375 L 150.117188 197.359375 C 147.449219 197.359375 145.28125 195.191406 145.28125 192.527344 L 145.28125 128.621094 C 145.28125 125.957031 147.449219 123.789062 150.117188 123.789062 L 221.910156 123.789062 C 224.574219 123.789062 226.742188 125.957031 226.742188 128.621094 L 226.742188 192.527344 C 226.742188 195.191406 224.574219 197.359375 221.910156 197.359375 " fill-opacity="1" fill-rule="nonzero"/><path fill="#000000" d="M 186.027344 142.480469 L 176.933594 166.894531 L 195.148438 166.894531 Z M 171.980469 180.125 L 170.386719 180.125 L 185.132812 140.722656 L 186.917969 140.722656 L 201.667969 180.125 L 200.070312 180.125 L 195.6875 168.355469 L 176.390625 168.355469 L 171.980469 180.125 " fill-opacity="1" fill-rule="nonzero"/><path fill="#ffffff" d="M 298.578125 177.929688 C 298.578125 177.929688 290.625 200.207031 276.949219 215.070312 C 270.972656 221.570312 260.941406 222.261719 254.210938 216.542969 C 246.007812 209.5625 234.726562 198.101562 224.398438 181.230469 C 224.398438 181.230469 210.914062 176.128906 210.285156 173.300781 C 209.65625 170.476562 216.261719 171.96875 216.261719 171.96875 C 216.261719 171.96875 207.785156 169.613281 206.769531 166.476562 C 205.753906 163.34375 212.722656 165.179688 213.648438 165.007812 C 214.164062 164.914062 206.003906 161.652344 206.910156 159.011719 C 207.886719 156.171875 216.425781 160.261719 216.425781 160.261719 C 216.425781 160.261719 212.183594 157.902344 211.53125 155.546875 C 211.015625 153.695312 216.308594 152.300781 229.046875 156.847656 C 236.515625 159.515625 242.84375 164.65625 247.082031 171.355469 L 256.691406 186.542969 L 266.484375 162.828125 L 298.578125 177.929688 " fill-opacity="1" fill-rule="nonzero"/><path fill="#000000" d="M 230.625 190.914062 C 230.539062 190.914062 230.453125 190.875 230.398438 190.800781 C 228.246094 187.789062 226.164062 184.644531 224.210938 181.457031 C 222.453125 180.789062 210.644531 176.199219 210.011719 173.363281 C 209.855469 172.660156 210.109375 172.222656 210.351562 171.980469 C 210.957031 171.382812 212.179688 171.253906 213.367188 171.300781 C 210.753906 170.3125 207.171875 168.621094 206.503906 166.5625 C 206.304688 165.953125 206.363281 165.453125 206.675781 165.078125 C 207.5625 164.007812 210.238281 164.355469 212.191406 164.609375 C 212.320312 164.625 212.445312 164.640625 212.570312 164.65625 C 212.550781 164.648438 212.53125 164.636719 212.507812 164.625 C 210.199219 163.398438 205.894531 161.113281 206.648438 158.917969 C 206.804688 158.472656 207.117188 158.144531 207.589844 157.949219 C 209.046875 157.335938 211.839844 158.136719 213.921875 158.910156 C 212.785156 158.011719 211.597656 156.828125 211.261719 155.621094 C 211.140625 155.183594 211.273438 154.757812 211.636719 154.421875 C 213.214844 152.953125 219.238281 153.054688 229.140625 156.585938 C 229.289062 156.640625 229.363281 156.796875 229.3125 156.941406 C 229.257812 157.085938 229.101562 157.164062 228.957031 157.113281 C 217.871094 153.15625 213.027344 153.886719 212.015625 154.828125 C 211.804688 155.023438 211.730469 155.234375 211.796875 155.472656 C 212.410156 157.691406 216.519531 159.992188 216.558594 160.015625 C 216.691406 160.089844 216.742188 160.253906 216.671875 160.386719 C 216.601562 160.523438 216.441406 160.574219 216.304688 160.511719 C 216.242188 160.480469 210.03125 157.527344 207.804688 158.460938 C 207.480469 158.597656 207.277344 158.804688 207.175781 159.097656 C 206.574219 160.84375 210.917969 163.148438 212.769531 164.132812 C 213.871094 164.71875 213.984375 164.78125 213.945312 165.035156 C 213.925781 165.160156 213.828125 165.257812 213.699219 165.285156 C 213.445312 165.328125 212.984375 165.273438 212.121094 165.160156 C 210.503906 164.953125 207.796875 164.601562 207.105469 165.433594 C 206.921875 165.65625 206.894531 165.96875 207.035156 166.390625 C 207.992188 169.347656 216.253906 171.679688 216.335938 171.699219 C 216.480469 171.742188 216.570312 171.890625 216.53125 172.039062 C 216.496094 172.183594 216.347656 172.273438 216.199219 172.242188 C 214.996094 171.96875 211.664062 171.460938 210.746094 172.375 C 210.535156 172.585938 210.472656 172.871094 210.554688 173.242188 C 211.046875 175.441406 220.785156 179.566406 224.496094 180.972656 C 224.554688 180.992188 224.605469 181.035156 224.636719 181.085938 C 226.597656 184.289062 228.6875 187.449219 230.851562 190.476562 C 230.9375 190.601562 230.910156 190.773438 230.785156 190.863281 C 230.734375 190.898438 230.679688 190.914062 230.625 190.914062 " fill-opacity="1" fill-rule="nonzero"/><path fill="#000000" d="M 223.242188 174.386719 C 223.21875 174.386719 223.195312 174.382812 223.167969 174.378906 C 221.140625 173.8125 219.113281 173.152344 217.144531 172.410156 C 217 172.355469 216.929688 172.195312 216.984375 172.050781 C 217.035156 171.90625 217.199219 171.835938 217.339844 171.890625 C 219.296875 172.625 221.304688 173.28125 223.316406 173.839844 C 223.464844 173.882812 223.554688 174.035156 223.511719 174.183594 C 223.476562 174.304688 223.367188 174.386719 223.242188 174.386719 " fill-opacity="1" fill-rule="nonzero"/><path fill="#000000" d="M 222.757812 169.167969 C 222.714844 169.167969 222.671875 169.160156 222.632812 169.136719 C 220 167.8125 217.277344 166.585938 214.539062 165.492188 C 214.394531 165.4375 214.324219 165.273438 214.382812 165.132812 C 214.4375 164.988281 214.601562 164.921875 214.742188 164.976562 C 217.496094 166.074219 220.234375 167.308594 222.882812 168.640625 C 223.019531 168.710938 223.074219 168.878906 223.007812 169.015625 C 222.957031 169.113281 222.859375 169.167969 222.757812 169.167969 " fill-opacity="1" fill-rule="nonzero"/><path fill="#000000" d="M 225.933594 164.609375 C 225.886719 164.609375 225.84375 164.597656 225.800781 164.574219 C 223.046875 163.105469 220.179688 161.785156 217.277344 160.648438 C 217.132812 160.589844 217.0625 160.429688 217.121094 160.285156 C 217.175781 160.144531 217.335938 160.074219 217.480469 160.128906 C 220.402344 161.273438 223.292969 162.605469 226.0625 164.082031 C 226.199219 164.15625 226.25 164.324219 226.175781 164.460938 C 226.128906 164.554688 226.03125 164.609375 225.933594 164.609375 " fill-opacity="1" fill-rule="nonzero"/><path fill="#0c2840" d="M 298.578125 181.230469 C 298.578125 181.230469 271.566406 169.277344 262.441406 161.652344 C 262.441406 161.652344 273.410156 133.761719 285.933594 139.488281 C 295.324219 143.785156 304.8125 163.734375 304.8125 163.734375 C 304.8125 163.734375 300.859375 174.808594 298.578125 181.230469 " fill-opacity="1" fill-rule="nonzero"/><path fill="#ffffff" d="M 283.148438 261.5625 C 283.148438 261.5625 193.5 198.375 166.371094 205.75 C 139.246094 213.128906 145.363281 247.820312 161.324219 261.203125 C 172.421875 270.503906 189.988281 285.375 239.628906 296.847656 C 289.265625 308.320312 283.148438 261.5625 283.148438 261.5625 " fill-opacity="1" fill-rule="nonzero"/><path fill="#000000" d="M 171.332031 205.441406 C 169.496094 205.441406 167.863281 205.632812 166.445312 206.019531 C 154.308594 209.320312 150.078125 217.6875 148.664062 224.121094 C 145.953125 236.484375 151.589844 252.675781 161.503906 260.988281 L 161.660156 261.117188 C 173.082031 270.695312 190.347656 285.167969 239.691406 296.578125 C 254.898438 300.09375 266.363281 298.46875 273.761719 291.753906 C 284.824219 281.71875 283.070312 263.382812 282.886719 261.71875 C 281.214844 260.546875 259.410156 245.324219 234.789062 231.128906 C 205.441406 214.210938 183.722656 205.441406 171.332031 205.441406 Z M 253.992188 298.9375 C 249.628906 298.9375 244.816406 298.332031 239.566406 297.117188 C 217.765625 292.078125 200.265625 286.003906 186.0625 278.542969 C 174.0625 272.242188 166.988281 266.3125 161.300781 261.546875 L 161.148438 261.414062 C 156.335938 257.378906 152.335938 251.386719 149.886719 244.535156 C 147.382812 237.523438 146.753906 230.230469 148.121094 224.003906 C 149.566406 217.417969 153.894531 208.855469 166.296875 205.484375 C 172.546875 203.785156 182.59375 205.675781 196.164062 211.101562 C 206.988281 215.429688 220.078125 222.007812 235.070312 230.648438 C 260.589844 245.363281 283.082031 261.179688 283.308594 261.335938 C 283.371094 261.382812 283.414062 261.453125 283.421875 261.527344 C 283.449219 261.726562 285.886719 281.507812 274.136719 292.164062 C 269.167969 296.675781 262.421875 298.9375 253.992188 298.9375 " fill-opacity="1" fill-rule="nonzero"/><path fill="#000000" d="M 205.28125 285.824219 C 205.246094 285.824219 205.210938 285.816406 205.175781 285.804688 C 205.035156 285.746094 204.964844 285.585938 205.023438 285.441406 C 209.605469 274.078125 230.351562 252.089844 230.558594 251.867188 C 230.664062 251.757812 230.84375 251.75 230.953125 251.859375 C 231.0625 251.960938 231.070312 252.140625 230.964844 252.25 C 230.753906 252.46875 210.082031 274.382812 205.539062 285.648438 C 205.496094 285.757812 205.390625 285.824219 205.28125 285.824219 " fill-opacity="1" fill-rule="nonzero"/><path fill="#000000" d="M 263.636719 270.195312 C 263.574219 270.195312 263.511719 270.175781 263.460938 270.132812 C 249.777344 258.742188 187.742188 225.613281 187.117188 225.277344 C 186.980469 225.207031 186.929688 225.039062 187.003906 224.902344 C 187.074219 224.765625 187.242188 224.714844 187.378906 224.789062 C 188.003906 225.121094 250.089844 258.277344 263.816406 269.703125 C 263.933594 269.804688 263.949219 269.976562 263.851562 270.097656 C 263.796875 270.164062 263.71875 270.195312 263.636719 270.195312 " fill-opacity="1" fill-rule="nonzero"/><path fill="#ffffff" d="M 199.960938 293.640625 C 199.203125 294.558594 199.046875 295.828125 199.558594 296.902344 C 200.074219 297.976562 201.160156 298.660156 202.355469 298.660156 C 211.800781 298.660156 235.113281 298.660156 287.03125 298.660156 C 295.804688 298.660156 304.246094 295.367188 310.667969 289.433594 C 319.785156 281.015625 333.527344 268.1875 345.117188 256.816406 C 358.257812 243.925781 362.398438 224.523438 355.679688 207.441406 C 355.578125 207.1875 355.480469 206.933594 355.378906 206.679688 C 349.6875 192.332031 331.960938 187.0625 319.300781 196 C 293.785156 214.011719 253.382812 243.609375 237.367188 261.296875 C 237.367188 261.296875 210.011719 281.449219 199.960938 293.640625 " fill-opacity="1" fill-rule="nonzero"/><path fill="#000000" d="M 199.960938 293.640625 L 199.964844 293.640625 Z M 333.082031 191.882812 C 328.257812 191.882812 323.519531 193.363281 319.460938 196.226562 C 295.863281 212.882812 253.847656 243.511719 237.574219 261.480469 C 237.5625 261.496094 237.546875 261.507812 237.53125 261.519531 C 237.257812 261.71875 210.085938 281.792969 200.175781 293.816406 C 199.492188 294.648438 199.347656 295.8125 199.8125 296.78125 C 200.273438 297.753906 201.273438 298.382812 202.355469 298.382812 L 287.03125 298.382812 C 295.765625 298.382812 304.089844 295.132812 310.480469 289.230469 C 319.851562 280.574219 333.433594 267.890625 344.921875 256.617188 C 357.988281 243.800781 362.105469 224.535156 355.417969 207.542969 L 355.117188 206.78125 C 352.441406 200.03125 346.894531 194.964844 339.902344 192.882812 C 337.648438 192.214844 335.355469 191.882812 333.082031 191.882812 Z M 287.03125 298.9375 L 202.355469 298.9375 C 201.058594 298.9375 199.863281 298.183594 199.308594 297.023438 C 198.753906 295.859375 198.925781 294.460938 199.746094 293.464844 C 209.578125 281.535156 236.257812 261.769531 237.179688 261.089844 C 253.503906 243.074219 295.535156 212.4375 319.140625 195.773438 C 325.253906 191.460938 332.875 190.210938 340.058594 192.351562 C 347.21875 194.480469 352.894531 199.667969 355.636719 206.578125 L 355.9375 207.339844 C 362.707031 224.542969 358.535156 244.039062 345.3125 257.015625 C 333.820312 268.292969 320.234375 280.980469 310.859375 289.640625 C 304.367188 295.636719 295.90625 298.9375 287.03125 298.9375 " fill-opacity="1" fill-rule="nonzero"/><path fill="#000000" d="M 270.652344 298.9375 C 270.558594 298.9375 270.464844 298.890625 270.414062 298.800781 C 270.335938 298.667969 270.382812 298.496094 270.515625 298.417969 C 290.972656 286.476562 314.382812 265.800781 330.15625 245.742188 C 332.25 243.078125 334.398438 240.210938 335.65625 237 C 335.710938 236.855469 335.871094 236.785156 336.015625 236.839844 C 336.160156 236.898438 336.230469 237.058594 336.171875 237.203125 C 334.886719 240.484375 332.710938 243.390625 330.59375 246.085938 C 314.78125 266.195312 291.308594 286.925781 270.792969 298.898438 C 270.75 298.925781 270.703125 298.9375 270.652344 298.9375 " fill-opacity="1" fill-rule="nonzero"/><path fill="#000000" d="M 274.945312 292.21875 C 274.867188 292.21875 274.789062 292.1875 274.734375 292.125 C 264.1875 280.113281 251.976562 269.683594 238.4375 261.121094 C 238.308594 261.039062 238.269531 260.867188 238.351562 260.738281 C 238.433594 260.609375 238.605469 260.570312 238.734375 260.652344 C 252.316406 269.242188 264.570312 279.707031 275.152344 291.757812 C 275.253906 291.871094 275.242188 292.046875 275.128906 292.148438 C 275.074219 292.195312 275.011719 292.21875 274.945312 292.21875 " fill-opacity="1" fill-rule="nonzero"/><path fill="#000000" d="M 285.488281 283.023438 C 285.417969 283.023438 285.34375 282.996094 285.292969 282.9375 C 274.300781 271.714844 262.207031 261.425781 249.351562 252.363281 C 249.226562 252.273438 249.195312 252.101562 249.285156 251.976562 C 249.375 251.851562 249.546875 251.820312 249.671875 251.910156 C 262.554688 260.992188 274.671875 271.300781 285.6875 282.550781 C 285.796875 282.660156 285.792969 282.835938 285.683594 282.941406 C 285.628906 282.996094 285.558594 283.023438 285.488281 283.023438 " fill-opacity="1" fill-rule="nonzero"/><path fill="#ffffff" d="M 86.945312 253.320312 C 87.640625 253.113281 108.273438 265.515625 117.117188 283.277344 C 120.640625 290.355469 115.390625 298.660156 107.484375 298.660156 L 37.40625 298.660156 C 35.457031 298.660156 34.234375 296.554688 35.199219 294.859375 C 38.113281 289.742188 44.054688 280.679688 52.054688 275.523438 C 52.054688 275.523438 42.144531 263.863281 49.46875 252.472656 C 56.792969 241.085938 86.945312 253.320312 86.945312 253.320312 " fill-opacity="1" fill-rule="nonzero"/><path fill="#000000" d="M 87.023438 253.585938 Z M 61.621094 247.917969 C 56.480469 247.917969 51.957031 249.117188 49.703125 252.625 C 42.578125 263.707031 52.171875 275.230469 52.269531 275.34375 C 52.320312 275.40625 52.34375 275.488281 52.332031 275.566406 C 52.320312 275.644531 52.273438 275.714844 52.207031 275.757812 C 44.214844 280.90625 38.273438 290.023438 35.4375 295 C 35.035156 295.707031 35.039062 296.550781 35.449219 297.253906 C 35.859375 297.960938 36.589844 298.382812 37.40625 298.382812 L 107.484375 298.382812 C 111.132812 298.382812 114.460938 296.523438 116.386719 293.414062 C 118.285156 290.351562 118.464844 286.609375 116.867188 283.402344 C 112.3125 274.253906 104.691406 266.730469 99.097656 262.027344 C 92.757812 256.695312 87.527344 253.714844 86.964844 253.597656 C 86.921875 253.601562 86.878906 253.59375 86.839844 253.578125 C 86.636719 253.496094 72.703125 247.917969 61.621094 247.917969 Z M 107.484375 298.9375 L 37.40625 298.9375 C 36.390625 298.9375 35.480469 298.414062 34.96875 297.535156 C 34.457031 296.65625 34.453125 295.605469 34.957031 294.722656 C 37.78125 289.757812 43.6875 280.699219 51.648438 275.460938 C 51.023438 274.664062 49.058594 271.988281 47.753906 268.367188 C 46.308594 264.347656 45.390625 258.304688 49.234375 252.324219 C 52.339844 247.496094 59.664062 246.160156 71.003906 248.351562 C 79.386719 249.972656 86.972656 253.03125 87.046875 253.0625 L 87.046875 253.070312 C 89.351562 253.652344 108.996094 266.347656 117.367188 283.152344 C 119.046875 286.53125 118.859375 290.476562 116.859375 293.707031 C 114.832031 296.984375 111.328125 298.9375 107.484375 298.9375 " fill-opacity="1" fill-rule="nonzero"/><path fill="#000000" d="M 85.765625 289.839844 C 85.75 289.839844 85.734375 289.839844 85.71875 289.835938 C 65.019531 286.507812 52.007812 275.847656 51.878906 275.738281 C 51.761719 275.640625 51.746094 275.464844 51.84375 275.347656 C 51.941406 275.230469 52.117188 275.210938 52.234375 275.3125 C 52.363281 275.417969 65.265625 285.984375 85.808594 289.289062 C 85.960938 289.3125 86.0625 289.457031 86.039062 289.605469 C 86.015625 289.742188 85.898438 289.839844 85.765625 289.839844 " fill-opacity="1" fill-rule="nonzero"/><path fill="#000000" d="M 59.871094 297.90625 C 59.855469 297.90625 59.839844 297.902344 59.824219 297.902344 C 59.675781 297.878906 59.570312 297.734375 59.59375 297.585938 C 60.390625 292.582031 62.671875 287.734375 66.027344 283.941406 C 66.128906 283.828125 66.304688 283.816406 66.421875 283.917969 C 66.535156 284.019531 66.546875 284.195312 66.445312 284.3125 C 63.160156 288.027344 60.921875 292.773438 60.144531 297.671875 C 60.121094 297.808594 60.003906 297.90625 59.871094 297.90625 " fill-opacity="1" fill-rule="nonzero"/><path fill="#000000" d="M 46.125 297.574219 C 46.117188 297.574219 46.109375 297.574219 46.101562 297.570312 C 45.945312 297.558594 45.832031 297.425781 45.847656 297.269531 C 46.441406 290.136719 50.125 283.191406 55.695312 278.695312 C 55.8125 278.597656 55.988281 278.617188 56.085938 278.734375 C 56.183594 278.855469 56.164062 279.03125 56.042969 279.128906 C 50.589844 283.53125 46.984375 290.332031 46.402344 297.316406 C 46.386719 297.464844 46.265625 297.574219 46.125 297.574219 " fill-opacity="1" fill-rule="nonzero"/><path fill="#ffffff" d="M 71.933594 253.320312 C 72.632812 253.113281 93.265625 265.515625 102.109375 283.277344 C 105.628906 290.355469 100.378906 298.660156 92.472656 298.660156 L 22.398438 298.660156 C 20.445312 298.660156 19.222656 296.554688 20.1875 294.859375 C 23.101562 289.742188 29.046875 280.679688 37.046875 275.523438 C 37.046875 275.523438 27.136719 263.863281 34.460938 252.472656 C 41.78125 241.085938 71.933594 253.320312 71.933594 253.320312 " fill-opacity="1" fill-rule="nonzero"/><path fill="#000000" d="M 72.011719 253.585938 Z M 46.613281 247.917969 C 41.472656 247.917969 36.949219 249.117188 34.691406 252.625 C 27.566406 263.707031 37.160156 275.230469 37.257812 275.34375 C 37.3125 275.40625 37.335938 275.488281 37.324219 275.566406 C 37.3125 275.644531 37.265625 275.714844 37.199219 275.757812 C 29.207031 280.90625 23.261719 290.023438 20.429688 295 C 20.027344 295.707031 20.03125 296.550781 20.441406 297.253906 C 20.851562 297.960938 21.582031 298.382812 22.398438 298.382812 L 92.472656 298.382812 C 96.125 298.382812 99.453125 296.523438 101.378906 293.414062 C 103.273438 290.351562 103.453125 286.609375 101.859375 283.402344 C 97.304688 274.253906 89.683594 266.730469 84.089844 262.027344 C 77.75 256.695312 72.519531 253.714844 71.957031 253.597656 C 71.914062 253.601562 71.871094 253.59375 71.832031 253.578125 C 71.625 253.496094 57.691406 247.917969 46.613281 247.917969 Z M 92.472656 298.9375 L 22.398438 298.9375 C 21.382812 298.9375 20.46875 298.414062 19.960938 297.535156 C 19.449219 296.65625 19.445312 295.605469 19.945312 294.722656 C 22.773438 289.757812 28.675781 280.699219 36.636719 275.460938 C 36.015625 274.664062 34.050781 271.988281 32.746094 268.367188 C 31.296875 264.347656 30.378906 258.304688 34.226562 252.324219 C 37.328125 247.496094 44.652344 246.160156 55.996094 248.351562 C 64.378906 249.972656 71.964844 253.03125 72.039062 253.0625 L 72.035156 253.070312 C 74.339844 253.652344 93.988281 266.34375 102.355469 283.152344 C 104.039062 286.53125 103.847656 290.476562 101.851562 293.707031 C 99.824219 296.984375 96.316406 298.9375 92.472656 298.9375 " fill-opacity="1" fill-rule="nonzero"/><path fill="#000000" d="M 70.753906 289.839844 C 70.738281 289.839844 70.726562 289.839844 70.710938 289.835938 C 50.011719 286.507812 37 275.847656 36.871094 275.738281 C 36.75 275.640625 36.734375 275.464844 36.832031 275.347656 C 36.933594 275.230469 37.105469 275.210938 37.226562 275.3125 C 37.355469 275.417969 50.257812 285.984375 70.796875 289.289062 C 70.949219 289.3125 71.054688 289.457031 71.027344 289.605469 C 71.007812 289.742188 70.886719 289.839844 70.753906 289.839844 " fill-opacity="1" fill-rule="nonzero"/><path fill="#000000" d="M 44.859375 297.90625 C 44.847656 297.90625 44.832031 297.902344 44.816406 297.902344 C 44.664062 297.878906 44.5625 297.734375 44.585938 297.585938 C 45.378906 292.582031 47.664062 287.734375 51.019531 283.941406 C 51.121094 283.828125 51.296875 283.816406 51.414062 283.917969 C 51.527344 284.019531 51.539062 284.195312 51.4375 284.3125 C 48.152344 288.027344 45.914062 292.773438 45.136719 297.671875 C 45.113281 297.808594 44.996094 297.90625 44.859375 297.90625 " fill-opacity="1" fill-rule="nonzero"/><path fill="#000000" d="M 31.113281 297.574219 C 31.105469 297.574219 31.097656 297.574219 31.089844 297.570312 C 30.9375 297.558594 30.824219 297.425781 30.835938 297.269531 C 31.433594 290.136719 35.113281 283.191406 40.683594 278.695312 C 40.804688 278.597656 40.980469 278.617188 41.078125 278.734375 C 41.171875 278.855469 41.152344 279.03125 41.035156 279.128906 C 35.578125 283.53125 31.976562 290.332031 31.390625 297.316406 C 31.378906 297.464844 31.257812 297.574219 31.113281 297.574219 " fill-opacity="1" fill-rule="nonzero"/><path fill="#ffffff" d="M 92.90625 220.078125 C 92.90625 220.078125 101.355469 238.652344 116.144531 236.203125 C 130.933594 233.757812 134.941406 205.914062 135.074219 199.855469 C 135.074219 199.855469 142.523438 197.292969 140.089844 193.351562 C 140.089844 193.351562 141.253906 191.160156 138.203125 189.628906 C 138.203125 189.628906 138.613281 186.0625 132.546875 186.796875 C 132.546875 186.796875 137.828125 181.335938 137.089844 179 C 136.351562 176.664062 128.265625 184.15625 126.507812 186.011719 C 124.75 187.867188 115.960938 205.058594 112.6875 215.082031 L 107.925781 210.1875 L 92.90625 220.078125 " fill-opacity="1" fill-rule="nonzero"/><path fill="#000000" d="M 93.261719 220.175781 C 93.730469 221.136719 95.78125 225.148438 99.195312 228.882812 C 102.757812 232.785156 108.585938 237.175781 116.097656 235.929688 C 123.828125 234.648438 128.382812 226.175781 130.84375 219.289062 C 133.582031 211.625 134.71875 203.296875 134.796875 199.847656 C 134.796875 199.730469 134.871094 199.628906 134.980469 199.589844 C 135.023438 199.574219 139.316406 198.078125 140.15625 195.71875 C 140.421875 194.980469 140.320312 194.257812 139.851562 193.496094 C 139.800781 193.414062 139.796875 193.308594 139.84375 193.21875 C 139.847656 193.214844 140.195312 192.53125 139.929688 191.710938 C 139.695312 190.996094 139.074219 190.378906 138.078125 189.878906 C 137.972656 189.828125 137.914062 189.714844 137.925781 189.597656 C 137.929688 189.5625 138.015625 188.667969 137.273438 187.9375 C 136.425781 187.101562 134.804688 186.804688 132.582031 187.070312 C 132.457031 187.085938 132.351562 187.023438 132.300781 186.917969 C 132.246094 186.8125 132.265625 186.6875 132.347656 186.601562 C 133.785156 185.117188 137.390625 180.871094 136.824219 179.085938 C 136.78125 178.945312 136.710938 178.875 136.582031 178.847656 C 135.039062 178.492188 128.882812 183.910156 126.710938 186.203125 C 124.90625 188.109375 116.148438 205.375 112.953125 215.167969 C 112.921875 215.261719 112.84375 215.328125 112.75 215.351562 C 112.65625 215.375 112.554688 215.34375 112.488281 215.277344 L 107.886719 210.546875 Z M 113.519531 236.699219 C 108.308594 236.699219 103.257812 234.160156 98.773438 229.246094 C 94.828125 224.925781 92.675781 220.238281 92.652344 220.191406 C 92.597656 220.066406 92.640625 219.921875 92.753906 219.84375 L 107.769531 209.957031 C 107.882812 209.882812 108.03125 209.898438 108.125 209.992188 L 112.566406 214.558594 C 115.894531 204.644531 124.503906 187.722656 126.304688 185.820312 C 127.316406 184.753906 134.519531 177.800781 136.707031 178.304688 C 137.027344 178.378906 137.25 178.589844 137.355469 178.917969 C 138.007812 180.976562 134.625 184.949219 133.253906 186.449219 C 135.308594 186.304688 136.792969 186.675781 137.671875 187.550781 C 138.386719 188.257812 138.480469 189.089844 138.488281 189.464844 C 139.535156 190.023438 140.199219 190.722656 140.460938 191.554688 C 140.71875 192.355469 140.519531 193.039062 140.402344 193.332031 C 140.890625 194.191406 140.988281 195.054688 140.683594 195.90625 C 139.84375 198.246094 136.21875 199.726562 135.34375 200.050781 C 135.148438 206.007812 131.257812 233.984375 116.1875 236.480469 C 115.296875 236.625 114.402344 236.699219 113.519531 236.699219 " fill-opacity="1" fill-rule="nonzero"/><path fill="#000000" d="M 129.234375 199.03125 C 129.128906 199.03125 129.027344 198.972656 128.980469 198.867188 C 128.914062 198.726562 128.976562 198.5625 129.117188 198.5 C 130.15625 198.027344 130.714844 196.832031 131.128906 195.726562 L 131.191406 195.550781 C 131.625 194.386719 132.070312 193.175781 133.097656 192.429688 C 133.347656 192.25 133.617188 192.109375 133.875 191.972656 C 134.105469 191.851562 134.324219 191.738281 134.527344 191.597656 C 134.695312 191.480469 135.253906 191.054688 135.214844 190.496094 C 135.1875 190.164062 134.929688 189.839844 134.566406 189.683594 C 134.152344 189.507812 133.683594 189.558594 133.359375 189.628906 C 132.765625 189.765625 132.222656 190.054688 131.652344 190.359375 C 131.398438 190.496094 131.140625 190.632812 130.878906 190.757812 C 129.742188 191.292969 128.730469 191.371094 127.945312 190.992188 C 127.808594 190.921875 127.753906 190.757812 127.820312 190.617188 C 127.886719 190.480469 128.054688 190.421875 128.191406 190.492188 C 128.984375 190.875 129.960938 190.574219 130.640625 190.253906 C 130.890625 190.136719 131.144531 190 131.390625 189.871094 C 131.96875 189.5625 132.570312 189.242188 133.238281 189.089844 C 133.8125 188.957031 134.347656 188.988281 134.78125 189.171875 C 135.34375 189.410156 135.730469 189.914062 135.765625 190.457031 C 135.808594 191.03125 135.460938 191.628906 134.839844 192.058594 C 134.613281 192.214844 134.371094 192.339844 134.132812 192.464844 C 133.882812 192.597656 133.640625 192.722656 133.425781 192.878906 C 132.535156 193.527344 132.117188 194.65625 131.714844 195.746094 L 131.648438 195.921875 C 131.195312 197.132812 130.570312 198.449219 129.347656 199.007812 C 129.3125 199.023438 129.273438 199.03125 129.234375 199.03125 " fill-opacity="1" fill-rule="nonzero"/><path fill="#000000" d="M 134.328125 195.324219 C 134.269531 195.324219 134.214844 195.320312 134.15625 195.3125 C 133.753906 195.265625 133.386719 195.003906 133.167969 194.621094 C 132.953125 194.234375 132.921875 193.785156 133.085938 193.417969 C 133.148438 193.277344 133.3125 193.214844 133.453125 193.277344 C 133.59375 193.339844 133.65625 193.503906 133.59375 193.644531 C 133.5 193.851562 133.523438 194.113281 133.65625 194.347656 C 133.785156 194.578125 134 194.734375 134.222656 194.761719 C 134.675781 194.816406 135.144531 194.503906 135.671875 193.808594 C 136.570312 192.617188 137.304688 191.3125 137.847656 189.921875 C 137.902344 189.78125 138.066406 189.710938 138.207031 189.765625 C 138.351562 189.820312 138.421875 189.980469 138.367188 190.125 C 137.804688 191.5625 137.046875 192.914062 136.117188 194.144531 C 135.515625 194.933594 134.929688 195.324219 134.328125 195.324219 " fill-opacity="1" fill-rule="nonzero"/><path fill="#000000" d="M 136.273438 196.859375 C 135.84375 196.859375 135.40625 196.703125 135.078125 196.429688 C 134.773438 196.175781 134.585938 195.839844 134.554688 195.484375 C 134.542969 195.328125 134.65625 195.195312 134.808594 195.179688 C 134.960938 195.167969 135.09375 195.277344 135.109375 195.433594 C 135.136719 195.703125 135.296875 195.890625 135.433594 196.003906 C 135.6875 196.214844 136.050781 196.328125 136.382812 196.296875 C 136.914062 196.25 137.441406 195.949219 138.050781 195.351562 C 138.566406 194.839844 139.019531 194.261719 139.394531 193.636719 C 139.472656 193.503906 139.644531 193.460938 139.777344 193.542969 C 139.90625 193.621094 139.949219 193.789062 139.871094 193.921875 C 139.472656 194.589844 138.992188 195.203125 138.4375 195.746094 C 137.734375 196.4375 137.097656 196.789062 136.433594 196.851562 C 136.378906 196.855469 136.324219 196.859375 136.273438 196.859375 " fill-opacity="1" fill-rule="nonzero"/><path fill="#000000" d="M 136.75 198.570312 C 136.46875 198.570312 136.183594 198.46875 135.976562 198.269531 C 135.597656 197.90625 135.53125 197.28125 135.816406 196.847656 C 135.902344 196.71875 136.074219 196.683594 136.203125 196.769531 C 136.332031 196.855469 136.367188 197.027344 136.28125 197.15625 C 136.140625 197.367188 136.179688 197.691406 136.359375 197.867188 C 136.539062 198.039062 136.867188 198.0625 137.070312 197.914062 C 137.195312 197.824219 137.371094 197.851562 137.460938 197.976562 C 137.550781 198.101562 137.523438 198.273438 137.398438 198.367188 C 137.210938 198.503906 136.980469 198.570312 136.75 198.570312 " fill-opacity="1" fill-rule="nonzero"/><path fill="#000000" d="M 111.054688 219.644531 C 111.015625 219.644531 110.976562 219.636719 110.9375 219.617188 C 110.800781 219.554688 110.738281 219.390625 110.804688 219.25 C 111.359375 218.054688 111.851562 216.8125 112.269531 215.5625 C 112.316406 215.417969 112.476562 215.339844 112.621094 215.386719 C 112.765625 215.433594 112.847656 215.59375 112.796875 215.738281 C 112.375 217.007812 111.875 218.269531 111.308594 219.484375 C 111.261719 219.585938 111.160156 219.644531 111.054688 219.644531 " fill-opacity="1" fill-rule="nonzero"/><path fill="#0c2840" d="M 97.054688 222.796875 L 111.296875 209.503906 C 111.296875 209.503906 96.398438 186.222656 72.089844 185.332031 C 61.429688 184.9375 52.035156 183.621094 47.105469 191.332031 C 40.875 201.082031 40.582031 220.40625 40.582031 220.40625 L 31.0625 255.539062 L 90.21875 255.539062 L 97.054688 222.796875 " fill-opacity="1" fill-rule="nonzero"/><path fill="#ffffff" d="M 53.320312 230.953125 C 53.320312 230.953125 70.125 268.125 84.152344 268.003906 C 84.152344 268.003906 88.417969 268.984375 92.609375 272.921875 C 92.609375 272.921875 94.570312 273.445312 94.824219 271.238281 C 94.824219 271.238281 95.378906 268.199219 94.21875 266.097656 C 92.074219 262.214844 82.472656 255.539062 82.472656 255.539062 L 69.804688 221.195312 L 53.320312 230.953125 " fill-opacity="1" fill-rule="nonzero"/><path fill="#000000" d="M 93.09375 273.253906 C 92.785156 273.253906 92.558594 273.195312 92.539062 273.191406 C 92.496094 273.179688 92.453125 273.15625 92.421875 273.125 C 88.511719 269.453125 84.503906 268.378906 84.121094 268.285156 C 84.109375 268.285156 84.097656 268.285156 84.085938 268.285156 C 79.269531 268.285156 73.65625 264.050781 67.40625 255.707031 C 67.316406 255.582031 67.339844 255.410156 67.464844 255.316406 C 67.585938 255.222656 67.761719 255.25 67.851562 255.371094 C 74.019531 263.609375 79.507812 267.761719 84.152344 267.726562 C 84.171875 267.726562 84.195312 267.730469 84.214844 267.734375 C 84.390625 267.773438 88.566406 268.765625 92.746094 272.664062 C 92.929688 272.699219 93.484375 272.765625 93.925781 272.464844 C 94.269531 272.230469 94.480469 271.804688 94.546875 271.207031 C 94.554688 271.15625 95.074219 268.21875 93.976562 266.230469 C 91.886719 262.449219 82.410156 255.832031 82.3125 255.765625 C 82.1875 255.679688 82.15625 255.507812 82.246094 255.378906 C 82.332031 255.253906 82.503906 255.222656 82.632812 255.308594 C 83.027344 255.585938 92.3125 262.070312 94.460938 265.960938 C 95.660156 268.125 95.121094 271.160156 95.097656 271.285156 C 95.011719 272.039062 94.722656 272.597656 94.234375 272.929688 C 93.851562 273.1875 93.425781 273.253906 93.09375 273.253906 " fill-opacity="1" fill-rule="nonzero"/><path fill="#000000" d="M 49.746094 233.34375 C 49.71875 233.34375 49.6875 233.339844 49.660156 233.328125 C 49.582031 233.304688 49.519531 233.246094 49.488281 233.171875 L 43.0625 217.09375 C 43.003906 216.953125 43.074219 216.792969 43.21875 216.734375 C 43.359375 216.675781 43.523438 216.746094 43.578125 216.886719 L 49.886719 232.660156 L 72.179688 219.46875 L 60.839844 194.417969 C 60.777344 194.277344 60.839844 194.113281 60.980469 194.050781 C 61.121094 193.988281 61.285156 194.046875 61.347656 194.1875 L 72.792969 219.464844 C 72.847656 219.59375 72.800781 219.746094 72.679688 219.820312 L 49.890625 233.304688 C 49.847656 233.332031 49.796875 233.34375 49.746094 233.34375 " fill-opacity="1" fill-rule="nonzero"/><path fill="#000000" d="M 91.648438 160.992188 C 91.648438 160.992188 99.300781 158.367188 94.351562 154.328125 C 94.351562 154.328125 106.410156 127.925781 88.789062 131.445312 C 70.6875 135.0625 55.707031 127.421875 54.09375 148.566406 C 54.09375 148.566406 33.730469 162.457031 53.859375 176.761719 C 71.503906 189.300781 91.648438 160.992188 91.648438 160.992188 " fill-opacity="1" fill-rule="nonzero"/><path fill="#ffffff" d="M 66.300781 174.699219 C 65.960938 174.988281 61.15625 186.46875 61.15625 186.46875 C 61.15625 186.46875 67.070312 198.222656 75.777344 196.648438 C 83.863281 195.191406 76.648438 189.492188 76.648438 189.492188 L 80.351562 182.074219 L 66.300781 174.699219 " fill-opacity="1" fill-rule="nonzero"/><path fill="#000000" d="M 61.15625 186.746094 C 61.121094 186.746094 61.082031 186.738281 61.046875 186.726562 C 60.90625 186.664062 60.839844 186.503906 60.898438 186.359375 C 62.703125 182.050781 65.78125 174.773438 66.121094 174.488281 C 66.207031 174.414062 66.332031 174.402344 66.429688 174.453125 L 80.484375 181.828125 C 80.617188 181.898438 80.667969 182.0625 80.601562 182.199219 L 78.527344 186.347656 C 78.460938 186.484375 78.292969 186.542969 78.15625 186.472656 C 78.019531 186.40625 77.960938 186.238281 78.03125 186.101562 L 79.980469 182.195312 L 66.398438 175.066406 C 65.78125 176.242188 63.152344 182.417969 61.414062 186.574219 C 61.367188 186.683594 61.265625 186.746094 61.15625 186.746094 " fill-opacity="1" fill-rule="nonzero"/><path fill="#ffffff" d="M 61.691406 173.09375 C 61.691406 173.09375 57.148438 169.324219 55.839844 173.09375 C 54.53125 176.867188 58.320312 182.289062 67.4375 179.179688 C 67.4375 179.179688 73.945312 186.65625 86.183594 183.675781 C 98.425781 180.691406 100.699219 162.933594 87.289062 148.566406 C 87.289062 148.566406 80.640625 160.757812 66.035156 159.316406 C 66.035156 159.316406 73.398438 172.28125 61.691406 173.09375 " fill-opacity="1" fill-rule="nonzero"/><path fill="#000000" d="M 67.433594 178.902344 C 67.515625 178.902344 67.589844 178.933594 67.644531 178.996094 C 67.710938 179.070312 74.195312 186.308594 86.117188 183.40625 C 90.675781 182.292969 93.96875 179.070312 95.382812 174.335938 C 97.6875 166.625 94.605469 156.957031 87.335938 149.027344 C 86.195312 150.859375 80.085938 159.710938 68.378906 159.714844 C 67.773438 159.714844 67.15625 159.691406 66.523438 159.640625 C 67.347656 161.246094 69.808594 166.617188 67.886719 170.195312 C 66.871094 172.089844 64.792969 173.15625 61.710938 173.371094 C 61.640625 173.375 61.566406 173.351562 61.511719 173.308594 C 61.488281 173.289062 59.0625 171.300781 57.398438 171.765625 C 56.796875 171.933594 56.375 172.398438 56.101562 173.183594 C 55.53125 174.828125 55.992188 176.664062 57.300781 177.976562 C 59.359375 180.050781 63.023438 180.390625 67.34375 178.917969 C 67.375 178.90625 67.40625 178.902344 67.433594 178.902344 Z M 80.605469 184.648438 C 72.734375 184.648438 68.164062 180.335938 67.355469 179.5 C 62.894531 180.980469 59.09375 180.570312 56.90625 178.371094 C 55.445312 176.902344 54.9375 174.847656 55.574219 173.003906 C 55.910156 172.042969 56.472656 171.445312 57.25 171.230469 C 59.019531 170.734375 61.296875 172.429688 61.78125 172.808594 C 64.597656 172.59375 66.488281 171.625 67.398438 169.933594 C 69.484375 166.042969 65.828125 159.519531 65.792969 159.457031 C 65.742188 159.363281 65.746094 159.253906 65.800781 159.167969 C 65.855469 159.078125 65.957031 159.03125 66.0625 159.042969 C 80.320312 160.445312 86.976562 148.550781 87.042969 148.433594 C 87.085938 148.351562 87.164062 148.300781 87.253906 148.289062 C 87.339844 148.277344 87.429688 148.308594 87.492188 148.375 C 95.074219 156.5 98.300781 166.507812 95.917969 174.496094 C 94.441406 179.429688 91.007812 182.785156 86.25 183.945312 C 84.214844 184.441406 82.328125 184.648438 80.605469 184.648438 " fill-opacity="1" fill-rule="nonzero"/><path fill="#000000" d="M 63.375 177.039062 C 63.308594 177.039062 63.242188 177.015625 63.1875 176.96875 C 62.429688 176.28125 61.15625 176.238281 60.347656 176.867188 C 60.226562 176.960938 60.054688 176.941406 59.957031 176.820312 C 59.863281 176.699219 59.886719 176.523438 60.003906 176.429688 C 61.03125 175.625 62.59375 175.679688 63.5625 176.554688 C 63.675781 176.65625 63.683594 176.832031 63.582031 176.949219 C 63.527344 177.007812 63.449219 177.039062 63.375 177.039062 " fill-opacity="1" fill-rule="nonzero"/><path fill="#0c2840" d="M 155.480469 104.898438 C 161.027344 104.898438 166.574219 105.425781 172.007812 106.488281 C 170.164062 98.484375 167.960938 88.605469 165.402344 76.863281 C 164.964844 74.863281 163.316406 74.078125 162.039062 74.011719 C 160.765625 73.945312 159.039062 74.5625 158.402344 76.507812 C 155.710938 84.746094 152.167969 95.546875 148.984375 105.140625 C 151.144531 104.980469 153.3125 104.898438 155.480469 104.898438 Z M 172.746094 107.203125 C 176.234375 122.296875 178.460938 130.824219 179.101562 131.410156 C 181.300781 132.960938 184.570312 131.4375 186.339844 129.136719 C 189.785156 124.65625 189.605469 117.777344 185.929688 113.480469 C 182.714844 109.714844 177.5 108.210938 173.316406 107.320312 C 173.125 107.28125 172.9375 107.242188 172.746094 107.203125 Z M 133.261719 133.964844 C 133.121094 133.964844 133 133.855469 132.988281 133.710938 C 132.972656 133.558594 133.085938 133.425781 133.238281 133.410156 C 136.714844 133.113281 139.328125 130.316406 140.617188 127.796875 C 141.183594 126.691406 144.40625 117.171875 148.195312 105.761719 C 143.777344 106.132812 139.390625 106.847656 135.09375 107.898438 C 134.945312 107.933594 134.792969 107.84375 134.757812 107.691406 C 134.71875 107.542969 134.808594 107.394531 134.960938 107.355469 C 139.359375 106.28125 143.855469 105.554688 148.382812 105.1875 C 151.585938 95.542969 155.160156 84.636719 157.875 76.335938 C 158.480469 74.488281 160.117188 73.359375 162.066406 73.457031 C 164.007812 73.554688 165.53125 74.847656 165.945312 76.746094 C 168.492188 88.429688 170.730469 98.453125 172.609375 106.605469 C 172.882812 106.664062 173.15625 106.71875 173.433594 106.777344 C 177.703125 107.6875 183.027344 109.230469 186.351562 113.117188 C 190.191406 117.605469 190.378906 124.792969 186.78125 129.476562 C 184.859375 131.984375 181.246094 133.605469 178.773438 131.859375 C 178.050781 131.347656 175.828125 123.039062 172.144531 107.082031 C 164.488281 105.5625 156.59375 105.109375 148.796875 105.710938 C 144.964844 117.25 141.691406 126.917969 141.113281 128.046875 C 139.382812 131.433594 136.382812 133.699219 133.285156 133.964844 C 133.28125 133.964844 133.269531 133.964844 133.261719 133.964844 " fill-opacity="1" fill-rule="nonzero"/><path fill="#000000" d="M 87.027344 82.984375 C 90.109375 84.542969 92.917969 87.269531 95.085938 90.84375 C 95.304688 91.207031 95.519531 91.578125 95.734375 91.949219 C 96.589844 93.429688 97.46875 94.953125 98.820312 96.042969 C 102.355469 90.792969 103.597656 85.109375 102.140625 80.398438 C 100.542969 75.234375 95.6875 71.054688 89.46875 69.488281 C 84.632812 68.269531 79.246094 68.453125 72.007812 70.085938 C 67.242188 71.164062 60.554688 73.207031 57.523438 78.527344 C 56.753906 79.875 56.269531 81.386719 56.066406 82.976562 C 58.8125 79.941406 62.480469 77.382812 66.835938 75.519531 C 70.6875 73.867188 76.253906 72.40625 80.90625 74.808594 C 83.886719 76.347656 86.089844 79.351562 87.027344 82.984375 Z M 81 82.058594 C 77.703125 82.058594 74.589844 83.398438 72.730469 85.796875 C 71.34375 87.589844 70.804688 90.085938 71.292969 92.476562 C 71.722656 94.574219 72.867188 96.238281 74.515625 97.160156 C 77.308594 98.71875 81.304688 97.984375 83.808594 95.445312 C 86.03125 93.195312 87.167969 89.738281 86.933594 85.96875 C 86.878906 85.078125 86.746094 84.207031 86.539062 83.363281 C 85.9375 83.074219 85.328125 82.832031 84.710938 82.632812 C 83.488281 82.246094 82.230469 82.058594 81 82.058594 Z M 55.976562 83.921875 C 55.789062 87.125 56.679688 90.574219 58.609375 93.621094 C 61.066406 97.503906 64.925781 100.75 70.757812 103.84375 C 74.496094 105.828125 78.464844 107.480469 82.382812 109.039062 C 87.988281 106.757812 93.066406 103.144531 96.933594 98.542969 C 97.496094 97.875 98.019531 97.191406 98.503906 96.503906 C 97.054688 95.351562 96.140625 93.765625 95.253906 92.226562 C 95.039062 91.859375 94.828125 91.492188 94.609375 91.132812 C 92.59375 87.808594 90.019531 85.242188 87.191406 83.699219 C 87.34375 84.425781 87.441406 85.171875 87.488281 85.933594 C 87.734375 89.863281 86.539062 93.472656 84.207031 95.835938 C 81.53125 98.546875 77.25 99.324219 74.242188 97.644531 C 72.449219 96.644531 71.210938 94.847656 70.746094 92.585938 C 70.230469 90.042969 70.804688 87.375 72.292969 85.457031 C 74.980469 81.984375 80.160156 80.605469 84.878906 82.105469 C 85.375 82.261719 85.863281 82.449219 86.347656 82.664062 C 85.375 79.40625 83.316406 76.679688 80.652344 75.304688 C 76.191406 73 70.796875 74.425781 67.054688 76.03125 C 62.503906 77.980469 58.714844 80.695312 55.976562 83.921875 Z M 55.398438 84.632812 C 54.332031 85.992188 53.449219 87.4375 52.765625 88.949219 C 49.886719 95.324219 50.980469 102.804688 55.421875 107.144531 C 60.015625 111.632812 66.953125 111.9375 70.675781 111.71875 C 74.40625 111.5 78.113281 110.679688 81.625 109.335938 C 77.875 107.835938 74.085938 106.242188 70.496094 104.335938 C 64.578125 101.195312 60.648438 97.886719 58.140625 93.921875 C 56.296875 91.007812 55.371094 87.734375 55.398438 84.632812 Z M 107.003906 159.824219 C 106.882812 159.824219 106.777344 159.746094 106.738281 159.628906 C 106.691406 159.484375 106.769531 159.328125 106.917969 159.28125 C 113.351562 157.1875 117.992188 150.199219 117.953125 142.664062 C 117.917969 136.101562 114.613281 129.246094 108.890625 123.859375 C 103.351562 118.648438 96.460938 115.378906 90.449219 112.871094 C 88.476562 112.042969 86.449219 111.246094 84.492188 110.472656 C 83.792969 110.195312 83.085938 109.917969 82.382812 109.636719 C 78.648438 111.128906 74.695312 112.042969 70.710938 112.277344 C 64.121094 112.660156 58.550781 110.976562 55.03125 107.542969 C 50.429688 103.042969 49.289062 95.304688 52.257812 88.71875 C 53.058594 86.949219 54.125 85.265625 55.4375 83.699219 C 55.578125 81.746094 56.109375 79.886719 57.039062 78.25 C 60.179688 72.742188 67.015625 70.644531 71.882812 69.546875 C 79.214844 67.890625 84.679688 67.707031 89.601562 68.949219 C 96.011719 70.558594 101.019531 74.886719 102.671875 80.234375 C 104.179688 85.113281 102.90625 90.976562 99.269531 96.375 C 99.316406 96.40625 99.363281 96.441406 99.414062 96.472656 C 100.1875 96.96875 101.027344 97.234375 101.839844 97.234375 C 103.917969 97.230469 104.960938 95.777344 106.066406 94.242188 C 106.355469 93.839844 106.65625 93.421875 106.972656 93.035156 C 108.769531 90.855469 111.589844 89.542969 114.707031 89.433594 C 117.820312 89.324219 120.730469 90.4375 122.675781 92.488281 C 126.609375 96.636719 126.414062 103.105469 125.554688 107.800781 C 125.308594 109.152344 125 110.523438 124.703125 111.851562 C 123.847656 115.640625 122.96875 119.558594 123.425781 123.421875 C 124.039062 128.597656 128.125 133.847656 133.238281 133.410156 C 133.390625 133.398438 133.527344 133.511719 133.539062 133.664062 C 133.554688 133.816406 133.441406 133.953125 133.285156 133.964844 C 133.070312 133.984375 132.859375 133.992188 132.644531 133.992188 C 127.515625 133.992188 123.492188 128.707031 122.875 123.488281 C 122.40625 119.527344 123.296875 115.5625 124.15625 111.730469 C 124.453125 110.40625 124.761719 109.039062 125.007812 107.699219 C 125.84375 103.132812 126.046875 96.851562 122.269531 92.871094 C 120.433594 90.9375 117.6875 89.886719 114.726562 89.988281 C 111.765625 90.09375 109.097656 91.332031 107.402344 93.390625 C 107.097656 93.761719 106.804688 94.171875 106.519531 94.566406 C 105.378906 96.148438 104.203125 97.789062 101.839844 97.789062 C 100.917969 97.789062 99.976562 97.496094 99.113281 96.9375 C 99.058594 96.90625 99.003906 96.871094 98.953125 96.832031 C 98.460938 97.53125 97.929688 98.222656 97.359375 98.902344 C 93.558594 103.425781 88.601562 107.007812 83.121094 109.332031 C 83.648438 109.539062 84.171875 109.75 84.695312 109.953125 C 86.65625 110.730469 88.6875 111.527344 90.664062 112.355469 C 96.722656 114.886719 103.671875 118.183594 109.273438 123.453125 C 115.105469 128.945312 118.472656 135.945312 118.507812 142.664062 C 118.550781 150.433594 113.746094 157.644531 107.089844 159.808594 C 107.058594 159.816406 107.03125 159.824219 107.003906 159.824219 " fill-opacity="1" fill-rule="nonzero"/><g clip-path="url(#3b6ad8036b)"><path fill="#000000" d="M 216.992188 298.9375 L 12.570312 298.9375 C 12.417969 298.9375 12.292969 298.8125 12.292969 298.660156 L 12.292969 100.773438 C 12.292969 100.617188 12.417969 100.496094 12.570312 100.496094 L 23.464844 100.496094 C 23.621094 100.496094 23.746094 100.617188 23.746094 100.773438 C 23.746094 100.925781 23.621094 101.050781 23.464844 101.050781 L 12.851562 101.050781 L 12.851562 298.382812 L 216.992188 298.382812 C 217.148438 298.382812 217.273438 298.507812 217.273438 298.660156 C 217.273438 298.8125 217.148438 298.9375 216.992188 298.9375 " fill-opacity="1" fill-rule="nonzero"/></g></svg>