<svg xmlns="http://www.w3.org/2000/svg" xmlns:xlink="http://www.w3.org/1999/xlink" width="500" zoomAndPan="magnify" viewBox="0 0 375 374.999991" height="500" preserveAspectRatio="xMidYMid meet" version="1.0"><defs><clipPath id="b8c34ab3c9"><path d="M 135 58.75 L 242 58.75 L 242 75 L 135 75 Z M 135 58.75 " clip-rule="nonzero"/></clipPath><clipPath id="917e9015e3"><path d="M 124 301 L 181 301 L 181 316 L 124 316 Z M 124 301 " clip-rule="nonzero"/></clipPath><clipPath id="bbdbdad002"><path d="M 196 301 L 253 301 L 253 316 L 196 316 Z M 196 301 " clip-rule="nonzero"/></clipPath><clipPath id="88f2b31453"><path d="M 38.871094 91 L 91 91 L 91 125 L 38.871094 125 Z M 38.871094 91 " clip-rule="nonzero"/></clipPath><clipPath id="fa7026598c"><path d="M 188 73 L 335.871094 73 L 335.871094 190 L 188 190 Z M 188 73 " clip-rule="nonzero"/></clipPath></defs><path fill="#092135" d="M 118.058594 301.554688 C 117.785156 301.554688 117.511719 301.476562 117.269531 301.308594 C 113.09375 298.410156 109.042969 295.234375 105.21875 291.871094 C 104.648438 291.367188 104.59375 290.492188 105.097656 289.921875 C 105.601562 289.347656 106.472656 289.292969 107.046875 289.796875 C 110.789062 293.089844 114.757812 296.199219 118.847656 299.039062 C 119.472656 299.472656 119.628906 300.335938 119.191406 300.960938 C 118.925781 301.347656 118.496094 301.554688 118.058594 301.554688 Z M 95.355469 281.574219 C 94.976562 281.574219 94.601562 281.421875 94.328125 281.121094 C 90.917969 277.34375 87.6875 273.332031 84.734375 269.195312 C 84.289062 268.574219 84.433594 267.710938 85.054688 267.269531 C 85.675781 266.824219 86.539062 266.96875 86.984375 267.589844 C 89.875 271.640625 93.039062 275.570312 96.378906 279.265625 C 96.890625 279.832031 96.847656 280.707031 96.28125 281.21875 C 96.015625 281.457031 95.683594 281.574219 95.355469 281.574219 Z M 77.777344 256.96875 C 77.289062 256.96875 76.820312 256.710938 76.566406 256.253906 C 74.101562 251.800781 71.875 247.160156 69.941406 242.457031 C 69.652344 241.75 69.988281 240.945312 70.695312 240.652344 C 71.402344 240.363281 72.207031 240.699219 72.5 241.40625 C 74.390625 246.007812 76.574219 250.554688 78.984375 254.914062 C 79.355469 255.582031 79.113281 256.425781 78.445312 256.792969 C 78.234375 256.910156 78.003906 256.96875 77.777344 256.96875 Z M 66.285156 229 C 65.679688 229 65.125 228.601562 64.953125 227.988281 C 63.578125 223.097656 62.476562 218.070312 61.671875 213.046875 C 61.550781 212.292969 62.066406 211.582031 62.820312 211.460938 C 63.574219 211.339844 64.28125 211.855469 64.402344 212.609375 C 65.1875 217.53125 66.269531 222.453125 67.617188 227.242188 C 67.824219 227.976562 67.394531 228.738281 66.660156 228.945312 C 66.535156 228.980469 66.410156 229 66.285156 229 Z M 61.511719 199.140625 C 60.773438 199.140625 60.164062 198.5625 60.128906 197.820312 C 60.042969 195.855469 60 193.859375 60 191.886719 C 60 188.765625 60.109375 185.613281 60.324219 182.515625 C 60.378906 181.753906 61.039062 181.179688 61.800781 181.234375 C 62.5625 181.285156 63.136719 181.945312 63.082031 182.707031 C 62.871094 185.742188 62.765625 188.832031 62.765625 191.886719 C 62.765625 193.816406 62.808594 195.773438 62.890625 197.699219 C 62.925781 198.460938 62.335938 199.105469 61.570312 199.140625 C 61.550781 199.140625 61.53125 199.140625 61.511719 199.140625 Z M 61.511719 199.140625 " fill-opacity="1" fill-rule="nonzero"/><path fill="#092135" d="M 263.898438 304.441406 C 263.441406 304.441406 262.996094 304.214844 262.734375 303.800781 C 262.320312 303.160156 262.511719 302.304688 263.15625 301.894531 C 267.351562 299.21875 271.4375 296.265625 275.308594 293.125 C 275.898438 292.644531 276.769531 292.734375 277.25 293.324219 C 277.734375 293.917969 277.644531 294.789062 277.050781 295.269531 C 273.101562 298.480469 268.925781 301.492188 264.640625 304.226562 C 264.410156 304.371094 264.152344 304.441406 263.898438 304.441406 Z M 287.367188 285.371094 C 287.019531 285.371094 286.671875 285.242188 286.402344 284.980469 C 285.855469 284.445312 285.84375 283.570312 286.378906 283.023438 C 289.863281 279.460938 293.175781 275.660156 296.226562 271.726562 C 296.695312 271.121094 297.5625 271.011719 298.167969 271.480469 C 298.769531 271.949219 298.878906 272.816406 298.414062 273.421875 C 295.296875 277.4375 291.914062 281.320312 288.355469 284.957031 C 288.085938 285.234375 287.726562 285.371094 287.367188 285.371094 Z M 305.902344 261.472656 C 305.65625 261.472656 305.410156 261.410156 305.1875 261.273438 C 304.535156 260.878906 304.324219 260.027344 304.722656 259.375 C 307.304688 255.109375 309.667969 250.65625 311.738281 246.128906 C 312.058594 245.4375 312.878906 245.132812 313.574219 245.449219 C 314.265625 245.765625 314.570312 246.585938 314.253906 247.28125 C 312.136719 251.902344 309.726562 256.453125 307.085938 260.808594 C 306.824219 261.238281 306.367188 261.472656 305.902344 261.472656 Z M 318.5 233.972656 C 318.359375 233.972656 318.214844 233.949219 318.074219 233.90625 C 317.347656 233.667969 316.949219 232.890625 317.183594 232.164062 C 318.722656 227.425781 320 222.546875 320.976562 217.660156 C 321.128906 216.910156 321.855469 216.425781 322.605469 216.574219 C 323.355469 216.726562 323.839844 217.453125 323.6875 218.203125 C 322.6875 223.195312 321.382812 228.179688 319.816406 233.015625 C 319.625 233.601562 319.082031 233.972656 318.5 233.972656 Z M 324.453125 204.316406 C 324.414062 204.316406 324.375 204.316406 324.335938 204.3125 C 323.574219 204.25 323.007812 203.582031 323.074219 202.820312 C 323.371094 199.207031 323.523438 195.527344 323.523438 191.886719 C 323.523438 190.539062 323.503906 189.175781 323.464844 187.835938 C 323.441406 187.074219 324.039062 186.433594 324.800781 186.414062 C 325.5625 186.386719 326.203125 186.988281 326.226562 187.75 C 326.269531 189.121094 326.289062 190.511719 326.289062 191.886719 C 326.289062 195.605469 326.132812 199.359375 325.828125 203.046875 C 325.769531 203.769531 325.164062 204.316406 324.453125 204.316406 Z M 324.453125 204.316406 " fill-opacity="1" fill-rule="nonzero"/><g clip-path="url(#b8c34ab3c9)"><path fill="#092135" d="M 136.957031 74.050781 C 136.441406 74.050781 135.945312 73.761719 135.707031 73.261719 C 135.382812 72.570312 135.675781 71.746094 136.367188 71.417969 C 140.96875 69.246094 145.746094 67.320312 150.5625 65.695312 C 151.285156 65.453125 152.070312 65.839844 152.316406 66.5625 C 152.558594 67.289062 152.171875 68.070312 151.445312 68.316406 C 146.730469 69.90625 142.054688 71.792969 137.546875 73.917969 C 137.355469 74.011719 137.15625 74.050781 136.957031 74.050781 Z M 240.140625 70.132812 C 239.976562 70.132812 239.808594 70.105469 239.648438 70.042969 C 234.992188 68.265625 230.1875 66.742188 225.359375 65.515625 C 224.621094 65.328125 224.171875 64.574219 224.359375 63.835938 C 224.546875 63.097656 225.300781 62.648438 226.039062 62.835938 C 230.972656 64.089844 235.878906 65.644531 240.632812 67.460938 C 241.347656 67.734375 241.703125 68.53125 241.429688 69.246094 C 241.222656 69.796875 240.695312 70.132812 240.140625 70.132812 Z M 165.609375 64.386719 C 164.972656 64.386719 164.398438 63.941406 164.261719 63.292969 C 164.101562 62.546875 164.578125 61.8125 165.324219 61.652344 C 170.292969 60.597656 175.382812 59.816406 180.453125 59.339844 C 181.214844 59.265625 181.886719 59.824219 181.960938 60.585938 C 182.03125 61.34375 181.472656 62.019531 180.714844 62.089844 C 175.746094 62.558594 170.761719 63.324219 165.898438 64.355469 C 165.804688 64.378906 165.707031 64.386719 165.609375 64.386719 Z M 210.828125 62.683594 C 210.769531 62.683594 210.707031 62.679688 210.644531 62.667969 C 205.722656 62.007812 200.691406 61.625 195.695312 61.53125 C 194.933594 61.515625 194.328125 60.886719 194.339844 60.121094 C 194.355469 59.367188 194.972656 58.765625 195.722656 58.765625 C 195.730469 58.765625 195.742188 58.765625 195.75 58.765625 C 200.851562 58.863281 205.984375 59.253906 211.011719 59.929688 C 211.769531 60.03125 212.296875 60.726562 212.195312 61.484375 C 212.105469 62.179688 211.511719 62.683594 210.828125 62.683594 Z M 210.828125 62.683594 " fill-opacity="1" fill-rule="nonzero"/></g><path fill="#19598f" d="M 289.886719 191.886719 C 289.886719 193.46875 289.847656 195.050781 289.769531 196.632812 C 289.691406 198.214844 289.574219 199.792969 289.421875 201.367188 C 289.265625 202.945312 289.070312 204.515625 288.839844 206.082031 C 288.605469 207.648438 288.335938 209.207031 288.027344 210.757812 C 287.71875 212.3125 287.371094 213.855469 286.988281 215.390625 C 286.601562 216.929688 286.179688 218.453125 285.722656 219.96875 C 285.261719 221.484375 284.765625 222.984375 284.230469 224.476562 C 283.699219 225.96875 283.128906 227.445312 282.523438 228.90625 C 281.917969 230.371094 281.273438 231.816406 280.597656 233.246094 C 279.921875 234.679688 279.210938 236.09375 278.464844 237.488281 C 277.71875 238.886719 276.9375 240.261719 276.125 241.621094 C 275.308594 242.980469 274.460938 244.316406 273.582031 245.632812 C 272.703125 246.949219 271.792969 248.242188 270.847656 249.515625 C 269.90625 250.785156 268.933594 252.035156 267.925781 253.257812 C 266.921875 254.480469 265.890625 255.679688 264.824219 256.851562 C 263.761719 258.027344 262.671875 259.171875 261.550781 260.292969 C 260.433594 261.410156 259.285156 262.503906 258.113281 263.566406 C 256.941406 264.628906 255.742188 265.664062 254.515625 266.667969 C 253.292969 267.671875 252.046875 268.644531 250.773438 269.589844 C 249.503906 270.53125 248.207031 271.445312 246.890625 272.324219 C 245.574219 273.203125 244.238281 274.050781 242.878906 274.863281 C 241.523438 275.675781 240.144531 276.457031 238.75 277.203125 C 237.351562 277.949219 235.9375 278.660156 234.507812 279.339844 C 233.074219 280.015625 231.628906 280.65625 230.167969 281.261719 C 228.703125 281.867188 227.226562 282.4375 225.738281 282.972656 C 224.246094 283.503906 222.742188 284.003906 221.226562 284.460938 C 219.710938 284.921875 218.1875 285.34375 216.652344 285.726562 C 215.117188 286.113281 213.570312 286.460938 212.019531 286.769531 C 210.464844 287.078125 208.90625 287.347656 207.339844 287.582031 C 205.773438 287.8125 204.203125 288.007812 202.628906 288.160156 C 201.050781 288.316406 199.472656 288.433594 197.890625 288.511719 C 196.3125 288.589844 194.726562 288.628906 193.144531 288.628906 C 191.5625 288.628906 189.980469 288.589844 188.398438 288.511719 C 186.816406 288.433594 185.238281 288.316406 183.664062 288.160156 C 182.085938 288.007812 180.515625 287.8125 178.949219 287.582031 C 177.382812 287.347656 175.824219 287.078125 174.273438 286.769531 C 172.71875 286.460938 171.175781 286.113281 169.640625 285.726562 C 168.101562 285.34375 166.578125 284.921875 165.0625 284.460938 C 163.546875 284.003906 162.042969 283.503906 160.554688 282.972656 C 159.0625 282.4375 157.585938 281.867188 156.125 281.261719 C 154.660156 280.65625 153.214844 280.015625 151.78125 279.339844 C 150.351562 278.660156 148.9375 277.949219 147.542969 277.203125 C 146.144531 276.457031 144.769531 275.675781 143.410156 274.863281 C 142.050781 274.050781 140.714844 273.203125 139.398438 272.324219 C 138.082031 271.445312 136.789062 270.53125 135.515625 269.589844 C 134.246094 268.644531 132.996094 267.671875 131.773438 266.667969 C 130.550781 265.664062 129.351562 264.628906 128.175781 263.566406 C 127.003906 262.503906 125.859375 261.410156 124.738281 260.292969 C 123.617188 259.171875 122.527344 258.027344 121.464844 256.851562 C 120.402344 255.679688 119.367188 254.480469 118.363281 253.257812 C 117.359375 252.035156 116.382812 250.785156 115.441406 249.515625 C 114.5 248.242188 113.585938 246.949219 112.707031 245.632812 C 111.828125 244.316406 110.980469 242.980469 110.167969 241.621094 C 109.351562 240.261719 108.574219 238.886719 107.828125 237.488281 C 107.082031 236.09375 106.367188 234.679688 105.691406 233.246094 C 105.015625 231.816406 104.375 230.371094 103.765625 228.90625 C 103.160156 227.445312 102.59375 225.96875 102.058594 224.476562 C 101.523438 222.984375 101.027344 221.484375 100.570312 219.96875 C 100.109375 218.453125 99.6875 216.929688 99.300781 215.390625 C 98.917969 213.855469 98.570312 212.3125 98.261719 210.757812 C 97.953125 209.207031 97.683594 207.648438 97.449219 206.082031 C 97.21875 204.515625 97.023438 202.945312 96.871094 201.367188 C 96.714844 199.792969 96.597656 198.214844 96.519531 196.632812 C 96.441406 195.050781 96.402344 193.46875 96.402344 191.886719 C 96.402344 190.300781 96.441406 188.71875 96.519531 187.140625 C 96.597656 185.558594 96.714844 183.980469 96.871094 182.402344 C 97.023438 180.828125 97.21875 179.257812 97.449219 177.691406 C 97.683594 176.125 97.953125 174.566406 98.261719 173.011719 C 98.570312 171.460938 98.917969 169.914062 99.300781 168.378906 C 99.6875 166.84375 100.109375 165.316406 100.570312 163.804688 C 101.027344 162.289062 101.523438 160.785156 102.058594 159.292969 C 102.59375 157.804688 103.160156 156.328125 103.765625 154.863281 C 104.375 153.402344 105.015625 151.953125 105.691406 150.523438 C 106.367188 149.09375 107.082031 147.679688 107.828125 146.28125 C 108.574219 144.886719 109.351562 143.507812 110.167969 142.152344 C 110.980469 140.792969 111.828125 139.457031 112.707031 138.140625 C 113.585938 136.824219 114.5 135.527344 115.441406 134.257812 C 116.382812 132.984375 117.359375 131.738281 118.363281 130.511719 C 119.367188 129.289062 120.402344 128.089844 121.464844 126.917969 C 122.527344 125.746094 123.617188 124.597656 124.738281 123.480469 C 125.859375 122.359375 127.003906 121.269531 128.175781 120.203125 C 129.351562 119.140625 130.550781 118.109375 131.773438 117.101562 C 132.996094 116.097656 134.246094 115.125 135.515625 114.183594 C 136.789062 113.238281 138.082031 112.328125 139.398438 111.449219 C 140.714844 110.570312 142.050781 109.722656 143.410156 108.90625 C 144.769531 108.09375 146.144531 107.3125 147.542969 106.566406 C 148.9375 105.820312 150.351562 105.109375 151.78125 104.433594 C 153.214844 103.753906 154.660156 103.113281 156.125 102.507812 C 157.585938 101.902344 159.0625 101.332031 160.554688 100.800781 C 162.042969 100.265625 163.546875 99.769531 165.0625 99.308594 C 166.578125 98.851562 168.101562 98.429688 169.640625 98.042969 C 171.175781 97.660156 172.71875 97.3125 174.273438 97.003906 C 175.824219 96.695312 177.382812 96.421875 178.949219 96.191406 C 180.515625 95.957031 182.085938 95.765625 183.664062 95.609375 C 185.238281 95.453125 186.816406 95.339844 188.398438 95.261719 C 189.980469 95.183594 191.5625 95.144531 193.144531 95.144531 C 194.726562 95.144531 196.3125 95.183594 197.890625 95.261719 C 199.472656 95.339844 201.050781 95.453125 202.628906 95.609375 C 204.203125 95.765625 205.773438 95.957031 207.339844 96.191406 C 208.90625 96.421875 210.464844 96.695312 212.019531 97.003906 C 213.570312 97.3125 215.117188 97.660156 216.652344 98.042969 C 218.1875 98.429688 219.710938 98.851562 221.226562 99.308594 C 222.742188 99.769531 224.246094 100.265625 225.734375 100.800781 C 227.226562 101.332031 228.703125 101.902344 230.167969 102.507812 C 231.628906 103.113281 233.074219 103.753906 234.507812 104.433594 C 235.9375 105.109375 237.351562 105.820312 238.75 106.566406 C 240.144531 107.3125 241.523438 108.09375 242.878906 108.90625 C 244.238281 109.722656 245.574219 110.570312 246.890625 111.449219 C 248.207031 112.328125 249.503906 113.238281 250.773438 114.183594 C 252.046875 115.125 253.292969 116.097656 254.515625 117.101562 C 255.742188 118.109375 256.941406 119.140625 258.113281 120.203125 C 259.285156 121.269531 260.433594 122.359375 261.550781 123.480469 C 262.671875 124.597656 263.761719 125.746094 264.824219 126.917969 C 265.890625 128.089844 266.921875 129.289062 267.925781 130.511719 C 268.933594 131.738281 269.90625 132.984375 270.847656 134.257812 C 271.792969 135.527344 272.703125 136.824219 273.582031 138.140625 C 274.460938 139.457031 275.308594 140.792969 276.125 142.152344 C 276.9375 143.507812 277.71875 144.886719 278.464844 146.28125 C 279.210938 147.679688 279.921875 149.09375 280.597656 150.523438 C 281.273438 151.953125 281.917969 153.402344 282.523438 154.863281 C 283.128906 156.328125 283.699219 157.804688 284.230469 159.292969 C 284.765625 160.785156 285.261719 162.289062 285.722656 163.804688 C 286.179688 165.316406 286.601562 166.84375 286.988281 168.378906 C 287.371094 169.914062 287.71875 171.460938 288.027344 173.011719 C 288.335938 174.566406 288.605469 176.125 288.839844 177.691406 C 289.070312 179.257812 289.265625 180.828125 289.421875 182.402344 C 289.574219 183.980469 289.691406 185.558594 289.769531 187.140625 C 289.847656 188.71875 289.886719 190.300781 289.886719 191.886719 Z M 289.886719 191.886719 " fill-opacity="1" fill-rule="nonzero"/><path fill="#ffc700" d="M 172.589844 271.035156 L 172.589844 259.542969 C 172.589844 254.949219 170.125 251.777344 166.730469 250.710938 L 166.613281 250.652344 L 155.257812 250.652344 L 166.773438 271.644531 Z M 172.589844 271.035156 " fill-opacity="1" fill-rule="nonzero"/><path fill="#092135" d="M 166.769531 273.027344 C 166.269531 273.027344 165.804688 272.753906 165.558594 272.308594 L 154.046875 251.316406 C 153.8125 250.886719 153.820312 250.367188 154.066406 249.949219 C 154.316406 249.527344 154.769531 249.269531 155.257812 249.269531 L 166.613281 249.269531 C 166.824219 249.269531 167.03125 249.316406 167.222656 249.410156 L 167.25 249.425781 C 171.398438 250.777344 173.972656 254.644531 173.972656 259.542969 L 173.972656 271.035156 C 173.972656 271.746094 173.4375 272.335938 172.734375 272.410156 L 166.914062 273.019531 C 166.867188 273.023438 166.820312 273.027344 166.769531 273.027344 Z M 172.589844 271.035156 L 172.59375 271.035156 Z M 157.59375 252.035156 L 167.542969 270.171875 L 171.210938 269.789062 L 171.210938 259.542969 C 171.210938 255.808594 169.386719 253 166.335938 252.035156 Z M 157.59375 252.035156 " fill-opacity="1" fill-rule="nonzero"/><path fill="#fef759" d="M 178.859375 314.65625 C 174.675781 307.609375 167.109375 303.550781 159.410156 303.238281 L 145.527344 303.238281 C 137.28125 303.570312 130.085938 308.054688 125.988281 314.65625 Z M 178.859375 314.65625 " fill-opacity="1" fill-rule="nonzero"/><g clip-path="url(#917e9015e3)"><path fill="#092135" d="M 178.863281 316.039062 C 178.390625 316.039062 177.929688 315.796875 177.671875 315.359375 C 173.921875 309.050781 166.917969 304.933594 159.378906 304.621094 L 145.554688 304.621094 C 138.027344 304.933594 131.152344 308.957031 127.160156 315.382812 C 126.757812 316.03125 125.90625 316.230469 125.257812 315.828125 C 124.609375 315.425781 124.410156 314.574219 124.8125 313.925781 C 129.292969 306.710938 137.015625 302.199219 145.46875 301.855469 C 145.488281 301.855469 145.507812 301.855469 145.527344 301.855469 L 159.410156 301.855469 C 159.425781 301.855469 159.445312 301.855469 159.464844 301.855469 C 163.546875 302.023438 167.585938 303.1875 171.140625 305.222656 C 174.835938 307.335938 177.914062 310.355469 180.050781 313.949219 C 180.441406 314.605469 180.222656 315.453125 179.566406 315.84375 C 179.34375 315.976562 179.101562 316.039062 178.863281 316.039062 Z M 178.863281 316.039062 " fill-opacity="1" fill-rule="nonzero"/></g><path fill="#ffc700" d="M 151.664062 254.511719 L 160.035156 254.511719 C 164.195312 254.511719 167.570312 251.140625 167.570312 246.976562 L 145.015625 246.976562 C 138.054688 246.976562 132.410156 252.621094 132.410156 259.585938 L 132.410156 271.164062 Z M 151.664062 254.511719 " fill-opacity="1" fill-rule="nonzero"/><path fill="#092135" d="M 132.410156 272.546875 C 131.648438 272.546875 131.027344 271.925781 131.027344 271.164062 L 131.027344 259.585938 C 131.027344 251.871094 137.304688 245.597656 145.015625 245.597656 L 167.570312 245.597656 C 168.332031 245.597656 168.949219 246.214844 168.949219 246.976562 C 168.949219 251.894531 164.949219 255.894531 160.035156 255.894531 L 151.664062 255.894531 C 150.902344 255.894531 150.28125 255.273438 150.28125 254.511719 C 150.28125 253.75 150.902344 253.128906 151.664062 253.128906 L 160.035156 253.128906 C 162.953125 253.128906 165.402344 251.089844 166.03125 248.359375 L 145.015625 248.359375 C 138.828125 248.359375 133.792969 253.394531 133.792969 259.585938 L 133.792969 271.164062 C 133.792969 271.925781 133.171875 272.546875 132.410156 272.546875 Z M 132.410156 272.546875 " fill-opacity="1" fill-rule="nonzero"/><path fill="#ffffff" d="M 159.410156 294.902344 L 159.410156 303.074219 C 159.410156 306.859375 156.339844 309.929688 152.554688 309.929688 C 148.765625 309.929688 145.695312 306.859375 145.695312 303.074219 L 145.699219 294.9375 Z M 159.410156 294.902344 " fill-opacity="1" fill-rule="nonzero"/><path fill="#092135" d="M 152.554688 311.3125 C 148.011719 311.3125 144.3125 307.617188 144.3125 303.074219 L 144.316406 294.9375 C 144.320312 294.175781 144.9375 293.558594 145.699219 293.558594 C 145.699219 293.558594 145.699219 293.558594 145.703125 293.558594 C 146.464844 293.558594 147.082031 294.175781 147.082031 294.941406 L 147.078125 303.074219 C 147.078125 306.09375 149.535156 308.546875 152.554688 308.546875 C 155.574219 308.546875 158.027344 306.09375 158.027344 303.074219 L 158.027344 294.902344 C 158.027344 294.140625 158.648438 293.519531 159.410156 293.519531 C 160.175781 293.519531 160.792969 294.140625 160.792969 294.902344 L 160.792969 303.074219 C 160.792969 307.617188 157.097656 311.3125 152.554688 311.3125 Z M 152.554688 311.3125 " fill-opacity="1" fill-rule="nonzero"/><path fill="#ffffff" d="M 167.8125 268.882812 L 167.8125 267.191406 C 167.8125 260.179688 162.132812 254.5 155.125 254.5 L 149.890625 254.5 C 142.882812 254.5 137.203125 260.179688 137.203125 267.191406 L 137.203125 268.886719 C 133.722656 268.9375 130.917969 271.769531 130.917969 275.261719 C 130.917969 278.753906 133.722656 281.585938 137.203125 281.632812 L 137.203125 282.152344 C 137.203125 289.8125 143.410156 296.019531 151.070312 296.019531 L 153.949219 296.019531 C 161.605469 296.019531 167.8125 289.8125 167.8125 282.152344 L 167.8125 281.640625 C 171.335938 281.640625 174.191406 278.785156 174.191406 275.261719 C 174.191406 271.738281 171.335938 268.882812 167.8125 268.882812 Z M 167.8125 268.882812 " fill-opacity="1" fill-rule="nonzero"/><path fill="#092135" d="M 153.949219 297.402344 L 151.070312 297.402344 C 142.90625 297.402344 136.21875 290.953125 135.839844 282.878906 C 132.257812 282.191406 129.535156 279.019531 129.535156 275.261719 C 129.535156 273.207031 130.328125 271.273438 131.773438 269.8125 C 132.886719 268.683594 134.292969 267.9375 135.820312 267.644531 L 135.820312 267.191406 C 135.820312 259.429688 142.132812 253.117188 149.890625 253.117188 L 155.125 253.117188 C 162.882812 253.117188 169.195312 259.429688 169.195312 267.191406 L 169.195312 267.625 C 172.816406 268.277344 175.574219 271.453125 175.574219 275.261719 C 175.574219 279.074219 172.808594 282.253906 169.179688 282.902344 C 168.789062 290.964844 162.105469 297.402344 153.949219 297.402344 Z M 149.890625 255.882812 C 143.65625 255.882812 138.585938 260.957031 138.585938 267.1875 L 138.585938 268.886719 C 138.585938 269.644531 137.980469 270.257812 137.222656 270.269531 C 134.507812 270.308594 132.296875 272.546875 132.296875 275.261719 C 132.296875 277.976562 134.507812 280.214844 137.222656 280.25 C 137.980469 280.261719 138.585938 280.878906 138.585938 281.632812 L 138.585938 282.152344 C 138.585938 289.039062 144.1875 294.636719 151.070312 294.636719 L 153.949219 294.636719 C 160.832031 294.636719 166.429688 289.039062 166.429688 282.152344 L 166.429688 281.640625 C 166.429688 280.875 167.050781 280.257812 167.8125 280.257812 C 170.570312 280.257812 172.808594 278.015625 172.808594 275.261719 C 172.808594 272.507812 170.570312 270.265625 167.8125 270.265625 C 167.050781 270.265625 166.429688 269.644531 166.429688 268.882812 L 166.429688 267.1875 C 166.429688 260.957031 161.359375 255.882812 155.125 255.882812 Z M 149.890625 255.882812 " fill-opacity="1" fill-rule="nonzero"/><path fill="#ffc700" d="M 231.585938 300.164062 L 244.277344 300.152344 L 248.429688 300.152344 C 252.246094 300.152344 255.339844 297.296875 255.339844 293.773438 C 255.339844 291.113281 253.578125 288.835938 251.070312 287.878906 C 249.464844 287.265625 248.429688 285.8125 248.429688 284.210938 L 248.429688 284.199219 C 248.429688 282.597656 249.464844 281.144531 251.070312 280.53125 C 253.578125 279.574219 255.339844 277.296875 255.339844 274.636719 C 255.339844 271.976562 253.578125 269.695312 251.070312 268.738281 C 249.464844 268.125 248.429688 266.671875 248.429688 265.070312 L 248.429688 263.074219 C 248.429688 253.605469 240.109375 245.929688 229.851562 245.929688 L 219.390625 245.929688 C 209.128906 245.929688 200.8125 253.605469 200.8125 263.074219 L 200.8125 265.070312 C 200.8125 266.671875 199.777344 268.125 198.171875 268.738281 C 195.664062 269.695312 193.902344 271.976562 193.902344 274.636719 C 193.902344 277.296875 195.664062 279.578125 198.171875 280.53125 C 199.777344 281.144531 200.8125 282.597656 200.8125 284.199219 L 200.8125 284.210938 C 200.8125 285.8125 199.777344 287.265625 198.171875 287.878906 C 195.664062 288.835938 193.902344 291.113281 193.902344 293.773438 C 193.902344 297.296875 196.996094 300.152344 200.8125 300.152344 L 204.964844 300.152344 L 217.863281 300.140625 Z M 231.585938 300.164062 " fill-opacity="1" fill-rule="nonzero"/><path fill="#092135" d="M 231.585938 301.546875 C 230.824219 301.546875 230.203125 300.929688 230.203125 300.167969 C 230.203125 299.402344 230.820312 298.785156 231.585938 298.785156 L 244.277344 298.769531 L 248.429688 298.769531 C 251.476562 298.769531 253.957031 296.53125 253.957031 293.773438 C 253.957031 291.761719 252.632812 289.953125 250.578125 289.167969 C 248.433594 288.347656 247.046875 286.402344 247.046875 284.210938 C 247.046875 282.007812 248.433594 280.0625 250.574219 279.242188 C 252.632812 278.457031 253.957031 276.648438 253.957031 274.636719 C 253.957031 272.621094 252.632812 270.8125 250.578125 270.03125 C 248.433594 269.210938 247.046875 267.265625 247.046875 265.070312 L 247.046875 263.074219 C 247.046875 254.382812 239.332031 247.3125 229.851562 247.3125 L 219.390625 247.3125 C 209.910156 247.3125 202.195312 254.382812 202.195312 263.074219 L 202.195312 265.070312 C 202.195312 267.265625 200.808594 269.210938 198.664062 270.03125 C 196.609375 270.8125 195.28125 272.621094 195.28125 274.636719 C 195.28125 276.648438 196.609375 278.457031 198.664062 279.242188 C 200.808594 280.0625 202.195312 282.007812 202.195312 284.199219 C 202.195312 286.402344 200.808594 288.347656 198.664062 289.167969 C 196.609375 289.953125 195.28125 291.761719 195.28125 293.773438 C 195.28125 296.53125 197.765625 298.773438 200.8125 298.773438 L 204.964844 298.773438 L 217.863281 298.757812 C 218.625 298.757812 219.246094 299.375 219.246094 300.140625 C 219.246094 300.902344 218.628906 301.523438 217.863281 301.523438 L 204.964844 301.535156 L 200.8125 301.535156 C 196.238281 301.535156 192.519531 298.054688 192.519531 293.773438 C 192.519531 290.605469 194.542969 287.78125 197.679688 286.585938 C 198.746094 286.179688 199.433594 285.246094 199.433594 284.210938 C 199.433594 283.164062 198.742188 282.230469 197.679688 281.824219 C 194.542969 280.628906 192.519531 277.804688 192.519531 274.636719 C 192.519531 271.464844 194.542969 268.644531 197.679688 267.445312 C 198.746094 267.042969 199.433594 266.109375 199.433594 265.070312 L 199.433594 263.074219 C 199.433594 252.859375 208.386719 244.546875 219.394531 244.546875 L 229.851562 244.546875 C 240.855469 244.546875 249.8125 252.859375 249.8125 263.074219 L 249.8125 265.070312 C 249.8125 266.109375 250.5 267.042969 251.5625 267.445312 C 254.699219 268.644531 256.722656 271.464844 256.722656 274.636719 C 256.722656 277.808594 254.699219 280.628906 251.5625 281.824219 C 250.5 282.230469 249.8125 283.164062 249.8125 284.199219 C 249.8125 285.246094 250.5 286.179688 251.5625 286.585938 C 254.699219 287.78125 256.722656 290.605469 256.722656 293.773438 C 256.722656 298.054688 253.003906 301.535156 248.429688 301.535156 L 244.277344 301.535156 Z M 231.585938 301.546875 " fill-opacity="1" fill-rule="nonzero"/><path fill="#ffc700" d="M 251.058594 314.65625 C 246.972656 308.085938 239.8125 303.621094 231.589844 303.289062 L 217.707031 303.289062 C 209.480469 303.621094 202.300781 308.082031 198.199219 314.65625 Z M 251.058594 314.65625 " fill-opacity="1" fill-rule="nonzero"/><g clip-path="url(#bbdbdad002)"><path fill="#092135" d="M 251.058594 316.039062 C 250.597656 316.039062 250.148438 315.808594 249.882812 315.386719 C 245.90625 308.988281 239.058594 304.984375 231.558594 304.671875 L 217.734375 304.671875 C 210.230469 304.984375 203.367188 308.988281 199.371094 315.386719 C 198.96875 316.035156 198.113281 316.230469 197.46875 315.828125 C 196.820312 315.421875 196.621094 314.570312 197.027344 313.921875 C 201.511719 306.742188 209.21875 302.25 217.648438 301.90625 C 217.667969 301.90625 217.6875 301.90625 217.707031 301.90625 L 231.589844 301.90625 C 231.605469 301.90625 231.625 301.90625 231.644531 301.90625 C 240.066406 302.25 247.765625 306.742188 252.230469 313.925781 C 252.636719 314.574219 252.4375 315.425781 251.789062 315.832031 C 251.5625 315.972656 251.308594 316.039062 251.058594 316.039062 Z M 251.058594 316.039062 " fill-opacity="1" fill-rule="nonzero"/></g><path fill="#ffffff" d="M 231.589844 294.953125 L 231.589844 303.125 C 231.589844 306.914062 228.519531 309.980469 224.734375 309.980469 C 220.949219 309.980469 217.878906 306.914062 217.878906 303.125 L 217.878906 294.953125 Z M 231.589844 294.953125 " fill-opacity="1" fill-rule="nonzero"/><path fill="#092135" d="M 224.734375 311.363281 C 220.191406 311.363281 216.496094 307.667969 216.496094 303.125 L 216.496094 294.953125 C 216.496094 294.191406 217.113281 293.570312 217.878906 293.570312 C 218.640625 293.570312 219.257812 294.191406 219.257812 294.953125 L 219.257812 303.125 C 219.257812 306.144531 221.714844 308.601562 224.734375 308.601562 C 227.753906 308.601562 230.207031 306.144531 230.207031 303.125 L 230.207031 294.953125 C 230.207031 294.191406 230.828125 293.570312 231.589844 293.570312 C 232.355469 293.570312 232.972656 294.191406 232.972656 294.953125 L 232.972656 303.125 C 232.972656 307.667969 229.277344 311.363281 224.734375 311.363281 Z M 224.734375 311.363281 " fill-opacity="1" fill-rule="nonzero"/><path fill="#ffffff" d="M 224.640625 261.449219 C 224.640625 265.558594 221.277344 268.921875 217.167969 268.921875 L 209.382812 268.9375 C 205.902344 268.988281 203.097656 271.820312 203.097656 275.3125 C 203.097656 278.804688 205.902344 281.636719 209.382812 281.6875 L 209.382812 282.207031 C 209.382812 289.863281 215.59375 296.074219 223.25 296.074219 L 226.128906 296.074219 C 233.785156 296.074219 239.992188 289.863281 239.992188 282.207031 L 239.992188 281.691406 C 243.515625 281.691406 246.371094 278.835938 246.371094 275.3125 C 246.371094 271.789062 243.515625 268.933594 239.992188 268.933594 L 232.128906 268.929688 C 228.019531 268.929688 224.65625 265.566406 224.65625 261.457031 L 224.65625 257.609375 Z M 224.640625 261.449219 " fill-opacity="1" fill-rule="nonzero"/><path fill="#092135" d="M 226.128906 297.453125 L 223.25 297.453125 C 215.085938 297.453125 208.398438 291.003906 208.019531 282.933594 C 206.484375 282.644531 205.070312 281.894531 203.953125 280.761719 C 202.507812 279.300781 201.714844 277.367188 201.714844 275.3125 C 201.714844 271.09375 205.144531 267.617188 209.363281 267.558594 C 209.371094 267.558594 209.375 267.558594 209.378906 267.558594 L 217.164062 267.539062 C 220.523438 267.539062 223.257812 264.808594 223.257812 261.449219 C 223.257812 261.375 223.261719 261.300781 223.273438 261.230469 L 223.273438 257.609375 C 223.273438 256.847656 223.894531 256.230469 224.65625 256.230469 C 225.417969 256.230469 226.039062 256.847656 226.039062 257.609375 L 226.039062 261.457031 C 226.039062 264.816406 228.769531 267.546875 232.128906 267.546875 L 239.992188 267.550781 C 244.273438 267.550781 247.753906 271.035156 247.753906 275.3125 C 247.753906 279.125 244.988281 282.304688 241.355469 282.953125 C 240.964844 291.015625 234.285156 297.453125 226.128906 297.453125 Z M 209.394531 270.320312 C 206.683594 270.363281 204.476562 272.601562 204.476562 275.3125 C 204.476562 278.027344 206.6875 280.265625 209.402344 280.304688 C 210.160156 280.3125 210.765625 280.929688 210.765625 281.6875 L 210.765625 282.207031 C 210.765625 289.089844 216.367188 294.691406 223.25 294.691406 L 226.128906 294.691406 C 233.011719 294.691406 238.609375 289.089844 238.609375 282.207031 L 238.609375 281.691406 C 238.609375 280.925781 239.230469 280.308594 239.992188 280.308594 C 242.75 280.308594 244.988281 278.066406 244.988281 275.3125 C 244.988281 272.558594 242.75 270.316406 239.992188 270.316406 L 232.125 270.3125 C 228.984375 270.3125 226.214844 268.664062 224.644531 266.1875 C 223.074219 268.660156 220.308594 270.304688 217.167969 270.304688 Z M 209.394531 270.320312 " fill-opacity="1" fill-rule="nonzero"/><path fill="#ffffff" d="M 204.253906 202.585938 L 231.96875 202.585938 C 237.644531 202.585938 242.289062 207.230469 242.289062 212.90625 L 242.289062 222.5 C 242.289062 228.175781 237.644531 232.816406 231.96875 232.816406 L 231.96875 237.910156 C 231.96875 239.355469 230.226562 240.078125 229.203125 239.058594 L 222.964844 232.816406 L 156.550781 232.816406 L 150.3125 239.058594 C 149.289062 240.078125 147.546875 239.355469 147.546875 237.910156 L 147.546875 232.816406 C 141.867188 232.816406 137.226562 228.175781 137.226562 222.5 L 137.226562 212.90625 C 137.226562 207.230469 141.871094 202.585938 147.546875 202.585938 Z M 204.253906 202.585938 " fill-opacity="1" fill-rule="nonzero"/><path fill="#092135" d="M 149.167969 240.914062 C 148.78125 240.914062 148.390625 240.839844 148.015625 240.683594 C 146.890625 240.21875 146.164062 239.128906 146.164062 237.910156 L 146.164062 234.117188 C 140.359375 233.433594 135.84375 228.484375 135.84375 222.5 L 135.84375 212.90625 C 135.84375 206.453125 141.09375 201.203125 147.546875 201.203125 L 180.886719 201.203125 C 181.652344 201.203125 182.269531 201.824219 182.269531 202.585938 C 182.269531 203.351562 181.652344 203.96875 180.886719 203.96875 L 147.546875 203.96875 C 142.617188 203.96875 138.609375 207.976562 138.609375 212.90625 L 138.609375 222.5 C 138.609375 227.425781 142.617188 231.4375 147.546875 231.4375 C 148.308594 231.4375 148.925781 232.054688 148.925781 232.816406 L 148.925781 237.910156 C 148.925781 237.953125 148.925781 238.070312 149.074219 238.132812 C 149.222656 238.191406 149.304688 238.109375 149.332031 238.078125 L 155.574219 231.839844 C 155.832031 231.582031 156.183594 231.4375 156.550781 231.4375 L 222.964844 231.4375 C 223.332031 231.4375 223.683594 231.582031 223.941406 231.839844 L 230.179688 238.078125 C 230.210938 238.109375 230.292969 238.191406 230.441406 238.132812 C 230.585938 238.070312 230.585938 237.953125 230.585938 237.910156 L 230.585938 232.816406 C 230.585938 232.054688 231.207031 231.4375 231.96875 231.4375 C 236.898438 231.4375 240.90625 227.425781 240.90625 222.5 L 240.90625 212.90625 C 240.90625 207.976562 236.898438 203.96875 231.96875 203.96875 L 204.253906 203.96875 C 203.492188 203.96875 202.871094 203.351562 202.871094 202.585938 C 202.871094 201.824219 203.492188 201.203125 204.253906 201.203125 L 231.96875 201.203125 C 238.421875 201.203125 243.671875 206.453125 243.671875 212.90625 L 243.671875 222.5 C 243.671875 228.484375 239.15625 233.433594 233.351562 234.121094 L 233.351562 237.910156 C 233.351562 239.128906 232.625 240.21875 231.5 240.683594 C 230.371094 241.152344 229.089844 240.894531 228.226562 240.035156 L 222.390625 234.199219 L 157.125 234.199219 L 151.289062 240.035156 C 150.710938 240.609375 149.949219 240.914062 149.167969 240.914062 Z M 149.167969 240.914062 " fill-opacity="1" fill-rule="nonzero"/><path fill="#092135" d="M 175.886719 222.042969 L 156.242188 222.042969 C 155.480469 222.042969 154.859375 221.421875 154.859375 220.660156 C 154.859375 219.894531 155.480469 219.277344 156.242188 219.277344 L 175.886719 219.277344 C 181.53125 219.277344 186.125 214.683594 186.125 209.039062 L 186.125 197.90625 C 186.125 197.140625 186.742188 196.523438 187.507812 196.523438 C 188.269531 196.523438 188.890625 197.140625 188.890625 197.90625 L 188.890625 209.039062 C 188.890625 216.210938 183.058594 222.042969 175.886719 222.042969 Z M 175.886719 222.042969 " fill-opacity="1" fill-rule="nonzero"/><path fill="#fef759" d="M 182.695312 187.484375 C 182.695312 191.65625 184.566406 195.390625 187.507812 197.90625 C 190.449219 195.390625 192.316406 191.65625 192.316406 187.484375 C 192.316406 183.3125 190.449219 179.578125 187.507812 177.0625 C 184.566406 179.578125 182.695312 183.3125 182.695312 187.484375 Z M 182.695312 187.484375 " fill-opacity="1" fill-rule="nonzero"/><path fill="#092135" d="M 187.507812 199.289062 C 187.1875 199.289062 186.867188 199.175781 186.609375 198.957031 C 183.246094 196.082031 181.3125 191.902344 181.3125 187.484375 C 181.3125 183.066406 183.242188 178.886719 186.609375 176.011719 C 187.125 175.570312 187.886719 175.570312 188.40625 176.011719 C 191.769531 178.886719 193.699219 183.066406 193.699219 187.484375 C 193.699219 191.902344 191.769531 196.082031 188.40625 198.957031 C 188.148438 199.175781 187.828125 199.289062 187.507812 199.289062 Z M 187.507812 178.960938 C 185.316406 181.246094 184.078125 184.292969 184.078125 187.484375 C 184.078125 190.679688 185.316406 193.722656 187.507812 196.007812 C 189.699219 193.722656 190.9375 190.679688 190.9375 187.484375 C 190.9375 184.292969 189.699219 181.246094 187.507812 178.960938 Z M 187.507812 178.960938 " fill-opacity="1" fill-rule="nonzero"/><path fill="#fef759" d="M 164.265625 220.660156 C 166.621094 220.472656 168.925781 219.480469 170.730469 217.679688 C 172.949219 215.460938 173.941406 212.484375 173.710938 209.585938 C 170.8125 209.355469 167.835938 210.347656 165.617188 212.566406 C 163.402344 214.785156 162.410156 217.761719 162.636719 220.660156 Z M 164.265625 220.660156 " fill-opacity="1" fill-rule="nonzero"/><path fill="#092135" d="M 164.265625 222.042969 C 163.960938 222.042969 163.679688 221.945312 163.453125 221.777344 C 163.25 221.921875 163.011719 222.015625 162.746094 222.039062 C 161.984375 222.097656 161.320312 221.53125 161.257812 220.769531 C 160.988281 217.351562 162.222656 214.007812 164.640625 211.589844 C 167.058594 209.171875 170.40625 207.9375 173.820312 208.207031 C 174.496094 208.261719 175.035156 208.800781 175.089844 209.476562 C 175.359375 212.894531 174.125 216.238281 171.707031 218.65625 C 169.746094 220.621094 167.140625 221.820312 164.375 222.039062 C 164.335938 222.039062 164.300781 222.042969 164.265625 222.042969 Z M 172.34375 210.953125 C 170.1875 211.085938 168.140625 211.996094 166.59375 213.542969 C 165.046875 215.09375 164.136719 217.140625 164.003906 219.300781 C 164.054688 219.292969 164.105469 219.285156 164.15625 219.28125 C 166.265625 219.117188 168.253906 218.199219 169.753906 216.703125 C 171.300781 215.15625 172.210938 213.109375 172.34375 210.953125 Z M 172.34375 210.953125 " fill-opacity="1" fill-rule="nonzero"/><path fill="#092135" d="M 221.578125 225.339844 L 204.367188 225.339844 C 198.90625 225.339844 194.464844 220.894531 194.464844 215.433594 L 194.464844 214.421875 C 194.464844 213.65625 195.082031 213.039062 195.84375 213.039062 C 196.609375 213.039062 197.226562 213.65625 197.226562 214.421875 L 197.226562 215.433594 C 197.226562 219.371094 200.429688 222.574219 204.367188 222.574219 L 221.578125 222.574219 C 222.339844 222.574219 222.960938 223.191406 222.960938 223.957031 C 222.960938 224.71875 222.339844 225.339844 221.578125 225.339844 Z M 221.578125 225.339844 " fill-opacity="1" fill-rule="nonzero"/><path fill="#fef759" d="M 199.375 206.78125 C 199.375 209.839844 198.003906 212.578125 195.84375 214.421875 C 193.6875 212.578125 192.316406 209.839844 192.316406 206.78125 C 192.316406 203.71875 193.6875 200.980469 195.84375 199.136719 C 198.003906 200.980469 199.375 203.71875 199.375 206.78125 Z M 199.375 206.78125 " fill-opacity="1" fill-rule="nonzero"/><path fill="#092135" d="M 195.84375 215.804688 C 195.527344 215.804688 195.207031 215.691406 194.949219 215.472656 C 192.398438 213.292969 190.9375 210.125 190.9375 206.78125 C 190.9375 203.433594 192.398438 200.265625 194.949219 198.085938 C 195.464844 197.644531 196.226562 197.644531 196.742188 198.085938 C 199.292969 200.265625 200.753906 203.433594 200.753906 206.78125 C 200.753906 210.125 199.292969 213.292969 196.742188 215.472656 C 196.484375 215.691406 196.164062 215.804688 195.84375 215.804688 Z M 195.84375 201.074219 C 194.46875 202.644531 193.699219 204.667969 193.699219 206.78125 C 193.699219 208.894531 194.46875 210.914062 195.84375 212.484375 C 197.222656 210.914062 197.992188 208.894531 197.992188 206.78125 C 197.992188 204.667969 197.222656 202.644531 195.84375 201.074219 Z M 195.84375 201.074219 " fill-opacity="1" fill-rule="nonzero"/><path fill="#092135" d="M 187.324219 242.753906 C 186.5625 242.753906 185.941406 242.132812 185.941406 241.371094 L 185.941406 232.476562 C 185.941406 227.015625 190.386719 222.574219 195.84375 222.574219 L 204.367188 222.574219 C 205.128906 222.574219 205.75 223.191406 205.75 223.957031 C 205.75 224.71875 205.128906 225.339844 204.367188 225.339844 L 195.84375 225.339844 C 191.910156 225.339844 188.707031 228.539062 188.707031 232.476562 L 188.707031 241.371094 C 188.707031 242.132812 188.089844 242.753906 187.324219 242.753906 Z M 187.324219 242.753906 " fill-opacity="1" fill-rule="nonzero"/><path fill="#fef759" d="M 190.851562 249.011719 C 190.851562 245.953125 189.484375 243.210938 187.324219 241.371094 C 185.167969 243.210938 183.796875 245.953125 183.796875 249.011719 C 183.796875 252.070312 185.167969 254.808594 187.324219 256.652344 C 189.484375 254.808594 190.851562 252.070312 190.851562 249.011719 Z M 190.851562 249.011719 " fill-opacity="1" fill-rule="nonzero"/><path fill="#092135" d="M 187.324219 258.035156 C 187.003906 258.035156 186.6875 257.925781 186.425781 257.703125 C 183.878906 255.527344 182.414062 252.359375 182.414062 249.011719 C 182.414062 245.664062 183.878906 242.496094 186.425781 240.320312 C 186.945312 239.878906 187.707031 239.878906 188.222656 240.320312 C 190.773438 242.496094 192.234375 245.664062 192.234375 249.011719 C 192.234375 252.359375 190.773438 255.527344 188.222656 257.703125 C 187.964844 257.925781 187.644531 258.035156 187.324219 258.035156 Z M 187.324219 243.308594 C 185.949219 244.878906 185.179688 246.898438 185.179688 249.011719 C 185.179688 251.125 185.949219 253.144531 187.324219 254.714844 C 188.699219 253.144531 189.46875 251.125 189.46875 249.011719 C 189.46875 246.898438 188.699219 244.878906 187.324219 243.308594 Z M 187.324219 243.308594 " fill-opacity="1" fill-rule="nonzero"/><path fill="#ffffff" d="M 97.0625 120.9375 C 97.0625 99.988281 114.007812 82.996094 134.9375 82.917969 C 156.246094 82.839844 172.300781 103.332031 173.09375 122.484375 C 174.714844 161.617188 149.96875 177.769531 132.800781 185.554688 C 128.632812 187.449219 125.667969 191.132812 124.105469 195.433594 C 121.148438 203.574219 113.085938 209.261719 103.789062 208.625 C 91.675781 207.792969 83.515625 196.070312 85.605469 184.113281 C 88.277344 168.8125 100.320312 159.597656 119.960938 156.640625 C 129.140625 156.640625 136.582031 149.199219 136.582031 140.015625 C 136.582031 130.835938 129.1875 121.371094 115.796875 122.214844 Z M 97.0625 120.9375 " fill-opacity="1" fill-rule="nonzero"/><path fill="#092135" d="M 105.21875 210.054688 C 104.714844 210.054688 104.203125 210.039062 103.695312 210.003906 C 97.777344 209.597656 92.464844 206.753906 88.734375 201.992188 C 84.757812 196.914062 83.117188 190.3125 84.242188 183.875 C 85.625 175.972656 89.433594 169.511719 95.5625 164.664062 C 101.519531 159.953125 109.660156 156.792969 119.753906 155.273438 C 119.820312 155.265625 119.890625 155.257812 119.960938 155.257812 C 128.363281 155.257812 135.199219 148.421875 135.199219 140.015625 C 135.199219 135.554688 133.332031 131.242188 130.074219 128.183594 C 127.578125 125.839844 123.089844 123.140625 115.882812 123.59375 C 115.121094 123.640625 114.464844 123.0625 114.414062 122.300781 C 114.367188 121.539062 114.945312 120.882812 115.707031 120.835938 C 123.902344 120.316406 129.074219 123.449219 131.96875 126.167969 C 135.78125 129.746094 137.964844 134.796875 137.964844 140.019531 C 137.964844 149.910156 129.945312 157.964844 120.066406 158.023438 C 100.640625 160.96875 89.503906 169.828125 86.964844 184.351562 C 85.976562 190.015625 87.414062 195.824219 90.910156 200.289062 C 94.152344 204.421875 98.757812 206.894531 103.882812 207.246094 C 112.191406 207.816406 119.972656 202.761719 122.804688 194.960938 C 124.597656 190.027344 127.945312 186.242188 132.230469 184.296875 C 159.996094 171.703125 172.914062 151.503906 171.710938 122.542969 C 170.960938 104.429688 155.730469 84.300781 135.058594 84.300781 C 135.019531 84.300781 134.980469 84.300781 134.941406 84.300781 C 114.816406 84.375 98.441406 100.808594 98.441406 120.9375 C 98.441406 121.699219 97.824219 122.320312 97.0625 122.320312 C 96.296875 122.320312 95.679688 121.699219 95.679688 120.9375 C 95.679688 110.4375 99.761719 100.5625 107.171875 93.125 C 114.578125 85.691406 124.4375 81.574219 134.933594 81.539062 C 134.972656 81.535156 135.015625 81.535156 135.054688 81.535156 C 145.324219 81.535156 155.148438 86.160156 162.734375 94.566406 C 169.785156 102.375 174.0625 112.53125 174.472656 122.429688 C 175.203125 140.042969 170.691406 154.921875 161.0625 166.652344 C 154.367188 174.804688 145.3125 181.398438 133.371094 186.816406 C 129.769531 188.449219 126.941406 191.675781 125.40625 195.90625 C 123.847656 200.1875 120.898438 203.9375 117.089844 206.472656 C 113.542969 208.828125 109.46875 210.054688 105.21875 210.054688 Z M 105.21875 210.054688 " fill-opacity="1" fill-rule="nonzero"/><path fill="#092135" d="M 132.429688 169.273438 C 132.015625 169.273438 131.605469 169.085938 131.332031 168.730469 C 130.867188 168.128906 130.980469 167.257812 131.585938 166.792969 C 132.257812 166.277344 133.101562 165.695312 134.078125 165.019531 C 141.382812 159.972656 156.589844 149.464844 156.738281 126.539062 C 156.785156 119.132812 153.292969 110.988281 147.621094 105.277344 C 143.097656 100.726562 137.765625 98.21875 132.597656 98.21875 C 130.105469 98.21875 125.398438 98.859375 121.859375 103.136719 C 119.652344 105.804688 118.207031 109.496094 117.566406 114.105469 C 116.796875 119.617188 117.175781 126.449219 118.699219 134.410156 C 118.839844 135.160156 118.347656 135.882812 117.597656 136.027344 C 116.847656 136.167969 116.125 135.679688 115.980469 134.929688 C 114.40625 126.667969 114.015625 119.535156 114.828125 113.722656 C 115.542969 108.597656 117.191406 104.445312 119.730469 101.375 C 123.988281 96.222656 129.621094 95.453125 132.597656 95.453125 C 138.503906 95.453125 144.535156 98.25 149.582031 103.328125 C 152.570312 106.335938 155.0625 110.019531 156.796875 113.984375 C 158.59375 118.101562 159.53125 122.449219 159.503906 126.558594 C 159.433594 137.054688 156.347656 146.328125 150.332031 154.128906 C 145.339844 160.597656 139.507812 164.628906 135.648438 167.296875 C 134.703125 167.949219 133.886719 168.511719 133.273438 168.984375 C 133.019531 169.179688 132.726562 169.273438 132.429688 169.273438 Z M 132.429688 169.273438 " fill-opacity="1" fill-rule="nonzero"/><path fill="#ffc700" d="M 47.5625 144.476562 L 77.480469 144.476562 L 69.996094 136.992188 C 68.285156 135.285156 68.285156 132.515625 69.996094 130.804688 C 71.703125 129.097656 74.472656 129.097656 76.179688 130.804688 C 77.289062 131.914062 89.390625 144.015625 91.050781 145.664062 C 91.867188 146.472656 92.375 147.574219 92.402344 148.730469 C 92.472656 151.335938 89.871094 153.203125 88.183594 154.890625 C 86.070312 157.003906 76.382812 166.691406 76.179688 166.894531 C 75.328125 167.75 74.207031 168.175781 73.089844 168.175781 C 71.96875 168.175781 70.847656 167.75 69.996094 166.894531 C 68.285156 165.1875 68.285156 162.417969 69.996094 160.707031 L 77.480469 153.222656 L 47.5625 153.222656 Z M 47.5625 144.476562 " fill-opacity="1" fill-rule="nonzero"/><path fill="#092135" d="M 73.089844 169.558594 C 71.550781 169.558594 70.105469 168.960938 69.015625 167.871094 C 67.929688 166.785156 67.332031 165.339844 67.332031 163.800781 C 67.332031 162.261719 67.929688 160.816406 69.019531 159.730469 L 74.140625 154.605469 L 47.5625 154.605469 C 46.796875 154.605469 46.179688 153.988281 46.179688 153.222656 C 46.179688 152.460938 46.796875 151.84375 47.5625 151.84375 L 77.480469 151.84375 C 78.039062 151.84375 78.542969 152.179688 78.757812 152.695312 C 78.96875 153.210938 78.851562 153.804688 78.457031 154.203125 L 70.972656 161.6875 C 70.40625 162.25 70.097656 163.003906 70.097656 163.800781 C 70.097656 164.601562 70.40625 165.351562 70.972656 165.917969 C 71.539062 166.480469 72.289062 166.792969 73.089844 166.792969 C 73.886719 166.792969 74.640625 166.480469 75.203125 165.917969 L 87.207031 153.914062 C 87.515625 153.605469 87.847656 153.292969 88.175781 152.992188 C 89.59375 151.667969 91.0625 150.300781 91.023438 148.765625 C 91 147.992188 90.65625 147.21875 90.078125 146.644531 C 88.703125 145.28125 80.328125 136.90625 75.457031 132.039062 L 75.203125 131.785156 C 74.636719 131.21875 73.886719 130.90625 73.085938 130.90625 C 72.289062 130.90625 71.539062 131.21875 70.972656 131.785156 C 70.40625 132.347656 70.097656 133.101562 70.097656 133.898438 C 70.097656 134.699219 70.40625 135.449219 70.972656 136.015625 L 78.457031 143.496094 C 78.851562 143.894531 78.96875 144.488281 78.757812 145.003906 C 78.542969 145.519531 78.039062 145.859375 77.480469 145.859375 L 47.5625 145.859375 C 46.796875 145.859375 46.179688 145.238281 46.179688 144.476562 C 46.179688 143.710938 46.796875 143.09375 47.5625 143.09375 L 74.140625 143.09375 L 69.019531 137.96875 C 67.929688 136.882812 67.332031 135.4375 67.332031 133.898438 C 67.332031 132.363281 67.929688 130.914062 69.019531 129.828125 C 70.105469 128.742188 71.550781 128.144531 73.085938 128.144531 C 74.625 128.144531 76.070312 128.742188 77.160156 129.828125 L 77.414062 130.082031 C 82.28125 134.953125 90.65625 143.324219 92.027344 144.683594 C 93.105469 145.753906 93.746094 147.214844 93.785156 148.695312 C 93.859375 151.472656 91.75 153.4375 90.058594 155.015625 C 89.738281 155.3125 89.433594 155.597656 89.160156 155.867188 L 77.160156 167.871094 C 76.074219 168.957031 74.628906 169.558594 73.089844 169.558594 Z M 73.089844 169.558594 " fill-opacity="1" fill-rule="nonzero"/><path fill="#ffc700" d="M 50.132812 114.394531 L 50.132812 101.886719 L 40.355469 92.789062 L 79.679688 92.789062 C 84.765625 92.789062 88.890625 96.914062 88.890625 102.003906 L 88.890625 114.394531 C 88.890625 119.484375 84.765625 123.609375 79.679688 123.609375 L 59.347656 123.609375 C 54.257812 123.609375 50.132812 119.484375 50.132812 114.394531 Z M 50.132812 114.394531 " fill-opacity="1" fill-rule="nonzero"/><g clip-path="url(#88f2b31453)"><path fill="#092135" d="M 79.679688 124.992188 L 59.347656 124.992188 C 53.503906 124.992188 48.75 120.238281 48.75 114.394531 L 48.75 102.488281 L 39.414062 93.800781 C 39 93.414062 38.863281 92.8125 39.070312 92.285156 C 39.277344 91.757812 39.789062 91.410156 40.355469 91.410156 L 79.679688 91.410156 C 85.519531 91.410156 90.273438 96.160156 90.273438 102.003906 L 90.273438 114.394531 C 90.273438 120.238281 85.519531 124.992188 79.679688 124.992188 Z M 43.871094 94.171875 L 51.074219 100.871094 C 51.355469 101.132812 51.515625 101.5 51.515625 101.886719 L 51.515625 114.394531 C 51.515625 118.710938 55.027344 122.226562 59.347656 122.226562 L 79.679688 122.226562 C 83.996094 122.226562 87.511719 118.710938 87.511719 114.394531 L 87.511719 102.003906 C 87.511719 97.6875 83.996094 94.171875 79.679688 94.171875 Z M 43.871094 94.171875 " fill-opacity="1" fill-rule="nonzero"/></g><path fill="#fef759" d="M 334.746094 125.375 C 334.746094 111.292969 323.960938 99.734375 310.203125 98.492188 C 310.277344 97.894531 310.324219 97.289062 310.324219 96.671875 C 310.324219 88.503906 303.703125 81.882812 295.535156 81.882812 C 291.3125 81.882812 287.515625 83.660156 284.820312 86.496094 C 277.617188 79.3125 267.679688 74.875 256.707031 74.875 C 240.445312 74.875 226.46875 84.625 220.285156 98.59375 C 219.171875 98.457031 218.039062 98.375 216.886719 98.375 C 201.972656 98.375 189.882812 110.464844 189.882812 125.375 C 189.882812 137.402344 197.746094 147.585938 208.609375 151.082031 C 208.589844 151.511719 208.578125 151.941406 208.578125 152.378906 C 208.578125 167.289062 220.667969 179.378906 235.578125 179.378906 C 241.335938 179.378906 246.671875 177.570312 251.054688 174.5 C 258.34375 182.65625 268.941406 187.792969 280.742188 187.792969 C 302.335938 187.792969 319.902344 170.601562 320.53125 149.160156 C 328.992188 144.601562 334.746094 135.660156 334.746094 125.375 Z M 334.746094 125.375 " fill-opacity="1" fill-rule="nonzero"/><g clip-path="url(#fa7026598c)"><path fill="#092135" d="M 280.742188 189.175781 C 274.773438 189.175781 269.015625 187.925781 263.632812 185.460938 C 258.792969 183.25 254.496094 180.171875 250.835938 176.308594 C 246.277344 179.226562 241.027344 180.761719 235.578125 180.761719 C 227.996094 180.761719 220.871094 177.808594 215.507812 172.449219 C 210.148438 167.085938 207.195312 159.960938 207.195312 152.378906 C 207.195312 152.273438 207.195312 152.167969 207.199219 152.058594 C 201.945312 150.15625 197.417969 146.78125 194.0625 142.25 C 190.425781 137.339844 188.5 131.503906 188.5 125.375 C 188.5 117.792969 191.453125 110.667969 196.816406 105.304688 C 202.175781 99.945312 209.304688 96.992188 216.886719 96.992188 C 217.714844 96.992188 218.570312 97.03125 219.441406 97.113281 C 226.238281 82.726562 240.75 73.492188 256.707031 73.492188 C 267.234375 73.492188 277.164062 77.417969 284.820312 84.574219 C 287.777344 81.9375 291.535156 80.5 295.53125 80.5 C 304.453125 80.5 311.707031 87.753906 311.707031 96.671875 C 311.707031 96.871094 311.703125 97.070312 311.695312 97.273438 C 318.195312 98.179688 324.171875 101.308594 328.652344 106.183594 C 333.472656 111.429688 336.128906 118.246094 336.128906 125.375 C 336.128906 135.566406 330.691406 144.925781 321.882812 149.992188 C 321.378906 160.4375 316.988281 170.183594 309.460938 177.507812 C 301.730469 185.03125 291.53125 189.175781 280.742188 189.175781 Z M 251.050781 173.117188 C 251.433594 173.117188 251.8125 173.277344 252.082031 173.578125 C 259.375 181.734375 269.820312 186.410156 280.742188 186.410156 C 301.664062 186.410156 318.535156 170.03125 319.148438 149.121094 C 319.164062 148.625 319.441406 148.179688 319.875 147.945312 C 328.195312 143.460938 333.363281 134.8125 333.363281 125.375 C 333.363281 112.035156 323.351562 101.066406 310.078125 99.867188 C 309.703125 99.835938 309.363281 99.652344 309.125 99.359375 C 308.890625 99.070312 308.785156 98.695312 308.828125 98.324219 C 308.90625 97.695312 308.941406 97.171875 308.941406 96.671875 C 308.941406 89.28125 302.925781 83.265625 295.53125 83.265625 C 291.832031 83.265625 288.382812 84.75 285.820312 87.445312 C 285.566406 87.714844 285.210938 87.871094 284.835938 87.875 C 284.46875 87.882812 284.105469 87.738281 283.84375 87.472656 C 276.585938 80.238281 266.949219 76.253906 256.707031 76.253906 C 241.507812 76.253906 227.707031 85.246094 221.546875 99.15625 C 221.300781 99.714844 220.71875 100.042969 220.113281 99.96875 C 218.988281 99.824219 217.933594 99.757812 216.886719 99.757812 C 202.757812 99.757812 191.265625 111.25 191.265625 125.375 C 191.265625 136.546875 198.40625 146.347656 209.035156 149.765625 C 209.628906 149.957031 210.019531 150.523438 209.992188 151.144531 C 209.96875 151.59375 209.960938 151.996094 209.960938 152.378906 C 209.960938 166.503906 221.453125 177.996094 235.578125 177.996094 C 240.863281 177.996094 245.9375 176.398438 250.257812 173.367188 C 250.5 173.199219 250.777344 173.117188 251.050781 173.117188 Z M 251.050781 173.117188 " fill-opacity="1" fill-rule="nonzero"/></g><path fill="#ffffff" d="M 268.960938 95.886719 L 265.789062 123.605469 L 283.007812 123.605469 L 255.667969 166.777344 L 258.839844 139.058594 L 241.617188 139.058594 Z M 268.960938 95.886719 " fill-opacity="1" fill-rule="nonzero"/><path fill="#092135" d="M 255.667969 168.160156 C 255.515625 168.160156 255.359375 168.136719 255.207031 168.082031 C 254.601562 167.867188 254.222656 167.261719 254.292969 166.621094 L 257.289062 140.441406 L 241.617188 140.441406 C 241.113281 140.441406 240.652344 140.167969 240.40625 139.726562 C 240.164062 139.285156 240.179688 138.746094 240.449219 138.320312 L 267.792969 95.148438 C 268.136719 94.601562 268.8125 94.367188 269.421875 94.582031 C 270.027344 94.796875 270.40625 95.402344 270.332031 96.042969 L 267.335938 122.222656 L 283.007812 122.222656 C 283.511719 122.222656 283.976562 122.496094 284.21875 122.9375 C 284.464844 123.382812 284.445312 123.917969 284.175781 124.34375 L 256.835938 167.519531 C 256.574219 167.925781 256.128906 168.160156 255.667969 168.160156 Z M 244.128906 137.675781 L 258.839844 137.675781 C 259.234375 137.675781 259.609375 137.84375 259.871094 138.140625 C 260.132812 138.433594 260.257812 138.824219 260.214844 139.214844 L 257.726562 160.945312 L 280.496094 124.988281 L 265.789062 124.988281 C 265.394531 124.988281 265.019531 124.820312 264.757812 124.527344 C 264.496094 124.230469 264.371094 123.839844 264.414062 123.449219 L 266.902344 101.722656 Z M 244.128906 137.675781 " fill-opacity="1" fill-rule="nonzero"/><path fill="#ffffff" d="M 311.804688 199.835938 C 311.804688 200.707031 311.761719 201.578125 311.675781 202.445312 C 311.589844 203.3125 311.464844 204.175781 311.292969 205.03125 C 311.121094 205.886719 310.910156 206.730469 310.65625 207.566406 C 310.40625 208.402344 310.113281 209.222656 309.777344 210.027344 C 309.445312 210.832031 309.070312 211.621094 308.660156 212.390625 C 308.25 213.160156 307.800781 213.90625 307.316406 214.632812 C 306.832031 215.355469 306.3125 216.054688 305.761719 216.730469 C 305.207031 217.402344 304.621094 218.050781 304.003906 218.667969 C 303.386719 219.28125 302.742188 219.867188 302.070312 220.421875 C 301.394531 220.972656 300.695312 221.492188 299.96875 221.976562 C 299.246094 222.460938 298.496094 222.910156 297.726562 223.320312 C 296.960938 223.734375 296.171875 224.105469 295.367188 224.4375 C 294.558594 224.773438 293.738281 225.066406 292.90625 225.320312 C 292.070312 225.574219 291.226562 225.785156 290.371094 225.953125 C 289.515625 226.125 288.652344 226.253906 287.785156 226.335938 C 286.917969 226.421875 286.046875 226.464844 285.175781 226.464844 C 284.304688 226.464844 283.433594 226.421875 282.566406 226.335938 C 281.695312 226.253906 280.835938 226.125 279.980469 225.953125 C 279.125 225.785156 278.28125 225.574219 277.445312 225.320312 C 276.609375 225.066406 275.789062 224.773438 274.984375 224.4375 C 274.179688 224.105469 273.390625 223.734375 272.621094 223.320312 C 271.851562 222.910156 271.105469 222.460938 270.378906 221.976562 C 269.65625 221.492188 268.957031 220.972656 268.28125 220.421875 C 267.605469 219.867188 266.960938 219.28125 266.34375 218.667969 C 265.726562 218.050781 265.144531 217.402344 264.589844 216.730469 C 264.035156 216.054688 263.519531 215.355469 263.035156 214.628906 C 262.546875 213.90625 262.101562 213.160156 261.691406 212.390625 C 261.277344 211.621094 260.90625 210.832031 260.574219 210.027344 C 260.238281 209.222656 259.945312 208.402344 259.691406 207.566406 C 259.4375 206.730469 259.226562 205.886719 259.058594 205.03125 C 258.886719 204.175781 258.757812 203.3125 258.671875 202.445312 C 258.589844 201.578125 258.546875 200.707031 258.546875 199.835938 C 258.546875 198.964844 258.589844 198.09375 258.671875 197.226562 C 258.757812 196.359375 258.886719 195.496094 259.058594 194.640625 C 259.226562 193.785156 259.4375 192.941406 259.691406 192.105469 C 259.945312 191.269531 260.238281 190.449219 260.574219 189.644531 C 260.90625 188.839844 261.277344 188.050781 261.691406 187.28125 C 262.101562 186.515625 262.546875 185.765625 263.03125 185.042969 C 263.519531 184.316406 264.035156 183.617188 264.589844 182.941406 C 265.144531 182.269531 265.726562 181.621094 266.34375 181.007812 C 266.960938 180.390625 267.605469 179.804688 268.28125 179.25 C 268.957031 178.699219 269.65625 178.179688 270.378906 177.695312 C 271.105469 177.210938 271.851562 176.761719 272.621094 176.351562 C 273.390625 175.941406 274.179688 175.566406 274.984375 175.234375 C 275.789062 174.898438 276.609375 174.605469 277.445312 174.351562 C 278.28125 174.101562 279.125 173.886719 279.980469 173.71875 C 280.835938 173.546875 281.695312 173.421875 282.566406 173.335938 C 283.433594 173.25 284.304688 173.207031 285.175781 173.207031 C 286.046875 173.207031 286.917969 173.25 287.785156 173.335938 C 288.652344 173.421875 289.515625 173.546875 290.371094 173.71875 C 291.226562 173.886719 292.070312 174.101562 292.90625 174.351562 C 293.738281 174.605469 294.558594 174.898438 295.367188 175.234375 C 296.171875 175.566406 296.960938 175.941406 297.726562 176.351562 C 298.496094 176.761719 299.246094 177.210938 299.96875 177.695312 C 300.695312 178.179688 301.394531 178.699219 302.070312 179.25 C 302.742188 179.804688 303.386719 180.390625 304.003906 181.007812 C 304.621094 181.621094 305.207031 182.269531 305.761719 182.941406 C 306.3125 183.617188 306.832031 184.316406 307.316406 185.042969 C 307.800781 185.765625 308.25 186.515625 308.660156 187.28125 C 309.070312 188.050781 309.445312 188.839844 309.777344 189.644531 C 310.113281 190.449219 310.40625 191.269531 310.65625 192.105469 C 310.910156 192.941406 311.121094 193.785156 311.292969 194.640625 C 311.464844 195.496094 311.589844 196.359375 311.675781 197.226562 C 311.761719 198.09375 311.804688 198.964844 311.804688 199.835938 Z M 311.804688 199.835938 " fill-opacity="1" fill-rule="nonzero"/><path fill="#092135" d="M 285.175781 227.847656 C 277.691406 227.847656 270.660156 224.933594 265.367188 219.644531 C 260.078125 214.351562 257.164062 207.320312 257.164062 199.835938 C 257.164062 192.355469 260.078125 185.320312 265.367188 180.027344 C 270.660156 174.738281 277.691406 171.824219 285.175781 171.824219 C 292.65625 171.824219 299.691406 174.738281 304.984375 180.027344 C 310.273438 185.320312 313.1875 192.355469 313.1875 199.835938 C 313.1875 207.320312 310.273438 214.351562 304.984375 219.644531 C 299.691406 224.933594 292.65625 227.847656 285.175781 227.847656 Z M 285.175781 174.589844 C 271.253906 174.589844 259.925781 185.914062 259.925781 199.835938 C 259.925781 213.757812 271.253906 225.082031 285.175781 225.082031 C 299.097656 225.082031 310.421875 213.757812 310.421875 199.835938 C 310.421875 185.914062 299.097656 174.589844 285.175781 174.589844 Z M 285.175781 174.589844 " fill-opacity="1" fill-rule="nonzero"/><path fill="#ffffff" d="M 273.703125 188.363281 L 296.648438 211.308594 Z M 273.703125 188.363281 " fill-opacity="1" fill-rule="nonzero"/><path fill="#092135" d="M 296.648438 212.691406 C 296.292969 212.691406 295.941406 212.554688 295.671875 212.285156 L 272.726562 189.339844 C 272.183594 188.800781 272.183594 187.925781 272.726562 187.386719 C 273.265625 186.847656 274.140625 186.847656 274.679688 187.386719 L 297.625 210.332031 C 298.164062 210.871094 298.164062 211.746094 297.625 212.285156 C 297.355469 212.554688 297 212.691406 296.648438 212.691406 Z M 296.648438 212.691406 " fill-opacity="1" fill-rule="nonzero"/><path fill="#ffffff" d="M 296.648438 188.363281 L 273.703125 211.308594 Z M 296.648438 188.363281 " fill-opacity="1" fill-rule="nonzero"/><path fill="#092135" d="M 273.703125 212.691406 C 273.347656 212.691406 272.996094 212.554688 272.726562 212.285156 C 272.183594 211.746094 272.183594 210.871094 272.726562 210.332031 L 295.671875 187.386719 C 296.210938 186.847656 297.085938 186.847656 297.625 187.386719 C 298.164062 187.925781 298.164062 188.800781 297.625 189.339844 L 274.679688 212.285156 C 274.410156 212.554688 274.054688 212.691406 273.703125 212.691406 Z M 273.703125 212.691406 " fill-opacity="1" fill-rule="nonzero"/></svg>