<svg xmlns="http://www.w3.org/2000/svg" xmlns:xlink="http://www.w3.org/1999/xlink" width="500" zoomAndPan="magnify" viewBox="0 0 375 374.999991" height="500" preserveAspectRatio="xMidYMid meet" version="1.0"><defs><clipPath id="620fcdee96"><path d="M 83 12.714844 L 362.214844 12.714844 L 362.214844 295 L 83 295 Z M 83 12.714844 " clip-rule="nonzero"/></clipPath><clipPath id="a02256b35b"><path d="M 12.714844 80 L 288 80 L 288 362.214844 L 12.714844 362.214844 Z M 12.714844 80 " clip-rule="nonzero"/></clipPath></defs><path fill="#19598f" d="M 111.03125 86.453125 L 105.570312 86.453125 C 102.5625 86.453125 100.105469 88.910156 100.105469 91.914062 C 100.105469 94.917969 102.5625 97.375 105.570312 97.375 L 111.03125 97.375 C 114.035156 97.375 116.492188 94.917969 116.492188 91.914062 C 116.492188 88.910156 114.035156 86.453125 111.03125 86.453125 Z M 111.03125 86.453125 " fill-opacity="1" fill-rule="nonzero"/><path fill="#19598f" d="M 138.339844 86.453125 L 132.878906 86.453125 C 129.875 86.453125 127.417969 88.910156 127.417969 91.914062 C 127.417969 94.917969 129.875 97.375 132.878906 97.375 L 138.339844 97.375 C 141.34375 97.375 143.800781 94.917969 143.800781 91.914062 C 143.800781 88.910156 141.34375 86.453125 138.339844 86.453125 Z M 138.339844 86.453125 " fill-opacity="1" fill-rule="nonzero"/><path fill="#19598f" d="M 111.03125 108.300781 L 105.570312 108.300781 C 102.5625 108.300781 100.105469 110.757812 100.105469 113.761719 C 100.105469 116.765625 102.5625 119.222656 105.570312 119.222656 L 111.03125 119.222656 C 114.035156 119.222656 116.492188 116.765625 116.492188 113.761719 C 116.492188 110.757812 114.035156 108.300781 111.03125 108.300781 Z M 111.03125 108.300781 " fill-opacity="1" fill-rule="nonzero"/><path fill="#19598f" d="M 111.03125 130.148438 L 105.570312 130.148438 C 102.5625 130.148438 100.105469 132.605469 100.105469 135.609375 C 100.105469 138.613281 102.5625 141.070312 105.570312 141.070312 L 111.03125 141.070312 C 114.035156 141.070312 116.492188 138.613281 116.492188 135.609375 C 116.492188 132.605469 114.035156 130.148438 111.03125 130.148438 Z M 111.03125 130.148438 " fill-opacity="1" fill-rule="nonzero"/><path fill="#19598f" d="M 111.03125 151.996094 L 105.570312 151.996094 C 102.5625 151.996094 100.105469 154.453125 100.105469 157.457031 C 100.105469 160.460938 102.5625 162.917969 105.570312 162.917969 L 111.03125 162.917969 C 114.035156 162.917969 116.492188 160.460938 116.492188 157.457031 C 116.492188 154.453125 114.035156 151.996094 111.03125 151.996094 Z M 111.03125 151.996094 " fill-opacity="1" fill-rule="nonzero"/><path fill="#19598f" d="M 111.03125 173.84375 L 105.570312 173.84375 C 102.5625 173.84375 100.105469 176.300781 100.105469 179.304688 C 100.105469 182.308594 102.5625 184.769531 105.570312 184.769531 L 111.03125 184.769531 C 114.035156 184.769531 116.492188 182.308594 116.492188 179.304688 C 116.492188 176.300781 114.035156 173.84375 111.03125 173.84375 Z M 111.03125 173.84375 " fill-opacity="1" fill-rule="nonzero"/><path fill="#19598f" d="M 142.984375 111.03125 C 142.164062 109.390625 140.253906 108.300781 138.339844 108.300781 L 132.878906 108.300781 C 129.875 108.300781 127.417969 110.757812 127.417969 113.761719 C 127.417969 116.765625 129.875 119.222656 132.878906 119.222656 L 136.429688 119.222656 C 137.792969 115.945312 139.980469 112.941406 142.984375 111.03125 Z M 142.984375 111.03125 " fill-opacity="1" fill-rule="nonzero"/><path fill="#19598f" d="M 135.609375 130.148438 L 132.878906 130.148438 C 129.875 130.148438 127.417969 132.605469 127.417969 135.609375 C 127.417969 138.613281 129.875 141.070312 132.878906 141.070312 L 135.609375 141.070312 Z M 135.609375 130.148438 " fill-opacity="1" fill-rule="nonzero"/><path fill="#19598f" d="M 135.609375 151.996094 L 132.878906 151.996094 C 129.875 151.996094 127.417969 154.453125 127.417969 157.457031 C 127.417969 160.460938 129.875 162.917969 132.878906 162.917969 L 135.609375 162.917969 Z M 135.609375 151.996094 " fill-opacity="1" fill-rule="nonzero"/><path fill="#19598f" d="M 127.417969 179.304688 C 127.417969 182.308594 129.875 184.769531 132.878906 184.769531 L 135.609375 184.769531 L 135.609375 173.84375 L 132.878906 173.84375 C 129.875 173.84375 127.417969 176.300781 127.417969 179.304688 Z M 127.417969 179.304688 " fill-opacity="1" fill-rule="nonzero"/><path fill="#19598f" d="M 179.304688 315.855469 C 238.023438 315.855469 286.90625 271.886719 293.460938 213.714844 C 294.007812 209.621094 294.007812 205.25 294.007812 201.152344 C 294.007812 198.148438 291.550781 195.691406 288.546875 195.691406 L 201.152344 195.691406 L 201.152344 124.683594 C 201.152344 121.679688 198.695312 119.222656 195.691406 119.222656 L 151.996094 119.222656 C 148.992188 119.222656 146.535156 121.679688 146.535156 124.683594 L 146.535156 195.691406 L 94.644531 195.691406 L 94.644531 70.066406 L 149.265625 70.066406 L 149.265625 108.574219 C 150.082031 108.300781 151.175781 108.300781 151.996094 108.300781 L 160.1875 108.300781 L 160.1875 70.066406 C 160.1875 64.058594 155.273438 59.140625 149.265625 59.140625 L 94.644531 59.140625 C 88.636719 59.140625 83.71875 64.058594 83.71875 70.066406 L 83.71875 195.691406 L 70.066406 195.691406 C 67.0625 195.691406 64.601562 198.148438 64.601562 201.152344 C 64.601562 264.511719 115.945312 315.855469 179.304688 315.855469 Z M 184.769531 304.113281 L 184.769531 259.597656 C 195.144531 260.144531 205.796875 262.601562 215.628906 266.425781 C 207.980469 286.636719 197.058594 300.835938 184.769531 304.113281 Z M 225.460938 271.066406 C 231.46875 274.34375 237.476562 278.441406 242.664062 283.085938 C 232.5625 291.003906 220.816406 297.011719 208.253906 300.5625 C 215.082031 293.1875 220.816406 283.085938 225.460938 271.066406 Z M 173.84375 304.113281 C 161.554688 300.835938 150.628906 286.636719 142.984375 266.152344 C 152.816406 262.328125 163.464844 260.144531 173.84375 259.597656 Z M 150.082031 300.835938 C 137.25 297.011719 125.503906 291.003906 115.398438 282.8125 C 120.863281 278.167969 126.871094 274.070312 132.878906 270.792969 C 137.519531 282.8125 143.53125 293.1875 150.082031 300.835938 Z M 251.132812 275.984375 C 244.304688 269.703125 236.929688 264.785156 229.011719 260.691406 C 233.925781 244.851562 236.65625 226.550781 237.203125 206.617188 L 282.8125 206.617188 C 282.8125 208.527344 282.539062 210.4375 282.265625 212.625 C 279.808594 237.476562 268.335938 259.871094 251.132812 275.984375 Z M 226.28125 206.617188 C 225.734375 224.640625 223.273438 241.574219 218.90625 256.046875 C 207.980469 251.679688 196.238281 249.21875 184.769531 248.671875 L 184.769531 206.617188 Z M 157.457031 130.148438 L 190.230469 130.148438 L 190.230469 195.691406 L 157.457031 195.691406 Z M 151.996094 206.617188 L 173.84375 206.617188 L 173.84375 248.402344 C 162.101562 248.945312 150.628906 251.40625 139.433594 255.5 C 135.335938 241.027344 132.605469 224.09375 132.332031 206.34375 L 151.996094 206.34375 Z M 121.410156 206.617188 C 121.953125 226.28125 124.683594 244.578125 129.328125 260.144531 C 121.410156 264.242188 114.035156 269.429688 106.933594 275.4375 C 88.636719 257.6875 76.894531 233.378906 75.527344 206.34375 L 121.410156 206.34375 Z M 121.410156 206.617188 " fill-opacity="1" fill-rule="nonzero"/><path fill="#19598f" d="M 228.464844 190.230469 L 299.46875 190.230469 C 305.480469 190.230469 310.394531 185.3125 310.394531 179.304688 L 310.394531 130.148438 C 310.394531 124.140625 305.480469 119.222656 299.46875 119.222656 L 283.085938 119.222656 L 283.085938 113.761719 C 283.085938 107.753906 278.167969 102.835938 272.160156 102.835938 L 255.773438 102.835938 C 249.765625 102.835938 244.851562 107.753906 244.851562 113.761719 L 244.851562 119.222656 L 228.464844 119.222656 C 222.457031 119.222656 217.539062 124.140625 217.539062 130.148438 L 217.539062 179.304688 C 217.539062 185.3125 222.457031 190.230469 228.464844 190.230469 Z M 228.464844 179.304688 L 228.464844 136.15625 L 258.503906 157.457031 L 258.503906 160.1875 C 258.503906 163.191406 260.964844 165.652344 263.96875 165.652344 C 266.972656 165.652344 269.429688 163.191406 269.429688 160.1875 L 269.429688 157.457031 L 299.46875 135.882812 L 299.46875 179.03125 L 228.464844 179.03125 Z M 250.3125 130.148438 L 289.09375 130.148438 L 263.96875 147.898438 L 238.84375 130.148438 Z M 255.773438 113.761719 L 272.160156 113.761719 L 272.160156 119.222656 L 255.773438 119.222656 Z M 255.773438 113.761719 " fill-opacity="1" fill-rule="nonzero"/><g clip-path="url(#620fcdee96)"><path fill="#19598f" d="M 92.460938 53.953125 C 120.316406 34.289062 153.089844 23.636719 187.5 23.636719 C 277.894531 23.636719 351.359375 97.101562 351.359375 187.5 C 351.359375 217.539062 343.441406 246.488281 328.144531 271.886719 L 327.054688 260.417969 C 326.78125 257.414062 324.050781 255.226562 321.046875 255.5 C 318.042969 255.773438 315.855469 258.503906 316.128906 261.507812 L 318.859375 288.820312 C 318.859375 289.367188 319.132812 289.910156 319.40625 290.457031 C 319.40625 290.457031 319.40625 290.457031 319.40625 290.730469 C 320.226562 292.917969 322.410156 294.007812 324.324219 294.007812 C 325.140625 294.007812 325.6875 293.734375 326.507812 293.460938 L 353.542969 281.992188 C 356.277344 280.898438 357.640625 277.621094 356.277344 274.890625 C 355.183594 272.160156 351.90625 270.792969 349.175781 272.160156 L 337.703125 277.078125 C 353.816406 250.039062 362.285156 219.453125 362.285156 187.773438 C 362.285156 91.367188 283.902344 12.988281 187.5 12.988281 C 150.902344 12.714844 115.671875 23.910156 85.90625 45.210938 C 83.445312 46.851562 82.902344 50.402344 84.539062 52.859375 C 86.453125 55.316406 90 55.863281 92.460938 53.953125 Z M 92.460938 53.953125 " fill-opacity="1" fill-rule="nonzero"/></g><g clip-path="url(#a02256b35b)"><path fill="#19598f" d="M 187.5 362.285156 C 222.457031 362.285156 256.320312 351.90625 285.269531 332.515625 C 287.726562 330.878906 288.546875 327.328125 286.636719 324.867188 C 284.996094 322.410156 281.445312 321.59375 278.988281 323.503906 C 251.949219 341.800781 220.269531 351.359375 187.5 351.359375 C 97.101562 351.359375 23.636719 277.894531 23.636719 187.5 C 23.636719 157.457031 31.832031 128.507812 47.125 103.109375 L 48.21875 114.308594 C 48.488281 117.039062 50.949219 119.222656 53.679688 119.222656 C 53.953125 119.222656 53.953125 119.222656 54.226562 119.222656 C 57.230469 118.949219 59.414062 116.21875 59.140625 113.214844 L 56.683594 88.363281 C 57.230469 86.453125 56.683594 84.539062 55.316406 82.902344 C 53.679688 80.988281 50.949219 80.167969 48.761719 80.988281 L 21.726562 92.460938 C 18.996094 93.550781 17.628906 96.828125 18.996094 99.558594 C 19.8125 101.746094 22 102.835938 23.910156 102.835938 C 24.730469 102.835938 25.277344 102.5625 26.097656 102.292969 L 37.566406 97.375 C 21.179688 124.683594 12.714844 155.546875 12.714844 187.5 C 12.714844 283.902344 91.09375 362.285156 187.5 362.285156 Z M 187.5 362.285156 " fill-opacity="1" fill-rule="nonzero"/></g><path fill="#19598f" d="M 234.746094 108.300781 C 235.566406 105.023438 237.203125 102.019531 239.386719 99.285156 L 239.386719 80.988281 C 239.386719 77.984375 236.929688 75.527344 233.925781 75.527344 L 190.230469 75.527344 C 187.226562 75.527344 184.769531 77.984375 184.769531 80.988281 L 184.769531 108.300781 L 195.691406 108.300781 L 195.691406 86.453125 L 228.464844 86.453125 L 228.464844 108.300781 Z M 234.746094 108.300781 " fill-opacity="1" fill-rule="nonzero"/></svg>