<svg width="300" height="301" viewBox="0 0 300 301" fill="none" xmlns="http://www.w3.org/2000/svg">
<path d="M150 300.343C232.843 300.343 300 233.186 300 150.343C300 67.5005 232.843 0.343262 150 0.343262C67.1573 0.343262 0 67.5005 0 150.343C0 233.186 67.1573 300.343 150 300.343Z" fill="#3C5A99"/>
<path d="M161.662 225.345V157.024H184.689L188.146 130.276H161.662V113.255C161.662 105.521 163.801 100.276 174.875 100.276H188.908V76.4287C186.477 76.1064 178.098 75.374 168.342 75.374C147.98 75.374 134.035 87.7959 134.035 110.618V130.306H111.096V157.054H134.035V225.345H161.662Z" fill="white"/>
</svg>
