<svg xmlns="http://www.w3.org/2000/svg" xmlns:xlink="http://www.w3.org/1999/xlink" width="500" zoomAndPan="magnify" viewBox="0 0 375 374.999991" height="500" preserveAspectRatio="xMidYMid meet" version="1.0"><defs><clipPath id="c525d1a152"><path d="M 32.285156 62.1875 L 342.570312 62.1875 L 342.570312 312.6875 L 32.285156 312.6875 Z M 32.285156 62.1875 " clip-rule="nonzero"/></clipPath></defs><path fill="#fef759" d="M 249.21875 266.46875 C 249.253906 266.65625 249.273438 266.847656 249.273438 267.046875 L 249.214844 271.914062 L 278.417969 272.222656 C 278.425781 272.222656 278.429688 272.222656 278.4375 272.222656 L 279.332031 272.234375 L 279.449219 264.960938 L 247.484375 264.371094 C 248.371094 264.726562 249.042969 265.511719 249.21875 266.46875 " fill-opacity="1" fill-rule="nonzero"/><path fill="#fef759" d="M 239.152344 266.859375 L 239.152344 266.863281 C 239.152344 266.871094 239.152344 266.878906 239.152344 266.882812 L 239.09375 271.808594 L 243.566406 271.855469 L 243.625 266.953125 C 243.640625 265.734375 244.394531 264.714844 245.496094 264.335938 L 237.285156 264.183594 C 238.382812 264.578125 239.167969 265.625 239.152344 266.859375 " fill-opacity="1" fill-rule="nonzero"/><path fill="#fef759" d="M 191.886719 271.308594 L 233.453125 271.75 L 233.511719 266.792969 C 233.523438 265.558594 234.308594 264.511719 235.429688 264.148438 L 191.886719 263.34375 L 191.886719 271.308594 " fill-opacity="1" fill-rule="nonzero"/><path fill="#19598f" d="M 324.8125 235.667969 C 324.789062 235.667969 324.765625 235.667969 324.742188 235.667969 C 322.582031 235.667969 320.769531 237.253906 320.4375 239.339844 L 329.039062 239.265625 C 328.675781 237.25 326.929688 235.703125 324.8125 235.667969 " fill-opacity="1" fill-rule="nonzero"/><path fill="#19598f" d="M 264.925781 178.332031 L 259.933594 193.558594 L 322.761719 185.644531 L 322.867188 178.957031 C 322.894531 177.414062 324.152344 176.183594 325.691406 176.183594 C 325.707031 176.183594 325.71875 176.183594 325.734375 176.183594 C 327.292969 176.207031 328.535156 177.488281 328.511719 179.046875 L 328.511719 179.054688 C 328.511719 179.058594 328.515625 179.066406 328.515625 179.074219 L 328.421875 184.933594 L 334.917969 184.117188 C 336.347656 183.933594 336.824219 182.789062 336.9375 182.445312 C 336.996094 182.273438 337.089844 181.890625 337.046875 181.429688 C 337 180.960938 336.808594 180.417969 336.289062 179.929688 L 220.246094 71.34375 C 220.207031 71.347656 220.171875 71.359375 220.128906 71.359375 L 43.691406 80.296875 L 95.109375 132.3125 L 97.882812 123.855469 C 100.179688 116.847656 106.871094 112.199219 114.222656 112.570312 C 140.472656 113.867188 166.539062 118.800781 191.699219 127.222656 C 215.320312 135.132812 237.757812 146 258.398438 159.519531 C 262.628906 162.292969 265.21875 166.820312 265.671875 171.664062 C 265.878906 173.863281 265.644531 176.132812 264.925781 178.332031 " fill-opacity="1" fill-rule="nonzero"/><path fill="#19598f" d="M 190.371094 145.542969 C 190.339844 145.175781 190.378906 144.792969 190.507812 144.417969 C 191 142.945312 192.585938 142.140625 194.078125 142.640625 C 213.144531 149.023438 231.261719 157.796875 247.921875 168.714844 C 248.734375 169.25 249.183594 170.132812 249.195312 171.035156 C 249.207031 171.589844 249.0625 172.148438 248.738281 172.644531 C 248.195312 173.472656 247.292969 173.921875 246.375 173.921875 C 245.84375 173.921875 245.308594 173.769531 244.832031 173.457031 C 228.574219 162.804688 210.894531 154.246094 192.289062 148.015625 C 191.175781 147.644531 190.449219 146.644531 190.371094 145.542969 Z M 241.539062 231.53125 L 259.558594 176.550781 C 259.859375 175.640625 259.996094 174.71875 260.046875 173.796875 C 259.8125 173.582031 254.664062 168.855469 247.019531 164.027344 C 242.46875 161.152344 217.785156 146.203125 178.8125 134.492188 C 151.121094 126.171875 122.550781 122.78125 117.105469 122.183594 C 113.847656 121.832031 109.742188 122.515625 106.746094 131.058594 L 89.296875 180.800781 C 93.203125 180.957031 97.105469 181.199219 100.996094 181.519531 C 101.328125 181.488281 101.660156 181.511719 101.984375 181.597656 C 121.789062 183.285156 141.40625 187.011719 160.597656 192.78125 C 160.839844 192.820312 161.070312 192.898438 161.296875 193 C 162.355469 193.320312 163.414062 193.664062 164.46875 193.996094 C 165.03125 194.171875 165.59375 194.351562 166.15625 194.527344 C 167.207031 194.867188 168.265625 195.171875 169.3125 195.519531 C 170.492188 195.914062 171.648438 196.355469 172.820312 196.761719 C 173.714844 197.078125 174.613281 197.390625 175.507812 197.714844 C 176.96875 198.242188 178.433594 198.757812 179.886719 199.304688 C 180.023438 199.347656 180.152344 199.398438 180.28125 199.460938 C 190.890625 203.488281 201.207031 208.136719 211.210938 213.34375 C 211.625 213.558594 212.042969 213.773438 212.457031 213.992188 C 214.585938 215.113281 216.707031 216.261719 218.808594 217.4375 C 219.402344 217.769531 219.988281 218.105469 220.578125 218.441406 C 222.589844 219.585938 224.59375 220.742188 226.574219 221.933594 C 227.167969 222.289062 227.757812 222.660156 228.351562 223.023438 C 230.359375 224.25 232.363281 225.480469 234.339844 226.757812 C 234.351562 226.765625 234.367188 226.773438 234.378906 226.78125 C 236.785156 228.335938 239.179688 229.90625 241.539062 231.53125 " fill-opacity="1" fill-rule="nonzero"/><path fill="#ffffff" d="M 180.425781 294.40625 L 165.289062 294.234375 L 165.109375 305.65625 L 256.457031 307.117188 L 256.648438 295.277344 L 181.078125 294.496094 C 180.855469 294.496094 180.636719 294.457031 180.425781 294.40625 " fill-opacity="1" fill-rule="nonzero"/><path fill="#ffffff" d="M 47.609375 286.78125 L 50.828125 286.832031 L 50.902344 281.992188 C 50.925781 280.433594 52.160156 279.132812 53.769531 279.214844 C 55.140625 279.238281 56.261719 280.230469 56.5 281.53125 C 56.535156 281.71875 56.554688 281.910156 56.550781 282.109375 L 56.472656 286.914062 L 60.945312 286.984375 L 61.023438 282.152344 C 61.046875 280.597656 62.25 279.328125 63.886719 279.378906 C 65.261719 279.398438 66.382812 280.394531 66.617188 281.695312 C 66.652344 281.882812 66.671875 282.074219 66.667969 282.269531 L 66.589844 287.066406 L 139.257812 288.164062 L 139.207031 276.199219 L 47.800781 274.738281 L 47.609375 286.78125 " fill-opacity="1" fill-rule="nonzero"/><path fill="#fef759" d="M 69.5 304.132812 L 159.460938 305.566406 L 159.578125 298.25 L 137.632812 297.933594 L 137.625 298.308594 C 137.601562 299.847656 136.34375 301.082031 134.804688 301.082031 C 134.789062 301.082031 134.777344 301.082031 134.761719 301.082031 C 133.390625 301.0625 132.265625 300.0625 132.03125 298.761719 C 131.996094 298.574219 131.980469 298.386719 131.980469 298.191406 L 131.988281 297.855469 L 127.515625 297.789062 L 127.507812 298.144531 C 127.484375 299.6875 126.226562 300.921875 124.6875 300.921875 C 124.671875 300.921875 124.65625 300.921875 124.640625 300.921875 C 123.269531 300.898438 122.144531 299.902344 121.910156 298.597656 C 121.878906 298.414062 121.859375 298.222656 121.863281 298.027344 L 121.867188 297.710938 L 69.5 296.960938 L 69.5 304.132812 " fill-opacity="1" fill-rule="nonzero"/><path fill="#fef759" d="M 167.523438 200.898438 C 167.035156 200.730469 166.542969 200.582031 166.050781 200.417969 C 166.9375 202.484375 167.617188 204.558594 168.121094 206.578125 C 168.152344 206.703125 168.179688 206.824219 168.207031 206.945312 C 168.445312 207.949219 168.644531 208.925781 168.800781 209.882812 C 168.847656 210.171875 168.90625 210.46875 168.945312 210.753906 C 168.992188 211.097656 169.027344 211.425781 169.066406 211.761719 C 169.121094 212.265625 169.171875 212.757812 169.207031 213.238281 C 169.222656 213.464844 169.238281 213.691406 169.25 213.914062 C 169.292969 214.644531 169.3125 215.351562 169.304688 216.015625 C 169.171875 224.25 166.683594 232.199219 162.113281 239.007812 C 161.566406 239.816406 160.675781 240.253906 159.769531 240.253906 C 159.226562 240.253906 158.679688 240.101562 158.199219 239.773438 C 157.386719 239.230469 156.949219 238.339844 156.949219 237.433594 C 156.945312 236.882812 157.097656 236.328125 157.425781 235.835938 C 161.390625 229.933594 163.542969 223.039062 163.660156 215.898438 C 163.667969 215.289062 163.652344 214.640625 163.613281 213.964844 C 163.585938 213.511719 163.535156 213.035156 163.484375 212.5625 C 163.460938 212.347656 163.449219 212.144531 163.421875 211.925781 C 162.875 207.625 161.339844 202.507812 158.351562 198.003906 C 149.054688 195.234375 139.660156 192.9375 130.191406 191.140625 C 130.378906 191.382812 130.527344 191.65625 130.625 191.957031 C 130.625 191.957031 130.625 191.957031 130.628906 191.960938 C 130.726562 192.253906 130.789062 192.5625 130.78125 192.890625 L 130.78125 192.902344 C 130.78125 192.90625 130.785156 192.910156 130.785156 192.917969 L 130.738281 195.730469 L 133.816406 195.777344 C 135.1875 195.800781 136.3125 196.796875 136.546875 198.09375 C 136.582031 198.28125 136.597656 198.472656 136.597656 198.671875 C 136.570312 200.226562 135.273438 201.488281 133.730469 201.445312 L 127.089844 201.339844 C 125.511719 201.316406 124.039062 201.902344 122.910156 202.992188 C 122.351562 203.535156 121.910156 204.171875 121.609375 204.871094 C 121.59375 204.90625 121.589844 204.941406 121.574219 204.976562 C 121.441406 205.292969 121.332031 205.621094 121.257812 205.960938 C 121.257812 205.96875 121.257812 205.976562 121.253906 205.984375 C 121.179688 206.355469 121.132812 206.730469 121.128906 207.113281 C 121.121094 207.507812 121.15625 207.894531 121.226562 208.269531 C 121.269531 208.5 121.347656 208.722656 121.417969 208.945312 C 121.460938 209.082031 121.488281 209.226562 121.539062 209.359375 C 121.816406 210.058594 122.234375 210.707031 122.777344 211.265625 C 123.867188 212.390625 125.328125 213.023438 126.898438 213.050781 L 128.378906 213.074219 C 132.765625 213.144531 136.550781 215.679688 138.433594 219.332031 C 138.476562 219.417969 138.511719 219.511719 138.554688 219.601562 C 138.671875 219.84375 138.789062 220.085938 138.890625 220.335938 C 138.945312 220.480469 138.988281 220.625 139.039062 220.769531 C 139.113281 220.976562 139.191406 221.179688 139.253906 221.394531 C 139.304688 221.566406 139.335938 221.742188 139.378906 221.917969 C 139.425781 222.109375 139.476562 222.296875 139.511719 222.488281 C 139.554688 222.707031 139.578125 222.929688 139.605469 223.152344 C 139.625 223.308594 139.652344 223.460938 139.664062 223.617188 C 139.699219 224.003906 139.714844 224.398438 139.707031 224.792969 C 139.65625 228.027344 138.410156 230.898438 136.203125 233.039062 C 136.023438 233.214844 135.820312 233.355469 135.628906 233.515625 C 135.5 233.625 135.371094 233.738281 135.238281 233.84375 C 135 234.027344 134.757812 234.203125 134.507812 234.367188 C 134.367188 234.460938 134.222656 234.539062 134.078125 234.628906 C 133.671875 234.871094 133.253906 235.089844 132.824219 235.277344 C 132.632812 235.359375 132.441406 235.441406 132.246094 235.515625 C 132 235.605469 131.757812 235.695312 131.507812 235.773438 C 131.132812 235.886719 130.75 235.976562 130.359375 236.050781 C 130.269531 236.066406 130.183594 236.101562 130.09375 236.117188 L 129.996094 242.339844 C 129.972656 243.882812 128.714844 245.117188 127.175781 245.117188 C 127.160156 245.117188 127.144531 245.117188 127.128906 245.117188 C 125.570312 245.09375 124.328125 243.808594 124.355469 242.25 L 124.355469 242.246094 C 124.355469 242.242188 124.351562 242.234375 124.351562 242.226562 L 124.445312 236.222656 L 120.488281 236.160156 C 119.117188 236.140625 117.988281 235.140625 117.757812 233.839844 C 117.722656 233.652344 117.703125 233.464844 117.707031 233.269531 C 117.734375 231.710938 118.960938 230.453125 120.574219 230.492188 L 128.097656 230.613281 C 129.65625 230.625 131.148438 230.050781 132.277344 228.960938 C 133.402344 227.871094 134.035156 226.40625 134.058594 224.839844 C 134.085938 223.132812 133.445312 221.609375 132.394531 220.511719 C 131.304688 219.394531 129.851562 218.765625 128.289062 218.742188 L 126.8125 218.71875 C 122.421875 218.648438 118.644531 216.117188 116.761719 212.464844 C 116.699219 212.347656 116.648438 212.222656 116.589844 212.097656 C 116.492188 211.890625 116.390625 211.679688 116.300781 211.464844 C 116.230469 211.28125 116.171875 211.09375 116.109375 210.90625 C 116.050781 210.742188 115.988281 210.578125 115.9375 210.410156 C 115.875 210.1875 115.824219 209.957031 115.773438 209.730469 C 115.742188 209.589844 115.703125 209.457031 115.679688 209.3125 C 115.625 209.023438 115.589844 208.730469 115.558594 208.433594 C 115.550781 208.351562 115.53125 208.269531 115.523438 208.1875 C 115.492188 207.792969 115.476562 207.398438 115.480469 207 C 115.5 205.929688 115.671875 204.90625 115.964844 203.929688 C 115.992188 203.835938 116.011719 203.746094 116.042969 203.652344 C 116.109375 203.449219 116.191406 203.25 116.269531 203.046875 C 116.328125 202.894531 116.382812 202.734375 116.449219 202.582031 C 116.515625 202.433594 116.59375 202.289062 116.667969 202.144531 C 116.761719 201.953125 116.851562 201.757812 116.957031 201.570312 C 117.027344 201.441406 117.109375 201.324219 117.1875 201.199219 C 117.304688 201.007812 117.417969 200.8125 117.550781 200.628906 C 117.664062 200.460938 117.796875 200.304688 117.921875 200.144531 C 118.019531 200.011719 118.117188 199.878906 118.222656 199.753906 C 118.824219 199.046875 119.515625 198.417969 120.265625 197.875 C 120.308594 197.84375 120.355469 197.808594 120.398438 197.777344 C 121.78125 196.804688 123.375 196.125 125.089844 195.835938 L 125.140625 192.800781 C 125.15625 191.820312 125.644531 190.949219 126.410156 190.457031 C 120.375 189.394531 114.3125 188.527344 108.226562 187.863281 C 108.046875 188.214844 107.792969 188.539062 107.457031 188.796875 C 103.234375 192.039062 99.765625 196.265625 97.425781 201.019531 C 94.589844 206.777344 93.929688 212.082031 93.875 215.519531 C 93.734375 224.160156 96.945312 230.460938 98.332031 232.769531 C 101.527344 238.085938 105.496094 241 107.632812 242.5625 C 117.230469 249.605469 128.023438 251.082031 135.640625 251.082031 C 140.691406 249.828125 145.480469 247.527344 149.597656 244.28125 C 150.820312 243.316406 152.59375 243.527344 153.558594 244.75 C 153.921875 245.210938 154.117188 245.75 154.15625 246.296875 C 154.226562 247.207031 153.863281 248.132812 153.089844 248.738281 C 145.625 254.625 136.308594 257.84375 126.796875 257.84375 C 126.570312 257.84375 126.347656 257.839844 126.125 257.835938 C 113.292969 257.632812 101.375 251.730469 93.417969 241.652344 C 93.050781 241.1875 92.855469 240.644531 92.820312 240.097656 C 92.75 239.191406 93.117188 238.265625 93.882812 237.660156 C 94.105469 237.484375 94.351562 237.363281 94.601562 237.261719 C 94.246094 236.738281 93.890625 236.214844 93.546875 235.644531 C 92.878906 234.535156 91.855469 232.632812 90.886719 230.097656 C 90.636719 230.296875 90.355469 230.464844 90.035156 230.570312 C 89.742188 230.667969 89.441406 230.714844 89.144531 230.714844 C 87.964844 230.714844 86.863281 229.96875 86.46875 228.789062 C 85.707031 226.507812 85.144531 224.175781 84.785156 221.808594 C 84.421875 219.445312 84.257812 217.046875 84.296875 214.632812 C 84.3125 213.492188 84.402344 212.34375 84.527344 211.191406 C 84.539062 211.078125 84.546875 210.96875 84.5625 210.859375 C 84.699219 209.691406 84.886719 208.519531 85.125 207.351562 C 85.132812 207.3125 85.140625 207.273438 85.148438 207.234375 C 86.671875 199.875 90.175781 192.589844 95.035156 186.738281 C 93.113281 186.617188 91.183594 186.5625 89.257812 186.484375 C 89.167969 186.695312 89.066406 186.902344 88.921875 187.09375 C 86.175781 190.777344 84 194.808594 82.449219 199.078125 C 80.949219 203.21875 78.660156 211.757812 80.21875 222.433594 C 80.675781 225.574219 82.074219 235.132812 89.066406 244.242188 C 94.363281 251.152344 98.355469 253.980469 108.453125 259.519531 C 112.804688 261.910156 117.882812 264.199219 123.824219 266.460938 C 124.539062 266.5 125.257812 266.535156 125.984375 266.546875 C 139.605469 266.777344 152.617188 261.640625 162.453125 252.117188 C 162.6875 251.890625 162.90625 251.652344 163.136719 251.421875 C 163.753906 250.800781 164.355469 250.167969 164.9375 249.519531 C 165.25 249.167969 165.574219 248.820312 165.878906 248.464844 C 166.597656 247.613281 167.28125 246.742188 167.941406 245.855469 C 168.199219 245.511719 168.453125 245.164062 168.699219 244.816406 C 169.363281 243.875 170 242.917969 170.59375 241.941406 C 170.777344 241.640625 170.949219 241.339844 171.125 241.035156 C 171.738281 239.984375 172.324219 238.921875 172.855469 237.832031 C 172.882812 237.773438 172.910156 237.710938 172.9375 237.652344 C 172.984375 237.519531 173.046875 237.390625 173.117188 237.265625 C 173.222656 237.042969 173.324219 236.816406 173.429688 236.589844 C 173.625 236.160156 173.824219 235.726562 174.007812 235.292969 C 174.160156 234.925781 174.308594 234.554688 174.453125 234.1875 C 174.628906 233.746094 174.800781 233.300781 174.960938 232.855469 C 175.101562 232.472656 175.234375 232.089844 175.363281 231.707031 C 175.507812 231.269531 175.648438 230.832031 175.785156 230.390625 C 175.910156 229.984375 176.03125 229.582031 176.144531 229.171875 C 176.261719 228.75 176.371094 228.320312 176.480469 227.894531 C 176.585938 227.464844 176.695312 227.035156 176.789062 226.601562 C 176.882812 226.195312 176.964844 225.785156 177.046875 225.375 C 177.132812 224.917969 177.226562 224.460938 177.304688 224 C 177.371094 223.613281 177.425781 223.222656 177.480469 222.835938 C 177.550781 222.351562 177.625 221.863281 177.683594 221.375 C 177.726562 221.007812 177.753906 220.636719 177.792969 220.269531 C 177.839844 219.757812 177.894531 219.25 177.929688 218.738281 C 177.953125 218.375 177.957031 218.011719 177.972656 217.652344 C 177.996094 217.144531 178.027344 216.636719 178.035156 216.128906 C 178.046875 215.382812 178.050781 214.660156 178.042969 213.964844 C 178.042969 213.925781 178.042969 213.886719 178.039062 213.84375 C 178.035156 213.230469 178.015625 212.640625 177.996094 212.066406 C 177.988281 211.90625 177.980469 211.757812 177.972656 211.605469 C 177.953125 211.160156 177.929688 210.730469 177.898438 210.3125 C 177.882812 210.113281 177.867188 209.921875 177.851562 209.726562 C 177.820312 209.378906 177.789062 209.042969 177.75 208.710938 C 177.726562 208.492188 177.703125 208.277344 177.675781 208.066406 C 177.640625 207.792969 177.601562 207.53125 177.5625 207.269531 C 177.523438 207.039062 177.492188 206.808594 177.453125 206.589844 C 177.414062 206.386719 177.371094 206.199219 177.332031 206.007812 C 177.28125 205.761719 177.234375 205.511719 177.175781 205.28125 C 177.171875 205.261719 177.164062 205.242188 177.160156 205.222656 C 177.070312 204.871094 176.976562 204.53125 176.875 204.21875 C 173.78125 203.0625 170.667969 201.949219 167.523438 200.898438 " fill-opacity="1" fill-rule="nonzero"/><path fill="#ffffff" d="M 205.1875 244.6875 C 205.164062 246.230469 203.90625 247.464844 202.371094 247.464844 C 202.355469 247.464844 202.339844 247.464844 202.324219 247.464844 C 200.765625 247.4375 199.523438 246.15625 199.546875 244.597656 L 199.546875 244.59375 C 199.546875 244.585938 199.542969 244.578125 199.542969 244.574219 L 199.589844 241.898438 L 177.289062 241.542969 C 175.628906 244.730469 173.664062 247.765625 171.398438 250.609375 L 171.398438 253.285156 L 185.300781 253.519531 C 185.347656 253.519531 185.390625 253.507812 185.4375 253.507812 L 215.21875 254.023438 L 215.296875 249.101562 C 215.320312 247.558594 216.578125 246.324219 218.117188 246.324219 C 218.132812 246.324219 218.148438 246.324219 218.160156 246.324219 C 219.53125 246.347656 220.65625 247.339844 220.894531 248.636719 C 220.929688 248.824219 220.945312 249.019531 220.941406 249.214844 L 220.863281 254.121094 L 225.414062 254.199219 L 225.414062 249.304688 C 225.414062 247.75 226.679688 246.484375 228.238281 246.484375 C 229.609375 246.484375 230.75 247.464844 231.003906 248.765625 C 231.039062 248.949219 231.058594 249.136719 231.058594 249.332031 L 231.058594 254.296875 L 262.785156 254.84375 L 262.976562 242.910156 L 205.230469 241.992188 L 205.1875 244.6875 " fill-opacity="1" fill-rule="nonzero"/><path fill="#fef759" d="M 210.800781 283.988281 C 210.785156 283.988281 210.773438 283.988281 210.757812 283.984375 C 209.414062 283.964844 208.308594 283.003906 208.042969 281.742188 L 203.40625 281.707031 C 203.09375 282.925781 201.992188 283.824219 200.683594 283.824219 C 200.667969 283.824219 200.652344 283.824219 200.636719 283.824219 C 199.324219 283.804688 198.246094 282.886719 197.953125 281.667969 L 187.894531 281.59375 L 187.894531 288.820312 L 259.546875 289.636719 L 275.332031 289.800781 L 275.453125 282.234375 L 213.554688 281.78125 C 213.273438 283.046875 212.144531 283.988281 210.800781 283.988281 " fill-opacity="1" fill-rule="nonzero"/><path fill="#ffffff" d="M 327.691406 230.519531 L 328.328125 190.660156 L 328.324219 190.660156 L 327.691406 230.519531 " fill-opacity="1" fill-rule="nonzero"/><path fill="#ffffff" d="M 220.132812 71.359375 C 220.171875 71.359375 220.207031 71.347656 220.25 71.34375 C 220.253906 71.339844 220.261719 71.339844 220.269531 71.339844 L 217.222656 68.488281 C 216.738281 68.035156 216.066406 67.804688 215.425781 67.832031 L 40.261719 76.746094 C 38.792969 76.824219 38.242188 77.957031 38.109375 78.304688 C 37.972656 78.652344 37.613281 79.859375 38.644531 80.90625 L 93.65625 136.757812 L 95.113281 132.3125 L 43.691406 80.296875 L 220.132812 71.359375 " fill-opacity="1" fill-rule="nonzero"/><path fill="#ffffff" d="M 117.105469 122.183594 C 122.550781 122.78125 151.121094 126.167969 178.8125 134.492188 C 217.78125 146.207031 242.46875 161.148438 247.019531 164.027344 C 254.664062 168.855469 259.8125 173.582031 260.046875 173.796875 C 260.261719 170.039062 258.535156 166.355469 255.308594 164.242188 C 235.070312 150.984375 213.066406 140.328125 189.90625 132.574219 C 165.238281 124.3125 139.679688 119.480469 113.941406 118.203125 C 109.144531 117.980469 104.753906 121.011719 103.246094 125.609375 L 85.214844 180.617188 C 86.578125 180.652344 87.9375 180.742188 89.296875 180.800781 L 106.746094 131.058594 C 109.742188 122.515625 113.851562 121.828125 117.105469 122.183594 " fill-opacity="1" fill-rule="nonzero"/><path fill="#ffffff" d="M 89.066406 244.242188 C 82.074219 235.132812 80.675781 225.574219 80.21875 222.433594 C 78.660156 211.757812 80.949219 203.214844 82.449219 199.074219 C 84 194.808594 86.175781 190.777344 88.921875 187.09375 C 89.066406 186.902344 89.167969 186.695312 89.257812 186.484375 C 89.265625 186.460938 89.273438 186.4375 89.28125 186.414062 C 87.796875 186.351562 86.3125 186.300781 84.828125 186.261719 C 79.015625 194.886719 75.714844 204.847656 75.5625 214.492188 C 75.34375 228.179688 80.464844 241.128906 89.988281 250.960938 C 99.011719 260.273438 110.953125 265.722656 123.824219 266.460938 C 117.882812 264.199219 112.804688 261.910156 108.453125 259.519531 C 98.355469 253.980469 94.363281 251.152344 89.066406 244.242188 " fill-opacity="1" fill-rule="nonzero"/><path fill="#ffffff" d="M 136.792969 256.601562 C 136.796875 256.601562 136.800781 256.597656 136.804688 256.597656 C 136.800781 256.597656 136.796875 256.601562 136.792969 256.601562 " fill-opacity="1" fill-rule="nonzero"/><path fill="#ffffff" d="M 93.546875 235.644531 C 93.890625 236.214844 94.246094 236.738281 94.601562 237.261719 C 95.730469 236.820312 97.058594 237.128906 97.847656 238.128906 C 104.746094 246.875 115.082031 251.992188 126.210938 252.167969 C 129.390625 252.21875 132.5625 251.84375 135.640625 251.082031 C 128.023438 251.082031 117.230469 249.605469 107.632812 242.5625 C 105.496094 241 101.527344 238.085938 98.332031 232.769531 C 96.945312 230.460938 93.734375 224.160156 93.875 215.519531 C 93.929688 212.082031 94.589844 206.777344 97.425781 201.019531 C 99.765625 196.265625 103.234375 192.039062 107.457031 188.796875 C 107.792969 188.539062 108.046875 188.214844 108.226562 187.863281 C 108.234375 187.851562 108.238281 187.839844 108.242188 187.832031 C 106.25 187.613281 104.253906 187.421875 102.257812 187.246094 C 94.902344 194.265625 90.097656 204.910156 89.9375 214.722656 C 89.871094 218.914062 90.503906 223.035156 91.816406 226.976562 C 92.207031 228.136719 91.789062 229.359375 90.878906 230.078125 C 90.882812 230.082031 90.886719 230.089844 90.890625 230.097656 C 91.855469 232.632812 92.878906 234.535156 93.546875 235.644531 " fill-opacity="1" fill-rule="nonzero"/><path fill="#ffffff" d="M 187.972656 271.269531 L 191.886719 271.308594 L 191.886719 263.34375 L 235.429688 264.148438 C 235.722656 264.054688 236.03125 263.996094 236.363281 264.003906 C 236.6875 264.007812 236.996094 264.078125 237.285156 264.183594 L 245.5 264.335938 C 245.804688 264.226562 246.132812 264.164062 246.480469 264.167969 C 246.835938 264.167969 247.171875 264.246094 247.484375 264.371094 L 279.449219 264.960938 L 279.515625 260.777344 L 264.578125 260.519531 L 188.164062 259.214844 L 187.972656 271.269531 " fill-opacity="1" fill-rule="nonzero"/><path fill="#ffffff" d="M 213.683594 277.183594 L 213.621094 281.183594 C 213.617188 281.390625 213.589844 281.589844 213.542969 281.78125 L 213.554688 281.78125 L 275.453125 282.234375 L 275.523438 277.835938 L 252.636719 277.59375 L 213.683594 277.183594 " fill-opacity="1" fill-rule="nonzero"/><path fill="#ffffff" d="M 208.042969 281.742188 L 208.046875 281.742188 C 208.003906 281.53125 207.972656 281.316406 207.976562 281.09375 L 208.042969 277.125 L 203.566406 277.078125 L 203.503906 281.023438 C 203.5 281.261719 203.457031 281.488281 203.398438 281.707031 L 203.40625 281.707031 L 208.042969 281.742188 " fill-opacity="1" fill-rule="nonzero"/><path fill="#ffffff" d="M 197.953125 281.667969 L 197.957031 281.667969 C 197.898438 281.433594 197.855469 281.1875 197.859375 280.933594 L 197.921875 277.019531 L 184.160156 276.875 L 183.972656 288.777344 L 187.894531 288.820312 L 187.894531 281.59375 L 197.953125 281.667969 " fill-opacity="1" fill-rule="nonzero"/><path fill="#ffffff" d="M 159.578125 298.25 L 159.644531 294.132812 L 137.695312 293.796875 L 137.628906 297.933594 L 137.632812 297.933594 L 159.578125 298.25 " fill-opacity="1" fill-rule="nonzero"/><path fill="#ffffff" d="M 69.5 304.132812 L 69.5 296.960938 L 121.867188 297.710938 L 121.933594 293.558594 L 66.109375 292.707031 L 65.929688 304.074219 L 69.5 304.132812 " fill-opacity="1" fill-rule="nonzero"/><path fill="#ffffff" d="M 131.988281 297.855469 L 132.054688 293.710938 L 127.578125 293.644531 L 127.511719 297.789062 L 127.515625 297.789062 L 131.988281 297.855469 " fill-opacity="1" fill-rule="nonzero"/><path fill="#092135" d="M 97.84375 238.128906 C 97.058594 237.128906 95.730469 236.820312 94.601562 237.261719 C 94.351562 237.363281 94.105469 237.484375 93.882812 237.660156 C 93.117188 238.265625 92.75 239.191406 92.820312 240.097656 C 92.859375 240.636719 93.054688 241.167969 93.414062 241.625 C 101.371094 251.707031 113.292969 257.605469 126.121094 257.8125 C 126.347656 257.816406 126.570312 257.816406 126.796875 257.816406 C 130.179688 257.816406 133.53125 257.390625 136.792969 256.601562 C 136.796875 256.601562 136.800781 256.597656 136.804688 256.597656 C 142.703125 255.167969 148.28125 252.5 153.089844 248.714844 C 153.851562 248.113281 154.21875 247.195312 154.15625 246.296875 C 154.117188 245.75 153.921875 245.210938 153.558594 244.75 C 152.59375 243.527344 150.820312 243.316406 149.597656 244.28125 C 145.480469 247.527344 140.691406 249.828125 135.640625 251.082031 C 132.5625 251.84375 129.390625 252.21875 126.210938 252.167969 C 115.082031 251.992188 104.746094 246.875 97.84375 238.128906 " fill-opacity="1" fill-rule="nonzero"/><g clip-path="url(#c525d1a152)"><path fill="#092135" d="M 264.925781 178.308594 C 265.640625 176.117188 265.875 173.859375 265.671875 171.664062 C 265.21875 166.820312 262.628906 162.292969 258.398438 159.519531 C 237.757812 146 215.316406 135.132812 191.699219 127.222656 C 166.539062 118.796875 140.472656 113.867188 114.222656 112.570312 C 106.871094 112.199219 100.179688 116.847656 97.882812 123.855469 L 95.109375 132.3125 L 93.65625 136.757812 L 38.644531 80.90625 C 37.613281 79.859375 37.972656 78.652344 38.105469 78.304688 C 38.242188 77.960938 38.792969 76.824219 40.261719 76.75 L 215.425781 67.832031 C 216.066406 67.804688 216.738281 68.039062 217.222656 68.488281 L 220.269531 71.339844 L 336.285156 179.902344 C 336.816406 180.402344 337.003906 180.957031 337.050781 181.429688 C 337.089844 181.890625 336.996094 182.273438 336.9375 182.445312 C 336.824219 182.789062 336.347656 183.9375 334.917969 184.117188 L 328.421875 184.933594 L 328.417969 184.933594 L 328.511719 179.054688 L 328.511719 179.046875 C 328.535156 177.488281 327.292969 176.207031 325.734375 176.183594 C 325.71875 176.183594 325.703125 176.183594 325.6875 176.183594 C 324.152344 176.183594 322.894531 177.417969 322.867188 178.957031 L 322.761719 185.644531 L 259.933594 193.558594 L 259.921875 193.558594 Z M 179.84375 235.914062 C 182.25 229.710938 183.570312 223.070312 183.679688 216.21875 C 183.738281 212.492188 183.566406 209.335938 183.171875 206.671875 C 203.007812 214.625 221.8125 224.734375 239.265625 236.863281 Z M 262.976562 242.910156 L 262.789062 254.84375 L 231.058594 254.296875 L 231.058594 249.304688 C 231.058594 249.121094 231.035156 248.941406 231.003906 248.765625 C 230.75 247.464844 229.609375 246.484375 228.238281 246.484375 C 226.679688 246.484375 225.414062 247.75 225.414062 249.304688 L 225.414062 254.199219 L 220.863281 254.121094 L 220.859375 254.121094 L 220.9375 249.191406 C 220.941406 249 220.925781 248.816406 220.890625 248.640625 C 220.65625 247.339844 219.53125 246.347656 218.160156 246.324219 C 218.144531 246.324219 218.132812 246.324219 218.117188 246.324219 C 216.578125 246.324219 215.320312 247.558594 215.296875 249.101562 L 215.21875 254.023438 L 185.4375 253.507812 C 185.390625 253.507812 185.347656 253.519531 185.300781 253.519531 L 171.398438 253.285156 L 171.394531 253.285156 L 171.394531 250.617188 C 171.398438 250.613281 171.398438 250.613281 171.398438 250.609375 C 173.664062 247.765625 175.628906 244.730469 177.289062 241.542969 C 177.292969 241.535156 177.296875 241.527344 177.300781 241.519531 L 199.585938 241.875 L 199.585938 241.902344 L 199.542969 244.574219 C 199.542969 244.582031 199.546875 244.585938 199.546875 244.59375 C 199.535156 246.140625 200.769531 247.414062 202.320312 247.4375 C 202.335938 247.4375 202.351562 247.4375 202.363281 247.4375 C 203.902344 247.4375 205.160156 246.207031 205.1875 244.664062 L 205.230469 241.964844 L 262.976562 242.886719 Z M 256.644531 295.277344 L 256.457031 307.117188 L 165.105469 305.65625 L 165.285156 294.207031 L 180.421875 294.378906 C 180.632812 294.433594 180.851562 294.46875 181.074219 294.472656 L 256.648438 295.25 Z M 47.796875 274.714844 L 139.207031 276.171875 L 139.207031 276.199219 L 139.257812 288.164062 L 66.589844 287.066406 L 66.664062 282.242188 C 66.667969 282.054688 66.648438 281.875 66.617188 281.695312 C 66.382812 280.394531 65.257812 279.398438 63.886719 279.378906 C 62.25 279.328125 61.046875 280.597656 61.023438 282.152344 L 60.945312 286.984375 L 56.472656 286.914062 L 56.46875 286.914062 L 56.546875 282.082031 C 56.550781 281.890625 56.53125 281.707031 56.5 281.53125 C 56.261719 280.230469 55.140625 279.238281 53.769531 279.214844 C 52.160156 279.132812 50.925781 280.433594 50.902344 281.992188 L 50.828125 286.832031 L 47.609375 286.78125 L 47.605469 286.78125 Z M 66.109375 292.707031 L 121.933594 293.558594 L 121.867188 297.710938 L 121.863281 298.027344 C 121.859375 298.222656 121.875 298.414062 121.910156 298.597656 C 122.15625 299.890625 123.273438 300.875 124.636719 300.894531 C 124.65625 300.894531 124.667969 300.894531 124.683594 300.894531 C 126.222656 300.894531 127.480469 299.660156 127.503906 298.121094 L 127.511719 297.789062 L 127.578125 293.644531 L 132.054688 293.710938 L 131.988281 297.855469 L 131.980469 298.191406 C 131.980469 298.386719 131.996094 298.574219 132.03125 298.761719 C 132.273438 300.050781 133.394531 301.035156 134.757812 301.054688 C 134.773438 301.058594 134.789062 301.058594 134.800781 301.058594 C 136.339844 301.058594 137.597656 299.824219 137.625 298.28125 L 137.628906 297.933594 L 137.695312 293.796875 L 159.644531 294.132812 L 159.578125 298.25 L 159.460938 305.566406 L 69.5 304.132812 L 65.929688 304.074219 Z M 182.523438 259.117188 L 182.328125 271.210938 L 181.414062 271.203125 C 179.777344 271.175781 178.589844 272.429688 178.566406 273.980469 L 178.328125 288.710938 L 162.542969 288.53125 C 162.542969 288.53125 162.542969 288.53125 162.539062 288.53125 L 144.902344 288.265625 L 144.839844 273.382812 C 144.835938 271.847656 143.601562 270.597656 142.066406 270.574219 L 140.480469 270.550781 C 149.90625 268.234375 158.597656 263.503906 165.828125 256.679688 C 166.109375 257.917969 167.203125 258.855469 168.527344 258.878906 Z M 279.515625 260.777344 L 279.449219 264.960938 L 279.332031 272.234375 L 278.4375 272.222656 C 278.429688 272.222656 278.425781 272.222656 278.417969 272.222656 L 249.214844 271.914062 L 249.210938 271.914062 L 249.269531 267.019531 C 249.269531 266.832031 249.253906 266.648438 249.21875 266.46875 C 249.042969 265.511719 248.375 264.726562 247.484375 264.371094 C 247.171875 264.246094 246.835938 264.171875 246.480469 264.167969 C 246.128906 264.164062 245.804688 264.226562 245.496094 264.335938 C 244.394531 264.714844 243.640625 265.734375 243.625 266.953125 L 243.570312 271.855469 L 239.097656 271.808594 L 239.09375 271.808594 L 239.152344 266.863281 L 239.152344 266.859375 C 239.167969 265.625 238.382812 264.578125 237.285156 264.183594 C 236.996094 264.078125 236.6875 264.007812 236.363281 264.003906 C 236.03125 263.996094 235.722656 264.054688 235.429688 264.148438 C 234.308594 264.511719 233.523438 265.558594 233.507812 266.792969 L 233.449219 271.75 L 191.886719 271.308594 L 187.96875 271.269531 L 188.164062 259.214844 L 264.574219 260.519531 Z M 275.453125 282.234375 L 275.335938 289.800781 L 259.546875 289.636719 L 187.894531 288.820312 L 183.972656 288.777344 L 184.160156 276.875 L 197.921875 277.019531 L 197.859375 280.933594 C 197.855469 281.1875 197.898438 281.433594 197.957031 281.667969 C 198.261719 282.875 199.335938 283.777344 200.636719 283.796875 C 200.652344 283.800781 200.667969 283.800781 200.679688 283.800781 C 201.980469 283.800781 203.074219 282.914062 203.398438 281.707031 C 203.457031 281.488281 203.5 281.261719 203.5 281.023438 L 203.566406 277.078125 L 208.039062 277.125 L 207.976562 281.09375 C 207.972656 281.316406 208.003906 281.53125 208.046875 281.742188 C 208.320312 282.992188 209.417969 283.9375 210.75 283.960938 C 210.769531 283.960938 210.785156 283.960938 210.796875 283.960938 C 212.128906 283.960938 213.25 283.035156 213.542969 281.78125 C 213.585938 281.589844 213.617188 281.390625 213.621094 281.183594 L 213.683594 277.183594 L 252.632812 277.59375 L 275.523438 277.835938 Z M 177.175781 205.28125 C 177.234375 205.511719 177.28125 205.761719 177.332031 206.007812 C 177.371094 206.199219 177.414062 206.386719 177.449219 206.589844 C 177.492188 206.808594 177.527344 207.039062 177.5625 207.269531 C 177.601562 207.53125 177.640625 207.792969 177.675781 208.066406 C 177.703125 208.277344 177.726562 208.492188 177.75 208.710938 C 177.789062 209.042969 177.820312 209.378906 177.851562 209.726562 C 177.867188 209.921875 177.882812 210.113281 177.898438 210.3125 C 177.929688 210.730469 177.953125 211.160156 177.972656 211.605469 C 177.980469 211.757812 177.988281 211.910156 177.996094 212.066406 C 178.015625 212.640625 178.035156 213.230469 178.039062 213.84375 C 178.039062 213.886719 178.042969 213.921875 178.042969 213.964844 C 178.050781 214.660156 178.046875 215.382812 178.035156 216.128906 C 178.027344 216.636719 177.996094 217.144531 177.972656 217.652344 C 177.957031 218.011719 177.953125 218.378906 177.929688 218.738281 C 177.894531 219.25 177.839844 219.757812 177.789062 220.269531 C 177.753906 220.636719 177.726562 221.007812 177.683594 221.375 C 177.625 221.863281 177.550781 222.351562 177.480469 222.835938 C 177.425781 223.222656 177.371094 223.613281 177.304688 224 C 177.226562 224.460938 177.136719 224.917969 177.046875 225.375 C 176.964844 225.785156 176.882812 226.195312 176.789062 226.601562 C 176.695312 227.035156 176.585938 227.464844 176.480469 227.894531 C 176.371094 228.324219 176.261719 228.75 176.144531 229.171875 C 176.027344 229.582031 175.910156 229.984375 175.785156 230.390625 C 175.652344 230.832031 175.507812 231.269531 175.363281 231.707031 C 175.230469 232.089844 175.101562 232.472656 174.960938 232.855469 C 174.800781 233.300781 174.628906 233.746094 174.453125 234.1875 C 174.308594 234.554688 174.160156 234.925781 174.007812 235.292969 C 173.824219 235.726562 173.625 236.160156 173.429688 236.589844 C 173.328125 236.816406 173.222656 237.042969 173.117188 237.265625 C 173.046875 237.390625 172.984375 237.519531 172.9375 237.652344 C 172.910156 237.710938 172.882812 237.773438 172.855469 237.832031 C 172.320312 238.921875 171.738281 239.984375 171.125 241.035156 C 170.949219 241.339844 170.777344 241.640625 170.59375 241.941406 C 170 242.917969 169.363281 243.878906 168.699219 244.816406 C 168.453125 245.164062 168.199219 245.511719 167.941406 245.855469 C 167.28125 246.742188 166.597656 247.617188 165.878906 248.464844 C 165.574219 248.820312 165.25 249.167969 164.9375 249.519531 C 164.351562 250.167969 163.753906 250.800781 163.136719 251.421875 C 162.90625 251.652344 162.6875 251.890625 162.453125 252.117188 C 152.617188 261.640625 139.605469 266.777344 125.984375 266.546875 C 125.257812 266.535156 124.539062 266.5 123.820312 266.460938 C 110.953125 265.722656 99.011719 260.273438 89.988281 250.960938 C 80.464844 241.128906 75.34375 228.179688 75.5625 214.492188 C 75.714844 204.84375 79.015625 194.886719 84.828125 186.261719 C 86.3125 186.300781 87.796875 186.351562 89.28125 186.414062 C 91.207031 186.492188 93.132812 186.59375 95.054688 186.710938 C 95.050781 186.71875 95.042969 186.726562 95.035156 186.734375 C 90.175781 192.589844 86.671875 199.875 85.148438 207.234375 C 85.140625 207.273438 85.132812 207.3125 85.125 207.351562 C 84.886719 208.519531 84.695312 209.691406 84.5625 210.859375 C 84.546875 210.96875 84.539062 211.078125 84.527344 211.191406 C 84.402344 212.34375 84.3125 213.492188 84.296875 214.632812 C 84.257812 217.046875 84.421875 219.445312 84.785156 221.808594 C 85.148438 224.167969 85.707031 226.492188 86.464844 228.761719 C 86.859375 229.941406 87.960938 230.691406 89.140625 230.691406 C 89.4375 230.691406 89.738281 230.644531 90.035156 230.542969 C 90.351562 230.4375 90.632812 230.273438 90.878906 230.078125 C 91.789062 229.359375 92.203125 228.136719 91.816406 226.976562 C 90.503906 223.039062 89.871094 218.914062 89.9375 214.722656 C 90.09375 204.910156 94.902344 194.265625 102.257812 187.246094 C 104.253906 187.421875 106.246094 187.613281 108.242188 187.832031 C 114.332031 188.5 120.402344 189.375 126.449219 190.4375 C 126.4375 190.445312 126.421875 190.449219 126.410156 190.457031 C 125.644531 190.949219 125.15625 191.820312 125.140625 192.800781 L 125.089844 195.835938 C 123.375 196.125 121.78125 196.804688 120.398438 197.777344 C 120.355469 197.808594 120.308594 197.84375 120.265625 197.875 C 119.515625 198.421875 118.824219 199.046875 118.222656 199.753906 C 118.117188 199.878906 118.019531 200.015625 117.921875 200.144531 C 117.796875 200.304688 117.664062 200.460938 117.550781 200.625 C 117.421875 200.8125 117.304688 201.007812 117.1875 201.199219 C 117.109375 201.324219 117.027344 201.441406 116.957031 201.570312 C 116.851562 201.753906 116.761719 201.949219 116.664062 202.144531 C 116.59375 202.289062 116.515625 202.433594 116.449219 202.582031 C 116.382812 202.734375 116.328125 202.894531 116.269531 203.046875 C 116.191406 203.25 116.109375 203.445312 116.042969 203.652344 C 116.011719 203.742188 115.992188 203.835938 115.964844 203.929688 C 115.671875 204.90625 115.5 205.933594 115.480469 207 C 115.476562 207.398438 115.492188 207.792969 115.523438 208.1875 C 115.53125 208.269531 115.546875 208.351562 115.558594 208.433594 C 115.589844 208.730469 115.625 209.023438 115.679688 209.3125 C 115.703125 209.453125 115.742188 209.589844 115.773438 209.730469 C 115.824219 209.957031 115.875 210.1875 115.9375 210.410156 C 115.988281 210.578125 116.050781 210.742188 116.109375 210.90625 C 116.171875 211.09375 116.230469 211.28125 116.300781 211.464844 C 116.386719 211.679688 116.492188 211.890625 116.589844 212.101562 C 116.648438 212.222656 116.699219 212.347656 116.761719 212.464844 C 117.269531 213.453125 117.929688 214.371094 118.722656 215.191406 C 120.863281 217.398438 123.734375 218.644531 126.808594 218.691406 L 128.289062 218.714844 C 129.898438 218.742188 131.347656 219.417969 132.394531 220.511719 C 133.445312 221.609375 134.085938 223.132812 134.058594 224.839844 C 134.035156 226.40625 133.402344 227.871094 132.277344 228.960938 C 131.148438 230.050781 129.65625 230.625 128.097656 230.613281 L 120.574219 230.492188 C 118.960938 230.453125 117.734375 231.710938 117.707031 233.269531 C 117.703125 233.464844 117.722656 233.652344 117.757812 233.839844 C 118 235.128906 119.121094 236.113281 120.484375 236.132812 L 124.449219 236.195312 L 124.445312 236.222656 L 124.351562 242.226562 C 124.351562 242.234375 124.355469 242.242188 124.355469 242.246094 C 124.339844 243.796875 125.578125 245.066406 127.128906 245.089844 C 127.144531 245.09375 127.15625 245.09375 127.171875 245.09375 C 128.710938 245.09375 129.96875 243.859375 129.996094 242.316406 L 130.09375 236.089844 C 130.179688 236.074219 130.273438 236.066406 130.359375 236.050781 C 130.75 235.976562 131.132812 235.886719 131.507812 235.773438 C 131.757812 235.695312 132 235.605469 132.246094 235.515625 C 132.441406 235.441406 132.632812 235.359375 132.824219 235.277344 C 133.253906 235.085938 133.671875 234.871094 134.078125 234.628906 C 134.222656 234.542969 134.367188 234.460938 134.507812 234.367188 C 134.757812 234.203125 135 234.027344 135.238281 233.84375 C 135.371094 233.738281 135.5 233.625 135.628906 233.519531 C 135.820312 233.351562 136.015625 233.191406 136.199219 233.011719 C 138.410156 230.875 139.652344 228 139.703125 224.765625 C 139.710938 224.378906 139.695312 223.996094 139.664062 223.617188 C 139.652344 223.460938 139.625 223.308594 139.605469 223.152344 C 139.578125 222.929688 139.554688 222.707031 139.511719 222.488281 C 139.476562 222.296875 139.425781 222.109375 139.378906 221.917969 C 139.339844 221.742188 139.300781 221.566406 139.253906 221.394531 C 139.191406 221.179688 139.113281 220.976562 139.042969 220.769531 C 138.988281 220.625 138.945312 220.476562 138.890625 220.335938 C 138.789062 220.085938 138.671875 219.84375 138.554688 219.601562 C 138.511719 219.511719 138.476562 219.417969 138.433594 219.332031 C 136.550781 215.679688 132.769531 213.144531 128.378906 213.074219 L 126.898438 213.050781 C 125.332031 213.023438 123.867188 212.390625 122.777344 211.265625 C 122.234375 210.707031 121.820312 210.058594 121.539062 209.359375 C 121.484375 209.226562 121.460938 209.082031 121.417969 208.945312 C 121.347656 208.722656 121.269531 208.5 121.226562 208.269531 C 121.152344 207.882812 121.117188 207.488281 121.125 207.089844 C 121.128906 206.710938 121.179688 206.34375 121.253906 205.984375 C 121.257812 205.976562 121.257812 205.96875 121.257812 205.960938 C 121.332031 205.621094 121.445312 205.292969 121.574219 204.976562 C 121.589844 204.941406 121.59375 204.902344 121.609375 204.871094 C 122.53125 202.746094 124.664062 201.265625 127.085938 201.3125 L 133.726562 201.421875 C 133.742188 201.421875 133.757812 201.421875 133.773438 201.421875 C 135.308594 201.421875 136.566406 200.1875 136.59375 198.644531 C 136.597656 198.457031 136.578125 198.273438 136.546875 198.09375 C 136.3125 196.792969 135.1875 195.800781 133.816406 195.777344 L 130.738281 195.730469 L 130.78125 192.902344 L 130.78125 192.890625 C 130.789062 192.566406 130.726562 192.253906 130.628906 191.960938 C 130.625 191.957031 130.625 191.957031 130.625 191.957031 C 130.527344 191.65625 130.378906 191.382812 130.191406 191.140625 C 130.183594 191.128906 130.175781 191.121094 130.167969 191.109375 C 139.644531 192.910156 149.046875 195.207031 158.347656 197.980469 C 161.347656 202.496094 162.886719 207.617188 163.421875 211.925781 C 163.449219 212.144531 163.460938 212.347656 163.484375 212.5625 C 163.53125 213.035156 163.585938 213.515625 163.613281 213.960938 C 163.652344 214.640625 163.667969 215.289062 163.660156 215.898438 C 163.542969 223.039062 161.390625 229.933594 157.425781 235.835938 C 157.097656 236.328125 156.945312 236.882812 156.949219 237.433594 C 156.957031 238.332031 157.394531 239.210938 158.199219 239.75 C 158.679688 240.074219 159.226562 240.230469 159.769531 240.230469 C 160.675781 240.230469 161.566406 239.792969 162.109375 238.980469 C 166.683594 232.171875 169.167969 224.21875 169.300781 215.988281 C 169.308594 215.335938 169.289062 214.632812 169.25 213.914062 C 169.242188 213.691406 169.222656 213.464844 169.207031 213.238281 C 169.171875 212.757812 169.121094 212.261719 169.066406 211.761719 C 169.027344 211.425781 168.992188 211.097656 168.945312 210.753906 C 168.90625 210.46875 168.847656 210.171875 168.800781 209.882812 C 168.644531 208.925781 168.445312 207.949219 168.207031 206.945312 C 168.179688 206.824219 168.152344 206.703125 168.121094 206.578125 C 167.617188 204.558594 166.9375 202.484375 166.050781 200.417969 C 166.046875 200.410156 166.042969 200.402344 166.039062 200.390625 C 166.53125 200.554688 167.027344 200.707031 167.519531 200.871094 C 170.664062 201.921875 173.777344 203.039062 176.875 204.195312 C 176.976562 204.515625 177.070312 204.863281 177.160156 205.222656 C 177.164062 205.242188 177.171875 205.261719 177.175781 205.28125 Z M 228.347656 223.023438 C 227.757812 222.660156 227.167969 222.289062 226.574219 221.933594 C 224.589844 220.742188 222.589844 219.585938 220.578125 218.441406 C 219.988281 218.105469 219.398438 217.769531 218.808594 217.4375 C 216.703125 216.261719 214.585938 215.113281 212.453125 213.992188 C 212.042969 213.773438 211.625 213.558594 211.210938 213.34375 C 201.207031 208.136719 190.890625 203.488281 180.28125 199.460938 C 180.152344 199.398438 180.023438 199.347656 179.886719 199.304688 C 178.433594 198.757812 176.96875 198.242188 175.507812 197.714844 C 174.613281 197.394531 173.71875 197.078125 172.820312 196.761719 C 171.648438 196.355469 170.492188 195.914062 169.3125 195.519531 C 168.265625 195.171875 167.207031 194.867188 166.15625 194.527344 C 165.59375 194.347656 165.03125 194.175781 164.46875 193.996094 C 163.414062 193.664062 162.355469 193.320312 161.296875 193 C 161.070312 192.898438 160.839844 192.820312 160.597656 192.78125 C 141.40625 187.011719 121.789062 183.285156 101.984375 181.597656 C 101.660156 181.511719 101.328125 181.488281 100.996094 181.519531 C 97.101562 181.199219 93.203125 180.957031 89.296875 180.800781 C 87.9375 180.746094 86.578125 180.652344 85.214844 180.617188 L 103.246094 125.613281 C 103.246094 125.609375 103.246094 125.609375 103.246094 125.609375 C 104.75 121.011719 109.144531 117.980469 113.941406 118.203125 C 139.679688 119.476562 165.238281 124.3125 189.90625 132.574219 C 213.066406 140.328125 235.070312 150.984375 255.304688 164.242188 C 258.535156 166.355469 260.261719 170.039062 260.046875 173.796875 C 259.992188 174.71875 259.855469 175.640625 259.558594 176.550781 L 241.539062 231.535156 C 239.179688 229.90625 236.785156 228.335938 234.375 226.78125 C 234.367188 226.773438 234.351562 226.765625 234.339844 226.757812 C 232.363281 225.480469 230.359375 224.25 228.347656 223.023438 Z M 324.742188 235.667969 C 324.765625 235.667969 324.789062 235.667969 324.8125 235.667969 C 326.929688 235.703125 328.675781 237.25 329.039062 239.265625 L 320.4375 239.339844 C 320.769531 237.253906 322.578125 235.667969 324.742188 235.667969 Z M 335.621094 189.714844 C 338.765625 189.320312 341.328125 187.199219 342.304688 184.183594 C 343.285156 181.167969 342.453125 177.949219 340.136719 175.785156 L 221.078125 64.371094 C 219.484375 62.878906 217.3125 62.082031 215.140625 62.195312 L 39.976562 71.113281 C 36.75 71.277344 34.019531 73.25 32.847656 76.257812 C 31.675781 79.269531 32.359375 82.566406 34.625 84.867188 L 91.675781 142.789062 L 78.667969 182.484375 C 78.402344 183.292969 78.527344 184.167969 78.984375 184.882812 C 73.289062 193.988281 70.082031 204.332031 69.921875 214.402344 C 69.675781 229.59375 75.367188 243.972656 85.9375 254.886719 C 93.050781 262.234375 101.808594 267.40625 111.40625 270.085938 L 45.070312 269.027344 C 45.050781 269.027344 45.039062 269.027344 45.023438 269.027344 C 43.484375 269.027344 42.226562 270.261719 42.203125 271.800781 L 41.917969 289.515625 C 41.90625 290.265625 42.191406 290.988281 42.714844 291.523438 C 43.234375 292.0625 43.949219 292.371094 44.699219 292.382812 L 53.558594 292.515625 C 53.5625 292.515625 53.570312 292.515625 53.574219 292.515625 L 60.46875 292.617188 L 60.242188 306.804688 C 60.230469 307.554688 60.515625 308.277344 61.039062 308.8125 C 61.558594 309.351562 62.269531 309.660156 63.015625 309.671875 L 162.191406 311.253906 L 259.1875 312.800781 C 259.203125 312.800781 259.21875 312.800781 259.234375 312.800781 C 260.769531 312.800781 262.027344 311.570312 262.054688 310.027344 L 262.289062 295.308594 L 278.082031 295.472656 C 278.089844 295.472656 278.097656 295.472656 278.109375 295.472656 C 279.648438 295.472656 280.902344 294.238281 280.929688 292.695312 L 281.164062 277.894531 L 282.078125 277.90625 C 282.089844 277.90625 282.101562 277.90625 282.109375 277.90625 C 283.648438 277.90625 284.90625 276.671875 284.929688 275.128906 L 285.203125 258.050781 C 285.226562 256.492188 283.984375 255.210938 282.429688 255.183594 L 268.429688 254.941406 L 268.664062 240.15625 C 268.6875 238.597656 267.449219 237.316406 265.890625 237.289062 L 245.6875 236.96875 C 245.695312 236.945312 245.710938 236.925781 245.71875 236.898438 L 257.980469 199.492188 L 322.671875 191.34375 L 322.046875 230.445312 C 317.902344 231.613281 314.8125 235.351562 314.738281 239.871094 L 314.703125 242.027344 L 310.269531 283.746094 C 310.199219 284.394531 310.367188 285.007812 310.6875 285.523438 C 311.128906 286.238281 311.875 286.753906 312.777344 286.851562 C 312.878906 286.859375 312.980469 286.867188 313.078125 286.867188 C 314.503906 286.867188 315.726562 285.792969 315.878906 284.34375 L 319.460938 250.65625 L 320.0625 244.984375 L 321.8125 244.96875 L 321.046875 292.910156 C 321.042969 293.148438 321.082031 293.375 321.132812 293.597656 C 321.417969 294.824219 322.503906 295.753906 323.824219 295.773438 C 323.839844 295.777344 323.855469 295.777344 323.867188 295.777344 C 325.40625 295.777344 326.664062 294.539062 326.691406 293 L 327.371094 250.589844 L 327.457031 244.917969 L 329.273438 244.902344 L 329.6875 250.570312 L 332.1875 284.601562 C 332.292969 286.085938 333.53125 287.21875 334.996094 287.21875 C 335.066406 287.21875 335.136719 287.214844 335.207031 287.210938 C 336.230469 287.132812 337.074219 286.515625 337.507812 285.664062 C 337.734375 285.222656 337.851562 284.71875 337.8125 284.1875 L 334.714844 241.980469 L 334.746094 240.191406 C 334.816406 235.652344 331.820312 231.804688 327.691406 230.519531 C 327.691406 230.519531 327.691406 230.519531 327.6875 230.519531 L 328.324219 190.660156 L 328.324219 190.632812 L 335.621094 189.714844 " fill-opacity="1" fill-rule="nonzero"/></g><path fill="#092135" d="M 192.285156 147.992188 C 210.894531 154.222656 228.570312 162.78125 244.828125 173.433594 C 245.304688 173.746094 245.839844 173.894531 246.371094 173.894531 C 247.289062 173.894531 248.191406 173.445312 248.734375 172.621094 C 249.054688 172.128906 249.203125 171.578125 249.195312 171.039062 C 249.183594 170.132812 248.734375 169.25 247.921875 168.714844 C 231.257812 157.796875 213.144531 149.023438 194.078125 142.640625 C 192.585938 142.144531 191 142.945312 190.507812 144.421875 C 190.378906 144.792969 190.339844 145.175781 190.371094 145.542969 C 190.460938 146.636719 191.183594 147.621094 192.285156 147.992188 " fill-opacity="1" fill-rule="nonzero"/></svg>