<svg xmlns="http://www.w3.org/2000/svg" xmlns:xlink="http://www.w3.org/1999/xlink" width="500" zoomAndPan="magnify" viewBox="0 0 375 374.999991" height="500" preserveAspectRatio="xMidYMid meet" version="1.0"><path fill="#19598f" d="M 352.019531 299.136719 C 352.019531 302.375 349.378906 305.011719 346.144531 305.011719 L 340.265625 305.011719 C 333.792969 305.011719 328.515625 310.292969 328.515625 316.765625 L 328.515625 352.019531 L 270.585938 308.570312 C 267.578125 306.273438 263.789062 305.011719 259.957031 305.011719 L 211.597656 305.011719 C 218.667969 290.828125 222.753906 274.898438 222.753906 258.007812 C 222.753906 232.898438 213.917969 209.832031 199.25 191.675781 L 199.25 169.871094 C 199.25 166.636719 201.890625 163.996094 205.125 163.996094 L 346.144531 163.996094 C 349.378906 163.996094 352.019531 166.636719 352.019531 169.871094 Z M 186.007812 23.160156 C 186.96875 22.910156 188.003906 22.910156 188.96875 23.160156 L 316.765625 56.625 L 316.765625 83.730469 L 280.980469 101.816406 C 275.792969 84.03125 230.144531 75.859375 187.5 75.859375 C 144.851562 75.859375 99.203125 84.03125 94.015625 101.816406 L 23.070312 65.945312 Z M 328.515625 77.789062 L 328.515625 59.722656 L 352.0625 65.875 Z M 105.238281 142.878906 L 105.238281 105.238281 C 105.238281 99.960938 133.214844 87.609375 187.5 87.609375 C 241.78125 87.609375 269.757812 99.960938 269.757812 105.238281 L 269.757812 142.878906 C 252.589844 133.238281 219.195312 128.742188 187.5 128.742188 C 155.800781 128.742188 122.40625 133.238281 105.238281 142.878906 Z M 187.5 169.871094 L 187.5 179.394531 C 168.769531 162.574219 144.097656 152.242188 116.988281 152.242188 C 115.222656 152.242188 113.5 152.425781 111.734375 152.496094 C 122.84375 146.941406 148.273438 140.492188 187.5 140.492188 C 226.105469 140.492188 251.328125 146.734375 262.710938 152.242188 L 205.125 152.242188 C 195.394531 152.242188 187.5 160.140625 187.5 169.871094 Z M 198.953125 252.132812 C 197.644531 233.882812 190.390625 217.265625 179.097656 204.207031 L 187.382812 195.921875 C 200.808594 211.117188 209.371094 230.648438 210.703125 252.132812 Z M 122.863281 339.96875 C 141.113281 338.683594 157.730469 331.40625 170.789062 320.113281 L 179.074219 328.402344 C 163.878906 341.828125 144.347656 350.390625 122.863281 351.71875 Z M 63.191406 320.113281 C 76.25 331.40625 92.867188 338.683594 111.113281 339.96875 L 111.113281 351.71875 C 89.628906 350.390625 70.097656 341.828125 54.902344 328.402344 Z M 99.636719 165.671875 C 99.660156 165.671875 99.707031 165.671875 99.730469 165.671875 C 100.328125 165.671875 100.921875 165.578125 101.496094 165.394531 C 101.519531 165.394531 101.519531 165.371094 101.519531 165.371094 C 104.6875 164.867188 107.878906 164.5 111.113281 164.292969 L 111.113281 176.046875 C 92.867188 177.351562 76.25 184.605469 63.191406 195.898438 L 54.902344 187.613281 C 67.34375 176.617188 82.675781 168.859375 99.636719 165.671875 Z M 116.988281 328.515625 C 78.109375 328.515625 46.480469 296.886719 46.480469 258.007812 C 46.480469 219.125 78.109375 187.5 116.988281 187.5 C 155.871094 187.5 187.5 219.125 187.5 258.007812 C 187.5 296.886719 155.871094 328.515625 116.988281 328.515625 Z M 179.074219 187.613281 L 170.789062 195.898438 C 157.730469 184.605469 141.113281 177.351562 122.863281 176.046875 L 122.863281 164.292969 C 144.347656 165.625 163.878906 174.1875 179.074219 187.613281 Z M 46.59375 195.921875 L 54.882812 204.207031 C 43.589844 217.265625 36.3125 233.882812 35.027344 252.132812 L 23.277344 252.132812 C 24.609375 230.648438 33.167969 211.117188 46.59375 195.921875 Z M 23.277344 263.882812 L 35.027344 263.882812 C 36.3125 282.128906 43.589844 298.746094 54.882812 311.804688 L 46.59375 320.09375 C 33.167969 304.898438 24.609375 285.367188 23.277344 263.882812 Z M 187.382812 320.09375 L 179.097656 311.804688 C 190.390625 298.746094 197.644531 282.128906 198.953125 263.882812 L 210.703125 263.882812 C 209.371094 285.367188 200.808594 304.898438 187.382812 320.09375 Z M 322.640625 128.742188 C 319.402344 128.742188 316.765625 126.101562 316.765625 122.863281 C 316.765625 119.628906 319.402344 116.988281 322.640625 116.988281 C 325.875 116.988281 328.515625 119.628906 328.515625 122.863281 C 328.515625 126.101562 325.875 128.742188 322.640625 128.742188 Z M 346.144531 152.242188 L 281.511719 152.242188 L 281.511719 114.71875 L 316.765625 96.90625 L 316.765625 106.316406 C 309.949219 108.75 305.011719 115.222656 305.011719 122.863281 C 305.011719 132.597656 312.910156 140.492188 322.640625 140.492188 C 332.371094 140.492188 340.265625 132.597656 340.265625 122.863281 C 340.265625 115.222656 335.332031 108.75 328.515625 106.316406 L 328.515625 90.960938 L 357.414062 76.339844 C 361.773438 74.070312 364.253906 69.480469 363.699219 64.636719 C 363.148438 59.769531 359.683594 55.820312 354.910156 54.582031 L 191.929688 11.800781 C 189.035156 11.042969 185.960938 11.042969 183.046875 11.800781 L 20.085938 54.582031 C 15.289062 55.820312 11.847656 59.769531 11.296875 64.636719 C 10.765625 69.480469 13.222656 74.070312 17.652344 76.363281 L 93.488281 114.71875 L 93.488281 154.976562 C 73.863281 159.449219 56.28125 169.320312 42.464844 183.046875 C 42.394531 183.113281 42.28125 183.160156 42.210938 183.230469 C 42.144531 183.296875 42.097656 183.414062 42.027344 183.480469 C 23 202.625 11.226562 228.949219 11.226562 258.007812 C 11.226562 287.0625 23 313.390625 42.027344 332.53125 C 42.097656 332.601562 42.144531 332.714844 42.210938 332.785156 C 42.28125 332.855469 42.394531 332.898438 42.464844 332.96875 C 61.605469 351.996094 87.933594 363.769531 116.988281 363.769531 C 146.046875 363.769531 172.371094 351.996094 191.515625 332.96875 C 191.582031 332.898438 191.699219 332.855469 191.765625 332.785156 C 191.835938 332.714844 191.882812 332.601562 191.949219 332.53125 C 196.746094 327.710938 201.0625 322.433594 204.871094 316.765625 L 259.957031 316.765625 C 261.242188 316.765625 262.460938 317.15625 263.46875 317.933594 L 321.492188 361.429688 C 323.558594 362.964844 326.015625 363.769531 328.492188 363.769531 C 330.28125 363.769531 332.097656 363.355469 333.792969 362.507812 C 337.789062 360.488281 340.265625 356.472656 340.265625 352.019531 L 340.265625 316.765625 L 346.144531 316.765625 C 355.875 316.765625 363.769531 308.867188 363.769531 299.136719 L 363.769531 169.871094 C 363.769531 160.140625 355.875 152.242188 346.144531 152.242188 " fill-opacity="1" fill-rule="nonzero"/><path fill="#19598f" d="M 134.617188 281.511719 C 134.617188 289.152344 129.683594 295.625 122.863281 298.058594 L 122.863281 264.960938 C 129.683594 267.394531 134.617188 273.867188 134.617188 281.511719 Z M 99.363281 234.503906 C 99.363281 226.859375 104.296875 220.386719 111.113281 217.957031 L 111.113281 251.050781 C 104.296875 248.621094 99.363281 242.148438 99.363281 234.503906 Z M 134.617188 234.503906 C 134.617188 237.742188 137.257812 240.378906 140.492188 240.378906 C 143.730469 240.378906 146.367188 237.742188 146.367188 234.503906 C 146.367188 220.320312 136.269531 208.453125 122.863281 205.722656 L 122.863281 205.125 C 122.863281 201.890625 120.226562 199.25 116.988281 199.25 C 113.753906 199.25 111.113281 201.890625 111.113281 205.125 L 111.113281 205.722656 C 97.710938 208.453125 87.609375 220.320312 87.609375 234.503906 C 87.609375 248.6875 97.710938 260.554688 111.113281 263.285156 L 111.113281 298.058594 C 104.296875 295.625 99.363281 289.152344 99.363281 281.511719 C 99.363281 278.273438 96.722656 275.632812 93.488281 275.632812 C 90.25 275.632812 87.609375 278.273438 87.609375 281.511719 C 87.609375 295.695312 97.710938 307.558594 111.113281 310.292969 L 111.113281 310.886719 C 111.113281 314.125 113.753906 316.765625 116.988281 316.765625 C 120.226562 316.765625 122.863281 314.125 122.863281 310.886719 L 122.863281 310.292969 C 136.269531 307.558594 146.367188 295.695312 146.367188 281.511719 C 146.367188 267.324219 136.269531 255.460938 122.863281 252.726562 L 122.863281 217.957031 C 129.683594 220.386719 134.617188 226.859375 134.617188 234.503906 " fill-opacity="1" fill-rule="nonzero"/><path fill="#19598f" d="M 328.515625 181.621094 L 222.753906 181.621094 C 219.515625 181.621094 216.875 184.261719 216.875 187.5 C 216.875 190.734375 219.515625 193.375 222.753906 193.375 L 328.515625 193.375 C 331.75 193.375 334.390625 190.734375 334.390625 187.5 C 334.390625 184.261719 331.75 181.621094 328.515625 181.621094 " fill-opacity="1" fill-rule="nonzero"/><path fill="#19598f" d="M 328.515625 228.628906 L 240.378906 228.628906 C 237.144531 228.628906 234.503906 231.269531 234.503906 234.503906 C 234.503906 237.742188 237.144531 240.378906 240.378906 240.378906 L 328.515625 240.378906 C 331.75 240.378906 334.390625 237.742188 334.390625 234.503906 C 334.390625 231.269531 331.75 228.628906 328.515625 228.628906 " fill-opacity="1" fill-rule="nonzero"/><path fill="#19598f" d="M 293.261719 275.632812 L 240.378906 275.632812 C 237.144531 275.632812 234.503906 278.273438 234.503906 281.511719 C 234.503906 284.746094 237.144531 287.386719 240.378906 287.386719 L 293.261719 287.386719 C 296.496094 287.386719 299.136719 284.746094 299.136719 281.511719 C 299.136719 278.273438 296.496094 275.632812 293.261719 275.632812 " fill-opacity="1" fill-rule="nonzero"/><path fill="#19598f" d="M 328.515625 205.125 L 322.640625 205.125 C 319.402344 205.125 316.765625 207.765625 316.765625 211 C 316.765625 214.238281 319.402344 216.875 322.640625 216.875 L 328.515625 216.875 C 331.75 216.875 334.390625 214.238281 334.390625 211 C 334.390625 207.765625 331.75 205.125 328.515625 205.125 " fill-opacity="1" fill-rule="nonzero"/><path fill="#19598f" d="M 299.136719 216.875 C 302.375 216.875 305.011719 214.238281 305.011719 211 C 305.011719 207.765625 302.375 205.125 299.136719 205.125 L 234.503906 205.125 C 231.269531 205.125 228.628906 207.765625 228.628906 211 C 228.628906 214.238281 231.269531 216.875 234.503906 216.875 L 299.136719 216.875 " fill-opacity="1" fill-rule="nonzero"/><path fill="#19598f" d="M 240.378906 263.882812 L 246.253906 263.882812 C 249.492188 263.882812 252.132812 261.242188 252.132812 258.007812 C 252.132812 254.769531 249.492188 252.132812 246.253906 252.132812 L 240.378906 252.132812 C 237.144531 252.132812 234.503906 254.769531 234.503906 258.007812 C 234.503906 261.242188 237.144531 263.882812 240.378906 263.882812 " fill-opacity="1" fill-rule="nonzero"/><path fill="#19598f" d="M 328.515625 252.132812 L 269.757812 252.132812 C 266.523438 252.132812 263.882812 254.769531 263.882812 258.007812 C 263.882812 261.242188 266.523438 263.882812 269.757812 263.882812 L 328.515625 263.882812 C 331.75 263.882812 334.390625 261.242188 334.390625 258.007812 C 334.390625 254.769531 331.75 252.132812 328.515625 252.132812 " fill-opacity="1" fill-rule="nonzero"/></svg>