<svg xmlns="http://www.w3.org/2000/svg" xmlns:xlink="http://www.w3.org/1999/xlink" width="500" zoomAndPan="magnify" viewBox="0 0 375 374.999991" height="500" preserveAspectRatio="xMidYMid meet" version="1.0"><defs><clipPath id="101e609cf0"><path d="M 25.164062 25.164062 L 349.914062 25.164062 L 349.914062 349.914062 L 25.164062 349.914062 Z M 25.164062 25.164062 " clip-rule="nonzero"/></clipPath></defs><g clip-path="url(#101e609cf0)"><path fill="#ffc107" d="M 349.832031 187.496094 C 349.832031 277.152344 277.152344 349.832031 187.496094 349.832031 C 97.839844 349.832031 25.160156 277.152344 25.160156 187.496094 C 25.160156 97.839844 97.839844 25.160156 187.496094 25.160156 C 277.152344 25.160156 349.832031 97.839844 349.832031 187.496094 " fill-opacity="1" fill-rule="nonzero"/></g><path fill="#ffffff" d="M 221.554688 179.246094 C 223.328125 179.1875 225.125 179.203125 226.933594 179.289062 C 227.957031 179.363281 228.757812 178.167969 228.519531 176.585938 C 226.910156 164.402344 215.914062 153.40625 203.730469 151.796875 C 202.148438 151.558594 200.953125 152.359375 201.027344 153.382812 C 201.113281 155.191406 201.128906 156.988281 201.070312 158.761719 C 201.058594 159.769531 201.867188 160.625 202.902344 160.804688 C 211.097656 162.078125 218.238281 169.21875 219.511719 177.414062 C 219.691406 178.449219 220.546875 179.257812 221.554688 179.246094 Z M 245.410156 180.609375 C 247.183594 180.589844 248.964844 180.609375 250.753906 180.660156 C 251.765625 180.699219 252.570312 179.695312 252.472656 178.402344 C 251.183594 152.816406 227.5 129.132812 201.914062 127.84375 C 200.621094 127.746094 199.617188 128.546875 199.65625 129.5625 C 199.707031 131.351562 199.722656 133.132812 199.707031 134.90625 C 199.703125 135.914062 200.550781 136.75 201.609375 136.84375 C 222.878906 138.164062 242.152344 157.4375 243.472656 178.707031 C 243.5625 179.765625 244.402344 180.613281 245.410156 180.609375 Z M 266.488281 178.726562 C 268.25 179.007812 270.015625 179.324219 271.785156 179.683594 C 272.789062 179.898438 273.726562 179.050781 273.824219 177.765625 C 275.421875 159.628906 267.875 139.808594 254.089844 126.226562 C 240.507812 112.4375 220.6875 104.890625 202.550781 106.488281 C 201.265625 106.589844 200.421875 107.527344 200.632812 108.527344 C 200.992188 110.296875 201.308594 112.066406 201.585938 113.828125 C 201.753906 114.828125 202.75 115.539062 203.839844 115.46875 C 236.074219 112.050781 268.265625 144.242188 264.847656 176.476562 C 264.777344 177.566406 265.488281 178.5625 266.488281 178.726562 Z M 151.347656 108.882812 L 170.179688 131.542969 C 184.652344 146.015625 152.007812 171.789062 151.933594 171.867188 C 149.925781 173.871094 162.832031 190.03125 176.039062 203.238281 C 189.246094 216.445312 205.402344 229.351562 207.410156 227.34375 C 207.488281 227.269531 233.261719 194.621094 247.734375 209.09375 L 270.394531 227.929688 C 288.085938 248.230469 239.992188 311.585938 155.125 226.71875 C 154.703125 226.296875 154.273438 225.867188 153.84375 225.433594 C 153.410156 225.003906 152.980469 224.574219 152.554688 224.148438 C 67.691406 139.285156 131.046875 91.191406 151.347656 108.882812 " fill-opacity="1" fill-rule="nonzero"/></svg>