<svg xmlns="http://www.w3.org/2000/svg" xmlns:xlink="http://www.w3.org/1999/xlink" width="500" zoomAndPan="magnify" viewBox="0 0 375 374.999991" height="500" preserveAspectRatio="xMidYMid meet" version="1.0"><defs><clipPath id="68f2987842"><path d="M 24.203125 144.128906 L 355.054688 144.128906 L 355.054688 217.453125 L 24.203125 217.453125 Z M 24.203125 144.128906 " clip-rule="nonzero"/></clipPath><clipPath id="dfa54bae6c"><path d="M 19.804688 145 L 169 145 L 169 351 L 19.804688 351 Z M 19.804688 145 " clip-rule="nonzero"/></clipPath><clipPath id="c624c20172"><path d="M 210.449219 146.328125 L 355.054688 146.328125 L 355.054688 348.707031 L 210.449219 348.707031 Z M 210.449219 146.328125 " clip-rule="nonzero"/></clipPath><clipPath id="e2517a8551"><path d="M 27.136719 196.1875 L 349.769531 196.1875 L 349.769531 356.105469 L 27.136719 356.105469 Z M 27.136719 196.1875 " clip-rule="nonzero"/></clipPath><clipPath id="d579505672"><path d="M 27.136719 204 L 349.769531 204 L 349.769531 356.105469 L 27.136719 356.105469 Z M 27.136719 204 " clip-rule="nonzero"/></clipPath></defs><path fill="#fa9a23" d="M 351.90625 136.933594 C 350.910156 135.894531 349.691406 134.820312 348.234375 133.71875 L 338.773438 126.554688 L 207.449219 27.164062 C 196.480469 18.863281 178.535156 18.863281 167.5625 27.164062 L 36.242188 126.554688 L 26.777344 133.71875 C 25.320312 134.820312 24.105469 135.894531 23.113281 136.933594 C 21.703125 139.285156 20.703125 141.894531 20.195312 144.683594 C 21.324219 147.234375 25.296875 148.804688 31.929688 148.804688 L 343.085938 148.804688 C 349.722656 148.804688 353.691406 147.234375 354.820312 144.683594 C 354.316406 141.894531 353.308594 139.285156 351.90625 136.933594 " fill-opacity="1" fill-rule="nonzero"/><g clip-path="url(#68f2987842)"><path fill="#fa9a23" d="M 355.105469 146.71875 C 355.042969 146.03125 354.9375 145.355469 354.820312 144.683594 C 353.691406 147.234375 349.722656 148.804688 343.085938 148.804688 L 31.929688 148.804688 C 29.082031 148.804688 26.726562 148.519531 24.878906 147.984375 L 190.910156 217.355469 L 355.105469 146.71875 " fill-opacity="1" fill-rule="nonzero"/></g><path fill="#19598f" d="M 315.132812 254.238281 C 315.132812 261.953125 308.878906 268.214844 301.160156 268.214844 L 68.238281 268.214844 C 60.515625 268.214844 54.261719 261.953125 54.261719 254.238281 L 54.261719 62.082031 C 54.261719 54.363281 60.515625 48.105469 68.238281 48.105469 L 301.160156 48.105469 C 308.878906 48.105469 315.132812 54.363281 315.132812 62.082031 L 315.132812 254.238281 " fill-opacity="1" fill-rule="nonzero"/><path fill="#ffffff" d="M 204.441406 131.171875 C 202.601562 130.71875 200.078125 130.257812 197.328125 130.257812 C 182.1875 130.257812 170.257812 145.167969 170.257812 162.832031 C 170.257812 171.550781 174.15625 177.054688 181.726562 177.054688 C 190.21875 177.054688 199.160156 166.273438 201.226562 152.96875 Z M 224.851562 225.914062 C 211.089844 232.109375 199.160156 234.179688 182.644531 234.179688 C 144.5625 234.179688 111.070312 206.871094 111.070312 161.917969 C 111.070312 115.117188 145.253906 74.515625 196.867188 74.515625 C 237.46875 74.515625 266.371094 102.273438 266.371094 140.808594 C 266.371094 174.53125 247.5625 195.632812 222.789062 195.632812 C 212.007812 195.632812 204.210938 189.902344 203.0625 177.972656 L 202.601562 177.972656 C 195.261719 189.441406 185.164062 195.632812 172.777344 195.632812 C 158.101562 195.632812 147.085938 184.398438 147.085938 165.585938 C 147.085938 137.367188 167.964844 112.132812 200.992188 112.132812 C 211.089844 112.132812 222.558594 114.65625 228.292969 117.644531 L 221.414062 160.304688 C 219.117188 173.84375 220.726562 180.039062 227.148438 180.265625 C 237.015625 180.726562 249.398438 168.109375 249.398438 141.5 C 249.398438 111.449219 230.128906 88.511719 194.578125 88.511719 C 159.246094 88.511719 128.734375 115.808594 128.734375 159.851562 C 128.734375 198.386719 153.054688 219.953125 187.234375 219.953125 C 198.933594 219.953125 211.546875 217.429688 220.726562 212.84375 L 224.851562 225.914062 " fill-opacity="1" fill-rule="nonzero"/><g clip-path="url(#dfa54bae6c)"><path fill="#ffc107" d="M 24.878906 147.984375 C 23.886719 147.695312 23.042969 147.34375 22.339844 146.921875 L 20.015625 145.953125 C 19.894531 146.890625 19.804688 147.835938 19.804688 148.804688 L 19.804688 332.816406 C 19.804688 339.769531 22.910156 346.023438 27.789062 350.300781 L 168.011719 207.789062 L 24.878906 147.984375 " fill-opacity="1" fill-rule="nonzero"/></g><g clip-path="url(#c624c20172)"><path fill="#ffc107" d="M 355.207031 332.816406 L 355.207031 148.804688 C 355.207031 148.105469 355.167969 147.40625 355.105469 146.71875 L 210.761719 208.820312 L 349.28125 348.257812 C 352.953125 344.132812 355.207031 338.734375 355.207031 332.816406 " fill-opacity="1" fill-rule="nonzero"/></g><g clip-path="url(#e2517a8551)"><path fill="#fa9a23" d="M 210.761719 208.820312 L 205.1875 203.222656 C 196.164062 194.128906 181.421875 194.160156 172.4375 203.296875 L 168.011719 207.789062 L 27.789062 350.300781 C 31.894531 353.902344 37.242188 356.105469 43.097656 356.105469 L 331.914062 356.105469 C 338.808594 356.105469 345.015625 353.046875 349.28125 348.257812 L 210.761719 208.820312 " fill-opacity="1" fill-rule="nonzero"/></g><g clip-path="url(#d579505672)"><path fill="#ffc107" d="M 210.761719 215.984375 L 205.1875 210.648438 C 196.164062 202 181.421875 202.039062 172.4375 210.722656 L 168.011719 215 L 27.789062 350.585938 C 31.894531 354.003906 37.242188 356.105469 43.097656 356.105469 L 331.914062 356.105469 C 338.808594 356.105469 345.015625 353.195312 349.28125 348.632812 L 210.761719 215.984375 " fill-opacity="1" fill-rule="nonzero"/></g></svg>