<svg xmlns="http://www.w3.org/2000/svg" xmlns:xlink="http://www.w3.org/1999/xlink" width="500" zoomAndPan="magnify" viewBox="0 0 375 374.999991" height="500" preserveAspectRatio="xMidYMid meet" version="1.0"><defs><clipPath id="5e384a89b7"><path d="M 60.9375 18.75 L 314.4375 18.75 L 314.4375 356.25 L 60.9375 356.25 Z M 60.9375 18.75 " clip-rule="nonzero"/></clipPath></defs><g clip-path="url(#5e384a89b7)"><path fill="#ffc107" d="M 187.6875 18.75 C 117.785156 18.75 60.9375 75.511719 60.9375 145.3125 C 60.9375 233.042969 175.351562 348.296875 180.210938 353.171875 C 182.28125 355.214844 184.984375 356.25 187.6875 356.25 C 190.390625 356.25 193.09375 355.214844 195.164062 353.171875 C 200.023438 348.296875 314.4375 233.042969 314.4375 145.3125 C 314.4375 75.511719 257.589844 18.75 187.6875 18.75 Z M 187.6875 18.75 " fill-opacity="1" fill-rule="nonzero"/></g><path fill="#fafafa" d="M 251.0625 145.3125 C 251.0625 146.347656 251.035156 147.382812 250.984375 148.417969 C 250.933594 149.453125 250.859375 150.484375 250.757812 151.515625 C 250.65625 152.546875 250.527344 153.574219 250.375 154.597656 C 250.222656 155.621094 250.046875 156.640625 249.84375 157.65625 C 249.640625 158.671875 249.414062 159.683594 249.164062 160.6875 C 248.910156 161.691406 248.632812 162.691406 248.332031 163.683594 C 248.03125 164.671875 247.707031 165.65625 247.359375 166.632812 C 247.007812 167.605469 246.636719 168.574219 246.238281 169.527344 C 245.839844 170.484375 245.421875 171.433594 244.976562 172.367188 C 244.535156 173.304688 244.066406 174.230469 243.578125 175.144531 C 243.089844 176.054688 242.578125 176.957031 242.046875 177.84375 C 241.511719 178.734375 240.957031 179.609375 240.382812 180.46875 C 239.804688 181.332031 239.207031 182.175781 238.589844 183.007812 C 237.972656 183.839844 237.335938 184.65625 236.675781 185.457031 C 236.019531 186.257812 235.339844 187.042969 234.644531 187.808594 C 233.949219 188.578125 233.234375 189.328125 232.5 190.058594 C 231.765625 190.792969 231.015625 191.503906 230.246094 192.199219 C 229.480469 192.894531 228.695312 193.574219 227.890625 194.230469 C 227.089844 194.886719 226.273438 195.523438 225.441406 196.140625 C 224.605469 196.757812 223.757812 197.351562 222.898438 197.929688 C 222.035156 198.503906 221.160156 199.058594 220.269531 199.589844 C 219.378906 200.121094 218.476562 200.632812 217.5625 201.121094 C 216.648438 201.609375 215.722656 202.074219 214.785156 202.519531 C 213.847656 202.960938 212.898438 203.378906 211.941406 203.777344 C 210.980469 204.171875 210.015625 204.546875 209.039062 204.894531 C 208.0625 205.242188 207.078125 205.566406 206.085938 205.867188 C 205.089844 206.167969 204.09375 206.445312 203.085938 206.699219 C 202.082031 206.949219 201.070312 207.175781 200.050781 207.378906 C 199.035156 207.578125 198.011719 207.757812 196.988281 207.910156 C 195.960938 208.0625 194.929688 208.1875 193.898438 208.289062 C 192.867188 208.390625 191.832031 208.464844 190.796875 208.515625 C 189.761719 208.566406 188.726562 208.59375 187.6875 208.59375 C 186.648438 208.59375 185.613281 208.566406 184.578125 208.515625 C 183.542969 208.464844 182.507812 208.390625 181.476562 208.289062 C 180.445312 208.1875 179.414062 208.0625 178.386719 207.910156 C 177.363281 207.757812 176.339844 207.578125 175.324219 207.378906 C 174.304688 207.175781 173.292969 206.949219 172.289062 206.699219 C 171.28125 206.445312 170.28125 206.167969 169.289062 205.867188 C 168.296875 205.566406 167.3125 205.242188 166.335938 204.894531 C 165.359375 204.546875 164.394531 204.171875 163.433594 203.777344 C 162.476562 203.378906 161.527344 202.960938 160.589844 202.519531 C 159.652344 202.074219 158.726562 201.609375 157.8125 201.121094 C 156.898438 200.632812 155.996094 200.121094 155.105469 199.589844 C 154.214844 199.058594 153.339844 198.503906 152.476562 197.929688 C 151.617188 197.351562 150.769531 196.757812 149.933594 196.140625 C 149.101562 195.523438 148.285156 194.886719 147.484375 194.230469 C 146.679688 193.574219 145.894531 192.894531 145.128906 192.199219 C 144.359375 191.503906 143.609375 190.792969 142.875 190.058594 C 142.140625 189.328125 141.425781 188.578125 140.730469 187.808594 C 140.03125 187.042969 139.355469 186.257812 138.699219 185.457031 C 138.039062 184.65625 137.402344 183.839844 136.785156 183.007812 C 136.167969 182.175781 135.570312 181.332031 134.992188 180.46875 C 134.417969 179.609375 133.863281 178.734375 133.328125 177.84375 C 132.796875 176.957031 132.285156 176.054688 131.796875 175.144531 C 131.308594 174.230469 130.839844 173.304688 130.398438 172.367188 C 129.953125 171.433594 129.535156 170.484375 129.136719 169.527344 C 128.738281 168.574219 128.367188 167.605469 128.015625 166.632812 C 127.667969 165.65625 127.34375 164.671875 127.042969 163.683594 C 126.742188 162.691406 126.464844 161.691406 126.210938 160.6875 C 125.960938 159.683594 125.734375 158.671875 125.53125 157.65625 C 125.328125 156.640625 125.152344 155.621094 125 154.597656 C 124.847656 153.574219 124.71875 152.546875 124.617188 151.515625 C 124.515625 150.484375 124.441406 149.453125 124.390625 148.417969 C 124.339844 147.382812 124.3125 146.347656 124.3125 145.3125 C 124.3125 144.277344 124.339844 143.242188 124.390625 142.207031 C 124.441406 141.171875 124.515625 140.140625 124.617188 139.109375 C 124.71875 138.078125 124.847656 137.050781 125 136.027344 C 125.152344 135.003906 125.328125 133.984375 125.53125 132.96875 C 125.734375 131.953125 125.960938 130.941406 126.210938 129.9375 C 126.464844 128.933594 126.742188 127.933594 127.042969 126.941406 C 127.34375 125.953125 127.667969 124.96875 128.015625 123.992188 C 128.367188 123.019531 128.738281 122.050781 129.136719 121.097656 C 129.535156 120.140625 129.953125 119.191406 130.398438 118.257812 C 130.839844 117.320312 131.308594 116.394531 131.796875 115.480469 C 132.285156 114.570312 132.796875 113.667969 133.328125 112.78125 C 133.863281 111.890625 134.417969 111.015625 134.992188 110.15625 C 135.570312 109.292969 136.167969 108.449219 136.785156 107.617188 C 137.402344 106.785156 138.039062 105.96875 138.699219 105.167969 C 139.355469 104.367188 140.03125 103.582031 140.730469 102.816406 C 141.425781 102.046875 142.140625 101.296875 142.875 100.566406 C 143.609375 99.832031 144.359375 99.121094 145.128906 98.425781 C 145.894531 97.730469 146.679688 97.050781 147.484375 96.394531 C 148.285156 95.738281 149.101562 95.101562 149.933594 94.484375 C 150.769531 93.867188 151.617188 93.269531 152.476562 92.695312 C 153.339844 92.121094 154.214844 91.566406 155.105469 91.035156 C 155.996094 90.5 156.898438 89.992188 157.8125 89.503906 C 158.726562 89.015625 159.652344 88.550781 160.589844 88.105469 C 161.527344 87.664062 162.476562 87.246094 163.433594 86.847656 C 164.394531 86.453125 165.359375 86.078125 166.335938 85.730469 C 167.3125 85.382812 168.296875 85.058594 169.289062 84.757812 C 170.28125 84.457031 171.28125 84.179688 172.289062 83.925781 C 173.292969 83.675781 174.304688 83.449219 175.324219 83.246094 C 176.339844 83.046875 177.363281 82.867188 178.386719 82.714844 C 179.414062 82.5625 180.445312 82.4375 181.476562 82.335938 C 182.507812 82.234375 183.542969 82.160156 184.578125 82.109375 C 185.613281 82.058594 186.648438 82.03125 187.6875 82.03125 C 188.726562 82.03125 189.761719 82.058594 190.796875 82.109375 C 191.832031 82.160156 192.867188 82.234375 193.898438 82.335938 C 194.929688 82.4375 195.960938 82.5625 196.988281 82.714844 C 198.011719 82.867188 199.035156 83.046875 200.050781 83.246094 C 201.070312 83.449219 202.082031 83.675781 203.085938 83.925781 C 204.09375 84.179688 205.089844 84.457031 206.085938 84.757812 C 207.078125 85.058594 208.0625 85.382812 209.039062 85.730469 C 210.015625 86.078125 210.980469 86.453125 211.941406 86.847656 C 212.898438 87.246094 213.847656 87.664062 214.785156 88.105469 C 215.722656 88.550781 216.648438 89.015625 217.5625 89.503906 C 218.476562 89.992188 219.378906 90.5 220.269531 91.035156 C 221.160156 91.566406 222.035156 92.121094 222.898438 92.695312 C 223.757812 93.269531 224.605469 93.867188 225.441406 94.484375 C 226.273438 95.101562 227.089844 95.738281 227.890625 96.394531 C 228.695312 97.050781 229.480469 97.730469 230.246094 98.425781 C 231.015625 99.121094 231.765625 99.832031 232.5 100.566406 C 233.234375 101.296875 233.949219 102.046875 234.644531 102.816406 C 235.339844 103.582031 236.019531 104.367188 236.675781 105.167969 C 237.335938 105.96875 237.972656 106.785156 238.589844 107.617188 C 239.207031 108.449219 239.804688 109.292969 240.382812 110.15625 C 240.957031 111.015625 241.511719 111.890625 242.046875 112.78125 C 242.578125 113.667969 243.089844 114.570312 243.578125 115.480469 C 244.066406 116.394531 244.535156 117.320312 244.976562 118.257812 C 245.421875 119.191406 245.839844 120.140625 246.238281 121.097656 C 246.636719 122.050781 247.007812 123.019531 247.359375 123.992188 C 247.707031 124.96875 248.03125 125.953125 248.332031 126.941406 C 248.632812 127.933594 248.910156 128.933594 249.164062 129.9375 C 249.414062 130.941406 249.640625 131.953125 249.84375 132.96875 C 250.046875 133.984375 250.222656 135.003906 250.375 136.027344 C 250.527344 137.050781 250.65625 138.078125 250.757812 139.109375 C 250.859375 140.140625 250.933594 141.171875 250.984375 142.207031 C 251.035156 143.242188 251.0625 144.277344 251.0625 145.3125 Z M 251.0625 145.3125 " fill-opacity="1" fill-rule="nonzero"/></svg>