<svg width="300" height="300" viewBox="0 0 300 300" fill="none" xmlns="http://www.w3.org/2000/svg">
<path d="M150 300C232.843 300 300 232.843 300 150C300 67.1573 232.843 0 150 0C67.1573 0 0 67.1573 0 150C0 232.843 67.1573 300 150 300Z" fill="#E4405F"/>
<path d="M150.001 75C129.64 75 127.091 75.0879 119.093 75.4395C111.095 75.8203 105.675 77.0801 100.899 78.9258C95.9775 80.8301 91.7881 83.4082 87.5986 87.5684C83.4092 91.7285 80.8604 95.918 78.9561 100.869C77.1103 105.645 75.8506 111.094 75.4697 119.062C75.0889 127.061 75.0303 129.609 75.0303 149.971C75.0303 170.332 75.1182 172.881 75.4697 180.879C75.8506 188.848 77.1103 194.297 78.9561 199.072C80.8604 203.994 83.4385 208.184 87.5986 212.373C91.7588 216.533 95.9482 219.111 100.899 221.016C105.675 222.861 111.124 224.121 119.093 224.502C127.091 224.883 129.64 224.941 150.001 224.941C170.362 224.941 172.911 224.853 180.909 224.502C188.878 224.121 194.327 222.861 199.103 221.016C204.024 219.111 208.214 216.533 212.403 212.373C216.563 208.213 219.142 204.023 221.046 199.072C222.892 194.297 224.151 188.848 224.532 180.879C224.913 172.881 224.972 170.332 224.972 149.971C224.972 129.609 224.884 127.061 224.532 119.062C224.151 111.094 222.892 105.645 221.046 100.869C219.142 95.9473 216.563 91.7578 212.403 87.5684C208.243 83.4082 204.054 80.8301 199.103 78.9258C194.327 77.0801 188.878 75.8203 180.909 75.4395C172.911 75.0879 170.362 75 150.001 75ZM150.001 88.5059C170.011 88.5059 172.413 88.5938 180.323 88.9453C187.647 89.2969 191.603 90.498 194.239 91.5527C197.755 92.9004 200.245 94.541 202.882 97.1484C205.489 99.7852 207.13 102.275 208.478 105.791C209.503 108.428 210.733 112.383 211.056 119.707C211.407 127.617 211.495 129.99 211.495 150.029C211.495 170.068 211.407 172.441 211.026 180.352C210.646 187.676 209.415 191.631 208.39 194.268C206.983 197.783 205.401 200.273 202.765 202.91C200.157 205.518 197.608 207.158 194.151 208.506C191.515 209.531 187.501 210.762 180.177 211.084C172.208 211.436 169.864 211.523 149.796 211.523C129.728 211.523 127.384 211.436 119.415 211.055C112.091 210.674 108.077 209.443 105.44 208.418C101.896 207.012 99.4346 205.43 96.8271 202.793C94.1904 200.186 92.5205 197.637 91.2021 194.18C90.1768 191.543 88.9463 187.529 88.5654 180.205C88.2725 172.324 88.1846 169.893 88.1846 149.941C88.1846 129.961 88.2725 127.529 88.5654 119.561C88.9463 112.236 90.1475 108.223 91.2021 105.586C92.5205 102.012 94.1904 99.5801 96.8271 96.9434C99.4346 94.3359 101.896 92.6367 105.44 91.3184C108.077 90.293 112.003 89.0625 119.327 88.6816C127.296 88.3887 129.64 88.3008 149.708 88.3008L150.001 88.5059ZM150.001 111.475C128.731 111.475 111.476 128.73 111.476 150C111.476 171.27 128.731 188.525 150.001 188.525C171.271 188.525 188.526 171.27 188.526 150C188.526 128.73 171.271 111.475 150.001 111.475ZM150.001 174.99C136.202 174.99 125.011 163.799 125.011 150C125.011 136.201 136.202 125.01 150.001 125.01C163.8 125.01 174.991 136.201 174.991 150C174.991 163.799 163.8 174.99 150.001 174.99ZM199.044 109.98C199.044 114.961 195.001 118.975 190.05 118.975C185.069 118.975 181.056 114.932 181.056 109.98C181.056 105.029 185.099 100.986 190.05 100.986C195.001 100.957 199.044 105 199.044 109.98Z" fill="white"/>
</svg>
