<svg xmlns="http://www.w3.org/2000/svg" xmlns:xlink="http://www.w3.org/1999/xlink" width="500" zoomAndPan="magnify" viewBox="0 0 375 374.999991" height="500" preserveAspectRatio="xMidYMid meet" version="1.0"><defs><clipPath id="4cbfada1fe"><path d="M 8.984375 39.480469 L 365.984375 39.480469 L 365.984375 335.730469 L 8.984375 335.730469 Z M 8.984375 39.480469 " clip-rule="nonzero"/></clipPath></defs><g clip-path="url(#4cbfada1fe)"><path fill="#19598f" d="M 207.023438 87.613281 C 223.289062 94.453125 235.128906 109.726562 237.078125 127.957031 C 237.25 129.582031 236.726562 131.203125 235.632812 132.417969 C 234.542969 133.632812 232.984375 134.328125 231.351562 134.328125 L 144.34375 134.328125 C 142.707031 134.328125 141.152344 133.632812 140.058594 132.417969 C 138.964844 131.203125 138.441406 129.578125 138.617188 127.957031 C 140.574219 109.722656 152.417969 94.449219 168.679688 87.613281 C 163.324219 82.527344 159.972656 75.339844 159.972656 67.398438 C 159.972656 52.042969 172.492188 39.511719 187.847656 39.511719 C 203.214844 39.511719 215.730469 52.042969 215.730469 67.398438 C 215.730469 75.339844 212.382812 82.527344 207.023438 87.613281 Z M 187.847656 95.28125 C 170.496094 95.28125 155.859375 106.917969 151.3125 122.8125 C 151.3125 122.8125 224.386719 122.8125 224.386719 122.8125 C 219.84375 106.914062 205.207031 95.28125 187.847656 95.28125 Z M 187.847656 83.765625 C 196.867188 83.765625 204.214844 76.410156 204.214844 67.398438 C 204.214844 58.382812 196.867188 51.03125 187.847656 51.03125 C 178.835938 51.03125 171.492188 58.386719 171.492188 67.398438 C 171.492188 76.410156 178.835938 83.765625 187.847656 83.765625 Z M 94.621094 288.761719 C 110.886719 295.601562 122.730469 310.875 124.675781 329.109375 C 124.851562 330.730469 124.328125 332.351562 123.234375 333.566406 C 122.140625 334.785156 120.585938 335.476562 118.953125 335.476562 L 31.941406 335.476562 C 30.308594 335.476562 28.75 334.785156 27.660156 333.566406 C 26.566406 332.351562 26.042969 330.730469 26.21875 329.105469 C 28.175781 310.871094 40.019531 295.597656 56.28125 288.761719 C 50.921875 283.675781 47.574219 276.488281 47.574219 268.546875 C 47.574219 253.191406 60.09375 240.664062 75.449219 240.664062 C 90.816406 240.664062 103.332031 253.191406 103.332031 268.546875 C 103.332031 276.488281 99.984375 283.675781 94.621094 288.761719 Z M 75.449219 296.429688 C 58.097656 296.429688 43.460938 308.066406 38.910156 323.960938 C 38.910156 323.960938 111.984375 323.960938 111.984375 323.960938 C 107.445312 308.066406 92.808594 296.429688 75.449219 296.429688 Z M 75.449219 284.914062 C 84.46875 284.914062 91.8125 277.558594 91.8125 268.546875 C 91.8125 259.535156 84.46875 252.179688 75.449219 252.179688 C 66.433594 252.179688 59.09375 259.535156 59.09375 268.546875 C 59.09375 277.558594 66.433594 284.914062 75.449219 284.914062 Z M 319.40625 288.761719 C 335.671875 295.601562 347.511719 310.875 349.460938 329.109375 C 349.632812 330.730469 349.109375 332.351562 348.015625 333.566406 C 346.925781 334.785156 345.367188 335.476562 343.734375 335.476562 L 256.726562 335.476562 C 255.089844 335.476562 253.535156 334.785156 252.441406 333.566406 C 251.347656 332.351562 250.824219 330.730469 251 329.105469 C 252.957031 310.871094 264.800781 295.597656 281.0625 288.761719 C 275.707031 283.675781 272.355469 276.488281 272.355469 268.546875 C 272.355469 253.191406 284.875 240.664062 300.230469 240.664062 C 315.597656 240.664062 328.113281 253.191406 328.113281 268.546875 C 328.113281 276.488281 324.765625 283.675781 319.40625 288.761719 Z M 300.230469 296.429688 C 282.878906 296.429688 268.242188 308.066406 263.695312 323.960938 C 263.695312 323.960938 336.769531 323.960938 336.769531 323.960938 C 332.226562 308.066406 317.589844 296.429688 300.230469 296.429688 Z M 300.230469 284.914062 C 309.25 284.914062 316.597656 277.558594 316.597656 268.546875 C 316.597656 259.535156 309.25 252.179688 300.230469 252.179688 C 291.21875 252.179688 283.875 259.535156 283.875 268.546875 C 283.875 277.558594 291.21875 284.914062 300.230469 284.914062 Z M 204.496094 164.96875 C 208.484375 166.144531 212.335938 167.742188 215.992188 169.734375 L 223.367188 166.457031 C 225.542969 165.488281 228.09375 165.960938 229.777344 167.648438 L 241.621094 179.492188 C 243.304688 181.175781 243.78125 183.722656 242.816406 185.898438 C 242.816406 185.898438 239.550781 193.273438 239.550781 193.273438 C 241.546875 196.933594 243.144531 200.789062 244.320312 204.792969 L 251.835938 207.6875 C 254.058594 208.542969 255.527344 210.679688 255.527344 213.0625 L 255.527344 229.820312 C 255.527344 232.199219 254.058594 234.335938 251.835938 235.191406 C 251.835938 235.191406 244.316406 238.085938 244.316406 238.085938 C 243.140625 242.078125 241.535156 245.929688 239.546875 249.585938 L 242.816406 256.964844 C 243.78125 259.144531 243.304688 261.6875 241.621094 263.371094 L 229.777344 275.214844 C 228.09375 276.898438 225.550781 277.375 223.371094 276.410156 C 223.371094 276.410156 216 273.144531 216 273.144531 C 212.347656 275.140625 208.488281 276.734375 204.492188 277.910156 L 201.597656 285.429688 C 200.742188 287.652344 198.609375 289.121094 196.226562 289.121094 L 179.46875 289.121094 C 177.085938 289.121094 174.949219 287.652344 174.09375 285.429688 C 174.09375 285.429688 171.199219 277.910156 171.199219 277.910156 C 167.199219 276.734375 163.34375 275.132812 159.683594 273.140625 L 152.304688 276.410156 C 150.128906 277.375 147.582031 276.898438 145.898438 275.214844 L 134.054688 263.371094 C 132.367188 261.683594 131.894531 259.136719 132.863281 256.957031 C 132.863281 256.957031 136.140625 249.589844 136.140625 249.589844 C 134.144531 245.941406 132.546875 242.082031 131.367188 238.089844 L 123.839844 235.191406 C 121.617188 234.335938 120.148438 232.199219 120.148438 229.820312 L 120.148438 213.0625 C 120.148438 210.679688 121.617188 208.542969 123.839844 207.6875 C 123.839844 207.6875 131.363281 204.789062 131.363281 204.792969 C 132.546875 200.789062 134.144531 196.933594 136.140625 193.277344 L 132.863281 185.902344 C 131.894531 183.726562 132.367188 181.175781 134.054688 179.492188 L 145.898438 167.648438 C 147.585938 165.960938 150.132812 165.488281 152.3125 166.457031 C 152.3125 166.457031 159.683594 169.734375 159.683594 169.734375 C 163.339844 167.738281 167.195312 166.144531 171.1875 164.96875 L 174.097656 157.429688 C 174.953125 155.207031 177.089844 153.742188 179.46875 153.742188 L 196.226562 153.742188 C 198.609375 153.742188 200.746094 155.210938 201.601562 157.4375 Z M 194.796875 171.84375 L 192.269531 165.261719 L 183.417969 165.261719 L 180.875 171.851562 C 180.191406 173.621094 178.679688 174.941406 176.835938 175.378906 C 171.964844 176.539062 167.320312 178.460938 163.050781 181.09375 C 161.429688 182.089844 159.425781 182.222656 157.6875 181.453125 L 151.246094 178.585938 L 144.996094 184.839844 L 147.859375 191.28125 C 148.632812 193.019531 148.496094 195.023438 147.5 196.644531 C 144.867188 200.917969 142.941406 205.566406 141.765625 210.457031 C 141.324219 212.300781 140.003906 213.804688 138.234375 214.488281 L 131.667969 217.015625 L 131.667969 225.863281 L 138.234375 228.390625 C 140.003906 229.074219 141.324219 230.578125 141.765625 232.417969 C 142.9375 237.292969 144.863281 241.957031 147.496094 246.210938 C 148.496094 247.832031 148.632812 249.839844 147.859375 251.582031 C 147.859375 251.582031 144.996094 258.023438 144.996094 258.023438 L 151.25 264.28125 L 157.695312 261.425781 C 159.425781 260.65625 161.421875 260.789062 163.035156 261.78125 C 167.308594 264.398438 171.957031 266.339844 176.847656 267.5 C 178.695312 267.9375 180.210938 269.257812 180.894531 271.035156 L 183.421875 277.601562 L 192.269531 277.601562 L 194.800781 271.035156 C 195.480469 269.261719 196.996094 267.9375 198.84375 267.5 C 203.710938 266.34375 208.367188 264.421875 212.621094 261.792969 C 214.234375 260.792969 216.242188 260.65625 217.980469 261.425781 L 224.425781 264.28125 L 230.6875 258.019531 L 227.832031 251.574219 C 227.066406 249.84375 227.199219 247.847656 228.1875 246.234375 C 230.804688 241.960938 232.746094 237.3125 233.90625 232.4375 C 234.347656 230.589844 235.667969 229.074219 237.441406 228.390625 L 244.011719 225.863281 L 244.011719 217.015625 L 237.441406 214.488281 C 235.667969 213.804688 234.34375 212.289062 233.90625 210.441406 C 232.75 205.554688 230.824219 200.910156 228.195312 196.644531 C 227.199219 195.027344 227.0625 193.023438 227.832031 191.289062 L 230.6875 184.84375 L 224.429688 178.585938 L 217.988281 181.453125 C 216.25 182.222656 214.246094 182.089844 212.628906 181.09375 C 208.359375 178.460938 203.714844 176.539062 198.84375 175.378906 C 196.992188 174.941406 195.480469 173.617188 194.796875 171.84375 Z M 187.839844 186.445312 C 207.167969 186.445312 222.839844 202.101562 222.839844 221.429688 C 222.839844 240.761719 207.167969 256.433594 187.839844 256.433594 C 168.507812 256.433594 152.851562 240.761719 152.851562 221.429688 C 152.851562 202.101562 168.507812 186.445312 187.839844 186.445312 Z M 187.839844 197.960938 C 174.871094 197.960938 164.371094 208.464844 164.371094 221.429688 C 164.371094 234.398438 174.871094 244.917969 187.839844 244.917969 C 200.808594 244.917969 211.324219 234.402344 211.324219 221.429688 C 211.324219 208.464844 200.804688 197.960938 187.839844 197.960938 Z M 70.515625 43.96875 C 104.5 43.96875 132.050781 71.519531 132.050781 105.5 C 132.050781 118.304688 128.140625 130.183594 121.457031 140.023438 L 128.449219 166.140625 C 128.980469 168.128906 128.414062 170.246094 126.957031 171.703125 C 125.503906 173.15625 123.386719 173.726562 121.398438 173.191406 C 121.398438 173.191406 88.457031 164.375 88.457031 164.375 C 82.777344 166.09375 76.761719 167.03125 70.515625 167.03125 C 36.535156 167.03125 8.984375 139.484375 8.984375 105.5 C 8.984375 71.519531 36.535156 43.96875 70.515625 43.96875 Z M 70.515625 55.484375 C 42.894531 55.484375 20.503906 77.878906 20.503906 105.5 C 20.503906 133.121094 42.894531 155.515625 70.515625 155.515625 C 76.109375 155.515625 81.472656 154.589844 86.496094 152.914062 C 87.566406 152.558594 88.71875 152.523438 89.808594 152.816406 L 114.746094 159.488281 L 109.628906 140.382812 C 109.171875 138.675781 109.523438 136.855469 110.582031 135.441406 C 116.832031 127.09375 120.53125 116.734375 120.53125 105.5 C 120.53125 77.878906 98.140625 55.484375 70.515625 55.484375 Z M 96.429688 79.839844 C 99.609375 79.839844 102.1875 82.421875 102.1875 85.601562 C 102.1875 88.777344 99.609375 91.359375 96.429688 91.359375 L 44.585938 91.359375 C 41.410156 91.359375 38.828125 88.777344 38.828125 85.601562 C 38.828125 82.421875 41.410156 79.839844 44.585938 79.839844 Z M 96.429688 119.136719 C 99.609375 119.136719 102.1875 121.714844 102.1875 124.894531 C 102.1875 128.074219 99.609375 130.652344 96.429688 130.652344 L 44.585938 130.652344 C 41.410156 130.652344 38.828125 128.074219 38.828125 124.894531 C 38.828125 121.714844 41.410156 119.136719 44.585938 119.136719 Z M 96.429688 99.488281 C 99.609375 99.488281 102.1875 102.070312 102.1875 105.246094 C 102.1875 108.425781 99.609375 111.003906 96.429688 111.003906 L 44.585938 111.003906 C 41.410156 111.003906 38.828125 108.425781 38.828125 105.246094 C 38.828125 102.070312 41.410156 99.488281 44.585938 99.488281 Z M 304.476562 43.96875 C 338.460938 43.96875 366.007812 71.519531 366.007812 105.5 C 366.007812 139.484375 338.460938 167.03125 304.476562 167.03125 C 298.230469 167.03125 292.214844 166.09375 286.539062 164.375 L 253.597656 173.191406 C 251.609375 173.726562 249.488281 173.15625 248.035156 171.703125 C 246.582031 170.246094 246.011719 168.128906 246.546875 166.140625 C 246.546875 166.140625 253.539062 140.023438 253.539062 140.023438 C 246.851562 130.183594 242.945312 118.304688 242.945312 105.5 C 242.945312 71.519531 270.496094 43.96875 304.476562 43.96875 Z M 304.476562 55.484375 C 276.855469 55.484375 254.460938 77.878906 254.460938 105.5 C 254.460938 116.734375 258.160156 127.09375 264.414062 135.441406 C 265.472656 136.855469 265.824219 138.675781 265.367188 140.382812 C 265.367188 140.382812 260.25 159.488281 260.25 159.488281 L 285.1875 152.816406 C 286.277344 152.523438 287.429688 152.558594 288.496094 152.914062 C 293.519531 154.589844 298.886719 155.515625 304.476562 155.515625 C 332.097656 155.515625 354.492188 133.121094 354.492188 105.5 C 354.492188 77.878906 332.097656 55.484375 304.476562 55.484375 Z M 278.5625 130.652344 C 275.386719 130.652344 272.804688 128.074219 272.804688 124.894531 C 272.804688 121.714844 275.386719 119.136719 278.5625 119.136719 L 330.40625 119.136719 C 333.585938 119.136719 336.167969 121.714844 336.167969 124.894531 C 336.167969 128.074219 333.585938 130.652344 330.40625 130.652344 Z M 278.5625 111.003906 C 275.386719 111.003906 272.804688 108.425781 272.804688 105.246094 C 272.804688 102.070312 275.386719 99.488281 278.5625 99.488281 L 330.40625 99.488281 C 333.585938 99.488281 336.167969 102.070312 336.167969 105.246094 C 336.167969 108.425781 333.585938 111.003906 330.40625 111.003906 Z M 278.5625 91.359375 C 275.386719 91.359375 272.804688 88.777344 272.804688 85.601562 C 272.804688 82.421875 275.386719 79.839844 278.5625 79.839844 L 330.40625 79.839844 C 333.585938 79.839844 336.167969 82.421875 336.167969 85.601562 C 336.167969 88.777344 333.585938 91.359375 330.40625 91.359375 Z M 278.5625 91.359375 " fill-opacity="1" fill-rule="evenodd"/></g></svg>