<svg xmlns="http://www.w3.org/2000/svg" xmlns:xlink="http://www.w3.org/1999/xlink" width="500" zoomAndPan="magnify" viewBox="0 0 375 374.999991" height="500" preserveAspectRatio="xMidYMid meet" version="1.0"><defs><clipPath id="f9d5dba0ca"><path d="M 110.386719 252.363281 L 301 252.363281 L 301 337.488281 L 110.386719 337.488281 Z M 110.386719 252.363281 " clip-rule="nonzero"/></clipPath><clipPath id="07f28ecc81"><path d="M 100 242 L 315.375 242 L 315.375 270 L 100 270 Z M 100 242 " clip-rule="nonzero"/></clipPath><clipPath id="b8530e2244"><path d="M 59.625 37.5 L 178 37.5 L 178 132 L 59.625 132 Z M 59.625 37.5 " clip-rule="nonzero"/></clipPath></defs><path fill="#19598f" d="M 250.640625 264.046875 L 250.640625 207.472656 L 253.25 206.636719 L 280.382812 212.179688 C 280.382812 212.179688 273.175781 172.433594 263.097656 160.683594 C 253.25 149.191406 234.476562 150.03125 234.476562 150.03125 C 233.933594 149.996094 233.441406 149.980469 232.964844 149.980469 L 199.714844 149.980469 C 190.179688 149.980469 181.398438 154.578125 176.015625 162.355469 C 175.984375 162.371094 175.96875 162.40625 175.949219 162.421875 C 175.769531 162.667969 175.589844 162.914062 175.425781 163.160156 L 168.648438 173.449219 L 163.5625 146.601562 C 162.132812 139.035156 154.84375 134.042969 147.261719 135.488281 C 139.699219 136.917969 134.726562 144.21875 136.152344 151.785156 L 147.625 212.429688 C 148.691406 218.007812 153.023438 222.390625 158.585938 223.503906 C 159.507812 223.6875 160.425781 223.769531 161.328125 223.769531 C 165.957031 223.769531 170.355469 221.472656 172.980469 217.515625 L 184.996094 199.316406 L 184.996094 264.792969 L 250.640625 264.046875 " fill-opacity="1" fill-rule="nonzero"/><path fill="#092135" d="M 173.644531 160.621094 C 173.644531 160.625 173.644531 160.625 173.644531 160.625 C 173.644531 160.625 173.644531 160.625 173.644531 160.621094 Z M 177.308594 164.980469 Z M 177.304688 164.984375 C 177.304688 164.984375 177.300781 164.984375 177.300781 164.984375 C 177.300781 164.984375 177.304688 164.984375 177.304688 164.984375 Z M 177.296875 164.988281 Z M 177.292969 164.988281 C 177.292969 164.988281 177.292969 164.988281 177.289062 164.988281 C 177.292969 164.988281 177.292969 164.988281 177.292969 164.988281 Z M 184.996094 267.71875 C 183.378906 267.71875 182.070312 266.40625 182.070312 264.792969 L 182.070312 209.058594 L 175.421875 219.128906 C 172.273438 223.867188 167.007812 226.695312 161.328125 226.695312 C 160.207031 226.695312 159.09375 226.585938 158.023438 226.375 C 154.710938 225.710938 151.710938 224.09375 149.339844 221.699219 C 146.972656 219.304688 145.382812 216.289062 144.75 212.976562 L 133.277344 152.332031 C 131.554688 143.183594 137.582031 134.339844 146.71875 132.617188 C 151.140625 131.773438 155.632812 132.703125 159.355469 135.242188 C 163.082031 137.78125 165.597656 141.621094 166.433594 146.058594 L 170.175781 165.8125 L 172.984375 161.550781 C 172.988281 161.546875 172.988281 161.542969 172.992188 161.539062 C 173.179688 161.253906 173.371094 160.996094 173.554688 160.742188 L 173.589844 160.695312 C 173.621094 160.648438 173.660156 160.605469 173.695312 160.558594 C 173.714844 160.539062 173.730469 160.515625 173.746094 160.496094 C 176.644531 156.378906 180.515625 152.980469 184.953125 150.660156 C 189.464844 148.300781 194.570312 147.058594 199.714844 147.058594 L 232.964844 147.058594 C 233.445312 147.058594 233.949219 147.074219 234.507812 147.101562 C 236.5625 147.039062 255.050781 146.796875 265.320312 158.777344 C 269.785156 163.988281 274.167969 174.519531 278.34375 190.082031 C 281.398438 201.472656 283.238281 211.558594 283.257812 211.660156 C 283.429688 212.617188 283.117188 213.59375 282.425781 214.273438 C 281.730469 214.953125 280.742188 215.242188 279.792969 215.046875 L 253.566406 209.6875 L 253.566406 264.046875 C 253.566406 265.660156 252.253906 266.96875 250.640625 266.96875 C 249.023438 266.96875 247.714844 265.660156 247.714844 264.046875 L 247.714844 207.472656 C 247.714844 206.203125 248.539062 205.074219 249.75 204.6875 L 252.359375 203.851562 C 252.835938 203.695312 253.34375 203.667969 253.835938 203.769531 L 276.660156 208.4375 C 275.851562 204.496094 274.480469 198.257812 272.683594 191.558594 C 268.792969 177.074219 264.710938 167.058594 260.878906 162.585938 C 252.097656 152.34375 234.777344 152.945312 234.601562 152.953125 C 234.503906 152.957031 234.402344 152.957031 234.304688 152.949219 C 233.808594 152.921875 233.371094 152.90625 232.964844 152.90625 L 199.714844 152.90625 C 191.199219 152.90625 183.238281 157.0625 178.421875 164.019531 C 178.351562 164.121094 178.277344 164.214844 178.195312 164.304688 C 178.074219 164.472656 177.960938 164.632812 177.863281 164.777344 L 171.089844 175.058594 C 170.433594 176.054688 169.242188 176.554688 168.074219 176.316406 C 166.90625 176.082031 165.996094 175.164062 165.773438 173.996094 L 160.6875 147.144531 C 160.140625 144.246094 158.496094 141.734375 156.0625 140.074219 C 153.628906 138.421875 150.699219 137.8125 147.808594 138.363281 C 141.835938 139.488281 137.898438 145.269531 139.027344 151.246094 L 150.5 211.886719 C 151.34375 216.316406 154.746094 219.753906 159.160156 220.636719 C 159.851562 220.773438 160.585938 220.84375 161.328125 220.84375 C 165.042969 220.84375 168.488281 218.996094 170.542969 215.898438 L 182.550781 197.703125 C 183.265625 196.628906 184.597656 196.144531 185.835938 196.515625 C 187.074219 196.886719 187.917969 198.023438 187.917969 199.316406 L 187.917969 264.792969 C 187.917969 266.40625 186.609375 267.71875 184.996094 267.71875 " fill-opacity="1" fill-rule="nonzero"/><path fill="#ffffff" d="M 212.894531 143.164062 C 197.960938 143.164062 185.859375 131.058594 185.859375 116.125 C 185.859375 101.195312 197.960938 89.089844 212.894531 89.089844 C 227.824219 89.089844 239.929688 101.195312 239.929688 116.125 C 239.929688 131.058594 227.824219 143.164062 212.894531 143.164062 " fill-opacity="1" fill-rule="nonzero"/><path fill="#092135" d="M 212.894531 92.015625 C 199.601562 92.015625 188.785156 102.832031 188.785156 116.125 C 188.785156 129.421875 199.601562 140.234375 212.894531 140.234375 C 226.191406 140.234375 237.003906 129.421875 237.003906 116.125 C 237.003906 102.832031 226.191406 92.015625 212.894531 92.015625 Z M 212.894531 146.085938 C 204.890625 146.085938 197.367188 142.96875 191.707031 137.3125 C 186.050781 131.652344 182.933594 124.128906 182.933594 116.125 C 182.933594 108.121094 186.050781 100.597656 191.707031 94.941406 C 197.367188 89.28125 204.890625 86.164062 212.894531 86.164062 C 220.898438 86.164062 228.421875 89.28125 234.078125 94.941406 C 239.738281 100.597656 242.855469 108.121094 242.855469 116.125 C 242.855469 124.128906 239.738281 131.652344 234.078125 137.3125 C 228.421875 142.96875 220.898438 146.085938 212.894531 146.085938 " fill-opacity="1" fill-rule="nonzero"/><path fill="#19598f" d="M 270.667969 230.046875 C 268.953125 230.050781 267.203125 229.738281 265.507812 229.070312 L 217.46875 210.140625 C 210.300781 207.316406 206.777344 199.21875 209.601562 192.046875 C 212.425781 184.882812 220.519531 181.363281 227.699219 184.183594 L 275.738281 203.113281 C 282.90625 205.9375 286.425781 214.039062 283.601562 221.207031 C 281.445312 226.679688 276.210938 230.027344 270.667969 230.046875 " fill-opacity="1" fill-rule="nonzero"/><path fill="#092135" d="M 222.601562 186.140625 C 218.199219 186.140625 214.03125 188.789062 212.324219 193.121094 C 210.09375 198.777344 212.882812 205.195312 218.539062 207.421875 L 266.578125 226.351562 C 267.878906 226.863281 269.238281 227.121094 270.617188 227.121094 C 270.628906 227.121094 270.644531 227.121094 270.65625 227.121094 C 275.199219 227.105469 279.210938 224.363281 280.882812 220.136719 C 283.109375 214.480469 280.320312 208.0625 274.664062 205.835938 L 226.625 186.90625 C 225.304688 186.386719 223.941406 186.140625 222.601562 186.140625 Z M 270.664062 230.046875 L 270.667969 230.046875 Z M 270.617188 232.972656 C 268.5 232.972656 266.421875 232.574219 264.4375 231.792969 L 216.394531 212.863281 C 207.738281 209.453125 203.46875 199.636719 206.878906 190.976562 C 210.289062 182.328125 220.105469 178.058594 228.765625 181.460938 L 276.808594 200.390625 C 285.464844 203.804688 289.730469 213.621094 286.320312 222.28125 C 285.058594 225.484375 282.882812 228.1875 280.03125 230.101562 C 277.25 231.964844 274.015625 232.960938 270.675781 232.972656 C 270.65625 232.972656 270.636719 232.972656 270.617188 232.972656 " fill-opacity="1" fill-rule="nonzero"/><path fill="#fef759" d="M 113.339844 334.5625 L 113.339844 255.355469 L 298.070312 255.355469 L 298.070312 334.5625 L 113.339844 334.5625 " fill-opacity="1" fill-rule="nonzero"/><g clip-path="url(#f9d5dba0ca)"><path fill="#092135" d="M 298.070312 337.488281 C 296.453125 337.488281 295.144531 336.175781 295.144531 334.5625 L 295.144531 258.28125 L 116.265625 258.28125 L 116.265625 334.5625 C 116.265625 336.175781 114.957031 337.488281 113.339844 337.488281 C 111.726562 337.488281 110.414062 336.175781 110.414062 334.5625 L 110.414062 255.355469 C 110.414062 253.738281 111.726562 252.429688 113.339844 252.429688 L 298.070312 252.429688 C 299.683594 252.429688 300.996094 253.738281 300.996094 255.355469 L 300.996094 334.5625 C 300.996094 336.175781 299.683594 337.488281 298.070312 337.488281 " fill-opacity="1" fill-rule="nonzero"/></g><path fill="#fef759" d="M 312.449219 266.082031 L 103.839844 266.082031 L 103.839844 245.058594 L 312.449219 245.058594 L 312.449219 266.082031 " fill-opacity="1" fill-rule="nonzero"/><g clip-path="url(#07f28ecc81)"><path fill="#092135" d="M 106.761719 263.15625 L 309.523438 263.15625 L 309.523438 247.980469 L 106.761719 247.980469 Z M 312.449219 269.003906 L 103.839844 269.003906 C 102.222656 269.003906 100.914062 267.695312 100.914062 266.078125 L 100.914062 245.054688 C 100.914062 243.441406 102.222656 242.132812 103.839844 242.132812 L 312.449219 242.132812 C 314.066406 242.132812 315.375 243.441406 315.375 245.054688 L 315.375 266.078125 C 315.375 267.695312 314.066406 269.003906 312.449219 269.003906 " fill-opacity="1" fill-rule="nonzero"/></g><path fill="#ffffff" d="M 99.535156 121.855469 L 137.738281 121.855469 C 143.25 121.855469 148.484375 120.503906 153.191406 118.097656 L 162.109375 124.429688 L 167.464844 128.234375 C 170.933594 130.695312 175.222656 126.773438 173.65625 122.570312 L 171.238281 116.078125 L 167.308594 105.527344 C 171.960938 98.71875 174.726562 90.269531 174.726562 81.148438 C 174.726562 58.757812 158.082031 40.4375 137.738281 40.4375 L 99.535156 40.4375 C 79.195312 40.4375 62.550781 58.757812 62.550781 81.148438 C 62.550781 103.539062 79.195312 121.855469 99.535156 121.855469 " fill-opacity="1" fill-rule="nonzero"/><g clip-path="url(#b8530e2244)"><path fill="#092135" d="M 153.191406 115.171875 C 153.789062 115.171875 154.382812 115.355469 154.886719 115.714844 L 169.15625 125.847656 C 169.34375 125.980469 169.773438 126.289062 170.371094 125.832031 C 170.863281 125.453125 171.304688 124.636719 170.914062 123.589844 L 164.566406 106.546875 C 164.234375 105.65625 164.355469 104.660156 164.894531 103.875 C 169.410156 97.261719 171.800781 89.402344 171.800781 81.148438 C 171.800781 60.3125 156.519531 43.363281 137.738281 43.363281 L 99.535156 43.363281 C 80.753906 43.363281 65.472656 60.3125 65.472656 81.148438 C 65.472656 101.980469 80.753906 118.933594 99.535156 118.933594 L 137.738281 118.933594 C 142.640625 118.933594 147.394531 117.777344 151.863281 115.492188 C 152.28125 115.28125 152.738281 115.171875 153.191406 115.171875 Z M 169.757812 131.917969 C 168.378906 131.917969 166.992188 131.484375 165.769531 130.617188 L 152.90625 121.484375 C 148.078125 123.671875 142.984375 124.78125 137.738281 124.78125 L 99.535156 124.78125 C 94.132812 124.78125 88.886719 123.609375 83.9375 121.292969 C 79.183594 119.070312 74.914062 115.898438 71.25 111.867188 C 67.601562 107.851562 64.738281 103.1875 62.738281 98.007812 C 60.671875 92.652344 59.625 86.980469 59.625 81.148438 C 59.625 75.316406 60.671875 69.640625 62.738281 64.289062 C 64.738281 59.105469 67.601562 54.445312 71.25 50.429688 C 74.914062 46.394531 79.183594 43.222656 83.9375 41 C 88.886719 38.6875 94.132812 37.511719 99.535156 37.511719 L 137.738281 37.511719 C 143.140625 37.511719 148.390625 38.6875 153.339844 41 C 158.089844 43.222656 162.359375 46.394531 166.023438 50.429688 C 169.671875 54.445312 172.535156 59.105469 174.535156 64.289062 C 176.601562 69.640625 177.648438 75.316406 177.648438 81.148438 C 177.648438 90.058594 175.203125 98.582031 170.566406 105.894531 L 176.398438 121.546875 C 177.613281 124.820312 176.625 128.402344 173.933594 130.46875 C 172.679688 131.433594 171.21875 131.917969 169.757812 131.917969 " fill-opacity="1" fill-rule="nonzero"/></g></svg>