<svg xmlns="http://www.w3.org/2000/svg" xmlns:xlink="http://www.w3.org/1999/xlink" width="500" zoomAndPan="magnify" viewBox="0 0 375 374.999991" height="500" preserveAspectRatio="xMidYMid meet" version="1.0"><defs><clipPath id="70bbea762a"><path d="M 287 71 L 343.492188 71 L 343.492188 110 L 287 110 Z M 287 71 " clip-rule="nonzero"/></clipPath><clipPath id="e533ef9095"><path d="M 160 323 L 186 323 L 186 336.261719 L 160 336.261719 Z M 160 323 " clip-rule="nonzero"/></clipPath><clipPath id="7fe171d9a7"><path d="M 159 322 L 187 322 L 187 336.261719 L 159 336.261719 Z M 159 322 " clip-rule="nonzero"/></clipPath><clipPath id="fac1dded63"><path d="M 176 38.511719 L 197 38.511719 L 197 43 L 176 43 Z M 176 38.511719 " clip-rule="nonzero"/></clipPath></defs><path fill="#0c2840" d="M 80.175781 242.015625 L 147.058594 311.347656 C 151.957031 316.429688 159.207031 317.378906 163.253906 313.476562 L 169.914062 307.050781 C 173.960938 303.148438 173.269531 295.867188 168.371094 290.789062 L 101.488281 221.457031 L 80.175781 242.015625 " fill-opacity="1" fill-rule="nonzero"/><path fill="#ffffff" d="M 288.421875 118.714844 C 296.890625 138.449219 293.980469 158.644531 281.917969 163.820312 C 269.855469 169 253.210938 157.199219 244.742188 137.464844 C 236.269531 117.734375 239.179688 97.539062 251.242188 92.359375 C 263.304688 87.183594 279.953125 98.984375 288.421875 118.714844 " fill-opacity="1" fill-rule="nonzero"/><path fill="#0c2840" d="M 257.300781 91.523438 C 255.25 91.523438 253.265625 91.90625 251.394531 92.710938 C 245.6875 95.160156 241.878906 101.125 240.667969 109.507812 C 239.453125 117.960938 241.019531 127.835938 245.089844 137.316406 C 249.160156 146.796875 255.238281 154.738281 262.203125 159.675781 C 269.113281 164.574219 276.0625 165.921875 281.769531 163.472656 C 287.476562 161.023438 291.285156 155.058594 292.496094 146.671875 C 293.710938 138.21875 292.144531 128.347656 288.074219 118.863281 C 281.023438 102.4375 268.242188 91.523438 257.300781 91.523438 Z M 275.835938 165.429688 C 271.378906 165.429688 266.554688 163.691406 261.765625 160.296875 C 254.683594 155.277344 248.519531 147.222656 244.394531 137.617188 C 240.269531 128.007812 238.679688 117.988281 239.917969 109.402344 C 241.164062 100.746094 245.132812 94.570312 251.09375 92.011719 C 263.328125 86.761719 280.230469 98.671875 288.769531 118.566406 C 292.894531 128.171875 294.484375 138.195312 293.25 146.78125 C 292 155.4375 288.027344 161.609375 282.070312 164.171875 C 280.109375 165.011719 278.019531 165.429688 275.835938 165.429688 " fill-opacity="1" fill-rule="nonzero"/><path fill="#0c2840" d="M 47.964844 203.097656 L 62.882812 237.851562 C 65.179688 243.203125 73.875 244.605469 82.304688 240.988281 L 59.070312 186.855469 C 50.636719 190.476562 45.667969 197.746094 47.964844 203.097656 " fill-opacity="1" fill-rule="nonzero"/><path fill="#ffffff" d="M 219.105469 51.070312 L 205.59375 56.875 L 53.496094 189.246094 L 76.730469 243.382812 L 277.460938 224.296875 L 290.976562 218.496094 L 219.105469 51.070312 " fill-opacity="1" fill-rule="nonzero"/><path fill="#0c2840" d="M 53.953125 189.351562 L 76.972656 242.976562 L 277.367188 223.925781 L 290.476562 218.296875 L 218.90625 51.570312 L 205.796875 57.199219 Z M 76.730469 243.761719 C 76.582031 243.761719 76.445312 243.671875 76.382812 243.53125 L 53.144531 189.398438 C 53.082031 189.246094 53.121094 189.070312 53.246094 188.960938 L 205.34375 56.585938 C 205.375 56.558594 205.40625 56.539062 205.445312 56.523438 L 218.960938 50.722656 C 219.148438 50.640625 219.371094 50.730469 219.457031 50.921875 L 291.328125 218.347656 C 291.410156 218.539062 291.320312 218.761719 291.128906 218.84375 L 277.613281 224.648438 C 277.578125 224.664062 277.539062 224.671875 277.5 224.675781 L 76.769531 243.757812 C 76.757812 243.761719 76.746094 243.761719 76.730469 243.761719 " fill-opacity="1" fill-rule="nonzero"/><path fill="#0c2840" d="M 53.953125 189.351562 L 76.972656 242.976562 L 277.367188 223.925781 L 290.476562 218.296875 L 218.90625 51.570312 L 205.796875 57.199219 Z M 76.730469 243.761719 C 76.582031 243.761719 76.445312 243.671875 76.382812 243.53125 L 53.144531 189.398438 C 53.082031 189.246094 53.121094 189.070312 53.246094 188.960938 L 205.34375 56.585938 C 205.375 56.558594 205.40625 56.539062 205.445312 56.523438 L 218.960938 50.722656 C 219.148438 50.640625 219.371094 50.730469 219.457031 50.921875 L 291.328125 218.347656 C 291.410156 218.539062 291.320312 218.761719 291.128906 218.84375 L 277.613281 224.648438 C 277.578125 224.664062 277.539062 224.671875 277.5 224.675781 L 76.769531 243.757812 C 76.757812 243.761719 76.746094 243.761719 76.730469 243.761719 " fill-opacity="1" fill-rule="nonzero"/><path fill="#0c2840" d="M 296.984375 224.9375 L 285.703125 229.78125 C 280.828125 231.871094 275.246094 229.203125 273.777344 224.109375 C 257.371094 167.058594 233.902344 112.222656 203.164062 59.667969 C 200.492188 55.097656 202.410156 49.222656 207.273438 47.132812 L 218.546875 42.292969 C 222.585938 40.5625 227.289062 42.070312 229.554688 45.835938 C 261.828125 99.453125 285.996094 155.683594 302.007812 214.550781 C 303.15625 218.777344 301.011719 223.207031 296.984375 224.9375 " fill-opacity="1" fill-rule="nonzero"/><path fill="#ffffff" d="M 282.242188 226.8125 C 279.972656 226.8125 277.953125 225.28125 277.320312 223.089844 C 272.535156 206.445312 267.050781 189.726562 261.019531 173.390625 C 260.949219 173.195312 261.046875 172.976562 261.242188 172.902344 C 261.441406 172.832031 261.660156 172.929688 261.734375 173.125 C 267.769531 189.480469 273.257812 206.21875 278.050781 222.878906 C 278.589844 224.746094 280.3125 226.054688 282.242188 226.054688 C 282.824219 226.054688 283.398438 225.933594 283.949219 225.695312 L 288.574219 223.710938 C 288.765625 223.628906 288.992188 223.71875 289.070312 223.910156 C 289.15625 224.105469 289.066406 224.328125 288.875 224.410156 L 284.253906 226.394531 C 283.605469 226.671875 282.929688 226.8125 282.242188 226.8125 " fill-opacity="1" fill-rule="nonzero"/><path fill="#ffffff" d="M 257.984375 164.644531 C 257.832031 164.644531 257.6875 164.550781 257.628906 164.398438 C 254.601562 156.527344 251.390625 148.589844 248.082031 140.808594 C 248 140.613281 248.085938 140.390625 248.28125 140.308594 C 248.472656 140.226562 248.695312 140.316406 248.777344 140.511719 C 252.09375 148.296875 255.308594 156.246094 258.339844 164.128906 C 258.414062 164.324219 258.316406 164.542969 258.121094 164.617188 C 258.074219 164.636719 258.03125 164.644531 257.984375 164.644531 " fill-opacity="1" fill-rule="nonzero"/><path fill="#0c2840" d="M 271.695312 92.636719 L 272.855469 72.519531 C 273.089844 68.5 275.921875 65.105469 279.832031 64.160156 L 297.71875 59.84375 L 271.695312 92.636719 " fill-opacity="1" fill-rule="nonzero"/><g clip-path="url(#70bbea762a)"><path fill="#0c2840" d="M 321.628906 71.699219 L 315.574219 88.417969 L 311.828125 86.636719 C 307.179688 84.421875 301.609375 85.824219 298.558594 89.972656 L 287.796875 104.613281 L 296.070312 100.933594 C 300.90625 98.789062 306.570312 99.988281 310.117188 103.910156 L 313.136719 107.253906 C 316.390625 110.847656 322.046875 110.820312 325.261719 107.191406 L 343.355469 86.777344 L 321.628906 71.699219 " fill-opacity="1" fill-rule="nonzero"/></g><path fill="#0c2840" d="M 327.609375 128.808594 L 297.714844 118.355469 L 298.359375 120.101562 C 299.261719 122.570312 300.886719 124.710938 303.023438 126.246094 L 321.695312 139.65625 C 323.03125 140.617188 324.902344 140.203125 325.714844 138.773438 L 329.101562 132.785156 C 329.953125 131.28125 329.238281 129.378906 327.609375 128.808594 " fill-opacity="1" fill-rule="nonzero"/><path fill="#ffffff" d="M 117.828125 318.707031 C 123.613281 314.054688 126.15625 307.257812 124.214844 302.050781 C 122.261719 296.800781 116.214844 294.394531 115.734375 294.210938 C 111.121094 292.441406 108.917969 294.296875 107.09375 292.433594 C 103.835938 289.109375 109.609375 281.933594 106.074219 277.238281 C 104.191406 274.734375 100.460938 273.992188 98.03125 274.132812 C 93.558594 274.394531 91.988281 277.761719 89.929688 276.9375 C 87.09375 275.808594 89.605469 269.265625 85.675781 264.363281 C 83.242188 261.324219 78.660156 259.316406 74.921875 260.464844 C 68.671875 262.386719 66.214844 272.679688 69.28125 277.316406 C 71.4375 280.578125 75.265625 279.433594 77.601562 283.308594 C 79.890625 287.101562 77.21875 289.847656 79.335938 292.4375 C 82.449219 296.242188 89.707031 292.160156 93.402344 296.292969 C 95.558594 298.703125 93.734375 300.824219 95.84375 303.152344 C 99.308594 306.984375 105.824219 303.023438 111.257812 305.980469 C 113.890625 307.414062 116.699219 310.707031 117.828125 318.707031 " fill-opacity="1" fill-rule="nonzero"/><path fill="#0c2840" d="M 105.671875 304.40625 C 107.585938 304.40625 109.578125 304.636719 111.4375 305.648438 C 114.863281 307.511719 117.105469 311.664062 118.105469 317.988281 C 123.324219 313.507812 125.6875 307.09375 123.859375 302.183594 C 121.945312 297.050781 115.859375 294.664062 115.601562 294.566406 C 113.382812 293.714844 111.734375 293.726562 110.414062 293.738281 C 108.984375 293.746094 107.859375 293.753906 106.824219 292.699219 C 105.105469 290.945312 105.664062 288.324219 106.257812 285.550781 C 106.863281 282.703125 107.492188 279.753906 105.769531 277.464844 C 103.832031 274.890625 100.011719 274.398438 98.054688 274.511719 C 95.808594 274.644531 94.308594 275.601562 93.105469 276.371094 C 91.949219 277.113281 90.949219 277.753906 89.785156 277.289062 C 88.238281 276.671875 88.070312 274.753906 87.875 272.535156 C 87.660156 270.117188 87.394531 267.113281 85.378906 264.601562 C 83.214844 261.894531 78.851562 259.652344 75.03125 260.828125 C 72.515625 261.601562 70.398438 263.929688 69.222656 267.214844 C 67.925781 270.832031 68.078125 274.808594 69.597656 277.105469 C 70.554688 278.554688 71.878906 279.082031 73.285156 279.636719 C 74.929688 280.292969 76.632812 280.964844 77.929688 283.109375 C 79.164062 285.164062 79.027344 286.921875 78.902344 288.472656 C 78.792969 289.859375 78.695312 291.054688 79.632812 292.199219 C 81.039062 293.917969 83.4375 293.890625 85.976562 293.863281 C 88.78125 293.832031 91.683594 293.800781 93.683594 296.039062 C 94.855469 297.347656 94.941406 298.566406 95.023438 299.746094 C 95.097656 300.824219 95.167969 301.839844 96.125 302.902344 C 97.828125 304.78125 100.328125 304.648438 103.226562 304.492188 C 104.015625 304.449219 104.835938 304.40625 105.671875 304.40625 Z M 117.828125 319.089844 C 117.78125 319.089844 117.734375 319.082031 117.6875 319.0625 C 117.5625 319.011719 117.472656 318.894531 117.453125 318.761719 C 116.542969 312.3125 114.398438 308.125 111.074219 306.316406 C 108.597656 304.964844 105.886719 305.109375 103.269531 305.25 C 100.304688 305.410156 97.507812 305.558594 95.5625 303.410156 C 94.425781 302.152344 94.34375 300.957031 94.265625 299.800781 C 94.1875 298.699219 94.117188 297.660156 93.117188 296.546875 C 91.347656 294.566406 88.621094 294.59375 85.988281 294.625 C 83.382812 294.652344 80.683594 294.683594 79.042969 292.679688 C 77.914062 291.300781 78.027344 289.898438 78.144531 288.410156 C 78.265625 286.90625 78.390625 285.347656 77.277344 283.503906 C 76.117188 281.578125 74.601562 280.976562 73.003906 280.34375 C 71.554688 279.769531 70.054688 279.175781 68.964844 277.523438 C 67.316406 275.039062 67.136719 270.789062 68.507812 266.957031 C 69.765625 263.445312 72.0625 260.949219 74.808594 260.101562 C 78.949219 258.828125 83.652344 261.222656 85.972656 264.125 C 88.128906 266.816406 88.40625 269.949219 88.628906 272.464844 C 88.8125 274.519531 88.957031 276.140625 90.070312 276.585938 C 90.832031 276.886719 91.527344 276.480469 92.695312 275.730469 C 93.972656 274.914062 95.566406 273.894531 98.011719 273.753906 C 100.832031 273.589844 104.511719 274.53125 106.378906 277.011719 C 108.308594 279.574219 107.613281 282.835938 107 285.710938 C 106.453125 288.28125 105.933594 290.707031 107.367188 292.167969 C 108.175781 292.992188 109.0625 292.988281 110.40625 292.980469 C 111.796875 292.96875 113.519531 292.957031 115.871094 293.855469 C 116.550781 294.117188 122.574219 296.558594 124.570312 301.917969 C 126.570312 307.289062 123.894531 314.316406 118.066406 319.003906 C 117.996094 319.058594 117.914062 319.089844 117.828125 319.089844 " fill-opacity="1" fill-rule="nonzero"/><path fill="#0c2840" d="M 117.5 316.761719 C 117.570312 316.449219 117.648438 316.136719 117.695312 315.820312 L 117.886719 314.648438 C 117.917969 314.453125 117.957031 314.257812 117.980469 314.0625 L 118.042969 313.476562 L 118.164062 312.300781 C 118.1875 311.519531 118.261719 310.734375 118.21875 309.953125 C 118.179688 306.84375 117.394531 303.730469 115.546875 301.296875 L 115.199219 300.84375 L 114.824219 300.414062 C 114.582031 300.121094 114.289062 299.875 114.023438 299.605469 C 113.453125 299.097656 112.851562 298.613281 112.199219 298.199219 C 111.558594 297.769531 110.867188 297.40625 110.167969 297.050781 C 109.460938 296.710938 108.738281 296.386719 108 296.101562 C 105.039062 294.933594 101.914062 294.03125 98.871094 292.828125 C 95.824219 291.640625 92.863281 290.113281 90.261719 288.089844 C 87.648438 286.078125 85.429688 283.585938 83.675781 280.828125 C 82.789062 279.449219 82.027344 278 81.367188 276.511719 C 80.714844 275.015625 80.179688 273.476562 79.75 271.910156 L 80 271.835938 C 81.015625 274.890625 82.414062 277.820312 84.242188 280.449219 C 85.152344 281.765625 86.167969 283.003906 87.277344 284.148438 C 88.390625 285.285156 89.589844 286.335938 90.871094 287.273438 C 93.433594 289.164062 96.324219 290.542969 99.320312 291.652344 C 100.820312 292.210938 102.347656 292.703125 103.886719 293.195312 C 105.429688 293.6875 106.984375 294.171875 108.519531 294.765625 C 109.289062 295.054688 110.050781 295.382812 110.804688 295.730469 C 111.550781 296.101562 112.300781 296.484375 113.007812 296.949219 C 113.726562 297.390625 114.398438 297.917969 115.042969 298.476562 C 115.347656 298.777344 115.675781 299.054688 115.953125 299.378906 L 116.386719 299.855469 L 116.78125 300.367188 C 117.054688 300.695312 117.277344 301.0625 117.515625 301.421875 C 117.746094 301.78125 117.9375 302.164062 118.148438 302.539062 C 118.320312 302.929688 118.503906 303.320312 118.664062 303.710938 C 118.804688 304.117188 118.953125 304.515625 119.078125 304.921875 C 119.574219 306.554688 119.777344 308.242188 119.816406 309.914062 C 119.867188 310.753906 119.792969 311.582031 119.769531 312.417969 L 119.648438 313.65625 L 119.582031 314.273438 C 119.558594 314.480469 119.519531 314.683594 119.488281 314.886719 L 119.292969 316.113281 C 119.234375 316.523438 119.128906 316.917969 119.046875 317.324219 L 118.953125 317.734375 C 118.59375 318.070312 118.21875 318.394531 117.828125 318.707031 C 117.730469 318.023438 117.621094 317.378906 117.5 316.761719 " fill-opacity="1" fill-rule="nonzero"/><path fill="#ffffff" d="M 114.445312 319.542969 C 114.898438 318.058594 116.070312 313.503906 113.941406 308.613281 C 113.566406 307.75 110.878906 301.570312 105.992188 300.902344 C 101.871094 300.335938 99.804688 304.191406 97.339844 303.039062 C 94.183594 301.5625 96.230469 294.613281 92.515625 292.746094 C 90.617188 291.789062 88.183594 292.648438 87.378906 292.929688 C 85.402344 293.628906 85.179688 294.550781 82.558594 296.289062 C 82.105469 296.589844 77.351562 299.699219 76.269531 298.644531 C 75.472656 297.867188 77.609375 295.765625 76.757812 292.957031 C 76.679688 292.699219 76.113281 290.921875 74.453125 290.050781 C 72.910156 289.242188 71.277344 289.664062 69.925781 290.039062 C 66.140625 291.078125 65.078125 293.199219 64.128906 292.773438 C 62.691406 292.121094 64.730469 287.042969 64.492188 280.019531 C 64.347656 275.691406 64.152344 269.960938 60.199219 267.078125 C 57.449219 265.070312 53.328125 264.769531 50.339844 266.285156 C 44.464844 269.253906 43.246094 279.050781 45.738281 285.15625 C 47.082031 288.453125 48.75 288.820312 49.511719 292.394531 C 50.589844 297.460938 47.726562 299.035156 48.839844 302.699219 C 50.347656 307.648438 57.605469 311.460938 63.335938 310.597656 C 67.035156 310.035156 68.6875 307.738281 70.246094 308.691406 C 72.777344 310.242188 69.453125 316.972656 72.429688 319.390625 C 74.761719 321.28125 79.421875 319.289062 80.332031 318.902344 C 84.980469 316.914062 86.3125 313.289062 87.941406 313.828125 C 89.933594 314.488281 88.175781 319.980469 90.839844 321.757812 C 93.433594 323.480469 98.691406 320.675781 103.261719 318.238281 C 107.472656 315.992188 109.308594 314.234375 111.339844 314.964844 C 113.128906 315.609375 113.992188 317.796875 114.445312 319.542969 " fill-opacity="1" fill-rule="nonzero"/><path fill="#0c2840" d="M 87.601562 313.390625 C 87.75 313.390625 87.902344 313.417969 88.058594 313.46875 C 89.230469 313.855469 89.355469 315.390625 89.488281 317.015625 C 89.628906 318.695312 89.785156 320.597656 91.050781 321.4375 C 93.457031 323.039062 98.792969 320.191406 103.085938 317.902344 C 104.167969 317.324219 105.09375 316.78125 105.90625 316.296875 C 108.332031 314.871094 109.796875 314.007812 111.46875 314.609375 C 112.734375 315.0625 113.722656 316.253906 114.414062 318.152344 C 114.914062 315.871094 115.171875 312.394531 113.59375 308.765625 C 112.894531 307.15625 110.28125 301.871094 105.941406 301.277344 C 103.941406 301.003906 102.433594 301.84375 101.101562 302.589844 C 99.789062 303.328125 98.546875 304.023438 97.175781 303.382812 C 95.480469 302.585938 95.132812 300.433594 94.800781 298.351562 C 94.457031 296.199219 94.101562 293.96875 92.34375 293.085938 C 90.59375 292.203125 88.269531 293.019531 87.503906 293.289062 C 86.425781 293.671875 85.917969 294.109375 85.148438 294.773438 C 84.585938 295.261719 83.890625 295.863281 82.765625 296.605469 C 81.132812 297.6875 77.199219 300.082031 76.003906 298.914062 C 75.488281 298.410156 75.746094 297.671875 76.042969 296.816406 C 76.398438 295.804688 76.839844 294.542969 76.394531 293.066406 C 76.300781 292.753906 75.753906 291.160156 74.277344 290.386719 C 72.835938 289.632812 71.277344 290.058594 70.023438 290.40625 C 68.003906 290.960938 66.804688 291.816406 65.929688 292.445312 C 65.15625 293 64.597656 293.398438 63.972656 293.117188 C 62.953125 292.65625 63.171875 291.019531 63.542969 288.308594 C 63.828125 286.191406 64.222656 283.292969 64.113281 280.035156 C 63.972656 275.867188 63.78125 270.160156 59.976562 267.382812 C 57.375 265.484375 53.394531 265.167969 50.507812 266.625 C 44.941406 269.4375 43.5625 278.820312 46.089844 285.015625 C 46.652344 286.390625 47.269531 287.238281 47.863281 288.054688 C 48.671875 289.160156 49.433594 290.203125 49.882812 292.316406 C 50.460938 295.042969 49.9375 296.804688 49.472656 298.359375 C 49.058594 299.742188 48.703125 300.941406 49.203125 302.589844 C 50.636719 307.296875 57.609375 311.078125 63.28125 310.21875 C 64.929688 309.972656 66.175781 309.355469 67.175781 308.859375 C 68.433594 308.238281 69.425781 307.746094 70.441406 308.367188 C 71.851562 309.226562 71.714844 311.285156 71.570312 313.457031 C 71.421875 315.667969 71.269531 317.957031 72.667969 319.09375 C 74.039062 320.207031 76.773438 320.007812 80.179688 318.550781 C 82.546875 317.539062 84.050781 316.074219 85.152344 315 C 86.085938 314.089844 86.800781 313.390625 87.601562 313.390625 Z M 92.847656 322.667969 C 92.003906 322.667969 91.253906 322.488281 90.628906 322.074219 C 89.054688 321.027344 88.882812 318.929688 88.730469 317.078125 C 88.621094 315.710938 88.511719 314.417969 87.820312 314.191406 C 87.289062 314.011719 86.71875 314.53125 85.683594 315.546875 C 84.539062 316.660156 82.976562 318.183594 80.480469 319.25 C 76.75 320.84375 73.808594 321 72.191406 319.683594 C 70.484375 318.300781 70.65625 315.699219 70.8125 313.40625 C 70.941406 311.46875 71.0625 309.636719 70.046875 309.015625 C 69.417969 308.632812 68.746094 308.929688 67.515625 309.539062 C 66.464844 310.058594 65.160156 310.703125 63.394531 310.972656 C 57.394531 311.878906 50.007812 307.835938 48.476562 302.8125 C 47.910156 300.941406 48.3125 299.582031 48.746094 298.140625 C 49.203125 296.601562 49.679688 295.011719 49.136719 292.472656 C 48.722656 290.519531 48.039062 289.585938 47.25 288.503906 C 46.65625 287.6875 45.984375 286.765625 45.386719 285.300781 C 42.734375 278.808594 44.246094 268.9375 50.167969 265.945312 C 53.289062 264.367188 57.601562 264.714844 60.425781 266.769531 C 64.527344 269.765625 64.726562 275.683594 64.871094 280.007812 C 64.984375 283.335938 64.585938 286.269531 64.292969 288.410156 C 64.019531 290.445312 63.78125 292.195312 64.285156 292.425781 C 64.503906 292.523438 64.863281 292.273438 65.488281 291.828125 C 66.355469 291.203125 67.671875 290.261719 69.824219 289.671875 C 71.132812 289.3125 72.921875 288.820312 74.628906 289.714844 C 76.332031 290.609375 76.964844 292.335938 77.121094 292.847656 C 77.640625 294.558594 77.132812 296.007812 76.761719 297.066406 C 76.558594 297.652344 76.363281 298.207031 76.535156 298.371094 C 77.03125 298.855469 79.585938 297.800781 82.347656 295.972656 C 83.429688 295.257812 84.105469 294.671875 84.652344 294.199219 C 85.425781 293.53125 86.035156 293 87.25 292.574219 C 88.089844 292.277344 90.644531 291.375 92.6875 292.40625 C 94.789062 293.464844 95.195312 295.996094 95.550781 298.234375 C 95.867188 300.207031 96.164062 302.070312 97.5 302.695312 C 98.515625 303.167969 99.492188 302.621094 100.730469 301.929688 C 102.09375 301.164062 103.789062 300.214844 106.046875 300.523438 C 110.648438 301.15625 113.34375 306.285156 114.289062 308.460938 C 116.300781 313.085938 115.476562 317.457031 114.808594 319.652344 C 114.757812 319.816406 114.617188 319.929688 114.4375 319.921875 C 114.265625 319.917969 114.117188 319.804688 114.078125 319.636719 C 113.457031 317.234375 112.492188 315.785156 111.210938 315.324219 C 109.875 314.84375 108.601562 315.59375 106.292969 316.953125 C 105.472656 317.4375 104.539062 317.988281 103.441406 318.570312 C 99.792969 320.519531 95.769531 322.667969 92.847656 322.667969 " fill-opacity="1" fill-rule="nonzero"/><path fill="#0c2840" d="M 115.144531 324.257812 C 115.859375 323.324219 115.945312 322.292969 115.929688 321.277344 C 115.933594 320.261719 115.890625 319.238281 115.761719 318.214844 C 115.632812 317.195312 115.457031 316.171875 115.144531 315.167969 C 114.839844 314.167969 114.4375 313.183594 113.898438 312.261719 C 113.347656 311.34375 112.65625 310.503906 111.855469 309.777344 C 111.046875 309.0625 110.09375 308.464844 109.0625 308.101562 C 108.039062 307.71875 106.976562 307.542969 105.941406 307.46875 C 104.902344 307.390625 103.882812 307.402344 102.878906 307.449219 C 100.867188 307.550781 98.90625 307.746094 96.945312 307.871094 C 94.984375 308.003906 93.027344 308.082031 91.070312 308.070312 C 90.09375 308.066406 89.117188 308.039062 88.140625 307.992188 C 87.652344 307.96875 87.164062 307.933594 86.675781 307.90625 L 85.199219 307.800781 C 83.234375 307.65625 81.277344 307.492188 79.335938 307.234375 C 77.398438 306.980469 75.472656 306.644531 73.585938 306.175781 C 71.695312 305.71875 69.855469 305.085938 68.089844 304.300781 C 64.554688 302.75 61.375 300.375 59.0625 297.273438 C 56.714844 294.195312 55.207031 290.507812 54.359375 286.699219 C 53.941406 284.785156 53.667969 282.839844 53.535156 280.878906 C 53.390625 278.921875 53.378906 276.949219 53.480469 274.984375 C 53.484375 274.863281 53.394531 274.761719 53.273438 274.753906 C 53.15625 274.75 53.054688 274.839844 53.046875 274.953125 C 52.878906 276.933594 52.824219 278.925781 52.902344 280.917969 C 52.988281 282.90625 53.214844 284.894531 53.597656 286.859375 C 53.988281 288.816406 54.53125 290.757812 55.292969 292.617188 C 55.476562 293.085938 55.691406 293.542969 55.898438 294 C 56.121094 294.453125 56.335938 294.910156 56.585938 295.347656 C 56.820312 295.792969 57.089844 296.222656 57.347656 296.65625 C 57.628906 297.078125 57.894531 297.507812 58.199219 297.910156 C 60.566406 301.207031 63.886719 303.785156 67.554688 305.46875 C 69.386719 306.324219 71.300781 306.996094 73.246094 307.5 C 75.191406 308.007812 77.164062 308.378906 79.140625 308.664062 C 81.121094 308.949219 83.105469 309.148438 85.082031 309.308594 L 86.5625 309.425781 C 87.0625 309.460938 87.558594 309.503906 88.058594 309.527344 C 89.058594 309.582031 90.058594 309.621094 91.058594 309.632812 C 93.058594 309.660156 95.058594 309.59375 97.042969 309.476562 C 99.03125 309.363281 101.007812 309.179688 102.949219 309.101562 C 103.917969 309.058594 104.878906 309.050781 105.816406 309.121094 C 106.75 309.195312 107.652344 309.351562 108.484375 309.667969 C 109.324219 309.964844 110.074219 310.441406 110.746094 311.03125 C 111.40625 311.636719 111.980469 312.339844 112.449219 313.117188 C 112.90625 313.90625 113.257812 314.761719 113.527344 315.652344 C 113.800781 316.539062 113.957031 317.476562 114.074219 318.414062 C 114.191406 319.355469 114.230469 320.3125 114.222656 321.273438 C 114.195312 322.234375 114.179688 323.183594 114.710938 324.21875 L 114.714844 324.21875 C 114.777344 324.34375 114.933594 324.394531 115.058594 324.328125 C 115.09375 324.3125 115.125 324.285156 115.144531 324.257812 " fill-opacity="1" fill-rule="nonzero"/><path fill="#ffffff" d="M 116.648438 113.40625 L 146.851562 107.800781 L 171.675781 120.460938 L 168.578125 103.769531 L 171.863281 103.164062 C 176.660156 102.273438 179.832031 97.660156 178.941406 92.859375 L 171.296875 51.652344 C 170.40625 46.851562 165.792969 43.679688 160.992188 44.570312 L 61.433594 63.042969 C 56.632812 63.929688 53.464844 68.546875 54.355469 73.34375 L 62 114.554688 C 62.890625 119.355469 67.503906 122.523438 72.304688 121.632812 L 84.285156 119.410156 L 116.648438 113.40625 " fill-opacity="1" fill-rule="nonzero"/><path fill="#0c2840" d="M 70.6875 122.164062 C 66.332031 122.164062 62.449219 119.054688 61.628906 114.621094 L 53.980469 73.414062 C 53.054688 68.417969 56.367188 63.597656 61.363281 62.667969 L 160.921875 44.199219 C 163.34375 43.75 165.796875 44.269531 167.824219 45.664062 C 169.855469 47.058594 171.21875 49.160156 171.667969 51.582031 L 179.3125 92.789062 C 179.761719 95.210938 179.242188 97.664062 177.847656 99.691406 C 176.453125 101.722656 174.351562 103.085938 171.929688 103.535156 L 169.023438 104.078125 L 172.050781 120.390625 C 172.078125 120.535156 172.019531 120.679688 171.902344 120.765625 C 171.785156 120.851562 171.632812 120.863281 171.503906 120.800781 L 146.792969 108.199219 L 116.71875 113.777344 C 116.507812 113.816406 116.3125 113.679688 116.273438 113.472656 C 116.234375 113.269531 116.371094 113.070312 116.578125 113.03125 L 146.78125 107.429688 C 146.863281 107.414062 146.945312 107.425781 147.023438 107.464844 L 171.164062 119.773438 L 168.207031 103.839844 C 168.167969 103.636719 168.304688 103.433594 168.511719 103.398438 L 171.792969 102.789062 C 174.011719 102.375 175.941406 101.125 177.222656 99.261719 C 178.5 97.398438 178.976562 95.148438 178.566406 92.929688 L 170.921875 51.722656 C 170.507812 49.5 169.257812 47.570312 167.394531 46.292969 C 165.53125 45.011719 163.285156 44.535156 161.0625 44.945312 L 61.503906 63.414062 C 56.917969 64.265625 53.878906 68.691406 54.730469 73.277344 L 62.375 114.484375 C 63.226562 119.070312 67.648438 122.109375 72.234375 121.257812 L 84.21875 119.035156 C 84.425781 118.996094 84.621094 119.132812 84.660156 119.339844 C 84.699219 119.546875 84.5625 119.746094 84.355469 119.78125 L 72.375 122.003906 C 71.808594 122.113281 71.242188 122.164062 70.6875 122.164062 " fill-opacity="1" fill-rule="nonzero"/><path fill="#0c2840" d="M 98.273438 117.195312 C 98.09375 117.195312 97.933594 117.066406 97.898438 116.886719 C 97.863281 116.679688 97.996094 116.480469 98.203125 116.441406 L 103.453125 115.46875 C 103.660156 115.429688 103.859375 115.566406 103.898438 115.773438 C 103.9375 115.980469 103.800781 116.175781 103.59375 116.214844 L 98.34375 117.1875 C 98.320312 117.191406 98.296875 117.195312 98.273438 117.195312 " fill-opacity="1" fill-rule="nonzero"/><path fill="#0c2840" d="M 250.132812 250.792969 C 249.945312 250.792969 249.78125 250.652344 249.757812 250.457031 C 249.730469 250.25 249.882812 250.058594 250.089844 250.035156 L 252.789062 249.714844 C 252.996094 249.6875 253.183594 249.839844 253.210938 250.046875 C 253.234375 250.253906 253.085938 250.445312 252.878906 250.46875 L 250.179688 250.789062 C 250.164062 250.792969 250.148438 250.792969 250.132812 250.792969 " fill-opacity="1" fill-rule="nonzero"/><path fill="#0c2840" d="M 294.433594 298.988281 C 294.246094 298.988281 294.082031 298.84375 294.058594 298.652344 C 294.035156 298.445312 294.183594 298.253906 294.390625 298.230469 L 310.234375 296.34375 C 314.339844 295.855469 317.28125 292.121094 316.792969 288.019531 L 312.382812 250.941406 C 312.144531 248.953125 311.148438 247.175781 309.578125 245.9375 C 308.003906 244.699219 306.042969 244.144531 304.054688 244.382812 L 266.941406 248.796875 C 266.734375 248.820312 266.542969 248.671875 266.519531 248.464844 C 266.492188 248.257812 266.640625 248.066406 266.851562 248.042969 L 303.964844 243.628906 C 306.15625 243.367188 308.316406 243.976562 310.046875 245.339844 C 311.777344 246.703125 312.875 248.660156 313.136719 250.851562 L 317.546875 287.925781 C 318.085938 292.449219 314.84375 296.5625 310.324219 297.101562 L 294.480469 298.984375 C 294.464844 298.988281 294.449219 298.988281 294.433594 298.988281 " fill-opacity="1" fill-rule="nonzero"/><path fill="#0c2840" d="M 270.941406 301.78125 C 270.75 301.78125 270.589844 301.640625 270.5625 301.445312 C 270.539062 301.238281 270.691406 301.050781 270.898438 301.023438 L 275.632812 300.460938 C 275.84375 300.4375 276.03125 300.585938 276.054688 300.792969 C 276.082031 301.003906 275.933594 301.191406 275.722656 301.214844 L 270.988281 301.777344 C 270.972656 301.78125 270.957031 301.78125 270.941406 301.78125 " fill-opacity="1" fill-rule="nonzero"/><path fill="#0c2840" d="M 219.753906 307.8125 C 217.914062 307.8125 216.136719 307.199219 214.667969 306.042969 C 212.933594 304.679688 211.835938 302.722656 211.574219 300.53125 L 207.167969 263.453125 C 206.90625 261.265625 207.511719 259.105469 208.875 257.375 C 210.242188 255.640625 212.199219 254.542969 214.386719 254.285156 L 216.960938 253.976562 L 215.222656 239.335938 C 215.203125 239.191406 215.269531 239.050781 215.390625 238.972656 C 215.511719 238.894531 215.667969 238.890625 215.792969 238.964844 L 237.019531 251.589844 L 245.753906 250.550781 C 245.960938 250.527344 246.152344 250.675781 246.175781 250.882812 C 246.199219 251.09375 246.050781 251.28125 245.84375 251.304688 L 236.980469 252.359375 C 236.898438 252.371094 236.8125 252.351562 236.742188 252.308594 L 216.066406 240.011719 L 217.761719 254.265625 C 217.785156 254.472656 217.636719 254.660156 217.429688 254.683594 L 214.476562 255.039062 C 212.488281 255.273438 210.710938 256.269531 209.472656 257.84375 C 208.234375 259.414062 207.683594 261.378906 207.917969 263.367188 L 212.328125 300.441406 C 212.566406 302.429688 213.5625 304.207031 215.136719 305.445312 C 216.710938 306.683594 218.667969 307.234375 220.65625 307 L 267.148438 301.472656 C 267.355469 301.445312 267.546875 301.59375 267.570312 301.804688 C 267.59375 302.011719 267.445312 302.199219 267.238281 302.222656 L 220.746094 307.753906 C 220.417969 307.792969 220.085938 307.8125 219.753906 307.8125 " fill-opacity="1" fill-rule="nonzero"/><path fill="#0c2840" d="M 160.070312 150.183594 C 155.972656 151.714844 156.640625 156.261719 153.414062 157.445312 C 150.390625 158.546875 148.441406 155.042969 142.550781 153.355469 C 141.175781 152.964844 135.136719 151.390625 129.332031 153.777344 C 123.234375 156.289062 117.046875 163.320312 118.078125 171.070312 C 119.039062 178.324219 125.789062 182.199219 126.746094 182.726562 C 136.492188 188.125 148.070312 182.128906 153.921875 179.097656 C 160.765625 175.554688 164.214844 170.671875 168.128906 165.601562 C 171.75 160.90625 176.507812 154.734375 174.546875 150.003906 C 173.996094 148.679688 172.625 146.753906 170.90625 146.625 C 169.238281 146.496094 168.632812 148.167969 165.9375 149.308594 C 163.164062 150.480469 162.328125 149.335938 160.070312 150.183594 " fill-opacity="1" fill-rule="nonzero"/><path fill="#0c2840" d="M 159.582031 150.105469 C 159.867188 151.863281 158.675781 153.523438 156.914062 153.808594 C 155.152344 154.09375 153.496094 152.898438 153.207031 151.140625 C 152.921875 149.378906 154.117188 147.722656 155.875 147.433594 C 157.636719 147.148438 159.296875 148.34375 159.582031 150.105469 " fill-opacity="1" fill-rule="nonzero"/><path fill="#0c2840" d="M 126.710938 314.300781 C 125.648438 316.457031 123.40625 321.242188 122.242188 326.097656 C 121.769531 328.0625 121.597656 329.511719 122.042969 331.101562 C 122.6875 333.386719 124.089844 334.109375 123.777344 334.757812 C 123.117188 336.121094 115.539062 335.785156 113.027344 331.644531 C 112.222656 330.324219 112.453125 329.457031 113.382812 321.476562 C 114.21875 314.3125 114.234375 313.289062 115.28125 312.425781 C 118.574219 309.710938 125.792969 313.777344 126.710938 314.300781 " fill-opacity="1" fill-rule="nonzero"/><path fill="#0c2840" d="M 118.261719 311.882812 C 117.210938 311.882812 116.253906 312.117188 115.523438 312.71875 C 114.695312 313.398438 114.585938 314.351562 113.980469 319.617188 L 113.757812 321.523438 C 113.652344 322.441406 113.554688 323.269531 113.464844 324.011719 C 112.808594 329.539062 112.710938 330.390625 113.351562 331.449219 C 115.085938 334.304688 119.378906 335.195312 121.671875 335.085938 C 122.816406 335.035156 123.351562 334.761719 123.433594 334.59375 C 123.484375 334.492188 123.242188 334.160156 123.03125 333.863281 C 122.636719 333.316406 122.039062 332.484375 121.679688 331.203125 C 121.203125 329.519531 121.398438 327.964844 121.871094 326.007812 C 122.898438 321.730469 124.765625 317.421875 126.210938 314.457031 C 125.015625 313.800781 121.269531 311.882812 118.261719 311.882812 Z M 121.273438 335.855469 C 118.65625 335.855469 114.515625 334.828125 112.703125 331.84375 C 111.921875 330.558594 112.027344 329.675781 112.710938 323.921875 C 112.800781 323.179688 112.898438 322.355469 113.003906 321.433594 L 113.226562 319.53125 C 113.875 313.878906 113.976562 313.007812 115.039062 312.132812 C 118.429688 309.339844 125.515625 313.175781 126.898438 313.972656 C 127.074219 314.074219 127.136719 314.289062 127.050781 314.46875 C 125.605469 317.402344 123.660156 321.820312 122.609375 326.1875 C 122.15625 328.070312 121.976562 329.464844 122.410156 331 C 122.734375 332.148438 123.261719 332.882812 123.648438 333.421875 C 124.03125 333.957031 124.363281 334.417969 124.117188 334.925781 C 123.785156 335.605469 122.625 335.800781 121.707031 335.847656 C 121.566406 335.851562 121.421875 335.855469 121.273438 335.855469 " fill-opacity="1" fill-rule="nonzero"/><path fill="#ffffff" d="M 120.375 333.726562 C 120.359375 333.726562 120.34375 333.726562 120.328125 333.726562 C 118.402344 333.488281 116.941406 332.636719 115.988281 331.191406 C 113.492188 327.414062 115.3125 320.941406 115.390625 320.667969 C 115.449219 320.464844 115.660156 320.351562 115.863281 320.40625 C 116.0625 320.464844 116.179688 320.675781 116.121094 320.878906 C 116.101562 320.941406 114.320312 327.289062 116.621094 330.773438 C 117.449219 332.023438 118.726562 332.761719 120.421875 332.972656 C 120.628906 332.996094 120.777344 333.1875 120.753906 333.394531 C 120.730469 333.585938 120.566406 333.726562 120.375 333.726562 " fill-opacity="1" fill-rule="nonzero"/><g clip-path="url(#e533ef9095)"><path fill="#0c2840" d="M 161.085938 323.257812 C 161.085938 323.257812 159.792969 327.8125 160.191406 333.320312 C 160.265625 334.339844 161.078125 335.15625 162.097656 335.246094 C 166.257812 335.613281 177.140625 336.449219 185.289062 335.953125 C 185.804688 335.917969 186.039062 335.285156 185.660156 334.925781 C 183.542969 332.90625 178.367188 328.140625 174.667969 326.136719 C 169.910156 323.566406 161.085938 323.257812 161.085938 323.257812 " fill-opacity="1" fill-rule="nonzero"/></g><g clip-path="url(#7fe171d9a7)"><path fill="#0c2840" d="M 161.375 323.648438 C 161.109375 324.734375 160.238281 328.699219 160.574219 333.292969 C 160.632812 334.132812 161.289062 334.792969 162.128906 334.867188 C 166.390625 335.246094 177.175781 336.066406 185.265625 335.574219 C 185.390625 335.566406 185.4375 335.472656 185.453125 335.429688 C 185.46875 335.390625 185.492188 335.289062 185.398438 335.203125 C 183.339844 333.238281 178.15625 328.457031 174.488281 326.472656 C 170.355469 324.238281 162.960938 323.734375 161.375 323.648438 Z M 179.625 336.484375 C 172.707031 336.484375 165.394531 335.917969 162.0625 335.625 C 160.847656 335.515625 159.902344 334.558594 159.8125 333.347656 C 159.414062 327.835938 160.667969 323.34375 160.71875 323.152344 C 160.765625 322.984375 160.914062 322.871094 161.097656 322.878906 C 161.460938 322.890625 170.070312 323.21875 174.847656 325.800781 C 178.597656 327.832031 183.84375 332.667969 185.921875 334.652344 C 186.207031 334.921875 186.300781 335.324219 186.167969 335.691406 C 186.03125 336.0625 185.703125 336.308594 185.3125 336.328125 C 183.515625 336.441406 181.585938 336.484375 179.625 336.484375 " fill-opacity="1" fill-rule="nonzero"/></g><path fill="#ffffff" d="M 180.167969 333.726562 C 180.128906 333.726562 180.089844 333.722656 180.050781 333.707031 C 179.542969 333.617188 169.238281 333.128906 162.445312 332.828125 C 162.234375 332.820312 162.074219 332.640625 162.082031 332.433594 C 162.09375 332.222656 162.277344 332.0625 162.480469 332.070312 C 167.703125 332.300781 179.894531 332.855469 180.289062 332.988281 C 180.488281 333.054688 180.597656 333.269531 180.527344 333.46875 C 180.476562 333.628906 180.328125 333.726562 180.167969 333.726562 " fill-opacity="1" fill-rule="nonzero"/><path fill="#ffffff" d="M 180.9375 213.820312 C 180.9375 213.820312 179.796875 294.972656 183.972656 325.148438 C 183.972656 325.148438 180.921875 333.191406 168.207031 328.90625 C 157.050781 325.148438 151.101562 328.101562 151.101562 328.101562 C 151.101562 328.101562 150.820312 275.839844 154.082031 256.78125 C 154.082031 256.78125 141.777344 292.460938 132.550781 321.609375 C 132.550781 321.609375 112.980469 323.359375 98.484375 311.136719 C 98.484375 311.136719 105.046875 265.011719 158.066406 209.714844 L 180.9375 213.820312 " fill-opacity="1" fill-rule="nonzero"/><path fill="#0c2840" d="M 157.574219 326.609375 C 160.332031 326.609375 163.925781 327.0625 168.328125 328.546875 C 179.859375 332.433594 183.210938 325.917969 183.582031 325.097656 C 179.597656 296.117188 180.484375 219.761719 180.554688 214.136719 L 158.203125 210.125 C 130.941406 238.59375 116.257812 264.546875 108.738281 281.316406 C 101.183594 298.171875 99.160156 309.347656 98.890625 310.980469 C 112.199219 322.074219 129.949219 321.390625 132.265625 321.246094 C 141.378906 292.46875 153.597656 257.011719 153.722656 256.65625 C 153.789062 256.472656 153.984375 256.363281 154.175781 256.414062 C 154.367188 256.460938 154.488281 256.648438 154.457031 256.84375 C 151.417969 274.589844 151.460938 321.820312 151.476562 327.535156 C 152.394531 327.195312 154.445312 326.609375 157.574219 326.609375 Z M 174.964844 330.53125 C 173.050781 330.53125 170.777344 330.175781 168.085938 329.265625 C 157.207031 325.601562 151.328125 328.414062 151.269531 328.441406 C 151.152344 328.5 151.011719 328.492188 150.902344 328.425781 C 150.789062 328.355469 150.722656 328.234375 150.71875 328.101562 C 150.71875 327.613281 150.503906 282.042969 153.128906 260.730469 C 149.707031 270.726562 140.277344 298.457031 132.910156 321.722656 C 132.867188 321.867188 132.734375 321.972656 132.582031 321.988281 C 132.386719 322.003906 112.691406 323.609375 98.238281 311.425781 C 98.136719 311.339844 98.089844 311.210938 98.105469 311.082031 C 98.125 310.964844 99.851562 299.285156 108.046875 281.007812 C 115.601562 264.148438 130.367188 238.054688 157.792969 209.453125 C 157.882812 209.363281 158.007812 209.320312 158.136719 209.34375 L 181.007812 213.449219 C 181.191406 213.480469 181.320312 213.640625 181.320312 213.828125 C 181.308594 214.636719 180.226562 295.296875 184.347656 325.097656 C 184.355469 325.160156 184.347656 325.222656 184.324219 325.285156 C 184.300781 325.347656 182.230469 330.53125 174.964844 330.53125 " fill-opacity="1" fill-rule="nonzero"/><path fill="#0c2840" d="M 156.390625 251.21875 C 156.339844 251.21875 156.292969 251.210938 156.246094 251.191406 C 156.050781 251.109375 155.957031 250.886719 156.039062 250.695312 C 157.4375 247.304688 159.144531 243.425781 160.515625 240.308594 C 160.894531 239.441406 161.257812 238.621094 161.589844 237.863281 C 161.636719 237.753906 161.734375 237.675781 161.847656 237.648438 L 168.121094 236.175781 C 168.324219 236.128906 168.527344 236.257812 168.578125 236.460938 C 168.625 236.664062 168.496094 236.867188 168.292969 236.917969 L 162.207031 238.34375 C 161.898438 239.050781 161.5625 239.8125 161.210938 240.613281 C 159.839844 243.726562 158.136719 247.605469 156.738281 250.984375 C 156.679688 251.128906 156.539062 251.21875 156.390625 251.21875 " fill-opacity="1" fill-rule="nonzero"/><path fill="#0c2840" d="M 223.5625 171.242188 C 221.238281 180.066406 215.304688 191.976562 205.550781 193.28125 C 199.144531 194.140625 191.761719 185.570312 187.453125 179.589844 C 184.953125 176.117188 180.902344 174.105469 176.625 174.175781 L 152.109375 174.523438 C 149.9375 174.550781 148.1875 176.304688 148.164062 178.476562 L 147.996094 193.070312 L 145.574219 216.050781 C 156.648438 207.804688 169.695312 214.871094 176.152344 217.027344 C 182.605469 219.1875 186.503906 215.238281 186.503906 215.238281 L 185.3125 200.402344 C 185.3125 200.402344 187.820312 209.050781 204.453125 209.5 C 224.757812 210.046875 227.976562 173.480469 227.976562 173.480469 L 223.5625 171.242188 " fill-opacity="1" fill-rule="nonzero"/><path fill="#ffffff" d="M 227.015625 165.085938 L 231.914062 160.34375 C 232.253906 160.015625 232.777344 159.976562 233.164062 160.253906 C 233.601562 160.566406 233.699219 161.171875 233.390625 161.609375 L 231.839844 163.808594 L 233.089844 166.898438 C 233.472656 167.851562 233.222656 168.9375 232.464844 169.628906 L 230.453125 171.453125 C 229.445312 172.363281 227.984375 172.566406 226.765625 171.960938 L 225.949219 171.550781 C 224.691406 170.925781 223.964844 169.566406 224.148438 168.171875 L 224.367188 166.527344 C 224.5 165.496094 225.476562 164.789062 226.5 164.984375 L 227.015625 165.085938 " fill-opacity="1" fill-rule="nonzero"/><path fill="#0c2840" d="M 226.152344 165.332031 C 225.855469 165.332031 225.570312 165.425781 225.320312 165.605469 C 225 165.835938 224.792969 166.183594 224.742188 166.574219 L 224.527344 168.222656 C 224.367188 169.457031 225.003906 170.65625 226.117188 171.210938 L 226.9375 171.621094 C 228.019531 172.160156 229.300781 171.984375 230.199219 171.171875 L 232.210938 169.347656 C 232.847656 168.765625 233.0625 167.839844 232.738281 167.039062 L 231.488281 163.953125 C 231.4375 163.832031 231.453125 163.695312 231.527344 163.589844 L 233.082031 161.390625 C 233.269531 161.125 233.207031 160.75 232.941406 160.5625 C 232.707031 160.390625 232.386719 160.414062 232.175781 160.617188 L 227.28125 165.359375 C 227.191406 165.445312 227.066406 165.480469 226.945312 165.457031 L 226.425781 165.359375 C 226.335938 165.339844 226.242188 165.332031 226.152344 165.332031 Z M 228.246094 172.6875 C 227.6875 172.6875 227.125 172.5625 226.597656 172.300781 L 225.78125 171.894531 C 224.375 171.191406 223.570312 169.675781 223.773438 168.121094 L 223.988281 166.476562 C 224.066406 165.871094 224.382812 165.34375 224.875 164.988281 C 225.371094 164.632812 225.96875 164.5 226.570312 164.613281 L 226.894531 164.675781 L 231.648438 160.070312 C 232.121094 159.613281 232.851562 159.558594 233.386719 159.945312 C 233.988281 160.378906 234.128906 161.222656 233.703125 161.828125 L 232.269531 163.859375 L 233.441406 166.757812 C 233.882812 167.851562 233.59375 169.117188 232.71875 169.910156 L 230.707031 171.734375 C 230.011719 172.363281 229.136719 172.6875 228.246094 172.6875 " fill-opacity="1" fill-rule="nonzero"/><path fill="#ffffff" d="M 227.015625 165.085938 L 228.847656 166.4375 C 228.847656 166.4375 228.242188 168.207031 227.015625 167.480469 L 227.015625 165.085938 " fill-opacity="1" fill-rule="nonzero"/><path fill="#0c2840" d="M 227.589844 168.035156 C 227.367188 168.035156 227.109375 167.976562 226.820312 167.808594 C 226.644531 167.699219 226.582031 167.46875 226.691406 167.285156 C 226.796875 167.105469 227.03125 167.046875 227.210938 167.152344 C 227.414062 167.273438 227.59375 167.304688 227.753906 167.246094 C 228.03125 167.144531 228.25 166.820312 228.378906 166.5625 L 226.792969 165.390625 C 226.621094 165.265625 226.585938 165.027344 226.710938 164.859375 C 226.835938 164.691406 227.074219 164.652344 227.242188 164.78125 L 229.070312 166.132812 C 229.207031 166.230469 229.261719 166.40625 229.207031 166.5625 C 229.167969 166.671875 228.808594 167.667969 228.019531 167.957031 C 227.902344 168 227.757812 168.035156 227.589844 168.035156 " fill-opacity="1" fill-rule="nonzero"/><path fill="#ffffff" d="M 232.171875 164.640625 L 230.109375 167.195312 L 232.171875 164.640625 " fill-opacity="1" fill-rule="nonzero"/><path fill="#0c2840" d="M 230.109375 167.578125 C 230.027344 167.578125 229.941406 167.550781 229.871094 167.492188 C 229.707031 167.359375 229.683594 167.121094 229.816406 166.957031 L 231.875 164.402344 C 232.007812 164.238281 232.246094 164.214844 232.410156 164.34375 C 232.574219 164.476562 232.597656 164.714844 232.46875 164.878906 L 230.40625 167.433594 C 230.332031 167.527344 230.21875 167.578125 230.109375 167.578125 " fill-opacity="1" fill-rule="nonzero"/><path fill="#ffffff" d="M 232.800781 166.644531 L 231.140625 168.664062 L 232.800781 166.644531 " fill-opacity="1" fill-rule="nonzero"/><path fill="#0c2840" d="M 231.140625 169.042969 C 231.054688 169.042969 230.96875 169.015625 230.898438 168.957031 C 230.738281 168.824219 230.714844 168.585938 230.847656 168.421875 L 232.507812 166.40625 C 232.640625 166.242188 232.878906 166.21875 233.042969 166.351562 C 233.203125 166.484375 233.230469 166.726562 233.09375 166.886719 L 231.433594 168.90625 C 231.359375 168.996094 231.25 169.042969 231.140625 169.042969 " fill-opacity="1" fill-rule="nonzero"/><path fill="#ffffff" d="M 169.519531 215.714844 L 150.320312 196.296875 C 149.832031 195.800781 149.035156 195.796875 148.539062 196.285156 L 123.152344 221.382812 C 122.660156 221.871094 122.652344 222.667969 123.144531 223.164062 L 142.339844 242.582031 C 142.828125 243.078125 143.625 243.082031 144.121094 242.59375 L 169.507812 217.496094 C 170 217.007812 170.007812 216.210938 169.519531 215.714844 " fill-opacity="1" fill-rule="nonzero"/><path fill="#0c2840" d="M 149.425781 196.300781 C 149.203125 196.300781 148.976562 196.386719 148.808594 196.558594 L 123.421875 221.652344 C 123.253906 221.820312 123.160156 222.039062 123.160156 222.273438 C 123.15625 222.507812 123.246094 222.730469 123.414062 222.894531 L 142.609375 242.316406 C 142.773438 242.484375 142.996094 242.578125 143.230469 242.578125 C 143.234375 242.578125 143.234375 242.578125 143.234375 242.578125 C 143.46875 242.578125 143.6875 242.488281 143.851562 242.324219 L 169.242188 217.226562 C 169.585938 216.886719 169.589844 216.328125 169.25 215.984375 L 150.050781 196.5625 C 149.878906 196.390625 149.652344 196.300781 149.425781 196.300781 Z M 143.234375 243.335938 C 143.234375 243.335938 143.230469 243.335938 143.226562 243.335938 C 142.789062 243.335938 142.378906 243.160156 142.070312 242.851562 L 122.871094 223.429688 C 122.566406 223.117188 122.398438 222.707031 122.398438 222.269531 C 122.402344 221.832031 122.574219 221.421875 122.886719 221.113281 L 148.273438 196.015625 C 148.917969 195.382812 149.957031 195.386719 150.589844 196.027344 L 169.789062 215.449219 C 170.421875 216.09375 170.417969 217.128906 169.777344 217.765625 L 144.386719 242.863281 C 144.078125 243.167969 143.671875 243.335938 143.234375 243.335938 " fill-opacity="1" fill-rule="nonzero"/><path fill="#ffffff" d="M 165.320312 209.308594 L 156.679688 200.566406 C 156.082031 199.960938 155.109375 199.957031 154.503906 200.554688 L 152.503906 202.53125 L 163.308594 213.460938 L 165.308594 211.484375 C 165.914062 210.886719 165.917969 209.910156 165.320312 209.308594 " fill-opacity="1" fill-rule="nonzero"/><path fill="#ffffff" d="M 162.578125 203.378906 C 162.324219 203.121094 162.328125 202.710938 162.582031 202.457031 C 162.839844 202.203125 163.253906 202.203125 163.507812 202.460938 C 163.761719 202.71875 163.757812 203.128906 163.5 203.382812 C 163.246094 203.636719 162.832031 203.632812 162.578125 203.378906 Z M 164.617188 201.363281 C 163.335938 200.066406 161.246094 200.054688 159.945312 201.335938 L 157.597656 203.65625 L 162.242188 208.355469 L 164.589844 206.03125 C 165.886719 204.75 165.898438 202.660156 164.617188 201.363281 " fill-opacity="1" fill-rule="nonzero"/><path fill="#0c2840" d="M 160.460938 218.265625 L 147.664062 205.324219 L 148.738281 204.265625 L 161.53125 217.207031 L 160.460938 218.265625 " fill-opacity="1" fill-rule="nonzero"/><path fill="#0c2840" d="M 158.257812 220.441406 L 145.464844 207.5 L 146.539062 206.4375 L 159.332031 219.382812 L 158.257812 220.441406 " fill-opacity="1" fill-rule="nonzero"/><path fill="#0c2840" d="M 156.058594 222.617188 L 143.265625 209.675781 L 144.335938 208.613281 L 157.132812 221.554688 L 156.058594 222.617188 " fill-opacity="1" fill-rule="nonzero"/><path fill="#0c2840" d="M 163.277344 212.972656 C 163.183594 212.972656 163.085938 212.9375 163.011719 212.867188 L 152.828125 202.90625 C 152.675781 202.757812 152.675781 202.515625 152.824219 202.367188 C 152.96875 202.21875 153.207031 202.214844 153.359375 202.359375 L 163.542969 212.320312 C 163.691406 212.46875 163.695312 212.707031 163.550781 212.859375 C 163.476562 212.933594 163.378906 212.972656 163.277344 212.972656 " fill-opacity="1" fill-rule="nonzero"/><path fill="#ffffff" d="M 142.476562 229.238281 C 142.476562 229.238281 148.359375 235.867188 152.066406 234.9375 C 155.769531 234.007812 154.949219 231.332031 154.949219 231.332031 L 149.253906 228.296875 C 149.253906 228.296875 154.511719 229.023438 153.921875 227.234375 C 153.621094 226.3125 153.164062 226.359375 151.972656 226.339844 C 148.878906 226.292969 143.144531 225.972656 143.144531 225.972656 L 142.476562 229.238281 " fill-opacity="1" fill-rule="nonzero"/><path fill="#0c2840" d="M 142.890625 229.125 C 143.753906 230.058594 148.816406 235.359375 151.972656 234.570312 C 153.164062 234.269531 153.96875 233.761719 154.367188 233.054688 C 154.707031 232.445312 154.664062 231.851562 154.617188 231.585938 L 149.074219 228.632812 C 148.910156 228.546875 148.835938 228.355469 148.890625 228.179688 C 148.949219 228.003906 149.121094 227.894531 149.304688 227.921875 C 150.792969 228.125 153.089844 228.175781 153.539062 227.640625 C 153.566406 227.601562 153.625 227.535156 153.5625 227.351562 C 153.367188 226.757812 153.242188 226.738281 152.15625 226.722656 L 151.964844 226.71875 C 149.324219 226.679688 144.714844 226.4375 143.449219 226.371094 Z M 151.324219 235.40625 C 147.492188 235.40625 142.421875 229.75 142.195312 229.488281 C 142.113281 229.402344 142.082031 229.277344 142.105469 229.160156 L 142.769531 225.898438 C 142.808594 225.714844 142.980469 225.585938 143.164062 225.59375 C 143.222656 225.597656 148.929688 225.914062 151.976562 225.960938 L 152.167969 225.964844 C 153.21875 225.976562 153.910156 225.984375 154.28125 227.113281 C 154.441406 227.597656 154.28125 227.929688 154.121094 228.125 C 153.605469 228.742188 152.234375 228.851562 151.050781 228.824219 L 155.125 230.996094 C 155.214844 231.042969 155.28125 231.125 155.308594 231.222656 C 155.324219 231.265625 155.640625 232.335938 155.027344 233.425781 C 154.523438 234.324219 153.558594 234.957031 152.160156 235.308594 C 151.886719 235.375 151.609375 235.40625 151.324219 235.40625 " fill-opacity="1" fill-rule="nonzero"/><path fill="#ffffff" d="M 148.753906 232.386719 C 148.753906 232.386719 150.097656 233.515625 152.972656 234.644531 L 148.753906 232.386719 " fill-opacity="1" fill-rule="nonzero"/><path fill="#0c2840" d="M 152.972656 235.023438 C 152.925781 235.023438 152.878906 235.011719 152.832031 234.996094 C 149.933594 233.859375 148.566406 232.726562 148.511719 232.675781 C 148.347656 232.542969 148.328125 232.304688 148.464844 232.144531 C 148.597656 231.984375 148.835938 231.960938 149 232.097656 C 149.011719 232.105469 150.339844 233.203125 153.113281 234.289062 C 153.308594 234.367188 153.402344 234.585938 153.328125 234.78125 C 153.269531 234.929688 153.125 235.023438 152.972656 235.023438 " fill-opacity="1" fill-rule="nonzero"/><path fill="#ffffff" d="M 149.75 231.128906 C 149.75 231.128906 151.511719 232.300781 154.515625 233.515625 L 149.75 231.128906 " fill-opacity="1" fill-rule="nonzero"/><path fill="#0c2840" d="M 154.515625 233.894531 C 154.46875 233.894531 154.421875 233.886719 154.375 233.867188 C 151.371094 232.652344 149.613281 231.492188 149.539062 231.441406 C 149.363281 231.328125 149.316406 231.089844 149.433594 230.917969 C 149.550781 230.742188 149.785156 230.695312 149.960938 230.808594 C 149.976562 230.820312 151.734375 231.980469 154.660156 233.164062 C 154.855469 233.242188 154.949219 233.460938 154.867188 233.65625 C 154.808594 233.804688 154.667969 233.894531 154.515625 233.894531 " fill-opacity="1" fill-rule="nonzero"/><path fill="#0c2840" d="M 151.867188 174.597656 C 148.023438 174.664062 144.40625 176.414062 141.964844 179.382812 C 135.464844 187.285156 123.449219 203.34375 124.378906 213.070312 C 125.644531 226.351562 142.59375 230.6875 142.59375 230.6875 L 144.488281 224.945312 C 129.226562 211.441406 147.996094 193.070312 147.996094 193.070312 L 153.09375 174.574219 L 151.867188 174.597656 " fill-opacity="1" fill-rule="nonzero"/><path fill="#ffffff" d="M 169.621094 152.628906 C 170.300781 153.191406 170.695312 153.347656 171.246094 153.878906 C 172.363281 154.960938 173.339844 158.160156 175.222656 158.824219 C 175.421875 159.867188 174.589844 159.988281 174.269531 160.570312 C 174.503906 161.082031 174.890625 163.480469 175.300781 164.941406 C 175.445312 165.457031 175.183594 166 174.691406 166.199219 C 173.855469 166.539062 172.921875 166.757812 171.871094 166.835938 C 171.871094 166.835938 166.503906 172.949219 171.96875 177.152344 C 171.96875 177.152344 163.539062 175.46875 161.046875 175.222656 C 159.566406 175.082031 164.722656 164.648438 164.722656 164.648438 C 164.5625 164.589844 162.464844 163.785156 162.246094 162.050781 C 162.164062 161.414062 162.300781 160.398438 162.875 160.183594 C 163.433594 159.972656 164.371094 160.535156 164.964844 161.734375 C 165.09375 161.449219 165.207031 161.082031 165.324219 160.660156 C 165.484375 160.082031 165.601562 159.421875 165.433594 159.089844 C 170.664062 157.671875 165.964844 152.589844 169.621094 152.628906 " fill-opacity="1" fill-rule="nonzero"/><path fill="#0c2840" d="M 161.160156 174.855469 C 163.128906 175.058594 168.257812 176.039062 170.707031 176.515625 C 169.804688 175.527344 169.285156 174.398438 169.164062 173.140625 C 168.835938 169.761719 171.476562 166.710938 171.589844 166.582031 C 171.652344 166.507812 171.746094 166.464844 171.84375 166.457031 C 172.820312 166.382812 173.730469 166.179688 174.546875 165.851562 C 174.859375 165.722656 175.027344 165.375 174.933594 165.046875 C 174.738281 164.339844 174.546875 163.421875 174.375 162.613281 C 174.207031 161.796875 174.03125 160.960938 173.925781 160.730469 C 173.875 160.621094 173.878906 160.496094 173.9375 160.390625 C 174.074219 160.136719 174.277344 159.960938 174.453125 159.804688 C 174.710938 159.578125 174.886719 159.425781 174.875 159.089844 C 173.667969 158.542969 172.855469 157.128906 172.132812 155.875 C 171.730469 155.171875 171.351562 154.511719 170.980469 154.152344 C 170.691406 153.875 170.445312 153.703125 170.164062 153.507812 C 169.96875 153.371094 169.75 153.21875 169.488281 153.011719 C 169.097656 153.023438 168.824219 153.105469 168.675781 153.261719 C 168.398438 153.550781 168.433594 154.175781 168.476562 154.894531 C 168.5625 156.398438 168.679688 158.433594 165.886719 159.351562 C 165.917969 159.703125 165.851562 160.171875 165.6875 160.761719 C 165.589844 161.132812 165.464844 161.554688 165.308594 161.894531 C 165.25 162.023438 165.117188 162.113281 164.96875 162.113281 C 164.828125 162.113281 164.6875 162.035156 164.621094 161.902344 C 164.113281 160.871094 163.339844 160.414062 163.007812 160.539062 C 162.699219 160.65625 162.546875 161.421875 162.621094 162 C 162.816406 163.523438 164.769531 164.257812 164.851562 164.289062 C 164.953125 164.328125 165.035156 164.40625 165.074219 164.503906 C 165.113281 164.605469 165.109375 164.71875 165.0625 164.8125 C 162.976562 169.035156 160.933594 173.988281 161.160156 174.855469 Z M 171.96875 177.53125 C 171.945312 177.53125 171.917969 177.53125 171.894531 177.523438 C 171.808594 177.507812 163.453125 175.839844 161.007812 175.601562 C 160.796875 175.582031 160.621094 175.464844 160.515625 175.277344 C 159.828125 174.042969 162.960938 167.382812 164.203125 164.835938 C 163.488281 164.496094 162.0625 163.628906 161.867188 162.097656 C 161.773438 161.355469 161.925781 160.136719 162.742188 159.828125 C 163.398438 159.582031 164.234375 160.011719 164.871094 160.859375 C 164.902344 160.757812 164.929688 160.65625 164.957031 160.5625 C 165.222656 159.59375 165.117188 159.304688 165.09375 159.257812 C 165.042969 159.15625 165.042969 159.035156 165.089844 158.933594 C 165.136719 158.828125 165.226562 158.75 165.335938 158.722656 C 167.894531 158.027344 167.804688 156.457031 167.71875 154.9375 C 167.667969 154.078125 167.621094 153.269531 168.125 152.738281 C 168.445312 152.402344 168.945312 152.246094 169.628906 152.25 C 169.714844 152.25 169.796875 152.28125 169.863281 152.335938 C 170.148438 152.570312 170.375 152.726562 170.597656 152.882812 C 170.894531 153.089844 171.175781 153.285156 171.507812 153.605469 C 171.953125 154.039062 172.359375 154.746094 172.792969 155.496094 C 173.492188 156.710938 174.285156 158.089844 175.347656 158.464844 C 175.476562 158.507812 175.570312 158.617188 175.59375 158.75 C 175.769531 159.660156 175.296875 160.074219 174.953125 160.375 C 174.855469 160.460938 174.765625 160.539062 174.695312 160.625 C 174.808594 160.980469 174.9375 161.585938 175.117188 162.453125 C 175.285156 163.253906 175.476562 164.160156 175.667969 164.839844 C 175.863281 165.546875 175.503906 166.28125 174.832031 166.550781 C 173.988281 166.894531 173.054688 167.113281 172.0625 167.199219 C 171.601562 167.769531 169.652344 170.367188 169.921875 173.070312 C 170.0625 174.527344 170.832031 175.796875 172.199219 176.851562 C 172.339844 176.960938 172.386719 177.148438 172.3125 177.308594 C 172.25 177.445312 172.113281 177.53125 171.96875 177.53125 " fill-opacity="1" fill-rule="nonzero"/><path fill="#ffffff" d="M 167.566406 166.199219 C 167.566406 166.199219 169.351562 167.304688 171.703125 166.851562 L 167.566406 166.199219 " fill-opacity="1" fill-rule="nonzero"/><path fill="#0c2840" d="M 170.554688 167.34375 C 168.714844 167.34375 167.429688 166.5625 167.363281 166.519531 C 167.183594 166.410156 167.128906 166.175781 167.242188 165.996094 C 167.351562 165.820312 167.585938 165.765625 167.761719 165.875 C 167.78125 165.886719 169.464844 166.898438 171.628906 166.480469 C 171.835938 166.441406 172.035156 166.574219 172.078125 166.78125 C 172.113281 166.988281 171.980469 167.1875 171.773438 167.226562 C 171.347656 167.308594 170.941406 167.34375 170.554688 167.34375 " fill-opacity="1" fill-rule="nonzero"/><path fill="#0c2840" d="M 299.496094 72.910156 C 299.398438 72.910156 299.304688 72.875 299.226562 72.800781 C 288.90625 62.597656 276.765625 54.300781 263.136719 48.132812 C 262.949219 48.046875 262.863281 47.824219 262.949219 47.632812 C 263.035156 47.441406 263.257812 47.355469 263.453125 47.441406 C 277.160156 53.644531 289.375 61.996094 299.761719 72.261719 C 299.914062 72.410156 299.914062 72.648438 299.765625 72.800781 C 299.691406 72.871094 299.59375 72.910156 299.496094 72.910156 " fill-opacity="1" fill-rule="nonzero"/><path fill="#0c2840" d="M 257.019531 45.519531 C 256.976562 45.519531 256.925781 45.511719 256.882812 45.496094 C 255.027344 44.769531 253.125 44.074219 251.230469 43.425781 C 251.03125 43.355469 250.925781 43.140625 250.992188 42.945312 C 251.058594 42.746094 251.277344 42.636719 251.472656 42.707031 C 253.382812 43.355469 255.292969 44.058594 257.160156 44.789062 C 257.355469 44.867188 257.453125 45.085938 257.375 45.28125 C 257.316406 45.429688 257.171875 45.519531 257.019531 45.519531 " fill-opacity="1" fill-rule="nonzero"/><path fill="#0c2840" d="M 44.515625 242.675781 C 44.363281 242.675781 44.222656 242.589844 44.160156 242.4375 C 37.421875 225.554688 34.523438 207.390625 35.558594 188.449219 C 36.570312 169.871094 41.296875 151.464844 49.609375 133.738281 C 49.699219 133.550781 49.921875 133.46875 50.113281 133.554688 C 50.304688 133.644531 50.386719 133.871094 50.296875 134.0625 C 33.617188 169.628906 31.636719 209.027344 44.867188 242.15625 C 44.945312 242.351562 44.851562 242.574219 44.65625 242.648438 C 44.609375 242.667969 44.5625 242.675781 44.515625 242.675781 " fill-opacity="1" fill-rule="nonzero"/><path fill="#0c2840" d="M 314.433594 235.023438 C 314.367188 235.023438 314.304688 235.007812 314.242188 234.972656 C 314.058594 234.867188 314 234.632812 314.105469 234.453125 C 315.25 232.488281 316.367188 230.480469 317.425781 228.480469 C 317.523438 228.296875 317.753906 228.226562 317.9375 228.324219 C 318.125 228.421875 318.195312 228.652344 318.09375 228.835938 C 317.035156 230.84375 315.914062 232.859375 314.761719 234.835938 C 314.691406 234.957031 314.5625 235.023438 314.433594 235.023438 " fill-opacity="1" fill-rule="nonzero"/><path fill="#0c2840" d="M 317.761719 229.039062 C 317.699219 229.039062 317.640625 229.023438 317.582031 228.996094 C 317.398438 228.898438 317.324219 228.667969 317.421875 228.480469 C 332.164062 200.597656 337.90625 169.429688 333.585938 140.714844 C 333.558594 140.507812 333.699219 140.3125 333.90625 140.28125 C 334.113281 140.25 334.308594 140.390625 334.335938 140.601562 C 336.519531 155.113281 336.210938 170.113281 333.417969 185.183594 C 330.648438 200.164062 325.492188 214.847656 318.09375 228.835938 C 318.027344 228.96875 317.894531 229.039062 317.761719 229.039062 " fill-opacity="1" fill-rule="nonzero"/><path fill="#0c2840" d="M 287.203125 71.992188 C 287.121094 71.992188 287.035156 71.960938 286.960938 71.902344 C 273.339844 60.636719 257.304688 52.746094 239.296875 48.449219 C 239.09375 48.402344 238.96875 48.195312 239.019531 47.992188 C 239.066406 47.789062 239.269531 47.660156 239.476562 47.710938 C 257.59375 52.035156 273.734375 59.980469 287.449219 71.316406 C 287.609375 71.453125 287.632812 71.691406 287.496094 71.851562 C 287.425781 71.945312 287.316406 71.992188 287.203125 71.992188 " fill-opacity="1" fill-rule="nonzero"/><path fill="#0c2840" d="M 62.566406 261.195312 C 62.445312 261.195312 62.324219 261.136719 62.25 261.03125 C 40.703125 229.082031 36.980469 188.234375 52.039062 148.960938 C 52.113281 148.765625 52.332031 148.667969 52.527344 148.742188 C 52.726562 148.816406 52.824219 149.039062 52.746094 149.234375 C 37.78125 188.273438 41.472656 228.867188 62.878906 260.605469 C 63 260.777344 62.953125 261.015625 62.777344 261.132812 C 62.714844 261.175781 62.640625 261.195312 62.566406 261.195312 " fill-opacity="1" fill-rule="nonzero"/><path fill="#0c2840" d="M 309.085938 218.457031 C 309.035156 218.457031 308.980469 218.449219 308.933594 218.425781 C 308.742188 218.339844 308.65625 218.117188 308.738281 217.921875 C 317.980469 197.089844 321.941406 174.851562 320.195312 153.605469 C 320.179688 153.398438 320.335938 153.214844 320.542969 153.199219 C 320.753906 153.179688 320.933594 153.335938 320.953125 153.546875 C 322.710938 174.914062 318.726562 197.28125 309.433594 218.234375 C 309.371094 218.375 309.230469 218.457031 309.085938 218.457031 " fill-opacity="1" fill-rule="nonzero"/><path fill="#0c2840" d="M 315.574219 221.171875 C 315.117188 221.171875 314.671875 221.316406 314.292969 221.589844 C 313.816406 221.933594 313.503906 222.441406 313.410156 223.019531 C 313.316406 223.597656 313.457031 224.179688 313.796875 224.65625 C 314.140625 225.128906 314.648438 225.441406 315.226562 225.535156 C 315.804688 225.628906 316.386719 225.492188 316.863281 225.148438 C 317.339844 224.804688 317.652344 224.300781 317.746094 223.71875 C 317.835938 223.140625 317.699219 222.5625 317.355469 222.085938 C 317.015625 221.609375 316.507812 221.296875 315.925781 221.203125 C 315.808594 221.183594 315.691406 221.171875 315.574219 221.171875 Z M 315.585938 226.324219 C 315.425781 226.324219 315.265625 226.3125 315.105469 226.285156 C 314.324219 226.160156 313.644531 225.738281 313.183594 225.097656 C 312.71875 224.460938 312.535156 223.675781 312.660156 222.898438 C 312.789062 222.117188 313.207031 221.4375 313.847656 220.972656 C 314.488281 220.511719 315.269531 220.328125 316.050781 220.453125 C 316.828125 220.578125 317.511719 221 317.972656 221.640625 C 318.433594 222.28125 318.621094 223.0625 318.496094 223.839844 C 318.367188 224.621094 317.945312 225.304688 317.304688 225.765625 C 316.796875 226.132812 316.199219 226.324219 315.585938 226.324219 " fill-opacity="1" fill-rule="nonzero"/><path fill="#0c2840" d="M 313.632812 160.054688 L 313.472656 163.933594 L 316.71875 161.921875 C 316.082031 161.511719 314.902344 160.773438 313.632812 160.054688 Z M 313.0625 165.015625 C 313 165.015625 312.933594 165 312.875 164.964844 C 312.75 164.890625 312.679688 164.757812 312.683594 164.621094 L 312.898438 159.410156 C 312.90625 159.28125 312.976562 159.160156 313.089844 159.097656 C 313.207031 159.03125 313.347656 159.027344 313.460938 159.09375 C 315.582031 160.25 317.617188 161.601562 317.636719 161.613281 C 317.746094 161.6875 317.808594 161.808594 317.808594 161.9375 C 317.804688 162.066406 317.738281 162.183594 317.628906 162.253906 L 313.265625 164.957031 C 313.203125 164.996094 313.132812 165.015625 313.0625 165.015625 " fill-opacity="1" fill-rule="nonzero"/><path fill="#0c2840" d="M 314.828125 167.269531 C 315.246094 167.585938 315.582031 167.933594 315.882812 168.347656 C 316.179688 168.75 316.425781 169.210938 316.550781 169.71875 C 316.617188 169.96875 316.65625 170.230469 316.664062 170.492188 C 316.660156 170.625 316.671875 170.75 316.652344 170.894531 L 316.617188 171.113281 L 316.550781 171.316406 C 316.363281 171.839844 316.0625 172.230469 315.785156 172.621094 C 315.5 173.007812 315.21875 173.375 314.976562 173.753906 C 314.734375 174.132812 314.535156 174.519531 314.453125 174.914062 C 314.269531 175.648438 314.765625 176.484375 315.199219 177.308594 C 315.421875 177.726562 315.652344 178.152344 315.835938 178.621094 C 316.011719 179.089844 316.152344 179.625 316.066406 180.191406 C 316.007812 180.5 315.863281 180.773438 315.699219 180.980469 C 315.53125 181.195312 315.351562 181.375 315.164062 181.542969 C 314.792969 181.871094 314.410156 182.152344 314.050781 182.441406 C 313.695312 182.730469 313.335938 183.027344 313.132812 183.355469 C 312.929688 183.65625 312.941406 184.035156 313.0625 184.445312 C 313.191406 184.851562 313.40625 185.253906 313.636719 185.660156 C 313.75 185.867188 313.871094 186.074219 313.980469 186.296875 C 314.089844 186.519531 314.207031 186.746094 314.242188 187.0625 C 314.265625 187.21875 314.152344 187.363281 313.996094 187.378906 C 313.839844 187.398438 313.699219 187.289062 313.679688 187.136719 L 313.675781 187.121094 C 313.65625 186.964844 313.5625 186.761719 313.457031 186.566406 C 313.351562 186.371094 313.230469 186.171875 313.109375 185.964844 C 312.867188 185.558594 312.621094 185.132812 312.445312 184.644531 C 312.371094 184.390625 312.304688 184.128906 312.3125 183.839844 C 312.316406 183.5625 312.402344 183.234375 312.5625 183.003906 C 312.859375 182.527344 313.25 182.222656 313.617188 181.910156 C 313.992188 181.605469 314.363281 181.324219 314.699219 181.023438 C 315.03125 180.730469 315.3125 180.386719 315.367188 180.082031 C 315.417969 179.703125 315.324219 179.292969 315.164062 178.882812 C 315 178.476562 314.777344 178.070312 314.554688 177.660156 C 314.328125 177.246094 314.089844 176.824219 313.898438 176.355469 C 313.808594 176.117188 313.722656 175.867188 313.683594 175.589844 L 313.65625 175.382812 L 313.660156 175.167969 C 313.65625 175.015625 313.691406 174.890625 313.714844 174.753906 C 313.828125 174.21875 314.082031 173.761719 314.347656 173.351562 C 314.617188 172.933594 314.914062 172.554688 315.191406 172.183594 C 315.464844 171.8125 315.742188 171.441406 315.882812 171.074219 L 315.929688 170.9375 L 315.953125 170.808594 C 315.972656 170.726562 315.960938 170.605469 315.96875 170.507812 C 315.96875 170.296875 315.941406 170.089844 315.894531 169.882812 C 315.699219 169.0625 315.148438 168.28125 314.492188 167.726562 L 314.476562 167.714844 C 314.355469 167.609375 314.339844 167.429688 314.441406 167.308594 C 314.539062 167.195312 314.710938 167.175781 314.828125 167.269531 " fill-opacity="1" fill-rule="nonzero"/><path fill="#0c2840" d="M 58.613281 143.429688 L 58.617188 143.429688 Z M 56.070312 140.824219 C 55.011719 140.824219 54.078125 141.589844 53.902344 142.667969 C 53.710938 143.863281 54.523438 144.992188 55.71875 145.183594 C 56.917969 145.375 58.042969 144.5625 58.238281 143.367188 C 58.429688 142.171875 57.617188 141.042969 56.421875 140.851562 C 56.304688 140.832031 56.183594 140.824219 56.070312 140.824219 Z M 56.070312 145.972656 C 55.914062 145.972656 55.757812 145.960938 55.597656 145.933594 C 53.988281 145.675781 52.894531 144.152344 53.152344 142.546875 C 53.414062 140.9375 54.929688 139.839844 56.542969 140.101562 C 58.148438 140.359375 59.246094 141.878906 58.988281 143.488281 C 58.753906 144.9375 57.496094 145.972656 56.070312 145.972656 " fill-opacity="1" fill-rule="nonzero"/><path fill="#0c2840" d="M 56.734375 134.445312 L 58.953125 137.628906 L 60.320312 134.0625 C 59.5625 134.125 58.179688 134.246094 56.734375 134.445312 Z M 59.050781 138.8125 C 58.925781 138.8125 58.808594 138.753906 58.738281 138.652344 L 55.757812 134.375 C 55.683594 134.265625 55.667969 134.125 55.722656 134.003906 C 55.773438 133.886719 55.882812 133.796875 56.011719 133.78125 C 58.40625 133.417969 60.839844 133.261719 60.863281 133.261719 C 60.992188 133.253906 61.117188 133.3125 61.195312 133.417969 C 61.269531 133.519531 61.289062 133.65625 61.242188 133.777344 L 59.40625 138.570312 C 59.355469 138.703125 59.234375 138.792969 59.097656 138.808594 C 59.082031 138.8125 59.066406 138.8125 59.050781 138.8125 " fill-opacity="1" fill-rule="nonzero"/><g clip-path="url(#fac1dded63)"><path fill="#0c2840" d="M 196.761719 38.96875 C 196.511719 39.425781 196.21875 39.8125 195.859375 40.171875 C 195.503906 40.527344 195.085938 40.839844 194.605469 41.039062 C 194.363281 41.144531 194.113281 41.222656 193.855469 41.269531 C 193.722656 41.285156 193.601562 41.316406 193.453125 41.316406 L 193.234375 41.316406 L 193.023438 41.285156 C 192.476562 41.175781 192.046875 40.9375 191.617188 40.722656 C 191.191406 40.5 190.789062 40.273438 190.375 40.09375 C 189.96875 39.914062 189.550781 39.773438 189.148438 39.753906 C 188.394531 39.683594 187.640625 40.300781 186.894531 40.855469 C 186.515625 41.136719 186.128906 41.429688 185.691406 41.683594 C 185.257812 41.929688 184.75 42.144531 184.175781 42.148438 C 183.863281 42.136719 183.570312 42.039062 183.339844 41.902344 C 183.101562 41.773438 182.898438 41.621094 182.707031 41.460938 C 182.324219 41.144531 181.988281 40.808594 181.648438 40.496094 C 181.308594 40.1875 180.960938 39.878906 180.605469 39.726562 C 180.277344 39.574219 179.90625 39.640625 179.519531 39.824219 C 179.136719 40.015625 178.769531 40.285156 178.402344 40.574219 C 178.214844 40.722656 178.03125 40.871094 177.828125 41.011719 C 177.621094 41.152344 177.414062 41.304688 177.109375 41.390625 C 176.957031 41.433594 176.800781 41.34375 176.757812 41.191406 C 176.714844 41.039062 176.800781 40.886719 176.953125 40.84375 L 176.964844 40.839844 C 177.117188 40.792969 177.304688 40.671875 177.480469 40.539062 C 177.660156 40.402344 177.835938 40.253906 178.019531 40.101562 C 178.386719 39.800781 178.769531 39.492188 179.230469 39.25 C 179.464844 39.132812 179.714844 39.027344 180.003906 38.992188 C 180.28125 38.953125 180.613281 38.992188 180.867188 39.109375 C 181.382812 39.335938 181.742188 39.675781 182.109375 39.992188 C 182.464844 40.3125 182.800781 40.640625 183.148438 40.921875 C 183.488281 41.207031 183.867188 41.433594 184.179688 41.4375 C 184.558594 41.433594 184.953125 41.277344 185.332031 41.054688 C 185.710938 40.832031 186.078125 40.554688 186.449219 40.269531 C 186.824219 39.984375 187.203125 39.683594 187.640625 39.425781 C 187.863281 39.296875 188.097656 39.175781 188.363281 39.097656 L 188.5625 39.039062 L 188.777344 39.007812 C 188.925781 38.980469 189.058594 38.996094 189.195312 39 C 189.738281 39.03125 190.230469 39.210938 190.679688 39.414062 C 191.128906 39.617188 191.546875 39.855469 191.960938 40.070312 C 192.367188 40.28125 192.777344 40.503906 193.160156 40.582031 L 193.300781 40.609375 L 193.433594 40.613281 C 193.519531 40.621094 193.636719 40.59375 193.734375 40.585938 C 193.941406 40.550781 194.144531 40.492188 194.339844 40.417969 C 195.121094 40.101562 195.808594 39.4375 196.257812 38.703125 L 196.269531 38.679688 C 196.351562 38.550781 196.527344 38.507812 196.660156 38.589844 C 196.792969 38.667969 196.835938 38.835938 196.761719 38.96875 " fill-opacity="1" fill-rule="nonzero"/></g><path fill="#0c2840" d="M 307.433594 77.023438 L 307.4375 77.023438 Z M 304.890625 74.417969 C 303.832031 74.417969 302.898438 75.183594 302.722656 76.261719 C 302.628906 76.839844 302.765625 77.421875 303.113281 77.898438 C 303.453125 78.371094 303.960938 78.6875 304.539062 78.777344 C 305.738281 78.972656 306.867188 78.15625 307.058594 76.960938 C 307.253906 75.769531 306.4375 74.636719 305.242188 74.445312 C 305.125 74.425781 305.007812 74.417969 304.890625 74.417969 Z M 304.890625 79.566406 C 304.734375 79.566406 304.578125 79.554688 304.417969 79.527344 C 303.640625 79.402344 302.957031 78.980469 302.496094 78.339844 C 302.035156 77.703125 301.847656 76.917969 301.972656 76.140625 C 302.234375 74.53125 303.753906 73.433594 305.363281 73.695312 C 306.972656 73.957031 308.070312 75.476562 307.808594 77.085938 C 307.574219 78.535156 306.316406 79.566406 304.890625 79.566406 " fill-opacity="1" fill-rule="nonzero"/><path fill="#0c2840" d="M 324.984375 114.246094 L 327.199219 117.433594 L 328.566406 113.867188 C 327.8125 113.925781 326.429688 114.050781 324.984375 114.246094 Z M 327.296875 118.617188 C 327.175781 118.617188 327.058594 118.558594 326.988281 118.453125 L 324.007812 114.175781 C 323.933594 114.066406 323.917969 113.929688 323.96875 113.808594 C 324.023438 113.6875 324.132812 113.601562 324.261719 113.582031 C 326.652344 113.222656 329.089844 113.066406 329.113281 113.066406 C 329.242188 113.058594 329.367188 113.117188 329.441406 113.21875 C 329.519531 113.324219 329.539062 113.460938 329.492188 113.578125 L 327.652344 118.371094 C 327.605469 118.503906 327.484375 118.597656 327.34375 118.613281 C 327.328125 118.617188 327.3125 118.617188 327.296875 118.617188 " fill-opacity="1" fill-rule="nonzero"/><path fill="#0c2840" d="M 272.867188 45.960938 C 273.34375 45.75 273.816406 45.625 274.320312 45.558594 C 274.820312 45.492188 275.339844 45.5 275.84375 45.632812 C 276.097656 45.699219 276.34375 45.789062 276.578125 45.910156 C 276.695312 45.980469 276.804688 46.027344 276.925781 46.117188 L 277.097656 46.253906 L 277.242188 46.40625 C 277.613281 46.824219 277.808594 47.277344 278.015625 47.710938 C 278.214844 48.144531 278.402344 48.570312 278.617188 48.964844 C 278.832031 49.359375 279.074219 49.722656 279.382812 49.984375 C 279.933594 50.5 280.910156 50.46875 281.839844 50.484375 C 282.308594 50.492188 282.792969 50.496094 283.296875 50.566406 C 283.789062 50.632812 284.324219 50.773438 284.777344 51.121094 C 285.019531 51.320312 285.191406 51.578125 285.292969 51.824219 C 285.402344 52.074219 285.472656 52.320312 285.527344 52.5625 C 285.636719 53.046875 285.695312 53.515625 285.777344 53.972656 C 285.855469 54.421875 285.941406 54.878906 286.132812 55.21875 C 286.296875 55.539062 286.636719 55.714844 287.054688 55.804688 C 287.472656 55.890625 287.925781 55.894531 288.394531 55.890625 C 288.632812 55.890625 288.871094 55.886719 289.117188 55.894531 C 289.367188 55.910156 289.621094 55.917969 289.914062 56.035156 C 290.0625 56.09375 290.132812 56.261719 290.074219 56.40625 C 290.015625 56.550781 289.851562 56.621094 289.707031 56.566406 L 289.691406 56.558594 C 289.546875 56.503906 289.320312 56.484375 289.101562 56.484375 C 288.875 56.480469 288.644531 56.492188 288.410156 56.5 C 287.9375 56.515625 287.441406 56.527344 286.929688 56.4375 C 286.675781 56.386719 286.410156 56.316406 286.160156 56.167969 C 285.917969 56.03125 285.679688 55.796875 285.550781 55.546875 C 285.277344 55.054688 285.195312 54.566406 285.101562 54.09375 C 285.015625 53.621094 284.949219 53.15625 284.847656 52.71875 C 284.75 52.285156 284.589844 51.875 284.34375 51.679688 C 284.042969 51.453125 283.632812 51.335938 283.199219 51.28125 C 282.761719 51.226562 282.300781 51.222656 281.832031 51.222656 C 281.359375 51.21875 280.875 51.226562 280.371094 51.164062 C 280.121094 51.128906 279.859375 51.082031 279.601562 50.984375 L 279.40625 50.90625 L 279.21875 50.800781 C 279.085938 50.730469 278.992188 50.636719 278.882812 50.554688 C 278.472656 50.195312 278.191406 49.753906 277.960938 49.320312 C 277.726562 48.882812 277.539062 48.441406 277.347656 48.015625 C 277.152344 47.601562 276.960938 47.175781 276.707031 46.878906 L 276.613281 46.769531 L 276.511719 46.6875 C 276.445312 46.628906 276.335938 46.582031 276.253906 46.527344 C 276.070312 46.425781 275.875 46.347656 275.671875 46.289062 C 274.859375 46.0625 273.914062 46.171875 273.109375 46.476562 L 273.085938 46.484375 C 272.9375 46.539062 272.773438 46.46875 272.71875 46.320312 C 272.664062 46.179688 272.730469 46.019531 272.867188 45.960938 " fill-opacity="1" fill-rule="nonzero"/></svg>