<svg xmlns="http://www.w3.org/2000/svg" width="1101.105" height="812" viewBox="0 0 1101.105 812"><g id="logo" transform="translate(.039)"><ellipse id="Ellipse_83" data-name="Ellipse 83" cx="449" cy="315.5" rx="449" ry="315.5" transform="translate(92.514 86)" fill="#fff"/><path id="Path_9076" data-name="Path 9076" d="M2180.309 756.157c16.546 0 29.906-9.827 29.906-21.929s-13.36-21.839-29.906-21.839-29.765 9.827-29.765 21.839 13.385 21.929 29.765 21.929z" transform="translate(-2104.117 -328.145)" fill="#a2afca"/><path id="Path_9077" data-name="Path 9077" d="M3235.771 751.3c16.379 0 29.906-9.815 29.906-21.839s-13.527-21.929-29.906-21.929-29.752 9.84-29.752 21.929 13.386 21.839 29.752 21.839z" transform="translate(-2209.662 -327.67)" fill="#a2afca"/><path id="Path_9078" data-name="Path 9078" d="M2308.578 892.161h702.28v89.294h-702.28zM2203.419 790.8h886.316v67.01h-886.316V790.8zm-1.567-79.12h909.131v44.654h-909.131z" transform="translate(-2109.243 -328.081)" fill="#a2afca"/><path id="Path_9079" data-name="Path 9079" d="M2649.48 285.47l-27.876.475-27.7 1.619-27.08 2.4-26.977 3.584-26.283 4.329-25.808 5.331-25.372 6.269-24.729 7.1-24.228 7.888-23.611 8.7-22.826 9.535-22.2 10.47-21.556 10.984-20.8 11.9-19.976 12.577-19.27 13.232-18.255 13.823-17.394 14.67-16.52 15.146-15.416 15.8-14.645 16.43-13.54 17.1-12.435 17.535-11.176 18.216-10.277 18.537-8.992 19.192-7.566 19.642-6.423 19.989-5.023 20.426-3.623 20.824-2.203 21.087-.784 21.273.784 21.453 2.209 21.106 3.623 20.785 5.023 20.49 6.423 19.963 7.566 19.668 8.992 19 10.277 18.7 11.176 18.216 12.435 17.548 13.54 16.764 14.645 16.43 15.416 15.955 16.52 15.146 17.484 14.67 18.255 13.861 19.269 13.219 19.976 12.576 20.8 11.754 21.556 11.112 22.2 10.277 22.828 9.66 23.611 8.723 24.228 7.9 24.729 7.091 25.371 6.115 25.808 5.331 26.283 4.5 26.977 3.4 27.08 2.569 27.7 1.452 27.876.475 28.031-.475 27.542-1.452 27.234-2.569 26.6-3.4 26.3-4.5 25.821-5.331 25.359-6.115 24.87-7.091 24.1-7.9 23.612-8.723 22.995-9.66 22.186-10.277 21.4-11.112 20.76-11.754 20.014-12.576 19.27-13.219 18.241-13.861 17.484-14.67 16.533-15.146 15.582-15.955 14.49-16.425 13.527-16.764 12.435-17.548 11.317-18.216 10.084-18.7 8.992-19 7.708-19.668 6.307-19.963 5.036-20.49 3.623-20.785 2.364-21.106.629-21.453-.629-21.273-2.364-21.094-3.623-20.824-5.036-20.426-6.307-19.989-7.708-19.642-8.992-19.192-10.084-18.537-11.317-18.216-12.435-17.535-13.732-17.111-14.491-16.43-15.583-15.8-16.495-15.133-17.484-14.67-18.242-13.829-19.269-13.232-20.015-12.576-20.76-11.9-21.4-10.984-22.186-10.47-22.995-9.532-23.612-8.7-24.1-7.888-24.871-7.1-25.358-6.269-25.821-5.331-26.3-4.329-26.6-3.584-27.234-2.4-27.542-1.619zm0 175l5.524.128a624.573 624.573 0 0 1 99.315 6.975l16.057 2.736 18.717 3.854 18.434 4.5 17.985 5.139 17.317 5.485 17.009 5.961 16.212 6.6 15.737 6.937 15.094 7.438 14.5 7.708 13.694 8.209 13.232 8.53 12.294 8.864 11.639 9.2 10.868 9.326 10.071 9.815 9.134 10.007 8.491 10.161 7.554 10.277 6.616 10.624 5.832 10.65 4.869 10.8 4.1 10.958 3.147 11.112 2.364 11.125 1.426 11.279.462 11.446-.462 11.446-1.426 11.279-2.364 11.279-3.147 10.958-4.1 10.971-4.869 10.778-5.832 10.791-6.616 10.5-7.554 10.277-8.491 10.277-9.134 10.007-10.071 9.66-10.868 9.519-11.639 9.172-12.294 8.851-13.232 8.568-13.694 8.183-14.5 7.708-15.094 7.387-15.737 6.937-16.212 6.307-17.009 6.128-17.317 5.485-17.985 5-18.434 4.509-18.717 4.021-19.359 3.379-9.609 1.285a645.419 645.419 0 0 1-91.94 4.83 744.617 744.617 0 0 1-86.6-3.7l-15.094-2.428-19.269-3.379-18.884-4.021-18.435-4.509-17.779-5-17.5-5.485-16.816-6.128-16.391-6.306-15.737-6.937-15.082-7.387-14.349-7.708-13.822-8.042-13.065-8.568-12.422-8.851-11.562-9.172-10.855-9.519-10.072-9.66-9.3-10.007-8.35-10.277-7.541-10.277-6.77-10.5-5.832-10.791-4.869-10.778-4.1-10.971-3.16-10.958-2.351-11.279-1.285-11.279-.475-11.446.475-11.446 1.285-11.279 2.351-11.125 3.16-11.112 4.1-10.958 4.869-10.8 5.832-10.65 6.77-10.624 7.541-10.277 8.35-10.161 9.3-10.007 10.072-9.815 10.855-9.326 11.562-9.2 12.422-8.864 13.065-8.62 13.861-8.209 14.349-7.708 15.082-7.438 15.737-6.937 16.392-6.6 16.816-5.961 17.5-5.485 17.779-5.139 18.435-4.5 18.884-3.854 19.269-3.4a575.647 575.647 0 0 1 101.665-6.475z" transform="translate(-2098.953 -285.47)" fill="#133156"/><path id="Path_9080" data-name="Path 9080" d="M2591.556 811.242a75.576 75.576 0 0 0 16.957 6.089A20.452 20.452 0 0 0 2623 814.3a19.489 19.489 0 0 0 5.987-12.268v-.167c.321-1.773.462-2.248.462-2.569a92.8 92.8 0 0 0 2.222-18.563c-8.35 1.285-17.008 2.762-26.771 4.509-4.393.822-8.825 1.631-13.386 2.261l-14.028 2.454c-8.491 1.285-17.15 2.377-26.116 3.353a97.614 97.614 0 0 1 9.583 3.854c6.153 2.723 11.985 5.472 17.985 8.376 4.393 2.081 8.646 4.047 12.576 5.781zm0 106.624a32.66 32.66 0 0 0 4.406-5.807l.167-.18c.951-1.773 1.9-3.7 2.826-5.5.784-1.593 1.593-3.533 2.685-5.935a96.052 96.052 0 0 0 7.875-30.484 20.552 20.552 0 0 0-4.085-12.7 69.571 69.571 0 0 0-17.715-13.322l.218-.218c-6.629-3.546-15.737-7.913-25.358-12.422a275.61 275.61 0 0 1-63.6-37.55 367.054 367.054 0 0 1-72.427-14.491 202.82 202.82 0 0 1-38.231-16.135 89.987 89.987 0 0 1-26.618-21.273 45.194 45.194 0 0 1-10.829-28.878 53.286 53.286 0 0 1 7.091-25.449 71.53 71.53 0 0 1 30.381-30.959 50.735 50.735 0 0 0 15.57-13.052 25.577 25.577 0 0 0 2.376-13.861 44.483 44.483 0 0 1 6.281-27.388 52.769 52.769 0 0 1 14-18.357 150.53 150.53 0 0 1 13.861-10.5 44.177 44.177 0 0 0 10.868-8.7 17.212 17.212 0 0 0 1.747-10.136 43.933 43.933 0 0 1 3.931-20.644c.308-.475.462-.809.784-1.285.462-.809 1.092-1.452 1.439-2.094 13.206-18.216 40.132-28.377 63.576-37.061 19.269-7.245 35.751-13.54 35.751-19.835a28.634 28.634 0 0 1 5.138-17.073l-16.212 1.927-19.526 3.546-19.205 4.008-18.563 4.535-18.267 5.139-17.638 5.627-17.3 6.153-10.418 4.188-6.153 2.4-16.019 7.117-15.416 7.554-14.8 7.9-14.131 8.4-13.36 8.7-12.756 9.172-11.96 9.519-11.163 9.673-10.407 10.165-9.609 10.277-8.661 10.623-8.029 10.958-6.924 10.945-6.205 11.279-5.138 11.433-4.406 11.562-3.3 11.819-2.569 11.908-1.413 12.088-.475 12.242.475 12.242 1.413 12.088 2.571 11.936 3.289 11.754 4.406 11.562 5.139 11.446 6.14 11.266 6.926 11.127 8.029 10.778 8.658 10.65 9.609 10.277 10.404 10.14 11.163 9.879 11.96 9.313 12.756 9.172 13.36 8.723 14.131 8.376 14.8 8.055 15.416 7.438 16.019 6.9 6.154 2.569 10.418 4.175 17.3 6.141 17.638 5.627 18.268 5.01 18.563 4.663 19.205 4.034 19.526 3.4 22.353 3.379c.167-2.274 4.252-5.807 11.343-12.076a134.255 134.255 0 0 0 10.444-9.557zm103.7-94.407c.514-.437 1.9-1.9 2.4-2.364a35.276 35.276 0 0 0 5.987-6.86 28.266 28.266 0 0 0 3.468-5.986 56.884 56.884 0 0 0 2.569-5.627c2.98-7.438 4.74-12.551 5.357-14.658-1.721-.347-4.7-.809-7.862-1.452-3.623-.642-27.465-4.509-29.547-4.83-.154 4.2-.154 12.731 0 20.156a85.3 85.3 0 0 0 .938 15.326c1.9 8.376 5.216 13.707 13.232 8.851a31.66 31.66 0 0 0 3.417-2.479zm182.982 78.093l6.423-2.813 11.934-5.049 15.416-7.438 14.8-8.055 14.2-8.376 13.36-8.723 12.756-9.172 11.96-9.314 11.189-9.879 10.393-10.136 9.609-10.277 8.8-10.65 7.9-10.778 7.065-11.125 6.153-11.266 5.2-11.446 4.204-11.555 3.481-11.754 2.364-11.934 1.555-12.094.488-12.242-.488-12.243-1.554-12.088-2.364-11.909-3.481-11.767-4.214-11.562-5.2-11.433-6.153-11.292-7.065-10.945-7.9-10.958-8.8-10.624-9.609-10.277-10.393-10.161-11.215-9.828-11.96-9.519-12.756-9.172-13.36-8.7-14.2-8.4-14.8-7.9-15.415-7.554-15.891-7.117-2.569-.963-14.131-5.627-17.137-6.153-17.779-5.627-18.113-5.139-18.743-4.535-19.27-4.008-19.5-3.546-12.6-2.736a34.852 34.852 0 0 1 5.37 17.882c-.167 6.295 16.52 12.577 35.584 19.835 24.7 9.2 53.03 19.835 65.516 39.823a1.285 1.285 0 0 1 .321.63 39.974 39.974 0 0 1 3.931 20.644 18.219 18.219 0 0 0 1.9 10.136 44.055 44.055 0 0 0 10.855 8.7 150.39 150.39 0 0 1 13.849 10.5 52.514 52.514 0 0 1 13.835 18.216 45.409 45.409 0 0 1 6.423 27.542 27.325 27.325 0 0 0 2.209 13.861 51.65 51.65 0 0 0 15.737 13.052 72.313 72.313 0 0 1 30.394 30.959 53.259 53.259 0 0 1 7.078 25.448 45.362 45.362 0 0 1-11.022 28.981 87.9 87.9 0 0 1-26.6 21.274 196.446 196.446 0 0 1-38.089 16.135 350.773 350.773 0 0 1-92.57 15.621c-12.435 0-23.444-.784-32.116-1.606a98.947 98.947 0 0 1-4.085 9.994 204.874 204.874 0 0 1-9.948 18.38 84.324 84.324 0 0 1-14.786 17.741c-1.1.976-2.21 1.914-3.469 2.877a120.3 120.3 0 0 0-14.131 13.386 28.327 28.327 0 0 0-7.81 17.844 61.67 61.67 0 0 0 4.1 19.025c1.092 2.9 2.376 5.807 3.777 8.7 1.721 3.713 3.623 7.258 5.485 10.817a81.085 81.085 0 0 0 14.812 15.608 61.665 61.665 0 0 1 11.035 10.624l15.107-2.068 19.5-3.4 19.269-4.034 18.743-4.663 18.113-5.01 17.779-5.627 17.137-6.14zm0 150.687l-18.589 6.141-24.549 7.078-24.883 6.128-25.5 5.138-25.962 4.342-26.45 3.52-25.179 2.274-10.521.578-17.856 1.028-27.7.488-27.542-.488-27.221-1.439-4.265-.334-22.763-2.03-26.451-3.52-25.962-4.342-25.513-5.138-25.024-6.128-24.408-7.078-14.953-4.843-8.992-2.89-23.123-8.71-22.674-9.352-21.839-10.149-21.106-10.945-20.451-11.562-19.68-12.435-18.9-12.846-17.982-13.708-16.945-14.439-16.225-14.825-15.261-15.48-14.131-16.1-13.219-16.443-12.119-17.249-11.035-17.548-9.763-18.216-8.671-18.537-7.528-19.012-6.166-19.488-4.867-19.68-3.648-20.13-2.03-20.477-.784-20.8.784-20.631 2.03-20.451 3.648-20.143 4.869-19.835 6.166-19.269 7.528-19.025 8.671-18.678 9.763-17.985 11.035-17.754 12.114-17.073 13.219-16.6 14.131-16.135 15.261-15.416 16.225-15.107 17-14.131 17.985-13.707 18.9-13.065 19.681-12.242 20.451-11.562 21.106-10.971 21.839-10.161 22.674-9.468L2418 334.62l8.992-2.9 14.953-5 24.408-6.911 25.025-6.141 25.5-5.357 25.962-4.316 26.412-3.391 22.674-2.107 4.265-.3 27.221-1.632 27.542-.462 27.7.462 16.417 1.015 11.96.771 25.179 2.248 26.451 3.4 26.026 4.3 25.5 5.344 24.883 6.141 24.549 6.911 18.589 6.128 5.138 1.773 23.3 8.568 22.507 9.468 21.839 10.161 21.26 10.971 20.451 11.562 19.526 12.242 18.9 13.065 17.985 13.707 17.15 14.131 16.071 14.979 15.274 15.416 14.131 16.135 13.232 16.6 12.114 17.073 11.035 17.754 9.9 17.985 8.633 18.678 7.412 19.025 6.308 19.269 4.882 19.835 3.481 20.143 2.2 20.451.617 20.631-.617 20.8-2.2 20.477-3.481 20.13-4.882 19.68-6.308 19.488-7.412 19.013-8.633 18.537-9.9 18.216-11.035 17.548-12.114 17.253-13.232 16.443-14.131 16.1-15.274 15.48-16.071 14.825-17.085 14.465-17.985 13.707-18.9 12.846-19.527 12.435-20.451 11.562-21.26 10.945-21.839 10.149-22.507 9.352-23.3 8.71z" transform="translate(-2100.032 -286.523)" fill="#fff"/><path id="Path_9081" data-name="Path 9081" d="M2650.392 961.145c232.839 0 421.743-117.158 421.743-262.064 0-127.782-150.006-234.946-344.6-258.21-11.806-9.506-49.741-14.966-77.078-15.287h-2.685c-28.172 0-59.093 6.423-68.625 15.133-198.128 21.749-350.5 129.169-350.5 258.4 0 144.867 188.84 262.064 421.743 262.064zm0 114.409c-290.6 0-526.44-170.791-526.44-381.278s235.832-381.432 526.44-381.432c290.608 0 526.286 170.855 526.286 381.432S2941 1075.554 2650.392 1075.554z" transform="translate(-2101.458 -288.206)" fill="#133156"/><path id="Path_9082" data-name="Path 9082" d="M2713.031 824.731c.167 4.779-1.118 26.682-.629 39.823a28.481 28.481 0 0 0 9.93 21.44c10.868 8.132 29.88-9.275 35.43-19.989a250.651 250.651 0 0 0 12.114-31.807c9.429 1.1 15.891 2.068 21.556 3.186-1.888 3.854-3.469 10.084-6.307 15.672a102.063 102.063 0 0 1-22.969 33.4c-10.38 8.992-28.352 22.044-27.876 39.143a94.705 94.705 0 0 0 14.131 41.108c8.35 14.863 39.361 31.486 23.123 33.721a657.131 657.131 0 0 1-77.784 4.946 392.351 392.351 0 0 1-69.9-4.47c-16.7-2.878 15.415-19.347 23.766-34.2a108.465 108.465 0 0 0 14.131-44.744c.334-11.356-5.973-21.916-25.191-32.116-27.234-14.388-89.243-38.667-89.564-51.308 14.323 0 19.989.154 27.722.63-.963 5.267 20.3 14.208 32.257 19.822a199.7 199.7 0 0 0 44.718 18.062c18.717 1.131 27.234-7.194 29.546-21.569a212.716 212.716 0 0 0 2.685-31.011 60.635 60.635 0 0 1 29.111.261z" transform="translate(-2143.773 -339.193)" fill="#c39a4e"/><path id="Path_9083" data-name="Path 9083" d="M2679.874 787.143c-30.831 0-79.827 15.775-133.177 15.775-46.426 0-191.127-26.232-153.179-96.835 11.189-24.652 36.06-28.185 45.81-43.5 7.412-11.626-1.554-25.693 8.992-41.738 8.35-19.835 32.116-27.4 38.243-37.074s-.308-17.394 6.307-31.448c21.261-34.12 102.167-40.093 102.167-63.152 0-22.558 28.814-37.524 82.216-37.524 52.1 0 88 14.966 88 37.524 0 23.059 80.932 29.033 102.167 63.152 6.6 14.054.154 21.839 6.295 31.448s29.919 17.253 38.256 37.074c10.405 16.109 1.554 30.112 8.992 41.738 9.763 15.313 34.685 18.845 45.835 43.5 37.768 70.654-106.752 96.835-153.359 96.835-53.275-.026-102.708-15.775-133.565-15.775z" transform="translate(-2127.78 -302.08)" fill="#098d47"/><path id="Path_9084" data-name="Path 9084" d="M2173.77 769.235c16.533 0 29.893-9.815 29.893-21.916s-13.36-21.839-29.893-21.839-29.77 9.828-29.77 21.839 13.391 21.916 29.77 21.916z" transform="translate(-2103.462 -329.456)" fill="#a2afca"/><path id="Path_9085" data-name="Path 9085" d="M3229.219 764.353c16.379 0 29.919-9.815 29.919-21.839s-13.54-21.941-29.919-21.941-29.739 9.853-29.739 21.941 13.374 21.839 29.739 21.839z" transform="translate(-2209.007 -328.967)" fill="#a2afca"/><g id="Group_7320" data-name="Group 7320" transform="translate(173.643 579.418)" fill="#fff"><path id="Path_9086" data-name="Path 9086" d="M2335.286 947.605a19.271 19.271 0 0 1 7.99-2.158 32.271 32.271 0 0 1 7.836.719 25.8 25.8 0 0 1 7.027 2.711l.578.4.565.4.334.231a.924.924 0 0 0 .411.141l.3.193.282.193 3.851 2.565a42.863 42.863 0 0 1 4.227 3.687 29.191 29.191 0 0 1 3.443 4.188 15.6 15.6 0 0 1 2.209 4.149 12.564 12.564 0 0 1 .719 3.854 8.175 8.175 0 0 0-1.837.617 11.19 11.19 0 0 0-1.683.989c-.565.411-1.195.9-1.875 1.477s-1.4 1.208-2.145 1.876l-.385.347-.514.54-3.854-2.646-1.452-1.169a2.793 2.793 0 0 1 .141-.732c.064-.3.141-.63.193-.976a10 10 0 0 0 .231-1.285 8.9 8.9 0 0 0 .077-1.285 12.031 12.031 0 0 0-.347-3.07 18.757 18.757 0 0 0-1.131-3.34 14.125 14.125 0 0 0-1.285-2.4 10.271 10.271 0 0 0-1.94-2.081 9.107 9.107 0 0 0-3.854-1.041 16.913 16.913 0 0 0-4.432.373 14.475 14.475 0 0 0-5.267 2.184 14.99 14.99 0 0 0-3.854 3.854l-.308.463-.321.45-.141.206a.37.37 0 0 0 0 .27l-.141.193-.141.206a11.937 11.937 0 0 0-1.053 3.237 23.69 23.69 0 0 0-.347 3.854 18.526 18.526 0 0 0 .81 4.226 22.909 22.909 0 0 0 2.068 4.663l7.438 11.9a28.391 28.391 0 0 1 2.71 6.667 18.309 18.309 0 0 1 .527 6.423 21.19 21.19 0 0 1-1.285 5.961 22.847 22.847 0 0 1-2.71 5.228l-.4.565-.308.45-.141.193-.141.206a.821.821 0 0 0-.308.231l-.141.206a27.109 27.109 0 0 1-7.464 6.192 34.5 34.5 0 0 1-9.763 3.571 25.1 25.1 0 0 1-10.457.09 27.145 27.145 0 0 1-9.763-4.381l-3.854-2.646-.475-.321-.385-.27-.385-.27-.385-.27a.992.992 0 0 0-.308-.372l-.385-.27-.385-.27a.95.95 0 0 1-.308-.36 3.14 3.14 0 0 1-.437-.385 1.8 1.8 0 0 0-.347-.321 28.335 28.335 0 0 1-2.98-3.34 40.045 40.045 0 0 1-2.569-3.674 29.14 29.14 0 0 1-1.837-3.751 28.073 28.073 0 0 1-1.1-3.392v-.617c.681-.424 1.285-.874 1.927-1.349a12.152 12.152 0 0 0 1.5-1.349 7.279 7.279 0 0 0 .668-.655 6.431 6.431 0 0 0 .565-.732 4.443 4.443 0 0 0 .617-.552 6.608 6.608 0 0 0 .565-.732l.244-.36a1.145 1.145 0 0 1 .347-.283l.283-.411.283-.4c.18-.283.385-.54.565-.809l.552-.809 1.67.861 3.854 2.646a50.223 50.223 0 0 0 .206 9.583 12.459 12.459 0 0 0 1.914 5.678c.707.874 1.362 1.683 1.991 2.428s1.208 1.387 1.76 1.953a14.577 14.577 0 0 0 5.254 1.7 12.511 12.511 0 0 0 5.138-.514 19.576 19.576 0 0 0 5.511-2.762 20.349 20.349 0 0 0 4.278-4.226 17.014 17.014 0 0 0 2.171-4.252 19.768 19.768 0 0 0 .989-4.779 12.68 12.68 0 0 0-.36-4.894 15.752 15.752 0 0 0-2.2-4.676l-6.423-11.767a30.831 30.831 0 0 1-3.764-8.748 13.363 13.363 0 0 1 0-6.873 53.872 53.872 0 0 1 2.389-5.678 41.592 41.592 0 0 1 3.186-5.421l.141-.205a26.383 26.383 0 0 1 7.54-5.845z" transform="translate(-2291.891 -930.88)"/><path id="Path_9087" data-name="Path 9087" d="M2415.331 1016.359a46.622 46.622 0 0 1 13.129-9.995 37.255 37.255 0 0 1 16.315-4.149 46.4 46.4 0 0 1 17.753 3.417l4.368 1.567a5.946 5.946 0 0 0 1.041.539l1.079.411a5.535 5.535 0 0 0 1.04.527l1.092.424q1.143.578 2.248 1.079c.745.334 1.5.694 2.261 1.079a40.85 40.85 0 0 1 4.291 2.261 63.096 63.096 0 0 1 4 2.685 29.554 29.554 0 0 1 3.558 3.045 26.454 26.454 0 0 1 2.9 3.443l-6.038 7.8-4.342-1.683-.861-.334a49.1 49.1 0 0 0-2.685-4.933 34.265 34.265 0 0 0-3.173-4.342 31.43 31.43 0 0 0-3.648-3.6 42.885 42.885 0 0 0-3.918-2.916 10.977 10.977 0 0 0-1.285-.668 6.768 6.768 0 0 1-1.118-.642l-.219-.09h-.321a27.77 27.77 0 0 0-10.56-.951 34.516 34.516 0 0 0-10.843 3.032 33.4 33.4 0 0 0-10.842 8.324 45.373 45.373 0 0 0-7.9 13.566l-.27.681-.27.694a61.528 61.528 0 0 0-4.021 17.844 26.461 26.461 0 0 0 2.569 13.681 35.781 35.781 0 0 0 6.526 9.211 30.294 30.294 0 0 0 8.607 6.051 40.323 40.323 0 0 0 5.857 1.285 36.474 36.474 0 0 0 6.1.334 38.107 38.107 0 0 0 6.346-.629 36.741 36.741 0 0 0 5.871-1.619l4.368 1.567-3.635 6.77c-.655.18-1.285.321-1.914.437s-1.208.231-1.773.36a14.61 14.61 0 0 1-1.824.218l-1.786.09a25.018 25.018 0 0 1-2.634-.09 23.282 23.282 0 0 0-2.569-.064c-.321 0-.629-.064-.912-.077s-.54 0-.784 0l-3.417-.54c-1.092-.167-2.184-.373-3.25-.6s-2.119-.514-3.109-.822-2.017-.642-3.032-1.041l-4.329-1.683a43.371 43.371 0 0 1-13.694-8.376 40.656 40.656 0 0 1-9.442-13.18 37.894 37.894 0 0 1-3.558-16.7 52.138 52.138 0 0 1 3.854-18.37l.09-.231a44.736 44.736 0 0 1 8.71-14.092z" transform="translate(-2302.978 -936.558)"/><path id="Path_9088" data-name="Path 9088" d="M2542.47 1027.92l4.586.707a4.347 4.347 0 0 0 .745.552 7.7 7.7 0 0 0 .861.437 1.068 1.068 0 0 1 .282.1.823.823 0 0 0 .282.1h1.028a9.066 9.066 0 0 0 1.143-.141l.9-.167 4.612.578-5.421 35.391a20.967 20.967 0 0 0 4.021 1.362q2.479.642 5.9 1.4l6.333 1.285q3.237.63 6.577 1.13 2.98.45 5.806.835c1.888.244 3.751.462 5.6.655q3.366.283 5.935.411a32.415 32.415 0 0 0 4.111 0l5.473-35.764 4.6.707a.562.562 0 0 0 .18.334.374.374 0 0 0 .219.09.1.1 0 0 0 .09.154h.231a.99.99 0 0 0 .437.193l.463.064a.473.473 0 0 1 .219.1.53.53 0 0 0 .218.09.3.3 0 0 0 .206.154h.578a5.126 5.126 0 0 0 1.285-.116 7.672 7.672 0 0 1 1.13-.141l4.612.578-13.052 85.4-4.586-.707a4.217 4.217 0 0 1-.976-.218 10.931 10.931 0 0 1-1.053-.347h-1.876a7.3 7.3 0 0 1-1.387-.167l-4.586-.694 6.423-42.084q-.809-.116-1.888-.347c-.719-.154-1.5-.334-2.338-.54s-1.734-.3-2.685-.475-1.953-.411-3.019-.642c-1.657-.411-3.4-.8-5.241-1.1s-3.738-.642-5.717-.951l-1.156-.167-1.028-.154a5.72 5.72 0 0 1-1.1 0l-1.092-.167-1.374-.411-1.375-.218a9.958 9.958 0 0 1-1.5-.1l-1.375-.206c-.54-.077-1.1-.154-1.683-.193s-1.143-.116-1.683-.193-1.208 0-1.747-.077-1.13-.1-1.734-.193a113.56 113.56 0 0 1-3.365-.321 27.711 27.711 0 0 0-3.263-.193l-6.423 41.84-4.586-.719a8.83 8.83 0 0 1-1.208-.244 14.34 14.34 0 0 1-1.053-.334 5.192 5.192 0 0 0-1.413 0 10.536 10.536 0 0 1-1.619-.193l-4.586-.694z" transform="translate(-2315.644 -939.127)"/><path id="Path_9089" data-name="Path 9089" d="M2678.448 1085.7v-1.053a10.74 10.74 0 0 1 0-1.285 8.007 8.007 0 0 1 .167-1.285 43.676 43.676 0 0 1 3.7-14.259 52.954 52.954 0 0 1 8.582-13.193 33.9 33.9 0 0 1 13.36-9.545 50.555 50.555 0 0 1 18.55-3.314l4.65-.18a66.57 66.57 0 0 1 18.319 2.9 28.942 28.942 0 0 1 12.32 7.5 50.54 50.54 0 0 1 7.708 10.277 42.085 42.085 0 0 1 4.342 11.292 9.723 9.723 0 0 1 .372 1.464c.077.488.167.938.244 1.285s.167.989.257 1.477.154.989.244 1.464a28.82 28.82 0 0 1 .321 2.9 27.626 27.626 0 0 0 .192 2.762v1.477a48.15 48.15 0 0 1-3.122 18.434 35.971 35.971 0 0 1-9.9 13.938 44.707 44.707 0 0 1-30.3 11.87h-9.57a26.82 26.82 0 0 1-2.967-.283 19.47 19.47 0 0 1-3.019-.462l-3.032-.707a37.18 37.18 0 0 1-11.189-4.573 54.259 54.259 0 0 1-10.277-8.273 31.42 31.42 0 0 1-7.386-12.422 56.532 56.532 0 0 1-2.569-17.163v-1.285zm16.6 1a57.79 57.79 0 0 0 2.428 16.893 33.063 33.063 0 0 0 7.04 12.435 30.524 30.524 0 0 0 9.532 7.155 30.149 30.149 0 0 0 11.7 2.839 26.722 26.722 0 0 0 10.816-3.058 29.8 29.8 0 0 0 8.825-7.348 38.628 38.628 0 0 0 6.834-12.628 66.369 66.369 0 0 0 3.083-16.777v-1.991a46.355 46.355 0 0 0-2.415-14.748 37.13 37.13 0 0 0-6.9-12.1 31.781 31.781 0 0 0-9.776-7.541 30.152 30.152 0 0 0-11.934-2.955 27.6 27.6 0 0 0-10.2 2.569 21.349 21.349 0 0 0-7.592 6.166 53.248 53.248 0 0 0-9.442 19.269c-.218 1.079-.45 2.107-.668 3.083s-.4 1.978-.552 2.955-.27 1.966-.373 2.955-.231 1.927-.385 2.826z" transform="translate(-2330.545 -940.501)"/><path id="Path_9090" data-name="Path 9090" d="M2831.46 1077.905c-.077-.36-.154-.694-.219-1.015a11.594 11.594 0 0 1-.193-1.285 21.892 21.892 0 0 1-.077-1.285 43.317 43.317 0 0 1 .822-14.683 53.381 53.381 0 0 1 5.832-14.632 34.064 34.064 0 0 1 11.254-11.973 50.642 50.642 0 0 1 17.535-6.886l4.509-1.079a66.235 66.235 0 0 1 18.537-.758 28.787 28.787 0 0 1 13.566 4.946 49.762 49.762 0 0 1 9.57 8.543 41.933 41.933 0 0 1 6.424 10.2 11.579 11.579 0 0 1 .642 1.375c.167.475.347.886.514 1.284l.527 1.387c.18.475.347.938.527 1.4a26.38 26.38 0 0 1 .874 2.775c.231.912.475 1.8.745 2.672v.244l.077.36.1.488.064.36a47.964 47.964 0 0 1 .643 18.743 36.086 36.086 0 0 1-6.976 15.621 46.105 46.105 0 0 1-12.242 11.5 45.428 45.428 0 0 1-15.159 6.076l-4.548.963-.45.09-.462.09-.514.116-.514.1q-1.478.308-2.916.552a24.508 24.508 0 0 1-2.954.3 19.13 19.13 0 0 1-3.058.141l-3.109-.1a36.141 36.141 0 0 1-11.87-2.274 53.545 53.545 0 0 1-11.728-6.076 31.179 31.179 0 0 1-9.661-10.714 56.141 56.141 0 0 1-5.858-16.315v-.231a6.852 6.852 0 0 1-.254-1.02zm16.482-2.274a57.354 57.354 0 0 0 5.7 16.1 33.029 33.029 0 0 0 9.326 10.8 30.833 30.833 0 0 0 10.752 5.139 30.307 30.307 0 0 0 12.037.488 26.977 26.977 0 0 0 10.007-5.138 29.743 29.743 0 0 0 7.207-8.992 38.711 38.711 0 0 0 4.226-13.707 65.868 65.868 0 0 0-.27-17.06l-.116-.527-.077-.411-.1-.488-.1-.488a46.327 46.327 0 0 0-5.254-13.977 37.252 37.252 0 0 0-9.159-10.521 31.536 31.536 0 0 0-11.06-5.472 29.84 29.84 0 0 0-12.281-.552 27.712 27.712 0 0 0-9.481 4.56 21.549 21.549 0 0 0-6.243 7.541 52.952 52.952 0 0 0-5.486 20.759v6.166c0 .989.128 1.991.206 2.968s.154 1.94.18 2.852z" transform="translate(-2345.768 -938.742)"/><path id="Path_9091" data-name="Path 9091" d="M2964.843 1000.429l4.214-1.927a2.89 2.89 0 0 0 1.182.064 9.565 9.565 0 0 0 1.285-.244l.219-.1.206-.09.167-.077.154-.064.218-.09a11.055 11.055 0 0 0 .861-.745l.655-.642 4.175-2.043 32.655 71.258a11.415 11.415 0 0 0 1.747-.4 13.608 13.608 0 0 0 1.837-.707 17.582 17.582 0 0 0 1.747-.655l1.786-.835.951-.424a3.857 3.857 0 0 0 .8-.5l.886-.411.9-.411 4.008-2.107 3.854-2.055c1.208-.745 2.3-1.4 3.3-1.991s1.9-1.13 2.723-1.593l4.175-2.042a4.881 4.881 0 0 0 .154.874 2.167 2.167 0 0 0 .192.732 2.44 2.44 0 0 0 .206.719c.09.231.18.4.257.565l.3.668.27.552a3.468 3.468 0 0 0 .321.591 2.831 2.831 0 0 0 .4.424l.129.3a1.276 1.276 0 0 0 .283.334l.128.282.128.3.411.617-4.214 1.94-38.227 17.504z" transform="translate(-2359.193 -935.787)"/><path id="Path_9092" data-name="Path 9092" d="M3057.285 961.544a19.272 19.272 0 0 1 .283-8.273 31.739 31.739 0 0 1 2.993-7.284 25.919 25.919 0 0 1 4.651-5.935l.54-.424.552-.424.308-.257a.825.825 0 0 0 .244-.347l.283-.218.283-.206 3.571-2.968a40.772 40.772 0 0 1 4.766-2.955 28.812 28.812 0 0 1 5.023-2.068 16.044 16.044 0 0 1 4.624-.886 12.486 12.486 0 0 1 3.854.45 8.205 8.205 0 0 0 0 1.927 10.163 10.163 0 0 0 .45 1.9c.231.668.514 1.4.861 2.235s.745 1.67 1.156 2.569l.219.463.36.642-3.635 2.865-1.554 1.053-.629-.347-.886-.475a11.971 11.971 0 0 0-1.13-.6 8.722 8.722 0 0 0-1.156-.424 13 13 0 0 0-3.044-.578 18.37 18.37 0 0 0-3.533.116 14.13 14.13 0 0 0-2.685.539 10.031 10.031 0 0 0-2.569 1.285 9.363 9.363 0 0 0-2.132 3.4 16.322 16.322 0 0 0-.951 4.342 14.581 14.581 0 0 0 .54 5.678 14.943 14.943 0 0 0 2.569 4.869l.334.424.347.437.167.193a.348.348 0 0 0 .244.116l.154.193.154.193a12.337 12.337 0 0 0 2.788 1.953 24.527 24.527 0 0 0 3.6 1.464 18.752 18.752 0 0 0 4.291.475 23.89 23.89 0 0 0 5.062-.616l13.552-3.623a27.983 27.983 0 0 1 7.181-.63 18.293 18.293 0 0 1 6.243 1.349 21.191 21.191 0 0 1 5.331 2.929 22.862 22.862 0 0 1 4.2 4.124l.424.527.334.437.154.193.154.193a1.265 1.265 0 0 0 .141.36l.167.18a26.972 26.972 0 0 1 3.713 8.992 34.3 34.3 0 0 1 .552 10.367 25.129 25.129 0 0 1-2.993 10.007 26.972 26.972 0 0 1-7.04 8.042l-3.648 2.865-.462.36-.373.283-.36.283-.373.3a.925.925 0 0 0-.437.18l-.36.283-.373.3a1.28 1.28 0 0 1-.437.193 2.181 2.181 0 0 1-.5.3 1.622 1.622 0 0 0-.411.244 31.631 31.631 0 0 1-4.072 1.876c-1.4.527-2.839 1-4.278 1.413a31.064 31.064 0 0 1-4.124.668 28.783 28.783 0 0 1-3.571 0h-.334l-.257-.128a23.109 23.109 0 0 0-.72-2.248 13.2 13.2 0 0 0-.861-1.837 7 7 0 0 0-.437-.835 5.617 5.617 0 0 0-.513-.758 3.844 3.844 0 0 0-.36-.745 4.917 4.917 0 0 0-.514-.758l-.27-.334a.926.926 0 0 1-.167-.411l-.308-.385-.3-.4-.6-.771-.617-.758 1.285-1.349 3.648-2.865a50.163 50.163 0 0 0 9.211 2.569 12.537 12.537 0 0 0 6-.18c1.053-.411 2.017-.822 2.9-1.195s1.683-.745 2.389-1.092a14.567 14.567 0 0 0 3.173-4.522 12.305 12.305 0 0 0 1-5.023 19.351 19.351 0 0 0-3.854-11.407 17.266 17.266 0 0 0-3.417-3.327 20.291 20.291 0 0 0-4.278-2.351 12.664 12.664 0 0 0-4.779-1.092 15.636 15.636 0 0 0-5.138.732l-13.129 2.659a31.157 31.157 0 0 1-9.455 1.015 13.205 13.205 0 0 1-6.551-2.03 51.054 51.054 0 0 1-4.727-3.957 41.746 41.746 0 0 1-4.239-4.65l-.155-.192a26.319 26.319 0 0 1-3.327-8.866z" transform="translate(-2368.404 -929.261)"/></g><g id="Group_7321" data-name="Group 7321" transform="translate(247.098 42.136)" fill="#fff"><path id="Path_9093" data-name="Path 9093" d="M2401.367 397.22a.334.334 0 0 1-.18.206l-.231.1a.372.372 0 0 1-.18.206l-.231.09c-1.118.565-2.261 1.156-3.417 1.773s-2.312 1.285-3.494 1.927a10.871 10.871 0 0 1-1.285.732 10.972 10.972 0 0 0-1.156.681 10.714 10.714 0 0 1-1.143.694c-.411.206-.8.4-1.195.565a20.847 20.847 0 0 0-2.133 1.285c-.681.475-1.349.861-1.978 1.285l-1.773 1-1.413.861-4.689 1.811a.82.82 0 0 0 0-.488 2.084 2.084 0 0 1 0-.578 3.565 3.565 0 0 1-.141-.5 2.47 2.47 0 0 0-.064-.642l-.18-.475-.193-.462-.1-.231a1.289 1.289 0 0 1 0-.4l-.09-.244-.1-.231a14.139 14.139 0 0 0-.514-1.079 8.816 8.816 0 0 0-.591-.912 11.274 11.274 0 0 1-.642-1.028 3.11 3.11 0 0 0-.707-.861l61.084-25.757 4.65-1.94a7.248 7.248 0 0 0 .141.835 2.066 2.066 0 0 1 0 .591 1.129 1.129 0 0 0 .077.527l.18.45a2.762 2.762 0 0 0 .064.655 1.686 1.686 0 0 0 .141.488l.218.527.219.527.4.989a6.78 6.78 0 0 0 .578 1.053c.206.283.437.565.707.874a11.72 11.72 0 0 1 .758.976l-4.689 1.824-8.363 2.184a269.76 269.76 0 0 0-7.708 2.171 30.537 30.537 0 0 0-3.135.989q-1.426.527-2.736.938l31.088 74.508-4.65 1.927-.527.218a1.285 1.285 0 0 1-.565.1 3.4 3.4 0 0 1-.668.206 2.331 2.331 0 0 0-.539.167h-.231l-.231.1c-.437.27-.874.527-1.285.745a14.887 14.887 0 0 1-1.374.642l-4.638 1.94z" transform="translate(-2373.503 -336.508)"/><path id="Path_9094" data-name="Path 9094" d="M2521.339 353.273l4.92-.989 44.628-9.082v1.1a3.123 3.123 0 0 1-.077.861 1.535 1.535 0 0 1 0 .321.742.742 0 0 0 0 .321.867.867 0 0 0 0 .4l.064.373v.244l.09.5.218 1.041a3.705 3.705 0 0 0 .3.9 2.691 2.691 0 0 0 .167.488 3.252 3.252 0 0 0 .3.45l.308.578a1.839 1.839 0 0 0 .283.45l-4.946.874-3.854.27c-1.285.077-2.569.231-4.008.424s-2.685.4-4.047.629-2.736.5-4.137.771h-.128a3.841 3.841 0 0 1-.9.308l-.925.18-.976.193-.874.18-1.041.218-1.182.231a3.852 3.852 0 0 1-1.015.334l-1.053.218-2.145.437-2.03.411 6.063 29.816 13.566-2.749 11.395-3.327 4.92-1a6.115 6.115 0 0 1-.09 1.1 14.7 14.7 0 0 0-.154.861 3.973 3.973 0 0 0 .065.938l.18.938.1.488.1.5a2.318 2.318 0 0 0 .18.6 2.412 2.412 0 0 1 .167.488 9.061 9.061 0 0 0 .527.989 10.861 10.861 0 0 1 .54 1.1l-4.959.874-14.76 1.837-10.6 2.145 7.1 35.006a13.283 13.283 0 0 0 1.915 0 18.423 18.423 0 0 0 2.132-.3 16.159 16.159 0 0 0 1.991-.283l2.107-.411 1.1-.231a4.232 4.232 0 0 0 .964-.308l1.053-.218 1.04-.218 4.753-1.208 4.637-1.208 3.982-1.285 3.276-.989 4.907-1.118a10.753 10.753 0 0 1-.064 1.285 10.406 10.406 0 0 0-.064 1.285 4.263 4.263 0 0 0 .077 1.015l.193.989.193.989a3.939 3.939 0 0 0 .334.963 4.045 4.045 0 0 0 .475.8 1.834 1.834 0 0 0 .411.424l-4.933.989-45.6 9.275z" transform="translate(-2388.29 -333.374)"/><path id="Path_9095" data-name="Path 9095" d="M2660.258 332.282h11.073l55.239 60.968.064-60.891h5.036a1.155 1.155 0 0 0 .63.514l.758.257a7.549 7.549 0 0 0 .873-.257 3.851 3.851 0 0 0 .63-.257l5.036-.116-.1 87.072h-9.943l-56.408-62.857-.077 62.78h-5.537a.784.784 0 0 1-.373-.064.719.719 0 0 0-.257 0h-.437a.888.888 0 0 0-.437.128h-5.928z" transform="translate(-2402.164 -332.282)"/><path id="Path_9096" data-name="Path 9096" d="M2839.6 346.528l4.882 1.285 28.917 7.335a.8.8 0 0 0 .488.385l.54.141.552.141.54.141a35.383 35.383 0 0 1 7.181 2.929 33.218 33.218 0 0 1 6.167 4.355 10.805 10.805 0 0 1 3.725 6.076 18.178 18.178 0 0 1-.411 8.517l-.09.373-.09.373-.128.488-.077.373a18.394 18.394 0 0 1-3.1 6.539 23.2 23.2 0 0 1-5.46 5.138 21.689 21.689 0 0 1-7.052 3.2 25.4 25.4 0 0 1-7.823.668 51.831 51.831 0 0 1 7.528 4.111 35.066 35.066 0 0 1 6 5.036 11.961 11.961 0 0 1 3.25 6.873 24.7 24.7 0 0 1-.771 9.468 27.738 27.738 0 0 1-4.968 10.627 17.986 17.986 0 0 1-8.3 5.871 33.478 33.478 0 0 1-9.981 2.209 35.367 35.367 0 0 1-10.277-.835l-4.882-1.285-.308-.064-.3-.077-.347-.141h-.373l-.668-.18-.552-.128-25-6.346zm2.222 84.426a22.083 22.083 0 0 0 7.823 1.143 19.423 19.423 0 0 0 6.821-1.58 25.825 25.825 0 0 0 5.37-3.25 17.212 17.212 0 0 0 3.854-4.162 1.83 1.83 0 0 1 .18-.475 5.951 5.951 0 0 1 .334-.565 2.664 2.664 0 0 1 .18-.475 1.709 1.709 0 0 0 .18-.475 9.45 9.45 0 0 0 .424-.925 7.083 7.083 0 0 0 .308-.964 25.1 25.1 0 0 0 .704-10.676 12.743 12.743 0 0 0-4.265-7.5 32.343 32.343 0 0 0-7.618-4.792 71.7 71.7 0 0 0-11.562-4.1l-9.4 37.074zm6.834-43.3a34.4 34.4 0 0 0 9.712 1.619 21.439 21.439 0 0 0 7.862-1.284 16.007 16.007 0 0 0 5.755-4 18.738 18.738 0 0 0 3.854-6.552l.128-.5.206-.334.064-.244.09-.36a12.961 12.961 0 0 0 .077-6.423 11.7 11.7 0 0 0-3.288-5.5 25.458 25.458 0 0 0-5.627-4.162 30.127 30.127 0 0 0-6.925-2.659l-6.641-1.94-8.042 31.717z" transform="translate(-2417.99 -333.708)"/><path id="Path_9097" data-name="Path 9097" d="M2979.616 389.846l4.5 2.261a12.645 12.645 0 0 0 1.593 1.439l1.605 1.143.4.206.283.141h.231l1.066.527a4.508 4.508 0 0 0 1.015.372l1.285.347 1.285.334 4.56 2.145 2.389 42.611 34.762-24.074 4.5 2.248a5.053 5.053 0 0 0 .938 1.1c.347.321.694.617 1.028.873l.283.141.3.141a.836.836 0 0 0 .308.09.77.77 0 0 1 .308.077l1 .231 1.015.218 4.561 2.145-2.261 1.285q-1.079.591-2.081 1.22c-.758.373-1.49.758-2.209 1.143s-1.4.784-2.081 1.208-1.49.784-2.222 1.208-1.452.848-2.12 1.285-1.49.771-2.235 1.208l-2.107 1.285q-4.342 2.479-8.389 4.933l-8.126 4.939c-2.569 1.683-5.138 3.327-7.554 4.946s-4.637 3.16-6.706 4.65l-17.227 34.3-4.5-2.261a14.288 14.288 0 0 1-1.285-.706 11.633 11.633 0 0 1-1.1-.758h-.231l-.167-.09-.167-.077c-.488-.154-.989-.334-1.49-.527s-1.053-.462-1.657-.758l-4.509-2.261 16.443-32.719z" transform="translate(-2432.995 -338.037)"/></g></g></svg>