<svg width="300" height="300" viewBox="0 0 300 300" fill="none" xmlns="http://www.w3.org/2000/svg">
<path d="M150 300C232.843 300 300 232.843 300 150C300 67.1573 232.843 0 150 0C67.1573 0 0 67.1573 0 150C0 232.843 67.1573 300 150 300Z" fill="#1DA1F2"/>
<path d="M227.929 103.944C222.421 106.376 216.532 108.017 210.321 108.778C216.649 104.97 221.513 98.9639 223.798 91.8154C217.88 95.2725 211.288 97.792 204.315 99.1982C198.72 93.2217 190.78 89.4717 181.933 89.4717C164.999 89.4717 151.259 103.212 151.259 120.116C151.259 122.548 151.552 124.892 152.05 127.118C126.562 125.917 103.944 113.671 88.8272 95.1553C86.1611 99.667 84.667 104.882 84.667 110.595C84.667 121.259 90.0869 130.634 98.3193 136.142C93.2803 135.966 88.5635 134.589 84.4326 132.304V132.685C84.4326 147.567 94.9795 159.96 109.042 162.772C106.464 163.476 103.739 163.827 100.956 163.827C98.9932 163.827 97.1182 163.651 95.2432 163.3C99.1689 175.487 110.478 184.364 123.954 184.599C113.495 192.831 100.194 197.724 85.9268 197.724C83.4951 197.724 81.0635 197.577 78.6318 197.313C92.2842 206.015 108.368 211.083 125.741 211.083C182.138 211.083 212.987 164.354 212.987 123.896C212.987 122.606 212.987 121.288 212.899 119.97C218.876 115.663 224.12 110.243 228.222 104.091L227.929 103.944Z" fill="white"/>
</svg>
