<svg xmlns="http://www.w3.org/2000/svg" xmlns:xlink="http://www.w3.org/1999/xlink" width="500" zoomAndPan="magnify" viewBox="0 0 375 374.999991" height="500" preserveAspectRatio="xMidYMid meet" version="1.0"><path fill="#caddff" d="M 346.710938 161.261719 C 335.8125 85.5 268.261719 41.527344 215.082031 29.054688 C 186.109375 22.257812 154.628906 21.8125 125.722656 29.207031 C 100.851562 35.574219 75.691406 44.765625 56.082031 61.847656 C 51.585938 65.765625 47.257812 69.890625 44.167969 75.023438 C 37.472656 86.15625 42.269531 101.023438 46.675781 112.152344 C 51.941406 125.445312 62.160156 142.316406 61.902344 156.722656 C 60.792969 218.585938 24.847656 231.8125 30.601562 273.347656 C 33.953125 297.570312 58.589844 309.117188 70.808594 317.398438 C 123.632812 353.183594 200.695312 351.042969 254.277344 326.007812 C 307.164062 301.300781 357.570312 236.734375 346.710938 161.261719 " fill-opacity="1" fill-rule="nonzero"/><path fill="#0c2840" d="M 322.796875 322.910156 L 110.9375 322.238281 C 106.925781 322.238281 103.75 318.851562 104.007812 314.847656 L 121.363281 42.558594 C 121.597656 38.902344 124.628906 36.054688 128.292969 36.054688 L 340.695312 35.398438 C 344.707031 35.398438 348.453125 39.441406 348.199219 43.445312 L 330.84375 315.730469 C 330.609375 319.390625 326.464844 322.910156 322.796875 322.910156 " fill-opacity="1" fill-rule="nonzero"/><path fill="#ffffff" d="M 323.710938 315.730469 C 323.476562 319.390625 320.445312 322.238281 316.777344 322.238281 L 103.804688 322.238281 C 99.792969 322.238281 96.617188 318.851562 96.871094 314.847656 L 114.230469 42.558594 C 114.464844 38.902344 117.496094 36.054688 121.160156 36.054688 L 334.132812 36.054688 C 338.144531 36.054688 341.320312 39.441406 341.066406 43.445312 L 323.710938 315.730469 " fill-opacity="1" fill-rule="nonzero"/><path fill="#000000" d="M 316.777344 322.816406 L 109.378906 322.816406 C 109.058594 322.816406 108.800781 322.558594 108.800781 322.238281 C 108.800781 321.917969 109.058594 321.65625 109.378906 321.65625 L 316.777344 321.65625 C 320.128906 321.65625 322.917969 319.039062 323.128906 315.695312 L 340.488281 43.40625 C 340.601562 41.632812 339.992188 39.941406 338.777344 38.644531 C 337.5625 37.347656 335.910156 36.636719 334.132812 36.636719 L 121.160156 36.636719 C 117.8125 36.636719 115.023438 39.253906 114.808594 42.597656 L 110.148438 115.730469 C 110.128906 116.050781 109.851562 116.292969 109.53125 116.273438 C 109.210938 116.253906 108.96875 115.976562 108.988281 115.65625 L 113.652344 42.523438 C 113.902344 38.570312 117.203125 35.476562 121.160156 35.476562 L 334.132812 35.476562 C 336.234375 35.476562 338.183594 36.320312 339.621094 37.851562 C 341.0625 39.382812 341.78125 41.382812 341.644531 43.480469 L 324.289062 315.769531 C 324.035156 319.722656 320.738281 322.816406 316.777344 322.816406 " fill-opacity="1" fill-rule="nonzero"/><path fill="#caddff" d="M 315.519531 307.460938 C 315.308594 310.816406 312.523438 313.429688 309.160156 313.429688 L 111.503906 313.429688 C 107.824219 313.429688 104.910156 310.320312 105.144531 306.648438 L 121.546875 49.910156 C 121.761719 46.554688 124.542969 43.941406 127.90625 43.941406 L 325.566406 43.941406 C 329.242188 43.941406 332.160156 47.046875 331.925781 50.71875 L 315.519531 307.460938 " fill-opacity="1" fill-rule="nonzero"/><path fill="#19598f" d="M 330.789062 68.535156 L 331.925781 50.71875 C 332.160156 47.046875 329.242188 43.941406 325.566406 43.941406 L 127.90625 43.941406 C 124.542969 43.941406 121.761719 46.554688 121.546875 49.910156 L 120.3125 69.222656 L 330.789062 68.535156 " fill-opacity="1" fill-rule="nonzero"/><path fill="#0c2840" d="M 144.125 57.546875 C 144.125 60.867188 141.433594 63.554688 138.117188 63.554688 C 134.800781 63.554688 132.113281 60.867188 132.113281 57.546875 C 132.113281 54.234375 134.800781 51.546875 138.117188 51.546875 C 141.433594 51.546875 144.125 54.234375 144.125 57.546875 " fill-opacity="1" fill-rule="nonzero"/><path fill="#0c2840" d="M 138.117188 51.738281 C 134.914062 51.738281 132.304688 54.34375 132.304688 57.546875 C 132.304688 60.753906 134.914062 63.359375 138.117188 63.359375 C 141.324219 63.359375 143.929688 60.753906 143.929688 57.546875 C 143.929688 54.34375 141.324219 51.738281 138.117188 51.738281 Z M 138.117188 63.75 C 134.699219 63.75 131.917969 60.964844 131.917969 57.546875 C 131.917969 54.132812 134.699219 51.351562 138.117188 51.351562 C 141.535156 51.351562 144.316406 54.132812 144.316406 57.546875 C 144.316406 60.964844 141.535156 63.75 138.117188 63.75 " fill-opacity="1" fill-rule="nonzero"/><path fill="#0c2840" d="M 162.140625 57.789062 C 162.140625 61.105469 159.449219 63.792969 156.132812 63.792969 C 152.816406 63.792969 150.128906 61.105469 150.128906 57.789062 C 150.128906 54.472656 152.816406 51.785156 156.132812 51.785156 C 159.449219 51.785156 162.140625 54.472656 162.140625 57.789062 " fill-opacity="1" fill-rule="nonzero"/><path fill="#0c2840" d="M 156.132812 51.976562 C 152.929688 51.976562 150.320312 54.585938 150.320312 57.789062 C 150.320312 60.996094 152.929688 63.601562 156.132812 63.601562 C 159.335938 63.601562 161.945312 60.996094 161.945312 57.789062 C 161.945312 54.585938 159.335938 51.976562 156.132812 51.976562 Z M 156.132812 63.988281 C 152.714844 63.988281 149.933594 61.207031 149.933594 57.789062 C 149.933594 54.371094 152.714844 51.589844 156.132812 51.589844 C 159.550781 51.589844 162.332031 54.371094 162.332031 57.789062 C 162.332031 61.207031 159.550781 63.988281 156.132812 63.988281 " fill-opacity="1" fill-rule="nonzero"/><path fill="#0c2840" d="M 180.753906 57.667969 C 180.753906 60.984375 178.066406 63.675781 174.75 63.675781 C 171.433594 63.675781 168.742188 60.984375 168.742188 57.667969 C 168.742188 54.355469 171.433594 51.664062 174.75 51.664062 C 178.066406 51.664062 180.753906 54.355469 180.753906 57.667969 " fill-opacity="1" fill-rule="nonzero"/><path fill="#0c2840" d="M 174.75 51.855469 C 171.542969 51.855469 168.9375 54.464844 168.9375 57.667969 C 168.9375 60.875 171.542969 63.480469 174.75 63.480469 C 177.953125 63.480469 180.558594 60.875 180.558594 57.667969 C 180.558594 54.464844 177.953125 51.855469 174.75 51.855469 Z M 174.75 63.867188 C 171.332031 63.867188 168.550781 61.085938 168.550781 57.667969 C 168.550781 54.25 171.332031 51.472656 174.75 51.472656 C 178.167969 51.472656 180.945312 54.25 180.945312 57.667969 C 180.945312 61.085938 178.167969 63.867188 174.75 63.867188 " fill-opacity="1" fill-rule="nonzero"/><path fill="#0c2840" d="M 215.480469 51.773438 L 309.96875 51.316406 C 311.480469 51.308594 312.6875 52.566406 312.621094 54.078125 L 312.371094 59.847656 C 312.308594 61.253906 311.160156 62.363281 309.757812 62.378906 L 215 63.285156 C 213.445312 63.300781 212.210938 61.972656 212.339844 60.421875 L 212.859375 54.199219 C 212.972656 52.832031 214.113281 51.78125 215.480469 51.773438 " fill-opacity="1" fill-rule="nonzero"/><path fill="#0c2840" d="M 215.480469 51.964844 C 214.203125 51.972656 213.160156 52.9375 213.050781 54.214844 L 212.53125 60.4375 C 212.476562 61.125 212.710938 61.804688 213.179688 62.3125 C 213.648438 62.816406 214.308594 63.097656 215 63.09375 L 309.753906 62.183594 C 311.058594 62.171875 312.121094 61.140625 312.179688 59.839844 L 312.429688 54.066406 C 312.460938 53.390625 312.214844 52.75 311.746094 52.261719 C 311.277344 51.773438 310.648438 51.527344 309.96875 51.511719 Z M 214.972656 63.480469 C 214.1875 63.480469 213.429688 63.152344 212.898438 62.574219 C 212.355469 61.988281 212.082031 61.203125 212.148438 60.40625 L 212.664062 54.179688 C 212.789062 52.707031 214 51.585938 215.480469 51.582031 L 309.96875 51.125 C 309.972656 51.125 309.976562 51.125 309.980469 51.125 C 310.761719 51.125 311.484375 51.433594 312.027344 51.996094 C 312.570312 52.558594 312.851562 53.300781 312.816406 54.082031 L 312.5625 59.855469 C 312.5 61.363281 311.265625 62.554688 309.757812 62.570312 L 215.003906 63.480469 C 214.992188 63.480469 214.984375 63.480469 214.972656 63.480469 " fill-opacity="1" fill-rule="nonzero"/><path fill="#ffffff" d="M 288.113281 92.277344 L 176.203125 92.273438 L 177.0625 82.230469 L 288.976562 82.230469 L 288.113281 92.277344 " fill-opacity="1" fill-rule="nonzero"/><path fill="#ffffff" d="M 281.921875 164.832031 L 170.007812 164.808594 L 175.753906 97.976562 L 287.664062 97.980469 L 281.921875 164.832031 " fill-opacity="1" fill-rule="nonzero"/><path fill="#caddff" d="M 283.878906 87.253906 C 283.765625 88.589844 282.578125 89.671875 281.230469 89.671875 C 279.882812 89.671875 278.878906 88.589844 278.992188 87.253906 C 279.109375 85.917969 280.296875 84.835938 281.644531 84.835938 C 282.992188 84.835938 283.996094 85.917969 283.878906 87.253906 " fill-opacity="1" fill-rule="nonzero"/><path fill="#ffffff" d="M 277.945312 211.117188 L 166.03125 211.074219 L 169.613281 169.40625 L 281.527344 169.433594 L 277.945312 211.117188 " fill-opacity="1" fill-rule="nonzero"/><path fill="#ffffff" d="M 273.839844 258.882812 L 161.925781 258.828125 L 165.507812 217.160156 L 277.421875 217.203125 L 273.839844 258.882812 " fill-opacity="1" fill-rule="nonzero"/><path fill="#ffffff" d="M 270.949219 292.542969 L 159.03125 292.476562 L 161.402344 264.914062 L 273.320312 264.972656 L 270.949219 292.542969 " fill-opacity="1" fill-rule="nonzero"/><path fill="#0c2840" d="M 256.785156 129.292969 L 251.769531 147.777344 L 249.625 147.914062 L 254.324219 130.457031 L 256.785156 129.292969 " fill-opacity="1" fill-rule="nonzero"/><path fill="#0c2840" d="M 254.488281 130.59375 L 249.878906 147.703125 L 251.617188 147.59375 L 256.488281 129.648438 Z M 249.367188 148.125 L 254.160156 130.320312 L 257.082031 128.9375 L 251.917969 147.960938 L 249.367188 148.125 " fill-opacity="1" fill-rule="nonzero"/><path fill="#0c2840" d="M 227.613281 141.910156 C 227.496094 141.957031 227.378906 141.988281 227.296875 142.003906 C 227.21875 141.996094 227.066406 141.980469 226.972656 141.941406 L 206.304688 133.222656 L 206.261719 133.417969 L 204.113281 143.15625 C 204.023438 143.574219 204.027344 143.949219 204.378906 144.117188 L 223.574219 153.460938 C 223.839844 153.589844 224.144531 153.621094 224.433594 153.550781 C 224.679688 153.582031 224.96875 153.535156 225.234375 153.398438 L 248.105469 141.832031 C 248.488281 141.640625 248.65625 141.277344 248.761719 140.890625 L 251.175781 131.839844 L 251.222656 131.65625 L 227.613281 141.910156 " fill-opacity="1" fill-rule="nonzero"/><path fill="#0c2840" d="M 206.445312 133.488281 L 204.300781 143.199219 C 204.183594 143.730469 204.316406 143.875 204.460938 143.945312 L 223.65625 153.285156 C 223.882812 153.394531 224.144531 153.421875 224.382812 153.363281 L 224.421875 153.351562 L 224.457031 153.359375 C 224.671875 153.386719 224.925781 153.339844 225.148438 153.226562 L 248.019531 141.660156 C 248.292969 141.519531 248.460938 141.277344 248.574219 140.84375 L 250.933594 131.992188 L 227.6875 142.085938 C 227.585938 142.128906 227.472656 142.164062 227.335938 142.191406 L 227.308594 142.199219 L 227.273438 142.195312 C 227.164062 142.183594 227.011719 142.164062 226.898438 142.117188 Z M 224.125 153.78125 C 223.90625 153.78125 223.6875 153.730469 223.488281 153.636719 L 204.292969 144.289062 C 203.726562 144.019531 203.875 143.339844 203.925781 143.117188 L 206.167969 132.953125 L 227.050781 141.761719 C 227.105469 141.785156 227.222656 141.800781 227.289062 141.808594 C 227.382812 141.785156 227.464844 141.761719 227.535156 141.730469 L 251.511719 131.320312 L 248.949219 140.941406 C 248.859375 141.28125 248.683594 141.757812 248.191406 142.003906 L 225.324219 153.570312 C 225.039062 153.714844 224.726562 153.773438 224.445312 153.746094 C 224.339844 153.769531 224.234375 153.78125 224.125 153.78125 " fill-opacity="1" fill-rule="nonzero"/><path fill="#0c2840" d="M 251.992188 143.277344 L 246.988281 150.699219 C 246.929688 150.785156 246.914062 150.886719 246.949219 150.960938 L 248.683594 154.730469 C 248.714844 154.796875 248.785156 154.832031 248.871094 154.824219 C 248.957031 154.820312 249.046875 154.769531 249.117188 154.695312 L 252.964844 150.550781 C 253.039062 150.472656 253.074219 150.371094 253.0625 150.289062 L 251.992188 143.277344 " fill-opacity="1" fill-rule="nonzero"/><path fill="#0c2840" d="M 251.875 143.796875 L 247.152344 150.804688 C 247.125 150.84375 247.121094 150.871094 247.125 150.882812 L 248.859375 154.648438 C 248.886719 154.628906 248.933594 154.609375 248.976562 154.566406 L 252.824219 150.421875 C 252.863281 150.375 252.875 150.332031 252.871094 150.316406 Z M 248.851562 155.019531 C 248.699219 155.019531 248.570312 154.941406 248.507812 154.808594 L 246.773438 151.039062 C 246.710938 150.902344 246.730469 150.734375 246.828125 150.589844 L 252.109375 142.761719 L 253.253906 150.257812 C 253.277344 150.398438 253.21875 150.558594 253.105469 150.683594 L 249.257812 154.828125 C 249.15625 154.9375 249.019531 155.007812 248.882812 155.019531 C 248.875 155.019531 248.859375 155.019531 248.851562 155.019531 " fill-opacity="1" fill-rule="nonzero"/><path fill="#0c2840" d="M 263.527344 122.039062 L 236.066406 108.019531 C 235.796875 107.882812 235.464844 107.878906 235.128906 108.011719 L 196.585938 123.277344 C 196.453125 123.332031 196.175781 123.449219 196.152344 123.574219 L 195.644531 126.007812 C 195.617188 126.132812 195.855469 126.238281 195.964844 126.289062 L 227.359375 139.59375 C 227.625 139.707031 228 139.6875 228.328125 139.546875 L 262.765625 124.734375 C 262.875 124.6875 262.933594 124.582031 262.964844 124.472656 L 263.566406 122.296875 C 263.597656 122.183594 263.613281 122.082031 263.527344 122.039062 " fill-opacity="1" fill-rule="nonzero"/><path fill="#0c2840" d="M 263.4375 122.210938 L 263.441406 122.210938 Z M 195.839844 126 C 195.867188 126.023438 195.921875 126.058594 196.039062 126.109375 L 227.433594 139.414062 C 227.652344 139.503906 227.972656 139.488281 228.253906 139.367188 L 262.6875 124.554688 C 262.738281 124.53125 262.765625 124.46875 262.78125 124.417969 L 263.382812 122.246094 C 263.390625 122.21875 263.390625 122.203125 263.394531 122.1875 L 235.976562 108.191406 C 235.761719 108.082031 235.484375 108.078125 235.203125 108.195312 L 196.65625 123.457031 C 196.378906 123.570312 196.332031 123.636719 196.332031 123.636719 Z M 227.757812 139.859375 C 227.585938 139.859375 227.421875 139.828125 227.28125 139.769531 L 195.890625 126.464844 C 195.753906 126.410156 195.394531 126.253906 195.453125 125.96875 L 195.960938 123.539062 C 195.996094 123.371094 196.160156 123.238281 196.511719 123.097656 L 235.058594 107.832031 C 235.445312 107.679688 235.835938 107.683594 236.152344 107.847656 L 263.613281 121.867188 C 263.773438 121.949219 263.820312 122.109375 263.753906 122.347656 L 263.152344 124.523438 C 263.101562 124.710938 262.992188 124.84375 262.839844 124.910156 L 228.40625 139.722656 C 228.195312 139.8125 227.972656 139.859375 227.757812 139.859375 " fill-opacity="1" fill-rule="nonzero"/><path fill="#0c2840" d="M 236.054688 200.988281 C 236.054688 200.988281 229.121094 201.527344 220.730469 201.519531 C 212.636719 201.511719 205.660156 200.988281 205.660156 200.988281 C 203.019531 200.988281 201.191406 199.175781 201.574219 196.941406 L 204.050781 182.5625 C 204.4375 180.328125 206.886719 178.515625 209.53125 178.515625 C 209.53125 178.515625 216.421875 178.027344 225.003906 177.988281 C 232.808594 177.953125 239.925781 178.515625 239.925781 178.515625 C 242.566406 178.515625 244.398438 180.328125 244.011719 182.5625 L 241.535156 196.941406 C 241.152344 199.175781 238.699219 200.988281 236.054688 200.988281 " fill-opacity="1" fill-rule="nonzero"/><path fill="#0c2840" d="M 225.707031 178.179688 C 225.472656 178.179688 225.238281 178.179688 225.003906 178.179688 C 216.527344 178.21875 209.613281 178.703125 209.542969 178.707031 C 206.984375 178.707031 204.609375 180.453125 204.242188 182.59375 L 201.765625 196.976562 C 201.609375 197.886719 201.839844 198.765625 202.421875 199.453125 C 203.140625 200.304688 204.324219 200.796875 205.660156 200.796875 C 205.746094 200.800781 212.738281 201.316406 220.730469 201.324219 C 220.792969 201.324219 220.851562 201.324219 220.914062 201.324219 C 229.117188 201.324219 235.972656 200.800781 236.039062 200.796875 L 236.054688 200.796875 C 238.605469 200.796875 240.976562 199.050781 241.34375 196.910156 L 243.820312 182.527344 C 243.976562 181.621094 243.746094 180.742188 243.164062 180.054688 C 242.445312 179.199219 241.265625 178.707031 239.925781 178.707031 C 239.839844 178.703125 233.140625 178.179688 225.707031 178.179688 Z M 220.914062 201.710938 C 220.851562 201.710938 220.792969 201.710938 220.730469 201.710938 C 212.722656 201.703125 205.71875 201.1875 205.648438 201.183594 L 205.644531 201.183594 C 204.207031 201.183594 202.917969 200.640625 202.125 199.699219 C 201.472656 198.925781 201.207031 197.933594 201.382812 196.910156 L 203.859375 182.527344 C 204.257812 180.210938 206.804688 178.320312 209.53125 178.320312 C 209.585938 178.316406 216.511719 177.832031 225.003906 177.792969 C 232.730469 177.757812 239.867188 178.316406 239.941406 178.324219 C 241.378906 178.324219 242.667969 178.863281 243.460938 179.804688 C 244.113281 180.578125 244.378906 181.570312 244.203125 182.59375 L 241.726562 196.976562 C 241.328125 199.292969 238.789062 201.179688 236.0625 201.183594 C 235.800781 201.203125 229.011719 201.710938 220.914062 201.710938 " fill-opacity="1" fill-rule="nonzero"/><path fill="#ffffff" d="M 217.457031 189.75 C 217.242188 191.015625 215.851562 192.042969 214.359375 192.042969 C 212.867188 192.042969 211.832031 191.015625 212.046875 189.75 C 212.265625 188.488281 213.652344 187.464844 215.148438 187.464844 C 216.640625 187.464844 217.675781 188.488281 217.457031 189.75 " fill-opacity="1" fill-rule="nonzero"/><path fill="#ffffff" d="M 225.496094 189.75 C 225.28125 191.015625 223.890625 192.042969 222.398438 192.042969 C 220.90625 192.042969 219.871094 191.015625 220.089844 189.75 C 220.304688 188.488281 221.691406 187.464844 223.1875 187.464844 C 224.679688 187.464844 225.714844 188.488281 225.496094 189.75 " fill-opacity="1" fill-rule="nonzero"/><path fill="#ffffff" d="M 233.539062 189.75 C 233.320312 191.015625 231.933594 192.042969 230.4375 192.042969 C 228.945312 192.042969 227.910156 191.015625 228.128906 189.75 C 228.347656 188.488281 229.734375 187.464844 231.226562 187.464844 C 232.722656 187.464844 233.753906 188.488281 233.539062 189.75 " fill-opacity="1" fill-rule="nonzero"/><path fill="#ffffff" d="M 181.441406 217.339844 L 186.117188 221.132812 L 195.511719 212.710938 L 200.78125 220.976562 L 210.378906 196.042969 L 181.179688 205 L 190.875 208.988281 L 181.441406 217.339844 " fill-opacity="1" fill-rule="nonzero"/><path fill="#000000" d="M 182.339844 217.316406 L 186.097656 220.371094 L 195.125 212.277344 C 195.25 212.164062 195.417969 212.117188 195.589844 212.136719 C 195.757812 212.160156 195.910156 212.257812 196 212.398438 L 200.652344 219.695312 L 209.410156 196.945312 L 182.902344 205.078125 L 191.097656 208.449219 C 191.28125 208.527344 191.414062 208.691406 191.449219 208.890625 C 191.484375 209.089844 191.410156 209.289062 191.261719 209.421875 Z M 186.117188 221.714844 C 185.984375 221.714844 185.855469 221.671875 185.75 221.585938 L 181.078125 217.789062 C 180.941406 217.679688 180.863281 217.523438 180.859375 217.351562 C 180.855469 217.179688 180.929688 217.015625 181.058594 216.902344 L 189.792969 209.167969 L 180.960938 205.535156 C 180.734375 205.441406 180.589844 205.21875 180.601562 204.972656 C 180.613281 204.726562 180.777344 204.515625 181.011719 204.445312 L 210.207031 195.488281 C 210.421875 195.421875 210.648438 195.484375 210.800781 195.644531 C 210.953125 195.808594 211 196.042969 210.917969 196.25 L 201.324219 221.183594 C 201.246094 221.390625 201.058594 221.53125 200.839844 221.554688 C 200.625 221.574219 200.410156 221.472656 200.292969 221.285156 L 195.386719 213.601562 L 186.503906 221.566406 C 186.390625 221.664062 186.253906 221.714844 186.117188 221.714844 " fill-opacity="1" fill-rule="nonzero"/><path fill="#ffffff" d="M 140.726562 85.449219 C 134.515625 88.433594 130.980469 95.421875 132.613281 102.414062 C 133.355469 105.589844 135.054688 108.292969 137.335938 110.292969 C 137.398438 110.34375 137.460938 110.398438 137.527344 110.449219 L 138.734375 111.382812 C 142.097656 113.691406 146.382812 114.636719 150.671875 113.632812 C 158.753906 111.746094 163.972656 102.792969 161.890625 95.578125 C 160.265625 89.945312 158.105469 87.71875 153.957031 85.503906 C 147.621094 82.117188 140.726562 85.449219 140.726562 85.449219 " fill-opacity="1" fill-rule="nonzero"/><path fill="#000000" d="M 156.882812 98.613281 C 155.835938 93.183594 153.355469 85.980469 147.585938 86.378906 C 144.46875 86.59375 142.019531 88.648438 140.316406 91.136719 C 139.433594 92.425781 138.773438 93.824219 138.140625 95.25 C 137.457031 96.800781 136.320312 98.128906 136.777344 99.949219 C 137.105469 101.265625 138.109375 102.441406 137.984375 103.789062 C 137.867188 105.042969 136.367188 106.605469 135.3125 107.289062 C 139.621094 107.824219 147.8125 109.34375 152.09375 108.609375 C 155.839844 107.964844 157.804688 103.390625 156.882812 98.613281 " fill-opacity="1" fill-rule="nonzero"/><path fill="#19598f" d="M 146.222656 107.460938 C 142.402344 107.132812 138.726562 107.335938 135.367188 107.980469 C 135.964844 108.75 136.628906 109.457031 137.351562 110.089844 C 137.414062 110.144531 137.480469 110.195312 137.542969 110.246094 L 138.753906 111.179688 C 142.113281 113.492188 146.199219 114.417969 150.484375 113.417969 C 152.964844 112.835938 155.175781 111.589844 156.988281 109.933594 C 153.695312 108.65625 150.1875 107.800781 146.222656 107.460938 " fill-opacity="1" fill-rule="nonzero"/><path fill="#ffffff" d="M 151.855469 94.792969 C 151.78125 94.777344 151.710938 94.761719 151.636719 94.753906 C 150.882812 94.652344 150.117188 94.683594 149.363281 94.59375 C 148.609375 94.507812 147.835938 94.28125 147.289062 93.75 C 146.675781 93.15625 146.410156 92.242188 145.703125 91.753906 C 145.105469 91.34375 144.328125 91.335938 143.605469 91.339844 C 142.59375 91.351562 142.683594 91.902344 142.613281 92.703125 L 142.371094 95.546875 C 142.207031 97.453125 142.964844 99.203125 144.246094 100.292969 L 143.609375 107.714844 C 143.484375 109.195312 144.578125 110.492188 146.054688 110.621094 C 147.53125 110.746094 148.832031 109.652344 148.957031 108.171875 L 149.582031 100.859375 C 151.117188 100.03125 152.230469 98.382812 152.402344 96.40625 C 152.4375 95.972656 152.691406 95.277344 152.265625 94.960938 C 152.144531 94.871094 152.003906 94.824219 151.855469 94.792969 " fill-opacity="1" fill-rule="nonzero"/><path fill="#000000" d="M 146.289062 110.824219 C 146.207031 110.824219 146.125 110.820312 146.039062 110.8125 C 145.273438 110.746094 144.578125 110.386719 144.082031 109.796875 C 143.585938 109.210938 143.351562 108.464844 143.417969 107.699219 L 144.035156 100.496094 C 144.042969 100.390625 144.132812 100.3125 144.242188 100.320312 C 144.347656 100.328125 144.429688 100.425781 144.417969 100.53125 L 143.800781 107.734375 C 143.746094 108.394531 143.949219 109.042969 144.378906 109.550781 C 144.808594 110.058594 145.40625 110.371094 146.074219 110.425781 C 146.734375 110.480469 147.378906 110.277344 147.886719 109.851562 C 148.394531 109.421875 148.707031 108.820312 148.765625 108.15625 L 149.382812 100.925781 C 149.390625 100.820312 149.484375 100.742188 149.59375 100.75 C 149.699219 100.757812 149.777344 100.855469 149.769531 100.960938 L 149.148438 108.1875 C 149.085938 108.957031 148.726562 109.652344 148.136719 110.144531 C 147.613281 110.585938 146.964844 110.824219 146.289062 110.824219 " fill-opacity="1" fill-rule="nonzero"/><path fill="#000000" d="M 147.320312 101.632812 C 147.183594 101.632812 147.042969 101.628906 146.902344 101.617188 C 146.796875 101.609375 146.71875 101.511719 146.726562 101.40625 C 146.738281 101.300781 146.832031 101.21875 146.9375 101.230469 C 149.601562 101.457031 151.960938 99.285156 152.207031 96.390625 L 152.484375 93.183594 C 152.722656 90.386719 150.828125 87.933594 148.261719 87.710938 C 146.933594 87.601562 145.632812 88.054688 144.601562 88.996094 C 143.570312 89.945312 142.929688 91.269531 142.808594 92.722656 L 142.5625 95.566406 C 142.386719 97.621094 143.339844 99.59375 144.984375 100.59375 C 145.078125 100.648438 145.105469 100.769531 145.050781 100.859375 C 144.996094 100.949219 144.878906 100.980469 144.785156 100.925781 C 143.011719 99.851562 141.988281 97.734375 142.179688 95.53125 L 142.421875 92.6875 C 142.554688 91.136719 143.234375 89.726562 144.34375 88.710938 C 145.453125 87.695312 146.855469 87.203125 148.296875 87.328125 C 151.074219 87.566406 153.125 90.207031 152.867188 93.214844 L 152.59375 96.421875 C 152.339844 99.382812 150.019531 101.632812 147.320312 101.632812 " fill-opacity="1" fill-rule="nonzero"/><path fill="#0c2840" d="M 147.101562 114.363281 C 140.125 114.363281 133.769531 109.621094 132.023438 102.554688 C 131.03125 98.527344 131.667969 94.355469 133.8125 90.804688 C 135.957031 87.253906 139.355469 84.753906 143.382812 83.761719 C 151.695312 81.710938 160.125 86.804688 162.175781 95.117188 C 162.253906 95.429688 162.0625 95.742188 161.75 95.820312 C 161.441406 95.898438 161.125 95.707031 161.050781 95.394531 C 159.152344 87.703125 151.351562 82.992188 143.660156 84.886719 C 139.933594 85.804688 136.789062 88.121094 134.804688 91.40625 C 132.820312 94.6875 132.234375 98.550781 133.152344 102.277344 C 135.050781 109.964844 142.847656 114.679688 150.539062 112.785156 C 153.863281 111.964844 156.792969 109.980469 158.78125 107.203125 C 158.96875 106.941406 159.332031 106.878906 159.589844 107.066406 C 159.851562 107.25 159.914062 107.613281 159.726562 107.875 C 157.574219 110.882812 154.410156 113.023438 150.820312 113.914062 C 149.574219 114.21875 148.328125 114.363281 147.101562 114.363281 " fill-opacity="1" fill-rule="nonzero"/><path fill="#ffffff" d="M 189.765625 285.480469 C 189.765625 285.480469 136.472656 192.484375 129.113281 188.011719 C 128.15625 187.429688 122.707031 184.832031 122.261719 185.277344 C 117.085938 190.453125 128.914062 230.480469 128.914062 230.480469 L 168.855469 297.160156 L 189.765625 285.480469 " fill-opacity="1" fill-rule="nonzero"/><path fill="#000000" d="M 129.449219 230.246094 L 169.0625 296.378906 L 188.972656 285.257812 C 170.476562 253 134.503906 191.964844 128.8125 188.503906 C 127.691406 187.824219 123.539062 185.933594 122.558594 185.8125 C 118.78125 190.296875 126.207031 219.257812 129.449219 230.246094 Z M 168.855469 297.738281 C 168.660156 297.738281 168.464844 297.636719 168.359375 297.457031 L 128.417969 230.777344 C 128.390625 230.734375 128.371094 230.691406 128.359375 230.644531 C 127.136719 226.515625 116.582031 190.136719 121.851562 184.867188 C 122.183594 184.535156 122.660156 184.398438 125.726562 185.726562 C 127.257812 186.390625 128.898438 187.203125 129.414062 187.511719 C 136.820312 192.015625 188.089844 281.386719 190.269531 285.1875 C 190.347656 285.324219 190.367188 285.484375 190.324219 285.632812 C 190.285156 285.785156 190.183594 285.910156 190.050781 285.984375 L 169.140625 297.664062 C 169.050781 297.714844 168.953125 297.738281 168.855469 297.738281 " fill-opacity="1" fill-rule="nonzero"/><path fill="#0c2840" d="M 49.949219 185.878906 C 49.949219 185.878906 84.457031 167.070312 123.878906 185.640625 C 123.878906 185.640625 128.089844 201.765625 133.9375 220.375 C 145.726562 257.882812 165.980469 314.121094 167.6875 322.613281 C 170.242188 335.316406 158.113281 341.171875 141.777344 338.5625 C 125.441406 335.953125 95.328125 339.140625 64.859375 343.179688 C 45.84375 345.699219 45.089844 325.371094 46.980469 310.285156 C 48.871094 295.203125 49.949219 185.878906 49.949219 185.878906 " fill-opacity="1" fill-rule="nonzero"/><path fill="#000000" d="M 50.527344 186.234375 C 50.457031 193.058594 49.378906 295.835938 47.554688 310.359375 C 46.324219 320.179688 46.144531 333.167969 52.289062 339.269531 C 55.234375 342.191406 59.4375 343.3125 64.78125 342.601562 C 93.414062 338.808594 124.964844 335.292969 141.867188 337.988281 C 151.828125 339.582031 160.273438 337.925781 164.460938 333.570312 C 167.117188 330.804688 168.011719 327.15625 167.117188 322.726562 C 166.234375 318.328125 160.167969 300.527344 153.140625 279.914062 C 146.523438 260.492188 139.019531 238.480469 133.382812 220.546875 C 128 203.425781 123.957031 188.222656 123.386719 186.050781 C 103.25 176.640625 84.464844 177.21875 72.230469 179.367188 C 60.308594 181.460938 52.15625 185.402344 50.527344 186.234375 Z M 61.789062 343.972656 C 57.53125 343.972656 54.070312 342.671875 51.472656 340.09375 C 44.992188 333.660156 45.140625 320.292969 46.40625 310.214844 C 48.269531 295.332031 49.359375 186.964844 49.371094 185.875 C 49.371094 185.664062 49.488281 185.472656 49.671875 185.371094 C 49.757812 185.324219 58.539062 180.59375 72.03125 178.226562 C 84.480469 176.039062 103.625 175.460938 124.125 185.117188 C 124.28125 185.191406 124.394531 185.328125 124.4375 185.496094 C 124.480469 185.65625 128.714844 201.820312 134.492188 220.199219 C 140.125 238.121094 147.625 260.125 154.238281 279.539062 C 161.570312 301.042969 167.355469 318.027344 168.257812 322.5 C 169.214844 327.253906 168.191406 331.363281 165.300781 334.371094 C 160.785156 339.074219 152.175781 340.8125 141.6875 339.136719 C 124.929688 336.460938 93.484375 339.96875 64.933594 343.753906 C 63.84375 343.898438 62.792969 343.972656 61.789062 343.972656 " fill-opacity="1" fill-rule="nonzero"/><path fill="#ffffff" d="M 52.984375 283.960938 L 105.363281 252.734375 L 133.816406 262.257812 C 133.816406 262.257812 131.316406 264.996094 127.269531 263.667969 C 123.226562 262.335938 117.523438 262.699219 113.476562 266.011719 C 109.425781 269.320312 103.925781 266.011719 103.925781 266.011719 C 103.925781 266.011719 70.632812 315.332031 41.28125 316.347656 C 17.421875 317.175781 30.460938 233.367188 36.175781 201.988281 C 37.488281 194.769531 42.484375 188.769531 49.339844 186.152344 L 58.125 182.804688 L 52.984375 283.960938 " fill-opacity="1" fill-rule="nonzero"/><path fill="#000000" d="M 57.5 183.664062 L 49.546875 186.695312 C 42.917969 189.222656 38.015625 195.121094 36.746094 202.089844 C 31.628906 230.199219 21.167969 297.246094 34.515625 312.699219 C 36.382812 314.859375 38.589844 315.859375 41.261719 315.769531 C 56.222656 315.25 72.316406 301.691406 83.179688 290.40625 C 95.003906 278.128906 103.359375 265.808594 103.445312 265.6875 C 103.617188 265.429688 103.960938 265.355469 104.222656 265.511719 C 104.277344 265.542969 109.429688 268.570312 113.109375 265.5625 C 117.421875 262.035156 123.421875 261.792969 127.453125 263.117188 C 129.890625 263.917969 131.699219 263.117188 132.644531 262.476562 L 105.433594 253.367188 L 53.28125 284.457031 C 53.097656 284.566406 52.871094 284.566406 52.6875 284.457031 C 52.503906 284.347656 52.394531 284.144531 52.40625 283.929688 Z M 40.933594 316.933594 C 38.085938 316.933594 35.632812 315.765625 33.636719 313.457031 C 19.960938 297.628906 30.457031 230.15625 35.605469 201.882812 C 36.945312 194.519531 42.128906 188.28125 49.132812 185.613281 L 57.917969 182.261719 C 58.101562 182.191406 58.304688 182.21875 58.464844 182.335938 C 58.625 182.449219 58.710938 182.636719 58.703125 182.832031 L 53.621094 282.90625 L 105.066406 252.234375 C 105.214844 252.148438 105.390625 252.128906 105.550781 252.183594 L 134 261.707031 C 134.1875 261.769531 134.328125 261.921875 134.378906 262.113281 C 134.429688 262.304688 134.378906 262.503906 134.246094 262.648438 C 134.132812 262.773438 131.441406 265.648438 127.089844 264.21875 C 123.359375 262.992188 117.816406 263.210938 113.84375 266.460938 C 110.199219 269.4375 105.597656 267.523438 104.109375 266.769531 C 102.511719 269.074219 94.660156 280.152344 84.027344 291.203125 C 68.003906 307.847656 53.628906 316.5 41.300781 316.929688 C 41.179688 316.933594 41.054688 316.933594 40.933594 316.933594 " fill-opacity="1" fill-rule="nonzero"/><path fill="#000000" d="M 193.40625 295.777344 L 116.949219 298.867188 C 114.363281 298.867188 112.777344 296.03125 114.132812 293.828125 L 152.699219 231.035156 C 153.644531 229.492188 155.324219 228.550781 157.136719 228.550781 L 234.421875 230.316406 L 193.40625 295.777344 " fill-opacity="1" fill-rule="nonzero"/><path fill="#000000" d="M 157.121094 229.132812 C 155.539062 229.132812 154.027344 229.980469 153.195312 231.339844 L 114.625 294.132812 C 114.101562 294.984375 114.078125 296.015625 114.570312 296.890625 C 115.058594 297.765625 115.949219 298.289062 116.949219 298.289062 L 193.078125 295.210938 L 233.390625 230.875 Z M 116.972656 299.449219 C 115.519531 299.449219 114.253906 298.703125 113.554688 297.457031 C 112.859375 296.210938 112.890625 294.742188 113.636719 293.523438 L 152.203125 230.730469 C 153.25 229.027344 155.136719 227.972656 157.136719 227.972656 L 235.457031 229.761719 L 193.738281 296.347656 L 193.429688 296.359375 L 116.972656 299.449219 " fill-opacity="1" fill-rule="nonzero"/><path fill="#19598f" d="M 198.914062 298.867188 L 116.382812 298.867188 L 159.570312 228.550781 L 242.101562 228.550781 L 198.914062 298.867188 " fill-opacity="1" fill-rule="nonzero"/><path fill="#000000" d="M 117.421875 298.289062 L 198.589844 298.289062 L 241.0625 229.132812 L 159.894531 229.132812 Z M 198.914062 299.449219 L 116.382812 299.449219 C 116.171875 299.449219 115.980469 299.335938 115.875 299.152344 C 115.773438 298.96875 115.777344 298.746094 115.890625 298.566406 L 159.078125 228.25 C 159.183594 228.078125 159.371094 227.972656 159.570312 227.972656 L 242.101562 227.972656 C 242.308594 227.972656 242.503906 228.085938 242.605469 228.269531 C 242.710938 228.453125 242.703125 228.679688 242.59375 228.855469 L 199.40625 299.171875 C 199.300781 299.34375 199.113281 299.449219 198.914062 299.449219 " fill-opacity="1" fill-rule="nonzero"/><path fill="#ffffff" d="M 200.808594 295.777344 C 200.808594 295.777344 199.257812 287.652344 200.808594 282.230469 C 202.359375 276.808594 211.976562 260.683594 214.726562 257.3125 C 217.472656 253.933594 219.804688 289.964844 200.808594 295.777344 " fill-opacity="1" fill-rule="nonzero"/><path fill="#000000" d="M 215.214844 257.636719 Z M 215.085938 257.789062 C 212.195312 261.425781 202.835938 277.261719 201.367188 282.390625 C 200.125 286.742188 200.949219 293 201.269531 295.015625 C 210.5 291.765625 213.863281 280.96875 215.050781 274.730469 C 216.65625 266.300781 215.886719 259.078125 215.085938 257.789062 Z M 200.808594 296.359375 C 200.707031 296.359375 200.601562 296.332031 200.511719 296.277344 C 200.371094 296.191406 200.269531 296.050781 200.238281 295.886719 C 200.175781 295.550781 198.683594 287.5625 200.25 282.070312 C 201.800781 276.652344 211.378906 260.5 214.273438 256.941406 C 214.726562 256.390625 215.210938 256.492188 215.398438 256.5625 C 217.335938 257.285156 217.148438 265.5 217.121094 266.429688 C 216.757812 278.609375 212.324219 292.859375 200.980469 296.335938 C 200.925781 296.351562 200.867188 296.359375 200.808594 296.359375 " fill-opacity="1" fill-rule="nonzero"/><path fill="#000000" d="M 92.933594 160.320312 C 88.953125 162.601562 84.808594 162.183594 82.804688 161.980469 C 78.621094 161.554688 61.152344 158.078125 52.886719 142.121094 C 44.792969 126.5 48.949219 105.519531 56.515625 102.964844 C 61.945312 101.128906 67.738281 109.269531 75.957031 106.363281 C 79.597656 105.078125 79.300781 103.1875 83.167969 101.828125 C 89.683594 99.53125 96.460938 102.808594 101.628906 105.390625 C 111.0625 110.109375 110.027344 112.785156 118.25 117.238281 C 129.957031 123.582031 138.097656 121.429688 139.511719 126.089844 C 140.640625 129.796875 136.640625 135.011719 132.390625 137.539062 C 123.601562 142.773438 116.46875 134.613281 109.429688 139.71875 C 105.054688 142.886719 104.117188 148.527344 96.585938 157.230469 C 95.984375 157.925781 94.828125 159.234375 92.933594 160.320312 " fill-opacity="1" fill-rule="nonzero"/><path fill="#ffffff" d="M 101.082031 172.777344 C 101.039062 171.394531 101.007812 169.871094 101.015625 168.28125 C 103.539062 170.171875 106.453125 171.121094 108.449219 170.609375 C 110.910156 169.980469 111.902344 167.746094 113.492188 165.179688 C 114.15625 164.105469 114.835938 162.828125 116.359375 161.953125 C 117.167969 161.488281 118 161.261719 118.769531 161.160156 C 119.714844 161.035156 120.40625 160.214844 120.402344 159.261719 L 120.3125 158.671875 C 119.613281 154.042969 119.828125 149.324219 120.945312 144.773438 L 123.144531 135.796875 C 118.753906 132.601562 116.890625 132.472656 116.027344 133.078125 C 115.707031 133.300781 115.296875 133.394531 114.960938 134.777344 C 113.332031 141.449219 107.53125 139.230469 102.839844 136.722656 C 98.148438 134.214844 97.523438 143.941406 97.523438 143.941406 C 97.523438 143.941406 95.449219 139.132812 91.101562 141.730469 C 87.984375 143.589844 91.75 148.917969 94.136719 151.785156 L 87.214844 170.503906 C 85.394531 175.429688 81.851562 177.632812 76.082031 178.175781 C 71.386719 178.621094 63.675781 181.042969 63.675781 181.042969 C 63.675781 181.042969 75.71875 195.476562 92.558594 195.109375 C 107.449219 194.789062 113.179688 188.28125 120.234375 184.183594 C 120.234375 184.183594 111.40625 180.464844 105.941406 179.472656 C 102.339844 178.820312 101.199219 176.4375 101.082031 172.777344 " fill-opacity="1" fill-rule="nonzero"/><path fill="#000000" d="M 64.71875 181.335938 C 67.328125 184.136719 78.25 194.859375 92.546875 194.53125 C 104.128906 194.28125 110.1875 190.164062 115.53125 186.535156 C 116.691406 185.746094 117.800781 184.988281 118.945312 184.285156 C 116.4375 183.273438 110.066406 180.8125 105.839844 180.042969 C 101.285156 179.21875 100.59375 175.738281 100.5 172.796875 C 100.453125 171.238281 100.429688 169.71875 100.433594 168.28125 C 100.433594 168.0625 100.558594 167.863281 100.753906 167.765625 C 100.953125 167.667969 101.1875 167.6875 101.363281 167.820312 C 103.785156 169.628906 106.511719 170.503906 108.304688 170.046875 C 110.191406 169.566406 111.144531 167.964844 112.351562 165.941406 C 112.558594 165.59375 112.773438 165.238281 112.996094 164.871094 L 113.175781 164.582031 C 113.789062 163.574219 114.554688 162.320312 116.070312 161.449219 C 116.851562 161 117.734375 160.710938 118.695312 160.582031 C 119.328125 160.5 119.808594 159.953125 119.820312 159.304688 L 119.742188 158.761719 C 119.027344 154.03125 119.242188 149.28125 120.378906 144.636719 L 122.488281 136.039062 C 118.328125 133.070312 116.863281 133.199219 116.359375 133.554688 C 116.3125 133.585938 116.261719 133.617188 116.214844 133.648438 C 115.992188 133.785156 115.765625 133.929688 115.523438 134.914062 C 114.976562 137.15625 113.917969 138.644531 112.378906 139.332031 C 109.535156 140.601562 105.640625 138.878906 102.566406 137.234375 C 101.8125 136.832031 101.179688 136.78125 100.632812 137.085938 C 98.859375 138.070312 98.207031 142.394531 98.101562 143.976562 C 98.085938 144.246094 97.886719 144.46875 97.621094 144.511719 C 97.359375 144.558594 97.097656 144.417969 96.992188 144.171875 C 96.984375 144.152344 96.117188 142.214844 94.449219 141.675781 C 93.53125 141.382812 92.503906 141.566406 91.398438 142.226562 C 90.90625 142.519531 90.625 142.921875 90.53125 143.460938 C 90.253906 145.085938 91.730469 147.984375 94.582031 151.410156 C 94.714844 151.570312 94.75 151.789062 94.679688 151.984375 L 87.761719 170.707031 C 85.917969 175.683594 82.335938 178.167969 76.136719 178.753906 C 72.472656 179.101562 66.855469 180.699219 64.71875 181.335938 Z M 91.941406 195.699219 C 75.339844 195.699219 63.351562 181.5625 63.230469 181.417969 C 63.105469 181.269531 63.066406 181.066406 63.121094 180.878906 C 63.175781 180.695312 63.316406 180.550781 63.503906 180.492188 C 63.820312 180.390625 71.324219 178.042969 76.027344 177.601562 C 81.800781 177.050781 84.984375 174.871094 86.671875 170.304688 L 93.476562 151.894531 C 91.328125 149.269531 88.964844 145.730469 89.386719 143.265625 C 89.539062 142.386719 90.015625 141.703125 90.800781 141.230469 C 92.210938 140.394531 93.558594 140.171875 94.8125 140.574219 C 95.832031 140.902344 96.601562 141.59375 97.132812 142.242188 C 97.4375 140.25 98.207031 137.109375 100.066406 136.070312 C 100.972656 135.566406 102 135.613281 103.113281 136.210938 C 105.953125 137.730469 109.523438 139.335938 111.90625 138.269531 C 113.117188 137.730469 113.933594 136.542969 114.394531 134.640625 C 114.722656 133.308594 115.148438 132.945312 115.597656 132.664062 C 115.628906 132.644531 115.664062 132.625 115.695312 132.601562 C 117.101562 131.617188 119.578125 132.484375 123.484375 135.328125 C 123.675781 135.46875 123.765625 135.707031 123.707031 135.933594 L 121.507812 144.914062 C 120.40625 149.410156 120.195312 154.007812 120.886719 158.585938 L 120.976562 159.175781 C 120.980469 159.203125 120.984375 159.230469 120.984375 159.257812 C 120.988281 160.507812 120.070312 161.574219 118.84375 161.734375 C 118.035156 161.839844 117.296875 162.082031 116.648438 162.457031 C 115.390625 163.179688 114.769531 164.199219 114.167969 165.1875 L 113.984375 165.484375 C 113.761719 165.839844 113.554688 166.195312 113.347656 166.535156 C 112.058594 168.699219 110.941406 170.570312 108.59375 171.171875 C 106.679688 171.660156 104.070312 170.984375 101.597656 169.394531 C 101.601562 170.480469 101.625 171.609375 101.660156 172.757812 C 101.785156 176.578125 103.054688 178.359375 106.046875 178.902344 C 111.507812 179.894531 120.097656 183.496094 120.460938 183.648438 C 120.664062 183.734375 120.800781 183.929688 120.816406 184.148438 C 120.828125 184.371094 120.71875 184.578125 120.527344 184.6875 C 119.058594 185.539062 117.660156 186.488281 116.183594 187.496094 C 110.707031 191.214844 104.5 195.433594 92.570312 195.691406 C 92.363281 195.695312 92.148438 195.699219 91.941406 195.699219 " fill-opacity="1" fill-rule="nonzero"/><path fill="#000000" d="M 101.015625 168.863281 C 100.90625 168.863281 100.792969 168.832031 100.695312 168.765625 C 95.589844 165.390625 95.253906 157.09375 95.242188 156.742188 C 95.234375 156.421875 95.484375 156.15625 95.804688 156.144531 C 96.125 156.132812 96.390625 156.382812 96.402344 156.703125 C 96.40625 156.785156 96.730469 164.753906 101.335938 167.800781 C 101.601562 167.976562 101.675781 168.335938 101.5 168.605469 C 101.386719 168.773438 101.203125 168.863281 101.015625 168.863281 " fill-opacity="1" fill-rule="nonzero"/><path fill="#000000" d="M 182.765625 334.273438 C 182.625 334.273438 182.484375 334.226562 182.371094 334.125 C 182.136719 333.910156 182.117188 333.542969 182.335938 333.304688 L 184.355469 331.085938 C 184.574219 330.851562 184.9375 330.832031 185.175781 331.046875 C 185.414062 331.265625 185.429688 331.628906 185.214844 331.871094 L 183.191406 334.085938 C 183.078125 334.210938 182.921875 334.273438 182.765625 334.273438 " fill-opacity="1" fill-rule="nonzero"/><path fill="#000000" d="M 178.054688 339.445312 C 177.914062 339.445312 177.773438 339.394531 177.664062 339.292969 C 177.425781 339.078125 177.410156 338.710938 177.625 338.472656 L 179.648438 336.253906 C 179.863281 336.019531 180.230469 336 180.46875 336.21875 C 180.703125 336.433594 180.722656 336.800781 180.503906 337.035156 L 178.484375 339.253906 C 178.371094 339.382812 178.210938 339.445312 178.054688 339.445312 " fill-opacity="1" fill-rule="nonzero"/><path fill="#000000" d="M 179.945312 334.40625 C 179.804688 334.40625 179.667969 334.359375 179.554688 334.257812 L 177.335938 332.234375 C 177.097656 332.019531 177.082031 331.652344 177.296875 331.414062 C 177.515625 331.179688 177.878906 331.160156 178.117188 331.375 L 180.335938 333.398438 C 180.574219 333.613281 180.589844 333.980469 180.375 334.21875 C 180.261719 334.34375 180.101562 334.40625 179.945312 334.40625 " fill-opacity="1" fill-rule="nonzero"/><path fill="#000000" d="M 185.113281 339.117188 C 184.972656 339.117188 184.835938 339.066406 184.722656 338.964844 L 182.503906 336.945312 C 182.269531 336.726562 182.25 336.363281 182.464844 336.125 C 182.683594 335.886719 183.050781 335.867188 183.285156 336.085938 L 185.503906 338.109375 C 185.742188 338.324219 185.757812 338.691406 185.542969 338.929688 C 185.429688 339.050781 185.269531 339.117188 185.113281 339.117188 " fill-opacity="1" fill-rule="nonzero"/><path fill="#000000" d="M 201.804688 328.882812 C 200.449219 328.882812 199.265625 329.933594 199.109375 331.332031 C 199.027344 332.054688 199.230469 332.757812 199.683594 333.3125 C 200.121094 333.855469 200.75 334.191406 201.445312 334.257812 C 202.902344 334.402344 204.226562 333.304688 204.394531 331.824219 C 204.472656 331.101562 204.269531 330.398438 203.820312 329.84375 C 203.378906 329.300781 202.753906 328.964844 202.058594 328.894531 C 201.976562 328.890625 201.890625 328.882812 201.804688 328.882812 Z M 201.699219 335.429688 C 201.578125 335.429688 201.453125 335.421875 201.332031 335.410156 C 200.324219 335.316406 199.417969 334.828125 198.78125 334.042969 C 198.132812 333.246094 197.839844 332.234375 197.957031 331.199219 C 198.191406 329.09375 200.085938 327.539062 202.171875 327.742188 C 203.179688 327.839844 204.082031 328.324219 204.722656 329.109375 C 205.371094 329.910156 205.664062 330.917969 205.546875 331.953125 C 205.328125 333.9375 203.636719 335.429688 201.699219 335.429688 " fill-opacity="1" fill-rule="nonzero"/><path fill="#000000" d="M 303.738281 89.535156 C 303.667969 89.535156 303.597656 89.523438 303.53125 89.5 C 303.230469 89.386719 303.082031 89.050781 303.195312 88.75 L 304.253906 85.941406 C 304.367188 85.644531 304.703125 85.492188 305.003906 85.605469 C 305.300781 85.71875 305.453125 86.054688 305.339844 86.351562 L 304.28125 89.160156 C 304.191406 89.394531 303.972656 89.535156 303.738281 89.535156 " fill-opacity="1" fill-rule="nonzero"/><path fill="#000000" d="M 301.265625 96.078125 C 301.195312 96.078125 301.125 96.066406 301.058594 96.039062 C 300.761719 95.925781 300.609375 95.59375 300.722656 95.292969 L 301.78125 92.484375 C 301.894531 92.183594 302.230469 92.035156 302.53125 92.144531 C 302.832031 92.261719 302.980469 92.59375 302.871094 92.894531 L 301.808594 95.703125 C 301.71875 95.933594 301.5 96.078125 301.265625 96.078125 " fill-opacity="1" fill-rule="nonzero"/><path fill="#000000" d="M 301.164062 90.699219 C 301.097656 90.699219 301.027344 90.6875 300.960938 90.660156 L 298.152344 89.597656 C 297.851562 89.484375 297.699219 89.152344 297.8125 88.851562 C 297.929688 88.550781 298.261719 88.398438 298.5625 88.515625 L 301.371094 89.574219 C 301.671875 89.6875 301.820312 90.023438 301.707031 90.324219 C 301.621094 90.554688 301.398438 90.699219 301.164062 90.699219 " fill-opacity="1" fill-rule="nonzero"/><path fill="#000000" d="M 307.707031 93.167969 C 307.636719 93.167969 307.566406 93.15625 307.5 93.132812 L 304.691406 92.070312 C 304.394531 91.957031 304.242188 91.625 304.355469 91.324219 C 304.46875 91.023438 304.804688 90.875 305.101562 90.984375 L 307.910156 92.046875 C 308.210938 92.160156 308.363281 92.496094 308.25 92.792969 C 308.160156 93.027344 307.941406 93.167969 307.707031 93.167969 " fill-opacity="1" fill-rule="nonzero"/><path fill="#000000" d="M 99.515625 46.734375 C 99.488281 46.734375 99.453125 46.734375 99.421875 46.730469 L 96.460938 46.242188 C 96.144531 46.191406 95.929688 45.890625 95.980469 45.574219 C 96.035156 45.257812 96.332031 45.042969 96.648438 45.097656 L 99.609375 45.582031 C 99.925781 45.632812 100.140625 45.933594 100.089844 46.25 C 100.042969 46.535156 99.796875 46.734375 99.515625 46.734375 " fill-opacity="1" fill-rule="nonzero"/><path fill="#000000" d="M 106.417969 47.867188 C 106.386719 47.867188 106.355469 47.863281 106.324219 47.859375 L 103.359375 47.375 C 103.042969 47.320312 102.832031 47.023438 102.882812 46.707031 C 102.933594 46.390625 103.230469 46.175781 103.546875 46.226562 L 106.511719 46.714844 C 106.828125 46.765625 107.042969 47.0625 106.988281 47.378906 C 106.941406 47.664062 106.695312 47.867188 106.417969 47.867188 " fill-opacity="1" fill-rule="nonzero"/><path fill="#000000" d="M 100.679688 51.992188 C 100.648438 51.992188 100.617188 51.988281 100.582031 51.980469 C 100.269531 51.929688 100.050781 51.632812 100.105469 51.316406 L 100.589844 48.355469 C 100.640625 48.035156 100.9375 47.820312 101.257812 47.875 C 101.574219 47.925781 101.789062 48.222656 101.734375 48.542969 L 101.25 51.503906 C 101.203125 51.789062 100.957031 51.992188 100.679688 51.992188 " fill-opacity="1" fill-rule="nonzero"/><path fill="#000000" d="M 101.808594 45.089844 C 101.777344 45.089844 101.746094 45.085938 101.714844 45.082031 C 101.398438 45.03125 101.183594 44.730469 101.234375 44.414062 L 101.722656 41.453125 C 101.773438 41.136719 102.070312 40.921875 102.386719 40.972656 C 102.703125 41.027344 102.917969 41.324219 102.867188 41.640625 L 102.382812 44.601562 C 102.335938 44.886719 102.089844 45.089844 101.808594 45.089844 " fill-opacity="1" fill-rule="nonzero"/><path fill="#000000" d="M 54 98.226562 C 53.902344 98.226562 53.800781 98.199219 53.710938 98.144531 C 53.433594 97.984375 53.335938 97.628906 53.5 97.351562 C 61.910156 82.890625 73.238281 70.28125 83.804688 63.617188 C 84.078125 63.445312 84.433594 63.527344 84.605469 63.800781 C 84.777344 64.070312 84.695312 64.429688 84.425781 64.601562 C 74.007812 71.167969 62.824219 83.628906 54.503906 97.933594 C 54.394531 98.121094 54.199219 98.226562 54 98.226562 " fill-opacity="1" fill-rule="nonzero"/><path fill="#000000" d="M 54.015625 83.632812 C 53.90625 83.632812 53.796875 83.601562 53.695312 83.535156 C 53.429688 83.359375 53.355469 83 53.53125 82.734375 C 58.84375 74.675781 65.945312 65.796875 81.785156 55.453125 C 82.050781 55.277344 82.410156 55.351562 82.585938 55.621094 C 82.761719 55.890625 82.6875 56.25 82.417969 56.425781 C 66.757812 66.652344 59.746094 75.417969 54.5 83.371094 C 54.390625 83.542969 54.203125 83.632812 54.015625 83.632812 " fill-opacity="1" fill-rule="nonzero"/><path fill="#000000" d="M 86.738281 53.917969 C 86.527344 53.917969 86.320312 53.800781 86.21875 53.597656 C 86.074219 53.3125 86.191406 52.964844 86.476562 52.820312 L 91.417969 50.339844 C 91.703125 50.195312 92.050781 50.3125 92.195312 50.597656 C 92.339844 50.882812 92.222656 51.230469 91.9375 51.375 L 87 53.855469 C 86.914062 53.898438 86.828125 53.917969 86.738281 53.917969 " fill-opacity="1" fill-rule="nonzero"/><path fill="#000000" d="M 306.675781 162.996094 C 306.640625 162.996094 306.605469 162.992188 306.570312 162.984375 C 306.253906 162.929688 306.046875 162.625 306.105469 162.3125 C 306.300781 161.222656 306.402344 160.179688 306.402344 159.203125 C 306.402344 158.746094 306.378906 158.289062 306.335938 157.855469 C 306.304688 157.535156 306.535156 157.25 306.855469 157.21875 C 307.175781 157.1875 307.460938 157.421875 307.492188 157.738281 C 307.535156 158.214844 307.5625 158.707031 307.5625 159.203125 C 307.5625 160.25 307.457031 161.363281 307.246094 162.519531 C 307.195312 162.796875 306.953125 162.996094 306.675781 162.996094 Z M 303.699219 171.765625 C 303.617188 171.765625 303.535156 171.75 303.457031 171.714844 C 303.164062 171.582031 303.039062 171.238281 303.167969 170.945312 C 303.878906 169.382812 304.445312 167.992188 304.902344 166.695312 C 305.007812 166.390625 305.339844 166.230469 305.644531 166.339844 C 305.945312 166.445312 306.105469 166.777344 306 167.078125 C 305.527344 168.410156 304.949219 169.832031 304.226562 171.425781 C 304.128906 171.640625 303.917969 171.765625 303.699219 171.765625 Z M 299.546875 180.078125 C 299.457031 180.078125 299.367188 180.058594 299.28125 180.011719 C 298.996094 179.863281 298.886719 179.511719 299.035156 179.230469 C 299.800781 177.761719 300.488281 176.4375 301.164062 175.105469 C 301.304688 174.820312 301.65625 174.707031 301.941406 174.851562 C 302.226562 174.996094 302.339844 175.34375 302.199219 175.632812 C 301.519531 176.96875 300.832031 178.296875 300.0625 179.765625 C 299.960938 179.964844 299.757812 180.078125 299.546875 180.078125 Z M 295.34375 188.359375 C 295.257812 188.359375 295.171875 188.339844 295.09375 188.300781 C 294.804688 188.164062 294.679688 187.816406 294.820312 187.527344 C 295.421875 186.269531 296.101562 184.90625 296.890625 183.355469 C 297.039062 183.070312 297.386719 182.957031 297.671875 183.105469 C 297.957031 183.25 298.070312 183.601562 297.925781 183.886719 C 297.136719 185.425781 296.464844 186.78125 295.863281 188.027344 C 295.765625 188.238281 295.558594 188.359375 295.34375 188.359375 Z M 291.730469 196.910156 C 291.664062 196.910156 291.601562 196.898438 291.535156 196.878906 C 291.234375 196.769531 291.074219 196.4375 291.183594 196.136719 C 291.683594 194.726562 292.238281 193.300781 292.886719 191.78125 C 293.015625 191.484375 293.355469 191.347656 293.648438 191.472656 C 293.945312 191.597656 294.082031 191.9375 293.957031 192.234375 C 293.320312 193.734375 292.769531 195.136719 292.277344 196.523438 C 292.191406 196.761719 291.96875 196.910156 291.730469 196.910156 Z M 289.382812 205.878906 C 289.351562 205.878906 289.320312 205.875 289.289062 205.871094 C 288.972656 205.820312 288.753906 205.523438 288.804688 205.207031 C 289.046875 203.714844 289.375 202.171875 289.789062 200.613281 C 289.871094 200.304688 290.191406 200.121094 290.5 200.203125 C 290.808594 200.285156 290.992188 200.601562 290.910156 200.914062 C 290.507812 202.429688 290.1875 203.9375 289.953125 205.390625 C 289.90625 205.675781 289.660156 205.878906 289.382812 205.878906 Z M 288.957031 215.128906 C 288.648438 215.128906 288.390625 214.886719 288.378906 214.574219 C 288.328125 213.53125 288.304688 212.445312 288.304688 211.355469 C 288.304688 210.867188 288.3125 210.375 288.332031 209.886719 C 288.34375 209.566406 288.621094 209.308594 288.9375 209.328125 C 289.257812 209.34375 289.507812 209.613281 289.492188 209.933594 C 289.472656 210.40625 289.464844 210.882812 289.464844 211.355469 C 289.464844 212.429688 289.488281 213.496094 289.535156 214.523438 C 289.550781 214.839844 289.300781 215.113281 288.984375 215.128906 C 288.976562 215.128906 288.964844 215.128906 288.957031 215.128906 Z M 290.136719 224.320312 C 289.871094 224.320312 289.628906 224.136719 289.570312 223.867188 C 289.238281 222.386719 288.972656 220.832031 288.769531 219.242188 C 288.730469 218.925781 288.957031 218.636719 289.273438 218.59375 C 289.59375 218.558594 289.882812 218.78125 289.921875 219.097656 C 290.121094 220.648438 290.378906 222.167969 290.703125 223.613281 C 290.773438 223.925781 290.574219 224.238281 290.261719 224.308594 C 290.222656 224.316406 290.175781 224.320312 290.136719 224.320312 Z M 293.128906 233.082031 C 292.910156 233.082031 292.703125 232.960938 292.601562 232.75 C 291.933594 231.34375 291.339844 229.875 290.835938 228.394531 C 290.730469 228.089844 290.894531 227.761719 291.195312 227.65625 C 291.5 227.550781 291.828125 227.714844 291.933594 228.019531 C 292.425781 229.460938 293 230.882812 293.652344 232.253906 C 293.789062 232.542969 293.667969 232.890625 293.378906 233.027344 C 293.296875 233.0625 293.210938 233.082031 293.128906 233.082031 Z M 297.9375 241.003906 C 297.757812 241.003906 297.578125 240.921875 297.46875 240.765625 C 296.433594 239.335938 295.605469 238.101562 294.855469 236.878906 C 294.683594 236.605469 294.769531 236.246094 295.042969 236.082031 C 295.316406 235.914062 295.671875 236 295.84375 236.269531 C 296.578125 237.46875 297.394531 238.679688 298.40625 240.085938 C 298.59375 240.34375 298.535156 240.707031 298.277344 240.894531 C 298.171875 240.96875 298.054688 241.003906 297.9375 241.003906 Z M 303.347656 248.546875 C 303.152344 248.546875 302.964844 248.449219 302.855469 248.273438 C 302.019531 246.9375 301.0625 245.617188 300.234375 244.5 C 300.042969 244.242188 300.097656 243.878906 300.355469 243.6875 C 300.613281 243.496094 300.976562 243.550781 301.167969 243.808594 C 302.007812 244.941406 302.984375 246.289062 303.839844 247.65625 C 304.007812 247.929688 303.925781 248.289062 303.65625 248.457031 C 303.558594 248.515625 303.453125 248.546875 303.347656 248.546875 Z M 306.640625 257.179688 C 306.371094 257.179688 306.132812 256.992188 306.074219 256.71875 C 305.746094 255.179688 305.320312 253.703125 304.816406 252.34375 C 304.707031 252.042969 304.859375 251.707031 305.160156 251.597656 C 305.460938 251.484375 305.796875 251.636719 305.90625 251.9375 C 306.429688 253.355469 306.871094 254.882812 307.210938 256.476562 C 307.277344 256.792969 307.074219 257.101562 306.761719 257.167969 C 306.722656 257.175781 306.683594 257.179688 306.640625 257.179688 Z M 307.46875 266.40625 C 307.464844 266.40625 307.457031 266.40625 307.453125 266.40625 C 307.132812 266.398438 306.878906 266.132812 306.886719 265.8125 C 306.898438 265.453125 306.902344 265.097656 306.902344 264.746094 C 306.902344 263.574219 306.851562 262.394531 306.75 261.242188 C 306.71875 260.921875 306.957031 260.640625 307.277344 260.613281 C 307.597656 260.585938 307.878906 260.820312 307.90625 261.140625 C 308.011719 262.328125 308.0625 263.542969 308.0625 264.746094 C 308.0625 265.109375 308.058594 265.476562 308.050781 265.84375 C 308.039062 266.15625 307.78125 266.40625 307.46875 266.40625 Z M 239.511719 272.613281 C 239.402344 272.613281 239.289062 272.582031 239.191406 272.515625 C 238.925781 272.339844 238.851562 271.976562 239.03125 271.710938 C 239.699219 270.714844 240.535156 270.058594 241.511719 269.753906 C 242.148438 269.558594 242.828125 269.488281 243.519531 269.542969 C 243.839844 269.566406 244.078125 269.847656 244.050781 270.167969 C 244.027344 270.488281 243.75 270.722656 243.425781 270.699219 C 242.882812 270.65625 242.351562 270.710938 241.851562 270.863281 C 241.136719 271.085938 240.511719 271.589844 239.996094 272.355469 C 239.882812 272.523438 239.699219 272.613281 239.511719 272.613281 Z M 306.238281 275.59375 C 306.195312 275.59375 306.148438 275.589844 306.109375 275.582031 C 305.796875 275.511719 305.597656 275.199219 305.671875 274.886719 C 305.910156 273.804688 306.136719 272.648438 306.339844 271.449219 C 306.402344 271.089844 306.457031 270.730469 306.507812 270.371094 C 306.554688 270.054688 306.847656 269.832031 307.164062 269.875 C 307.480469 269.921875 307.703125 270.214844 307.65625 270.53125 C 307.605469 270.902344 307.546875 271.273438 307.484375 271.644531 C 307.28125 272.863281 307.050781 274.039062 306.804688 275.140625 C 306.742188 275.410156 306.5 275.59375 306.238281 275.59375 Z M 250.625 276.109375 C 250.429688 276.109375 250.242188 276.011719 250.128906 275.832031 C 249.289062 274.464844 248.328125 273.328125 247.269531 272.449219 C 247.019531 272.246094 246.988281 271.878906 247.191406 271.632812 C 247.394531 271.386719 247.761719 271.351562 248.007812 271.554688 C 249.167969 272.511719 250.210938 273.75 251.121094 275.226562 C 251.285156 275.5 251.203125 275.855469 250.929688 276.023438 C 250.835938 276.082031 250.730469 276.109375 250.625 276.109375 Z M 237.96875 281.617188 C 237.667969 281.617188 237.414062 281.386719 237.390625 281.082031 C 237.339844 280.402344 237.3125 279.726562 237.3125 279.078125 C 237.3125 278.113281 237.371094 277.1875 237.484375 276.328125 C 237.527344 276.007812 237.820312 275.789062 238.136719 275.828125 C 238.457031 275.871094 238.679688 276.164062 238.636719 276.480469 C 238.527344 277.289062 238.472656 278.164062 238.472656 279.078125 C 238.472656 279.695312 238.5 280.339844 238.546875 280.992188 C 238.570312 281.3125 238.332031 281.59375 238.015625 281.617188 C 238 281.617188 237.984375 281.617188 237.96875 281.617188 Z M 303.273438 284.367188 C 303.1875 284.367188 303.101562 284.347656 303.019531 284.304688 C 302.730469 284.164062 302.613281 283.816406 302.753906 283.53125 C 303.398438 282.222656 303.957031 280.839844 304.460938 279.304688 C 304.5625 279 304.890625 278.839844 305.195312 278.9375 C 305.5 279.039062 305.664062 279.363281 305.566406 279.671875 C 305.042969 281.257812 304.460938 282.6875 303.796875 284.042969 C 303.695312 284.246094 303.488281 284.367188 303.273438 284.367188 Z M 253.539062 284.851562 C 253.25 284.851562 253 284.636719 252.964844 284.339844 C 252.777344 282.804688 252.453125 281.316406 251.996094 279.921875 C 251.898438 279.621094 252.0625 279.292969 252.367188 279.191406 C 252.671875 279.089844 253 279.257812 253.101562 279.5625 C 253.578125 281.03125 253.917969 282.589844 254.117188 284.199219 C 254.15625 284.519531 253.929688 284.808594 253.609375 284.847656 C 253.585938 284.851562 253.5625 284.851562 253.539062 284.851562 Z M 240.042969 290.636719 C 239.8125 290.636719 239.589844 290.496094 239.503906 290.265625 C 238.9375 288.800781 238.472656 287.28125 238.117188 285.753906 C 238.046875 285.441406 238.242188 285.128906 238.554688 285.054688 C 238.863281 284.984375 239.175781 285.179688 239.25 285.492188 C 239.59375 286.96875 240.042969 288.433594 240.585938 289.847656 C 240.703125 290.148438 240.554688 290.484375 240.253906 290.597656 C 240.183594 290.625 240.113281 290.636719 240.042969 290.636719 Z M 298.019531 291.980469 C 297.886719 291.980469 297.757812 291.9375 297.648438 291.847656 C 297.402344 291.640625 297.367188 291.277344 297.574219 291.027344 L 297.738281 290.832031 C 298.625 289.765625 299.546875 288.660156 300.425781 287.425781 C 300.609375 287.164062 300.972656 287.105469 301.234375 287.289062 C 301.496094 287.476562 301.558594 287.835938 301.371094 288.097656 C 300.464844 289.371094 299.53125 290.492188 298.628906 291.578125 L 298.464844 291.769531 C 298.351562 291.910156 298.1875 291.980469 298.019531 291.980469 Z M 252.742188 294.023438 C 252.683594 294.023438 252.625 294.011719 252.566406 293.992188 C 252.261719 293.898438 252.089844 293.570312 252.1875 293.265625 C 252.648438 291.8125 252.949219 290.328125 253.074219 288.851562 C 253.097656 288.53125 253.382812 288.296875 253.699219 288.324219 C 254.019531 288.351562 254.257812 288.632812 254.230469 288.949219 C 254.09375 290.511719 253.78125 292.082031 253.296875 293.617188 C 253.21875 293.863281 252.988281 294.023438 252.742188 294.023438 Z M 244.933594 298.449219 C 244.785156 298.449219 244.632812 298.390625 244.519531 298.273438 C 243.425781 297.15625 242.4375 295.894531 241.589844 294.523438 C 241.421875 294.25 241.507812 293.894531 241.78125 293.722656 C 242.050781 293.554688 242.410156 293.640625 242.578125 293.910156 C 243.378906 295.207031 244.3125 296.402344 245.347656 297.460938 C 245.574219 297.691406 245.570312 298.058594 245.339844 298.28125 C 245.226562 298.390625 245.082031 298.449219 244.933594 298.449219 Z M 291.761719 298.835938 C 291.609375 298.835938 291.457031 298.777344 291.34375 298.65625 C 291.121094 298.425781 291.128906 298.058594 291.359375 297.835938 C 292.425781 296.8125 293.539062 295.667969 294.574219 294.539062 C 294.789062 294.300781 295.15625 294.285156 295.394531 294.5 C 295.628906 294.714844 295.644531 295.082031 295.429688 295.320312 C 294.378906 296.46875 293.25 297.632812 292.164062 298.671875 C 292.050781 298.78125 291.90625 298.835938 291.761719 298.835938 Z M 252.65625 303.484375 C 252.582031 303.484375 252.507812 303.472656 252.4375 303.445312 C 251.183594 302.941406 250.039062 302.378906 248.960938 301.742188 C 248.914062 301.804688 248.867188 301.867188 248.816406 301.929688 C 248.621094 302.179688 248.257812 302.230469 248.003906 302.03125 C 247.75 301.835938 247.703125 301.472656 247.898438 301.21875 C 247.941406 301.167969 247.976562 301.117188 248.015625 301.066406 C 247.917969 300.886719 247.921875 300.660156 248.039062 300.476562 C 248.171875 300.269531 248.410156 300.175781 248.636719 300.222656 C 249.296875 299.296875 249.886719 298.359375 250.398438 297.417969 C 250.554688 297.140625 250.90625 297.035156 251.1875 297.1875 C 251.46875 297.34375 251.574219 297.695312 251.417969 297.976562 C 250.902344 298.925781 250.308594 299.871094 249.652344 300.800781 C 250.648438 301.386719 251.710938 301.902344 252.871094 302.367188 C 253.167969 302.484375 253.3125 302.824219 253.191406 303.121094 C 253.101562 303.347656 252.882812 303.484375 252.65625 303.484375 Z M 284.277344 304.25 C 284.058594 304.25 283.847656 304.128906 283.75 303.917969 C 283.613281 303.628906 283.738281 303.28125 284.03125 303.148438 C 285.441406 302.484375 286.75 301.707031 287.910156 300.835938 C 288.171875 300.644531 288.53125 300.699219 288.722656 300.953125 C 288.917969 301.210938 288.863281 301.574219 288.605469 301.769531 C 287.382812 302.683594 286.007812 303.5 284.523438 304.195312 C 284.445312 304.234375 284.359375 304.25 284.277344 304.25 Z M 176.621094 305.378906 C 176.511719 305.378906 176.402344 305.347656 176.304688 305.285156 C 174.976562 304.425781 173.683594 303.527344 172.460938 302.621094 C 172.203125 302.429688 172.148438 302.066406 172.339844 301.808594 C 172.53125 301.550781 172.894531 301.496094 173.152344 301.6875 C 174.355469 302.582031 175.628906 303.464844 176.9375 304.3125 C 177.207031 304.484375 177.28125 304.84375 177.109375 305.113281 C 176.996094 305.285156 176.8125 305.378906 176.621094 305.378906 Z M 261.539062 306.183594 C 261.496094 306.183594 261.457031 306.179688 261.414062 306.167969 C 260.214844 305.902344 259.03125 305.578125 257.894531 305.207031 C 257.609375 305.113281 257.277344 305.015625 256.910156 304.910156 C 256.601562 304.820312 256.421875 304.5 256.511719 304.191406 C 256.597656 303.882812 256.917969 303.703125 257.226562 303.792969 C 257.613281 303.902344 257.957031 304.003906 258.257812 304.101562 C 259.359375 304.464844 260.503906 304.777344 261.664062 305.035156 C 261.976562 305.105469 262.175781 305.414062 262.105469 305.730469 C 262.042969 306 261.804688 306.183594 261.539062 306.183594 Z M 275.382812 306.792969 C 275.097656 306.792969 274.847656 306.582031 274.804688 306.292969 C 274.765625 305.976562 274.988281 305.683594 275.304688 305.636719 C 276.84375 305.425781 278.34375 305.117188 279.769531 304.71875 C 280.078125 304.632812 280.398438 304.8125 280.484375 305.121094 C 280.570312 305.429688 280.390625 305.75 280.082031 305.835938 C 278.609375 306.25 277.054688 306.570312 275.460938 306.789062 C 275.433594 306.792969 275.40625 306.792969 275.382812 306.792969 Z M 270.238281 307.140625 C 268.855469 307.140625 267.449219 307.066406 266.058594 306.921875 C 265.742188 306.890625 265.507812 306.605469 265.542969 306.285156 C 265.574219 305.964844 265.859375 305.738281 266.179688 305.769531 C 267.695312 305.921875 269.234375 305.992188 270.746094 305.976562 C 270.75 305.976562 270.753906 305.976562 270.753906 305.976562 C 271.074219 305.976562 271.332031 306.230469 271.335938 306.546875 C 271.339844 306.867188 271.082031 307.132812 270.761719 307.132812 C 270.585938 307.136719 270.414062 307.140625 270.238281 307.140625 Z M 241.816406 308.726562 C 241.644531 308.726562 241.480469 308.652344 241.363281 308.511719 C 241.164062 308.261719 241.203125 307.894531 241.453125 307.695312 C 242.667969 306.714844 243.816406 305.6875 244.871094 304.640625 C 245.097656 304.414062 245.464844 304.414062 245.691406 304.640625 C 245.917969 304.867188 245.917969 305.234375 245.691406 305.460938 C 244.609375 306.539062 243.429688 307.59375 242.179688 308.597656 C 242.074219 308.6875 241.945312 308.726562 241.816406 308.726562 Z M 184.699219 309.957031 C 184.609375 309.957031 184.523438 309.9375 184.441406 309.898438 C 183.046875 309.207031 181.65625 308.472656 180.308594 307.710938 C 180.03125 307.550781 179.929688 307.199219 180.089844 306.917969 C 180.246094 306.640625 180.601562 306.542969 180.878906 306.699219 C 182.210938 307.453125 183.582031 308.179688 184.953125 308.855469 C 185.242188 309 185.363281 309.34375 185.21875 309.632812 C 185.117188 309.835938 184.910156 309.957031 184.699219 309.957031 Z M 193.242188 313.582031 C 193.179688 313.582031 193.113281 313.574219 193.046875 313.550781 C 191.59375 313.03125 190.128906 312.457031 188.691406 311.847656 C 188.398438 311.722656 188.257812 311.378906 188.386719 311.085938 C 188.511719 310.792969 188.851562 310.652344 189.144531 310.777344 C 190.5625 311.378906 192.007812 311.945312 193.4375 312.457031 C 193.742188 312.566406 193.898438 312.898438 193.789062 313.199219 C 193.707031 313.4375 193.480469 313.582031 193.242188 313.582031 Z M 233.988281 313.71875 C 233.769531 313.71875 233.5625 313.59375 233.464844 313.382812 C 233.328125 313.089844 233.453125 312.746094 233.746094 312.609375 C 234.304688 312.351562 234.863281 312.074219 235.410156 311.789062 C 235.507812 311.738281 236.382812 311.273438 237.734375 310.390625 C 238.003906 310.214844 238.363281 310.292969 238.539062 310.5625 C 238.714844 310.828125 238.636719 311.1875 238.371094 311.363281 C 237 312.257812 236.113281 312.730469 235.949219 312.816406 C 235.386719 313.109375 234.808594 313.394531 234.234375 313.664062 C 234.15625 313.699219 234.074219 313.71875 233.988281 313.71875 Z M 202.164062 316.167969 C 202.121094 316.167969 202.078125 316.164062 202.035156 316.15625 C 200.539062 315.824219 199.011719 315.433594 197.503906 314.996094 C 197.191406 314.90625 197.015625 314.582031 197.105469 314.273438 C 197.195312 313.96875 197.515625 313.789062 197.824219 313.878906 C 199.3125 314.3125 200.8125 314.695312 202.285156 315.019531 C 202.601562 315.089844 202.800781 315.402344 202.730469 315.714844 C 202.667969 315.984375 202.429688 316.167969 202.164062 316.167969 Z M 225.195312 316.640625 C 224.929688 316.640625 224.6875 316.453125 224.628906 316.179688 C 224.5625 315.867188 224.761719 315.558594 225.074219 315.492188 C 226.574219 315.171875 228.0625 314.769531 229.492188 314.296875 C 229.796875 314.195312 230.125 314.359375 230.226562 314.664062 C 230.328125 314.96875 230.160156 315.296875 229.855469 315.398438 C 228.386719 315.886719 226.859375 316.296875 225.316406 316.625 C 225.273438 316.636719 225.234375 316.640625 225.195312 316.640625 Z M 211.34375 317.519531 C 211.328125 317.519531 211.3125 317.519531 211.300781 317.519531 C 209.773438 317.410156 208.207031 317.238281 206.644531 317.007812 C 206.324219 316.960938 206.105469 316.664062 206.152344 316.347656 C 206.199219 316.03125 206.496094 315.8125 206.8125 315.859375 C 208.347656 316.085938 209.886719 316.253906 211.382812 316.363281 C 211.703125 316.382812 211.945312 316.660156 211.921875 316.980469 C 211.898438 317.285156 211.644531 317.519531 211.34375 317.519531 Z M 215.980469 317.652344 C 215.664062 317.652344 215.40625 317.398438 215.398438 317.082031 C 215.394531 316.757812 215.652344 316.496094 215.972656 316.492188 C 217.519531 316.46875 219.058594 316.375 220.550781 316.214844 C 220.867188 316.175781 221.152344 316.410156 221.191406 316.726562 C 221.226562 317.046875 220.996094 317.332031 220.675781 317.367188 C 219.148438 317.53125 217.570312 317.628906 215.988281 317.652344 C 215.984375 317.652344 215.984375 317.652344 215.980469 317.652344 " fill-opacity="1" fill-rule="nonzero"/><path fill="#ffffff" d="M 301.273438 158.371094 C 301.265625 158.371094 301.261719 158.371094 301.25 158.371094 C 296.371094 158.183594 292.300781 154.53125 291.570312 149.691406 C 290.734375 144.125 294.578125 138.910156 300.140625 138.070312 C 302.835938 137.664062 305.527344 138.332031 307.71875 139.953125 C 309.910156 141.574219 311.34375 143.945312 311.75 146.644531 C 312.109375 149.039062 311.605469 151.492188 310.332031 153.546875 C 310.164062 153.820312 309.804688 153.902344 309.53125 153.734375 C 309.261719 153.566406 309.175781 153.207031 309.34375 152.933594 C 310.476562 151.113281 310.917969 148.941406 310.601562 146.820312 C 310.242188 144.425781 308.972656 142.320312 307.03125 140.886719 C 305.085938 139.449219 302.699219 138.859375 300.3125 139.21875 C 295.382812 139.964844 291.976562 144.582031 292.71875 149.515625 C 293.363281 153.808594 296.972656 157.042969 301.296875 157.210938 C 301.617188 157.222656 301.867188 157.496094 301.855469 157.8125 C 301.84375 158.128906 301.585938 158.371094 301.273438 158.371094 " fill-opacity="1" fill-rule="nonzero"/><path fill="#0c2840" d="M 301.601562 153.007812 C 301.417969 153.007812 301.238281 152.921875 301.125 152.765625 L 297.164062 147.222656 C 296.976562 146.960938 297.035156 146.597656 297.296875 146.414062 C 297.558594 146.226562 297.917969 146.289062 298.105469 146.546875 L 301.179688 150.839844 C 301.585938 147.46875 302.363281 144.855469 303.539062 142.894531 C 303.703125 142.621094 304.058594 142.53125 304.335938 142.695312 C 304.609375 142.859375 304.699219 143.214844 304.535156 143.492188 C 303.296875 145.558594 302.503906 148.582031 302.179688 152.476562 C 302.15625 152.71875 301.988281 152.921875 301.753906 152.988281 C 301.703125 153.003906 301.652344 153.007812 301.601562 153.007812 " fill-opacity="1" fill-rule="nonzero"/><path fill="#000000" d="M 309.640625 101.332031 C 309.472656 101.332031 309.304688 101.261719 309.191406 101.121094 C 308.859375 100.71875 308.515625 100.316406 308.167969 99.925781 C 307.957031 99.6875 307.976562 99.320312 308.21875 99.105469 C 308.457031 98.894531 308.824219 98.914062 309.039062 99.15625 C 309.394531 99.554688 309.746094 99.96875 310.085938 100.382812 C 310.289062 100.632812 310.253906 100.996094 310.007812 101.203125 C 309.898438 101.289062 309.769531 101.332031 309.640625 101.332031 Z M 314.726562 109.078125 C 314.515625 109.078125 314.3125 108.960938 314.210938 108.761719 C 313.511719 107.402344 312.734375 106.070312 311.90625 104.808594 C 311.730469 104.539062 311.804688 104.179688 312.070312 104.003906 C 312.339844 103.828125 312.699219 103.902344 312.875 104.171875 C 313.726562 105.46875 314.523438 106.832031 315.242188 108.230469 C 315.390625 108.515625 315.277344 108.867188 314.992188 109.011719 C 314.90625 109.054688 314.816406 109.078125 314.726562 109.078125 Z M 318.136719 117.695312 C 317.886719 117.695312 317.65625 117.53125 317.582031 117.28125 C 317.148438 115.792969 316.652344 114.335938 316.101562 112.9375 C 315.984375 112.636719 316.128906 112.300781 316.425781 112.183594 C 316.726562 112.066406 317.0625 112.210938 317.179688 112.511719 C 317.746094 113.941406 318.253906 115.4375 318.695312 116.957031 C 318.785156 117.261719 318.609375 117.585938 318.300781 117.675781 C 318.246094 117.691406 318.191406 117.695312 318.136719 117.695312 Z M 319.976562 126.789062 C 319.6875 126.789062 319.4375 126.574219 319.402344 126.277344 C 319.210938 124.738281 318.96875 123.210938 318.671875 121.742188 C 318.609375 121.425781 318.8125 121.117188 319.125 121.058594 C 319.441406 120.992188 319.746094 121.195312 319.808594 121.511719 C 320.113281 123.007812 320.359375 124.566406 320.554688 126.136719 C 320.59375 126.457031 320.367188 126.746094 320.046875 126.785156 C 320.023438 126.785156 320 126.789062 319.976562 126.789062 Z M 320.476562 136.054688 C 320.476562 136.054688 320.472656 136.054688 320.472656 136.054688 C 320.148438 136.050781 319.894531 135.789062 319.894531 135.46875 C 319.898438 135.222656 319.898438 134.976562 319.898438 134.730469 C 319.898438 133.429688 319.863281 132.125 319.796875 130.863281 C 319.78125 130.542969 320.027344 130.269531 320.347656 130.253906 C 320.667969 130.238281 320.941406 130.480469 320.957031 130.804688 C 321.023438 132.085938 321.058594 133.40625 321.058594 134.730469 C 321.058594 134.980469 321.058594 135.230469 321.058594 135.480469 C 321.050781 135.800781 320.792969 136.054688 320.476562 136.054688 Z M 319.875 145.316406 C 319.851562 145.316406 319.828125 145.316406 319.804688 145.3125 C 319.484375 145.277344 319.257812 144.984375 319.296875 144.667969 C 319.476562 143.125 319.621094 141.582031 319.71875 140.078125 C 319.738281 139.757812 320.023438 139.515625 320.335938 139.535156 C 320.65625 139.554688 320.898438 139.832031 320.878906 140.15625 C 320.777344 141.679688 320.632812 143.246094 320.449219 144.804688 C 320.414062 145.101562 320.164062 145.316406 319.875 145.316406 Z M 318.355469 154.476562 C 318.316406 154.476562 318.273438 154.46875 318.234375 154.460938 C 317.921875 154.394531 317.722656 154.085938 317.789062 153.773438 C 318.109375 152.261719 318.398438 150.734375 318.648438 149.234375 C 318.699219 148.917969 319 148.707031 319.3125 148.757812 C 319.628906 148.8125 319.84375 149.109375 319.789062 149.425781 C 319.539062 150.941406 319.246094 152.488281 318.921875 154.011719 C 318.863281 154.289062 318.625 154.476562 318.355469 154.476562 Z M 316.050781 163.46875 C 315.992188 163.46875 315.9375 163.460938 315.878906 163.445312 C 315.574219 163.351562 315.398438 163.03125 315.492188 162.722656 C 315.9375 161.25 316.355469 159.753906 316.730469 158.269531 C 316.8125 157.960938 317.128906 157.773438 317.4375 157.855469 C 317.75 157.933594 317.9375 158.25 317.859375 158.558594 C 317.472656 160.054688 317.050781 161.566406 316.605469 163.058594 C 316.527344 163.308594 316.296875 163.46875 316.050781 163.46875 Z M 313.007812 172.246094 C 312.9375 172.246094 312.863281 172.230469 312.792969 172.203125 C 312.496094 172.085938 312.351562 171.75 312.46875 171.449219 C 313.023438 170.042969 313.5625 168.589844 314.070312 167.121094 C 314.175781 166.816406 314.507812 166.65625 314.808594 166.761719 C 315.113281 166.863281 315.273438 167.195312 315.167969 167.5 C 314.65625 168.984375 314.109375 170.457031 313.546875 171.878906 C 313.457031 172.105469 313.238281 172.246094 313.007812 172.246094 Z M 309.148438 180.691406 C 309.058594 180.691406 308.960938 180.671875 308.875 180.625 C 308.59375 180.46875 308.488281 180.121094 308.636719 179.839844 C 309.3125 178.582031 309.996094 177.191406 310.667969 175.703125 C 310.800781 175.410156 311.144531 175.28125 311.4375 175.414062 C 311.726562 175.546875 311.859375 175.890625 311.726562 176.183594 C 311.042969 177.691406 310.347656 179.105469 309.660156 180.386719 C 309.554688 180.582031 309.355469 180.691406 309.148438 180.691406 " fill-opacity="1" fill-rule="nonzero"/></svg>