<svg xmlns="http://www.w3.org/2000/svg" xmlns:xlink="http://www.w3.org/1999/xlink" width="500" zoomAndPan="magnify" viewBox="0 0 375 374.999991" height="500" preserveAspectRatio="xMidYMid meet" version="1.0"><defs><clipPath id="0c327a4973"><path d="M 18 15 L 364.773438 15 L 364.773438 362 L 18 362 Z M 18 15 " clip-rule="nonzero"/></clipPath></defs><g clip-path="url(#0c327a4973)"><path fill="#caddff" d="M 362.429688 226.097656 C 362.410156 226.265625 362.390625 226.429688 362.371094 226.597656 C 361.796875 231.425781 361.101562 236.109375 360.292969 240.628906 C 356.980469 259.109375 353.703125 277.980469 344.414062 294.558594 C 336.382812 308.882812 324.375 320.136719 310.378906 328.511719 C 293.335938 338.707031 275.050781 345.378906 255.882812 350.328125 C 244.109375 353.367188 232.082031 355.8125 220.027344 357.433594 C 185.875 362.023438 149.796875 363.566406 115.816406 356.917969 C 100.84375 353.992188 84.789062 349.542969 71.054688 342.734375 C 55.972656 335.257812 32.382812 323.566406 22.324219 298.765625 C 10.027344 268.425781 29.570312 247.054688 40.832031 187.460938 C 53.84375 118.601562 34.960938 108.996094 50.757812 78.585938 C 75.878906 30.226562 146.835938 11.425781 201.035156 16.371094 C 266.457031 22.34375 343.9375 66.78125 359.214844 145.9375 C 359.628906 148.085938 360.015625 150.222656 360.371094 152.34375 C 364.925781 179.335938 364.972656 204.238281 362.429688 226.097656 " fill-opacity="1" fill-rule="nonzero"/></g><path fill="#0c2840" d="M 353.914062 193.207031 C 353.914062 263.886719 315.585938 288.6875 287.171875 297.359375 L 239.855469 297.359375 L 239.855469 286.140625 C 240.308594 286.453125 240.777344 286.753906 241.257812 287.050781 C 270.917969 274.480469 292.746094 241.863281 292.746094 187.058594 C 292.746094 124.761719 274.75 77.050781 239.855469 65.050781 L 239.855469 54.40625 L 292.6875 54.40625 C 362.199219 73.097656 353.914062 193.207031 353.914062 193.207031 " fill-opacity="1" fill-rule="nonzero"/><path fill="#19598f" d="M 292.6875 54.519531 C 286.824219 52.941406 280.40625 52.199219 273.378906 52.199219 L 221.785156 52.199219 C 215.976562 52.199219 201.074219 54.003906 184.152344 57.582031 C 169.394531 60.699219 154.605469 65.457031 140.835938 71.609375 L 135.089844 74.164062 C 130.671875 76.140625 127.785156 80.507812 127.785156 85.34375 L 230.507812 81.429688 L 230.507812 70.230469 C 230.507812 70.230469 230.183594 67.355469 239.738281 65.023438 C 239.761719 65.019531 239.808594 65.015625 239.832031 65.003906 C 243.632812 64.085938 249 63.257812 256.554688 62.71875 C 261.945312 62.339844 268.445312 62.113281 276.296875 62.113281 C 323.058594 62.113281 347.296875 114.761719 347.296875 187.058594 C 347.296875 259.359375 309.308594 293.039062 265.46875 293.039062 C 259.109375 293.039062 253.722656 292.167969 249.160156 290.671875 C 246.1875 289.703125 243.570312 288.472656 241.257812 287.050781 C 240.777344 286.753906 240.308594 286.292969 239.855469 285.984375 C 222.667969 274.199219 223.917969 251.277344 223.917969 251.277344 L 128.074219 251.277344 C 128.074219 251.277344 127.425781 291.679688 219.992188 300.238281 C 231.007812 301.257812 243.339844 301.90625 257.148438 301.90625 C 257.148438 301.90625 270.441406 302.429688 287.171875 297.320312 C 315.585938 288.648438 353.914062 263.921875 353.914062 193.242188 C 353.914062 193.242188 362.199219 73.210938 292.6875 54.519531 " fill-opacity="1" fill-rule="nonzero"/><path fill="#19598f" d="M 346.519531 118.832031 L 331.984375 132.65625 C 330.84375 133.734375 329.335938 134.414062 327.765625 134.414062 L 292.234375 134.414062 C 289.523438 134.414062 287.140625 132.5625 286.359375 129.972656 L 283.058594 118.996094 L 280.183594 130.023438 C 279.246094 133.621094 279.128906 137.375 279.839844 141.023438 L 284.960938 167.261719 C 286.34375 174.378906 292.585938 179.492188 299.839844 179.492188 L 319.304688 179.492188 C 326.054688 179.492188 331.988281 175.054688 333.867188 168.574219 L 339.949219 147.589844 C 339.949219 147.589844 339.949219 147.472656 350.636719 137.582031 C 355.777344 120.726562 346.519531 118.832031 346.519531 118.832031 " fill-opacity="1" fill-rule="nonzero"/><path fill="#000000" d="M 283.101562 121.3125 L 280.789062 130.183594 C 279.867188 133.714844 279.757812 137.324219 280.453125 140.90625 L 285.574219 167.140625 C 286.898438 173.933594 292.894531 178.867188 299.839844 178.867188 L 319.304688 178.867188 C 325.738281 178.867188 331.480469 174.5625 333.265625 168.398438 L 339.347656 147.414062 L 339.359375 147.417969 C 339.554688 147.003906 340.902344 145.742188 350.085938 137.238281 C 352.019531 130.816406 352.046875 125.730469 350.160156 122.523438 C 348.964844 120.488281 347.351562 119.757812 346.6875 119.53125 L 332.414062 133.109375 C 331.117188 134.339844 329.421875 135.042969 327.765625 135.042969 L 292.234375 135.042969 C 289.289062 135.042969 286.628906 133.03125 285.757812 130.152344 Z M 319.304688 180.117188 L 299.839844 180.117188 C 292.300781 180.117188 285.78125 174.761719 284.34375 167.378906 L 279.226562 141.144531 C 278.492188 137.375 278.609375 133.582031 279.578125 129.867188 L 282.449219 118.835938 C 282.519531 118.566406 282.765625 118.375 283.046875 118.371094 C 283.3125 118.359375 283.574219 118.546875 283.65625 118.8125 L 286.957031 129.792969 C 287.667969 132.144531 289.835938 133.789062 292.234375 133.789062 L 327.765625 133.789062 C 329.105469 133.789062 330.488281 133.210938 331.554688 132.199219 L 346.085938 118.378906 C 346.234375 118.238281 346.441406 118.175781 346.640625 118.21875 C 346.753906 118.242188 349.414062 118.816406 351.21875 121.847656 C 353.351562 125.441406 353.359375 130.800781 351.234375 137.765625 C 351.203125 137.871094 351.144531 137.96875 351.0625 138.042969 C 342.582031 145.890625 340.859375 147.5625 340.507812 147.910156 L 334.46875 168.75 C 332.527344 175.445312 326.292969 180.117188 319.304688 180.117188 " fill-opacity="1" fill-rule="nonzero"/><path fill="#000000" d="M 239.597656 64.421875 Z M 258.15625 302.542969 C 257.503906 302.542969 257.144531 302.53125 257.125 302.53125 C 257.117188 302.53125 257.113281 302.53125 257.109375 302.53125 C 244.429688 302.53125 231.914062 301.96875 219.9375 300.859375 C 198.765625 298.902344 180.738281 295.101562 166.355469 289.5625 C 154.8125 285.113281 145.566406 279.542969 138.882812 272.996094 C 127.414062 261.765625 127.441406 251.691406 127.449219 251.265625 C 127.453125 250.921875 127.730469 250.648438 128.074219 250.648438 L 223.921875 250.648438 C 224.09375 250.648438 224.257812 250.722656 224.375 250.847656 C 224.496094 250.96875 224.554688 251.140625 224.546875 251.3125 C 224.535156 251.535156 223.519531 274.019531 240.210938 285.464844 C 240.433594 285.617188 240.648438 285.796875 240.859375 285.96875 C 241.101562 286.167969 241.355469 286.375 241.589844 286.515625 C 243.953125 287.972656 246.566406 289.167969 249.351562 290.078125 C 254.085938 291.628906 259.507812 292.414062 265.472656 292.414062 C 302.933594 292.414062 346.671875 264.820312 346.671875 187.058594 C 346.671875 150.46875 340.488281 119.59375 328.78125 97.765625 C 316.492188 74.851562 298.347656 62.738281 276.300781 62.738281 C 268.9375 62.738281 262.3125 62.941406 256.601562 63.34375 C 249.808594 63.824219 244.222656 64.585938 240.007812 65.605469 C 239.949219 65.625 239.898438 65.632812 239.863281 65.636719 C 231.265625 67.734375 231.136719 70.167969 231.136719 70.191406 L 231.140625 81.425781 C 231.140625 81.773438 230.855469 82.054688 230.511719 82.054688 C 230.164062 82.054688 229.886719 81.773438 229.886719 81.425781 L 229.886719 70.253906 C 229.839844 69.589844 230.203125 66.703125 239.589844 64.414062 C 239.609375 64.410156 239.648438 64.402344 239.667969 64.398438 C 239.671875 64.394531 239.683594 64.394531 239.6875 64.394531 C 243.972656 63.355469 249.636719 62.582031 256.515625 62.09375 C 262.253906 61.691406 268.910156 61.484375 276.300781 61.484375 C 298.832031 61.484375 317.367188 73.828125 329.886719 97.175781 C 341.6875 119.179688 347.925781 150.261719 347.925781 187.058594 C 347.925781 220.949219 339.410156 248.789062 323.300781 267.566406 C 315.921875 276.167969 307.074219 282.78125 297.003906 287.21875 C 287.300781 291.496094 276.691406 293.664062 265.472656 293.664062 C 259.375 293.664062 253.824219 292.859375 248.964844 291.265625 C 246.085938 290.328125 243.382812 289.089844 240.933594 287.582031 C 240.625 287.394531 240.339844 287.160156 240.0625 286.9375 C 239.867188 286.773438 239.679688 286.621094 239.503906 286.5 C 223.867188 275.777344 223.246094 255.785156 223.28125 251.902344 L 128.730469 251.902344 C 128.925781 254.238281 130.292969 262.882812 139.859375 272.199219 C 150.214844 282.28125 172.53125 295.222656 220.054688 299.617188 C 231.996094 300.71875 244.476562 301.277344 257.148438 301.277344 C 257.304688 301.285156 270.5625 301.738281 286.996094 296.71875 C 317.238281 287.488281 353.289062 262.042969 353.289062 193.242188 C 353.289062 193.226562 353.292969 193.210938 353.292969 193.199219 C 353.3125 192.898438 355.28125 162.882812 348.75 130.988281 C 342.746094 101.660156 328.121094 64.691406 292.527344 55.121094 C 286.777344 53.574219 280.515625 52.820312 273.382812 52.820312 L 221.789062 52.820312 C 216.179688 52.820312 197.085938 55.53125 179.929688 59.15625 C 179.59375 59.230469 179.261719 59.015625 179.1875 58.675781 C 179.117188 58.339844 179.332031 58.007812 179.671875 57.933594 C 196.902344 54.289062 216.117188 51.570312 221.789062 51.570312 L 273.382812 51.570312 C 280.625 51.570312 286.996094 52.335938 292.855469 53.910156 C 308.863281 58.21875 322.070312 68.25 332.105469 83.738281 C 340.113281 96.085938 346.125 111.90625 349.984375 130.761719 C 356.464844 162.445312 354.609375 192.28125 354.542969 193.261719 C 354.539062 224.882812 346.847656 250.339844 331.6875 268.929688 C 320.542969 282.589844 305.632812 292.339844 287.359375 297.917969 C 273.363281 302.195312 261.617188 302.542969 258.15625 302.542969 " fill-opacity="1" fill-rule="nonzero"/><path fill="#19598f" d="M 125.613281 81.351562 L 242.515625 74.164062 C 251.289062 73.734375 258.484375 81.066406 258.484375 90.546875 L 258.484375 257.574219 C 258.484375 267.050781 251.3125 274.21875 242.535156 273.582031 L 125.496094 265.144531 C 118 264.601562 111.933594 257.15625 111.933594 248.511719 L 111.933594 96.171875 C 111.933594 87.527344 118.113281 81.71875 125.613281 81.351562 " fill-opacity="1" fill-rule="nonzero"/><path fill="#000000" d="M 125.613281 81.351562 L 125.617188 81.351562 Z M 243.238281 74.773438 C 243.007812 74.773438 242.777344 74.777344 242.542969 74.789062 L 125.652344 81.976562 C 125.648438 81.976562 125.644531 81.976562 125.644531 81.976562 C 118.0625 82.347656 112.5625 88.316406 112.5625 96.171875 L 112.5625 248.511719 C 112.5625 256.824219 118.382812 264 125.542969 264.515625 L 242.578125 272.960938 C 246.445312 273.238281 250.136719 271.9375 252.976562 269.300781 C 256.082031 266.410156 257.859375 262.140625 257.859375 257.574219 L 257.859375 90.546875 C 257.859375 85.984375 256.074219 81.664062 252.960938 78.699219 C 250.285156 76.152344 246.855469 74.773438 243.238281 74.773438 Z M 243.613281 274.25 C 243.238281 274.25 242.867188 274.234375 242.488281 274.207031 L 125.453125 265.765625 C 117.652344 265.203125 111.308594 257.464844 111.308594 248.511719 L 111.308594 96.171875 C 111.308594 87.625 117.308594 81.132812 125.578125 80.726562 L 242.472656 73.539062 C 246.703125 73.332031 250.726562 74.84375 253.824219 77.792969 C 257.183594 80.996094 259.109375 85.640625 259.109375 90.546875 L 259.109375 257.574219 C 259.109375 262.484375 257.1875 267.089844 253.828125 270.214844 C 251.007812 272.839844 247.414062 274.25 243.613281 274.25 " fill-opacity="1" fill-rule="nonzero"/><path fill="#ffffff" d="M 240.949219 256.730469 C 240.949219 266.109375 234.140625 273.210938 225.542969 272.589844 L 111.273438 264.316406 C 103.914062 263.78125 98.15625 256.414062 98.15625 247.847656 L 98.15625 96.824219 C 98.15625 88.261719 103.988281 81.03125 111.347656 80.671875 L 225.546875 75.109375 C 234.144531 74.691406 240.949219 81.949219 240.949219 91.332031 L 240.949219 256.730469 " fill-opacity="1" fill-rule="nonzero"/><path fill="#000000" d="M 226.578125 273.25 C 226.21875 273.25 225.859375 273.238281 225.496094 273.210938 L 111.226562 264.941406 C 103.546875 264.386719 97.53125 256.878906 97.53125 247.847656 L 97.53125 96.824219 C 97.53125 90.609375 100.476562 84.921875 105.222656 81.976562 C 105.515625 81.796875 105.902344 81.886719 106.082031 82.179688 C 106.265625 82.472656 106.175781 82.859375 105.882812 83.042969 C 101.503906 85.757812 98.78125 91.039062 98.78125 96.824219 L 98.78125 247.847656 C 98.78125 256.085938 104.40625 263.191406 111.316406 263.691406 L 225.585938 271.964844 C 229.277344 272.230469 232.800781 270.996094 235.5 268.480469 C 238.566406 265.632812 240.324219 261.347656 240.324219 256.730469 L 240.324219 91.332031 C 240.324219 86.703125 238.558594 82.371094 235.488281 79.445312 C 232.789062 76.871094 229.265625 75.550781 225.574219 75.734375 L 178.746094 78.015625 C 178.394531 78.035156 178.109375 77.765625 178.089844 77.421875 C 178.074219 77.074219 178.339844 76.78125 178.683594 76.765625 L 225.515625 74.484375 C 229.554688 74.289062 233.398438 75.726562 236.351562 78.539062 C 239.671875 81.699219 241.578125 86.363281 241.578125 91.332031 L 241.578125 256.730469 C 241.578125 261.695312 239.671875 266.3125 236.355469 269.398438 C 233.660156 271.90625 230.226562 273.25 226.578125 273.25 " fill-opacity="1" fill-rule="nonzero"/><path fill="#caddff" d="M 105.792969 104.972656 C 105.792969 97.375 111.0625 90.996094 117.617188 90.722656 L 218.925781 86.484375 C 226.445312 86.167969 232.59375 92.585938 232.59375 100.820312 L 232.59375 246.132812 C 232.59375 254.363281 226.445312 260.640625 218.925781 260.152344 L 117.617188 253.574219 C 111.0625 253.148438 105.792969 246.648438 105.792969 239.046875 L 105.792969 104.972656 " fill-opacity="1" fill-rule="nonzero"/><path fill="#0c2840" d="M 262.453125 209.5625 C 262.453125 213.238281 259.726562 216.113281 256.285156 215.984375 L 252.84375 215.851562 C 249.433594 215.726562 247.003906 212.675781 247.003906 209.039062 L 247.003906 146.320312 C 247.003906 142.683594 249.472656 139.707031 252.882812 139.675781 L 256.433594 139.640625 C 259.871094 139.609375 262.453125 142.5625 262.453125 146.238281 L 262.453125 209.5625 " fill-opacity="1" fill-rule="nonzero"/><path fill="#000000" d="M 250.132812 209.539062 C 249.789062 209.539062 249.507812 209.261719 249.507812 208.914062 L 249.507812 170.933594 C 249.507812 170.589844 249.789062 170.308594 250.132812 170.308594 C 250.480469 170.308594 250.761719 170.589844 250.761719 170.933594 L 250.761719 208.914062 C 250.761719 209.261719 250.480469 209.539062 250.132812 209.539062 " fill-opacity="1" fill-rule="nonzero"/><path fill="#000000" d="M 250.132812 161.542969 C 249.789062 161.542969 249.507812 161.265625 249.507812 160.917969 L 249.507812 147.148438 C 249.507812 146.800781 249.789062 146.519531 250.132812 146.519531 C 250.480469 146.519531 250.761719 146.800781 250.761719 147.148438 L 250.761719 160.917969 C 250.761719 161.265625 250.480469 161.542969 250.132812 161.542969 " fill-opacity="1" fill-rule="nonzero"/><path fill="#caddff" d="M 232.457031 101.875 L 232.457031 247.1875 C 232.457031 254.363281 226.308594 260.640625 218.785156 260.152344 L 164.933594 256.65625 L 154.832031 255.996094 L 117.480469 253.570312 C 115.671875 253.453125 113.960938 252.875 112.433594 251.9375 C 108.417969 249.476562 105.65625 244.546875 105.65625 239.046875 L 105.65625 104.972656 C 105.65625 104.53125 105.671875 104.101562 105.710938 103.671875 C 106.265625 96.660156 111.300781 90.976562 117.480469 90.722656 L 218.785156 86.480469 C 226.308594 86.167969 232.457031 92.582031 232.457031 101.875 " fill-opacity="1" fill-rule="nonzero"/><path fill="#19598f" d="M 105.636719 123.632812 L 180.703125 121.183594 L 180.648438 143.339844 L 180.597656 162.285156 L 105.550781 162.804688 L 105.550781 169.992188 L 180.582031 169.824219 L 180.472656 212.839844 C 180.464844 215.714844 179.683594 218.441406 178.242188 220.625 L 172.855469 228.75 L 105.550781 226.410156 L 105.550781 233.59375 L 168.019531 236.0625 L 154.828125 255.996094 L 154.582031 256.367188 L 164.765625 256.90625 L 164.933594 256.65625 L 177.039062 238.488281 C 177.890625 237.214844 179.21875 236.507812 180.660156 236.5625 L 232.433594 238.609375 L 232.476562 230.828125 L 232.457031 230.828125 L 183.28125 229.113281 L 189.199219 220.230469 C 190.34375 218.515625 190.960938 216.382812 190.972656 214.121094 L 191.09375 169.460938 L 201.453125 169.226562 L 232.457031 134.402344 L 232.457031 125.566406 L 198.550781 161.882812 L 191.117188 161.800781 L 191.132812 155.515625 L 191.230469 120.84375 L 191.25 113.25 L 191.3125 87.503906 L 180.785156 88.058594 L 180.722656 113.644531 L 105.636719 116.445312 L 105.636719 123.632812 " fill-opacity="1" fill-rule="nonzero"/><path fill="#000000" d="M 141.375 163.972656 C 141.027344 163.972656 140.746094 163.695312 140.746094 163.347656 L 140.746094 158.445312 C 140.746094 158.097656 141.027344 157.816406 141.375 157.816406 C 141.71875 157.816406 142 158.097656 142 158.445312 L 142 163.347656 C 142 163.695312 141.71875 163.972656 141.375 163.972656 Z M 149.597656 165.769531 L 144.589844 165.769531 C 144.242188 165.769531 143.964844 165.484375 143.964844 165.140625 C 143.964844 164.792969 144.242188 164.515625 144.589844 164.515625 L 149.597656 164.515625 C 149.945312 164.515625 150.222656 164.792969 150.222656 165.140625 C 150.222656 165.484375 149.945312 165.769531 149.597656 165.769531 Z M 159.613281 165.769531 L 154.605469 165.769531 C 154.257812 165.769531 153.980469 165.484375 153.980469 165.140625 C 153.980469 164.792969 154.257812 164.515625 154.605469 164.515625 L 159.613281 164.515625 C 159.960938 164.515625 160.242188 164.792969 160.242188 165.140625 C 160.242188 165.484375 159.960938 165.769531 159.613281 165.769531 Z M 169.628906 165.769531 L 164.621094 165.769531 C 164.277344 165.769531 163.996094 165.484375 163.996094 165.140625 C 163.996094 164.792969 164.277344 164.515625 164.621094 164.515625 L 169.628906 164.515625 C 169.976562 164.515625 170.257812 164.792969 170.257812 165.140625 C 170.257812 165.484375 169.976562 165.769531 169.628906 165.769531 Z M 179.648438 165.769531 L 174.640625 165.769531 C 174.292969 165.769531 174.011719 165.484375 174.011719 165.140625 C 174.011719 164.792969 174.292969 164.515625 174.640625 164.515625 L 179.648438 164.515625 C 179.992188 164.515625 180.273438 164.792969 180.273438 165.140625 C 180.273438 165.484375 179.992188 165.769531 179.648438 165.769531 Z M 185.210938 170.222656 C 184.863281 170.222656 184.582031 169.941406 184.582031 169.59375 L 184.582031 165.765625 C 184.273438 165.726562 184.03125 165.460938 184.03125 165.140625 C 184.03125 164.792969 184.308594 164.515625 184.65625 164.515625 L 185.210938 164.515625 C 185.554688 164.515625 185.835938 164.792969 185.835938 165.140625 L 185.835938 169.59375 C 185.835938 169.941406 185.554688 170.222656 185.210938 170.222656 Z M 185.210938 180.238281 C 184.863281 180.238281 184.582031 179.957031 184.582031 179.613281 L 184.582031 174.601562 C 184.582031 174.257812 184.863281 173.976562 185.210938 173.976562 C 185.554688 173.976562 185.835938 174.257812 185.835938 174.601562 L 185.835938 179.613281 C 185.835938 179.957031 185.554688 180.238281 185.210938 180.238281 Z M 185.210938 190.253906 C 184.863281 190.253906 184.582031 189.972656 184.582031 189.628906 L 184.582031 184.621094 C 184.582031 184.273438 184.863281 183.992188 185.210938 183.992188 C 185.554688 183.992188 185.835938 184.273438 185.835938 184.621094 L 185.835938 189.628906 C 185.835938 189.972656 185.554688 190.253906 185.210938 190.253906 Z M 185.210938 200.269531 C 184.863281 200.269531 184.582031 199.988281 184.582031 199.644531 L 184.582031 194.636719 C 184.582031 194.289062 184.863281 194.011719 185.210938 194.011719 C 185.554688 194.011719 185.835938 194.289062 185.835938 194.636719 L 185.835938 199.644531 C 185.835938 199.988281 185.554688 200.269531 185.210938 200.269531 Z M 185.210938 210.285156 C 184.863281 210.285156 184.582031 210.007812 184.582031 209.660156 L 184.582031 204.652344 C 184.582031 204.308594 184.863281 204.027344 185.210938 204.027344 C 185.554688 204.027344 185.835938 204.308594 185.835938 204.652344 L 185.835938 209.660156 C 185.835938 210.007812 185.554688 210.285156 185.210938 210.285156 Z M 184.929688 220.226562 C 184.816406 220.226562 184.703125 220.195312 184.601562 220.128906 C 184.308594 219.949219 184.21875 219.558594 184.398438 219.265625 L 184.582031 218.972656 L 184.582031 214.671875 C 184.582031 214.324219 184.863281 214.042969 185.210938 214.042969 C 185.554688 214.042969 185.835938 214.324219 185.835938 214.671875 L 185.835938 219.152344 C 185.835938 219.269531 185.804688 219.382812 185.742188 219.484375 L 185.460938 219.929688 C 185.34375 220.121094 185.140625 220.226562 184.929688 220.226562 Z M 179.636719 228.726562 C 179.523438 228.726562 179.40625 228.695312 179.304688 228.632812 C 179.011719 228.449219 178.921875 228.0625 179.101562 227.769531 L 181.75 223.515625 C 181.933594 223.226562 182.320312 223.136719 182.613281 223.316406 C 182.90625 223.5 182.996094 223.886719 182.816406 224.179688 L 180.164062 228.429688 C 180.046875 228.621094 179.84375 228.726562 179.636719 228.726562 Z M 182.417969 232.953125 C 182.40625 232.953125 182.398438 232.953125 182.390625 232.953125 L 177.382812 232.75 C 177.039062 232.738281 176.769531 232.445312 176.785156 232.097656 C 176.800781 231.753906 177.085938 231.484375 177.433594 231.5 L 182.441406 231.703125 C 182.785156 231.71875 183.054688 232.007812 183.039062 232.355469 C 183.027344 232.691406 182.75 232.953125 182.417969 232.953125 Z M 192.421875 233.363281 C 192.414062 233.363281 192.40625 233.363281 192.398438 233.359375 L 187.394531 233.160156 C 187.050781 233.144531 186.78125 232.851562 186.792969 232.507812 C 186.808594 232.164062 187.09375 231.890625 187.445312 231.90625 L 192.449219 232.109375 C 192.792969 232.125 193.0625 232.417969 193.050781 232.761719 C 193.035156 233.097656 192.757812 233.363281 192.421875 233.363281 Z M 202.433594 233.769531 C 202.425781 233.769531 202.414062 233.769531 202.40625 233.769531 L 197.402344 233.566406 C 197.054688 233.550781 196.789062 233.257812 196.800781 232.914062 C 196.816406 232.570312 197.101562 232.300781 197.453125 232.316406 L 202.457031 232.519531 C 202.800781 232.53125 203.070312 232.824219 203.058594 233.167969 C 203.042969 233.507812 202.765625 233.769531 202.433594 233.769531 Z M 212.441406 234.175781 C 212.433594 234.175781 212.421875 234.175781 212.414062 234.175781 L 207.410156 233.972656 C 207.066406 233.960938 206.796875 233.667969 206.808594 233.320312 C 206.824219 232.976562 207.117188 232.707031 207.460938 232.722656 L 212.464844 232.925781 C 212.8125 232.941406 213.078125 233.230469 213.066406 233.574219 C 213.050781 233.914062 212.773438 234.175781 212.441406 234.175781 Z M 222.449219 234.585938 C 222.441406 234.585938 222.433594 234.585938 222.421875 234.582031 L 217.417969 234.378906 C 217.074219 234.363281 216.804688 234.074219 216.820312 233.730469 C 216.832031 233.382812 217.125 233.117188 217.46875 233.128906 L 222.472656 233.332031 C 222.820312 233.347656 223.085938 233.636719 223.074219 233.984375 C 223.0625 234.320312 222.785156 234.585938 222.449219 234.585938 Z M 232.457031 234.992188 C 232.449219 234.992188 232.441406 234.992188 232.429688 234.992188 L 227.429688 234.785156 C 227.082031 234.773438 226.8125 234.480469 226.828125 234.136719 C 226.839844 233.792969 227.132812 233.523438 227.480469 233.535156 L 232.480469 233.738281 C 232.828125 233.753906 233.09375 234.042969 233.082031 234.390625 C 233.070312 234.726562 232.792969 234.992188 232.457031 234.992188 " fill-opacity="1" fill-rule="nonzero"/><path fill="#0c2840" d="M 147.636719 144.222656 C 147.636719 147.367188 145.019531 149.914062 141.792969 149.914062 C 138.5625 149.914062 135.945312 147.367188 135.945312 144.222656 C 135.945312 141.082031 138.5625 138.535156 141.792969 138.535156 C 145.019531 138.535156 147.636719 141.082031 147.636719 144.222656 " fill-opacity="1" fill-rule="nonzero"/><path fill="#0c2840" d="M 141.792969 34.125 C 122.5625 34.125 106.972656 49.253906 106.972656 67.914062 C 106.972656 72.578125 109.148438 79.105469 112.414062 86.265625 C 120.640625 104.320312 135.78125 126.429688 140.410156 133.03125 C 141.074219 133.980469 142.507812 133.980469 143.171875 133.035156 C 149.636719 123.8125 176.613281 84.339844 176.613281 67.914062 C 176.613281 49.253906 161.019531 34.125 141.792969 34.125 " fill-opacity="1" fill-rule="nonzero"/><path fill="#000000" d="M 127.464844 114.09375 C 127.257812 114.09375 127.054688 113.992188 126.933594 113.800781 C 120.398438 103.335938 115.320312 94.160156 111.84375 86.527344 C 108.195312 78.523438 106.347656 72.261719 106.347656 67.914062 C 106.347656 58.65625 110.222656 49.605469 116.976562 43.085938 C 123.722656 36.574219 132.539062 33.167969 141.8125 33.5 C 161.128906 34.1875 177.019531 49.621094 177.238281 67.90625 C 177.292969 72.628906 175.132812 79.488281 170.640625 88.875 C 170.492188 89.1875 170.117188 89.320312 169.808594 89.171875 C 169.492188 89.023438 169.363281 88.648438 169.511719 88.335938 C 173.921875 79.125 176.039062 72.445312 175.984375 67.921875 C 175.777344 50.292969 160.429688 35.414062 141.769531 34.75 C 132.84375 34.429688 124.34375 37.714844 117.84375 43.988281 C 111.332031 50.273438 107.597656 58.992188 107.597656 67.914062 C 107.597656 72.082031 109.410156 78.167969 112.984375 86.007812 C 116.4375 93.589844 121.488281 102.71875 127.996094 113.136719 C 128.179688 113.429688 128.089844 113.820312 127.796875 114 C 127.695312 114.066406 127.578125 114.09375 127.464844 114.09375 Z M 141.792969 134.371094 C 141.035156 134.371094 140.328125 134.003906 139.898438 133.394531 C 138.648438 131.609375 136.652344 128.722656 134.238281 125.101562 C 134.042969 124.816406 134.121094 124.425781 134.410156 124.234375 C 134.699219 124.042969 135.085938 124.121094 135.277344 124.410156 C 137.6875 128.019531 139.675781 130.894531 140.921875 132.671875 C 141.121094 132.957031 141.4375 133.117188 141.792969 133.117188 C 142.144531 133.117188 142.460938 132.957031 142.65625 132.675781 C 144.539062 129.992188 148.351562 124.46875 152.71875 117.667969 C 152.902344 117.378906 153.292969 117.292969 153.582031 117.480469 C 153.875 117.664062 153.957031 118.054688 153.769531 118.34375 C 149.390625 125.167969 145.570312 130.703125 143.683594 133.394531 C 143.253906 134.007812 142.550781 134.371094 141.792969 134.371094 " fill-opacity="1" fill-rule="nonzero"/><path fill="#ffffff" d="M 157.023438 67.832031 C 157.023438 76.023438 150.203125 82.660156 141.792969 82.660156 C 133.378906 82.660156 126.554688 76.023438 126.554688 67.832031 C 126.554688 59.648438 133.378906 53.007812 141.792969 53.007812 C 150.203125 53.007812 157.023438 59.648438 157.023438 67.832031 " fill-opacity="1" fill-rule="nonzero"/><path fill="#0c2840" d="M 47.855469 318.128906 C 47.855469 318.128906 41.753906 325.285156 42.03125 329.496094 L 41.914062 331.117188 L 32.296875 321.675781 L 33.667969 321.148438 C 35.84375 319.695312 39.121094 318.234375 41.132812 313.332031 L 47.855469 318.128906 " fill-opacity="1" fill-rule="nonzero"/><path fill="#ffffff" d="M 42.890625 327.941406 L 42.367188 329.851562 C 41.332031 333.636719 41.199219 337.632812 41.988281 341.488281 L 42.589844 344.453125 C 42.648438 344.738281 42.566406 345.03125 42.375 345.238281 L 42.277344 345.34375 C 41.183594 346.515625 37.296875 346.902344 33.292969 342.675781 C 30.816406 340.066406 26.082031 333.257812 23.996094 322.671875 C 23.863281 322.003906 24.164062 321.324219 24.742188 321 C 26.851562 319.816406 31.996094 317.175781 35.550781 317.507812 C 35.945312 317.546875 36.226562 317.917969 36.15625 318.320312 L 35.4375 322.195312 C 35.117188 323.9375 36.226562 325.621094 37.910156 325.949219 L 42.207031 326.792969 C 42.714844 326.894531 43.03125 327.425781 42.890625 327.941406 " fill-opacity="1" fill-rule="nonzero"/><path fill="#000000" d="M 34.902344 318.105469 C 31.542969 318.105469 26.949219 320.476562 25.050781 321.546875 C 24.710938 321.738281 24.53125 322.148438 24.609375 322.550781 C 26.992188 334.636719 32.640625 341.078125 33.75 342.246094 C 36.429688 345.074219 38.761719 345.5 39.925781 345.5 C 39.929688 345.5 39.9375 345.5 39.945312 345.5 C 40.925781 345.5 41.554688 345.195312 41.816406 344.914062 L 41.917969 344.8125 C 41.972656 344.753906 41.996094 344.664062 41.976562 344.582031 L 41.375 341.617188 C 40.570312 337.679688 40.707031 333.554688 41.765625 329.6875 L 42.289062 327.773438 C 42.320312 327.660156 42.28125 327.574219 42.253906 327.527344 C 42.230469 327.492188 42.179688 327.425781 42.085938 327.40625 L 37.789062 326.5625 C 35.769531 326.167969 34.441406 324.160156 34.824219 322.085938 L 35.539062 318.207031 C 35.542969 318.1875 35.539062 318.167969 35.527344 318.152344 C 35.515625 318.140625 35.503906 318.132812 35.492188 318.132812 C 35.300781 318.117188 35.101562 318.105469 34.902344 318.105469 Z M 39.925781 346.753906 C 38.558594 346.753906 35.839844 346.277344 32.839844 343.109375 C 31.691406 341.894531 25.832031 335.214844 23.382812 322.792969 C 23.195312 321.851562 23.621094 320.914062 24.4375 320.453125 C 26.550781 319.265625 31.867188 316.539062 35.605469 316.886719 C 35.96875 316.921875 36.304688 317.109375 36.523438 317.398438 C 36.746094 317.691406 36.835938 318.070312 36.769531 318.433594 L 36.054688 322.3125 C 35.796875 323.714844 36.679688 325.070312 38.027344 325.335938 L 42.328125 326.179688 C 42.734375 326.261719 43.097656 326.511719 43.316406 326.871094 C 43.546875 327.234375 43.609375 327.6875 43.496094 328.105469 L 42.972656 330.015625 C 41.964844 333.695312 41.835938 337.621094 42.601562 341.367188 L 43.203125 344.328125 C 43.300781 344.8125 43.164062 345.308594 42.832031 345.664062 L 42.734375 345.769531 C 42.15625 346.390625 41.140625 346.75 39.949219 346.753906 C 39.941406 346.753906 39.933594 346.753906 39.925781 346.753906 " fill-opacity="1" fill-rule="nonzero"/><path fill="#0c2840" d="M 39.882812 341.9375 C 39.714844 341.9375 39.546875 341.875 39.425781 341.742188 C 37.5 339.675781 36.257812 337.089844 35.832031 334.261719 L 35.652344 333.066406 C 35.644531 333.011719 35.617188 332.980469 35.574219 332.96875 C 35.535156 332.957031 35.511719 332.972656 35.492188 333 L 34.78125 333.933594 C 34.492188 334.3125 34.035156 334.523438 33.5625 334.507812 C 33.089844 334.484375 32.652344 334.230469 32.394531 333.824219 C 30.105469 330.191406 28.59375 326.183594 27.902344 321.914062 C 27.851562 321.574219 28.082031 321.25 28.421875 321.195312 C 28.761719 321.140625 29.085938 321.371094 29.140625 321.714844 C 29.800781 325.816406 31.253906 329.667969 33.453125 333.15625 C 33.507812 333.238281 33.582031 333.253906 33.621094 333.257812 C 33.664062 333.253906 33.730469 333.246094 33.785156 333.175781 L 34.496094 332.242188 C 34.828125 331.808594 35.363281 331.621094 35.886719 331.757812 C 36.414062 331.890625 36.808594 332.332031 36.890625 332.878906 L 37.070312 334.078125 C 37.457031 336.65625 38.589844 339.007812 40.339844 340.886719 C 40.578125 341.140625 40.5625 341.535156 40.308594 341.769531 C 40.1875 341.882812 40.035156 341.9375 39.882812 341.9375 " fill-opacity="1" fill-rule="nonzero"/><path fill="#0c2840" d="M 83.394531 340.195312 C 83.394531 340.195312 81.855469 346.308594 83.863281 349.695312 L 84.429688 351.097656 L 72.871094 348.382812 L 73.648438 347.160156 C 75.035156 344.988281 76.421875 341.34375 76.628906 338.839844 L 83.394531 340.195312 " fill-opacity="1" fill-rule="nonzero"/><path fill="#ffffff" d="M 84.15625 345.621094 L 85.125 347.078125 C 87.042969 349.960938 89.609375 352.320312 92.597656 353.953125 L 94.894531 355.207031 C 95.113281 355.328125 95.261719 355.550781 95.289062 355.804688 L 95.304688 355.933594 C 95.464844 357.371094 93.53125 360.34375 88.488281 360.777344 C 85.453125 361.039062 78.597656 360.558594 70.714844 356.363281 C 69.78125 355.867188 69.296875 354.777344 69.515625 353.714844 C 70.027344 351.261719 71.167969 346.9375 73.15625 344.871094 C 73.402344 344.617188 73.789062 344.648438 74.011719 344.925781 C 74.5 345.539062 75.375 346.632812 76.171875 347.632812 C 77.136719 348.847656 78.875 349.019531 80.039062 348.015625 L 83.015625 345.453125 C 83.367188 345.152344 83.898438 345.226562 84.15625 345.621094 " fill-opacity="1" fill-rule="nonzero"/><path fill="#000000" d="M 73.558594 345.359375 C 71.699219 347.335938 70.613281 351.515625 70.128906 353.84375 C 69.964844 354.640625 70.324219 355.449219 71.007812 355.8125 C 80.003906 360.597656 87.101562 360.269531 88.433594 360.152344 C 91.734375 359.871094 93.316406 358.5 93.964844 357.707031 C 94.554688 356.992188 94.71875 356.34375 94.683594 356.003906 L 94.667969 355.875 C 94.664062 355.824219 94.632812 355.78125 94.59375 355.757812 L 92.296875 354.5 C 89.230469 352.828125 86.570312 350.378906 84.605469 347.421875 L 83.636719 345.964844 C 83.601562 345.914062 83.558594 345.898438 83.53125 345.898438 C 83.492188 345.890625 83.457031 345.902344 83.425781 345.929688 L 80.445312 348.488281 C 79.757812 349.085938 78.882812 349.363281 77.984375 349.277344 C 77.078125 349.195312 76.257812 348.75 75.679688 348.023438 Z M 87.078125 361.453125 C 84.195312 361.453125 77.921875 360.90625 70.421875 356.917969 C 69.25 356.292969 68.625 354.925781 68.902344 353.585938 C 69.421875 351.109375 70.601562 346.621094 72.707031 344.4375 C 72.945312 344.191406 73.277344 344.058594 73.613281 344.074219 C 73.957031 344.089844 74.28125 344.257812 74.5 344.535156 L 76.660156 347.242188 C 77.023438 347.699219 77.535156 347.980469 78.101562 348.035156 C 78.65625 348.085938 79.199219 347.910156 79.628906 347.542969 L 82.609375 344.980469 C 82.910156 344.71875 83.308594 344.601562 83.703125 344.652344 C 84.097656 344.710938 84.453125 344.9375 84.679688 345.273438 L 85.648438 346.730469 C 87.5 349.515625 90.007812 351.824219 92.898438 353.402344 L 95.195312 354.660156 C 95.59375 354.875 95.863281 355.28125 95.914062 355.738281 L 95.925781 355.867188 C 96.015625 356.664062 95.652344 357.625 94.933594 358.503906 C 94.160156 359.445312 92.300781 361.078125 88.542969 361.398438 C 88.269531 361.421875 87.773438 361.453125 87.078125 361.453125 " fill-opacity="1" fill-rule="nonzero"/><path fill="#0c2840" d="M 82.300781 356.453125 C 82.246094 356.453125 82.191406 356.449219 82.136719 356.441406 C 78.433594 356 74.921875 354.789062 71.699219 352.84375 C 71.402344 352.664062 71.308594 352.28125 71.488281 351.984375 C 71.664062 351.6875 72.050781 351.59375 72.347656 351.773438 C 75.417969 353.625 78.761719 354.78125 82.285156 355.199219 C 82.296875 355.199219 82.335938 355.207031 82.371094 355.164062 C 82.386719 355.148438 82.421875 355.101562 82.40625 355.027344 L 82.191406 353.992188 C 82.085938 353.480469 82.289062 352.960938 82.710938 352.667969 C 83.125 352.375 83.652344 352.359375 84.085938 352.628906 L 84.976562 353.179688 C 86.8125 354.316406 88.910156 354.851562 91.042969 354.730469 C 91.386719 354.714844 91.683594 354.976562 91.703125 355.320312 C 91.722656 355.664062 91.457031 355.960938 91.113281 355.980469 C 88.722656 356.121094 86.375 355.519531 84.316406 354.246094 L 83.425781 353.695312 C 83.425781 353.695312 83.410156 353.703125 83.417969 353.738281 L 83.632812 354.773438 C 83.726562 355.214844 83.597656 355.679688 83.292969 356.011719 C 83.03125 356.296875 82.675781 356.453125 82.300781 356.453125 " fill-opacity="1" fill-rule="nonzero"/><path fill="#000000" d="M 77.582031 222.597656 C 77.582031 222.597656 70.363281 240.269531 76.632812 255.253906 C 85.078125 275.445312 73.792969 310.316406 75.507812 339.199219 C 75.539062 339.75 75.890625 340.207031 76.347656 340.300781 L 82.925781 341.621094 C 83.367188 341.710938 83.792969 341.4375 83.972656 340.957031 C 86.445312 334.375 102.976562 293.722656 103.917969 278.097656 C 104.699219 265.183594 104.386719 252.097656 101.292969 239.605469 L 96.472656 220.109375 L 77.582031 222.597656 " fill-opacity="1" fill-rule="nonzero"/><path fill="#000000" d="M 72.117188 223.3125 C 72.117188 223.3125 64.113281 234.949219 64.515625 249.417969 C 64.914062 263.878906 59.15625 274.34375 55.523438 279.039062 C 51.933594 283.671875 44.050781 296.207031 39.089844 315.738281 C 38.96875 316.210938 39.039062 316.730469 39.277344 317.144531 C 40.03125 318.429688 41.96875 321.144531 45.386719 322.191406 C 45.785156 322.3125 46.203125 322.210938 46.527344 321.917969 C 49.832031 318.910156 69.65625 300.8125 77.972656 284.96875 C 87.09375 267.589844 93.265625 236.453125 93.265625 236.453125 C 93.265625 236.453125 77.792969 234.546875 72.117188 223.3125 " fill-opacity="1" fill-rule="nonzero"/><path fill="#caddff" d="M 78.738281 286.472656 C 78.722656 286.472656 78.707031 286.472656 78.691406 286.472656 C 78.347656 286.449219 78.085938 286.148438 78.113281 285.804688 L 78.203125 284.554688 C 79.019531 273.339844 79.667969 264.480469 76.675781 257.332031 C 74.804688 252.851562 73.933594 247.703125 74.089844 242.027344 C 74.097656 241.679688 74.394531 241.410156 74.730469 241.417969 C 75.078125 241.429688 75.347656 241.714844 75.339844 242.058594 C 75.1875 247.558594 76.027344 252.535156 77.832031 256.851562 C 80.9375 264.273438 80.28125 273.265625 79.453125 284.644531 L 79.359375 285.890625 C 79.335938 286.222656 79.0625 286.472656 78.738281 286.472656 " fill-opacity="1" fill-rule="nonzero"/><path fill="#caddff" d="M 101.449219 251.996094 C 101.4375 251.996094 101.425781 251.996094 101.414062 251.996094 C 94.832031 251.628906 93.507812 243.457031 93.496094 243.375 C 93.445312 243.03125 93.679688 242.714844 94.019531 242.660156 C 94.359375 242.609375 94.679688 242.84375 94.734375 243.1875 C 94.746094 243.257812 95.917969 250.433594 101.484375 250.746094 C 101.828125 250.765625 102.09375 251.058594 102.074219 251.40625 C 102.054688 251.738281 101.78125 251.996094 101.449219 251.996094 " fill-opacity="1" fill-rule="nonzero"/><path fill="#ffffff" d="M 62.863281 181.417969 C 61.511719 177.992188 54.351562 161.34375 66.964844 140.832031 C 67.148438 140.53125 67.203125 140.171875 67.171875 139.832031 C 67.011719 138.132812 66.675781 132.609375 68.691406 130.101562 C 71.023438 127.199219 76.394531 122.253906 72.738281 132.773438 C 72.652344 133.023438 72.914062 133.207031 73.101562 133.027344 C 73.84375 132.339844 75.738281 130.527344 76.054688 130.851562 C 76.785156 131.613281 74.175781 136.871094 72.4375 139.871094 C 65.734375 151.429688 69.308594 169.710938 72.296875 176.121094 C 72.296875 176.121094 63.011719 181.792969 62.863281 181.417969 " fill-opacity="1" fill-rule="nonzero"/><path fill="#000000" d="M 75.542969 131.199219 Z M 73.1875 126.980469 C 72.699219 126.980469 70.96875 128.269531 69.179688 130.492188 C 67.304688 132.820312 67.644531 138.1875 67.792969 139.773438 C 67.84375 140.277344 67.734375 140.769531 67.496094 141.160156 C 61.988281 150.117188 56.800781 164.222656 63.234375 180.648438 C 64.589844 180 68.542969 177.671875 71.503906 175.875 C 68.386719 168.664062 65.347656 150.847656 71.894531 139.558594 C 73.832031 136.214844 75.214844 133.066406 75.503906 131.75 C 75.09375 132.0625 74.484375 132.59375 73.679688 133.347656 L 73.53125 133.488281 C 73.234375 133.765625 72.8125 133.808594 72.480469 133.589844 C 72.148438 133.375 72.011719 132.957031 72.144531 132.570312 C 73.847656 127.675781 73.269531 127.015625 73.242188 126.988281 C 73.226562 126.984375 73.207031 126.980469 73.1875 126.980469 Z M 63.445312 181.1875 Z M 62.855469 182.0625 C 62.777344 182.0625 62.730469 182.042969 62.683594 182.027344 L 62.40625 181.933594 L 62.171875 181.375 C 55.390625 164.347656 60.742188 149.75 66.429688 140.503906 C 66.527344 140.34375 66.570312 140.125 66.546875 139.890625 C 66.34375 137.703125 66.09375 132.332031 68.203125 129.707031 C 69.109375 128.582031 72.195312 124.976562 73.859375 125.898438 C 74.859375 126.453125 74.855469 128.164062 73.808594 131.53125 C 75.210938 130.285156 75.964844 129.859375 76.503906 130.417969 C 77.707031 131.667969 74.4375 137.664062 72.976562 140.1875 C 66.5 151.359375 69.769531 169.214844 72.867188 175.855469 L 73.101562 176.363281 L 72.625 176.65625 C 64.738281 181.472656 63.308594 182.058594 62.855469 182.0625 " fill-opacity="1" fill-rule="nonzero"/><path fill="#ffffff" d="M 116.605469 179.085938 C 116.605469 179.085938 126.625 180.738281 130.476562 179.722656 C 135.894531 178.292969 139.300781 160.355469 139.542969 159.121094 C 139.78125 157.886719 140.257812 151.40625 141.351562 149.078125 C 142.382812 146.886719 143.015625 144.644531 143.347656 143.261719 C 143.550781 142.429688 144.117188 142.03125 144.671875 142.125 C 145.160156 142.203125 146.089844 142.8125 145.808594 144.054688 C 145.480469 145.488281 145.1875 146.933594 144.917969 148.164062 C 144.835938 148.550781 144.679688 148.910156 144.949219 148.640625 C 145.582031 148.003906 146.40625 147.382812 147.046875 147.625 C 148.253906 148.078125 149.511719 152.207031 148.199219 155.453125 C 146.882812 158.699219 144.808594 158.308594 144.441406 159.839844 C 144.074219 161.371094 142.085938 180.8125 140.570312 184.359375 C 138.386719 189.460938 118.085938 193.183594 115.011719 193.578125 C 111.9375 193.96875 116.605469 179.085938 116.605469 179.085938 " fill-opacity="1" fill-rule="nonzero"/><path fill="#000000" d="M 117.042969 179.789062 C 115.277344 185.550781 113.992188 191.914062 114.839844 192.929688 C 114.863281 192.957031 114.867188 192.964844 114.933594 192.957031 C 119.699219 192.34375 138.082031 188.582031 139.996094 184.113281 C 141.039062 181.671875 142.359375 171.082031 143.148438 164.753906 C 143.523438 161.742188 143.722656 160.148438 143.832031 159.695312 C 144.046875 158.804688 144.683594 158.386719 145.296875 157.980469 C 146.0625 157.476562 146.933594 156.90625 147.617188 155.214844 C 148.457031 153.148438 148.152344 150.644531 147.519531 149.1875 C 147.222656 148.511719 146.9375 148.253906 146.828125 148.210938 C 146.675781 148.15625 146.199219 148.273438 145.394531 149.082031 C 145.003906 149.472656 144.664062 149.371094 144.5 149.277344 C 144.050781 149.015625 144.179688 148.523438 144.25 148.261719 C 144.269531 148.1875 144.292969 148.109375 144.308594 148.027344 C 144.40625 147.578125 144.507812 147.097656 144.613281 146.597656 C 144.796875 145.738281 144.988281 144.828125 145.199219 143.914062 C 145.269531 143.59375 145.234375 143.324219 145.089844 143.113281 C 144.925781 142.871094 144.671875 142.757812 144.570312 142.742188 C 144.3125 142.695312 144.066406 142.96875 143.957031 143.410156 C 143.59375 144.914062 142.941406 147.167969 141.917969 149.34375 C 141.148438 150.988281 140.679688 154.988281 140.398438 157.382812 C 140.296875 158.261719 140.222656 158.902344 140.15625 159.238281 L 140.144531 159.296875 C 139.257812 163.878906 135.949219 178.925781 130.632812 180.328125 C 127.175781 181.242188 119.210938 180.121094 117.042969 179.789062 Z M 114.898438 194.207031 C 114.496094 194.207031 114.140625 194.042969 113.878906 193.734375 C 112.132812 191.648438 115.347656 181.007812 116.011719 178.898438 L 116.171875 178.378906 L 116.710938 178.46875 C 116.808594 178.484375 126.636719 180.085938 130.316406 179.117188 C 133.980469 178.152344 137.242188 167.707031 138.917969 159.058594 L 138.929688 159 C 138.984375 158.707031 139.0625 158.058594 139.15625 157.234375 C 139.464844 154.609375 139.925781 150.640625 140.785156 148.8125 C 141.765625 146.730469 142.390625 144.5625 142.742188 143.117188 C 143.007812 142.015625 143.84375 141.355469 144.773438 141.503906 C 145.160156 141.570312 145.746094 141.84375 146.128906 142.410156 C 146.367188 142.765625 146.609375 143.359375 146.417969 144.195312 C 146.210938 145.097656 146.019531 146.003906 145.839844 146.859375 C 145.8125 146.980469 145.789062 147.101562 145.761719 147.222656 C 146.316406 146.929688 146.816406 146.871094 147.269531 147.039062 C 147.9375 147.292969 148.398438 148.074219 148.664062 148.6875 C 149.425781 150.429688 149.757812 153.269531 148.777344 155.6875 C 147.945312 157.738281 146.8125 158.484375 145.984375 159.027344 C 145.421875 159.398438 145.144531 159.59375 145.050781 159.988281 C 144.953125 160.398438 144.691406 162.488281 144.390625 164.910156 C 143.542969 171.714844 142.257812 182 141.144531 184.605469 C 138.613281 190.523438 115.324219 194.167969 115.089844 194.195312 C 115.027344 194.207031 114.960938 194.207031 114.898438 194.207031 " fill-opacity="1" fill-rule="nonzero"/><path fill="#0c2840" d="M 74.910156 174.738281 C 74.292969 174.910156 73.644531 174.652344 73.3125 174.109375 C 73.015625 173.621094 72.53125 172.648438 72.15625 171.875 C 71.84375 171.230469 71.121094 170.890625 70.425781 171.066406 L 60.773438 173.492188 C 60.007812 173.683594 59.519531 174.4375 59.652344 175.21875 C 60.105469 177.855469 61.492188 184.023438 65.417969 191.84375 C 66.453125 193.90625 67.789062 195.808594 68.09375 198.097656 C 68.84375 203.699219 70.367188 219.976562 69.378906 222.949219 C 68.820312 224.636719 68.242188 225.960938 67.882812 227.488281 C 67.257812 230.140625 67.132812 230.867188 67.613281 231.398438 C 71.367188 235.558594 99.800781 235.136719 98.566406 227.566406 C 97.71875 222.378906 97.300781 216.914062 101.121094 210.546875 C 102.152344 208.824219 103.867188 208.886719 106.257812 205.75 C 107.644531 203.933594 107.347656 202.429688 107.710938 200.019531 C 108 198.085938 111.203125 196.625 113.363281 195.851562 C 114.609375 195.40625 115.570312 194.398438 115.933594 193.128906 C 116.921875 189.675781 118.867188 182.882812 119.738281 179.710938 C 120 178.765625 119.410156 177.804688 118.453125 177.589844 C 115.089844 176.835938 110.585938 178.210938 96.007812 174.664062 C 85.84375 172.191406 77.664062 173.96875 74.910156 174.738281 " fill-opacity="1" fill-rule="nonzero"/><path fill="#19598f" d="M 75.234375 220.269531 C 75.15625 220.269531 75.074219 220.253906 75 220.222656 C 74.675781 220.09375 74.523438 219.726562 74.652344 219.40625 C 76.136719 215.746094 77.800781 210.695312 77.5 204.066406 C 76.992188 192.863281 81.480469 184.011719 81.671875 183.640625 C 81.828125 183.335938 82.207031 183.214844 82.515625 183.371094 C 82.824219 183.527344 82.941406 183.90625 82.785156 184.214844 C 82.738281 184.304688 78.257812 193.15625 78.75 204.011719 C 79.0625 210.878906 77.34375 216.097656 75.8125 219.878906 C 75.714844 220.121094 75.480469 220.269531 75.234375 220.269531 " fill-opacity="1" fill-rule="nonzero"/><path fill="#000000" d="M 90.261719 153.085938 C 90.261719 153.085938 93.757812 151.4375 90.175781 145.59375 C 86.566406 139.707031 80.019531 143.507812 77.28125 143.878906 C 74.542969 144.25 68.183594 141.261719 66.03125 140.695312 C 63.882812 140.128906 56.527344 136.960938 49.761719 146.957031 C 49.761719 146.957031 48.898438 149.355469 41.679688 150.886719 C 35.398438 152.222656 25.652344 158.984375 31.738281 166.058594 C 33.496094 168.097656 35.910156 169.347656 38.476562 169.65625 C 38.945312 169.710938 39.445312 169.746094 39.984375 169.761719 C 41.539062 169.796875 42.992188 170.652344 43.816406 172.066406 C 46.496094 176.679688 53.808594 184.949219 67.03125 170.511719 C 68.03125 169.421875 69.453125 168.898438 70.882812 169.070312 C 72.644531 169.285156 75.132812 171.402344 82.28125 168.070312 C 86.867188 165.933594 86.78125 160.238281 87.316406 157.476562 C 87.941406 154.234375 90.261719 153.085938 90.261719 153.085938 " fill-opacity="1" fill-rule="nonzero"/><path fill="#ffffff" d="M 89.253906 153.601562 C 89.253906 153.601562 89.820312 154.683594 90.078125 155.15625 C 90.324219 155.605469 90.925781 157.140625 92.632812 158.480469 C 92.796875 158.609375 92.835938 158.84375 92.726562 159.023438 L 91.902344 160.394531 C 91.847656 160.492188 91.832031 160.601562 91.863281 160.710938 C 92.058594 161.363281 92.765625 163.777344 92.824219 164.246094 C 92.894531 164.792969 92.621094 165.378906 92.449219 165.554688 C 91.996094 166.019531 89.558594 166.433594 89.558594 166.433594 C 89.558594 166.433594 88.949219 166.6875 88.742188 170.425781 C 88.59375 173.058594 92.8125 175.097656 92.8125 175.097656 C 92.8125 175.097656 84.714844 178.890625 78.671875 175.949219 C 78.230469 175.734375 78.070312 175.203125 78.410156 174.851562 C 79.753906 173.460938 81.089844 172.234375 81.832031 168.394531 C 81.875 168.164062 82.007812 167.964844 82.207031 167.839844 C 83.019531 167.332031 85.285156 166.28125 84.230469 162.347656 C 84.203125 162.246094 84.148438 162.152344 84.074219 162.082031 C 83.464844 161.460938 80.617188 158.382812 84.644531 158.238281 C 87.300781 158.148438 87.792969 156.113281 87.882812 155.203125 C 87.910156 154.90625 88.058594 154.632812 88.285156 154.433594 L 89.253906 153.601562 " fill-opacity="1" fill-rule="nonzero"/><path fill="#000000" d="M 89.066406 154.589844 L 88.695312 154.910156 C 88.585938 155.003906 88.515625 155.132812 88.503906 155.261719 C 88.425781 156.082031 87.917969 158.753906 84.664062 158.867188 C 83.6875 158.902344 83.257812 159.125 83.175781 159.320312 C 83.023438 159.714844 83.597656 160.710938 84.519531 161.636719 C 84.671875 161.789062 84.777344 161.976562 84.835938 162.183594 C 85.945312 166.324219 83.671875 167.6875 82.703125 168.269531 L 82.539062 168.367188 C 82.492188 168.398438 82.457031 168.449219 82.445312 168.511719 C 81.703125 172.363281 80.351562 173.753906 79.042969 175.097656 L 78.859375 175.285156 C 78.855469 175.304688 78.875 175.351562 78.945312 175.386719 C 83.34375 177.523438 88.988281 175.886719 91.386719 175 C 90.035156 174.125 88 172.457031 88.117188 170.390625 C 88.34375 166.257812 89.078125 165.957031 89.320312 165.855469 C 89.363281 165.839844 89.40625 165.824219 89.453125 165.820312 C 90.597656 165.621094 91.792969 165.292969 92.007812 165.109375 C 92.074219 165.03125 92.242188 164.640625 92.203125 164.324219 C 92.171875 164.054688 91.792969 162.671875 91.261719 160.886719 C 91.179688 160.617188 91.21875 160.316406 91.367188 160.074219 L 92.097656 158.855469 C 90.601562 157.625 89.925781 156.253906 89.632812 155.65625 C 89.589844 155.578125 89.558594 155.507812 89.527344 155.457031 C 89.410156 155.238281 89.230469 154.898438 89.066406 154.589844 Z M 84.019531 177.699219 C 82.144531 177.699219 80.195312 177.386719 78.398438 176.511719 C 77.988281 176.3125 77.695312 175.9375 77.621094 175.507812 C 77.550781 175.109375 77.675781 174.710938 77.960938 174.414062 L 78.144531 174.226562 C 79.378906 172.957031 80.546875 171.757812 81.214844 168.273438 C 81.292969 167.875 81.535156 167.519531 81.875 167.304688 L 82.058594 167.195312 C 82.96875 166.652344 84.492188 165.738281 83.625 162.511719 C 82.8125 161.695312 81.515625 160.121094 82.015625 158.859375 C 82.320312 158.082031 83.199219 157.664062 84.621094 157.617188 C 86.613281 157.546875 87.152344 156.234375 87.257812 155.144531 C 87.300781 154.6875 87.523438 154.269531 87.878906 153.960938 L 88.84375 153.125 C 88.988281 153 89.183594 152.949219 89.371094 152.988281 C 89.558594 153.023438 89.71875 153.140625 89.808594 153.3125 C 89.808594 153.3125 90.371094 154.386719 90.628906 154.859375 C 90.664062 154.921875 90.703125 155.003906 90.753906 155.105469 C 91.042969 155.691406 91.644531 156.90625 93.019531 157.992188 C 93.429688 158.3125 93.535156 158.894531 93.265625 159.34375 L 92.492188 160.628906 C 92.835938 161.792969 93.390625 163.699219 93.445312 164.171875 C 93.542969 164.933594 93.175781 165.707031 92.894531 165.992188 C 92.421875 166.480469 90.910156 166.828125 89.90625 167.007812 C 89.78125 167.273438 89.496094 168.121094 89.367188 170.460938 C 89.265625 172.277344 92.015625 174.019531 93.085938 174.535156 C 93.300781 174.640625 93.4375 174.863281 93.4375 175.105469 C 93.4375 175.347656 93.296875 175.566406 93.078125 175.667969 C 92.832031 175.78125 88.65625 177.699219 84.019531 177.699219 " fill-opacity="1" fill-rule="nonzero"/><path fill="#000000" d="M 85.410156 161.515625 Z M 84.851562 162.914062 C 84.386719 162.914062 83.800781 162.738281 83.230469 162.085938 C 83.003906 161.828125 83.027344 161.433594 83.289062 161.203125 C 83.546875 160.976562 83.945312 161.003906 84.171875 161.261719 C 84.417969 161.542969 84.664062 161.671875 84.902344 161.65625 C 85.164062 161.636719 85.375 161.457031 85.441406 161.375 C 85.53125 161.105469 85.796875 160.921875 86.09375 160.953125 C 86.4375 160.984375 86.691406 161.292969 86.65625 161.636719 C 86.613281 162.085938 86.066406 162.617188 85.441406 162.820312 C 85.285156 162.867188 85.085938 162.914062 84.851562 162.914062 " fill-opacity="1" fill-rule="nonzero"/><path fill="#000000" d="M 92.449219 158.863281 C 92.179688 158.863281 91.933594 158.691406 91.851562 158.425781 C 91.746094 158.09375 91.933594 157.742188 92.261719 157.640625 C 92.757812 157.488281 92.914062 157.222656 92.984375 157.035156 C 93.253906 156.328125 92.851562 155.183594 92.515625 154.460938 L 84.933594 158.121094 C 84.621094 158.273438 84.246094 158.140625 84.097656 157.832031 C 83.945312 157.519531 84.078125 157.144531 84.386719 156.992188 L 92.515625 153.070312 C 92.808594 152.925781 93.160156 153.035156 93.328125 153.3125 C 93.476562 153.566406 94.785156 155.84375 94.152344 157.484375 C 93.902344 158.136719 93.375 158.605469 92.632812 158.835938 C 92.570312 158.855469 92.507812 158.863281 92.449219 158.863281 " fill-opacity="1" fill-rule="nonzero"/><path fill="#0c2840" d="M 86.597656 163.375 C 86.464844 163.03125 86.078125 162.859375 85.738281 162.992188 C 85.398438 163.128906 85.234375 163.515625 85.367188 163.859375 C 85.5 164.203125 85.886719 164.375 86.226562 164.238281 C 86.566406 164.105469 86.730469 163.71875 86.597656 163.375 " fill-opacity="1" fill-rule="nonzero"/><path fill="#000000" d="M 159.785156 23.21875 C 159.398438 23.21875 159.011719 23.34375 158.6875 23.601562 C 158.3125 23.894531 158.082031 24.316406 158.027344 24.785156 C 157.972656 25.253906 158.105469 25.714844 158.398438 26.085938 C 159.003906 26.851562 160.117188 26.980469 160.886719 26.375 C 161.253906 26.082031 161.488281 25.660156 161.542969 25.191406 C 161.597656 24.71875 161.46875 24.257812 161.171875 23.886719 C 160.824219 23.449219 160.304688 23.21875 159.785156 23.21875 Z M 161.273438 26.863281 L 161.277344 26.863281 Z M 159.785156 28.007812 C 158.894531 28.007812 158.011719 27.617188 157.417969 26.863281 C 156.914062 26.230469 156.691406 25.441406 156.785156 24.640625 C 156.875 23.835938 157.277344 23.121094 157.910156 22.617188 C 159.214844 21.585938 161.121094 21.804688 162.15625 23.109375 C 162.65625 23.742188 162.882812 24.53125 162.785156 25.332031 C 162.695312 26.132812 162.296875 26.855469 161.664062 27.355469 C 161.109375 27.792969 160.445312 28.007812 159.785156 28.007812 " fill-opacity="1" fill-rule="nonzero"/><path fill="#000000" d="M 140.148438 319.601562 C 140.046875 319.601562 139.945312 319.574219 139.851562 319.523438 L 137.539062 318.28125 C 137.234375 318.117188 137.121094 317.738281 137.28125 317.433594 C 137.445312 317.128906 137.824219 317.015625 138.132812 317.179688 L 140.441406 318.421875 C 140.746094 318.585938 140.863281 318.964844 140.699219 319.269531 C 140.585938 319.480469 140.371094 319.601562 140.148438 319.601562 " fill-opacity="1" fill-rule="nonzero"/><path fill="#000000" d="M 132.050781 315.25 C 131.953125 315.25 131.851562 315.226562 131.757812 315.175781 L 129.445312 313.933594 C 129.140625 313.769531 129.027344 313.390625 129.1875 313.085938 C 129.351562 312.78125 129.730469 312.664062 130.035156 312.828125 L 132.347656 314.074219 C 132.652344 314.234375 132.769531 314.613281 132.605469 314.921875 C 132.492188 315.128906 132.277344 315.25 132.050781 315.25 " fill-opacity="1" fill-rule="nonzero"/><path fill="#000000" d="M 136.480469 313.90625 C 136.378906 313.90625 136.28125 313.878906 136.1875 313.832031 C 135.882812 313.667969 135.765625 313.289062 135.925781 312.984375 L 137.15625 310.664062 C 137.316406 310.359375 137.695312 310.242188 138.003906 310.40625 C 138.308594 310.566406 138.425781 310.945312 138.261719 311.253906 L 137.03125 313.570312 C 136.921875 313.78125 136.703125 313.90625 136.480469 313.90625 " fill-opacity="1" fill-rule="nonzero"/><path fill="#000000" d="M 132.175781 322.023438 C 132.078125 322.023438 131.976562 321.996094 131.886719 321.949219 C 131.578125 321.789062 131.464844 321.40625 131.625 321.101562 L 132.855469 318.78125 C 133.015625 318.476562 133.394531 318.359375 133.699219 318.523438 C 134.007812 318.6875 134.121094 319.0625 133.960938 319.367188 L 132.730469 321.691406 C 132.621094 321.902344 132.402344 322.023438 132.175781 322.023438 " fill-opacity="1" fill-rule="nonzero"/><path fill="#000000" d="M 330.597656 300.277344 C 330.496094 300.277344 330.398438 300.253906 330.304688 300.203125 L 327.992188 298.960938 C 327.6875 298.796875 327.570312 298.417969 327.738281 298.113281 C 327.898438 297.808594 328.28125 297.691406 328.582031 297.855469 L 330.898438 299.097656 C 331.203125 299.261719 331.3125 299.640625 331.152344 299.949219 C 331.039062 300.15625 330.820312 300.277344 330.597656 300.277344 " fill-opacity="1" fill-rule="nonzero"/><path fill="#000000" d="M 322.503906 295.929688 C 322.40625 295.929688 322.304688 295.902344 322.210938 295.851562 L 319.898438 294.609375 C 319.59375 294.449219 319.476562 294.070312 319.640625 293.761719 C 319.804688 293.457031 320.1875 293.34375 320.488281 293.507812 L 322.800781 294.75 C 323.105469 294.914062 323.222656 295.292969 323.054688 295.597656 C 322.945312 295.808594 322.730469 295.929688 322.503906 295.929688 " fill-opacity="1" fill-rule="nonzero"/><path fill="#000000" d="M 326.933594 294.582031 C 326.832031 294.582031 326.730469 294.558594 326.640625 294.507812 C 326.332031 294.347656 326.214844 293.96875 326.378906 293.664062 L 327.609375 291.34375 C 327.769531 291.039062 328.148438 290.921875 328.453125 291.082031 C 328.761719 291.246094 328.878906 291.625 328.714844 291.929688 L 327.488281 294.25 C 327.375 294.460938 327.15625 294.582031 326.933594 294.582031 " fill-opacity="1" fill-rule="nonzero"/><path fill="#000000" d="M 322.625 302.699219 C 322.53125 302.699219 322.429688 302.675781 322.335938 302.628906 C 322.03125 302.464844 321.914062 302.085938 322.074219 301.78125 L 323.304688 299.460938 C 323.464844 299.15625 323.84375 299.039062 324.152344 299.199219 C 324.457031 299.363281 324.570312 299.742188 324.410156 300.046875 L 323.179688 302.367188 C 323.070312 302.578125 322.851562 302.699219 322.625 302.699219 " fill-opacity="1" fill-rule="nonzero"/><path fill="#000000" d="M 242.707031 41.183594 C 242.625 41.183594 242.546875 41.167969 242.46875 41.136719 C 230.171875 36.082031 217.164062 32.894531 203.800781 31.652344 C 195.449219 30.878906 187.011719 30.875 178.730469 31.652344 C 178.382812 31.679688 178.082031 31.429688 178.050781 31.085938 C 178.015625 30.738281 178.269531 30.4375 178.613281 30.402344 C 186.972656 29.621094 195.484375 29.621094 203.914062 30.40625 C 217.40625 31.660156 230.53125 34.878906 242.941406 39.976562 C 243.261719 40.109375 243.414062 40.476562 243.285156 40.792969 C 243.183594 41.035156 242.953125 41.183594 242.707031 41.183594 " fill-opacity="1" fill-rule="nonzero"/><path fill="#000000" d="M 256.527344 37.6875 C 256.429688 37.6875 256.335938 37.664062 256.242188 37.621094 C 254.519531 36.738281 252.746094 35.878906 250.984375 35.066406 C 250.671875 34.921875 250.535156 34.546875 250.679688 34.234375 C 250.820312 33.921875 251.195312 33.78125 251.507812 33.929688 C 253.289062 34.746094 255.074219 35.613281 256.816406 36.503906 C 257.121094 36.664062 257.242188 37.039062 257.089844 37.347656 C 256.976562 37.566406 256.757812 37.6875 256.527344 37.6875 " fill-opacity="1" fill-rule="nonzero"/><path fill="#000000" d="M 251.246094 35.125 C 251.160156 35.125 251.070312 35.105469 250.984375 35.066406 C 235.050781 27.730469 218.042969 23.464844 200.445312 22.394531 C 190.382812 21.785156 180.265625 22.242188 170.378906 23.757812 C 170.039062 23.808594 169.71875 23.578125 169.667969 23.234375 C 169.613281 22.890625 169.851562 22.570312 170.191406 22.519531 C 180.164062 20.988281 190.371094 20.527344 200.519531 21.144531 C 218.273438 22.226562 235.429688 26.527344 251.507812 33.929688 C 251.820312 34.074219 251.960938 34.445312 251.816406 34.761719 C 251.710938 34.988281 251.484375 35.125 251.246094 35.125 " fill-opacity="1" fill-rule="nonzero"/><path fill="#000000" d="M 201.585938 333.863281 C 201.242188 333.863281 200.964844 333.589844 200.960938 333.25 C 200.953125 332.902344 201.226562 332.617188 201.570312 332.609375 C 202.15625 332.597656 260.332031 331.175781 297.261719 308.398438 C 297.554688 308.214844 297.9375 308.304688 298.121094 308.601562 C 298.300781 308.894531 298.210938 309.28125 297.917969 309.460938 C 278.457031 321.464844 253.300781 327.460938 235.625 330.375 C 216.488281 333.53125 201.742188 333.859375 201.597656 333.859375 C 201.589844 333.863281 201.585938 333.863281 201.585938 333.863281 " fill-opacity="1" fill-rule="nonzero"/><path fill="#000000" d="M 226.1875 339.417969 C 225.875 339.417969 225.605469 339.183594 225.570312 338.867188 C 225.527344 338.523438 225.773438 338.210938 226.121094 338.171875 C 226.628906 338.109375 277.753906 331.964844 304.945312 312.097656 C 305.222656 311.890625 305.613281 311.957031 305.816406 312.234375 C 306.023438 312.515625 305.960938 312.902344 305.683594 313.109375 C 278.226562 333.171875 226.78125 339.355469 226.261719 339.414062 C 226.238281 339.417969 226.210938 339.417969 226.1875 339.417969 " fill-opacity="1" fill-rule="nonzero"/><path fill="#000000" d="M 178.035156 329.867188 L 186.707031 332.710938 L 185.035156 325.203125 Z M 187.558594 334.273438 C 187.492188 334.273438 187.425781 334.261719 187.363281 334.242188 L 176.421875 330.65625 C 176.195312 330.582031 176.027344 330.382812 175.996094 330.144531 C 175.964844 329.90625 176.070312 329.671875 176.269531 329.539062 L 185.097656 323.65625 C 185.269531 323.539062 185.488281 323.515625 185.679688 323.59375 C 185.871094 323.671875 186.011719 323.839844 186.058594 324.039062 L 188.171875 333.511719 C 188.21875 333.730469 188.144531 333.960938 187.980469 334.109375 C 187.863281 334.214844 187.710938 334.273438 187.558594 334.273438 " fill-opacity="1" fill-rule="nonzero"/><path fill="#000000" d="M 79.292969 72 C 79.132812 72 78.972656 71.941406 78.847656 71.820312 C 78.605469 71.574219 78.605469 71.179688 78.847656 70.933594 L 81.136719 68.644531 C 81.382812 68.398438 81.78125 68.398438 82.023438 68.644531 C 82.269531 68.890625 82.269531 69.285156 82.023438 69.53125 L 79.734375 71.820312 C 79.609375 71.941406 79.453125 72 79.292969 72 " fill-opacity="1" fill-rule="nonzero"/><path fill="#000000" d="M 73.957031 77.335938 C 73.796875 77.335938 73.636719 77.273438 73.511719 77.152344 C 73.269531 76.90625 73.269531 76.511719 73.511719 76.265625 L 75.804688 73.976562 C 76.046875 73.734375 76.445312 73.734375 76.6875 73.976562 C 76.933594 74.222656 76.933594 74.617188 76.6875 74.863281 L 74.398438 77.152344 C 74.277344 77.273438 74.117188 77.335938 73.957031 77.335938 " fill-opacity="1" fill-rule="nonzero"/><path fill="#000000" d="M 76.246094 72 C 76.085938 72 75.925781 71.941406 75.804688 71.820312 L 73.511719 69.53125 C 73.269531 69.285156 73.269531 68.890625 73.511719 68.644531 C 73.757812 68.398438 74.152344 68.398438 74.398438 68.644531 L 76.6875 70.933594 C 76.933594 71.179688 76.933594 71.574219 76.6875 71.820312 C 76.566406 71.941406 76.40625 72 76.246094 72 " fill-opacity="1" fill-rule="nonzero"/><path fill="#000000" d="M 81.582031 77.335938 C 81.421875 77.335938 81.261719 77.273438 81.140625 77.152344 L 78.847656 74.863281 C 78.605469 74.617188 78.605469 74.222656 78.847656 73.976562 C 79.09375 73.734375 79.488281 73.734375 79.734375 73.976562 L 82.023438 76.265625 C 82.269531 76.511719 82.269531 76.90625 82.023438 77.152344 C 81.902344 77.273438 81.742188 77.335938 81.582031 77.335938 " fill-opacity="1" fill-rule="nonzero"/><path fill="#ffffff" d="M 63.246094 97.664062 C 63.246094 99.597656 61.679688 101.164062 59.75 101.164062 C 57.816406 101.164062 56.25 99.597656 56.25 97.664062 C 56.25 95.734375 57.816406 94.167969 59.75 94.167969 C 61.679688 94.167969 63.246094 95.734375 63.246094 97.664062 " fill-opacity="1" fill-rule="nonzero"/></svg>