<svg xmlns="http://www.w3.org/2000/svg" xmlns:xlink="http://www.w3.org/1999/xlink" width="500" zoomAndPan="magnify" viewBox="0 0 375 374.999991" height="500" preserveAspectRatio="xMidYMid meet" version="1.0"><defs><clipPath id="4db28bf3cc"><path d="M 25 25 L 351.996094 25 L 351.996094 352 L 25 352 Z M 25 25 " clip-rule="nonzero"/></clipPath></defs><g clip-path="url(#4db28bf3cc)"><path fill="#caddff" d="M 40.199219 126.804688 C 33.160156 142.414062 22.746094 172.300781 26.933594 209.472656 C 32.304688 257.160156 58.890625 294.761719 84.753906 315.886719 C 170.574219 385.996094 327.679688 340.707031 348.484375 274.664062 C 352.257812 262.683594 351.199219 251.128906 349.890625 236.90625 C 345.738281 191.683594 323.863281 178.242188 309.148438 130.222656 C 295.761719 86.523438 308.960938 81.605469 296.441406 62.175781 C 269.28125 20.035156 190.886719 17.910156 136.941406 38.117188 C 116.222656 45.875 65.945312 69.679688 40.199219 126.804688 " fill-opacity="1" fill-rule="nonzero"/></g><path fill="#0c2840" d="M 235.042969 101.78125 C 228.738281 102.425781 223.109375 97.835938 222.464844 91.527344 C 221.824219 85.226562 226.414062 79.59375 232.71875 78.953125 C 239.023438 78.3125 244.65625 82.902344 245.296875 89.207031 C 245.9375 95.511719 241.347656 101.140625 235.042969 101.78125 Z M 257.042969 90.25 L 256.59375 85.816406 L 251.761719 85.230469 C 251.472656 84.222656 251.105469 83.253906 250.664062 82.328125 L 253.882812 78.683594 L 251.273438 75.070312 L 246.796875 76.980469 C 246.050781 76.261719 245.246094 75.605469 244.390625 75.019531 L 245.359375 70.25 L 241.292969 68.421875 L 238.375 72.3125 C 237.378906 72.0625 236.355469 71.898438 235.308594 71.820312 L 233.761719 67.203125 L 229.328125 67.65625 L 228.742188 72.488281 C 227.738281 72.777344 226.761719 73.144531 225.839844 73.585938 L 222.195312 70.363281 L 218.582031 72.972656 L 220.492188 77.453125 C 219.773438 78.199219 219.117188 79.003906 218.535156 79.855469 L 213.761719 78.886719 L 211.933594 82.953125 L 215.820312 85.871094 C 215.574219 86.867188 215.414062 87.894531 215.332031 88.9375 L 210.71875 90.484375 L 211.167969 94.917969 L 216 95.503906 C 216.285156 96.511719 216.65625 97.480469 217.101562 98.410156 L 213.878906 102.050781 L 216.488281 105.664062 L 220.964844 103.753906 C 221.710938 104.472656 222.515625 105.128906 223.371094 105.714844 L 222.398438 110.484375 L 226.464844 112.3125 L 229.386719 108.425781 C 230.378906 108.671875 231.40625 108.835938 232.453125 108.917969 L 233.996094 113.53125 L 238.429688 113.082031 L 239.015625 108.246094 C 240.023438 107.957031 240.996094 107.59375 241.921875 107.148438 L 245.5625 110.371094 L 249.179688 107.761719 L 247.269531 103.285156 C 247.988281 102.539062 248.640625 101.734375 249.226562 100.878906 L 254 101.847656 L 255.824219 97.785156 L 251.9375 94.863281 C 252.1875 93.867188 252.351562 92.84375 252.429688 91.796875 L 257.042969 90.25 " fill-opacity="1" fill-rule="nonzero"/><path fill="#0c2840" d="M 189.792969 73.703125 C 182.089844 73.574219 175.953125 67.230469 176.074219 59.535156 C 176.203125 51.832031 182.546875 45.691406 190.246094 45.816406 C 197.945312 45.941406 204.089844 52.289062 203.960938 59.984375 C 203.835938 67.6875 197.492188 73.828125 189.792969 73.703125 Z M 217.992188 62.925781 L 218.082031 57.507812 L 212.332031 56.113281 C 212.128906 54.855469 211.824219 53.632812 211.421875 52.449219 L 215.828125 48.515625 L 213.195312 43.777344 L 207.519531 45.445312 C 206.722656 44.472656 205.84375 43.566406 204.898438 42.738281 L 206.746094 37.117188 L 202.101562 34.332031 L 198.023438 38.609375 C 196.855469 38.167969 195.640625 37.824219 194.390625 37.578125 L 193.183594 31.785156 L 187.765625 31.699219 L 186.371094 37.445312 C 185.113281 37.652344 183.890625 37.957031 182.710938 38.359375 L 178.773438 33.953125 L 174.039062 36.582031 L 175.703125 42.261719 C 174.730469 43.058594 173.824219 43.933594 172.996094 44.882812 L 167.375 43.03125 L 164.589844 47.679688 L 168.867188 51.757812 C 168.425781 52.921875 168.082031 54.136719 167.835938 55.386719 L 162.046875 56.59375 L 161.957031 62.011719 L 167.707031 63.40625 C 167.910156 64.664062 168.214844 65.886719 168.617188 67.070312 L 164.210938 71.003906 L 166.839844 75.742188 L 172.519531 74.074219 C 173.316406 75.046875 174.191406 75.953125 175.140625 76.78125 L 173.289062 82.402344 L 177.9375 85.1875 L 182.015625 80.910156 C 183.179688 81.351562 184.394531 81.695312 185.644531 81.941406 L 186.851562 87.734375 L 192.269531 87.820312 L 193.664062 82.074219 C 194.925781 81.867188 196.148438 81.5625 197.328125 81.160156 L 201.265625 85.566406 L 206 82.9375 L 204.332031 77.257812 C 205.308594 76.460938 206.210938 75.585938 207.042969 74.636719 L 212.664062 76.488281 L 215.445312 71.839844 L 211.171875 67.761719 C 211.613281 66.597656 211.957031 65.382812 212.199219 64.132812 L 217.992188 62.925781 " fill-opacity="1" fill-rule="nonzero"/><path fill="#19598f" d="M 338.101562 298.449219 L 335.476562 300.777344 C 333.996094 302.09375 331.140625 303.390625 329.234375 303.050781 L 50.851562 253.546875 C 47.164062 252.890625 45.386719 249.007812 45.359375 245.234375 L 44.101562 68.652344 C 44.070312 64.527344 46.222656 60.613281 49.757812 58.371094 C 52.269531 56.777344 55.253906 56.171875 58.117188 56.675781 L 336.75 105.445312 C 339.554688 105.9375 341.566406 108.347656 341.566406 111.21875 L 341.566406 290.8125 C 341.566406 293.707031 340.300781 296.496094 338.101562 298.449219 " fill-opacity="1" fill-rule="nonzero"/><path fill="#ffffff" d="M 329.597656 303.28125 L 51.664062 254.476562 C 47.347656 253.71875 44.257812 250.003906 44.257812 245.574219 L 44.257812 68.027344 C 44.257812 65.6875 46.398438 63.863281 48.675781 64.265625 L 327.347656 113.199219 C 330.15625 113.691406 332.164062 116.109375 332.164062 118.988281 L 332.164062 301.097656 C 332.164062 302.457031 330.921875 303.515625 329.597656 303.28125 " fill-opacity="1" fill-rule="nonzero"/><path fill="#000000" d="M 215.808594 283.890625 C 215.777344 283.890625 215.742188 283.886719 215.707031 283.882812 L 85.109375 260.949219 C 84.789062 260.890625 84.574219 260.585938 84.628906 260.265625 C 84.6875 259.945312 84.992188 259.730469 85.3125 259.789062 L 215.910156 282.71875 C 216.230469 282.777344 216.445312 283.082031 216.390625 283.402344 C 216.339844 283.6875 216.089844 283.890625 215.808594 283.890625 " fill-opacity="1" fill-rule="nonzero"/><path fill="#000000" d="M 329.960938 303.902344 C 329.804688 303.902344 329.648438 303.890625 329.496094 303.859375 L 303.253906 299.253906 C 302.9375 299.199219 302.722656 298.894531 302.777344 298.570312 C 302.832031 298.253906 303.140625 298.039062 303.460938 298.09375 L 329.699219 302.703125 C 330.152344 302.78125 330.621094 302.652344 330.984375 302.34375 C 331.359375 302.03125 331.574219 301.578125 331.574219 301.097656 L 331.574219 118.992188 C 331.574219 116.410156 329.753906 114.222656 327.246094 113.78125 L 48.574219 64.847656 C 47.671875 64.6875 46.734375 64.945312 46.011719 65.554688 C 45.269531 66.175781 44.847656 67.078125 44.847656 68.027344 L 44.847656 162.8125 C 44.847656 163.136719 44.582031 163.398438 44.257812 163.398438 C 43.933594 163.398438 43.667969 163.136719 43.667969 162.8125 L 43.667969 68.027344 C 43.667969 66.726562 44.246094 65.5 45.253906 64.652344 C 46.246094 63.820312 47.527344 63.46875 48.777344 63.6875 L 327.449219 112.621094 C 330.519531 113.160156 332.75 115.839844 332.75 118.992188 L 332.75 301.097656 C 332.75 301.925781 332.382812 302.710938 331.742188 303.246094 C 331.234375 303.675781 330.605469 303.902344 329.960938 303.902344 " fill-opacity="1" fill-rule="nonzero"/><path fill="#0c2840" d="M 85.90625 131.386719 C 85.347656 131.625 84.972656 132.132812 84.933594 132.703125 C 84.824219 134.496094 83.589844 138.84375 81.957031 140.199219 C 77.507812 143.890625 79.824219 150.371094 82.753906 151.875 C 85.6875 153.382812 86.878906 153.546875 86.832031 156.117188 C 86.789062 158.6875 86.082031 168.582031 86.71875 171.203125 C 87.355469 173.828125 88.839844 178.121094 89.761719 179.15625 C 90.679688 180.191406 93.011719 180.902344 91.921875 177.171875 C 90.832031 173.441406 90.105469 171.671875 92.027344 169.777344 C 93.949219 167.878906 97.289062 163.410156 97.710938 161.617188 C 98.132812 159.824219 99.269531 158.835938 100.199219 158.691406 C 101.132812 158.546875 103.132812 158.050781 103.769531 157.453125 C 104.40625 156.859375 103.464844 154.964844 103.292969 153.34375 C 103.125 151.71875 103.226562 150.761719 106.203125 149.695312 C 109.179688 148.632812 108.207031 144.910156 104.445312 143.664062 C 100.683594 142.417969 98.515625 140.21875 99.1875 138.230469 C 99.855469 136.242188 96.765625 136.226562 95.050781 135.132812 C 93.335938 134.039062 93.550781 132.539062 91.605469 131.667969 C 88.972656 130.496094 86.992188 130.925781 85.90625 131.386719 " fill-opacity="1" fill-rule="nonzero"/><path fill="#0c2840" d="M 104.527344 102.1875 C 105.238281 100.523438 105.472656 98.183594 105.035156 97.292969 C 104.601562 96.402344 103.167969 94.898438 99.984375 96.808594 C 96.800781 98.71875 96.0625 98.664062 95.390625 97.003906 C 94.71875 95.34375 96.957031 91.324219 100.648438 91.601562 C 104.339844 91.875 105.214844 90.65625 105.425781 89.703125 C 105.632812 88.753906 104.585938 87.605469 103.34375 87.296875 C 102.101562 86.988281 101.808594 87.71875 96.304688 89.453125 C 93.453125 90.351562 90.972656 90.214844 89.242188 89.871094 C 88.457031 89.714844 87.820312 89.175781 87.523438 88.433594 C 86.984375 87.074219 86.019531 85.457031 83.457031 86.621094 C 80.085938 88.148438 78.359375 90.769531 77.148438 90.113281 C 75.933594 89.457031 75.804688 87.664062 75.34375 86.742188 C 74.882812 85.820312 70.195312 82.394531 66.429688 83.894531 C 62.660156 85.394531 56.277344 88.074219 57.070312 89.667969 C 57.863281 91.265625 60.398438 91.535156 64.382812 91.023438 C 68.367188 90.507812 67.023438 93.320312 67.394531 94.320312 C 67.769531 95.320312 68.847656 95.722656 68.707031 97.816406 C 68.5625 99.910156 68.28125 101.019531 66.828125 101.882812 C 65.371094 102.746094 64.457031 104.105469 64.453125 106.074219 C 64.4375 117.621094 71.566406 124.242188 73.558594 125.117188 C 75.550781 125.992188 76.105469 126.035156 77.011719 127.316406 C 77.035156 127.351562 77.058594 127.371094 77.085938 127.390625 C 78.429688 129.949219 79.792969 131.914062 80.460938 132.390625 C 82.140625 133.585938 82.6875 131.078125 82.902344 129.054688 C 83.121094 127.03125 82.613281 124.550781 81.808594 122.128906 C 81.007812 119.707031 81.164062 118.21875 81.585938 117.285156 C 82.003906 116.351562 83.304688 116.125 84.046875 117.144531 C 84.785156 118.164062 86.722656 119.167969 87.761719 118.640625 C 89.039062 117.996094 88.882812 115.078125 89.40625 114.152344 C 89.929688 113.226562 92.320312 112.757812 93.488281 110.808594 C 94.652344 108.855469 98.273438 109.679688 100.382812 109.277344 C 103.003906 108.777344 104.710938 107.597656 105.03125 106.949219 C 106.054688 104.894531 103.816406 103.851562 104.527344 102.1875 " fill-opacity="1" fill-rule="nonzero"/><path fill="#0c2840" d="M 109.453125 87.605469 C 108.265625 87.96875 107.613281 89.253906 108.027344 90.402344 C 108.167969 90.792969 108.351562 91.148438 108.578125 91.355469 C 109.300781 92.011719 112.4375 92.597656 112.871094 93.886719 C 113.304688 95.175781 110.933594 101.285156 113 102.578125 C 114.320312 103.402344 123.257812 100.65625 127.378906 97.433594 C 131.496094 94.214844 133.394531 92.089844 131.253906 91.78125 C 129.117188 91.476562 124.023438 91.859375 120.886719 91.273438 C 117.75 90.6875 112.71875 87.753906 111.085938 87.457031 C 110.539062 87.359375 109.96875 87.445312 109.453125 87.605469 " fill-opacity="1" fill-rule="nonzero"/><path fill="#0c2840" d="M 147.332031 129.976562 C 147.332031 129.976562 140.6875 130.863281 138.300781 129 C 135.910156 127.128906 138.457031 124.707031 134.542969 124.261719 C 130.632812 123.816406 123.265625 122.960938 120.3125 129.195312 C 117.363281 135.425781 117.203125 138.332031 120.535156 141.34375 C 123.867188 144.359375 129.929688 141.738281 130.945312 143.65625 C 131.957031 145.578125 131.304688 146.71875 131.363281 149.679688 C 131.539062 158.472656 133.347656 167.570312 136.136719 169.082031 C 137.804688 169.988281 142.246094 168.925781 144.386719 166.011719 C 146.523438 163.097656 148.546875 161.445312 149.128906 158.6875 C 149.582031 156.53125 147.300781 154.402344 150.132812 152.15625 C 152.960938 149.90625 156.667969 149.414062 156.847656 147.738281 C 157.027344 146.0625 155.867188 145.515625 154.40625 144.945312 C 152.945312 144.375 149.511719 140.894531 150.058594 138.628906 C 150.605469 136.367188 151.519531 135.28125 152.164062 136.0625 C 152.804688 136.84375 152.332031 139.007812 152.828125 140.023438 C 153.324219 141.039062 154.097656 144.027344 156.253906 143.089844 C 158.414062 142.152344 159.09375 141.46875 160.320312 141.316406 C 161.550781 141.164062 162.503906 137.933594 161.644531 136.894531 C 160.785156 135.851562 159.773438 136.261719 159.25 135.492188 C 158.726562 134.71875 157.828125 132.941406 159.699219 133.570312 C 161.570312 134.199219 160.34375 135.449219 163.660156 136.1875 C 166.972656 136.921875 169.96875 139.46875 170.667969 141.964844 C 171.371094 144.460938 171.835938 148.039062 173.144531 148.261719 C 174.453125 148.480469 174.613281 143.601562 176.941406 142.1875 C 179.277344 140.773438 180.804688 138.933594 182.105469 140.371094 C 183.402344 141.8125 185.429688 145.507812 186.886719 146.59375 C 188.347656 147.679688 191.703125 149.152344 191.347656 146.804688 C 190.992188 144.457031 188.394531 141.574219 190.183594 140.730469 C 191.96875 139.886719 195.9375 142.378906 197.148438 140.148438 C 198.355469 137.917969 197.359375 134.789062 196.085938 133.105469 C 194.8125 131.421875 195.660156 129.160156 197.117188 130.246094 C 198.574219 131.335938 200.304688 134.398438 201.402344 134.355469 C 202.496094 134.316406 200.542969 132.214844 202.015625 129.757812 C 203.488281 127.300781 204.832031 126.054688 203.238281 123.980469 C 201.644531 121.90625 198.554688 120.210938 200.078125 119.59375 C 201.597656 118.972656 203.335938 119.714844 205.015625 119.835938 C 206.699219 119.964844 207.089844 117.425781 207.855469 118.214844 C 208.617188 119.003906 207.886719 123.59375 209.984375 124.363281 C 212.078125 125.128906 210.238281 120.839844 212.089844 119.386719 C 213.9375 117.9375 216.125 115.65625 214.890625 114.707031 C 213.660156 113.757812 208.988281 114.390625 207.785156 113.199219 C 206.582031 112.011719 204.386719 110.992188 200.011719 111.152344 C 195.632812 111.316406 188.785156 111.90625 185.9375 110.226562 C 183.089844 108.550781 184.648438 107.566406 181.148438 106.328125 C 177.648438 105.089844 169.917969 104.878906 168.027344 105.59375 C 166.128906 106.308594 165.761719 107.503906 158.0625 108.148438 C 150.359375 108.800781 150.585938 104.417969 147.621094 103.828125 C 144.65625 103.242188 142.734375 103.097656 138.722656 105.488281 C 134.714844 107.878906 132.527344 109.058594 134.167969 109.546875 C 135.8125 110.039062 136.003906 110.539062 138.722656 110.007812 C 141.445312 109.480469 141.949219 108.171875 142.882812 108.484375 C 143.820312 108.800781 144.664062 109.964844 141.972656 111.351562 C 139.277344 112.738281 138.96875 111.128906 137.351562 111.496094 C 135.738281 111.863281 136.316406 113.253906 134.90625 114.003906 C 133.492188 114.75 133.554688 113.046875 131.570312 114.609375 C 129.585938 116.171875 129.429688 117.628906 128.617188 118.421875 C 127.804688 119.21875 126.582031 117.046875 125.453125 118.554688 C 124.324219 120.058594 124.808594 122.292969 126.519531 122.175781 C 128.226562 122.058594 130.0625 119.628906 132.492188 119.566406 C 134.921875 119.503906 137.011719 118.070312 136.9375 119.898438 C 136.863281 121.726562 136.640625 123.785156 137.628906 123.617188 C 138.617188 123.445312 138.605469 120.144531 139.433594 120.328125 C 140.261719 120.511719 140.964844 123.007812 142.570312 123.859375 C 144.171875 124.714844 146.257812 124.503906 147.726562 125.46875 C 149.199219 126.433594 151.453125 127.371094 147.332031 129.976562 " fill-opacity="1" fill-rule="nonzero"/><path fill="#0c2840" d="M 184.046875 175.863281 C 184.046875 175.863281 182.914062 169.277344 186.160156 168.363281 C 189.410156 167.449219 194.347656 166.664062 196.242188 164.925781 C 198.132812 163.191406 201.554688 161.855469 203.347656 164.734375 C 205.140625 167.613281 208.085938 170.722656 207.074219 172.8125 C 206.0625 174.902344 198.898438 181.15625 197.332031 181.039062 C 195.773438 180.921875 195.160156 176.832031 193.355469 176.554688 C 191.546875 176.273438 186.730469 176.457031 185.53125 176.695312 C 184.269531 176.949219 184.046875 175.863281 184.046875 175.863281 " fill-opacity="1" fill-rule="nonzero"/><path fill="#0c2840" d="M 201.894531 261.046875 L 201.894531 267.988281 L 269.550781 279.445312 L 269.550781 272.5 L 201.894531 261.046875 " fill-opacity="1" fill-rule="nonzero"/><path fill="#0c2840" d="M 203.675781 261.925781 C 203.449219 261.925781 203.226562 262.007812 203.042969 262.164062 C 202.8125 262.359375 202.679688 262.636719 202.679688 262.933594 L 202.679688 266.71875 C 202.679688 267.171875 202.980469 267.535156 203.417969 267.613281 L 316.492188 287.105469 C 316.769531 287.152344 317.058594 287.070312 317.28125 286.878906 C 317.515625 286.683594 317.648438 286.40625 317.648438 286.109375 L 317.648438 282.320312 C 317.648438 281.871094 317.34375 281.503906 316.910156 281.429688 L 203.835938 261.9375 C 203.785156 261.929688 203.730469 261.925781 203.675781 261.925781 Z M 316.652344 288.296875 C 316.53125 288.296875 316.410156 288.285156 316.289062 288.265625 L 203.21875 268.773438 C 202.226562 268.601562 201.5 267.738281 201.5 266.71875 L 201.5 262.933594 C 201.5 262.289062 201.785156 261.679688 202.285156 261.261719 C 202.777344 260.847656 203.414062 260.671875 204.035156 260.777344 L 317.109375 280.265625 C 318.101562 280.441406 318.824219 281.300781 318.824219 282.320312 L 318.824219 286.109375 C 318.824219 286.753906 318.539062 287.363281 318.042969 287.78125 C 317.644531 288.117188 317.152344 288.296875 316.652344 288.296875 " fill-opacity="1" fill-rule="nonzero"/><path fill="#0c2840" d="M 201.894531 246.5 L 201.894531 253.441406 L 225.035156 257.28125 L 225.035156 250.335938 L 201.894531 246.5 " fill-opacity="1" fill-rule="nonzero"/><path fill="#0c2840" d="M 203.675781 247.378906 C 203.449219 247.378906 203.226562 247.460938 203.042969 247.617188 C 202.8125 247.8125 202.679688 248.09375 202.679688 248.390625 L 202.679688 252.175781 C 202.679688 252.625 202.980469 252.992188 203.417969 253.066406 L 316.492188 272.558594 C 316.769531 272.609375 317.058594 272.523438 317.28125 272.335938 C 317.515625 272.140625 317.648438 271.859375 317.648438 271.5625 L 317.648438 267.773438 C 317.648438 267.324219 317.34375 266.957031 316.910156 266.882812 L 203.835938 247.394531 C 203.78125 247.386719 203.730469 247.378906 203.675781 247.378906 Z M 316.648438 273.75 C 316.53125 273.75 316.410156 273.738281 316.289062 273.71875 L 203.21875 254.226562 C 202.226562 254.054688 201.5 253.191406 201.5 252.175781 L 201.5 248.390625 C 201.5 247.746094 201.785156 247.136719 202.285156 246.714844 C 202.777344 246.304688 203.414062 246.125 204.035156 246.234375 L 317.109375 265.722656 C 318.101562 265.890625 318.824219 266.757812 318.824219 267.773438 L 318.824219 271.5625 C 318.824219 272.207031 318.539062 272.816406 318.042969 273.238281 C 317.644531 273.570312 317.152344 273.75 316.648438 273.75 " fill-opacity="1" fill-rule="nonzero"/><path fill="#0c2840" d="M 201.894531 231.957031 L 201.894531 238.898438 L 280.496094 252.339844 L 280.496094 245.394531 L 201.894531 231.957031 " fill-opacity="1" fill-rule="nonzero"/><path fill="#0c2840" d="M 203.675781 232.832031 C 203.449219 232.832031 203.226562 232.917969 203.042969 233.070312 C 202.8125 233.265625 202.679688 233.546875 202.679688 233.84375 L 202.679688 237.628906 C 202.679688 238.082031 202.980469 238.445312 203.417969 238.519531 L 316.492188 258.011719 C 316.769531 258.0625 317.058594 257.980469 317.28125 257.789062 C 317.515625 257.59375 317.648438 257.3125 317.648438 257.015625 L 317.648438 253.226562 C 317.648438 252.777344 317.34375 252.410156 316.910156 252.335938 L 203.835938 232.847656 C 203.785156 232.839844 203.730469 232.832031 203.675781 232.832031 Z M 316.652344 259.203125 C 316.53125 259.203125 316.410156 259.195312 316.289062 259.171875 L 203.21875 239.679688 C 202.226562 239.511719 201.5 238.648438 201.5 237.628906 L 201.5 233.84375 C 201.5 233.199219 201.785156 232.589844 202.285156 232.167969 C 202.777344 231.753906 203.414062 231.582031 204.035156 231.6875 L 317.109375 251.175781 C 318.101562 251.347656 318.824219 252.210938 318.824219 253.226562 L 318.824219 257.015625 C 318.824219 257.660156 318.539062 258.269531 318.042969 258.691406 C 317.644531 259.023438 317.152344 259.203125 316.652344 259.203125 " fill-opacity="1" fill-rule="nonzero"/><path fill="#0c2840" d="M 201.894531 217.410156 L 201.894531 224.351562 L 244.082031 231.546875 L 244.082031 224.601562 L 201.894531 217.410156 " fill-opacity="1" fill-rule="nonzero"/><path fill="#0c2840" d="M 204.15625 224.324219 L 316.925781 243.765625 C 317.214844 243.511719 317.648438 243.015625 317.648438 242.472656 L 317.648438 238.683594 C 317.648438 238.234375 317.34375 237.867188 316.910156 237.789062 L 203.835938 218.304688 C 203.558594 218.253906 203.269531 218.335938 203.042969 218.523438 C 202.8125 218.71875 202.679688 219.003906 202.679688 219.300781 L 202.679688 223.085938 C 202.679688 223.289062 202.679688 223.828125 204.15625 224.324219 Z M 317.082031 244.980469 C 317.050781 244.980469 317.015625 244.976562 316.980469 244.96875 L 203.90625 225.476562 C 203.878906 225.472656 203.851562 225.464844 203.824219 225.457031 C 203.25 225.265625 201.5 224.6875 201.5 223.085938 L 201.5 219.300781 C 201.5 218.65625 201.785156 218.042969 202.285156 217.625 C 202.777344 217.210938 203.414062 217.035156 204.035156 217.140625 L 317.109375 236.632812 C 318.101562 236.800781 318.824219 237.667969 318.824219 238.683594 L 318.824219 242.472656 C 318.824219 243.902344 317.46875 244.839844 317.410156 244.875 C 317.316406 244.945312 317.199219 244.980469 317.082031 244.980469 " fill-opacity="1" fill-rule="nonzero"/><path fill="#0c2840" d="M 310.136719 149.539062 L 310.136719 222.503906 C 310.136719 222.730469 310.292969 222.917969 310.515625 222.957031 L 317.207031 224.09375 C 317.5 224.144531 317.773438 223.910156 317.773438 223.605469 L 317.570312 150.46875 C 317.570312 150.242188 317.410156 150.050781 317.183594 150.015625 L 310.691406 149.054688 C 310.402344 149.011719 310.136719 149.246094 310.136719 149.539062 " fill-opacity="1" fill-rule="nonzero"/><path fill="#caddff" d="M 294.886719 159.886719 L 294.886719 219.878906 C 294.886719 220.101562 295.046875 220.292969 295.265625 220.328125 L 301.960938 221.46875 C 302.253906 221.519531 302.527344 221.28125 302.523438 220.980469 L 302.324219 160.816406 C 302.324219 160.585938 302.160156 160.394531 301.9375 160.363281 L 295.445312 159.402344 C 295.152344 159.359375 294.886719 159.589844 294.886719 159.886719 " fill-opacity="1" fill-rule="nonzero"/><path fill="#caddff" d="M 279.636719 168.273438 L 279.636719 217.253906 C 279.636719 217.480469 279.792969 217.667969 280.011719 217.707031 L 286.707031 218.84375 C 287 218.894531 287.273438 218.65625 287.273438 218.359375 L 287.074219 169.199219 C 287.074219 168.96875 286.910156 168.78125 286.683594 168.746094 L 280.191406 167.785156 C 279.902344 167.742188 279.636719 167.976562 279.636719 168.273438 " fill-opacity="1" fill-rule="nonzero"/><path fill="#caddff" d="M 264.382812 175.476562 L 264.382812 214.628906 C 264.382812 214.855469 264.539062 215.042969 264.761719 215.082031 L 271.453125 216.21875 C 271.746094 216.269531 272.019531 216.035156 272.019531 215.730469 L 271.820312 176.402344 C 271.820312 176.171875 271.65625 175.984375 271.433594 175.949219 L 264.941406 174.988281 C 264.648438 174.945312 264.382812 175.179688 264.382812 175.476562 " fill-opacity="1" fill-rule="nonzero"/><path fill="#0c2840" d="M 249.132812 181.5 L 249.132812 212.007812 C 249.132812 212.230469 249.289062 212.417969 249.507812 212.457031 L 256.203125 213.59375 C 256.492188 213.644531 256.769531 213.410156 256.765625 213.109375 L 256.570312 182.425781 C 256.566406 182.199219 256.40625 182.007812 256.183594 181.976562 L 249.6875 181.011719 C 249.398438 180.972656 249.132812 181.203125 249.132812 181.5 " fill-opacity="1" fill-rule="nonzero"/><path fill="#0c2840" d="M 233.878906 189.488281 L 233.878906 209.382812 C 233.878906 209.605469 234.039062 209.796875 234.257812 209.832031 L 240.945312 210.96875 C 241.242188 211.019531 241.515625 210.78125 241.511719 210.480469 L 241.320312 190.414062 C 241.316406 190.1875 241.15625 189.996094 240.929688 189.964844 L 234.4375 189.003906 C 234.144531 188.960938 233.878906 189.195312 233.878906 189.488281 " fill-opacity="1" fill-rule="nonzero"/><path fill="#0c2840" d="M 234.652344 182.417969 C 234.398438 182.417969 234.164062 182.253906 234.089844 182 C 233.996094 181.683594 234.175781 181.359375 234.488281 181.265625 C 272.367188 169.992188 301.808594 145.558594 315.511719 128.0625 C 315.710938 127.808594 316.078125 127.761719 316.335938 127.960938 C 316.59375 128.160156 316.636719 128.53125 316.4375 128.789062 C 313.210938 132.90625 304.007812 143.753906 288.253906 155.464844 C 271.839844 167.664062 253.867188 176.726562 234.824219 182.394531 C 234.765625 182.410156 234.710938 182.417969 234.652344 182.417969 " fill-opacity="1" fill-rule="nonzero"/><path fill="#0c2840" d="M 316.457031 133.566406 C 316.453125 133.566406 316.449219 133.566406 316.449219 133.566406 C 316.125 133.5625 315.863281 133.296875 315.867188 132.96875 L 315.917969 128.027344 L 311.140625 128.03125 C 310.816406 128.03125 310.550781 127.769531 310.550781 127.441406 C 310.550781 127.117188 310.816406 126.855469 311.140625 126.855469 L 316.515625 126.847656 C 316.675781 126.847656 316.824219 126.910156 316.933594 127.023438 C 317.042969 127.136719 317.105469 127.285156 317.105469 127.441406 L 317.042969 132.984375 C 317.039062 133.304688 316.777344 133.566406 316.457031 133.566406 " fill-opacity="1" fill-rule="nonzero"/><path fill="#caddff" d="M 260.945312 144.558594 C 256.304688 144.667969 252.546875 141.050781 252.546875 136.476562 C 252.546875 131.902344 256.304688 128.105469 260.945312 127.992188 C 265.582031 127.882812 269.34375 131.503906 269.34375 136.074219 C 269.34375 140.648438 265.582031 144.449219 260.945312 144.558594 Z M 260.945312 115.785156 C 249.464844 116.058594 240.160156 125.453125 240.160156 136.769531 C 240.160156 148.089844 249.464844 157.042969 260.945312 156.765625 C 272.425781 156.496094 281.730469 147.097656 281.730469 135.78125 C 281.730469 124.460938 272.425781 115.511719 260.945312 115.785156 " fill-opacity="1" fill-rule="nonzero"/><path fill="#0c2840" d="M 264.851562 116.058594 L 263.214844 128.253906 C 265.757812 128.898438 267.804688 130.695312 268.761719 133.066406 L 280.023438 127.679688 C 277.328125 121.613281 271.683594 117.175781 264.851562 116.058594 " fill-opacity="1" fill-rule="nonzero"/><path fill="#19598f" d="M 268.761719 133.066406 C 269.132812 133.996094 269.34375 135.007812 269.34375 136.074219 C 269.34375 136.679688 269.273438 137.269531 269.152344 137.839844 L 281.5625 138.355469 C 281.667969 137.511719 281.730469 136.652344 281.730469 135.78125 C 281.730469 132.789062 281.074219 129.96875 279.910156 127.4375 L 268.761719 133.066406 " fill-opacity="1" fill-rule="nonzero"/><path fill="#caddff" d="M 192.847656 266.972656 L 142.503906 257.667969 C 140.898438 257.371094 139.597656 255.742188 139.597656 254.03125 L 139.597656 203.558594 C 139.597656 201.84375 140.898438 200.699219 142.503906 200.996094 L 192.847656 210.300781 C 194.449219 210.597656 195.75 212.226562 195.75 213.9375 L 195.75 264.410156 C 195.75 266.121094 194.449219 267.269531 192.847656 266.972656 " fill-opacity="1" fill-rule="nonzero"/><path fill="#ffffff" d="M 152.980469 255.308594 L 147.945312 254.375 L 147.945312 217.9375 L 152.980469 218.867188 L 152.980469 255.308594 " fill-opacity="1" fill-rule="nonzero"/><path fill="#19598f" d="M 152.980469 255.308594 L 147.945312 254.375 L 147.945312 230.867188 L 152.980469 231.796875 L 152.980469 255.308594 " fill-opacity="1" fill-rule="nonzero"/><path fill="#ffffff" d="M 162.414062 257.050781 L 157.382812 256.121094 L 157.382812 225.054688 L 162.414062 225.984375 L 162.414062 257.050781 " fill-opacity="1" fill-rule="nonzero"/><path fill="#19598f" d="M 162.414062 257.050781 L 157.382812 256.121094 L 157.382812 238.320312 L 162.414062 239.253906 L 162.414062 257.050781 " fill-opacity="1" fill-rule="nonzero"/><path fill="#ffffff" d="M 171.21875 258.847656 L 166.1875 257.917969 L 166.1875 229.707031 L 171.21875 230.636719 L 171.21875 258.847656 " fill-opacity="1" fill-rule="nonzero"/><path fill="#19598f" d="M 171.21875 258.847656 L 166.1875 257.917969 L 166.1875 244.816406 L 171.21875 245.75 L 171.21875 258.847656 " fill-opacity="1" fill-rule="nonzero"/><path fill="#ffffff" d="M 180.261719 260.855469 L 175.230469 259.925781 L 175.230469 223.484375 L 180.261719 224.414062 L 180.261719 260.855469 " fill-opacity="1" fill-rule="nonzero"/><path fill="#19598f" d="M 180.261719 260.855469 L 175.230469 259.925781 L 175.230469 229.53125 L 180.261719 230.460938 L 180.261719 260.855469 " fill-opacity="1" fill-rule="nonzero"/><path fill="#ffffff" d="M 189.382812 262.375 L 184.351562 261.445312 L 184.351562 227.523438 L 189.382812 228.453125 L 189.382812 262.375 " fill-opacity="1" fill-rule="nonzero"/><path fill="#19598f" d="M 189.382812 262.375 L 184.351562 261.445312 L 184.351562 239.109375 L 189.382812 240.039062 L 189.382812 262.375 " fill-opacity="1" fill-rule="nonzero"/><path fill="#19598f" d="M 192.527344 263.5 C 192.492188 263.5 192.457031 263.496094 192.417969 263.492188 L 143.65625 254.476562 C 142.644531 254.289062 141.855469 253.308594 141.859375 252.242188 L 142.050781 209.1875 C 142.050781 208.859375 142.316406 208.601562 142.640625 208.601562 C 142.96875 208.601562 143.230469 208.867188 143.226562 209.191406 L 143.039062 252.25 C 143.035156 252.738281 143.425781 253.238281 143.871094 253.320312 L 192.632812 262.332031 C 192.953125 262.394531 193.164062 262.699219 193.105469 263.019531 C 193.054688 263.300781 192.804688 263.5 192.527344 263.5 " fill-opacity="1" fill-rule="nonzero"/><path fill="#0c2840" d="M 162.910156 211.300781 L 147.789062 208.503906 L 147.789062 205.648438 L 162.910156 208.445312 L 162.910156 211.300781 " fill-opacity="1" fill-rule="nonzero"/><path fill="#0c2840" d="M 162.964844 215.675781 L 147.84375 212.878906 L 147.84375 210.027344 L 162.964844 212.820312 L 162.964844 215.675781 " fill-opacity="1" fill-rule="nonzero"/><path fill="#0c2840" d="M 130.578125 214.472656 L 52.980469 200.085938 L 52.980469 192.003906 L 130.578125 206.390625 L 130.578125 214.472656 " fill-opacity="1" fill-rule="nonzero"/><path fill="#0c2840" d="M 130.941406 227.445312 L 53.34375 213.0625 L 53.34375 204.976562 L 130.941406 219.363281 L 130.941406 227.445312 " fill-opacity="1" fill-rule="nonzero"/><path fill="#0c2840" d="M 131.0625 240.894531 L 53.464844 226.511719 L 53.464844 218.425781 L 131.0625 232.8125 L 131.0625 240.894531 " fill-opacity="1" fill-rule="nonzero"/><path fill="#0c2840" d="M 131.0625 253.410156 L 53.460938 239.023438 L 53.460938 230.941406 L 131.0625 245.328125 L 131.0625 253.410156 " fill-opacity="1" fill-rule="nonzero"/><path fill="#000000" d="M 131.617188 300.914062 C 131.363281 300.914062 131.132812 300.75 131.054688 300.496094 L 130.15625 297.589844 C 130.058594 297.277344 130.234375 296.949219 130.542969 296.851562 C 130.855469 296.757812 131.183594 296.929688 131.28125 297.242188 L 132.179688 300.152344 C 132.273438 300.460938 132.101562 300.792969 131.789062 300.886719 C 131.734375 300.90625 131.671875 300.914062 131.617188 300.914062 " fill-opacity="1" fill-rule="nonzero"/><path fill="#000000" d="M 133.710938 307.6875 C 133.457031 307.6875 133.226562 307.527344 133.148438 307.273438 L 132.25 304.363281 C 132.152344 304.054688 132.328125 303.726562 132.636719 303.628906 C 132.949219 303.535156 133.277344 303.707031 133.375 304.015625 L 134.273438 306.925781 C 134.371094 307.238281 134.195312 307.566406 133.886719 307.664062 C 133.828125 307.683594 133.769531 307.6875 133.710938 307.6875 " fill-opacity="1" fill-rule="nonzero"/><path fill="#000000" d="M 127.371094 304.34375 C 127.121094 304.34375 126.886719 304.183594 126.808594 303.929688 C 126.714844 303.617188 126.886719 303.289062 127.199219 303.191406 L 130.105469 302.292969 C 130.417969 302.199219 130.746094 302.371094 130.84375 302.683594 C 130.9375 302.992188 130.765625 303.324219 130.453125 303.417969 L 127.546875 304.316406 C 127.488281 304.335938 127.429688 304.34375 127.371094 304.34375 " fill-opacity="1" fill-rule="nonzero"/><path fill="#000000" d="M 134.148438 302.25 C 133.894531 302.25 133.664062 302.085938 133.585938 301.835938 C 133.488281 301.523438 133.664062 301.195312 133.972656 301.097656 L 136.882812 300.199219 C 137.195312 300.105469 137.523438 300.277344 137.617188 300.585938 C 137.714844 300.898438 137.542969 301.226562 137.230469 301.324219 L 134.320312 302.222656 C 134.261719 302.242188 134.207031 302.25 134.148438 302.25 " fill-opacity="1" fill-rule="nonzero"/><path fill="#000000" d="M 287.558594 78.832031 C 287.308594 78.832031 287.074219 78.671875 286.996094 78.417969 L 286.246094 75.980469 C 286.148438 75.671875 286.324219 75.339844 286.632812 75.246094 C 286.941406 75.148438 287.273438 75.324219 287.371094 75.632812 L 288.125 78.070312 C 288.21875 78.378906 288.046875 78.710938 287.734375 78.804688 C 287.675781 78.824219 287.617188 78.832031 287.558594 78.832031 " fill-opacity="1" fill-rule="nonzero"/><path fill="#000000" d="M 289.316406 84.507812 C 289.0625 84.507812 288.832031 84.347656 288.753906 84.09375 L 288 81.65625 C 287.902344 81.34375 288.078125 81.015625 288.390625 80.921875 C 288.699219 80.824219 289.027344 80.996094 289.125 81.308594 L 289.878906 83.746094 C 289.972656 84.054688 289.800781 84.382812 289.488281 84.480469 C 289.429688 84.5 289.375 84.507812 289.316406 84.507812 " fill-opacity="1" fill-rule="nonzero"/><path fill="#000000" d="M 284.003906 81.703125 C 283.753906 81.703125 283.523438 81.542969 283.441406 81.289062 C 283.347656 80.976562 283.523438 80.648438 283.832031 80.554688 L 286.269531 79.800781 C 286.578125 79.707031 286.90625 79.878906 287.003906 80.1875 C 287.097656 80.5 286.925781 80.832031 286.617188 80.925781 L 284.179688 81.679688 C 284.121094 81.695312 284.0625 81.703125 284.003906 81.703125 " fill-opacity="1" fill-rule="nonzero"/><path fill="#000000" d="M 289.679688 79.949219 C 289.429688 79.949219 289.195312 79.789062 289.117188 79.535156 C 289.023438 79.226562 289.195312 78.894531 289.507812 78.800781 L 291.945312 78.046875 C 292.257812 77.953125 292.585938 78.125 292.679688 78.4375 C 292.777344 78.746094 292.601562 79.078125 292.289062 79.171875 L 289.855469 79.925781 C 289.796875 79.945312 289.738281 79.949219 289.679688 79.949219 " fill-opacity="1" fill-rule="nonzero"/><path fill="#000000" d="M 114.015625 295.675781 L 114.019531 295.675781 Z M 115.097656 296.03125 C 114.8125 296.03125 114.527344 296.089844 114.257812 296.210938 C 113.195312 296.691406 112.714844 297.964844 113.183594 299.050781 C 113.410156 299.582031 113.828125 299.988281 114.355469 300.191406 C 114.871094 300.390625 115.433594 300.378906 115.9375 300.152344 C 117 299.675781 117.484375 298.398438 117.015625 297.3125 C 116.785156 296.78125 116.367188 296.378906 115.839844 296.171875 C 115.601562 296.078125 115.347656 296.03125 115.097656 296.03125 Z M 115.097656 301.511719 C 114.703125 301.511719 114.308594 301.4375 113.929688 301.289062 C 113.105469 300.96875 112.457031 300.339844 112.101562 299.519531 C 111.378906 297.84375 112.128906 295.878906 113.777344 295.136719 C 114.570312 294.78125 115.453125 294.757812 116.265625 295.074219 C 117.089844 295.394531 117.742188 296.023438 118.09375 296.847656 C 118.820312 298.519531 118.066406 300.484375 116.421875 301.222656 C 115.996094 301.417969 115.550781 301.511719 115.097656 301.511719 " fill-opacity="1" fill-rule="nonzero"/><path fill="#000000" d="M 280.546875 70.378906 C 280.324219 70.378906 280.097656 70.425781 279.882812 70.519531 C 279.042969 70.898438 278.660156 71.910156 279.03125 72.773438 C 279.210938 73.195312 279.542969 73.515625 279.960938 73.679688 C 280.367188 73.835938 280.816406 73.824219 281.210938 73.644531 C 282.054688 73.265625 282.4375 72.257812 282.066406 71.390625 C 281.882812 70.972656 281.554688 70.652344 281.136719 70.488281 C 280.945312 70.414062 280.746094 70.378906 280.546875 70.378906 Z M 280.550781 74.964844 C 280.207031 74.964844 279.863281 74.902344 279.535156 74.773438 C 278.820312 74.496094 278.257812 73.953125 277.949219 73.242188 C 277.324219 71.789062 277.976562 70.085938 279.402344 69.445312 C 280.089844 69.136719 280.859375 69.117188 281.558594 69.390625 C 282.277344 69.667969 282.839844 70.214844 283.148438 70.925781 C 283.773438 72.378906 283.121094 74.078125 281.695312 74.71875 C 281.328125 74.882812 280.941406 74.964844 280.550781 74.964844 " fill-opacity="1" fill-rule="nonzero"/><path fill="#000000" d="M 193.304688 340.242188 C 193.285156 340.242188 193.265625 340.242188 193.242188 340.242188 C 143.679688 335.15625 121.34375 319.921875 121.121094 319.769531 C 120.855469 319.582031 120.789062 319.214844 120.976562 318.949219 C 121.164062 318.683594 121.53125 318.617188 121.796875 318.804688 C 122.015625 318.953125 144.140625 334.019531 193.363281 339.070312 C 193.6875 339.101562 193.921875 339.390625 193.890625 339.714844 C 193.859375 340.019531 193.601562 340.242188 193.304688 340.242188 " fill-opacity="1" fill-rule="nonzero"/><path fill="#000000" d="M 160.710938 339.613281 C 160.679688 339.613281 160.644531 339.609375 160.613281 339.605469 C 143.269531 336.777344 124.675781 328.285156 124.488281 328.199219 C 124.191406 328.066406 124.0625 327.714844 124.199219 327.417969 C 124.335938 327.125 124.6875 326.996094 124.980469 327.128906 C 125.164062 327.214844 143.617188 335.640625 160.804688 338.445312 C 161.125 338.496094 161.34375 338.796875 161.289062 339.117188 C 161.242188 339.40625 160.992188 339.613281 160.710938 339.613281 " fill-opacity="1" fill-rule="nonzero"/><path fill="#000000" d="M 86.636719 52.992188 C 86.457031 52.992188 86.277344 52.910156 86.164062 52.75 C 85.96875 52.492188 86.027344 52.121094 86.289062 51.929688 C 86.492188 51.78125 106.65625 37.136719 126.28125 31.136719 C 126.59375 31.039062 126.921875 31.214844 127.015625 31.527344 C 127.109375 31.839844 126.9375 32.167969 126.625 32.261719 C 107.195312 38.203125 87.183594 52.734375 86.984375 52.878906 C 86.878906 52.957031 86.757812 52.992188 86.636719 52.992188 " fill-opacity="1" fill-rule="nonzero"/><path fill="#000000" d="M 88.058594 44.992188 C 87.871094 44.992188 87.6875 44.902344 87.574219 44.738281 C 87.386719 44.472656 87.453125 44.105469 87.71875 43.917969 C 87.847656 43.828125 100.765625 34.835938 111.910156 30.742188 C 112.214844 30.628906 112.554688 30.785156 112.664062 31.089844 C 112.777344 31.394531 112.621094 31.734375 112.316406 31.847656 C 101.316406 35.890625 88.523438 44.792969 88.394531 44.882812 C 88.289062 44.957031 88.171875 44.992188 88.058594 44.992188 " fill-opacity="1" fill-rule="nonzero"/><path fill="#ffffff" d="M 70.601562 317.800781 L 70.261719 330.367188 L 65.824219 330.851562 L 63.625 317.324219 L 70.601562 317.800781 " fill-opacity="1" fill-rule="nonzero"/><path fill="#000000" d="M 64.328125 317.960938 L 66.316406 330.203125 L 69.6875 329.839844 L 69.996094 318.347656 Z M 65.820312 331.4375 C 65.539062 331.4375 65.289062 331.230469 65.242188 330.945312 L 63.046875 317.417969 C 63.015625 317.238281 63.070312 317.058594 63.191406 316.925781 C 63.3125 316.792969 63.488281 316.71875 63.667969 316.734375 L 70.640625 317.210938 C 70.957031 317.234375 71.195312 317.5 71.1875 317.816406 L 70.851562 330.382812 C 70.84375 330.679688 70.617188 330.925781 70.324219 330.953125 L 65.886719 331.433594 C 65.863281 331.4375 65.84375 331.4375 65.820312 331.4375 " fill-opacity="1" fill-rule="nonzero"/><path fill="#ffffff" d="M 95.789062 321.925781 L 96.5 331.9375 L 90.632812 332.417969 L 88.539062 321.925781 L 95.789062 321.925781 " fill-opacity="1" fill-rule="nonzero"/><path fill="#000000" d="M 89.257812 322.515625 L 91.105469 331.789062 L 95.871094 331.398438 L 95.242188 322.515625 Z M 90.632812 333.007812 C 90.351562 333.007812 90.109375 332.808594 90.054688 332.53125 L 87.960938 322.042969 C 87.925781 321.871094 87.972656 321.691406 88.082031 321.554688 C 88.195312 321.417969 88.363281 321.339844 88.539062 321.339844 L 95.789062 321.339844 C 96.101562 321.339844 96.355469 321.578125 96.378906 321.886719 L 97.085938 331.898438 C 97.109375 332.21875 96.867188 332.5 96.546875 332.527344 L 90.679688 333.003906 C 90.664062 333.007812 90.648438 333.007812 90.632812 333.007812 " fill-opacity="1" fill-rule="nonzero"/><path fill="#ffffff" d="M 89.066406 336.730469 C 88.65625 336.460938 88.410156 336.003906 88.398438 335.515625 C 88.359375 334.046875 88.355469 330.917969 88.945312 329.742188 C 89.734375 328.179688 92.976562 330.355469 92.976562 330.355469 C 92.976562 330.355469 94.875 327.726562 95.988281 327.171875 C 96.5625 326.886719 99.925781 329.125 103.320312 332.183594 C 107.039062 335.527344 108.71875 336.597656 109.519531 339.484375 C 109.898438 340.835938 108.902344 342.199219 107.5 342.300781 C 104.085938 342.542969 97.191406 342.136719 89.066406 336.730469 " fill-opacity="1" fill-rule="nonzero"/><path fill="#000000" d="M 89.980469 329.765625 C 89.890625 329.765625 89.808594 329.773438 89.738281 329.792969 C 89.609375 329.828125 89.53125 329.890625 89.472656 330.007812 C 89.097656 330.75 88.914062 332.804688 88.988281 335.5 C 88.992188 335.800781 89.144531 336.078125 89.390625 336.242188 C 97.378906 341.554688 104.140625 341.949219 107.457031 341.714844 C 107.960938 341.675781 108.417969 341.417969 108.710938 341.003906 C 108.992188 340.601562 109.082031 340.105469 108.953125 339.640625 C 108.324219 337.378906 107.140625 336.335938 104.546875 334.054688 C 104.054688 333.621094 103.515625 333.148438 102.925781 332.617188 C 99.535156 329.5625 96.804688 327.871094 96.167969 327.742188 C 95.433594 328.175781 94.128906 329.765625 93.453125 330.699219 C 93.269531 330.957031 92.914062 331.023438 92.648438 330.84375 C 91.925781 330.363281 90.703125 329.765625 89.980469 329.765625 Z M 106 342.941406 C 102.203125 342.941406 95.933594 342.007812 88.738281 337.21875 C 88.175781 336.847656 87.824219 336.214844 87.808594 335.53125 C 87.753906 333.429688 87.816406 330.675781 88.421875 329.476562 C 88.632812 329.058594 88.984375 328.773438 89.441406 328.652344 C 90.53125 328.371094 92.050781 329.121094 92.828125 329.570312 C 93.449219 328.757812 94.773438 327.117188 95.722656 326.644531 C 97.207031 325.90625 103.449219 331.503906 103.714844 331.742188 C 104.300781 332.269531 104.835938 332.742188 105.324219 333.171875 C 107.929688 335.460938 109.367188 336.726562 110.089844 339.324219 C 110.3125 340.132812 110.160156 340.988281 109.671875 341.683594 C 109.175781 342.386719 108.398438 342.828125 107.542969 342.886719 C 107.085938 342.917969 106.570312 342.941406 106 342.941406 " fill-opacity="1" fill-rule="nonzero"/><path fill="#000000" d="M 104.300781 340.261719 C 100.710938 340.261719 94.949219 339.386719 89.265625 334.851562 C 89.011719 334.648438 88.96875 334.28125 89.171875 334.023438 C 89.375 333.769531 89.746094 333.730469 90 333.933594 C 98.574219 340.773438 107.566406 338.796875 107.65625 338.773438 C 107.972656 338.699219 108.289062 338.898438 108.363281 339.214844 C 108.4375 339.53125 108.242188 339.847656 107.925781 339.921875 C 107.78125 339.957031 106.417969 340.261719 104.300781 340.261719 " fill-opacity="1" fill-rule="nonzero"/><path fill="#ffffff" d="M 72.355469 333.425781 L 72.289062 326.542969 C 72.289062 326.542969 70.910156 324.457031 69.015625 326.152344 C 69.015625 326.152344 67.265625 323.699219 64.019531 326.757812 C 64.019531 326.757812 59.453125 335.273438 57.429688 340.339844 C 56.890625 341.695312 57.855469 343.179688 59.316406 343.214844 C 61.414062 343.265625 64.125 343.152344 65.304688 342.351562 C 67.152344 341.105469 70.3125 337.171875 71.6875 335.398438 C 72.128906 334.832031 72.359375 334.140625 72.355469 333.425781 " fill-opacity="1" fill-rule="nonzero"/><path fill="#000000" d="M 64.492188 327.121094 C 64.011719 328.027344 59.855469 335.851562 57.976562 340.558594 C 57.789062 341.027344 57.839844 341.535156 58.121094 341.957031 C 58.394531 342.371094 58.835938 342.617188 59.328125 342.625 C 62.144531 342.695312 64.152344 342.421875 64.976562 341.863281 C 66.765625 340.652344 69.941406 336.683594 71.222656 335.035156 C 71.578125 334.578125 71.769531 334.011719 71.765625 333.429688 L 71.703125 326.746094 C 71.53125 326.539062 71.140625 326.144531 70.640625 326.085938 C 70.25 326.039062 69.835938 326.207031 69.410156 326.59375 C 69.285156 326.703125 69.117188 326.753906 68.953125 326.738281 C 68.785156 326.71875 68.636719 326.632812 68.539062 326.496094 C 68.523438 326.476562 68.078125 325.890625 67.253906 325.820312 C 66.449219 325.742188 65.496094 326.199219 64.492188 327.121094 Z M 60.148438 343.8125 C 59.875 343.8125 59.59375 343.8125 59.300781 343.804688 C 58.429688 343.785156 57.617188 343.335938 57.136719 342.605469 C 56.652344 341.871094 56.554688 340.941406 56.882812 340.121094 C 58.894531 335.082031 63.457031 326.566406 63.503906 326.480469 C 63.53125 326.425781 63.570312 326.371094 63.617188 326.328125 C 64.925781 325.097656 66.195312 324.535156 67.390625 324.648438 C 68.15625 324.726562 68.71875 325.070312 69.070312 325.367188 C 69.628906 324.996094 70.207031 324.84375 70.796875 324.917969 C 72.011719 325.074219 72.75 326.171875 72.78125 326.21875 C 72.84375 326.3125 72.875 326.425781 72.878906 326.539062 L 72.941406 333.421875 C 72.949219 334.261719 72.671875 335.09375 72.152344 335.757812 C 70.519531 337.863281 67.496094 341.582031 65.636719 342.839844 C 64.679688 343.488281 62.835938 343.8125 60.148438 343.8125 " fill-opacity="1" fill-rule="nonzero"/><path fill="#000000" d="M 69.019531 330.453125 C 68.695312 330.453125 68.429688 330.1875 68.429688 329.863281 L 68.429688 326.152344 C 68.429688 325.828125 68.691406 325.5625 69.015625 325.5625 C 69.34375 325.5625 69.605469 325.828125 69.605469 326.152344 L 69.609375 329.863281 C 69.609375 330.1875 69.34375 330.453125 69.019531 330.453125 " fill-opacity="1" fill-rule="nonzero"/><path fill="#000000" d="M 97.570312 322.496094 C 97.570312 322.496094 99.246094 297.222656 96.5 274.492188 C 93.753906 251.761719 83.535156 219.300781 83.535156 219.300781 C 83.535156 219.300781 72.542969 218.800781 64.542969 219.875 C 56.542969 220.953125 53.375 219.847656 53.375 219.847656 C 53.375 219.847656 47.402344 226.683594 47.890625 239.542969 C 48.375 252.402344 62.3125 306.640625 61.785156 319.371094 C 61.785156 319.371094 66.472656 321.722656 72.542969 320.554688 L 70.027344 247.457031 C 70.027344 247.457031 75.234375 262.503906 77.679688 272.8125 C 79.671875 281.21875 83.128906 286.652344 83.128906 286.652344 C 83.128906 286.652344 82.980469 306.191406 87.464844 322.402344 C 87.464844 322.402344 92.761719 324.0625 97.570312 322.496094 " fill-opacity="1" fill-rule="nonzero"/><path fill="#ffffff" d="M 88.785156 295.628906 C 88.597656 295.628906 88.410156 295.539062 88.296875 295.375 L 84.460938 289.789062 C 84.273438 289.519531 84.34375 289.152344 84.609375 288.96875 C 84.878906 288.785156 85.246094 288.851562 85.429688 289.121094 L 89.269531 294.707031 C 89.453125 294.976562 89.382812 295.339844 89.117188 295.523438 C 89.015625 295.597656 88.898438 295.628906 88.785156 295.628906 " fill-opacity="1" fill-rule="nonzero"/><path fill="#ffffff" d="M 62.972656 282.046875 C 61.597656 282.046875 59.84375 281.777344 58.382812 280.691406 C 58.121094 280.5 58.066406 280.128906 58.261719 279.871094 C 58.453125 279.609375 58.824219 279.554688 59.085938 279.746094 C 61.480469 281.523438 64.984375 280.65625 65.019531 280.648438 C 65.335938 280.566406 65.652344 280.757812 65.734375 281.074219 C 65.816406 281.386719 65.625 281.707031 65.308594 281.789062 C 65.230469 281.808594 64.265625 282.046875 62.972656 282.046875 " fill-opacity="1" fill-rule="nonzero"/><path fill="#ffffff" d="M 96.097656 174.070312 C 96.097656 174.070312 104.636719 175.867188 113 170.039062 C 121.359375 164.207031 126.644531 160.140625 126.644531 160.140625 C 126.644531 160.140625 126.660156 156.933594 128.449219 155.589844 C 130.238281 154.25 131.300781 149.679688 132.703125 149.714844 L 132.203125 154.890625 C 132.203125 154.890625 136.449219 152.828125 138.621094 151.570312 C 140.796875 150.3125 142.285156 151.058594 142.285156 151.058594 C 142.285156 151.058594 134.757812 160.570312 132.335938 161.449219 C 129.910156 162.332031 128.632812 165.984375 127.28125 167.839844 C 125.933594 169.695312 125.933594 169.695312 125.933594 169.695312 C 125.933594 169.695312 115.925781 186.988281 96.097656 185.320312 L 96.097656 174.070312 " fill-opacity="1" fill-rule="nonzero"/><path fill="#000000" d="M 96.6875 184.777344 C 115.566406 186.03125 125.324219 169.570312 125.421875 169.402344 C 125.433594 169.382812 125.445312 169.367188 125.457031 169.351562 L 126.804688 167.492188 C 127.171875 166.992188 127.542969 166.328125 127.9375 165.628906 C 128.996094 163.738281 130.195312 161.601562 132.132812 160.898438 C 133.691406 160.328125 138.21875 155.175781 141.234375 151.425781 C 140.6875 151.402344 139.894531 151.515625 138.917969 152.082031 C 136.75 153.332031 132.632812 155.335938 132.457031 155.421875 C 132.265625 155.515625 132.039062 155.496094 131.863281 155.375 C 131.691406 155.253906 131.59375 155.046875 131.617188 154.832031 L 131.980469 151.070312 C 131.667969 151.570312 131.347656 152.207031 131.125 152.644531 C 130.449219 153.976562 129.753906 155.351562 128.800781 156.0625 C 127.527344 157.019531 127.238281 159.332031 127.230469 160.144531 C 127.230469 160.324219 127.148438 160.496094 127.003906 160.605469 C 126.949219 160.648438 121.609375 164.75 113.335938 170.519531 C 106.160156 175.523438 98.949219 175.066406 96.6875 174.761719 Z M 98.746094 186.023438 C 97.867188 186.023438 96.96875 185.984375 96.050781 185.90625 C 95.746094 185.882812 95.511719 185.625 95.511719 185.320312 L 95.511719 174.070312 C 95.511719 173.894531 95.589844 173.726562 95.726562 173.613281 C 95.867188 173.5 96.046875 173.457031 96.21875 173.496094 C 96.304688 173.511719 104.621094 175.160156 112.660156 169.554688 C 119.972656 164.453125 124.984375 160.664062 126.066406 159.839844 C 126.117188 158.960938 126.414062 156.378906 128.097656 155.121094 C 128.824219 154.574219 129.488281 153.265625 130.074219 152.113281 C 130.894531 150.496094 131.609375 149.113281 132.71875 149.125 C 132.878906 149.128906 133.035156 149.199219 133.144531 149.324219 C 133.253906 149.445312 133.304688 149.605469 133.289062 149.769531 L 132.890625 153.898438 C 134.265625 153.214844 136.820312 151.933594 138.328125 151.0625 C 140.75 149.660156 142.476562 150.496094 142.546875 150.53125 C 142.707031 150.613281 142.820312 150.757812 142.859375 150.929688 C 142.898438 151.105469 142.855469 151.285156 142.746094 151.425781 C 141.964844 152.410156 135.042969 161.089844 132.535156 162.003906 C 131.011719 162.558594 129.921875 164.496094 128.964844 166.203125 C 128.554688 166.933594 128.164062 167.628906 127.757812 168.1875 L 126.425781 170.019531 C 125.957031 170.796875 116.574219 186.023438 98.746094 186.023438 " fill-opacity="1" fill-rule="nonzero"/><path fill="#19598f" d="M 101.890625 172.769531 L 97.464844 190.988281 C 97.464844 190.988281 88.214844 189.539062 87.742188 193.550781 C 87.265625 197.558594 88.480469 210.429688 88.984375 215.054688 C 89.492188 219.683594 90.316406 225.355469 84.464844 226.824219 C 78.617188 228.292969 57.285156 223.824219 51.695312 226.285156 C 46.109375 228.746094 44.125 226.078125 44.585938 221.742188 C 45.050781 217.40625 46.175781 197.570312 46.175781 197.570312 L 42.265625 210.648438 L 31.59375 209.488281 C 31.59375 209.488281 33.953125 180.871094 48.117188 175.402344 C 62.285156 169.933594 68.523438 169.6875 79.105469 170.585938 C 89.6875 171.488281 97.058594 174.027344 101.890625 172.769531 " fill-opacity="1" fill-rule="nonzero"/><path fill="#ffffff" d="M 53.265625 223.871094 L 82.46875 223.871094 L 69.566406 192.109375 L 40.363281 192.109375 L 53.265625 223.871094 " fill-opacity="1" fill-rule="nonzero"/><path fill="#000000" d="M 53.660156 223.28125 L 81.59375 223.28125 L 69.171875 192.695312 L 41.238281 192.695312 Z M 82.46875 224.460938 L 53.265625 224.460938 C 53.023438 224.460938 52.808594 224.3125 52.71875 224.089844 L 39.816406 192.332031 C 39.742188 192.148438 39.765625 191.941406 39.875 191.777344 C 39.984375 191.617188 40.167969 191.519531 40.363281 191.519531 L 69.566406 191.519531 C 69.808594 191.519531 70.023438 191.664062 70.113281 191.886719 L 83.015625 223.648438 C 83.089844 223.828125 83.066406 224.035156 82.957031 224.199219 C 82.847656 224.359375 82.664062 224.460938 82.46875 224.460938 " fill-opacity="1" fill-rule="nonzero"/><path fill="#ffffff" d="M 64.292969 213.867188 C 64.292969 213.867188 69.378906 210.886719 71.691406 210.253906 C 74.003906 209.621094 72.253906 211.574219 70.589844 212.371094 C 68.925781 213.164062 68.871094 214.214844 68.871094 214.214844 C 68.871094 214.214844 77.972656 213.921875 78.996094 213.867188 C 80.015625 213.816406 78.484375 215.234375 75.761719 215.6875 C 75.761719 215.6875 75 217.988281 73.03125 219.089844 C 71.0625 220.1875 64.648438 219.089844 64.648438 219.089844 C 64.648438 219.089844 57.097656 222.242188 44.585938 221.742188 C 36.3125 221.414062 32.25 214.753906 32.785156 210.015625 L 40.75 210.753906 C 40.75 210.753906 44.066406 218.238281 64.292969 213.867188 " fill-opacity="1" fill-rule="nonzero"/><path fill="#000000" d="M 64.292969 213.867188 L 64.296875 213.867188 Z M 33.328125 210.660156 C 33.261719 212.835938 34.167969 215.214844 35.808594 217.128906 C 37.917969 219.582031 41.042969 221.011719 44.609375 221.15625 C 56.828125 221.644531 64.347656 218.578125 64.421875 218.542969 C 64.523438 218.503906 64.640625 218.488281 64.75 218.507812 C 66.476562 218.804688 71.28125 219.390625 72.746094 218.574219 C 74.484375 217.605469 75.195312 215.519531 75.203125 215.5 C 75.273438 215.292969 75.449219 215.140625 75.664062 215.105469 C 76.488281 214.96875 77.175781 214.738281 77.695312 214.507812 C 74.929688 214.605469 69.191406 214.792969 68.890625 214.800781 C 68.730469 214.808594 68.566406 214.742188 68.453125 214.625 C 68.335938 214.507812 68.277344 214.347656 68.285156 214.183594 C 68.292969 214.042969 68.410156 212.757812 70.335938 211.839844 C 70.910156 211.5625 71.4375 211.167969 71.789062 210.835938 C 69.550781 211.480469 64.640625 214.347656 64.589844 214.375 C 64.535156 214.410156 64.476562 214.429688 64.417969 214.445312 C 46.109375 218.402344 41.300781 212.769531 40.386719 211.3125 Z M 47.289062 222.386719 C 46.410156 222.386719 45.5 222.371094 44.5625 222.332031 C 40.664062 222.175781 37.238281 220.601562 34.917969 217.894531 C 32.917969 215.566406 31.902344 212.597656 32.199219 209.953125 C 32.234375 209.632812 32.519531 209.394531 32.839844 209.429688 L 40.804688 210.167969 C 41.019531 210.1875 41.203125 210.320312 41.289062 210.515625 C 41.320312 210.578125 44.773438 217.460938 64.078125 213.3125 C 64.765625 212.910156 69.3125 210.292969 71.535156 209.683594 C 71.910156 209.582031 73.042969 209.273438 73.34375 210.082031 C 73.734375 211.132812 71.648438 212.515625 70.84375 212.902344 C 70.363281 213.132812 70.046875 213.375 69.84375 213.59375 C 72.226562 213.515625 78.160156 213.320312 78.964844 213.28125 C 79.601562 213.253906 79.863281 213.609375 79.898438 213.933594 C 79.996094 214.855469 78.117188 215.816406 76.191406 216.207031 C 75.886719 216.933594 75.015625 218.65625 73.320312 219.601562 C 71.347656 220.703125 65.894531 219.890625 64.714844 219.695312 C 63.621094 220.121094 57.351562 222.386719 47.289062 222.386719 " fill-opacity="1" fill-rule="nonzero"/><path fill="#000000" d="M 42.015625 156.554688 C 39.828125 150.9375 42.601562 144.613281 48.214844 142.421875 C 53.832031 140.230469 60.15625 143.007812 62.347656 148.621094 C 64.539062 154.234375 61.761719 160.5625 56.148438 162.753906 C 50.535156 164.945312 44.207031 162.167969 42.015625 156.554688 " fill-opacity="1" fill-rule="nonzero"/><path fill="#000000" d="M 56.226562 139.433594 C 56.140625 138.71875 55.707031 138.132812 55.117188 137.816406 C 54.617188 137.550781 54.179688 137.183594 53.914062 136.683594 C 53.851562 136.566406 53.789062 136.453125 53.726562 136.339844 C 53.464844 135.882812 53.398438 135.347656 53.453125 134.820312 C 53.503906 134.308594 53.367188 133.777344 53.035156 133.332031 C 52.601562 132.757812 51.933594 132.464844 51.265625 132.488281 C 50.699219 132.507812 50.136719 132.40625 49.65625 132.105469 C 49.546875 132.039062 49.433594 131.972656 49.324219 131.90625 C 48.886719 131.652344 48.546875 131.269531 48.359375 130.804688 C 48.152344 130.300781 47.757812 129.875 47.21875 129.644531 C 46.554688 129.363281 45.832031 129.445312 45.265625 129.796875 C 44.785156 130.097656 44.246094 130.289062 43.683594 130.269531 C 43.554688 130.265625 43.425781 130.261719 43.292969 130.261719 C 42.785156 130.257812 42.296875 130.09375 41.890625 129.785156 C 41.464844 129.457031 40.914062 129.289062 40.335938 129.359375 C 39.621094 129.449219 39.035156 129.882812 38.722656 130.472656 C 38.457031 130.96875 38.085938 131.410156 37.585938 131.671875 C 37.472656 131.734375 37.355469 131.796875 37.246094 131.859375 C 36.785156 132.125 36.25 132.1875 35.722656 132.136719 C 35.210938 132.085938 34.679688 132.21875 34.234375 132.554688 C 33.660156 132.988281 33.371094 133.65625 33.390625 134.324219 C 33.410156 134.886719 33.308594 135.453125 33.007812 135.933594 C 32.941406 136.042969 32.875 136.152344 32.808594 136.265625 C 32.554688 136.699219 32.171875 137.042969 31.707031 137.230469 C 31.203125 137.433594 30.777344 137.828125 30.546875 138.367188 C 30.265625 139.03125 30.347656 139.753906 30.703125 140.324219 C 31 140.804688 31.191406 141.34375 31.171875 141.90625 C 31.167969 142.035156 31.164062 142.164062 31.164062 142.292969 C 31.160156 142.800781 31 143.292969 30.6875 143.695312 C 30.359375 144.121094 30.191406 144.671875 30.261719 145.25 C 30.351562 145.964844 30.785156 146.554688 31.375 146.867188 C 31.875 147.132812 32.3125 147.503906 32.578125 148 C 32.636719 148.117188 32.699219 148.230469 32.765625 148.34375 C 33.027344 148.804688 33.089844 149.339844 33.039062 149.863281 C 32.988281 150.378906 33.121094 150.910156 33.457031 151.351562 C 33.890625 151.929688 34.558594 152.21875 35.230469 152.195312 C 35.792969 152.175781 36.355469 152.277344 36.832031 152.578125 C 36.941406 152.648438 37.054688 152.714844 37.167969 152.78125 C 37.601562 153.03125 37.945312 153.414062 38.132812 153.882812 C 38.335938 154.386719 38.730469 154.8125 39.273438 155.039062 C 39.902344 155.308594 40.589844 155.246094 41.144531 154.933594 C 41.769531 154.582031 42.476562 154.421875 43.195312 154.425781 C 43.503906 154.425781 43.8125 154.414062 44.125 154.390625 C 44.554688 155.039062 45.328125 155.425781 46.152344 155.324219 C 47.152344 155.203125 47.90625 154.402344 48.007812 153.441406 C 48.726562 153.132812 49.402344 152.761719 50.027344 152.335938 C 50.726562 152.683594 51.589844 152.632812 52.253906 152.132812 C 53.058594 151.523438 53.308594 150.460938 52.917969 149.574219 C 53.378906 148.957031 53.78125 148.296875 54.117188 147.605469 C 54.894531 147.558594 55.617188 147.082031 55.941406 146.316406 C 56.222656 145.652344 56.140625 144.929688 55.789062 144.363281 C 55.492188 143.882812 55.296875 143.34375 55.320312 142.777344 C 55.324219 142.652344 55.328125 142.523438 55.328125 142.390625 C 55.328125 141.882812 55.492188 141.390625 55.800781 140.988281 C 56.132812 140.5625 56.300781 140.011719 56.226562 139.433594 " fill-opacity="1" fill-rule="nonzero"/><path fill="#ffffff" d="M 60.117188 163.429688 C 61.050781 165.949219 63.4375 170.519531 68.609375 170.953125 C 69.15625 171 69.394531 171.667969 68.976562 172.027344 C 66.796875 173.902344 61.398438 177.4375 53.039062 175.769531 C 52.433594 175.648438 52.257812 174.878906 52.738281 174.492188 C 54.398438 173.15625 56.507812 169.824219 54.039062 161.933594 C 53.753906 161.75 60.5 163.382812 60.117188 163.429688 " fill-opacity="1" fill-rule="nonzero"/><path fill="#000000" d="M 54.871094 162.671875 C 57.027344 170.351562 54.722656 173.648438 53.105469 174.953125 C 53.046875 175 53.046875 175.058594 53.054688 175.097656 C 53.074219 175.175781 53.136719 175.1875 53.15625 175.191406 C 61.09375 176.777344 66.234375 173.609375 68.589844 171.582031 L 68.609375 170.953125 L 68.558594 171.539062 C 63.257812 171.09375 60.726562 166.644531 59.652344 163.863281 C 58.859375 163.621094 56.257812 162.976562 54.871094 162.671875 Z M 57.273438 176.789062 C 55.921875 176.789062 54.472656 176.65625 52.925781 176.34375 C 52.421875 176.246094 52.035156 175.875 51.910156 175.378906 C 51.789062 174.875 51.960938 174.359375 52.367188 174.035156 C 53.808594 172.871094 55.867188 169.789062 53.488281 162.152344 C 53.429688 162.007812 53.425781 161.84375 53.488281 161.691406 C 53.703125 161.1875 53.792969 161.207031 56.140625 161.757812 C 60.523438 162.78125 60.742188 162.875 60.726562 163.371094 C 61.679688 165.882812 63.949219 169.972656 68.65625 170.363281 C 69.152344 170.40625 69.566406 170.734375 69.71875 171.203125 C 69.867188 171.664062 69.730469 172.152344 69.359375 172.472656 C 67.691406 173.910156 63.558594 176.789062 57.273438 176.789062 " fill-opacity="1" fill-rule="nonzero"/><path fill="#ffffff" d="M 60.128906 150.601562 C 60.679688 151.125 63.511719 156.511719 63.285156 160.421875 C 63.175781 162.351562 61.613281 163.890625 59.683594 164.042969 C 57.910156 164.179688 55.382812 163.820312 53.3125 161.355469 C 53.3125 161.355469 51.011719 161.882812 50.039062 159.480469 C 50.039062 159.480469 49.621094 158.324219 50.585938 157.84375 C 51.316406 157.484375 52.039062 158.105469 52.355469 158.433594 C 52.457031 158.546875 52.617188 158.578125 52.757812 158.523438 C 52.964844 158.441406 53.058594 158.199219 52.953125 158 C 52.273438 156.714844 50.410156 152.355469 55.292969 150.453125 C 55.292969 150.453125 58.5625 149.109375 60.128906 150.601562 " fill-opacity="1" fill-rule="nonzero"/><path fill="#000000" d="M 53.3125 160.769531 C 53.484375 160.769531 53.648438 160.84375 53.761719 160.976562 C 55.679688 163.253906 58.019531 163.582031 59.640625 163.457031 C 61.289062 163.328125 62.605469 162.007812 62.699219 160.390625 C 62.910156 156.675781 60.167969 151.484375 59.71875 151.023438 C 58.664062 150.019531 56.328125 150.664062 55.515625 150.996094 C 54.117188 151.542969 53.222656 152.335938 52.839844 153.363281 C 52.214844 155.046875 53.074219 156.976562 53.472656 157.726562 C 53.601562 157.96875 53.621094 158.25 53.527344 158.507812 C 53.429688 158.765625 53.230469 158.972656 52.972656 159.070312 C 52.609375 159.214844 52.199219 159.125 51.929688 158.839844 C 51.777344 158.683594 51.246094 158.175781 50.847656 158.371094 C 50.359375 158.617188 50.582031 159.253906 50.59375 159.28125 C 51.359375 161.175781 53.105469 160.800781 53.179688 160.78125 C 53.226562 160.773438 53.269531 160.769531 53.3125 160.769531 Z M 59.03125 164.65625 C 57.265625 164.65625 55.007812 164.125 53.082031 161.988281 C 52.03125 162.085938 50.308594 161.714844 49.492188 159.703125 C 49.28125 159.109375 49.191406 157.878906 50.324219 157.316406 C 50.859375 157.050781 51.457031 157.101562 52.039062 157.433594 C 51.582031 156.3125 51.132812 154.582031 51.738281 152.953125 C 52.238281 151.597656 53.363281 150.574219 55.078125 149.902344 C 55.214844 149.847656 58.714844 148.4375 60.535156 150.171875 C 61.253906 150.859375 64.105469 156.410156 63.875 160.457031 C 63.746094 162.660156 61.964844 164.453125 59.730469 164.628906 C 59.507812 164.648438 59.273438 164.65625 59.03125 164.65625 " fill-opacity="1" fill-rule="nonzero"/><path fill="#000000" d="M 278.054688 321.441406 C 278.03125 321.441406 278.007812 321.441406 277.984375 321.4375 C 277.660156 321.398438 277.429688 321.105469 277.46875 320.785156 C 277.953125 316.714844 279.273438 312.246094 280.671875 307.511719 C 281.082031 306.128906 281.503906 304.699219 281.90625 303.269531 C 281.996094 302.960938 282.320312 302.773438 282.632812 302.863281 C 282.945312 302.953125 283.128906 303.277344 283.039062 303.589844 C 282.632812 305.027344 282.210938 306.460938 281.800781 307.84375 C 280.417969 312.527344 279.109375 316.953125 278.640625 320.921875 C 278.605469 321.21875 278.347656 321.441406 278.054688 321.441406 " fill-opacity="1" fill-rule="nonzero"/><path fill="#000000" d="M 276.523438 321.554688 C 276.496094 321.554688 276.472656 321.550781 276.449219 321.546875 C 276.125 321.507812 275.898438 321.210938 275.941406 320.890625 C 276.441406 316.898438 277.082031 310.851562 276.816406 304.457031 C 276.804688 304.132812 277.058594 303.859375 277.382812 303.84375 C 277.703125 303.824219 277.980469 304.082031 277.996094 304.410156 C 278.261719 310.890625 277.617188 317.003906 277.109375 321.039062 C 277.070312 321.335938 276.816406 321.554688 276.523438 321.554688 " fill-opacity="1" fill-rule="nonzero"/><path fill="#000000" d="M 275.226562 321.554688 C 274.949219 321.554688 274.703125 321.355469 274.648438 321.074219 C 274.230469 318.890625 274.0625 315.832031 273.875 312.289062 C 273.761719 310.183594 273.644531 308.007812 273.460938 305.777344 C 273.4375 305.453125 273.675781 305.167969 274.003906 305.144531 C 274.328125 305.125 274.609375 305.359375 274.636719 305.679688 C 274.820312 307.925781 274.9375 310.113281 275.050781 312.230469 C 275.238281 315.726562 275.402344 318.746094 275.804688 320.851562 C 275.867188 321.171875 275.65625 321.480469 275.335938 321.542969 C 275.300781 321.550781 275.261719 321.554688 275.226562 321.554688 " fill-opacity="1" fill-rule="nonzero"/><path fill="#000000" d="M 273.519531 321.929688 C 273.226562 321.929688 272.96875 321.707031 272.933594 321.40625 C 272.65625 318.960938 271.878906 313.929688 269.835938 307.679688 C 269.738281 307.371094 269.90625 307.035156 270.214844 306.933594 C 270.523438 306.835938 270.855469 307.003906 270.957031 307.3125 C 273.03125 313.664062 273.820312 318.785156 274.105469 321.273438 C 274.140625 321.59375 273.910156 321.890625 273.585938 321.925781 C 273.5625 321.925781 273.542969 321.929688 273.519531 321.929688 " fill-opacity="1" fill-rule="nonzero"/><path fill="#19598f" d="M 280.414062 308.085938 C 282.882812 306.640625 285.441406 309.4375 287.246094 308.558594 C 290.21875 307.109375 290.660156 295.957031 284.65625 291.824219 C 282.398438 290.273438 278.605469 289.257812 276.640625 290.882812 C 274.183594 292.914062 275.351562 297.570312 274.050781 297.835938 C 273.054688 298.035156 272.585938 295.285156 270.160156 294.300781 C 267.90625 293.382812 264.582031 294.246094 263.445312 296.183594 C 262.222656 298.261719 263.960938 300.832031 262.621094 301.839844 C 261.96875 302.332031 261.332031 301.640625 260.265625 302.078125 C 258.90625 302.632812 258.222656 304.382812 258.085938 305.613281 C 257.792969 308.199219 259.710938 310.257812 261.089844 311.738281 C 261.972656 312.6875 263.433594 314.226562 265.921875 315.15625 C 268.707031 316.195312 273.074219 316.46875 275.460938 314.210938 C 276.167969 313.546875 276.039062 313.285156 278.410156 310.324219 C 279.476562 308.984375 280.019531 308.3125 280.414062 308.085938 " fill-opacity="1" fill-rule="nonzero"/><path fill="#19598f" d="M 270.941406 271.40625 C 258.128906 259.570312 248.808594 225.589844 266.242188 217.351562 C 273.933594 213.71875 274.625 213.777344 276.042969 204.675781 C 277.546875 195.035156 276.304688 184.179688 288.015625 182.273438 C 295.546875 181.042969 304.609375 183.742188 310.785156 188.304688 C 328.910156 201.710938 333.503906 238.738281 323.554688 258.945312 C 315.5 275.3125 297.8125 288.503906 280.394531 278.730469 C 278.03125 277.402344 274.597656 274.789062 270.941406 271.40625 " fill-opacity="1" fill-rule="nonzero"/><path fill="#000000" d="M 294.046875 319.125 C 293.722656 319.125 293.457031 318.863281 293.457031 318.539062 L 293.457031 242.359375 C 293.457031 242.035156 293.722656 241.769531 294.046875 241.769531 C 294.371094 241.769531 294.632812 242.035156 294.632812 242.359375 L 294.632812 318.539062 C 294.632812 318.863281 294.371094 319.125 294.046875 319.125 " fill-opacity="1" fill-rule="nonzero"/><path fill="#000000" d="M 293.671875 262.808594 C 293.476562 262.808594 293.289062 262.710938 293.175781 262.535156 L 282.863281 246.175781 C 282.691406 245.902344 282.773438 245.539062 283.050781 245.367188 C 283.324219 245.191406 283.6875 245.277344 283.859375 245.550781 L 294.171875 261.90625 C 294.34375 262.183594 294.261719 262.546875 293.988281 262.71875 C 293.886719 262.78125 293.78125 262.808594 293.671875 262.808594 " fill-opacity="1" fill-rule="nonzero"/><path fill="#000000" d="M 303.355469 236.378906 C 303.234375 236.378906 303.109375 236.339844 303.003906 236.257812 C 302.746094 236.058594 302.691406 235.6875 302.890625 235.429688 L 312.589844 222.757812 C 312.789062 222.5 313.15625 222.453125 313.417969 222.648438 C 313.675781 222.847656 313.722656 223.214844 313.527344 223.476562 L 303.828125 236.148438 C 303.710938 236.296875 303.535156 236.378906 303.355469 236.378906 " fill-opacity="1" fill-rule="nonzero"/><path fill="#000000" d="M 305.210938 259.890625 C 305.039062 259.890625 304.863281 259.8125 304.75 259.664062 C 304.550781 259.40625 304.59375 259.035156 304.851562 258.835938 L 312.695312 252.757812 C 312.953125 252.5625 313.324219 252.609375 313.523438 252.863281 C 313.722656 253.121094 313.675781 253.492188 313.417969 253.691406 L 305.574219 259.765625 C 305.46875 259.851562 305.339844 259.890625 305.210938 259.890625 " fill-opacity="1" fill-rule="nonzero"/><path fill="#19598f" d="M 256.167969 294.773438 C 260.1875 290.605469 264.109375 277.546875 257.652344 268.753906 C 252.730469 262.050781 253.265625 260.113281 252.375 254.277344 C 251.484375 248.441406 249.34375 239.011719 243.109375 236.824219 C 236.878906 234.632812 232.8125 246.398438 230.140625 258.070312 C 227.46875 269.742188 220.464844 274.761719 225.886719 287.355469 C 229.675781 296.15625 243.5 307.90625 256.167969 294.773438 " fill-opacity="1" fill-rule="nonzero"/><path fill="#000000" d="M 241.238281 322.566406 C 240.914062 322.566406 240.652344 322.308594 240.648438 321.984375 L 239.777344 258.425781 C 239.773438 258.101562 240.03125 257.835938 240.355469 257.828125 C 240.359375 257.828125 240.363281 257.828125 240.367188 257.828125 C 240.6875 257.828125 240.949219 258.089844 240.953125 258.410156 L 241.824219 321.96875 C 241.828125 322.292969 241.570312 322.5625 241.242188 322.566406 C 241.242188 322.566406 241.238281 322.566406 241.238281 322.566406 " fill-opacity="1" fill-rule="nonzero"/></svg>