<svg xmlns="http://www.w3.org/2000/svg" xmlns:xlink="http://www.w3.org/1999/xlink" width="500" zoomAndPan="magnify" viewBox="0 0 375 374.999991" height="500" preserveAspectRatio="xMidYMid meet" version="1.0"><path fill="#caddff" d="M 22.582031 291.492188 C 32.25 315.386719 54.96875 326.640625 69.492188 333.835938 C 126.730469 362.183594 232.855469 347.632812 295.679688 295.457031 C 310.382812 283.25 364.234375 230.660156 347.636719 144.382812 C 332.96875 68.105469 258.777344 23.261719 195.761719 17.550781 C 143.550781 12.816406 74.335938 32.65625 50.105469 79.277344 C 34.871094 108.59375 53.054688 117.84375 40.480469 184.210938 C 29.59375 241.652344 10.753906 262.257812 22.582031 291.492188 " fill-opacity="1" fill-rule="nonzero"/><path fill="#0c2840" d="M 199.777344 284.070312 L 199.796875 308.050781 C 199.808594 315.320312 191.402344 322.605469 174.515625 328.242188 C 140.742188 339.515625 85.628906 339.992188 50.324219 329.449219 C 49.742188 329.277344 49.171875 329.101562 48.601562 328.921875 C 30.714844 323.292969 21.730469 315.804688 21.71875 308.300781 L 21.699219 284.316406 C 21.710938 291.824219 30.695312 299.308594 48.582031 304.9375 C 49.152344 305.117188 49.722656 305.296875 50.304688 305.46875 C 85.609375 316.007812 140.726562 315.53125 174.5 304.257812 C 191.382812 298.621094 199.789062 291.335938 199.777344 284.070312 " fill-opacity="1" fill-rule="nonzero"/><path fill="#19598f" d="M 171.164062 262.917969 C 171.746094 263.089844 172.320312 263.265625 172.890625 263.445312 C 208.105469 274.527344 208.824219 292.800781 174.5 304.257812 C 140.726562 315.53125 85.609375 316.007812 50.304688 305.46875 C 49.722656 305.296875 49.152344 305.117188 48.582031 304.9375 C 13.375 293.859375 12.65625 275.585938 46.980469 264.125 C 80.75 252.855469 135.859375 252.378906 171.164062 262.917969 " fill-opacity="1" fill-rule="nonzero"/><path fill="#0c2840" d="M 199.832031 252.585938 L 199.851562 276.570312 C 199.863281 283.835938 191.457031 291.121094 174.570312 296.757812 C 140.796875 308.03125 85.679688 308.507812 50.375 297.96875 C 49.796875 297.792969 49.222656 297.617188 48.65625 297.4375 C 30.765625 291.808594 21.78125 284.324219 21.769531 276.816406 L 21.753906 252.832031 C 21.761719 260.339844 30.75 267.824219 48.636719 273.457031 C 49.207031 273.632812 49.777344 273.808594 50.359375 273.984375 C 85.664062 284.527344 140.777344 284.046875 174.550781 272.777344 C 191.4375 267.140625 199.839844 259.851562 199.832031 252.585938 " fill-opacity="1" fill-rule="nonzero"/><path fill="#19598f" d="M 171.21875 231.433594 C 171.800781 231.605469 172.371094 231.78125 172.945312 231.960938 C 208.15625 243.046875 208.875 261.316406 174.550781 272.777344 C 140.777344 284.046875 85.664062 284.527344 50.359375 273.984375 C 49.777344 273.808594 49.207031 273.632812 48.636719 273.457031 C 13.425781 262.375 12.707031 244.101562 47.035156 232.640625 C 80.800781 221.371094 135.914062 220.894531 171.21875 231.433594 " fill-opacity="1" fill-rule="nonzero"/><path fill="#0c2840" d="M 199.453125 220.390625 L 199.472656 244.375 C 199.480469 251.640625 191.078125 258.925781 174.191406 264.5625 C 140.417969 275.835938 85.304688 276.3125 49.996094 265.773438 C 49.417969 265.601562 48.847656 265.421875 48.277344 265.242188 C 30.390625 259.613281 21.402344 252.125 21.394531 244.621094 L 21.375 220.640625 C 21.382812 228.144531 30.371094 235.628906 48.257812 241.261719 C 48.828125 241.4375 49.398438 241.617188 49.980469 241.789062 C 85.285156 252.332031 140.398438 251.851562 174.171875 240.582031 C 191.058594 234.945312 199.464844 227.65625 199.453125 220.390625 " fill-opacity="1" fill-rule="nonzero"/><path fill="#19598f" d="M 170.839844 199.238281 C 171.421875 199.414062 171.992188 199.585938 172.5625 199.769531 C 207.777344 210.851562 208.496094 229.121094 174.171875 240.582031 C 140.398438 251.851562 85.285156 252.332031 49.980469 241.789062 C 49.398438 241.617188 48.828125 241.4375 48.257812 241.261719 C 13.046875 230.179688 12.332031 211.90625 46.65625 200.445312 C 80.425781 189.175781 135.535156 188.699219 170.839844 199.238281 " fill-opacity="1" fill-rule="nonzero"/><path fill="#0c2840" d="M 199.402344 188.21875 L 199.421875 212.203125 C 199.433594 219.472656 191.027344 226.757812 174.140625 232.394531 C 140.367188 243.667969 85.253906 244.144531 49.949219 233.601562 C 49.367188 233.429688 48.796875 233.253906 48.226562 233.074219 C 30.339844 227.445312 21.355469 219.957031 21.34375 212.453125 L 21.324219 188.46875 C 21.335938 195.976562 30.320312 203.460938 48.207031 209.089844 C 48.777344 209.269531 49.351562 209.445312 49.929688 209.621094 C 85.234375 220.160156 140.351562 219.683594 174.121094 208.410156 C 191.007812 202.773438 199.414062 195.488281 199.402344 188.21875 " fill-opacity="1" fill-rule="nonzero"/><path fill="#19598f" d="M 170.789062 167.070312 C 171.371094 167.242188 171.945312 167.417969 172.515625 167.597656 C 207.730469 178.679688 208.449219 196.953125 174.121094 208.410156 C 140.351562 219.683594 85.234375 220.160156 49.929688 209.621094 C 49.351562 209.445312 48.777344 209.269531 48.207031 209.089844 C 13 198.007812 12.28125 179.734375 46.605469 168.277344 C 80.375 157.007812 135.484375 156.53125 170.789062 167.070312 " fill-opacity="1" fill-rule="nonzero"/><path fill="#0c2840" d="M 199.527344 157.351562 L 199.546875 181.335938 C 199.558594 188.601562 191.152344 195.890625 174.265625 201.527344 C 140.492188 212.800781 85.375 213.277344 50.070312 202.734375 C 49.492188 202.5625 48.917969 202.386719 48.351562 202.207031 C 30.460938 196.578125 21.476562 189.089844 21.464844 181.585938 L 21.449219 157.601562 C 21.457031 165.109375 30.445312 172.59375 48.332031 178.226562 C 48.902344 178.402344 49.472656 178.578125 50.054688 178.753906 C 85.359375 189.292969 140.472656 188.816406 174.246094 177.542969 C 191.132812 171.90625 199.535156 164.621094 199.527344 157.351562 " fill-opacity="1" fill-rule="nonzero"/><path fill="#19598f" d="M 170.914062 136.203125 C 171.496094 136.375 172.066406 136.550781 172.640625 136.730469 C 207.851562 147.8125 208.570312 166.085938 174.246094 177.542969 C 140.472656 188.816406 85.359375 189.292969 50.054688 178.753906 C 49.472656 178.578125 48.902344 178.402344 48.332031 178.226562 C 13.121094 167.140625 12.402344 148.867188 46.730469 137.410156 C 80.496094 126.140625 135.609375 125.664062 170.914062 136.203125 " fill-opacity="1" fill-rule="nonzero"/><path fill="#0c2840" d="M 199.316406 125.933594 L 199.332031 149.917969 C 199.34375 157.1875 190.9375 164.472656 174.050781 170.109375 C 140.28125 181.382812 85.164062 181.859375 49.859375 171.316406 C 49.28125 171.144531 48.707031 170.96875 48.140625 170.789062 C 30.25 165.15625 21.265625 157.671875 21.253906 150.167969 L 21.238281 126.183594 C 21.246094 133.691406 30.230469 141.175781 48.121094 146.804688 C 48.6875 146.984375 49.261719 147.160156 49.839844 147.332031 C 85.144531 157.875 140.261719 157.398438 174.035156 146.128906 C 190.921875 140.488281 199.324219 133.203125 199.316406 125.933594 " fill-opacity="1" fill-rule="nonzero"/><path fill="#19598f" d="M 170.703125 104.785156 C 171.285156 104.957031 171.855469 105.132812 172.425781 105.3125 C 207.640625 116.394531 208.359375 134.667969 174.035156 146.125 C 140.261719 157.398438 85.148438 157.875 49.839844 147.332031 C 49.261719 147.160156 48.6875 146.984375 48.121094 146.804688 C 12.910156 135.722656 12.191406 117.449219 46.519531 105.992188 C 80.285156 94.71875 135.398438 94.246094 170.703125 104.785156 " fill-opacity="1" fill-rule="nonzero"/><path fill="#0c2840" d="M 199.316406 93.902344 L 199.335938 117.882812 C 199.34375 125.152344 190.941406 132.4375 174.050781 138.074219 C 140.28125 149.347656 85.164062 149.824219 49.859375 139.28125 C 49.28125 139.109375 48.707031 138.933594 48.140625 138.753906 C 30.25 133.125 21.265625 125.636719 21.253906 118.132812 L 21.238281 94.148438 C 21.246094 101.65625 30.230469 109.140625 48.121094 114.769531 C 48.6875 114.953125 49.261719 115.128906 49.839844 115.296875 C 85.148438 125.839844 140.261719 125.367188 174.035156 114.089844 C 190.921875 108.453125 199.328125 101.167969 199.316406 93.902344 " fill-opacity="1" fill-rule="nonzero"/><path fill="#19598f" d="M 170.699219 72.753906 C 171.28125 72.925781 171.855469 73.101562 172.425781 73.28125 C 207.636719 84.363281 208.359375 102.636719 174.035156 114.09375 C 140.261719 125.367188 85.144531 125.84375 49.839844 115.300781 C 49.261719 115.128906 48.6875 114.953125 48.121094 114.773438 C 12.910156 103.691406 12.191406 85.417969 46.515625 73.960938 C 80.285156 62.691406 135.394531 62.210938 170.699219 72.753906 " fill-opacity="1" fill-rule="nonzero"/><path fill="#19598f" d="M 345.632812 158.933594 L 240.855469 158.933594 C 238.203125 158.933594 236.054688 161.085938 236.054688 163.738281 L 236.054688 210.171875 C 236.054688 212.824219 238.203125 214.976562 240.855469 214.976562 L 345.632812 214.976562 C 348.285156 214.976562 350.4375 212.824219 350.4375 210.171875 L 350.4375 163.738281 C 350.4375 161.085938 348.285156 158.933594 345.632812 158.933594 " fill-opacity="1" fill-rule="nonzero"/><path fill="#000000" d="M 240.859375 159.53125 C 238.539062 159.53125 236.652344 161.417969 236.652344 163.738281 L 236.652344 210.171875 C 236.652344 212.488281 238.539062 214.375 240.859375 214.375 L 345.636719 214.375 C 347.953125 214.375 349.839844 212.488281 349.839844 210.171875 L 349.839844 163.738281 C 349.839844 161.417969 347.953125 159.53125 345.636719 159.53125 Z M 345.636719 215.574219 L 240.859375 215.574219 C 237.878906 215.574219 235.457031 213.152344 235.457031 210.171875 L 235.457031 163.738281 C 235.457031 160.757812 237.878906 158.332031 240.859375 158.332031 L 345.636719 158.332031 C 348.617188 158.332031 351.039062 160.757812 351.039062 163.738281 L 351.039062 210.171875 C 351.039062 213.152344 348.617188 215.574219 345.636719 215.574219 " fill-opacity="1" fill-rule="nonzero"/><path fill="#caddff" d="M 346.570312 167.429688 L 239.859375 167.429688 C 239.527344 167.429688 239.257812 167.160156 239.257812 166.828125 C 239.257812 166.5 239.527344 166.230469 239.859375 166.230469 L 346.570312 166.230469 C 346.902344 166.230469 347.171875 166.5 347.171875 166.828125 C 347.171875 167.160156 346.902344 167.429688 346.570312 167.429688 " fill-opacity="1" fill-rule="nonzero"/><path fill="#caddff" d="M 244.613281 162.628906 C 244.613281 163.308594 244.0625 163.859375 243.382812 163.859375 C 242.703125 163.859375 242.152344 163.308594 242.152344 162.628906 C 242.152344 161.949219 242.703125 161.398438 243.382812 161.398438 C 244.0625 161.398438 244.613281 161.949219 244.613281 162.628906 " fill-opacity="1" fill-rule="nonzero"/><path fill="#caddff" d="M 249.542969 162.628906 C 249.542969 163.308594 248.988281 163.859375 248.308594 163.859375 C 247.628906 163.859375 247.078125 163.308594 247.078125 162.628906 C 247.078125 161.949219 247.628906 161.398438 248.308594 161.398438 C 248.988281 161.398438 249.542969 161.949219 249.542969 162.628906 " fill-opacity="1" fill-rule="nonzero"/><path fill="#caddff" d="M 254.46875 162.628906 C 254.46875 163.308594 253.917969 163.859375 253.238281 163.859375 C 252.558594 163.859375 252.007812 163.308594 252.007812 162.628906 C 252.007812 161.949219 252.558594 161.398438 253.238281 161.398438 C 253.917969 161.398438 254.46875 161.949219 254.46875 162.628906 " fill-opacity="1" fill-rule="nonzero"/><path fill="#caddff" d="M 346.570312 163.03125 L 339.777344 163.03125 C 339.449219 163.03125 339.179688 162.765625 339.179688 162.429688 C 339.179688 162.101562 339.449219 161.832031 339.777344 161.832031 L 346.570312 161.832031 C 346.902344 161.832031 347.171875 162.101562 347.171875 162.429688 C 347.171875 162.765625 346.902344 163.03125 346.570312 163.03125 " fill-opacity="1" fill-rule="nonzero"/><path fill="#caddff" d="M 336.582031 163.035156 L 271.03125 163.035156 C 270.703125 163.035156 270.433594 162.761719 270.433594 162.429688 C 270.433594 162.101562 270.703125 161.832031 271.03125 161.832031 L 336.582031 161.832031 C 336.910156 161.832031 337.179688 162.101562 337.179688 162.429688 C 337.179688 162.761719 336.910156 163.035156 336.582031 163.035156 " fill-opacity="1" fill-rule="nonzero"/><path fill="#caddff" d="M 263.441406 163.03125 L 257.445312 163.03125 C 257.113281 163.03125 256.847656 162.761719 256.847656 162.433594 C 256.847656 162.101562 257.113281 161.832031 257.445312 161.832031 L 263.441406 161.832031 C 263.773438 161.832031 264.039062 162.101562 264.039062 162.433594 C 264.039062 162.761719 263.773438 163.03125 263.441406 163.03125 " fill-opacity="1" fill-rule="nonzero"/><path fill="#caddff" d="M 275.027344 205.398438 L 243.054688 205.398438 L 243.054688 174.222656 L 275.027344 174.222656 L 275.027344 205.398438 " fill-opacity="1" fill-rule="nonzero"/><path fill="#caddff" d="M 287.421875 181.015625 L 280.628906 181.015625 L 280.628906 174.222656 L 287.421875 174.222656 L 287.421875 181.015625 " fill-opacity="1" fill-rule="nonzero"/><path fill="#caddff" d="M 343.375 181.015625 L 292.617188 181.015625 L 292.617188 174.222656 L 343.375 174.222656 L 343.375 181.015625 " fill-opacity="1" fill-rule="nonzero"/><path fill="#caddff" d="M 287.421875 193.40625 L 280.628906 193.40625 L 280.628906 186.613281 L 287.421875 186.613281 L 287.421875 193.40625 " fill-opacity="1" fill-rule="nonzero"/><path fill="#caddff" d="M 343.375 193.40625 L 292.617188 193.40625 L 292.617188 186.613281 L 343.375 186.613281 L 343.375 193.40625 " fill-opacity="1" fill-rule="nonzero"/><path fill="#caddff" d="M 287.421875 205.796875 L 280.628906 205.796875 L 280.628906 199.003906 L 287.421875 199.003906 L 287.421875 205.796875 " fill-opacity="1" fill-rule="nonzero"/><path fill="#caddff" d="M 343.375 205.398438 L 292.617188 205.398438 L 292.617188 198.605469 L 343.375 198.605469 L 343.375 205.398438 " fill-opacity="1" fill-rule="nonzero"/><path fill="#ffffff" d="M 318.40625 277.28125 L 164.878906 277.28125 C 163.117188 277.28125 161.722656 275.863281 161.761719 274.113281 L 163.617188 190.898438 C 163.65625 189.152344 165.117188 187.734375 166.875 187.734375 L 320.402344 187.734375 C 322.160156 187.734375 323.554688 189.152344 323.519531 190.898438 L 321.664062 274.113281 C 321.621094 275.863281 320.164062 277.28125 318.40625 277.28125 " fill-opacity="1" fill-rule="nonzero"/><path fill="#000000" d="M 166.875 188.332031 C 165.441406 188.332031 164.25 189.492188 164.214844 190.914062 L 162.359375 274.128906 C 162.34375 274.808594 162.59375 275.445312 163.066406 275.925781 C 163.542969 276.414062 164.183594 276.679688 164.878906 276.679688 L 318.402344 276.679688 C 319.835938 276.679688 321.027344 275.523438 321.058594 274.101562 L 322.917969 190.886719 C 322.929688 190.207031 322.683594 189.570312 322.214844 189.089844 C 321.738281 188.601562 321.09375 188.332031 320.398438 188.332031 Z M 318.402344 277.878906 L 164.878906 277.878906 C 163.859375 277.878906 162.910156 277.484375 162.207031 276.765625 C 161.511719 276.050781 161.140625 275.105469 161.160156 274.101562 L 163.019531 190.886719 C 163.0625 188.816406 164.792969 187.132812 166.875 187.132812 L 320.398438 187.132812 C 321.417969 187.132812 322.367188 187.53125 323.066406 188.25 C 323.765625 188.964844 324.140625 189.90625 324.113281 190.914062 L 322.261719 274.128906 C 322.214844 276.195312 320.484375 277.878906 318.402344 277.878906 " fill-opacity="1" fill-rule="nonzero"/><path fill="#caddff" d="M 201.199219 272.515625 L 186.8125 272.515625 L 187.46875 243.039062 L 201.859375 243.039062 L 201.199219 272.515625 " fill-opacity="1" fill-rule="nonzero"/><path fill="#caddff" d="M 183.082031 272.515625 L 168.691406 272.515625 L 169.179688 250.726562 L 183.566406 250.726562 L 183.082031 272.515625 " fill-opacity="1" fill-rule="nonzero"/><path fill="#caddff" d="M 219.382812 272.515625 L 204.996094 272.515625 L 205.984375 228.230469 L 220.371094 228.230469 L 219.382812 272.515625 " fill-opacity="1" fill-rule="nonzero"/><path fill="#caddff" d="M 238.367188 272.515625 L 223.980469 272.515625 L 224.773438 236.964844 L 239.160156 236.964844 L 238.367188 272.515625 " fill-opacity="1" fill-rule="nonzero"/><path fill="#caddff" d="M 257.351562 272.515625 L 242.964844 272.515625 L 244.085938 222.144531 L 258.472656 222.144531 L 257.351562 272.515625 " fill-opacity="1" fill-rule="nonzero"/><path fill="#caddff" d="M 276.347656 271.917969 L 261.960938 271.917969 L 262.785156 235.113281 L 277.167969 235.113281 L 276.347656 271.917969 " fill-opacity="1" fill-rule="nonzero"/><path fill="#caddff" d="M 295.730469 271.921875 L 281.34375 271.921875 L 282.484375 220.820312 L 296.871094 220.820312 L 295.730469 271.921875 " fill-opacity="1" fill-rule="nonzero"/><path fill="#caddff" d="M 314.316406 271.917969 L 299.929688 271.917969 L 301.335938 208.90625 L 315.722656 208.90625 L 314.316406 271.917969 " fill-opacity="1" fill-rule="nonzero"/><path fill="#000000" d="M 179.347656 236.207031 C 179.152344 236.207031 178.960938 236.113281 178.84375 235.9375 C 178.664062 235.664062 178.738281 235.289062 179.015625 235.105469 L 212.144531 213.164062 C 212.375 213.011719 212.6875 213.039062 212.886719 213.230469 L 226.4375 226.148438 L 252.371094 208.953125 C 252.605469 208.796875 252.917969 208.828125 253.121094 209.027344 L 267.835938 223.511719 L 310.925781 195.027344 C 311.203125 194.847656 311.574219 194.921875 311.753906 195.199219 C 311.9375 195.472656 311.863281 195.84375 311.585938 196.027344 L 268.09375 224.78125 C 267.855469 224.9375 267.539062 224.90625 267.339844 224.707031 L 252.628906 210.222656 L 226.699219 227.410156 C 226.464844 227.566406 226.15625 227.539062 225.953125 227.347656 L 212.40625 214.425781 L 179.675781 236.105469 C 179.574219 236.175781 179.460938 236.207031 179.347656 236.207031 " fill-opacity="1" fill-rule="nonzero"/><path fill="#19598f" d="M 216.800781 213.558594 C 216.746094 215.90625 214.789062 217.90625 212.425781 218.03125 C 210.0625 218.152344 208.1875 216.355469 208.242188 214.007812 C 208.292969 211.664062 210.25 209.664062 212.613281 209.539062 C 214.980469 209.414062 216.851562 211.214844 216.800781 213.558594 " fill-opacity="1" fill-rule="nonzero"/><path fill="#0c2840" d="M 256.929688 209.183594 C 256.882812 211.527344 254.921875 213.527344 252.558594 213.652344 C 250.195312 213.777344 248.320312 211.976562 248.375 209.628906 C 248.425781 207.285156 250.382812 205.285156 252.746094 205.160156 C 255.109375 205.035156 256.984375 206.835938 256.929688 209.183594 " fill-opacity="1" fill-rule="nonzero"/><path fill="#19598f" d="M 231.035156 226.480469 C 230.984375 228.828125 229.023438 230.828125 226.660156 230.953125 C 224.296875 231.078125 222.425781 229.273438 222.476562 226.929688 C 222.527344 224.585938 224.488281 222.585938 226.851562 222.460938 C 229.214844 222.335938 231.085938 224.136719 231.035156 226.480469 " fill-opacity="1" fill-rule="nonzero"/><path fill="#caddff" d="M 183.742188 235.460938 C 183.691406 237.804688 181.734375 239.804688 179.367188 239.929688 C 177.007812 240.054688 175.132812 238.253906 175.1875 235.90625 C 175.238281 233.5625 177.195312 231.5625 179.558594 231.4375 C 181.925781 231.3125 183.796875 233.113281 183.742188 235.460938 " fill-opacity="1" fill-rule="nonzero"/><path fill="#000000" d="M 179.789062 232.03125 C 179.722656 232.03125 179.65625 232.03125 179.589844 232.035156 C 177.539062 232.144531 175.828125 233.886719 175.785156 235.921875 C 175.761719 236.878906 176.117188 237.761719 176.777344 238.402344 C 177.445312 239.050781 178.355469 239.382812 179.339844 239.332031 C 181.390625 239.222656 183.101562 237.480469 183.144531 235.449219 C 183.167969 234.488281 182.816406 233.609375 182.152344 232.96875 C 181.527344 232.359375 180.695312 232.03125 179.789062 232.03125 Z M 179.136719 240.535156 C 177.917969 240.535156 176.792969 240.089844 175.941406 239.261719 C 175.039062 238.386719 174.558594 237.191406 174.585938 235.894531 C 174.644531 233.246094 176.863281 230.976562 179.527344 230.839844 C 180.847656 230.769531 182.078125 231.21875 182.988281 232.105469 C 183.894531 232.980469 184.375 234.175781 184.34375 235.472656 C 184.285156 238.121094 182.066406 240.390625 179.402344 240.527344 C 179.3125 240.535156 179.222656 240.535156 179.136719 240.535156 " fill-opacity="1" fill-rule="nonzero"/><path fill="#19598f" d="M 272.113281 223.726562 C 272.0625 226.070312 270.105469 228.070312 267.738281 228.195312 C 265.375 228.320312 263.503906 226.519531 263.554688 224.175781 C 263.609375 221.828125 265.566406 219.828125 267.929688 219.703125 C 270.292969 219.582031 272.167969 221.378906 272.113281 223.726562 " fill-opacity="1" fill-rule="nonzero"/><path fill="#0c2840" d="M 315.535156 195.300781 C 315.484375 197.648438 313.523438 199.648438 311.160156 199.773438 C 308.796875 199.898438 306.925781 198.097656 306.976562 195.753906 C 307.027344 193.40625 308.988281 191.40625 311.351562 191.28125 C 313.714844 191.160156 315.585938 192.957031 315.535156 195.300781 " fill-opacity="1" fill-rule="nonzero"/><path fill="#000000" d="M 315.535156 195.304688 L 315.539062 195.304688 Z M 311.582031 191.875 C 311.515625 191.875 311.449219 191.878906 311.382812 191.882812 C 309.328125 191.988281 307.621094 193.730469 307.574219 195.765625 C 307.554688 196.726562 307.90625 197.605469 308.566406 198.246094 C 309.238281 198.898438 310.148438 199.226562 311.128906 199.175781 C 313.183594 199.066406 314.890625 197.324219 314.9375 195.289062 C 314.957031 194.332031 314.605469 193.453125 313.945312 192.808594 C 313.316406 192.203125 312.484375 191.875 311.582031 191.875 Z M 310.925781 200.378906 C 309.710938 200.378906 308.582031 199.933594 307.730469 199.109375 C 306.828125 198.230469 306.347656 197.035156 306.378906 195.742188 C 306.433594 193.089844 308.652344 190.824219 311.320312 190.683594 C 312.636719 190.613281 313.867188 191.0625 314.777344 191.949219 C 315.683594 192.828125 316.164062 194.023438 316.136719 195.316406 C 316.074219 197.964844 313.859375 200.230469 311.191406 200.375 C 311.101562 200.378906 311.015625 200.378906 310.925781 200.378906 " fill-opacity="1" fill-rule="nonzero"/><path fill="#ffffff" d="M 315.933594 25.171875 L 217.023438 25.171875 C 213.164062 25.171875 210.035156 28.300781 210.035156 32.160156 L 210.035156 141.289062 C 210.035156 145.148438 213.164062 148.277344 217.023438 148.277344 L 315.933594 148.277344 C 319.792969 148.277344 322.921875 145.148438 322.921875 141.289062 L 322.921875 32.160156 C 322.921875 28.300781 319.792969 25.171875 315.933594 25.171875 " fill-opacity="1" fill-rule="nonzero"/><path fill="#000000" d="M 217.023438 25.773438 C 213.5 25.773438 210.636719 28.636719 210.636719 32.160156 L 210.636719 141.289062 C 210.636719 144.808594 213.5 147.675781 217.023438 147.675781 L 315.933594 147.675781 C 319.453125 147.675781 322.320312 144.808594 322.320312 141.289062 L 322.320312 32.160156 C 322.320312 28.636719 319.453125 25.773438 315.933594 25.773438 Z M 315.933594 148.875 L 217.023438 148.875 C 212.839844 148.875 209.4375 145.46875 209.4375 141.289062 L 209.4375 32.160156 C 209.4375 27.976562 212.839844 24.574219 217.023438 24.574219 L 315.933594 24.574219 C 320.117188 24.574219 323.519531 27.976562 323.519531 32.160156 L 323.519531 141.289062 C 323.519531 145.46875 320.117188 148.875 315.933594 148.875 " fill-opacity="1" fill-rule="nonzero"/><path fill="#000000" d="M 317.453125 37.242188 L 215.589844 37.242188 C 215.257812 37.242188 214.992188 36.96875 214.992188 36.640625 C 214.992188 36.308594 215.257812 36.039062 215.589844 36.039062 L 317.453125 36.039062 C 317.785156 36.039062 318.054688 36.308594 318.054688 36.640625 C 318.054688 36.96875 317.785156 37.242188 317.453125 37.242188 " fill-opacity="1" fill-rule="nonzero"/><path fill="#19598f" d="M 219.175781 30.550781 C 219.175781 31.539062 218.371094 32.339844 217.382812 32.339844 C 216.390625 32.339844 215.589844 31.539062 215.589844 30.550781 C 215.589844 29.558594 216.390625 28.757812 217.382812 28.757812 C 218.371094 28.757812 219.175781 29.558594 219.175781 30.550781 " fill-opacity="1" fill-rule="nonzero"/><path fill="#19598f" d="M 226.339844 30.550781 C 226.339844 31.539062 225.535156 32.339844 224.546875 32.339844 C 223.558594 32.339844 222.757812 31.539062 222.757812 30.550781 C 222.757812 29.558594 223.558594 28.757812 224.546875 28.757812 C 225.535156 28.757812 226.339844 29.558594 226.339844 30.550781 " fill-opacity="1" fill-rule="nonzero"/><path fill="#19598f" d="M 233.507812 30.550781 C 233.507812 31.539062 232.707031 32.339844 231.714844 32.339844 C 230.726562 32.339844 229.925781 31.539062 229.925781 30.550781 C 229.925781 29.558594 230.726562 28.757812 231.714844 28.757812 C 232.707031 28.757812 233.507812 29.558594 233.507812 30.550781 " fill-opacity="1" fill-rule="nonzero"/><path fill="#000000" d="M 317.453125 31.148438 L 307.359375 31.148438 C 307.03125 31.148438 306.761719 30.878906 306.761719 30.546875 C 306.761719 30.21875 307.03125 29.949219 307.359375 29.949219 L 317.453125 29.949219 C 317.785156 29.949219 318.054688 30.21875 318.054688 30.546875 C 318.054688 30.878906 317.785156 31.148438 317.453125 31.148438 " fill-opacity="1" fill-rule="nonzero"/><path fill="#000000" d="M 302.820312 31.148438 L 261.011719 31.148438 C 260.679688 31.148438 260.414062 30.878906 260.414062 30.546875 C 260.414062 30.21875 260.679688 29.949219 261.011719 29.949219 L 302.820312 29.949219 C 303.152344 29.949219 303.421875 30.21875 303.421875 30.546875 C 303.421875 30.878906 303.152344 31.148438 302.820312 31.148438 " fill-opacity="1" fill-rule="nonzero"/><path fill="#000000" d="M 250.023438 31.148438 L 241.125 31.148438 C 240.792969 31.148438 240.523438 30.878906 240.523438 30.546875 C 240.523438 30.21875 240.792969 29.949219 241.125 29.949219 L 250.023438 29.949219 C 250.351562 29.949219 250.621094 30.21875 250.621094 30.546875 C 250.621094 30.878906 250.351562 31.148438 250.023438 31.148438 " fill-opacity="1" fill-rule="nonzero"/><path fill="#19598f" d="M 249.351562 83.5625 C 252.609375 77.863281 258.667969 73.839844 265.710938 73.109375 L 266.199219 45.253906 C 245.972656 45.320312 228.121094 56.71875 219.992188 73.5625 L 249.351562 83.5625 " fill-opacity="1" fill-rule="nonzero"/><path fill="#000000" d="M 220.828125 73.21875 L 249.078125 82.835938 C 252.46875 77.226562 258.402344 73.433594 265.117188 72.578125 L 265.585938 45.859375 C 246.488281 46.148438 229.042969 56.8125 220.828125 73.21875 Z M 249.347656 84.164062 C 249.285156 84.164062 249.21875 84.152344 249.15625 84.128906 L 219.796875 74.132812 C 219.632812 74.078125 219.503906 73.953125 219.4375 73.796875 C 219.371094 73.640625 219.375 73.457031 219.449219 73.304688 C 227.816406 55.972656 246.167969 44.726562 266.195312 44.65625 C 266.359375 44.65625 266.515625 44.722656 266.625 44.835938 C 266.738281 44.949219 266.800781 45.105469 266.796875 45.265625 L 266.308594 73.125 C 266.304688 73.425781 266.070312 73.675781 265.769531 73.707031 C 259.050781 74.40625 253.105469 78.199219 249.871094 83.859375 C 249.761719 84.054688 249.558594 84.164062 249.347656 84.164062 " fill-opacity="1" fill-rule="nonzero"/><path fill="#000000" d="M 247.96875 53.425781 C 247.730469 53.425781 247.507812 53.285156 247.410156 53.050781 C 247.289062 52.746094 247.4375 52.394531 247.746094 52.269531 C 252.320312 50.417969 257.144531 49.261719 262.082031 48.835938 C 262.410156 48.804688 262.699219 49.050781 262.730469 49.378906 C 262.757812 49.710938 262.511719 50 262.179688 50.03125 C 257.367188 50.445312 252.660156 51.574219 248.195312 53.382812 C 248.121094 53.414062 248.042969 53.425781 247.96875 53.425781 " fill-opacity="1" fill-rule="nonzero"/><path fill="#000000" d="M 231.855469 64.167969 C 231.703125 64.167969 231.554688 64.109375 231.4375 63.996094 C 231.199219 63.765625 231.195312 63.386719 231.425781 63.148438 C 234.882812 59.621094 238.890625 56.648438 243.34375 54.3125 C 243.636719 54.15625 243.996094 54.269531 244.152344 54.5625 C 244.304688 54.855469 244.191406 55.21875 243.898438 55.371094 C 239.558594 57.652344 235.648438 60.550781 232.285156 63.988281 C 232.164062 64.109375 232.007812 64.167969 231.855469 64.167969 " fill-opacity="1" fill-rule="nonzero"/><path fill="#19598f" d="M 288.371094 95.90625 C 286.714844 105.0625 278.375 112.257812 268.160156 112.574219 C 265.113281 112.667969 262.207031 112.140625 259.5625 111.113281 L 243.621094 135.796875 C 251.03125 139.144531 259.402344 140.78125 268.160156 140.28125 C 293.628906 138.816406 313.652344 119.644531 315.875 96.566406 L 288.371094 95.90625 " fill-opacity="1" fill-rule="nonzero"/><path fill="#000000" d="M 244.503906 135.535156 C 251.828125 138.71875 259.980469 140.148438 268.125 139.683594 C 292.542969 138.28125 312.667969 120.046875 315.210938 97.152344 L 288.863281 96.519531 C 286.910156 105.886719 278.296875 112.859375 268.179688 113.171875 C 265.285156 113.265625 262.46875 112.816406 259.804688 111.84375 Z M 265.101562 140.96875 C 257.570312 140.96875 250.113281 139.390625 243.375 136.347656 C 243.214844 136.273438 243.09375 136.136719 243.042969 135.96875 C 242.996094 135.800781 243.023438 135.621094 243.117188 135.472656 L 259.058594 110.789062 C 259.214844 110.550781 259.515625 110.453125 259.78125 110.554688 C 262.429688 111.585938 265.242188 112.066406 268.140625 111.976562 C 277.875 111.671875 286.136719 104.871094 287.777344 95.800781 C 287.832031 95.511719 288.085938 95.308594 288.386719 95.308594 L 315.886719 95.96875 C 316.054688 95.972656 316.210938 96.046875 316.324219 96.167969 C 316.433594 96.292969 316.484375 96.457031 316.46875 96.625 C 314.179688 120.40625 293.425781 139.429688 268.195312 140.878906 C 267.164062 140.941406 266.132812 140.96875 265.101562 140.96875 " fill-opacity="1" fill-rule="nonzero"/><path fill="#000000" d="M 265.054688 136.972656 C 259.667969 136.972656 254.410156 136.121094 249.429688 134.441406 C 249.113281 134.335938 248.945312 133.992188 249.050781 133.679688 C 249.15625 133.367188 249.5 133.199219 249.8125 133.304688 C 254.671875 134.941406 259.800781 135.773438 265.054688 135.773438 C 266 135.773438 266.953125 135.75 267.898438 135.691406 C 268.230469 135.671875 268.511719 135.925781 268.53125 136.257812 C 268.550781 136.589844 268.296875 136.871094 267.96875 136.890625 C 267 136.945312 266.023438 136.972656 265.054688 136.972656 " fill-opacity="1" fill-rule="nonzero"/><path fill="#000000" d="M 278 135.25 C 277.738281 135.25 277.492188 135.074219 277.421875 134.808594 C 277.335938 134.492188 277.523438 134.160156 277.839844 134.074219 C 294.527344 129.523438 307.414062 116.277344 310.667969 100.332031 C 310.738281 100.007812 311.050781 99.796875 311.375 99.867188 C 311.703125 99.929688 311.910156 100.246094 311.847656 100.570312 C 308.5 116.957031 295.277344 130.5625 278.15625 135.230469 C 278.105469 135.242188 278.050781 135.25 278 135.25 " fill-opacity="1" fill-rule="nonzero"/><path fill="#19598f" d="M 238.632812 133.203125 L 254.722656 108.441406 C 249.910156 104.878906 246.816406 99.332031 246.816406 93.042969 C 246.816406 91.523438 246.996094 90.042969 247.339844 88.617188 L 217.867188 78.734375 C 216.285156 83.378906 215.433594 88.3125 215.433594 93.429688 C 215.433594 110.363281 224.726562 124.949219 238.632812 133.203125 " fill-opacity="1" fill-rule="nonzero"/><path fill="#000000" d="M 218.246094 79.496094 C 216.773438 84.003906 216.03125 88.6875 216.03125 93.429688 C 216.03125 109.3125 224.398438 123.835938 238.441406 132.390625 L 253.914062 108.582031 C 249.015625 104.75 246.214844 99.121094 246.214844 93.042969 C 246.214844 91.691406 246.355469 90.335938 246.636719 89.011719 Z M 238.628906 133.800781 C 238.527344 133.800781 238.421875 133.773438 238.324219 133.71875 C 223.613281 124.988281 214.832031 109.925781 214.832031 93.429688 C 214.832031 88.355469 215.660156 83.347656 217.300781 78.542969 C 217.40625 78.230469 217.746094 78.0625 218.058594 78.171875 L 247.53125 88.046875 C 247.828125 88.144531 247.996094 88.457031 247.925781 88.757812 C 247.585938 90.160156 247.414062 91.601562 247.414062 93.042969 C 247.414062 98.917969 250.207031 104.355469 255.078125 107.960938 C 255.332031 108.148438 255.394531 108.503906 255.222656 108.769531 L 239.132812 133.527344 C 239.019531 133.703125 238.828125 133.800781 238.628906 133.800781 " fill-opacity="1" fill-rule="nonzero"/><path fill="#19598f" d="M 274.847656 72.058594 C 284.148438 73.441406 291.300781 80.648438 292.152344 89.558594 L 337.125 90.863281 C 337.125 90.84375 337.125 90.824219 337.125 90.804688 C 337.125 57.8125 310.835938 29.578125 275.652344 25.941406 L 274.847656 72.058594 " fill-opacity="1" fill-rule="nonzero"/><path fill="#000000" d="M 292.691406 88.972656 L 336.523438 90.242188 C 336.230469 57.648438 310.460938 30.449219 276.242188 26.609375 L 275.457031 71.546875 C 284.628906 73.132812 291.609375 80.195312 292.691406 88.972656 Z M 337.121094 91.460938 C 337.113281 91.460938 337.113281 91.460938 337.105469 91.460938 L 292.132812 90.15625 C 291.828125 90.148438 291.582031 89.917969 291.554688 89.617188 C 290.730469 80.976562 283.824219 73.996094 274.757812 72.652344 C 274.460938 72.605469 274.242188 72.347656 274.25 72.046875 L 275.054688 25.929688 C 275.054688 25.761719 275.128906 25.605469 275.253906 25.492188 C 275.382812 25.382812 275.546875 25.328125 275.714844 25.347656 C 292.816406 27.113281 308.550781 34.785156 320.019531 46.953125 C 331.4375 59.066406 337.726562 74.636719 337.726562 90.804688 C 337.726562 90.964844 337.660156 91.148438 337.542969 91.261719 C 337.429688 91.371094 337.277344 91.460938 337.121094 91.460938 " fill-opacity="1" fill-rule="nonzero"/><path fill="#ffffff" d="M 224.421875 73.1875 L 165.558594 73.1875 C 162.660156 73.1875 160.308594 75.539062 160.308594 78.4375 L 160.308594 156.652344 C 160.308594 159.550781 162.660156 161.902344 165.558594 161.902344 L 224.421875 161.902344 C 227.320312 161.902344 229.675781 159.550781 229.675781 156.652344 L 229.675781 78.4375 C 229.675781 75.539062 227.320312 73.1875 224.421875 73.1875 " fill-opacity="1" fill-rule="nonzero"/><path fill="#caddff" d="M 183.664062 148.195312 L 168.554688 148.195312 L 168.554688 98.539062 L 183.664062 98.539062 L 183.664062 148.195312 " fill-opacity="1" fill-rule="nonzero"/><path fill="#caddff" d="M 202.546875 148.195312 L 187.4375 148.195312 L 187.4375 84.835938 L 202.546875 84.835938 L 202.546875 148.195312 " fill-opacity="1" fill-rule="nonzero"/><path fill="#caddff" d="M 221.429688 148.195312 L 206.316406 148.195312 L 206.316406 118.59375 L 221.429688 118.59375 L 221.429688 148.195312 " fill-opacity="1" fill-rule="nonzero"/><path fill="#000000" d="M 171.417969 128.855469 C 171.085938 128.855469 170.820312 128.589844 170.820312 128.257812 L 170.820312 96.859375 C 170.820312 96.527344 171.085938 96.257812 171.417969 96.257812 L 186.527344 96.257812 C 186.863281 96.257812 187.128906 96.527344 187.128906 96.859375 L 187.128906 111.066406 C 187.128906 111.394531 186.863281 111.664062 186.527344 111.664062 C 186.199219 111.664062 185.929688 111.394531 185.929688 111.066406 L 185.929688 97.457031 L 172.015625 97.457031 L 172.015625 128.257812 C 172.015625 128.589844 171.75 128.855469 171.417969 128.855469 " fill-opacity="1" fill-rule="nonzero"/><path fill="#000000" d="M 205.410156 139.578125 C 205.078125 139.578125 204.808594 139.308594 204.808594 138.976562 L 204.808594 83.753906 L 190.898438 83.753906 L 190.898438 128.386719 C 190.898438 128.714844 190.628906 128.984375 190.300781 128.984375 C 189.96875 128.984375 189.699219 128.714844 189.699219 128.386719 L 189.699219 83.15625 C 189.699219 82.824219 189.96875 82.558594 190.300781 82.558594 L 205.410156 82.558594 C 205.742188 82.558594 206.007812 82.824219 206.007812 83.15625 L 206.007812 138.976562 C 206.007812 139.308594 205.742188 139.578125 205.410156 139.578125 " fill-opacity="1" fill-rule="nonzero"/><path fill="#000000" d="M 209.183594 141.816406 C 208.851562 141.816406 208.582031 141.550781 208.582031 141.21875 L 208.582031 116.914062 C 208.582031 116.582031 208.851562 116.3125 209.183594 116.3125 L 224.292969 116.3125 C 224.625 116.3125 224.890625 116.582031 224.890625 116.914062 L 224.890625 133.992188 C 224.890625 134.320312 224.625 134.589844 224.292969 134.589844 C 223.960938 134.589844 223.691406 134.320312 223.691406 133.992188 L 223.691406 117.511719 L 209.78125 117.511719 L 209.78125 141.21875 C 209.78125 141.550781 209.511719 141.816406 209.183594 141.816406 " fill-opacity="1" fill-rule="nonzero"/><path fill="#000000" d="M 184.703125 162.632812 C 184.375 162.632812 184.105469 162.363281 184.105469 162.035156 C 184.101562 161.703125 184.371094 161.433594 184.703125 161.433594 L 224.417969 161.304688 C 226.988281 161.304688 229.074219 159.214844 229.074219 156.648438 L 229.074219 78.4375 C 229.074219 75.871094 226.988281 73.785156 224.421875 73.785156 L 165.558594 73.785156 C 162.992188 73.785156 160.90625 75.871094 160.90625 78.4375 L 160.90625 156.648438 C 160.90625 159.214844 162.992188 161.304688 165.558594 161.304688 L 166.117188 161.304688 C 166.449219 161.304688 166.71875 161.570312 166.71875 161.902344 C 166.71875 162.234375 166.449219 162.503906 166.117188 162.503906 L 165.558594 162.503906 C 162.332031 162.503906 159.707031 159.875 159.707031 156.648438 L 159.707031 78.4375 C 159.707031 75.210938 162.332031 72.585938 165.558594 72.585938 L 224.421875 72.585938 C 227.648438 72.585938 230.273438 75.210938 230.273438 78.4375 L 230.273438 156.648438 C 230.273438 159.875 227.648438 162.503906 224.421875 162.503906 L 184.707031 162.632812 L 184.703125 162.632812 " fill-opacity="1" fill-rule="nonzero"/><path fill="#ffffff" d="M 85.203125 321.40625 L 86.152344 330.46875 L 92.28125 331.183594 L 92.28125 320.441406 L 85.203125 321.40625 " fill-opacity="1" fill-rule="nonzero"/><path fill="#000000" d="M 86.699219 329.929688 L 91.679688 330.511719 L 91.679688 321.128906 L 85.859375 321.921875 Z M 92.28125 331.785156 C 92.257812 331.785156 92.234375 331.785156 92.210938 331.78125 L 86.082031 331.0625 C 85.804688 331.03125 85.585938 330.808594 85.558594 330.527344 L 84.605469 321.46875 C 84.570312 321.144531 84.800781 320.855469 85.121094 320.8125 L 92.199219 319.847656 C 92.371094 319.824219 92.542969 319.875 92.675781 319.992188 C 92.804688 320.105469 92.878906 320.265625 92.878906 320.441406 L 92.878906 331.183594 C 92.878906 331.355469 92.804688 331.519531 92.679688 331.632812 C 92.566406 331.730469 92.425781 331.785156 92.28125 331.785156 " fill-opacity="1" fill-rule="nonzero"/><path fill="#19598f" d="M 93.246094 346.960938 C 90.691406 347.320312 86.503906 347.636719 81.589844 346.953125 C 79.976562 346.730469 78.910156 345.167969 79.296875 343.589844 C 80.382812 339.191406 82.246094 330.847656 85.445312 326.980469 L 86.242188 329.078125 L 87.339844 327.101562 C 87.492188 326.832031 87.761719 326.648438 88.066406 326.609375 L 90.472656 326.304688 C 90.976562 326.242188 91.441406 326.574219 91.546875 327.070312 L 91.929688 328.886719 L 92.769531 326.5 L 95.566406 343.894531 C 95.761719 345.378906 94.730469 346.75 93.246094 346.960938 " fill-opacity="1" fill-rule="nonzero"/><path fill="#000000" d="M 85.273438 328.214844 C 82.746094 331.964844 81.117188 338.660156 80.113281 342.78125 L 79.882812 343.734375 C 79.734375 344.328125 79.84375 344.933594 80.1875 345.441406 C 80.527344 345.941406 81.070312 346.277344 81.671875 346.363281 C 86.472656 347.027344 90.570312 346.730469 93.160156 346.367188 C 94.3125 346.203125 95.125 345.128906 94.972656 343.972656 L 92.550781 328.925781 L 92.496094 329.089844 C 92.40625 329.34375 92.15625 329.5 91.890625 329.488281 C 91.621094 329.46875 91.398438 329.277344 91.34375 329.011719 L 90.960938 327.191406 C 90.921875 327.003906 90.738281 326.875 90.546875 326.902344 L 88.144531 327.207031 C 88.027344 327.21875 87.921875 327.289062 87.863281 327.394531 L 86.765625 329.367188 C 86.652344 329.574219 86.429688 329.691406 86.199219 329.675781 C 85.964844 329.660156 85.765625 329.507812 85.679688 329.289062 Z M 93.246094 346.960938 L 93.25 346.960938 Z M 87.453125 347.957031 C 85.652344 347.957031 83.648438 347.847656 81.507812 347.546875 C 80.570312 347.417969 79.726562 346.894531 79.195312 346.113281 C 78.664062 345.332031 78.492188 344.363281 78.71875 343.449219 L 78.949219 342.5 C 80.058594 337.941406 81.914062 330.308594 84.984375 326.597656 C 85.121094 326.433594 85.335938 326.355469 85.546875 326.390625 C 85.753906 326.421875 85.933594 326.566406 86.007812 326.769531 L 86.34375 327.660156 L 86.816406 326.8125 C 87.058594 326.375 87.5 326.078125 87.992188 326.015625 L 90.398438 325.710938 C 91.121094 325.621094 91.804688 326.042969 92.0625 326.703125 L 92.203125 326.300781 C 92.292969 326.042969 92.550781 325.882812 92.820312 325.90625 C 93.09375 325.929688 93.316406 326.132812 93.359375 326.40625 L 96.160156 343.796875 C 96.398438 345.625 95.128906 347.300781 93.328125 347.554688 C 91.816406 347.765625 89.808594 347.957031 87.453125 347.957031 " fill-opacity="1" fill-rule="nonzero"/><path fill="#000000" d="M 86.144531 345.039062 C 84.496094 345.039062 82.710938 344.894531 80.929688 344.488281 C 80.605469 344.414062 80.40625 344.09375 80.476562 343.769531 C 80.550781 343.449219 80.871094 343.246094 81.195312 343.320312 C 87.140625 344.675781 93.359375 342.933594 93.421875 342.914062 C 93.742188 342.824219 94.074219 343.007812 94.164062 343.328125 C 94.253906 343.644531 94.070312 343.976562 93.753906 344.066406 C 93.5625 344.121094 90.28125 345.039062 86.144531 345.039062 " fill-opacity="1" fill-rule="nonzero"/><path fill="#000000" d="M 84.683594 338.304688 C 84.363281 338.304688 84.097656 338.046875 84.085938 337.722656 C 84.074219 337.390625 84.335938 337.113281 84.664062 337.105469 L 90.40625 336.914062 C 90.414062 336.914062 90.421875 336.914062 90.429688 336.914062 C 90.75 336.914062 91.015625 337.171875 91.027344 337.492188 C 91.039062 337.824219 90.777344 338.101562 90.449219 338.113281 L 84.703125 338.304688 C 84.699219 338.304688 84.691406 338.304688 84.683594 338.304688 " fill-opacity="1" fill-rule="nonzero"/><path fill="#ffffff" d="M 113.898438 316.582031 L 114.816406 329.804688 L 122.191406 329.804688 L 122.535156 316.582031 L 113.898438 316.582031 " fill-opacity="1" fill-rule="nonzero"/><path fill="#000000" d="M 115.378906 329.203125 L 121.605469 329.203125 L 121.917969 317.179688 L 114.542969 317.179688 Z M 122.191406 330.402344 L 114.816406 330.402344 C 114.503906 330.402344 114.242188 330.160156 114.21875 329.84375 L 113.300781 316.621094 C 113.289062 316.457031 113.347656 316.292969 113.460938 316.171875 C 113.574219 316.050781 113.734375 315.984375 113.898438 315.984375 L 122.535156 315.984375 C 122.695312 315.984375 122.847656 316.046875 122.960938 316.160156 C 123.074219 316.277344 123.136719 316.4375 123.132812 316.597656 L 122.789062 329.820312 C 122.78125 330.144531 122.515625 330.402344 122.191406 330.402344 " fill-opacity="1" fill-rule="nonzero"/><path fill="#19598f" d="M 112.890625 337.269531 C 112.875 338.519531 113.726562 339.617188 114.945312 339.902344 C 119.183594 340.886719 128.730469 343.085938 131.457031 343.488281 C 134.992188 344.019531 139.335938 342.933594 141.203125 340.867188 C 143.070312 338.800781 137.019531 333.863281 134.148438 332.066406 C 129.882812 329.398438 125.785156 324.125 124.070312 323.886719 C 122.351562 323.648438 119.140625 328.636719 119.140625 328.636719 L 113.898438 326.433594 C 113.898438 326.433594 112.984375 330.925781 112.890625 337.269531 " fill-opacity="1" fill-rule="nonzero"/><path fill="#000000" d="M 112.890625 337.269531 L 112.894531 337.269531 Z M 114.355469 327.273438 C 114.105469 328.785156 113.5625 332.519531 113.492188 337.277344 C 113.476562 338.242188 114.144531 339.101562 115.082031 339.320312 C 119.128906 340.261719 128.832031 342.492188 131.542969 342.898438 C 134.957031 343.40625 139.085938 342.3125 140.757812 340.464844 C 140.863281 340.347656 140.996094 340.148438 140.941406 339.753906 C 140.667969 337.800781 136.636719 334.328125 133.832031 332.574219 C 131.652344 331.210938 129.582031 329.246094 127.753906 327.515625 C 126.230469 326.066406 124.65625 324.574219 123.984375 324.480469 C 123.179688 324.371094 121.09375 326.707031 119.648438 328.960938 C 119.488281 329.203125 119.179688 329.300781 118.910156 329.1875 Z M 133.292969 344.222656 C 132.644531 344.222656 131.996094 344.175781 131.367188 344.082031 C 128.710938 343.6875 119.855469 341.660156 114.8125 340.488281 C 113.328125 340.140625 112.269531 338.785156 112.292969 337.261719 C 112.386719 330.933594 113.304688 326.359375 113.3125 326.3125 C 113.347656 326.136719 113.460938 325.984375 113.621094 325.902344 C 113.777344 325.820312 113.964844 325.808594 114.132812 325.878906 L 118.914062 327.890625 C 119.953125 326.339844 122.390625 323.050781 124.148438 323.292969 C 125.152344 323.433594 126.421875 324.597656 128.578125 326.644531 C 130.367188 328.335938 132.390625 330.257812 134.46875 331.558594 C 136.328125 332.71875 141.726562 336.691406 142.128906 339.585938 C 142.21875 340.238281 142.050781 340.820312 141.648438 341.269531 C 140.027344 343.0625 136.605469 344.222656 133.292969 344.222656 " fill-opacity="1" fill-rule="nonzero"/><path fill="#000000" d="M 133.234375 341.789062 C 125.492188 341.789062 115.175781 337.621094 114.589844 337.382812 C 114.285156 337.257812 114.136719 336.90625 114.261719 336.597656 C 114.386719 336.292969 114.738281 336.144531 115.042969 336.269531 C 115.230469 336.347656 133.753906 343.835938 139.132812 338.976562 C 139.378906 338.753906 139.757812 338.773438 139.980469 339.019531 C 140.203125 339.265625 140.183594 339.644531 139.9375 339.867188 C 138.386719 341.265625 135.972656 341.789062 133.234375 341.789062 " fill-opacity="1" fill-rule="nonzero"/><path fill="#000000" d="M 125.0625 333.785156 C 124.894531 333.785156 124.734375 333.71875 124.613281 333.589844 C 124.394531 333.34375 124.414062 332.964844 124.660156 332.742188 L 128.410156 329.359375 C 128.65625 329.136719 129.035156 329.15625 129.253906 329.402344 C 129.476562 329.648438 129.457031 330.027344 129.210938 330.25 L 125.460938 333.632812 C 125.347656 333.734375 125.203125 333.785156 125.0625 333.785156 " fill-opacity="1" fill-rule="nonzero"/><path fill="#000000" d="M 83.113281 230.375 C 83.113281 230.375 80.828125 271.714844 79.632812 285.984375 C 78.4375 300.253906 82.425781 323.191406 82.425781 323.191406 L 93.808594 322.59375 C 93.808594 322.59375 94.585938 294.707031 95.433594 286.960938 C 95.433594 286.960938 100.238281 276.460938 101.664062 267.097656 C 103.089844 257.730469 107.941406 242.941406 107.941406 242.941406 C 107.941406 242.941406 111.882812 316.765625 112.261719 322.566406 C 112.261719 322.566406 121.1875 322.964844 124.386719 320.949219 C 124.386719 320.949219 130.054688 294.03125 129.242188 279.386719 C 128.425781 264.738281 129.320312 228.351562 129.320312 228.351562 L 83.113281 230.375 " fill-opacity="1" fill-rule="nonzero"/><path fill="#ffffff" d="M 93.335938 287.558594 L 89.859375 287.558594 C 89.527344 287.558594 89.257812 287.289062 89.257812 286.957031 C 89.257812 286.625 89.527344 286.359375 89.859375 286.359375 L 93.335938 286.359375 C 93.667969 286.359375 93.9375 286.625 93.9375 286.957031 C 93.9375 287.289062 93.667969 287.558594 93.335938 287.558594 " fill-opacity="1" fill-rule="nonzero"/><path fill="#ffffff" d="M 118.117188 309.027344 C 118.113281 309.027344 118.109375 309.027344 118.105469 309.027344 C 117.773438 309.019531 117.507812 308.75 117.515625 308.417969 C 117.640625 301.527344 125.167969 289.234375 125.488281 288.714844 C 125.660156 288.433594 126.03125 288.347656 126.3125 288.519531 C 126.59375 288.691406 126.683594 289.0625 126.507812 289.34375 C 126.433594 289.46875 118.835938 301.875 118.714844 308.4375 C 118.707031 308.765625 118.441406 309.027344 118.117188 309.027344 " fill-opacity="1" fill-rule="nonzero"/><path fill="#ffffff" d="M 132.921875 164.261719 C 133.75 164.199219 137.816406 172.527344 150.542969 172.175781 C 163.269531 171.828125 173.476562 157.585938 173.476562 157.585938 C 173.476562 157.585938 177.871094 150.179688 181.207031 147.5 C 184.542969 144.820312 185.066406 144.464844 185.066406 144.464844 C 185.066406 144.464844 186.109375 145.859375 185.066406 147.5 C 184.019531 149.136719 181.132812 152.203125 181.132812 152.203125 C 181.132812 152.203125 184.316406 153.953125 182.878906 157.585938 C 181.230469 161.769531 176.582031 161.433594 176.582031 161.433594 C 176.582031 161.433594 167.144531 203.207031 128.152344 183.355469 L 132.921875 164.261719 " fill-opacity="1" fill-rule="nonzero"/><path fill="#000000" d="M 128.851562 183.039062 C 140.140625 188.6875 149.980469 189.621094 158.09375 185.8125 C 171.769531 179.390625 175.957031 161.484375 175.996094 161.304688 C 176.0625 161.011719 176.324219 160.816406 176.625 160.835938 C 176.796875 160.847656 180.859375 161.078125 182.320312 157.367188 C 183.539062 154.28125 180.953125 152.789062 180.84375 152.730469 C 180.679688 152.636719 180.570312 152.480469 180.542969 152.296875 C 180.515625 152.113281 180.570312 151.929688 180.695312 151.796875 C 180.726562 151.765625 183.558594 148.75 184.558594 147.175781 C 185.015625 146.464844 184.972656 145.816406 184.84375 145.382812 C 184.324219 145.78125 183.351562 146.542969 181.582031 147.964844 C 178.371094 150.546875 174.039062 157.820312 173.992188 157.894531 C 173.984375 157.910156 173.972656 157.921875 173.964844 157.9375 C 173.539062 158.527344 163.433594 172.421875 150.558594 172.777344 C 140.191406 173.066406 135.46875 167.796875 133.453125 165.546875 C 133.394531 165.480469 133.332031 165.414062 133.269531 165.34375 Z M 147.488281 189.308594 C 141.527344 189.308594 134.972656 187.503906 127.878906 183.890625 C 127.632812 183.765625 127.503906 183.484375 127.570312 183.210938 L 132.339844 164.117188 C 132.402344 163.867188 132.617188 163.683594 132.875 163.664062 C 133.339844 163.625 133.65625 163.980469 134.347656 164.75 C 136.25 166.871094 140.714844 171.835938 150.527344 171.578125 C 162.601562 171.246094 172.539062 157.855469 172.976562 157.257812 C 173.304688 156.710938 177.515625 149.695312 180.832031 147.03125 C 184.148438 144.367188 184.710938 143.984375 184.730469 143.96875 C 184.996094 143.789062 185.351562 143.851562 185.546875 144.105469 C 185.597656 144.175781 186.824219 145.851562 185.570312 147.820312 C 184.757812 149.09375 182.917969 151.152344 182.046875 152.101562 C 183.230469 153.066406 184.527344 155.046875 183.4375 157.808594 C 181.984375 161.488281 178.382812 161.980469 177.046875 162.03125 C 176.273438 164.957031 171.535156 180.828125 158.601562 186.894531 C 155.175781 188.503906 151.464844 189.308594 147.488281 189.308594 " fill-opacity="1" fill-rule="nonzero"/><path fill="#caddff" d="M 69.851562 183.355469 C 69.851562 183.355469 73.671875 158.710938 87.164062 152.644531 C 100.652344 146.582031 118.90625 147.425781 123.941406 150.453125 C 128.972656 153.480469 142.09375 167.175781 142.09375 167.175781 L 130.5 183.355469 C 130.5 183.355469 133.148438 226.925781 131.054688 238.425781 C 131.054688 238.425781 118.15625 239.929688 112.6875 237.773438 C 107.21875 235.621094 89.234375 232.601562 80.636719 236.550781 L 82.199219 181.394531 L 69.851562 183.355469 " fill-opacity="1" fill-rule="nonzero"/><path fill="#000000" d="M 92.320312 234.03125 C 100.515625 234.03125 109.359375 235.820312 112.90625 237.214844 C 117.613281 239.070312 128.234375 238.113281 130.539062 237.875 C 132.457031 225.941406 129.925781 183.824219 129.902344 183.394531 C 129.890625 183.257812 129.929688 183.121094 130.011719 183.007812 L 141.3125 167.230469 C 139.210938 165.054688 128.085938 153.648438 123.628906 150.964844 C 118.933594 148.140625 100.835938 147.15625 87.410156 153.191406 C 75.738281 158.4375 71.398438 178.34375 70.589844 182.632812 L 82.105469 180.800781 C 82.28125 180.773438 82.460938 180.828125 82.59375 180.945312 C 82.730469 181.0625 82.804688 181.234375 82.796875 181.414062 L 81.261719 235.640625 C 84.292969 234.476562 88.226562 234.03125 92.320312 234.03125 Z M 121.964844 239.539062 C 118.507812 239.539062 114.84375 239.269531 112.46875 238.332031 C 106.832031 236.113281 89.054688 233.34375 80.886719 237.097656 C 80.699219 237.183594 80.480469 237.167969 80.304688 237.050781 C 80.132812 236.9375 80.03125 236.742188 80.039062 236.535156 L 81.578125 182.101562 L 69.945312 183.949219 C 69.757812 183.980469 69.5625 183.917969 69.429688 183.78125 C 69.292969 183.648438 69.230469 183.453125 69.257812 183.265625 C 69.417969 182.246094 73.285156 158.222656 86.917969 152.097656 C 100.28125 146.089844 118.777344 146.644531 124.25 149.9375 C 129.292969 152.972656 141.988281 166.199219 142.523438 166.757812 C 142.722656 166.96875 142.746094 167.289062 142.578125 167.523438 L 131.109375 183.53125 C 131.332031 187.214844 133.675781 227.382812 131.644531 238.53125 C 131.597656 238.789062 131.386719 238.988281 131.125 239.019531 C 130.820312 239.054688 126.578125 239.539062 121.964844 239.539062 " fill-opacity="1" fill-rule="nonzero"/><path fill="#000000" d="M 92.488281 225.785156 C 92.203125 225.785156 91.949219 225.578125 91.898438 225.289062 C 91.839844 224.960938 92.058594 224.652344 92.382812 224.59375 C 112.773438 220.992188 118.683594 206.925781 118.742188 206.785156 C 118.867188 206.476562 119.214844 206.332031 119.523438 206.453125 C 119.828125 206.578125 119.976562 206.925781 119.851562 207.234375 C 119.792969 207.382812 113.628906 222.058594 92.59375 225.773438 C 92.558594 225.78125 92.523438 225.785156 92.488281 225.785156 " fill-opacity="1" fill-rule="nonzero"/><path fill="#000000" d="M 129.523438 200.585938 L 103.269531 200.585938 L 111.492188 171.261719 L 137.746094 171.261719 L 129.523438 200.585938 " fill-opacity="1" fill-rule="nonzero"/><path fill="#ffffff" d="M 72.167969 183.453125 L 85.453125 177.511719 C 85.453125 177.511719 83.582031 200.027344 110.464844 189.628906 C 110.464844 189.628906 109.472656 186.738281 109.613281 183.355469 C 109.753906 179.980469 111.773438 183.246094 112.058594 185.996094 C 112.339844 188.742188 118.652344 187.625 122.445312 186.542969 C 126.238281 185.460938 131.21875 186.171875 122.445312 191.007812 C 113.675781 195.847656 111.753906 193.6875 111.753906 193.6875 C 111.753906 193.6875 100.550781 209.363281 86.613281 206.03125 C 69.472656 201.9375 72.167969 183.453125 72.167969 183.453125 " fill-opacity="1" fill-rule="nonzero"/><path fill="#000000" d="M 72.722656 183.863281 C 72.609375 184.984375 72.339844 188.882812 73.550781 193.078125 C 75.441406 199.648438 79.882812 203.808594 86.753906 205.449219 C 100.140625 208.652344 111.15625 193.492188 111.265625 193.339844 C 111.371094 193.191406 111.539062 193.097656 111.71875 193.089844 C 111.902344 193.085938 112.078125 193.152344 112.199219 193.289062 C 112.203125 193.289062 114.167969 194.890625 122.15625 190.484375 C 126.800781 187.921875 126.730469 186.980469 126.730469 186.972656 C 126.550781 186.679688 124.800781 186.496094 122.609375 187.121094 C 120.804688 187.632812 114.734375 189.195312 112.417969 187.625 C 111.859375 187.25 111.527344 186.707031 111.460938 186.054688 C 111.316406 184.625 110.695312 183.230469 110.285156 182.703125 C 110.253906 182.851562 110.226562 183.066406 110.210938 183.382812 C 110.078125 186.609375 111.023438 189.40625 111.03125 189.4375 C 111.136719 189.742188 110.980469 190.074219 110.679688 190.1875 C 101.40625 193.777344 94.4375 193.898438 89.972656 190.554688 C 85.292969 187.054688 84.816406 180.863281 84.824219 178.453125 Z M 90.5 207.089844 C 89.1875 207.089844 87.84375 206.945312 86.476562 206.617188 C 69 202.441406 71.546875 183.554688 71.574219 183.367188 C 71.601562 183.164062 71.734375 182.988281 71.921875 182.90625 L 85.207031 176.964844 C 85.402344 176.878906 85.625 176.902344 85.800781 177.023438 C 85.972656 177.144531 86.066406 177.351562 86.050781 177.5625 C 86.042969 177.640625 85.453125 185.683594 90.695312 189.601562 C 94.730469 192.613281 101.132812 192.503906 109.730469 189.269531 C 109.441406 188.25 108.90625 185.941406 109.015625 183.332031 C 109.035156 182.839844 109.097656 181.351562 110.132812 181.316406 C 110.144531 181.316406 110.152344 181.316406 110.160156 181.316406 C 111.484375 181.316406 112.488281 184.3125 112.65625 185.933594 C 112.6875 186.230469 112.824219 186.453125 113.089844 186.632812 C 114.496094 187.585938 118.71875 186.984375 122.28125 185.96875 C 123.929688 185.496094 127.214844 185.007812 127.839844 186.519531 C 128.351562 187.761719 126.777344 189.304688 122.734375 191.535156 C 115.984375 195.257812 113.039062 194.957031 111.90625 194.480469 C 110.125 196.761719 101.460938 207.089844 90.5 207.089844 " fill-opacity="1" fill-rule="nonzero"/><path fill="#000000" d="M 107.632812 141.410156 C 106.484375 142.460938 104.242188 143.746094 102.484375 142.863281 C 101.175781 142.203125 100.449219 140.496094 100.492188 138.542969 C 99.886719 138.589844 99.09375 138.550781 98.527344 138.046875 C 97.65625 137.277344 97.816406 135.859375 97.851562 134.925781 C 98.011719 130.625 95.511719 129.96875 96.121094 127.046875 C 96.601562 124.753906 98.40625 123.386719 98.742188 123.132812 C 100.441406 121.84375 101.59375 122.257812 104.453125 121.507812 C 109.269531 120.25 109.421875 118.175781 112.589844 118.164062 C 112.773438 118.164062 117.089844 118.210938 118.554688 121.191406 C 119.746094 123.617188 118.355469 126.566406 116.914062 128.113281 C 115.054688 130.117188 113.714844 129.125 111.847656 130.808594 C 108.566406 133.761719 111.042969 138.289062 107.632812 141.410156 " fill-opacity="1" fill-rule="nonzero"/><path fill="#ffffff" d="M 117.238281 133.734375 L 117.046875 133.574219 C 116.09375 132.753906 115.105469 131.800781 114.851562 130.570312 C 113.777344 125.332031 108.980469 123.433594 108.757812 128.238281 C 108.703125 129.453125 104.273438 129.390625 104.800781 130.664062 C 106.171875 133.980469 106.199219 133.089844 104.265625 134.3125 C 104.046875 134.320312 103.828125 134.371094 103.625 134.464844 C 102.632812 134.925781 102.28125 136.273438 102.839844 137.472656 C 103.179688 138.199219 103.777344 138.703125 104.414062 138.886719 L 104.414062 144.128906 C 104.414062 146.09375 103.226562 147.867188 101.40625 148.609375 L 99.632812 149.332031 C 99.632812 149.332031 107.890625 154.722656 116.273438 148.804688 L 115.15625 148.304688 C 113.183594 147.421875 111.890625 145.492188 111.824219 143.332031 L 111.816406 142.304688 C 112.378906 142.355469 112.925781 142.320312 113.429688 142.171875 C 115.773438 141.488281 116.550781 138.789062 116.152344 135.429688 L 117.105469 134.917969 C 117.554688 134.679688 117.621094 134.066406 117.238281 133.734375 " fill-opacity="1" fill-rule="nonzero"/><path fill="#000000" d="M 101.019531 149.414062 C 103.324219 150.539062 109.035156 152.574219 115.03125 148.90625 L 114.910156 148.851562 C 112.746094 147.878906 111.300781 145.722656 111.226562 143.351562 L 111.214844 142.3125 C 111.214844 142.144531 111.285156 141.980469 111.410156 141.867188 C 111.53125 141.75 111.699219 141.695312 111.867188 141.710938 C 112.378906 141.757812 112.847656 141.71875 113.261719 141.597656 C 115.894531 140.828125 115.746094 137.078125 115.558594 135.5 C 115.527344 135.257812 115.652344 135.019531 115.867188 134.902344 L 116.824219 134.390625 C 116.871094 134.363281 116.882812 134.324219 116.886719 134.296875 C 116.890625 134.265625 116.886719 134.226562 116.84375 134.191406 L 116.65625 134.027344 C 115.652344 133.164062 114.558594 132.121094 114.265625 130.6875 C 113.625 127.582031 111.6875 125.996094 110.585938 126.078125 C 109.566406 126.15625 109.386719 127.632812 109.359375 128.265625 C 109.3125 129.28125 108.0625 129.628906 106.859375 129.96875 C 106.382812 130.101562 105.613281 130.316406 105.378906 130.5 C 105.566406 130.949219 105.726562 131.316406 105.859375 131.621094 C 106.515625 133.132812 106.734375 133.640625 105.398438 134.355469 C 105.179688 134.46875 104.910156 134.613281 104.585938 134.820312 C 104.496094 134.875 104.394531 134.90625 104.289062 134.910156 C 104.140625 134.917969 104.003906 134.949219 103.878906 135.007812 C 103.1875 135.332031 102.964844 136.324219 103.382812 137.21875 C 103.632812 137.757812 104.082031 138.167969 104.578125 138.308594 C 104.835938 138.378906 105.015625 138.617188 105.015625 138.886719 L 105.015625 144.128906 C 105.015625 146.347656 103.6875 148.324219 101.632812 149.164062 Z M 107.804688 152.160156 C 102.953125 152.160156 99.363281 149.871094 99.304688 149.835938 C 99.121094 149.714844 99.015625 149.5 99.035156 149.277344 C 99.058594 149.054688 99.199219 148.863281 99.40625 148.78125 L 101.179688 148.054688 C 102.78125 147.402344 103.8125 145.859375 103.8125 144.128906 L 103.8125 139.296875 C 103.167969 138.988281 102.625 138.4375 102.296875 137.726562 C 101.597656 136.230469 102.082031 134.523438 103.371094 133.921875 C 103.589844 133.820312 103.824219 133.753906 104.074219 133.726562 C 104.378906 133.539062 104.628906 133.40625 104.832031 133.296875 C 104.953125 133.230469 105.085938 133.164062 105.164062 133.109375 C 105.117188 132.917969 104.941406 132.519531 104.757812 132.097656 C 104.617188 131.773438 104.445312 131.378906 104.246094 130.894531 C 104.121094 130.59375 104.125 130.289062 104.261719 130.011719 C 104.578125 129.363281 105.484375 129.109375 106.535156 128.8125 C 107.046875 128.671875 107.996094 128.402344 108.160156 128.183594 C 108.304688 125.28125 109.980469 124.921875 110.492188 124.882812 C 112.292969 124.75 114.695312 126.828125 115.4375 130.445312 C 115.65625 131.507812 116.585938 132.382812 117.4375 133.121094 L 117.628906 133.28125 C 117.957031 133.566406 118.125 133.996094 118.078125 134.425781 C 118.03125 134.859375 117.773438 135.242188 117.390625 135.445312 L 116.792969 135.765625 C 117.140625 139.519531 115.984375 142.050781 113.597656 142.746094 C 113.226562 142.855469 112.835938 142.914062 112.417969 142.925781 L 112.421875 143.328125 C 112.484375 145.230469 113.652344 146.972656 115.402344 147.757812 L 116.519531 148.257812 C 116.714844 148.347656 116.851562 148.53125 116.871094 148.75 C 116.890625 148.960938 116.796875 149.171875 116.621094 149.292969 C 113.554688 151.460938 110.484375 152.160156 107.804688 152.160156 " fill-opacity="1" fill-rule="nonzero"/><path fill="#000000" d="M 111.816406 142.90625 C 111.785156 142.90625 111.753906 142.902344 111.722656 142.898438 C 108.226562 142.363281 106.648438 139.679688 106.582031 139.570312 C 106.414062 139.28125 106.515625 138.914062 106.800781 138.75 C 107.089844 138.585938 107.453125 138.683594 107.621094 138.96875 C 107.640625 139.003906 109 141.269531 111.90625 141.714844 C 112.234375 141.761719 112.457031 142.070312 112.40625 142.398438 C 112.363281 142.695312 112.105469 142.90625 111.816406 142.90625 " fill-opacity="1" fill-rule="nonzero"/><path fill="#000000" d="M 206.671875 320.867188 C 206.382812 320.867188 206.125 320.65625 206.082031 320.359375 C 206.03125 320.035156 206.253906 319.726562 206.582031 319.675781 C 206.957031 319.617188 244.222656 313.605469 269.777344 288.640625 C 270.015625 288.40625 270.394531 288.414062 270.625 288.648438 C 270.855469 288.886719 270.851562 289.265625 270.613281 289.496094 C 244.78125 314.734375 207.140625 320.804688 206.765625 320.863281 C 206.734375 320.867188 206.703125 320.867188 206.671875 320.867188 " fill-opacity="1" fill-rule="nonzero"/><path fill="#000000" d="M 236.359375 320.792969 C 236.117188 320.792969 235.886719 320.640625 235.796875 320.398438 C 235.683594 320.085938 235.84375 319.742188 236.152344 319.628906 C 236.441406 319.523438 265.054688 308.851562 274.734375 290.207031 C 274.886719 289.914062 275.25 289.800781 275.542969 289.953125 C 275.835938 290.105469 275.953125 290.464844 275.800781 290.761719 C 265.90625 309.820312 236.859375 320.648438 236.566406 320.753906 C 236.496094 320.777344 236.429688 320.792969 236.359375 320.792969 " fill-opacity="1" fill-rule="nonzero"/><path fill="#000000" d="M 85.664062 57.65625 C 85.488281 57.65625 85.3125 57.578125 85.191406 57.429688 C 84.988281 57.167969 85.035156 56.792969 85.292969 56.589844 C 107.441406 39.207031 130.226562 33.113281 145.445312 31.066406 C 161.941406 28.84375 173.375 30.765625 173.488281 30.785156 C 173.816406 30.84375 174.035156 31.152344 173.976562 31.480469 C 173.921875 31.804688 173.609375 32.023438 173.285156 31.96875 C 173.171875 31.945312 161.882812 30.058594 145.554688 32.261719 C 130.5 34.296875 107.949219 40.328125 86.035156 57.53125 C 85.925781 57.617188 85.792969 57.65625 85.664062 57.65625 " fill-opacity="1" fill-rule="nonzero"/><path fill="#000000" d="M 133.625 27.617188 C 133.371094 27.617188 133.136719 27.453125 133.054688 27.195312 C 132.953125 26.882812 133.128906 26.546875 133.445312 26.445312 C 133.761719 26.34375 165.386719 16.503906 194.425781 26.203125 C 194.742188 26.308594 194.910156 26.648438 194.804688 26.964844 C 194.699219 27.277344 194.359375 27.449219 194.046875 27.339844 C 165.375 17.761719 134.121094 27.488281 133.808594 27.585938 C 133.746094 27.605469 133.6875 27.617188 133.625 27.617188 " fill-opacity="1" fill-rule="nonzero"/><path fill="#000000" d="M 54.96875 45.980469 C 54.820312 45.980469 54.671875 45.925781 54.554688 45.8125 C 54.3125 45.585938 54.304688 45.207031 54.535156 44.96875 L 56.421875 42.996094 C 56.652344 42.757812 57.03125 42.746094 57.269531 42.976562 C 57.507812 43.207031 57.515625 43.585938 57.289062 43.824219 L 55.402344 45.796875 C 55.285156 45.917969 55.125 45.980469 54.96875 45.980469 " fill-opacity="1" fill-rule="nonzero"/><path fill="#000000" d="M 48.363281 52.882812 C 48.214844 52.882812 48.066406 52.828125 47.949219 52.71875 C 47.710938 52.488281 47.703125 52.109375 47.929688 51.871094 L 49.816406 49.898438 C 50.046875 49.660156 50.425781 49.648438 50.664062 49.878906 C 50.90625 50.109375 50.914062 50.488281 50.683594 50.726562 L 48.796875 52.699219 C 48.679688 52.820312 48.523438 52.882812 48.363281 52.882812 " fill-opacity="1" fill-rule="nonzero"/><path fill="#000000" d="M 50.214844 46.089844 C 50.0625 46.089844 49.910156 46.027344 49.796875 45.914062 L 47.878906 44.027344 C 47.644531 43.792969 47.640625 43.414062 47.875 43.179688 C 48.105469 42.941406 48.484375 42.941406 48.722656 43.171875 L 50.636719 45.058594 C 50.871094 45.292969 50.875 45.671875 50.644531 45.90625 C 50.527344 46.027344 50.371094 46.089844 50.214844 46.089844 " fill-opacity="1" fill-rule="nonzero"/><path fill="#000000" d="M 56.917969 52.691406 C 56.769531 52.691406 56.617188 52.632812 56.5 52.519531 L 54.582031 50.632812 C 54.347656 50.402344 54.34375 50.019531 54.578125 49.785156 C 54.808594 49.546875 55.1875 49.546875 55.425781 49.78125 L 57.339844 51.664062 C 57.578125 51.898438 57.578125 52.277344 57.347656 52.511719 C 57.230469 52.632812 57.074219 52.691406 56.917969 52.691406 " fill-opacity="1" fill-rule="nonzero"/><path fill="#000000" d="M 228.769531 323.554688 C 227.792969 323.554688 226.847656 324.058594 226.328125 324.957031 C 225.550781 326.300781 226.011719 328.027344 227.359375 328.804688 C 228.699219 329.582031 230.425781 329.117188 231.203125 327.773438 C 231.578125 327.125 231.679688 326.363281 231.484375 325.640625 C 231.289062 324.914062 230.824219 324.304688 230.171875 323.929688 C 229.730469 323.671875 229.246094 323.554688 228.769531 323.554688 Z M 228.757812 330.378906 C 228.078125 330.378906 227.390625 330.207031 226.757812 329.839844 C 224.839844 328.734375 224.183594 326.273438 225.289062 324.359375 C 226.394531 322.441406 228.855469 321.785156 230.773438 322.890625 C 231.699219 323.429688 232.363281 324.292969 232.640625 325.328125 C 232.921875 326.363281 232.777344 327.445312 232.242188 328.375 C 231.496094 329.660156 230.144531 330.378906 228.757812 330.378906 " fill-opacity="1" fill-rule="nonzero"/><path fill="#000000" d="M 203.042969 27.953125 C 202.457031 27.953125 201.886719 28.257812 201.574219 28.800781 C 201.105469 29.609375 201.382812 30.644531 202.195312 31.113281 C 203.003906 31.582031 204.042969 31.304688 204.507812 30.496094 C 204.976562 29.6875 204.699219 28.648438 203.890625 28.179688 C 203.621094 28.027344 203.332031 27.953125 203.042969 27.953125 Z M 203.035156 32.539062 C 202.546875 32.539062 202.050781 32.417969 201.59375 32.152344 C 200.210938 31.355469 199.738281 29.582031 200.535156 28.199219 C 201.332031 26.816406 203.109375 26.34375 204.488281 27.140625 C 205.871094 27.941406 206.34375 29.714844 205.546875 31.09375 C 205.011719 32.023438 204.039062 32.539062 203.035156 32.539062 " fill-opacity="1" fill-rule="nonzero"/></svg>