<svg xmlns="http://www.w3.org/2000/svg" xmlns:xlink="http://www.w3.org/1999/xlink" width="500" zoomAndPan="magnify" viewBox="0 0 375 374.999991" height="500" preserveAspectRatio="xMidYMid meet" version="1.0"><path fill="#caddff" d="M 49.117188 116.96875 C 42.507812 131.621094 32.722656 159.667969 36.65625 194.554688 C 41.699219 239.3125 66.679688 274.597656 90.976562 294.429688 C 171.601562 360.230469 319.195312 317.722656 338.738281 255.738281 C 342.285156 244.496094 341.285156 233.648438 340.0625 220.304688 C 336.160156 177.859375 315.605469 165.246094 301.785156 120.175781 C 289.210938 79.164062 301.609375 74.550781 289.847656 56.316406 C 264.332031 16.761719 190.683594 14.769531 140.003906 33.734375 C 120.539062 41.015625 73.304688 63.355469 49.117188 116.96875 " fill-opacity="1" fill-rule="nonzero"/><path fill="#000000" d="M 328.625 21.824219 L 194.003906 30.0625 C 188.453125 30.0625 182.371094 26.324219 181.855469 31.875 L 157.367188 295.957031 C 156.855469 301.503906 163.03125 299.910156 168.582031 299.910156 L 302.273438 306.003906 C 307.824219 306.003906 312.742188 301.503906 313.257812 295.957031 L 337.746094 31.875 C 338.257812 26.324219 334.175781 21.824219 328.625 21.824219 " fill-opacity="1" fill-rule="nonzero"/><path fill="#000000" d="M 168.582031 299.355469 L 302.300781 305.453125 C 307.539062 305.453125 312.214844 301.167969 312.707031 295.902344 L 337.195312 31.824219 C 337.429688 29.289062 336.664062 26.90625 335.039062 25.125 C 333.425781 23.355469 331.15625 22.378906 328.640625 22.375 L 194.035156 30.613281 C 194.035156 30.613281 194.03125 30.613281 194.03125 30.613281 C 192.234375 30.613281 190.40625 30.246094 188.796875 29.921875 C 186.527344 29.464844 184.386719 29.035156 183.3125 29.828125 C 182.796875 30.214844 182.5 30.898438 182.40625 31.925781 L 157.917969 296.003906 C 157.8125 297.171875 158.015625 298.003906 158.539062 298.550781 C 159.710938 299.769531 162.484375 299.621094 165.417969 299.46875 C 166.457031 299.414062 167.527344 299.355469 168.582031 299.355469 Z M 302.273438 306.558594 L 168.554688 300.460938 C 167.554688 300.460938 166.5 300.515625 165.476562 300.570312 C 162.28125 300.738281 159.265625 300.898438 157.746094 299.316406 C 156.980469 298.523438 156.679688 297.40625 156.820312 295.902344 L 181.308594 31.824219 C 181.433594 30.46875 181.875 29.527344 182.65625 28.945312 C 184.121094 27.855469 186.386719 28.308594 189.011719 28.839844 C 190.65625 29.171875 192.351562 29.511719 194.003906 29.511719 L 328.59375 21.273438 C 328.601562 21.273438 328.613281 21.273438 328.625 21.273438 C 331.457031 21.273438 334.027344 22.375 335.851562 24.378906 C 337.6875 26.398438 338.558594 29.074219 338.292969 31.925781 L 313.804688 296.003906 C 313.265625 301.824219 308.089844 306.558594 302.273438 306.558594 " fill-opacity="1" fill-rule="nonzero"/><path fill="#0c2840" d="M 323.417969 21.824219 L 187.628906 21.824219 C 182.082031 21.824219 177.164062 26.324219 176.648438 31.875 L 152.160156 295.957031 C 151.648438 301.503906 155.730469 306.003906 161.28125 306.003906 L 297.066406 306.003906 C 302.617188 306.003906 307.535156 301.503906 308.046875 295.957031 L 332.539062 31.875 C 333.050781 26.324219 328.96875 21.824219 323.417969 21.824219 " fill-opacity="1" fill-rule="nonzero"/><path fill="#000000" d="M 187.628906 22.375 C 182.367188 22.375 177.6875 26.660156 177.199219 31.925781 L 152.710938 296.003906 C 152.476562 298.542969 153.242188 300.921875 154.867188 302.703125 C 156.484375 304.476562 158.761719 305.453125 161.28125 305.453125 L 297.066406 305.453125 C 302.332031 305.453125 307.011719 301.167969 307.5 295.902344 L 331.988281 31.824219 C 332.222656 29.289062 331.453125 26.90625 329.832031 25.125 C 328.214844 23.351562 325.9375 22.375 323.417969 22.375 Z M 297.066406 306.558594 L 161.28125 306.558594 C 158.445312 306.558594 155.878906 305.453125 154.050781 303.449219 C 152.214844 301.433594 151.347656 298.753906 151.613281 295.902344 L 176.101562 31.824219 C 176.636719 26.003906 181.8125 21.273438 187.628906 21.273438 L 323.417969 21.273438 C 326.253906 21.273438 328.816406 22.375 330.648438 24.378906 C 332.484375 26.398438 333.351562 29.074219 333.085938 31.925781 L 308.597656 296.003906 C 308.058594 301.824219 302.886719 306.558594 297.066406 306.558594 " fill-opacity="1" fill-rule="nonzero"/><path fill="#000000" d="M 216.140625 21.824219 L 215.617188 27.460938 C 215.0625 33.449219 219.464844 38.304688 225.457031 38.304688 L 282.539062 38.304688 C 288.527344 38.304688 293.832031 33.449219 294.386719 27.460938 L 294.910156 21.824219 L 216.140625 21.824219 " fill-opacity="1" fill-rule="nonzero"/><path fill="#caddff" d="M 254.46875 33.210938 C 252.292969 33.210938 250.691406 31.449219 250.894531 29.269531 C 251.09375 27.09375 253.023438 25.328125 255.199219 25.328125 C 257.375 25.328125 258.980469 27.09375 258.777344 29.269531 C 258.574219 31.449219 256.644531 33.210938 254.46875 33.210938 " fill-opacity="1" fill-rule="nonzero"/><path fill="#ffffff" d="M 285.117188 191.875 L 194.398438 191.875 C 191.59375 191.875 189.523438 189.601562 189.785156 186.792969 L 191.785156 165.222656 C 192.046875 162.414062 194.535156 160.136719 197.34375 160.136719 L 288.058594 160.136719 C 290.867188 160.136719 292.933594 162.414062 292.671875 165.222656 L 290.671875 186.792969 C 290.410156 189.601562 287.921875 191.875 285.117188 191.875 " fill-opacity="1" fill-rule="nonzero"/><path fill="#ffffff" d="M 281.175781 234.382812 L 190.457031 234.382812 C 187.648438 234.382812 185.582031 232.105469 185.84375 229.296875 L 187.84375 207.726562 C 188.105469 204.917969 190.589844 202.640625 193.402344 202.640625 L 284.117188 202.640625 C 286.925781 202.640625 288.992188 204.917969 288.730469 207.726562 L 286.730469 229.296875 C 286.472656 232.105469 283.984375 234.382812 281.175781 234.382812 " fill-opacity="1" fill-rule="nonzero"/><path fill="#ffffff" d="M 277.234375 276.886719 L 186.515625 276.886719 C 183.707031 276.886719 181.640625 274.609375 181.902344 271.800781 L 183.902344 250.230469 C 184.164062 247.421875 186.648438 245.148438 189.460938 245.148438 L 280.175781 245.148438 C 282.984375 245.148438 285.046875 247.421875 284.789062 250.230469 L 282.789062 271.800781 C 282.527344 274.609375 280.042969 276.886719 277.234375 276.886719 " fill-opacity="1" fill-rule="nonzero"/><path fill="#ffffff" d="M 293.6875 102.085938 C 291.351562 127.273438 269.042969 147.691406 243.855469 147.691406 C 218.667969 147.691406 200.140625 127.273438 202.480469 102.085938 C 204.8125 76.902344 227.125 56.484375 252.3125 56.484375 C 277.496094 56.484375 296.023438 76.902344 293.6875 102.085938 " fill-opacity="1" fill-rule="nonzero"/><path fill="#ffffff" d="M 222 95.71875 L 219.796875 119.503906 C 219.132812 126.664062 230.535156 132.464844 245.265625 132.464844 C 260 132.464844 272.480469 126.664062 273.140625 119.503906 L 275.347656 95.71875 L 222 95.71875 " fill-opacity="1" fill-rule="nonzero"/><path fill="#000000" d="M 222.503906 96.269531 L 220.34375 119.554688 C 220.175781 121.382812 220.855469 123.152344 222.363281 124.8125 C 226.300781 129.125 235.289062 131.914062 245.265625 131.914062 C 259.695312 131.914062 271.953125 126.324219 272.59375 119.453125 L 274.742188 96.269531 Z M 245.265625 133.019531 C 234.835938 133.019531 225.746094 130.160156 221.550781 125.554688 C 219.84375 123.683594 219.046875 121.574219 219.246094 119.453125 L 221.453125 95.667969 C 221.480469 95.382812 221.714844 95.167969 222 95.167969 L 275.347656 95.167969 C 275.5 95.167969 275.652344 95.230469 275.757812 95.347656 C 275.859375 95.460938 275.910156 95.617188 275.898438 95.769531 L 273.691406 119.554688 C 273.351562 123.222656 270.164062 126.636719 264.710938 129.171875 C 259.375 131.652344 252.46875 133.019531 245.265625 133.019531 " fill-opacity="1" fill-rule="nonzero"/><path fill="#19598f" d="M 277.324219 90.410156 L 251.035156 78.832031 C 250.539062 78.648438 249.976562 78.648438 249.441406 78.832031 L 221.007812 90.410156 L 210.113281 90.410156 L 209.867188 93.054688 C 209.839844 93.382812 209.996094 93.710938 210.351562 93.839844 L 246.804688 107.273438 C 247.304688 107.457031 247.867188 107.457031 248.398438 107.273438 L 287.34375 93.839844 C 287.726562 93.710938 287.941406 93.382812 287.972656 93.054688 L 288.21875 90.410156 L 277.324219 90.410156 " fill-opacity="1" fill-rule="nonzero"/><path fill="#000000" d="M 210.617188 90.964844 L 210.417969 93.105469 C 210.402344 93.273438 210.507812 93.3125 210.542969 93.324219 L 246.996094 106.753906 C 247.375 106.894531 247.808594 106.894531 248.21875 106.753906 L 287.164062 93.320312 C 287.335938 93.261719 287.410156 93.117188 287.421875 93.003906 L 287.613281 90.964844 L 277.324219 90.964844 C 277.25 90.964844 277.171875 90.949219 277.101562 90.914062 L 250.8125 79.339844 C 250.46875 79.210938 250.03125 79.214844 249.621094 79.355469 L 221.214844 90.921875 C 221.148438 90.949219 221.078125 90.964844 221.003906 90.964844 Z M 247.589844 107.964844 C 247.253906 107.964844 246.921875 107.90625 246.613281 107.792969 L 210.160156 94.363281 C 209.59375 94.152344 209.261719 93.617188 209.316406 93.003906 L 209.5625 90.359375 C 209.589844 90.078125 209.828125 89.859375 210.113281 89.859375 L 220.898438 89.859375 L 249.234375 78.324219 C 249.914062 78.089844 250.609375 78.089844 251.226562 78.316406 L 277.441406 89.859375 L 288.214844 89.859375 C 288.371094 89.859375 288.523438 89.925781 288.625 90.039062 C 288.730469 90.152344 288.78125 90.308594 288.769531 90.460938 L 288.523438 93.105469 C 288.46875 93.679688 288.074219 94.175781 287.519531 94.367188 L 248.578125 107.796875 C 248.253906 107.90625 247.917969 107.964844 247.589844 107.964844 " fill-opacity="1" fill-rule="nonzero"/><path fill="#ffffff" d="M 287.734375 89.621094 L 251.28125 76.191406 C 250.785156 76.007812 250.21875 76.007812 249.6875 76.191406 L 210.742188 89.621094 C 209.976562 89.886719 209.878906 90.933594 210.597656 91.199219 L 247.050781 104.628906 C 247.546875 104.8125 248.113281 104.8125 248.644531 104.628906 L 287.585938 91.199219 C 288.355469 90.933594 288.453125 89.886719 287.734375 89.621094 " fill-opacity="1" fill-rule="nonzero"/><path fill="#000000" d="M 250.5 76.601562 C 250.289062 76.601562 250.078125 76.640625 249.871094 76.710938 L 210.925781 90.144531 C 210.734375 90.207031 210.664062 90.367188 210.664062 90.488281 C 210.660156 90.632812 210.753906 90.667969 210.789062 90.679688 L 247.242188 104.113281 C 247.621094 104.25 248.054688 104.25 248.464844 104.109375 L 287.40625 90.675781 C 287.601562 90.609375 287.671875 90.449219 287.671875 90.332031 C 287.671875 90.183594 287.578125 90.148438 287.546875 90.140625 L 251.089844 76.707031 C 250.902344 76.640625 250.703125 76.601562 250.5 76.601562 Z M 247.835938 105.320312 C 247.5 105.320312 247.171875 105.261719 246.859375 105.148438 L 210.40625 91.71875 C 209.878906 91.523438 209.554688 91.046875 209.558594 90.472656 C 209.566406 89.855469 209.96875 89.304688 210.5625 89.097656 L 249.507812 75.667969 C 250.160156 75.441406 250.855469 75.441406 251.476562 75.671875 L 287.925781 89.101562 C 288.457031 89.296875 288.78125 89.773438 288.773438 90.34375 C 288.769531 90.960938 288.363281 91.515625 287.769531 91.722656 L 248.824219 105.152344 C 248.5 105.261719 248.167969 105.320312 247.835938 105.320312 " fill-opacity="1" fill-rule="nonzero"/><path fill="#000000" d="M 268.773438 109.71875 C 268.03125 109.71875 267.355469 110.296875 267.234375 111.039062 L 263.839844 132.023438 L 269.570312 132.023438 L 270.070312 111.039062 C 270.085938 110.296875 269.519531 109.71875 268.773438 109.71875 " fill-opacity="1" fill-rule="nonzero"/><path fill="#000000" d="M 268.800781 110.007812 C 268.78125 110.007812 268.765625 110.003906 268.746094 110.003906 C 268.445312 109.976562 268.222656 109.707031 268.25 109.402344 L 269.238281 98.726562 L 248.96875 90.925781 C 248.683594 90.816406 248.539062 90.496094 248.648438 90.210938 C 248.761719 89.925781 249.078125 89.785156 249.363281 89.894531 L 270.023438 97.847656 C 270.253906 97.9375 270.402344 98.167969 270.378906 98.414062 L 269.347656 109.503906 C 269.320312 109.792969 269.082031 110.007812 268.800781 110.007812 " fill-opacity="1" fill-rule="nonzero"/><path fill="#ffffff" d="M 41.8125 267.640625 C 46.035156 258.953125 46.4375 250.199219 41.8125 241.355469 L 45.132812 237.371094 L 135.902344 240.359375 L 132.773438 269.191406 L 44.910156 270.203125 L 41.8125 267.640625 " fill-opacity="1" fill-rule="nonzero"/><path fill="#000000" d="M 42.496094 267.492188 L 45.105469 269.652344 L 132.277344 268.648438 L 135.289062 240.890625 L 45.382812 237.933594 L 42.472656 241.425781 C 46.71875 249.773438 46.726562 258.539062 42.496094 267.492188 Z M 44.910156 270.757812 C 44.78125 270.757812 44.65625 270.710938 44.554688 270.628906 L 41.460938 268.066406 C 41.265625 267.90625 41.203125 267.628906 41.316406 267.402344 C 45.691406 258.402344 45.691406 249.964844 41.324219 241.609375 C 41.21875 241.410156 41.246094 241.171875 41.390625 241 L 44.707031 237.019531 C 44.816406 236.886719 44.980469 236.816406 45.148438 236.820312 L 135.917969 239.804688 C 136.074219 239.8125 136.21875 239.882812 136.316406 239.996094 C 136.417969 240.113281 136.464844 240.265625 136.449219 240.417969 L 133.320312 269.253906 C 133.289062 269.527344 133.058594 269.742188 132.777344 269.746094 L 44.914062 270.757812 C 44.914062 270.757812 44.910156 270.757812 44.910156 270.757812 " fill-opacity="1" fill-rule="nonzero"/><path fill="#ffffff" d="M 208.601562 234.199219 L 40.128906 234.199219 C 38.160156 234.199219 36.5625 235.792969 36.5625 237.765625 C 36.5625 239.734375 38.160156 241.328125 40.128906 241.328125 L 117.582031 241.328125 C 123.253906 241.328125 127.851562 245.925781 127.851562 251.597656 L 127.851562 257.371094 C 127.851562 263.042969 123.253906 267.640625 117.582031 267.640625 L 40.128906 267.640625 C 38.160156 267.640625 36.5625 269.238281 36.5625 271.207031 C 36.5625 273.175781 38.160156 274.773438 40.128906 274.773438 L 208.601562 274.773438 C 219.058594 274.773438 227.535156 266.292969 227.535156 255.835938 L 227.535156 253.132812 C 227.535156 242.675781 219.058594 234.199219 208.601562 234.199219 " fill-opacity="1" fill-rule="nonzero"/><path fill="#000000" d="M 40.128906 268.191406 C 38.464844 268.191406 37.113281 269.546875 37.113281 271.207031 C 37.113281 272.867188 38.464844 274.222656 40.128906 274.222656 L 208.601562 274.222656 C 218.738281 274.222656 226.984375 265.972656 226.984375 255.835938 L 226.984375 253.132812 C 226.984375 242.996094 218.738281 234.75 208.601562 234.75 L 40.128906 234.75 C 38.464844 234.75 37.113281 236.101562 37.113281 237.765625 C 37.113281 239.425781 38.464844 240.777344 40.128906 240.777344 L 117.582031 240.777344 C 123.546875 240.777344 128.402344 245.632812 128.402344 251.597656 L 128.402344 257.371094 C 128.402344 263.339844 123.546875 268.191406 117.582031 268.191406 Z M 208.601562 275.324219 L 40.128906 275.324219 C 37.859375 275.324219 36.011719 273.476562 36.011719 271.207031 C 36.011719 268.9375 37.859375 267.089844 40.128906 267.089844 L 117.582031 267.089844 C 122.941406 267.089844 127.296875 262.730469 127.296875 257.371094 L 127.296875 251.597656 C 127.296875 246.242188 122.941406 241.878906 117.582031 241.878906 L 40.128906 241.878906 C 37.859375 241.878906 36.011719 240.035156 36.011719 237.765625 C 36.011719 235.492188 37.859375 233.644531 40.128906 233.644531 L 208.601562 233.644531 C 219.347656 233.644531 228.089844 242.386719 228.089844 253.132812 L 228.089844 255.835938 C 228.089844 266.582031 219.347656 275.324219 208.601562 275.324219 " fill-opacity="1" fill-rule="nonzero"/><path fill="#000000" d="M 90.71875 249.527344 L 84.082031 249.527344 C 83.777344 249.527344 83.53125 249.28125 83.53125 248.976562 C 83.53125 248.671875 83.777344 248.425781 84.082031 248.425781 L 90.71875 248.425781 C 91.023438 248.425781 91.269531 248.671875 91.269531 248.976562 C 91.269531 249.28125 91.023438 249.527344 90.71875 249.527344 " fill-opacity="1" fill-rule="nonzero"/><path fill="#000000" d="M 79.933594 249.527344 L 44.8125 249.527344 C 44.507812 249.527344 44.261719 249.28125 44.261719 248.976562 C 44.261719 248.671875 44.507812 248.425781 44.8125 248.425781 L 79.933594 248.425781 C 80.238281 248.425781 80.484375 248.671875 80.484375 248.976562 C 80.484375 249.28125 80.238281 249.527344 79.933594 249.527344 " fill-opacity="1" fill-rule="nonzero"/><path fill="#000000" d="M 86.6875 253.824219 L 45.136719 253.824219 C 44.832031 253.824219 44.585938 253.578125 44.585938 253.273438 C 44.585938 252.964844 44.832031 252.71875 45.136719 252.71875 L 86.6875 252.71875 C 86.992188 252.71875 87.238281 252.964844 87.238281 253.273438 C 87.238281 253.578125 86.992188 253.824219 86.6875 253.824219 " fill-opacity="1" fill-rule="nonzero"/><path fill="#000000" d="M 97.136719 261.523438 L 89.585938 261.523438 C 89.28125 261.523438 89.035156 261.277344 89.035156 260.972656 C 89.035156 260.664062 89.28125 260.417969 89.585938 260.417969 L 97.136719 260.417969 C 97.441406 260.417969 97.691406 260.664062 97.691406 260.972656 C 97.691406 261.277344 97.441406 261.523438 97.136719 261.523438 " fill-opacity="1" fill-rule="nonzero"/><path fill="#000000" d="M 86.363281 261.523438 L 44.8125 261.523438 C 44.507812 261.523438 44.261719 261.277344 44.261719 260.972656 C 44.261719 260.664062 44.507812 260.417969 44.8125 260.417969 L 86.363281 260.417969 C 86.667969 260.417969 86.914062 260.664062 86.914062 260.972656 C 86.914062 261.277344 86.667969 261.523438 86.363281 261.523438 " fill-opacity="1" fill-rule="nonzero"/><path fill="#ffffff" d="M 44.433594 318.429688 L 196.609375 318.429688 L 196.609375 281.144531 L 44.433594 281.144531 C 48.925781 293.738281 49.050781 306.171875 44.433594 318.429688 " fill-opacity="1" fill-rule="nonzero"/><path fill="#000000" d="M 45.226562 317.875 L 196.054688 317.875 L 196.054688 281.699219 L 45.210938 281.699219 C 49.4375 294.015625 49.441406 306.179688 45.226562 317.875 Z M 196.609375 318.980469 L 44.433594 318.980469 C 44.253906 318.980469 44.082031 318.890625 43.980469 318.742188 C 43.875 318.59375 43.851562 318.402344 43.917969 318.234375 C 48.402344 306.324219 48.398438 293.910156 43.914062 281.332031 C 43.855469 281.164062 43.878906 280.976562 43.984375 280.828125 C 44.085938 280.683594 44.253906 280.59375 44.433594 280.59375 L 196.609375 280.59375 C 196.914062 280.59375 197.160156 280.84375 197.160156 281.144531 L 197.160156 318.429688 C 197.160156 318.734375 196.914062 318.980469 196.609375 318.980469 " fill-opacity="1" fill-rule="nonzero"/><path fill="#ffffff" d="M 178.289062 282.984375 L 43.386719 282.984375 C 41.765625 282.984375 40.449219 281.671875 40.449219 280.050781 C 40.449219 278.425781 41.765625 277.113281 43.386719 277.113281 L 218.445312 277.113281 C 225.574219 277.113281 231.351562 282.890625 231.351562 290.019531 L 231.351562 310.3125 C 231.351562 317.445312 225.574219 323.222656 218.445312 323.222656 L 43.386719 323.222656 C 41.765625 323.222656 40.449219 321.90625 40.449219 320.285156 C 40.449219 318.664062 41.765625 317.347656 43.386719 317.347656 L 178.289062 317.347656 C 183.324219 317.347656 187.40625 313.265625 187.40625 308.226562 L 187.40625 292.105469 C 187.40625 287.070312 183.324219 282.984375 178.289062 282.984375 " fill-opacity="1" fill-rule="nonzero"/><path fill="#000000" d="M 43.386719 317.898438 C 42.070312 317.898438 41 318.96875 41 320.285156 C 41 321.601562 42.070312 322.671875 43.386719 322.671875 L 218.445312 322.671875 C 225.257812 322.671875 230.800781 317.128906 230.800781 310.3125 L 230.800781 290.019531 C 230.800781 283.207031 225.257812 277.664062 218.445312 277.664062 L 43.386719 277.664062 C 42.070312 277.664062 41 278.734375 41 280.050781 C 41 281.363281 42.070312 282.433594 43.386719 282.433594 L 178.289062 282.433594 C 183.621094 282.433594 187.960938 286.773438 187.960938 292.105469 L 187.960938 308.226562 C 187.960938 313.558594 183.621094 317.898438 178.289062 317.898438 Z M 218.445312 323.773438 L 43.386719 323.773438 C 41.460938 323.773438 39.898438 322.207031 39.898438 320.285156 C 39.898438 318.359375 41.460938 316.796875 43.386719 316.796875 L 178.289062 316.796875 C 183.011719 316.796875 186.855469 312.949219 186.855469 308.226562 L 186.855469 292.105469 C 186.855469 287.382812 183.011719 283.539062 178.289062 283.539062 L 43.386719 283.539062 C 41.460938 283.539062 39.898438 281.972656 39.898438 280.050781 C 39.898438 278.125 41.460938 276.558594 43.386719 276.558594 L 218.445312 276.558594 C 225.867188 276.558594 231.902344 282.597656 231.902344 290.019531 L 231.902344 310.3125 C 231.902344 317.734375 225.867188 323.773438 218.445312 323.773438 " fill-opacity="1" fill-rule="nonzero"/><path fill="#000000" d="M 69.59375 290.550781 L 47.125 290.550781 C 46.820312 290.550781 46.574219 290.304688 46.574219 290 C 46.574219 289.695312 46.820312 289.449219 47.125 289.449219 L 69.59375 289.449219 C 69.902344 289.449219 70.148438 289.695312 70.148438 290 C 70.148438 290.304688 69.902344 290.550781 69.59375 290.550781 " fill-opacity="1" fill-rule="nonzero"/><path fill="#000000" d="M 114.292969 290.550781 L 73.449219 290.550781 C 73.144531 290.550781 72.894531 290.304688 72.894531 290 C 72.894531 289.695312 73.144531 289.449219 73.449219 289.449219 L 114.292969 289.449219 C 114.597656 289.449219 114.84375 289.695312 114.84375 290 C 114.84375 290.304688 114.597656 290.550781 114.292969 290.550781 " fill-opacity="1" fill-rule="nonzero"/><path fill="#000000" d="M 103.75 295.527344 L 47.597656 295.527344 C 47.292969 295.527344 47.046875 295.28125 47.046875 294.976562 C 47.046875 294.671875 47.292969 294.421875 47.597656 294.421875 L 103.75 294.421875 C 104.054688 294.421875 104.300781 294.671875 104.300781 294.976562 C 104.300781 295.28125 104.054688 295.527344 103.75 295.527344 " fill-opacity="1" fill-rule="nonzero"/><path fill="#000000" d="M 119.929688 295.527344 L 108.5 295.527344 C 108.195312 295.527344 107.949219 295.28125 107.949219 294.976562 C 107.949219 294.671875 108.195312 294.421875 108.5 294.421875 L 119.929688 294.421875 C 120.234375 294.421875 120.480469 294.671875 120.480469 294.976562 C 120.480469 295.28125 120.234375 295.527344 119.929688 295.527344 " fill-opacity="1" fill-rule="nonzero"/><path fill="#000000" d="M 107.140625 305.914062 L 47.597656 305.914062 C 47.292969 305.914062 47.046875 305.667969 47.046875 305.363281 C 47.046875 305.058594 47.292969 304.808594 47.597656 304.808594 L 107.140625 304.808594 C 107.449219 304.808594 107.695312 305.058594 107.695312 305.363281 C 107.695312 305.667969 107.449219 305.914062 107.140625 305.914062 " fill-opacity="1" fill-rule="nonzero"/><path fill="#000000" d="M 114.292969 305.914062 L 111.324219 305.914062 C 111.019531 305.914062 110.773438 305.667969 110.773438 305.363281 C 110.773438 305.058594 111.019531 304.808594 111.324219 304.808594 L 114.292969 304.808594 C 114.597656 304.808594 114.84375 305.058594 114.84375 305.363281 C 114.84375 305.667969 114.597656 305.914062 114.292969 305.914062 " fill-opacity="1" fill-rule="nonzero"/><path fill="#ffffff" d="M 152.824219 302.453125 C 153.785156 301.484375 159.347656 284.179688 159.347656 284.179688 L 170.335938 292.023438 L 158.289062 308.214844 L 152.824219 302.453125 " fill-opacity="1" fill-rule="nonzero"/><path fill="#000000" d="M 153.511719 302.378906 L 158.238281 307.359375 L 169.558594 292.144531 L 159.640625 285.070312 C 158.238281 289.414062 154.792969 299.917969 153.511719 302.378906 Z M 158.289062 308.765625 C 158.136719 308.765625 157.992188 308.703125 157.886719 308.59375 L 152.421875 302.835938 C 152.21875 302.621094 152.21875 302.285156 152.425781 302.070312 C 153.125 301.238281 156.71875 290.554688 158.820312 284.011719 C 158.875 283.84375 159.003906 283.714844 159.175781 283.65625 C 159.339844 283.601562 159.523438 283.628906 159.667969 283.730469 L 170.65625 291.574219 C 170.777344 291.660156 170.859375 291.789062 170.882812 291.9375 C 170.90625 292.082031 170.867188 292.234375 170.78125 292.351562 L 158.730469 308.542969 C 158.632812 308.675781 158.484375 308.757812 158.320312 308.765625 C 158.308594 308.765625 158.300781 308.765625 158.289062 308.765625 " fill-opacity="1" fill-rule="nonzero"/><path fill="#000000" d="M 172.628906 324.332031 L 165.320312 324.285156 C 160.484375 324.257812 155.988281 321.800781 153.347656 317.75 L 146.125 306.308594 C 144.125 303.144531 145.242188 298.957031 148.546875 297.199219 C 151.5625 295.597656 154.722656 294.035156 155.464844 294.105469 C 156.964844 294.25 157.574219 301.363281 157.574219 301.363281 L 164.085938 301.613281 C 164.085938 301.613281 167.300781 314.988281 170.132812 316.511719 C 172.191406 317.617188 173.632812 319.246094 174.601562 320.730469 C 175.617188 322.285156 174.484375 324.34375 172.628906 324.332031 " fill-opacity="1" fill-rule="nonzero"/><path fill="#ffffff" d="M 171.894531 322.027344 C 171.867188 322.027344 171.835938 322.027344 171.808594 322.023438 L 161.8125 320.515625 C 159.398438 320.152344 157.296875 318.742188 156.042969 316.648438 L 147.207031 301.890625 C 147.050781 301.628906 147.136719 301.289062 147.398438 301.132812 C 147.660156 300.976562 148 301.0625 148.15625 301.324219 L 156.988281 316.082031 C 158.070312 317.890625 159.890625 319.113281 161.976562 319.425781 L 171.972656 320.929688 C 172.277344 320.976562 172.484375 321.257812 172.4375 321.558594 C 172.394531 321.832031 172.160156 322.027344 171.894531 322.027344 " fill-opacity="1" fill-rule="nonzero"/><path fill="#ffffff" d="M 159.554688 310.929688 C 159.3125 310.929688 159.085938 310.769531 159.019531 310.523438 C 158.941406 310.230469 159.113281 309.925781 159.40625 309.847656 L 164.976562 308.328125 C 165.273438 308.25 165.574219 308.421875 165.65625 308.71875 C 165.734375 309.011719 165.5625 309.316406 165.265625 309.394531 L 159.699219 310.910156 C 159.648438 310.925781 159.601562 310.929688 159.554688 310.929688 " fill-opacity="1" fill-rule="nonzero"/><path fill="#ffffff" d="M 162.453125 313.792969 C 162.203125 313.792969 161.980469 313.621094 161.917969 313.371094 C 161.847656 313.074219 162.027344 312.777344 162.324219 312.703125 L 166.058594 311.789062 C 166.355469 311.71875 166.652344 311.898438 166.726562 312.195312 C 166.796875 312.492188 166.613281 312.789062 166.320312 312.859375 L 162.585938 313.773438 C 162.542969 313.785156 162.496094 313.792969 162.453125 313.792969 " fill-opacity="1" fill-rule="nonzero"/><path fill="#ffffff" d="M 190.320312 299.152344 L 203.078125 311.972656 L 209.84375 309.488281 L 198.082031 293.089844 L 190.320312 299.152344 " fill-opacity="1" fill-rule="nonzero"/><path fill="#000000" d="M 191.152344 299.207031 L 203.222656 311.332031 L 208.972656 309.222656 L 197.96875 293.878906 Z M 203.078125 312.527344 C 202.9375 312.527344 202.796875 312.46875 202.6875 312.363281 L 189.929688 299.542969 C 189.816406 299.433594 189.757812 299.277344 189.769531 299.121094 C 189.78125 298.960938 189.855469 298.816406 189.980469 298.71875 L 197.742188 292.652344 C 197.859375 292.5625 198.011719 292.523438 198.160156 292.542969 C 198.308594 292.5625 198.441406 292.644531 198.53125 292.765625 L 210.292969 309.167969 C 210.394531 309.308594 210.421875 309.488281 210.371094 309.652344 C 210.320312 309.816406 210.195312 309.949219 210.035156 310.007812 L 203.269531 312.492188 C 203.207031 312.515625 203.144531 312.527344 203.078125 312.527344 " fill-opacity="1" fill-rule="nonzero"/><path fill="#000000" d="M 199.046875 309.96875 C 199.046875 309.96875 198.433594 315.421875 199.480469 320.242188 C 200.035156 322.808594 202.351562 324.617188 204.976562 324.617188 L 236.292969 324.617188 C 238.53125 324.617188 239.542969 321.820312 237.828125 320.386719 C 232.261719 315.71875 222.019531 308.597656 209.425781 306.507812 L 205.914062 311.421875 L 199.046875 309.96875 " fill-opacity="1" fill-rule="nonzero"/><path fill="#ffffff" d="M 234.804688 320.863281 L 202.351562 320.863281 C 202.046875 320.863281 201.796875 320.617188 201.796875 320.308594 C 201.796875 320.003906 202.046875 319.757812 202.351562 319.757812 L 234.804688 319.757812 C 235.109375 319.757812 235.355469 320.003906 235.355469 320.308594 C 235.355469 320.617188 235.109375 320.863281 234.804688 320.863281 " fill-opacity="1" fill-rule="nonzero"/><path fill="#ffffff" d="M 216.695312 315.097656 C 216.625 315.097656 216.554688 315.085938 216.484375 315.054688 C 216.203125 314.941406 216.066406 314.617188 216.183594 314.335938 L 217.902344 310.167969 C 218.019531 309.886719 218.339844 309.75 218.625 309.871094 C 218.90625 309.984375 219.039062 310.308594 218.925781 310.589844 L 217.207031 314.753906 C 217.117188 314.96875 216.914062 315.097656 216.695312 315.097656 " fill-opacity="1" fill-rule="nonzero"/><path fill="#ffffff" d="M 222.34375 316.195312 C 222.285156 316.195312 222.226562 316.183594 222.171875 316.164062 C 221.878906 316.070312 221.722656 315.757812 221.820312 315.46875 L 223.0625 311.707031 C 223.160156 311.417969 223.46875 311.261719 223.757812 311.359375 C 224.050781 311.453125 224.207031 311.765625 224.113281 312.054688 L 222.867188 315.816406 C 222.789062 316.046875 222.574219 316.195312 222.34375 316.195312 " fill-opacity="1" fill-rule="nonzero"/><path fill="#000000" d="M 122.785156 209.449219 C 122.785156 209.449219 181.097656 202.660156 198.4375 217.671875 C 215.773438 232.679688 171.0625 297.226562 171.0625 297.226562 L 156.925781 286.738281 L 170.335938 241.117188 L 116.433594 225.8125 L 122.785156 209.449219 " fill-opacity="1" fill-rule="nonzero"/><path fill="#000000" d="M 90.691406 239.15625 C 99.164062 241.84375 114.320312 245.320312 135.5 245.03125 C 141.519531 244.949219 147.078125 248.273438 149.808594 253.636719 C 156.085938 265.941406 169.664062 288.09375 191.785156 302.453125 L 202.351562 296.765625 L 175.386719 236.0625 C 172.921875 230.519531 168.320312 226.214844 162.628906 224.125 L 109.183594 204.53125 C 109.183594 204.53125 92.613281 199.898438 84.488281 214.691406 C 83.039062 217.332031 80.34375 212.609375 79.703125 214.742188 C 77.503906 222.050781 83.417969 236.847656 90.691406 239.15625 " fill-opacity="1" fill-rule="nonzero"/><path fill="#ffffff" d="M 187.570312 264.046875 C 187.359375 264.046875 187.15625 263.921875 187.066406 263.71875 L 174.882812 236.289062 C 172.496094 230.914062 167.957031 226.667969 162.4375 224.644531 L 136.84375 215.261719 C 136.558594 215.15625 136.410156 214.839844 136.515625 214.550781 C 136.621094 214.265625 136.9375 214.117188 137.222656 214.222656 L 162.816406 223.609375 C 168.617188 225.734375 173.382812 230.195312 175.890625 235.839844 L 188.074219 263.269531 C 188.199219 263.546875 188.074219 263.875 187.796875 264 C 187.722656 264.03125 187.644531 264.046875 187.570312 264.046875 " fill-opacity="1" fill-rule="nonzero"/><path fill="#ffffff" d="M 173.34375 287.625 C 173.199219 287.625 173.054688 287.566406 172.945312 287.457031 C 170.492188 284.90625 168.078125 282.164062 165.769531 279.3125 C 165.578125 279.074219 165.617188 278.726562 165.851562 278.535156 C 166.089844 278.34375 166.4375 278.378906 166.628906 278.617188 C 168.917969 281.445312 171.308594 284.160156 173.742188 286.691406 C 173.953125 286.910156 173.945312 287.261719 173.726562 287.472656 C 173.617188 287.574219 173.480469 287.625 173.34375 287.625 " fill-opacity="1" fill-rule="nonzero"/><path fill="#ffffff" d="M 166.199219 279.515625 C 166.039062 279.515625 165.878906 279.445312 165.769531 279.3125 C 164.636719 277.914062 163.507812 276.457031 162.414062 274.984375 C 162.230469 274.742188 162.28125 274.394531 162.523438 274.210938 C 162.769531 274.03125 163.117188 274.082031 163.296875 274.328125 C 164.386719 275.785156 165.503906 277.230469 166.628906 278.617188 C 166.820312 278.851562 166.785156 279.203125 166.546875 279.394531 C 166.445312 279.476562 166.320312 279.515625 166.199219 279.515625 " fill-opacity="1" fill-rule="nonzero"/><path fill="#ffffff" d="M 198.789062 124.160156 L 183.597656 132.359375 C 183.597656 132.359375 174.289062 156.644531 160.957031 158.105469 C 147.628906 159.570312 134.441406 141.132812 134.441406 141.132812 L 125.59375 160.0625 C 125.59375 160.0625 138.585938 180.152344 159.191406 176.914062 C 179.796875 173.675781 185.410156 142.726562 185.410156 142.726562 C 185.398438 142.746094 190.285156 143.207031 192.128906 138.449219 C 193.695312 134.402344 193.039062 132.015625 193.039062 132.015625 C 193.039062 132.015625 200.359375 128.109375 198.789062 124.160156 " fill-opacity="1" fill-rule="nonzero"/><path fill="#000000" d="M 126.226562 160.011719 C 127.8125 162.292969 140.34375 179.320312 159.105469 176.371094 C 179.082031 173.230469 184.8125 142.933594 184.867188 142.628906 C 184.910156 142.398438 185.089844 142.21875 185.320312 142.179688 C 185.386719 142.171875 185.449219 142.171875 185.511719 142.183594 C 185.753906 142.203125 189.988281 142.445312 191.613281 138.25 C 193.082031 134.453125 192.511719 132.183594 192.507812 132.160156 C 192.441406 131.914062 192.554688 131.652344 192.78125 131.527344 C 192.84375 131.496094 198.863281 128.234375 198.4375 124.976562 L 184.039062 132.746094 C 183.066406 135.214844 174.046875 157.226562 161.015625 158.65625 C 160.484375 158.714844 159.949219 158.742188 159.417969 158.742188 C 147.90625 158.742188 137.117188 145.570312 134.550781 142.203125 Z M 154.757812 177.816406 C 146.011719 177.816406 138.949219 173.804688 134.324219 170.136719 C 128.496094 165.515625 125.265625 160.570312 125.128906 160.363281 C 125.027344 160.203125 125.015625 160.003906 125.09375 159.828125 L 133.941406 140.898438 C 134.023438 140.71875 134.195312 140.601562 134.390625 140.582031 C 134.585938 140.566406 134.777344 140.652344 134.890625 140.8125 C 135.019531 140.992188 148.046875 158.964844 160.898438 157.558594 C 173.738281 156.148438 182.992188 132.402344 183.082031 132.160156 C 183.132812 132.039062 183.222656 131.933594 183.335938 131.871094 L 198.527344 123.671875 C 198.667969 123.597656 198.832031 123.585938 198.976562 123.640625 C 199.125 123.695312 199.246094 123.808594 199.304688 123.953125 C 200.839844 127.820312 195.171875 131.421875 193.65625 132.304688 C 193.78125 133.199219 193.890625 135.425781 192.640625 138.648438 C 191.289062 142.148438 188.398438 143.023438 186.796875 143.230469 C 186.402344 143.285156 186.09375 143.304688 185.855469 143.308594 C 185.476562 145.136719 183.925781 151.886719 180.523438 158.847656 C 175.234375 169.671875 167.886719 176.105469 159.277344 177.460938 C 157.726562 177.703125 156.21875 177.816406 154.757812 177.816406 " fill-opacity="1" fill-rule="nonzero"/><path fill="#000000" d="M 184.976562 140.691406 C 184.742188 140.691406 184.523438 140.539062 184.449219 140.304688 C 184.359375 140.011719 184.523438 139.703125 184.8125 139.613281 C 184.835938 139.605469 187.316406 138.808594 187.59375 136.824219 C 187.792969 135.394531 188.617188 134.3125 189.273438 133.65625 C 189.804688 133.128906 190.121094 132.441406 190.171875 131.695312 L 185.816406 133.433594 C 185.53125 133.542969 185.210938 133.40625 185.097656 133.121094 C 184.984375 132.839844 185.121094 132.519531 185.40625 132.40625 L 190.527344 130.363281 C 190.699219 130.292969 190.890625 130.316406 191.042969 130.417969 C 191.195312 130.519531 191.285156 130.691406 191.285156 130.875 L 191.285156 131.464844 C 191.285156 132.59375 190.847656 133.648438 190.054688 134.441406 C 189.515625 134.976562 188.84375 135.847656 188.6875 136.972656 C 188.316406 139.660156 185.269531 140.628906 185.140625 140.667969 C 185.085938 140.683594 185.027344 140.691406 184.976562 140.691406 " fill-opacity="1" fill-rule="nonzero"/><path fill="#0c2840" d="M 87.019531 132.753906 C 93.699219 131.179688 96.488281 131.160156 120.773438 132.039062 C 126.707031 132.253906 133.769531 139.703125 134.464844 145.605469 C 132.578125 151.261719 123.871094 179.195312 139.074219 201.019531 C 141.230469 204.117188 144.160156 207.515625 148.1875 210.769531 C 145.925781 212.597656 142.410156 214.976562 137.691406 216.378906 C 129.855469 218.707031 125.917969 216.191406 119.601562 216.378906 C 102.898438 216.878906 96.773438 235.480469 85.984375 233.144531 C 83.105469 232.519531 79.289062 230.273438 75.707031 222.734375 C 73.679688 216.484375 71.875 209.148438 70.867188 200.855469 C 68.144531 178.371094 72.601562 159.652344 76.585938 147.90625 C 77.769531 144.195312 79.140625 134.605469 87.019531 132.753906 " fill-opacity="1" fill-rule="nonzero"/><path fill="#0c2840" d="M 146.375 149.617188 C 146.375 149.617188 133.617188 133.546875 122.371094 132.265625 L 127.914062 174.8125 L 146.375 149.617188 " fill-opacity="1" fill-rule="nonzero"/><path fill="#ffffff" d="M 122.839844 177.816406 L 115.734375 178.59375 C 115.582031 178.609375 115.433594 178.65625 115.300781 178.730469 L 100.550781 186.664062 C 100.335938 186.78125 100.09375 186.828125 99.851562 186.796875 L 84.183594 184.898438 C 81.386719 184.5625 79.488281 181.890625 80.085938 179.136719 L 83.441406 163.703125 C 83.523438 163.328125 83.417969 162.941406 83.160156 162.65625 L 68.570312 146.546875 C 67.921875 145.832031 66.742188 146.148438 66.539062 147.085938 C 65.035156 154.042969 54.859375 180.851562 62.222656 193.40625 C 70.03125 206.71875 99.664062 197.421875 99.664062 197.421875 C 99.664062 197.421875 99.785156 197.460938 99.953125 197.382812 C 99.953125 197.382812 103.691406 195.703125 105.855469 194.773438 C 107.945312 193.882812 110.242188 190.554688 111.347656 188.792969 C 111.714844 188.203125 112.507812 188.058594 113.0625 188.476562 L 115.808594 190.550781 C 117.75 192.015625 120.507812 191.601562 121.945312 189.640625 C 122.910156 188.328125 123.722656 187.046875 123.679688 186.65625 C 123.472656 184.683594 122.917969 183.902344 121.136719 183.125 C 121.070312 183.097656 121.007812 183.066406 120.949219 183.023438 L 120.527344 182.742188 C 119.609375 182.121094 119.964844 180.703125 121.0625 180.582031 C 122.265625 180.453125 123.699219 180.566406 124.984375 181.402344 C 125.398438 181.675781 125.777344 181.882812 126.117188 182.03125 C 127.488281 182.648438 128.457031 180.617188 127.136719 179.902344 L 123.53125 177.953125 C 123.320312 177.839844 123.078125 177.792969 122.839844 177.816406 " fill-opacity="1" fill-rule="nonzero"/><path fill="#000000" d="M 123.128906 186.671875 Z M 67.695312 146.707031 C 67.640625 146.707031 67.585938 146.714844 67.527344 146.730469 C 67.296875 146.792969 67.128906 146.96875 67.078125 147.203125 C 66.804688 148.464844 66.265625 150.316406 65.585938 152.660156 C 62.503906 163.269531 56.769531 183.015625 62.699219 193.128906 C 70.199219 205.910156 99.207031 196.984375 99.5 196.894531 L 99.664062 196.84375 L 99.75 196.871094 C 100.089844 196.71875 103.589844 195.144531 105.640625 194.265625 C 107.050781 193.664062 108.957031 191.5625 110.878906 188.5 C 111.136719 188.085938 111.558594 187.800781 112.035156 187.714844 C 112.511719 187.625 113.007812 187.746094 113.394531 188.035156 L 116.140625 190.109375 C 116.957031 190.726562 117.960938 190.984375 118.976562 190.835938 C 119.992188 190.6875 120.890625 190.144531 121.5 189.316406 C 122.707031 187.671875 123.089844 186.886719 123.128906 186.683594 C 122.9375 184.921875 122.5 184.324219 120.914062 183.632812 C 120.816406 183.589844 120.726562 183.539062 120.640625 183.484375 L 120.21875 183.195312 C 119.605469 182.785156 119.328125 182.058594 119.503906 181.34375 C 119.679688 180.625 120.269531 180.113281 121.003906 180.03125 C 122.644531 179.855469 124.085938 180.160156 125.285156 180.941406 C 125.660156 181.183594 126.015625 181.382812 126.34375 181.527344 C 126.847656 181.753906 127.089844 181.324219 127.132812 181.234375 C 127.164062 181.179688 127.394531 180.667969 126.875 180.386719 L 123.265625 178.4375 C 123.152344 178.375 123.027344 178.351562 122.898438 178.367188 L 115.792969 179.140625 C 115.710938 179.152344 115.632812 179.175781 115.5625 179.214844 L 100.8125 187.148438 C 100.496094 187.320312 100.140625 187.386719 99.78125 187.34375 L 84.117188 185.449219 C 82.632812 185.269531 81.28125 184.464844 80.410156 183.242188 C 79.542969 182.023438 79.226562 180.484375 79.546875 179.019531 L 82.902344 163.585938 C 82.945312 163.386719 82.886719 163.179688 82.753906 163.03125 L 68.160156 146.917969 C 68.035156 146.78125 67.871094 146.707031 67.695312 146.707031 Z M 79.671875 201.167969 C 72.398438 201.167969 65.148438 199.484375 61.746094 193.6875 C 55.578125 183.164062 61.398438 163.121094 64.527344 152.351562 C 65.199219 150.027344 65.734375 148.191406 66 146.96875 C 66.136719 146.332031 66.613281 145.832031 67.242188 145.664062 C 67.875 145.496094 68.539062 145.691406 68.980469 146.175781 L 83.570312 162.289062 C 83.945312 162.703125 84.097656 163.273438 83.980469 163.820312 L 80.625 179.253906 C 80.371094 180.414062 80.625 181.636719 81.3125 182.601562 C 82 183.574219 83.070312 184.210938 84.25 184.351562 L 99.917969 186.25 C 100.046875 186.265625 100.175781 186.238281 100.289062 186.179688 L 115.039062 178.242188 C 115.238281 178.136719 115.449219 178.070312 115.671875 178.042969 L 122.777344 177.269531 C 123.132812 177.230469 123.480469 177.300781 123.792969 177.46875 L 127.398438 179.417969 C 128.367188 179.9375 128.496094 180.972656 128.125 181.722656 C 127.761719 182.460938 126.878906 182.980469 125.890625 182.535156 C 125.511719 182.367188 125.105469 182.140625 124.683594 181.867188 C 123.703125 181.230469 122.503906 180.980469 121.125 181.128906 C 120.714844 181.175781 120.601562 181.507812 120.574219 181.609375 C 120.550781 181.707031 120.496094 182.054688 120.835938 182.28125 L 121.257812 182.566406 C 121.289062 182.589844 121.320312 182.605469 121.355469 182.621094 C 123.304688 183.46875 124 184.433594 124.230469 186.597656 C 124.253906 186.824219 124.308594 187.355469 122.390625 189.96875 C 121.605469 191.039062 120.449219 191.734375 119.136719 191.929688 C 117.828125 192.117188 116.527344 191.785156 115.476562 190.992188 L 112.730469 188.917969 C 112.585938 188.808594 112.410156 188.765625 112.234375 188.800781 C 112.058594 188.832031 111.910156 188.933594 111.816406 189.085938 C 110.617188 190.996094 108.28125 194.339844 106.074219 195.285156 C 103.9375 196.195312 100.214844 197.871094 100.179688 197.886719 C 100 197.96875 99.839844 197.984375 99.71875 197.980469 C 98.425781 198.378906 89.027344 201.167969 79.671875 201.167969 " fill-opacity="1" fill-rule="nonzero"/><path fill="#ffffff" d="M 114.84375 182.855469 L 122.839844 188.386719 L 114.84375 182.855469 " fill-opacity="1" fill-rule="nonzero"/><path fill="#000000" d="M 122.839844 188.9375 C 122.730469 188.9375 122.621094 188.90625 122.523438 188.839844 L 114.53125 183.308594 C 114.277344 183.136719 114.214844 182.792969 114.390625 182.542969 C 114.5625 182.292969 114.90625 182.226562 115.15625 182.402344 L 123.152344 187.929688 C 123.402344 188.105469 123.464844 188.449219 123.292969 188.699219 C 123.183594 188.855469 123.011719 188.9375 122.839844 188.9375 " fill-opacity="1" fill-rule="nonzero"/><path fill="#ffffff" d="M 113.980469 185.664062 L 121.015625 190.789062 L 113.980469 185.664062 " fill-opacity="1" fill-rule="nonzero"/><path fill="#000000" d="M 121.015625 191.339844 C 120.902344 191.339844 120.789062 191.308594 120.691406 191.234375 L 113.65625 186.109375 C 113.410156 185.929688 113.355469 185.585938 113.535156 185.339844 C 113.714844 185.089844 114.058594 185.039062 114.304688 185.21875 L 121.339844 190.34375 C 121.589844 190.523438 121.644531 190.867188 121.460938 191.113281 C 121.355469 191.261719 121.1875 191.339844 121.015625 191.339844 " fill-opacity="1" fill-rule="nonzero"/><path fill="#0c2840" d="M 56.882812 164.515625 C 56.882812 164.515625 61.109375 154.152344 63.882812 147.285156 C 70.03125 132.039062 89.375 132.039062 89.375 132.039062 L 84.972656 172.308594 L 56.882812 164.515625 " fill-opacity="1" fill-rule="nonzero"/><path fill="#000000" d="M 100.082031 118.101562 C 98.339844 118.976562 97.027344 119.105469 96.078125 119.050781 C 92.660156 118.855469 90.464844 116.097656 90.027344 115.542969 C 87.757812 112.695312 86.667969 108.011719 88.589844 105.265625 C 89.972656 103.285156 91.714844 104.035156 93.308594 101.820312 C 95.117188 99.308594 93.261719 97.257812 94.929688 95.058594 C 96.851562 92.527344 101.085938 92.71875 101.847656 92.753906 C 104.460938 92.875 104.773438 94.171875 107.242188 94.101562 C 109.761719 94.035156 110.097656 92.769531 112.410156 92.753906 C 114.25 92.746094 116.929688 93.527344 118.128906 95.652344 C 119.636719 98.320312 118.097656 101.835938 116.308594 103.691406 C 114.160156 105.917969 112.648438 104.726562 109.640625 106.539062 C 104.425781 109.683594 105.671875 115.285156 100.082031 118.101562 " fill-opacity="1" fill-rule="nonzero"/><path fill="#ffffff" d="M 109.789062 129.964844 L 108.378906 121.183594 C 108.6875 121.148438 111.289062 120.695312 111.585938 120.546875 C 113.992188 119.351562 113.324219 113.308594 113.324219 113.308594 L 114.660156 111.710938 L 110.671875 102.777344 C 106.433594 106.3125 104.921875 102.84375 100.726562 104.582031 C 96.53125 106.320312 98.804688 110.988281 98.804688 110.988281 C 98.804688 110.988281 95.378906 109.480469 96.109375 112.792969 C 96.664062 115.296875 98.488281 115.457031 99.691406 115.355469 L 97.453125 130.410156 C 97.453125 130.410156 90.257812 132.453125 88.863281 132.824219 C 90.675781 132.738281 103.199219 138.183594 117.402344 132.230469 L 109.789062 129.964844 " fill-opacity="1" fill-rule="nonzero"/><path fill="#000000" d="M 91.21875 132.742188 C 95.453125 133.816406 105.035156 136.21875 115.710938 132.304688 L 109.632812 130.492188 C 109.429688 130.433594 109.277344 130.261719 109.246094 130.054688 L 107.832031 121.273438 C 107.808594 121.125 107.847656 120.972656 107.9375 120.851562 C 108.03125 120.730469 108.167969 120.652344 108.316406 120.636719 C 108.65625 120.597656 111.035156 120.171875 111.355469 120.046875 C 113.027344 119.214844 112.949219 114.945312 112.773438 113.371094 C 112.757812 113.21875 112.804688 113.070312 112.898438 112.957031 L 114.015625 111.621094 L 110.453125 103.648438 C 108.160156 105.332031 106.554688 105.0625 105 104.804688 C 103.765625 104.597656 102.597656 104.402344 100.9375 105.089844 C 99.941406 105.503906 99.277344 106.132812 98.964844 106.960938 C 98.3125 108.679688 99.292969 110.726562 99.300781 110.75 C 99.402344 110.957031 99.363281 111.207031 99.203125 111.371094 C 99.042969 111.539062 98.796875 111.589844 98.582031 111.496094 C 98.050781 111.261719 97.101562 111.050781 96.757812 111.335938 C 96.539062 111.519531 96.5 111.992188 96.648438 112.675781 C 97.007812 114.292969 97.929688 114.949219 99.644531 114.804688 C 99.808594 114.789062 99.976562 114.855469 100.09375 114.976562 C 100.207031 115.097656 100.261719 115.269531 100.234375 115.433594 L 98 130.492188 C 97.96875 130.707031 97.8125 130.882812 97.605469 130.941406 C 97.550781 130.953125 93.8125 132.015625 91.21875 132.742188 Z M 103.339844 135.566406 C 97.875 135.566406 93.4375 134.445312 90.90625 133.804688 C 89.96875 133.566406 89.160156 133.363281 88.890625 133.375 C 88.609375 133.390625 88.363281 133.1875 88.320312 132.910156 C 88.277344 132.628906 88.449219 132.363281 88.722656 132.289062 C 89.921875 131.972656 95.511719 130.386719 96.960938 129.976562 L 99.046875 115.925781 C 96.730469 115.851562 95.875 114.28125 95.570312 112.914062 C 95.320312 111.773438 95.484375 110.953125 96.058594 110.480469 C 96.582031 110.054688 97.308594 110.046875 97.914062 110.152344 C 97.65625 109.230469 97.445312 107.859375 97.929688 106.570312 C 98.359375 105.445312 99.226562 104.605469 100.511719 104.074219 C 102.46875 103.261719 103.910156 103.5 105.179688 103.714844 C 106.746094 103.976562 108.101562 104.203125 110.316406 102.355469 C 110.449219 102.246094 110.625 102.203125 110.796875 102.242188 C 110.964844 102.28125 111.105469 102.398438 111.175781 102.554688 L 115.164062 111.484375 C 115.25 111.679688 115.21875 111.902344 115.085938 112.066406 L 113.894531 113.484375 C 114.011719 114.769531 114.300781 119.8125 111.832031 121.042969 C 111.515625 121.199219 109.898438 121.492188 109.011719 121.644531 L 110.28125 129.535156 L 117.5625 131.703125 C 117.785156 131.769531 117.941406 131.96875 117.953125 132.203125 C 117.96875 132.433594 117.832031 132.652344 117.617188 132.742188 C 112.511719 134.878906 107.609375 135.566406 103.339844 135.566406 " fill-opacity="1" fill-rule="nonzero"/><path fill="#000000" d="M 107.398438 121.804688 C 103.710938 121.804688 102.023438 119.007812 101.945312 118.878906 C 101.792969 118.613281 101.878906 118.277344 102.140625 118.121094 C 102.40625 117.96875 102.742188 118.054688 102.898438 118.316406 C 102.964844 118.433594 104.628906 121.140625 108.304688 120.636719 C 108.605469 120.597656 108.882812 120.808594 108.925781 121.109375 C 108.964844 121.410156 108.753906 121.691406 108.453125 121.730469 C 108.085938 121.78125 107.734375 121.804688 107.398438 121.804688 " fill-opacity="1" fill-rule="nonzero"/><path fill="#caddff" d="M 203.832031 216.742188 L 121.535156 216.742188 C 120.804688 216.742188 120.210938 216.148438 120.210938 215.414062 L 120.210938 212.179688 L 205.160156 212.179688 L 205.160156 215.414062 C 205.160156 216.148438 204.566406 216.742188 203.832031 216.742188 " fill-opacity="1" fill-rule="nonzero"/><path fill="#000000" d="M 120.761719 212.730469 L 120.761719 213.8125 C 120.761719 215.125 121.828125 216.191406 123.136719 216.191406 L 202.230469 216.191406 C 203.542969 216.191406 204.609375 215.125 204.609375 213.8125 L 204.609375 212.730469 Z M 202.230469 217.292969 L 123.136719 217.292969 C 121.21875 217.292969 119.65625 215.730469 119.65625 213.8125 L 119.65625 212.179688 C 119.65625 211.875 119.90625 211.628906 120.210938 211.628906 L 205.160156 211.628906 C 205.464844 211.628906 205.710938 211.875 205.710938 212.179688 L 205.710938 213.8125 C 205.710938 215.730469 204.152344 217.292969 202.230469 217.292969 " fill-opacity="1" fill-rule="nonzero"/><path fill="#caddff" d="M 205.160156 212.179688 L 156.550781 212.179688 L 171.996094 166.800781 C 172.921875 165.378906 174.53125 164.515625 176.261719 164.515625 L 217.351562 164.515625 C 219.21875 164.515625 220.417969 166.324219 219.808594 167.921875 C 219.566406 168.558594 219.304688 169.183594 219.09375 169.832031 L 205.160156 212.179688 " fill-opacity="1" fill-rule="nonzero"/><path fill="#000000" d="M 157.324219 211.628906 L 204.761719 211.628906 L 218.570312 169.65625 C 218.726562 169.179688 218.910156 168.710938 219.085938 168.257812 C 219.15625 168.082031 219.226562 167.902344 219.292969 167.726562 C 219.515625 167.144531 219.429688 166.480469 219.066406 165.949219 C 218.679688 165.390625 218.054688 165.066406 217.351562 165.066406 L 176.261719 165.066406 C 174.730469 165.066406 173.328125 165.804688 172.496094 167.046875 Z M 205.160156 212.730469 L 156.550781 212.730469 C 156.375 212.730469 156.207031 212.644531 156.105469 212.5 C 156 212.355469 155.972656 212.171875 156.03125 212.003906 L 171.472656 166.621094 C 171.488281 166.582031 171.507812 166.539062 171.535156 166.5 C 172.566406 164.914062 174.332031 163.964844 176.261719 163.964844 L 217.351562 163.964844 C 218.421875 163.964844 219.378906 164.460938 219.976562 165.324219 C 220.546875 166.152344 220.675781 167.195312 220.324219 168.117188 C 220.257812 168.300781 220.183594 168.480469 220.113281 168.660156 C 219.941406 169.101562 219.765625 169.554688 219.621094 170.003906 L 205.683594 212.351562 C 205.613281 212.578125 205.398438 212.730469 205.160156 212.730469 " fill-opacity="1" fill-rule="nonzero"/><path fill="#ffffff" d="M 187.121094 187.777344 C 186.542969 189.695312 187.429688 191.664062 189.097656 192.167969 C 190.769531 192.671875 192.59375 191.523438 193.175781 189.601562 C 193.753906 187.679688 192.867188 185.710938 191.199219 185.207031 C 189.527344 184.703125 187.703125 185.855469 187.121094 187.777344 " fill-opacity="1" fill-rule="nonzero"/><path fill="#000000" d="M 111.167969 78.1875 C 111.644531 77.714844 111.910156 77.175781 111.910156 76.605469 C 111.910156 74.722656 108.996094 73.195312 105.398438 73.195312 C 101.804688 73.195312 98.890625 74.722656 98.890625 76.605469 C 98.890625 77.175781 99.160156 77.714844 99.632812 78.1875 C 99.160156 78.65625 98.890625 79.199219 98.890625 79.765625 C 98.890625 80.660156 99.546875 81.472656 100.617188 82.082031 C 100.59375 82.179688 100.582031 82.285156 100.582031 82.390625 C 100.582031 83.78125 102.738281 84.910156 105.398438 84.910156 C 108.0625 84.910156 110.21875 83.78125 110.21875 82.390625 C 110.21875 82.285156 110.207031 82.179688 110.179688 82.082031 C 111.253906 81.472656 111.910156 80.660156 111.910156 79.765625 C 111.910156 79.199219 111.644531 78.65625 111.167969 78.1875 " fill-opacity="1" fill-rule="nonzero"/><path fill="#ffffff" d="M 122.871094 50.234375 C 122.871094 40.585938 115.050781 32.761719 105.398438 32.761719 C 95.769531 32.761719 87.992188 40.484375 87.929688 50.117188 C 87.894531 55.019531 89.882812 59.457031 93.109375 62.652344 C 95.4375 64.957031 97.132812 67.816406 97.957031 70.984375 L 97.996094 71.140625 C 98.796875 74.214844 101.570312 76.359375 104.75 76.359375 L 106.050781 76.359375 C 109.230469 76.359375 112.003906 74.214844 112.804688 71.140625 L 112.828125 71.046875 C 113.648438 67.898438 115.273438 65.011719 117.601562 62.742188 C 120.855469 59.566406 122.871094 55.136719 122.871094 50.234375 " fill-opacity="1" fill-rule="nonzero"/><path fill="#000000" d="M 105.398438 33.316406 C 96.132812 33.316406 88.542969 40.851562 88.480469 50.121094 C 88.449219 54.714844 90.230469 59.027344 93.496094 62.261719 C 95.929688 64.667969 97.65625 67.636719 98.492188 70.847656 L 98.53125 71 C 99.265625 73.832031 101.824219 75.808594 104.75 75.808594 L 106.050781 75.808594 C 108.976562 75.808594 111.535156 73.832031 112.269531 71 L 112.292969 70.90625 C 113.152344 67.613281 114.851562 64.648438 117.214844 62.347656 C 120.507812 59.132812 122.320312 54.835938 122.320312 50.234375 C 122.320312 40.90625 114.730469 33.316406 105.398438 33.316406 Z M 106.050781 76.914062 L 104.75 76.914062 C 101.320312 76.914062 98.324219 74.59375 97.460938 71.277344 L 97.421875 71.125 C 96.636719 68.105469 95.011719 65.308594 92.722656 63.042969 C 89.242188 59.601562 87.34375 55.007812 87.375 50.113281 C 87.441406 40.242188 95.527344 32.210938 105.398438 32.210938 C 105.402344 32.210938 105.398438 32.210938 105.398438 32.210938 C 115.339844 32.210938 123.425781 40.296875 123.425781 50.234375 C 123.425781 55.132812 121.492188 59.714844 117.988281 63.136719 C 115.769531 65.300781 114.167969 68.082031 113.363281 71.183594 L 113.339844 71.277344 C 112.476562 74.59375 109.480469 76.914062 106.050781 76.914062 " fill-opacity="1" fill-rule="nonzero"/><path fill="#000000" d="M 106.613281 74.152344 C 106.332031 74.152344 106.089844 73.9375 106.066406 73.652344 C 105.179688 64.074219 109.621094 49.417969 109.808594 48.800781 C 109.898438 48.507812 110.207031 48.34375 110.5 48.433594 C 110.792969 48.519531 110.957031 48.832031 110.867188 49.125 C 110.820312 49.273438 106.296875 64.191406 107.164062 73.550781 C 107.191406 73.851562 106.96875 74.121094 106.664062 74.148438 C 106.648438 74.152344 106.632812 74.152344 106.613281 74.152344 " fill-opacity="1" fill-rule="nonzero"/><path fill="#000000" d="M 104.453125 73.75 C 104.15625 73.75 103.910156 73.507812 103.902344 73.207031 C 103.574219 55.191406 100.046875 50.015625 100.011719 49.964844 C 99.835938 49.714844 99.894531 49.371094 100.140625 49.195312 C 100.386719 49.019531 100.730469 49.074219 100.910156 49.316406 C 101.0625 49.53125 104.671875 54.714844 105.007812 73.1875 C 105.011719 73.492188 104.769531 73.746094 104.464844 73.75 C 104.460938 73.75 104.457031 73.75 104.453125 73.75 " fill-opacity="1" fill-rule="nonzero"/><path fill="#000000" d="M 106.8125 47.851562 C 106.730469 48.117188 106.671875 48.449219 106.6875 48.792969 C 106.695312 48.953125 106.71875 49.113281 106.753906 49.273438 C 106.792969 49.117188 106.820312 48.964844 106.835938 48.8125 C 106.875 48.476562 106.855469 48.132812 106.8125 47.851562 Z M 104.164062 48.117188 C 104.082031 48.394531 104.015625 48.828125 104.0625 49.257812 C 104.089844 49.472656 104.144531 49.703125 104.226562 49.925781 C 104.363281 49.59375 104.433594 49.21875 104.40625 48.894531 C 104.378906 48.601562 104.273438 48.3125 104.164062 48.117188 Z M 105.34375 52.289062 C 105.320312 52.289062 105.292969 52.289062 105.269531 52.289062 C 104.8125 52.265625 104.417969 52.058594 104.089844 51.75 C 103.800781 51.914062 103.484375 52.007812 103.152344 52.011719 C 102.097656 52.03125 101.082031 51.210938 100.691406 50.011719 C 100.597656 49.722656 100.757812 49.410156 101.046875 49.316406 C 101.335938 49.222656 101.648438 49.378906 101.742188 49.671875 C 101.980469 50.398438 102.554688 50.921875 103.128906 50.910156 C 103.234375 50.90625 103.332031 50.886719 103.429688 50.847656 C 103.175781 50.359375 103.015625 49.828125 102.96875 49.382812 C 102.886719 48.660156 103.015625 47.664062 103.425781 47.15625 C 103.632812 46.894531 103.863281 46.820312 104.019531 46.804688 C 104.179688 46.785156 104.425781 46.808594 104.691406 47.027344 C 105.105469 47.367188 105.445312 48.113281 105.503906 48.800781 C 105.566406 49.53125 105.328125 50.371094 104.898438 50.992188 C 105.03125 51.109375 105.175781 51.179688 105.320312 51.183594 C 105.582031 51.195312 105.859375 50.988281 106.105469 50.667969 C 105.789062 50.105469 105.609375 49.421875 105.585938 48.84375 C 105.546875 47.957031 105.867188 46.921875 106.316406 46.488281 C 106.550781 46.257812 106.785156 46.226562 106.941406 46.238281 C 107.085938 46.25 107.292969 46.3125 107.484375 46.539062 C 107.894531 47.039062 108.023438 48.148438 107.933594 48.9375 C 107.875 49.460938 107.703125 50.050781 107.441406 50.59375 C 107.515625 50.644531 107.59375 50.675781 107.664062 50.675781 C 107.929688 50.671875 108.355469 50.25 108.609375 49.554688 C 108.714844 49.269531 109.03125 49.121094 109.316406 49.226562 C 109.605469 49.328125 109.75 49.648438 109.648438 49.933594 C 109.238281 51.058594 108.484375 51.765625 107.679688 51.777344 C 107.367188 51.78125 107.085938 51.683594 106.839844 51.515625 C 106.429688 51.976562 105.925781 52.289062 105.34375 52.289062 " fill-opacity="1" fill-rule="nonzero"/><path fill="#caddff" d="M 110.75 40.675781 C 111.304688 41.214844 111.929688 41.671875 112.460938 42.234375 C 113.03125 42.835938 113.523438 43.546875 113.976562 44.238281 C 114.421875 44.910156 114.835938 45.625 115.136719 46.371094 C 115.277344 46.714844 115.355469 47.085938 115.453125 47.441406 C 115.609375 47.984375 115.863281 49.214844 116.597656 49.261719 C 117.007812 49.285156 117.300781 48.871094 117.488281 48.566406 C 117.820312 48.027344 117.972656 47.394531 118.019531 46.769531 C 118.121094 45.453125 117.78125 44.132812 117.261719 42.933594 C 116.726562 41.691406 115.972656 40.53125 115.027344 39.558594 C 114.636719 39.15625 114.199219 38.773438 113.71875 38.445312 C 113.707031 38.433594 113.691406 38.421875 113.675781 38.410156 C 113.125 37.996094 112.519531 37.566406 111.808594 37.507812 C 111.269531 37.464844 110.691406 37.617188 110.269531 37.964844 C 109.246094 38.8125 110.007812 39.953125 110.75 40.675781 " fill-opacity="1" fill-rule="nonzero"/><path fill="#caddff" d="M 109.234375 37.863281 C 109.464844 37.390625 109.386719 36.574219 109.023438 36.117188 C 109.019531 36.101562 109.015625 36.089844 109.007812 36.074219 C 108.367188 35.027344 106.753906 35.28125 106.519531 36.507812 C 106.277344 37.792969 108.53125 39.316406 109.234375 37.863281 " fill-opacity="1" fill-rule="nonzero"/><path fill="#000000" d="M 110.609375 63.273438 C 110.398438 63.273438 110.195312 63.152344 110.101562 62.941406 C 109.984375 62.664062 110.109375 62.339844 110.390625 62.21875 C 113.710938 60.777344 116.335938 58.007812 117.59375 54.617188 C 117.699219 54.332031 118.019531 54.1875 118.304688 54.292969 C 118.589844 54.398438 118.734375 54.714844 118.628906 55.003906 C 117.269531 58.671875 114.425781 61.671875 110.828125 63.230469 C 110.757812 63.261719 110.683594 63.273438 110.609375 63.273438 " fill-opacity="1" fill-rule="nonzero"/><path fill="#000000" d="M 94.871094 59.914062 C 94.722656 59.914062 94.574219 59.855469 94.464844 59.738281 C 92.019531 57.070312 90.671875 53.605469 90.671875 49.984375 C 90.671875 44.414062 93.785156 39.441406 98.796875 37.003906 C 99.070312 36.871094 99.402344 36.984375 99.535156 37.261719 C 99.667969 37.53125 99.554688 37.863281 99.28125 37.996094 C 94.652344 40.246094 91.777344 44.839844 91.777344 49.984375 C 91.777344 53.328125 93.019531 56.527344 95.277344 58.988281 C 95.484375 59.214844 95.46875 59.5625 95.246094 59.769531 C 95.140625 59.867188 95.003906 59.914062 94.871094 59.914062 " fill-opacity="1" fill-rule="nonzero"/><path fill="#ffffff" d="M 102.980469 79.613281 C 101.328125 79.613281 100.1875 79.4375 100.082031 79.417969 C 99.78125 79.371094 99.578125 79.089844 99.625 78.785156 C 99.675781 78.484375 99.957031 78.28125 100.257812 78.328125 C 100.3125 78.339844 105.855469 79.1875 110.390625 77.003906 C 110.664062 76.871094 110.992188 76.988281 111.125 77.261719 C 111.257812 77.535156 111.140625 77.867188 110.867188 77.996094 C 108.128906 79.316406 105.125 79.613281 102.980469 79.613281 " fill-opacity="1" fill-rule="nonzero"/><path fill="#ffffff" d="M 103.640625 82.667969 C 102.421875 82.667969 101.585938 82.539062 101.511719 82.523438 C 101.210938 82.476562 101.003906 82.195312 101.050781 81.890625 C 101.101562 81.59375 101.382812 81.386719 101.683594 81.4375 C 101.722656 81.441406 105.710938 82.050781 108.960938 80.484375 C 109.238281 80.351562 109.566406 80.464844 109.699219 80.742188 C 109.832031 81.015625 109.714844 81.347656 109.441406 81.476562 C 107.425781 82.449219 105.214844 82.667969 103.640625 82.667969 " fill-opacity="1" fill-rule="nonzero"/><path fill="#000000" d="M 160.472656 45.257812 C 160.375 45.257812 160.273438 45.230469 160.183594 45.175781 C 159.921875 45.015625 159.84375 44.675781 160.003906 44.417969 L 161.03125 42.75 C 161.195312 42.492188 161.53125 42.410156 161.792969 42.570312 C 162.050781 42.730469 162.132812 43.074219 161.972656 43.332031 L 160.941406 44.996094 C 160.835938 45.164062 160.65625 45.257812 160.472656 45.257812 " fill-opacity="1" fill-rule="nonzero"/><path fill="#000000" d="M 156.867188 51.082031 C 156.769531 51.082031 156.667969 51.058594 156.578125 51.003906 C 156.316406 50.839844 156.238281 50.5 156.398438 50.242188 L 157.429688 48.578125 C 157.589844 48.316406 157.929688 48.238281 158.1875 48.398438 C 158.449219 48.558594 158.527344 48.898438 158.367188 49.160156 L 157.335938 50.820312 C 157.234375 50.992188 157.050781 51.082031 156.867188 51.082031 " fill-opacity="1" fill-rule="nonzero"/><path fill="#000000" d="M 157.152344 46.042969 C 157.050781 46.042969 156.949219 46.015625 156.855469 45.957031 L 155.230469 44.917969 C 154.972656 44.757812 154.894531 44.414062 155.0625 44.15625 C 155.222656 43.898438 155.566406 43.824219 155.824219 43.988281 L 157.449219 45.027344 C 157.707031 45.1875 157.78125 45.53125 157.617188 45.789062 C 157.511719 45.953125 157.335938 46.042969 157.152344 46.042969 " fill-opacity="1" fill-rule="nonzero"/><path fill="#000000" d="M 162.84375 49.675781 C 162.742188 49.675781 162.636719 49.644531 162.546875 49.585938 L 160.921875 48.550781 C 160.664062 48.386719 160.589844 48.042969 160.75 47.785156 C 160.914062 47.53125 161.257812 47.453125 161.515625 47.617188 L 163.140625 48.65625 C 163.398438 48.820312 163.472656 49.160156 163.308594 49.417969 C 163.203125 49.582031 163.023438 49.675781 162.84375 49.675781 " fill-opacity="1" fill-rule="nonzero"/><path fill="#000000" d="M 296.976562 66.476562 C 296.679688 66.476562 296.433594 66.238281 296.429688 65.9375 L 296.386719 63.980469 C 296.378906 63.675781 296.621094 63.425781 296.925781 63.417969 C 297.230469 63.410156 297.480469 63.652344 297.488281 63.957031 L 297.53125 65.914062 C 297.535156 66.21875 297.296875 66.472656 296.992188 66.476562 C 296.988281 66.476562 296.984375 66.476562 296.976562 66.476562 " fill-opacity="1" fill-rule="nonzero"/><path fill="#000000" d="M 297.128906 73.328125 C 296.828125 73.328125 296.585938 73.085938 296.578125 72.785156 L 296.535156 70.828125 C 296.527344 70.523438 296.769531 70.273438 297.074219 70.265625 C 297.371094 70.253906 297.632812 70.5 297.636719 70.804688 L 297.683594 72.761719 C 297.6875 73.066406 297.445312 73.320312 297.140625 73.328125 C 297.136719 73.328125 297.132812 73.328125 297.128906 73.328125 " fill-opacity="1" fill-rule="nonzero"/><path fill="#000000" d="M 292.691406 68.957031 C 292.390625 68.957031 292.144531 68.714844 292.140625 68.410156 C 292.136719 68.105469 292.382812 67.855469 292.6875 67.855469 L 294.617188 67.839844 C 294.617188 67.839844 294.621094 67.839844 294.621094 67.839844 C 294.925781 67.839844 295.167969 68.085938 295.171875 68.386719 C 295.175781 68.691406 294.929688 68.941406 294.625 68.941406 L 292.695312 68.957031 C 292.695312 68.957031 292.695312 68.957031 292.691406 68.957031 " fill-opacity="1" fill-rule="nonzero"/><path fill="#000000" d="M 299.445312 68.90625 C 299.140625 68.90625 298.894531 68.660156 298.890625 68.359375 C 298.886719 68.050781 299.132812 67.804688 299.441406 67.800781 L 301.367188 67.785156 C 301.371094 67.785156 301.371094 67.785156 301.375 67.785156 C 301.671875 67.785156 301.921875 68.03125 301.925781 68.332031 C 301.925781 68.636719 301.683594 68.886719 301.375 68.890625 L 299.449219 68.90625 C 299.445312 68.90625 299.445312 68.90625 299.445312 68.90625 " fill-opacity="1" fill-rule="nonzero"/><path fill="#000000" d="M 136.515625 56.472656 C 135.277344 57.027344 134.714844 58.511719 135.261719 59.777344 C 135.527344 60.398438 136.011719 60.867188 136.628906 61.109375 C 137.230469 61.34375 137.886719 61.324219 138.476562 61.0625 C 139.714844 60.503906 140.277344 59.019531 139.730469 57.753906 C 139.464844 57.136719 138.976562 56.664062 138.363281 56.425781 C 137.761719 56.191406 137.105469 56.207031 136.515625 56.472656 Z M 137.496094 62.375 C 137.070312 62.375 136.640625 62.296875 136.230469 62.136719 C 135.335938 61.789062 134.632812 61.105469 134.246094 60.21875 C 133.460938 58.398438 134.277344 56.265625 136.0625 55.464844 C 136.925781 55.078125 137.882812 55.054688 138.761719 55.394531 C 139.65625 55.742188 140.359375 56.425781 140.742188 57.316406 C 141.527344 59.132812 140.714844 61.265625 138.929688 62.066406 C 138.46875 62.273438 137.984375 62.375 137.496094 62.375 " fill-opacity="1" fill-rule="nonzero"/><path fill="#000000" d="M 56.847656 213.214844 C 54.941406 214.070312 54.078125 216.351562 54.917969 218.296875 C 55.328125 219.246094 56.074219 219.972656 57.023438 220.34375 C 57.953125 220.703125 58.964844 220.675781 59.871094 220.269531 C 61.777344 219.414062 62.644531 217.132812 61.804688 215.1875 C 61.394531 214.234375 60.644531 213.507812 59.695312 213.140625 C 58.769531 212.78125 57.757812 212.808594 56.847656 213.214844 Z M 58.363281 221.699219 C 57.773438 221.699219 57.1875 221.589844 56.625 221.371094 C 55.398438 220.894531 54.429688 219.957031 53.902344 218.734375 C 52.824219 216.234375 53.945312 213.308594 56.394531 212.207031 C 57.574219 211.675781 58.890625 211.640625 60.097656 212.113281 C 61.324219 212.589844 62.289062 213.523438 62.816406 214.75 C 63.894531 217.246094 62.777344 220.175781 60.324219 221.273438 C 59.695312 221.558594 59.03125 221.699219 58.363281 221.699219 " fill-opacity="1" fill-rule="nonzero"/><path fill="#000000" d="M 214.894531 121.890625 C 214.757812 121.890625 214.621094 121.839844 214.515625 121.738281 C 214.292969 121.527344 214.285156 121.175781 214.496094 120.957031 L 215.851562 119.542969 C 216.0625 119.324219 216.410156 119.316406 216.628906 119.527344 C 216.851562 119.738281 216.859375 120.085938 216.648438 120.304688 L 215.292969 121.722656 C 215.1875 121.835938 215.039062 121.890625 214.894531 121.890625 " fill-opacity="1" fill-rule="nonzero"/><path fill="#000000" d="M 210.15625 126.839844 C 210.019531 126.839844 209.878906 126.785156 209.773438 126.683594 C 209.554688 126.472656 209.546875 126.125 209.757812 125.90625 L 211.113281 124.488281 C 211.324219 124.269531 211.671875 124.261719 211.890625 124.472656 C 212.113281 124.683594 212.117188 125.035156 211.910156 125.253906 L 210.554688 126.667969 C 210.445312 126.78125 210.300781 126.839844 210.15625 126.839844 " fill-opacity="1" fill-rule="nonzero"/><path fill="#000000" d="M 211.484375 121.964844 C 211.34375 121.964844 211.203125 121.914062 211.097656 121.808594 L 209.722656 120.453125 C 209.503906 120.242188 209.503906 119.890625 209.71875 119.675781 C 209.929688 119.457031 210.28125 119.453125 210.496094 119.667969 L 211.871094 121.019531 C 212.089844 121.234375 212.09375 121.585938 211.878906 121.800781 C 211.769531 121.910156 211.625 121.964844 211.484375 121.964844 " fill-opacity="1" fill-rule="nonzero"/><path fill="#000000" d="M 216.296875 126.703125 C 216.15625 126.703125 216.015625 126.648438 215.90625 126.542969 L 214.535156 125.191406 C 214.316406 124.976562 214.3125 124.625 214.527344 124.410156 C 214.742188 124.191406 215.089844 124.191406 215.308594 124.402344 L 216.683594 125.757812 C 216.898438 125.96875 216.902344 126.320312 216.6875 126.535156 C 216.582031 126.648438 216.4375 126.703125 216.296875 126.703125 " fill-opacity="1" fill-rule="nonzero"/><path fill="#ffffff" d="M 47.125 191.34375 C 46.835938 191.34375 46.59375 191.117188 46.574219 190.824219 C 46.5625 190.648438 45.523438 172.9375 50.238281 150.621094 C 53.011719 137.503906 57.199219 125.386719 62.6875 114.589844 C 69.550781 101.089844 78.484375 89.636719 89.230469 80.558594 C 89.464844 80.363281 89.8125 80.390625 90.007812 80.625 C 90.203125 80.859375 90.175781 81.207031 89.941406 81.402344 C 65.859375 101.746094 55.652344 130.378906 51.328125 150.816406 C 46.632812 172.992188 47.664062 190.578125 47.675781 190.753906 C 47.695312 191.058594 47.464844 191.320312 47.160156 191.339844 C 47.148438 191.339844 47.136719 191.34375 47.125 191.34375 " fill-opacity="1" fill-rule="nonzero"/><path fill="#000000" d="M 43.972656 107.90625 C 43.890625 107.90625 43.804688 107.886719 43.726562 107.847656 C 43.453125 107.714844 43.339844 107.382812 43.476562 107.109375 C 43.636719 106.789062 59.546875 74.976562 79.398438 62.007812 C 79.652344 61.839844 79.996094 61.914062 80.160156 62.167969 C 80.328125 62.421875 80.257812 62.765625 80 62.929688 C 60.398438 75.738281 44.625 107.28125 44.464844 107.597656 C 44.371094 107.792969 44.175781 107.90625 43.972656 107.90625 " fill-opacity="1" fill-rule="nonzero"/><path fill="#ffffff" d="M 299.445312 279.515625 C 299.199219 279.515625 298.976562 279.355469 298.910156 279.105469 C 298.832031 278.8125 299.007812 278.507812 299.300781 278.429688 C 315.808594 274.007812 325.941406 261.984375 329.410156 242.699219 C 332.007812 228.261719 329.679688 214.972656 329.652344 214.839844 C 329.601562 214.539062 329.800781 214.253906 330.101562 214.199219 C 330.398438 214.144531 330.6875 214.34375 330.738281 214.644531 C 330.765625 214.777344 333.128906 228.265625 330.496094 242.894531 C 328.945312 251.515625 325.992188 258.851562 321.71875 264.695312 C 316.359375 272.015625 308.914062 276.996094 299.585938 279.496094 C 299.539062 279.511719 299.492188 279.515625 299.445312 279.515625 " fill-opacity="1" fill-rule="nonzero"/><path fill="#ffffff" d="M 336.410156 243.269531 C 336.378906 243.269531 336.347656 243.269531 336.3125 243.261719 C 336.015625 243.210938 335.8125 242.925781 335.863281 242.625 C 340.480469 215.664062 329.15625 192.355469 329.042969 192.121094 C 328.910156 191.847656 329.019531 191.519531 329.292969 191.382812 C 329.566406 191.25 329.898438 191.359375 330.035156 191.632812 C 330.152344 191.867188 341.632812 215.5 336.953125 242.8125 C 336.90625 243.082031 336.671875 243.269531 336.410156 243.269531 " fill-opacity="1" fill-rule="nonzero"/><path fill="#ffffff" d="M 252.5625 295.699219 L 281.566406 295.699219 C 281.566406 295.699219 285.542969 319.882812 268.234375 321.8125 C 250.921875 323.746094 252.5625 295.699219 252.5625 295.699219 " fill-opacity="1" fill-rule="nonzero"/><path fill="#000000" d="M 253.097656 296.25 C 253.015625 299.070312 252.972656 312.578125 259.238281 318.519531 C 261.582031 320.742188 264.589844 321.664062 268.171875 321.265625 C 272.140625 320.824219 275.269531 319.121094 277.476562 316.210938 C 282.480469 309.601562 281.394531 298.628906 281.089844 296.25 Z M 266.574219 322.460938 C 263.398438 322.460938 260.679688 321.40625 258.476562 319.316406 C 251.128906 312.347656 251.976562 296.34375 252.015625 295.667969 C 252.03125 295.375 252.273438 295.148438 252.566406 295.148438 L 281.570312 295.148438 C 281.839844 295.148438 282.070312 295.34375 282.109375 295.609375 C 282.203125 296.15625 284.25 309.097656 278.355469 316.878906 C 275.957031 320.039062 272.574219 321.886719 268.296875 322.363281 C 267.707031 322.429688 267.132812 322.460938 266.574219 322.460938 " fill-opacity="1" fill-rule="nonzero"/><path fill="#caddff" d="M 261.261719 289.789062 C 259.1875 289.847656 254.773438 289.914062 250.617188 287.082031 C 249.074219 286.035156 244.851562 283.15625 245.246094 279.371094 C 245.585938 276.128906 249.222656 273.140625 254.15625 272.601562 C 248.300781 273.296875 243.589844 268.90625 243.582031 264.375 C 243.578125 260.902344 246.332031 257.453125 250.402344 256.3125 C 244.09375 251.542969 240.777344 243.859375 241.828125 236.230469 C 242.84375 228.816406 247.984375 221.515625 255.738281 219.257812 C 256.710938 218.976562 265.136719 216.667969 271.203125 221.835938 C 276.296875 226.175781 276.355469 232.910156 276.394531 237.5 C 276.460938 245.664062 273.1875 251.867188 271.203125 254.984375 C 271.621094 254.953125 275.804688 253.578125 279.71875 257.054688 C 283.707031 260.597656 283.902344 268.742188 281.960938 271.964844 C 279.925781 275.335938 275.023438 274.625 274.152344 274.871094 C 277.820312 278.109375 277.691406 280.808594 277.648438 281.316406 C 277.234375 286.585938 267.683594 289.601562 261.261719 289.789062 " fill-opacity="1" fill-rule="nonzero"/><path fill="#ffffff" d="M 263.355469 293.554688 C 263.332031 293.554688 263.308594 293.554688 263.28125 293.550781 C 262.980469 293.511719 262.769531 293.230469 262.808594 292.929688 C 266.503906 265.640625 257.871094 234.855469 257.785156 234.546875 C 257.699219 234.253906 257.871094 233.949219 258.164062 233.867188 C 258.457031 233.78125 258.761719 233.949219 258.847656 234.242188 C 258.933594 234.554688 267.628906 265.5625 263.902344 293.078125 C 263.867188 293.355469 263.628906 293.554688 263.355469 293.554688 " fill-opacity="1" fill-rule="nonzero"/><path fill="#19598f" d="M 267.535156 291.046875 C 266.875 289.433594 264.023438 281.992188 267.722656 275.722656 C 268.484375 274.433594 271.027344 270.121094 274.722656 270.425781 C 277.476562 270.652344 279.214844 273.308594 279.597656 273.925781 C 278.484375 269.882812 280.480469 265.785156 283.804688 264.371094 C 287.734375 262.699219 292.949219 265.015625 294.398438 269.859375 C 295.367188 269.582031 297.992188 268.984375 300.640625 270.234375 C 304.128906 271.882812 306.226562 276.050781 305.75 280.640625 C 304.296875 285.566406 299.796875 288.578125 295.53125 288.019531 C 290.898438 287.410156 288.6875 282.863281 288.535156 282.53125 C 289.253906 283.667969 290.316406 285.777344 289.667969 287.828125 C 288.574219 291.277344 283.152344 292.984375 279.265625 291.992188 C 275.652344 291.070312 274.605469 288.136719 271.695312 288.398438 C 269.78125 288.570312 268.359375 290.011719 267.535156 291.046875 " fill-opacity="1" fill-rule="nonzero"/><path fill="#caddff" d="M 267.246094 293.242188 C 267.210938 293.242188 267.179688 293.238281 267.148438 293.234375 C 266.847656 293.179688 266.648438 292.894531 266.699219 292.59375 C 266.785156 292.121094 268.855469 281.046875 279.203125 277.113281 C 286.636719 274.285156 293.308594 277.109375 295.175781 278.042969 C 295.445312 278.179688 295.554688 278.511719 295.421875 278.785156 C 295.285156 279.054688 294.953125 279.167969 294.679688 279.03125 C 292.914062 278.148438 286.609375 275.476562 279.59375 278.144531 C 269.824219 281.859375 267.867188 292.34375 267.785156 292.785156 C 267.738281 293.054688 267.507812 293.242188 267.246094 293.242188 " fill-opacity="1" fill-rule="nonzero"/></svg>