<svg xmlns="http://www.w3.org/2000/svg" xmlns:xlink="http://www.w3.org/1999/xlink" width="500" zoomAndPan="magnify" viewBox="0 0 375 374.999991" height="500" preserveAspectRatio="xMidYMid meet" version="1.0"><path fill="#ffffff" d="M 267.046875 314.222656 C 203 351.628906 124.878906 324.300781 82.121094 281.339844 C 26.105469 225.054688 21.472656 132.570312 61.027344 77.742188 C 77.476562 54.945312 111.816406 23.363281 148.476562 27.617188 C 179.550781 31.226562 183.695312 57.195312 235.433594 97.882812 C 294.097656 144.015625 319.449219 134.761719 333.140625 163.863281 C 353.539062 207.238281 322.632812 281.765625 267.046875 314.222656 " fill-opacity="1" fill-rule="nonzero"/><path fill="#0c2840" d="M 219.390625 327.648438 L 115.449219 326.617188 C 96.652344 326.617188 80.578125 314.34375 77.285156 295.667969 L 59.492188 194.710938 C 57.371094 182.679688 66.535156 171.644531 78.636719 171.644531 L 146.457031 171.644531 L 219.390625 327.648438 " fill-opacity="1" fill-rule="nonzero"/><path fill="#ffffff" d="M 87.609375 250.140625 C 87.347656 250.140625 87.113281 249.953125 87.066406 249.6875 L 78.441406 200.679688 C 78.390625 200.378906 78.589844 200.09375 78.886719 200.042969 C 79.1875 199.988281 79.472656 200.191406 79.527344 200.488281 L 88.152344 249.496094 C 88.203125 249.796875 88.003906 250.082031 87.703125 250.132812 C 87.671875 250.140625 87.640625 250.140625 87.609375 250.140625 " fill-opacity="1" fill-rule="nonzero"/><path fill="#000000" d="M 178.925781 90.199219 C 185.84375 91.703125 191.222656 100.222656 186.863281 109.78125 C 183.300781 117.589844 172.539062 115.089844 168.589844 119.8125 C 155.949219 134.914062 134.636719 170.703125 111.027344 176.304688 C 92.191406 180.773438 59.441406 168.65625 50.15625 144.328125 C 41.328125 121.195312 47.488281 93.589844 67.804688 86.640625 C 86.066406 80.386719 94.101562 103.359375 113.039062 98.15625 C 131.710938 93.023438 134.042969 84.675781 144.761719 82.675781 C 156.269531 80.53125 159.320312 85.945312 178.925781 90.199219 " fill-opacity="1" fill-rule="nonzero"/><path fill="#0c2840" d="M 195.402344 163.917969 C 195.402344 163.917969 204.027344 172.4375 209.070312 194.898438 C 214.113281 217.359375 242.378906 231.683594 256.953125 224.675781 C 271.523438 217.667969 271.980469 214.058594 271.980469 214.058594 L 270.828125 225.367188 C 270.828125 225.367188 245.238281 273.078125 204.566406 244.894531 C 196.195312 239.097656 184.492188 230.109375 181.332031 222.894531 C 169.136719 195.074219 195.402344 163.917969 195.402344 163.917969 " fill-opacity="1" fill-rule="nonzero"/><path fill="#0c2840" d="M 204.507812 236.765625 C 193.550781 192.101562 207.429688 173.285156 191.722656 159.476562 C 177.34375 146.84375 152.445312 150.933594 141.671875 152.703125 C 129.449219 154.710938 119.324219 156.375 112.4375 164.128906 C 110.605469 166.191406 109.3125 168.347656 108.421875 170.640625 L 108.417969 170.632812 C 95.261719 195.40625 105.925781 220.980469 112.503906 232.796875 C 113.585938 280.171875 94.832031 294.410156 107.183594 311.953125 C 120.554688 330.953125 153.605469 329.996094 170.964844 326.210938 C 177.054688 324.882812 211.195312 316.671875 218.992188 292.070312 C 224.101562 275.941406 212.558594 269.585938 204.507812 236.765625 " fill-opacity="1" fill-rule="nonzero"/><path fill="#ffffff" d="M 91.007812 331.675781 L 42.5625 331.675781 C 38.5 331.675781 35.207031 327.78125 35.207031 322.972656 L 35.207031 264.109375 C 35.207031 259.304688 38.5 255.40625 42.5625 255.40625 L 332.097656 255.40625 C 336.160156 255.40625 339.449219 259.304688 339.449219 264.109375 L 339.449219 322.972656 C 339.449219 327.78125 336.160156 331.675781 332.097656 331.675781 L 91.007812 331.675781 " fill-opacity="1" fill-rule="nonzero"/><path fill="#000000" d="M 332.097656 332.226562 L 305.480469 332.226562 C 305.175781 332.226562 304.929688 331.980469 304.929688 331.675781 C 304.929688 331.371094 305.175781 331.125 305.480469 331.125 L 332.097656 331.125 C 335.847656 331.125 338.902344 327.46875 338.902344 322.972656 L 338.902344 264.109375 C 338.902344 259.613281 335.847656 255.960938 332.097656 255.960938 L 42.5625 255.960938 C 38.808594 255.960938 35.757812 259.613281 35.757812 264.109375 L 35.757812 322.972656 C 35.757812 327.46875 38.808594 331.125 42.5625 331.125 L 91.007812 331.125 C 91.3125 331.125 91.558594 331.371094 91.558594 331.675781 C 91.558594 331.980469 91.3125 332.226562 91.007812 332.226562 L 42.5625 332.226562 C 38.203125 332.226562 34.65625 328.078125 34.65625 322.972656 L 34.65625 264.109375 C 34.65625 259.007812 38.203125 254.859375 42.5625 254.859375 L 332.097656 254.859375 C 336.457031 254.859375 340 259.007812 340 264.109375 L 340 322.972656 C 340 328.078125 336.457031 332.226562 332.097656 332.226562 " fill-opacity="1" fill-rule="nonzero"/><path fill="#000000" d="M 287.109375 332.226562 L 208.691406 332.226562 C 208.386719 332.226562 208.140625 331.980469 208.140625 331.675781 C 208.140625 331.371094 208.386719 331.125 208.691406 331.125 L 287.109375 331.125 C 287.410156 331.125 287.65625 331.371094 287.65625 331.675781 C 287.65625 331.980469 287.410156 332.226562 287.109375 332.226562 " fill-opacity="1" fill-rule="nonzero"/><path fill="#ffffff" d="M 269.09375 197.128906 L 213.558594 261.660156 L 241.316406 266.015625 L 298.464844 203.558594 L 269.09375 197.128906 " fill-opacity="1" fill-rule="nonzero"/><path fill="#000000" d="M 214.617188 261.269531 L 241.109375 265.425781 L 297.417969 203.894531 L 269.296875 197.738281 Z M 241.316406 266.566406 C 241.285156 266.566406 241.257812 266.5625 241.230469 266.558594 L 213.472656 262.203125 C 213.273438 262.171875 213.109375 262.039062 213.039062 261.851562 C 212.972656 261.664062 213.007812 261.453125 213.140625 261.300781 L 268.679688 196.769531 C 268.808594 196.617188 269.015625 196.546875 269.214844 196.589844 L 298.585938 203.023438 C 298.777344 203.0625 298.933594 203.203125 298.992188 203.394531 C 299.050781 203.578125 299.007812 203.785156 298.871094 203.929688 L 241.722656 266.386719 C 241.617188 266.5 241.46875 266.566406 241.316406 266.566406 " fill-opacity="1" fill-rule="nonzero"/><path fill="#ffffff" d="M 265.191406 240.082031 C 265.191406 240.082031 274.550781 236.40625 278.453125 231.84375 C 280.535156 229.414062 280.425781 223.789062 279.875 219.058594 C 279.59375 216.675781 276.355469 216.167969 275.339844 218.34375 L 265.191406 240.082031 " fill-opacity="1" fill-rule="nonzero"/><path fill="#000000" d="M 277.503906 217.515625 C 276.910156 217.515625 276.207031 217.785156 275.839844 218.574219 L 266.292969 239.015625 C 268.984375 237.835938 275.125 234.886719 278.035156 231.484375 C 279.613281 229.644531 280.058594 225.371094 279.328125 219.125 C 279.207031 218.117188 278.464844 217.644531 277.804688 217.539062 C 277.710938 217.523438 277.609375 217.515625 277.503906 217.515625 Z M 265.191406 240.632812 C 265.039062 240.632812 264.894531 240.570312 264.789062 240.457031 C 264.632812 240.292969 264.59375 240.050781 264.691406 239.847656 L 274.839844 218.109375 C 275.414062 216.886719 276.644531 216.234375 277.980469 216.449219 C 279.308594 216.664062 280.265625 217.664062 280.421875 218.996094 C 281.199219 225.648438 280.679688 230.089844 278.871094 232.199219 C 274.925781 236.816406 265.777344 240.441406 265.390625 240.59375 C 265.324219 240.621094 265.257812 240.632812 265.191406 240.632812 " fill-opacity="1" fill-rule="nonzero"/><path fill="#000000" d="M 195.757812 208.121094 C 195.730469 208.121094 195.703125 208.121094 195.675781 208.113281 C 195.378906 208.070312 195.167969 207.789062 195.210938 207.488281 C 198.910156 182.214844 187.328125 167.914062 187.210938 167.773438 C 187.015625 167.539062 187.046875 167.191406 187.28125 167 C 187.515625 166.804688 187.863281 166.835938 188.058594 167.066406 C 188.175781 167.214844 200.074219 181.863281 196.300781 207.648438 C 196.261719 207.921875 196.027344 208.121094 195.757812 208.121094 " fill-opacity="1" fill-rule="nonzero"/><path fill="#ffffff" d="M 243.214844 245.460938 C 243.214844 245.460938 248.089844 248.890625 250.859375 247.835938 L 243.214844 245.460938 " fill-opacity="1" fill-rule="nonzero"/><path fill="#0c2840" d="M 249.671875 248.582031 C 246.738281 248.582031 243.078125 246.039062 242.898438 245.914062 C 242.648438 245.738281 242.589844 245.394531 242.765625 245.144531 C 242.9375 244.898438 243.28125 244.835938 243.53125 245.011719 C 244.820312 245.917969 248.621094 248.097656 250.664062 247.320312 C 250.945312 247.210938 251.265625 247.355469 251.375 247.636719 C 251.480469 247.921875 251.339844 248.242188 251.054688 248.347656 C 250.625 248.511719 250.160156 248.582031 249.671875 248.582031 " fill-opacity="1" fill-rule="nonzero"/><path fill="#ffffff" d="M 258.574219 216.765625 C 258.574219 216.765625 259.871094 218.496094 262.714844 218.246094 C 265.5625 218 269.890625 218.371094 271.128906 219.980469 L 258.574219 216.765625 " fill-opacity="1" fill-rule="nonzero"/><path fill="#0c2840" d="M 271.128906 220.53125 C 270.964844 220.53125 270.800781 220.457031 270.691406 220.316406 C 269.707031 219.039062 265.808594 218.53125 262.761719 218.796875 C 259.65625 219.070312 258.195312 217.175781 258.132812 217.097656 C 257.949219 216.855469 258 216.507812 258.242188 216.324219 C 258.484375 216.144531 258.828125 216.191406 259.011719 216.433594 C 259.0625 216.5 260.1875 217.914062 262.667969 217.699219 C 265.457031 217.457031 270.125 217.773438 271.566406 219.644531 C 271.75 219.886719 271.707031 220.230469 271.464844 220.414062 C 271.363281 220.492188 271.246094 220.53125 271.128906 220.53125 " fill-opacity="1" fill-rule="nonzero"/><path fill="#0c2840" d="M 265.671875 228.03125 C 265.507812 228.03125 265.34375 227.957031 265.238281 227.816406 C 264.25 226.539062 260.351562 226.03125 257.308594 226.296875 C 254.195312 226.570312 252.738281 224.679688 252.675781 224.597656 C 252.496094 224.355469 252.546875 224.011719 252.785156 223.828125 C 253.03125 223.644531 253.375 223.695312 253.558594 223.933594 C 253.605469 224 254.738281 225.414062 257.214844 225.199219 C 260 224.957031 264.671875 225.277344 266.109375 227.144531 C 266.296875 227.386719 266.25 227.734375 266.007812 227.917969 C 265.910156 227.996094 265.789062 228.03125 265.671875 228.03125 " fill-opacity="1" fill-rule="nonzero"/><path fill="#0c2840" d="M 134.667969 200.65625 L 140.984375 215.332031 C 146.507812 221.628906 184.691406 229.484375 198.621094 230.46875 L 134.667969 200.65625 " fill-opacity="1" fill-rule="nonzero"/><path fill="#000000" d="M 198.621094 231.015625 C 198.609375 231.015625 198.597656 231.015625 198.582031 231.015625 C 185.1875 230.070312 146.410156 222.355469 140.570312 215.695312 C 140.535156 215.652344 140.503906 215.601562 140.480469 215.550781 L 134.164062 200.875 C 134.042969 200.59375 134.171875 200.269531 134.449219 200.148438 C 134.730469 200.027344 135.054688 200.15625 135.171875 200.4375 L 141.457031 215.03125 C 146.921875 221.027344 184.007812 228.882812 198.660156 229.917969 C 198.960938 229.9375 199.191406 230.203125 199.171875 230.507812 C 199.148438 230.796875 198.90625 231.015625 198.621094 231.015625 " fill-opacity="1" fill-rule="nonzero"/><path fill="#0c2840" d="M 196.5 240.761719 C 182.738281 241.210938 147.835938 241.964844 147.835938 241.964844 C 136.265625 241.964844 125.652344 235.542969 120.28125 225.300781 L 118.972656 222.796875 L 196.5 240.761719 " fill-opacity="1" fill-rule="nonzero"/><path fill="#000000" d="M 147.847656 242.515625 C 136.023438 242.515625 125.28125 236.015625 119.792969 225.554688 L 118.484375 223.050781 C 118.34375 222.785156 118.445312 222.449219 118.714844 222.308594 C 118.984375 222.167969 119.316406 222.273438 119.457031 222.542969 L 120.769531 225.042969 C 126.0625 235.140625 136.433594 241.414062 147.835938 241.414062 C 148.171875 241.40625 182.878906 240.65625 196.480469 240.210938 C 196.777344 240.199219 197.039062 240.4375 197.050781 240.746094 C 197.058594 241.046875 196.820312 241.300781 196.515625 241.3125 C 182.910156 241.757812 148.195312 242.507812 147.847656 242.515625 " fill-opacity="1" fill-rule="nonzero"/><path fill="#ffffff" d="M 198.621094 230.46875 C 201.867188 230.695312 203.90625 230.765625 204.089844 230.726562 C 204.089844 230.726562 204.921875 230.730469 205.722656 230.164062 C 208.191406 228.414062 213.324219 224.503906 216.828125 224.992188 C 222.703125 225.808594 223.398438 230.605469 223.398438 230.605469 C 223.398438 230.605469 228.351562 230.421875 228.253906 233.714844 C 228.175781 236.246094 226.734375 239.460938 222.734375 241.230469 C 217.273438 243.640625 211.800781 245.476562 205.761719 241.519531 C 204.585938 240.75 203.199219 240.390625 201.800781 240.53125 C 201.230469 240.589844 199.300781 240.671875 196.5 240.761719 L 198.621094 230.46875 " fill-opacity="1" fill-rule="nonzero"/><path fill="#000000" d="M 213.132812 244.367188 C 210.65625 244.367188 208.101562 243.710938 205.460938 241.980469 C 204.382812 241.273438 203.105469 240.957031 201.859375 241.082031 C 201.296875 241.136719 199.550781 241.210938 196.515625 241.3125 C 196.210938 241.316406 195.960938 241.085938 195.949219 240.777344 C 195.9375 240.476562 196.175781 240.222656 196.480469 240.210938 C 199.449219 240.113281 201.21875 240.039062 201.746094 239.984375 C 203.242188 239.835938 204.777344 240.214844 206.0625 241.058594 C 211.898438 244.882812 217.171875 243.082031 222.507812 240.722656 C 227.195312 238.65625 227.667969 234.824219 227.703125 233.699219 C 227.722656 233.097656 227.539062 232.621094 227.152344 232.234375 C 226.179688 231.269531 224.125 231.128906 223.417969 231.152344 C 223.136719 231.164062 222.894531 230.960938 222.855469 230.683594 C 222.824219 230.507812 222.125 226.285156 216.753906 225.535156 C 213.722656 225.113281 209.097656 228.421875 206.617188 230.199219 L 206.039062 230.613281 C 205.167969 231.230469 204.253906 231.273438 204.105469 231.277344 C 203.238281 231.34375 198.78125 231.03125 198.582031 231.015625 C 198.277344 230.996094 198.050781 230.730469 198.074219 230.425781 C 198.09375 230.125 198.359375 229.890625 198.660156 229.917969 C 201.9375 230.148438 203.738281 230.203125 203.996094 230.183594 C 204.027344 230.175781 204.058594 230.171875 204.09375 230.175781 C 204.09375 230.175781 204.769531 230.164062 205.402344 229.714844 L 205.976562 229.304688 C 208.765625 227.308594 213.429688 223.960938 216.90625 224.445312 C 222 225.15625 223.46875 228.757812 223.835938 230.058594 C 224.738281 230.085938 226.757812 230.292969 227.925781 231.449219 C 228.535156 232.054688 228.832031 232.824219 228.800781 233.734375 C 228.765625 235.019531 228.226562 239.402344 222.953125 241.734375 C 219.820312 243.117188 216.550781 244.363281 213.132812 244.367188 " fill-opacity="1" fill-rule="nonzero"/><path fill="#ffffff" d="M 190.800781 221.582031 L 195.691406 213.019531 L 199.707031 215.625 C 199.929688 215.765625 200.113281 215.960938 200.246094 216.1875 L 200.484375 216.601562 C 200.789062 217.125 201.347656 217.445312 201.941406 217.4375 C 202.265625 217.433594 202.585938 217.527344 202.859375 217.703125 L 232.714844 237.039062 C 232.960938 237.199219 233.183594 237.390625 233.382812 237.609375 L 239.417969 244.296875 L 231.019531 242.402344 C 230.5625 242.296875 230.117188 242.132812 229.699219 241.914062 L 198.277344 225.488281 C 198.011719 225.347656 197.785156 225.136719 197.625 224.878906 L 197.585938 224.816406 C 197.28125 224.320312 196.742188 224.015625 196.164062 224.015625 L 195.875 224.019531 C 195.609375 224.019531 195.347656 223.957031 195.109375 223.832031 L 190.800781 221.582031 " fill-opacity="1" fill-rule="nonzero"/><path fill="#000000" d="M 196.171875 223.46875 C 196.933594 223.46875 197.652344 223.871094 198.054688 224.527344 L 198.097656 224.59375 C 198.203125 224.765625 198.355469 224.90625 198.535156 225 L 229.957031 241.425781 C 230.332031 241.625 230.730469 241.769531 231.140625 241.863281 L 237.84375 243.378906 L 232.972656 237.976562 C 232.808594 237.796875 232.621094 237.636719 232.417969 237.503906 L 202.558594 218.164062 C 202.378906 218.050781 202.171875 217.988281 201.960938 217.988281 C 201.949219 217.988281 201.9375 217.988281 201.921875 217.988281 C 201.140625 217.988281 200.40625 217.5625 200.011719 216.878906 L 199.769531 216.464844 C 199.679688 216.3125 199.554688 216.183594 199.40625 216.085938 L 195.882812 213.796875 L 191.5625 221.359375 L 195.363281 223.34375 C 195.519531 223.425781 195.695312 223.472656 195.871094 223.46875 L 196.164062 223.46875 C 196.164062 223.46875 196.167969 223.46875 196.171875 223.46875 Z M 239.417969 244.847656 C 239.375 244.847656 239.335938 244.84375 239.296875 244.835938 L 230.898438 242.9375 C 230.390625 242.824219 229.902344 242.644531 229.445312 242.402344 L 198.023438 225.976562 C 197.667969 225.789062 197.367188 225.511719 197.15625 225.167969 L 197.117188 225.101562 C 196.914062 224.773438 196.550781 224.566406 196.171875 224.566406 C 196.167969 224.566406 196.167969 224.566406 196.167969 224.566406 L 195.878906 224.570312 C 195.515625 224.5625 195.167969 224.484375 194.851562 224.316406 L 190.546875 222.066406 C 190.414062 222 190.316406 221.878906 190.273438 221.734375 C 190.230469 221.589844 190.25 221.4375 190.324219 221.308594 L 195.214844 212.746094 C 195.289062 212.613281 195.414062 212.519531 195.5625 212.484375 C 195.710938 212.449219 195.867188 212.472656 195.992188 212.558594 L 200.007812 215.164062 C 200.300781 215.351562 200.546875 215.609375 200.722656 215.914062 L 200.960938 216.328125 C 201.164062 216.671875 201.53125 216.886719 201.921875 216.886719 C 201.9375 216.886719 201.949219 216.886719 201.960938 216.886719 C 202.386719 216.886719 202.800781 217.007812 203.15625 217.242188 L 233.015625 236.578125 C 233.300781 236.765625 233.5625 236.988281 233.792969 237.242188 L 239.824219 243.929688 C 239.988281 244.109375 240.011719 244.371094 239.890625 244.574219 C 239.792969 244.746094 239.609375 244.847656 239.417969 244.847656 " fill-opacity="1" fill-rule="nonzero"/><path fill="#000000" d="M 231.207031 241.371094 C 231.121094 241.371094 231.035156 241.351562 230.953125 241.308594 C 230.683594 241.167969 230.578125 240.835938 230.71875 240.566406 L 232.511719 237.09375 C 232.652344 236.824219 232.980469 236.71875 233.25 236.859375 C 233.523438 236.996094 233.628906 237.328125 233.488281 237.597656 L 231.695312 241.074219 C 231.597656 241.261719 231.40625 241.371094 231.207031 241.371094 " fill-opacity="1" fill-rule="nonzero"/><path fill="#0c2840" d="M 188.738281 208.777344 L 195.851562 213.078125 L 190.832031 221.628906 L 183.71875 217.328125 C 182.414062 216.539062 181.96875 214.863281 182.71875 213.582031 L 185.015625 209.671875 C 185.765625 208.390625 187.433594 207.992188 188.738281 208.777344 " fill-opacity="1" fill-rule="nonzero"/><path fill="#000000" d="M 187.304688 208.925781 C 187.125 208.925781 186.949219 208.949219 186.773438 208.992188 C 186.226562 209.132812 185.773438 209.472656 185.492188 209.949219 L 183.195312 213.859375 C 182.597656 214.882812 182.957031 216.222656 184.003906 216.855469 L 190.640625 220.867188 L 195.101562 213.269531 L 188.453125 209.25 C 188.097656 209.035156 187.703125 208.925781 187.304688 208.925781 Z M 190.832031 222.175781 C 190.734375 222.175781 190.632812 222.152344 190.550781 222.097656 L 183.433594 217.800781 C 181.875 216.859375 181.34375 214.839844 182.242188 213.300781 L 184.539062 209.394531 C 184.972656 208.65625 185.667969 208.136719 186.503906 207.925781 C 187.359375 207.707031 188.253906 207.84375 189.023438 208.308594 L 196.136719 212.609375 C 196.394531 212.765625 196.480469 213.097656 196.328125 213.359375 L 191.308594 221.90625 C 191.234375 222.035156 191.109375 222.125 190.96875 222.160156 C 190.925781 222.171875 190.878906 222.175781 190.832031 222.175781 " fill-opacity="1" fill-rule="nonzero"/><path fill="#000000" d="M 197.839844 223.347656 C 197.742188 223.347656 197.644531 223.324219 197.558594 223.269531 C 197.296875 223.113281 197.210938 222.773438 197.367188 222.511719 L 199.789062 218.492188 C 199.949219 218.230469 200.285156 218.148438 200.546875 218.304688 C 200.804688 218.460938 200.890625 218.800781 200.734375 219.0625 L 198.3125 223.082031 C 198.210938 223.253906 198.027344 223.347656 197.839844 223.347656 " fill-opacity="1" fill-rule="nonzero"/><path fill="#000000" d="M 212.128906 226.746094 C 212.027344 226.746094 211.925781 226.722656 211.835938 226.664062 L 202.925781 221.070312 C 202.667969 220.910156 202.589844 220.570312 202.753906 220.3125 C 202.914062 220.054688 203.253906 219.976562 203.511719 220.140625 L 212.421875 225.730469 C 212.679688 225.890625 212.757812 226.234375 212.597656 226.492188 C 212.492188 226.65625 212.3125 226.746094 212.128906 226.746094 " fill-opacity="1" fill-rule="nonzero"/><path fill="#000000" d="M 230.703125 238.269531 C 230.601562 238.269531 230.503906 238.242188 230.410156 238.1875 L 226.929688 236.015625 C 226.675781 235.859375 226.59375 235.515625 226.753906 235.257812 C 226.914062 235 227.253906 234.925781 227.515625 235.085938 L 230.992188 237.25 C 231.253906 237.410156 231.332031 237.75 231.167969 238.007812 C 231.066406 238.175781 230.886719 238.269531 230.703125 238.269531 " fill-opacity="1" fill-rule="nonzero"/><path fill="#ffffff" d="M 190.039062 218.742188 C 189.941406 218.742188 189.84375 218.714844 189.753906 218.660156 L 184.332031 215.332031 C 184.070312 215.171875 183.988281 214.835938 184.148438 214.574219 C 184.308594 214.316406 184.648438 214.234375 184.90625 214.394531 L 190.328125 217.722656 C 190.585938 217.882812 190.667969 218.222656 190.507812 218.480469 C 190.40625 218.648438 190.222656 218.742188 190.039062 218.742188 " fill-opacity="1" fill-rule="nonzero"/><path fill="#000000" d="M 213.882812 244.726562 C 211.179688 244.726562 208.433594 243.933594 205.441406 241.96875 C 204.378906 241.269531 203.109375 240.953125 201.859375 241.082031 C 200.964844 241.171875 198.105469 241.269531 197.984375 241.273438 C 197.683594 241.28125 197.425781 241.046875 197.414062 240.746094 C 197.40625 240.4375 197.640625 240.183594 197.949219 240.175781 C 197.976562 240.171875 200.890625 240.074219 201.75 239.984375 C 203.246094 239.835938 204.773438 240.210938 206.042969 241.046875 C 211.761719 244.800781 216.382812 244.023438 221.984375 241.550781 C 223.007812 241.097656 224.925781 239.578125 225.636719 238.828125 C 226.785156 237.609375 227.058594 236.746094 227.476562 235.445312 L 227.574219 235.144531 C 227.964844 233.925781 227.9375 233.039062 227.488281 232.4375 C 226.460938 231.066406 223.28125 231.152344 220.480469 231.234375 C 218.671875 231.285156 216.964844 231.332031 215.855469 230.988281 C 210.410156 229.296875 204.320312 231.230469 204.257812 231.25 C 204.242188 231.257812 204.226562 231.257812 204.210938 231.265625 C 203.960938 231.320312 203.390625 231.324219 201.234375 231.179688 C 200.929688 231.15625 200.699219 230.894531 200.722656 230.59375 C 200.742188 230.289062 201.007812 230.058594 201.308594 230.078125 C 203.1875 230.207031 203.789062 230.210938 203.957031 230.191406 C 204.542969 230.007812 210.5625 228.191406 216.179688 229.9375 C 217.117188 230.226562 218.734375 230.179688 220.449219 230.132812 C 223.519531 230.046875 227 229.949219 228.367188 231.777344 C 229.039062 232.671875 229.125 233.917969 228.617188 235.484375 L 228.523438 235.78125 C 228.097656 237.121094 227.753906 238.179688 226.4375 239.582031 C 225.652344 240.414062 223.625 242.027344 222.425781 242.558594 C 219.480469 243.859375 216.707031 244.726562 213.882812 244.726562 " fill-opacity="1" fill-rule="nonzero"/><path fill="#ffffff" d="M 198.621094 230.46875 C 201.867188 230.695312 203.90625 230.765625 204.089844 230.726562 C 204.089844 230.726562 204.921875 230.730469 205.722656 230.164062 C 208.191406 228.414062 213.324219 224.503906 216.828125 224.992188 C 222.703125 225.808594 223.398438 230.605469 223.398438 230.605469 C 223.398438 230.605469 228.351562 230.421875 228.253906 233.714844 C 228.175781 236.246094 226.734375 239.460938 222.734375 241.230469 C 217.273438 243.640625 211.800781 245.476562 205.761719 241.519531 C 204.585938 240.75 203.199219 240.390625 201.800781 240.53125 C 201.230469 240.589844 199.300781 240.671875 196.5 240.761719 L 198.621094 230.46875 " fill-opacity="1" fill-rule="nonzero"/><path fill="#000000" d="M 213.132812 244.367188 C 210.65625 244.367188 208.101562 243.710938 205.460938 241.980469 C 204.382812 241.273438 203.105469 240.957031 201.859375 241.082031 C 201.296875 241.136719 199.550781 241.210938 196.515625 241.3125 C 196.210938 241.316406 195.960938 241.085938 195.949219 240.777344 C 195.9375 240.476562 196.175781 240.222656 196.480469 240.210938 C 199.449219 240.113281 201.21875 240.039062 201.746094 239.984375 C 203.242188 239.835938 204.777344 240.214844 206.0625 241.058594 C 211.898438 244.882812 217.171875 243.082031 222.507812 240.722656 C 227.195312 238.65625 227.667969 234.824219 227.703125 233.699219 C 227.722656 233.097656 227.539062 232.621094 227.152344 232.234375 C 226.179688 231.269531 224.125 231.128906 223.417969 231.152344 C 223.136719 231.164062 222.894531 230.960938 222.855469 230.683594 C 222.824219 230.507812 222.125 226.285156 216.753906 225.535156 C 213.722656 225.113281 209.097656 228.421875 206.617188 230.199219 L 206.039062 230.613281 C 205.167969 231.230469 204.253906 231.273438 204.105469 231.277344 C 203.238281 231.34375 198.78125 231.03125 198.582031 231.015625 C 198.277344 230.996094 198.050781 230.730469 198.074219 230.425781 C 198.09375 230.125 198.359375 229.890625 198.660156 229.917969 C 201.9375 230.148438 203.738281 230.203125 203.996094 230.183594 C 204.027344 230.175781 204.058594 230.171875 204.09375 230.175781 C 204.09375 230.175781 204.769531 230.164062 205.402344 229.714844 L 205.976562 229.304688 C 208.765625 227.308594 213.429688 223.960938 216.90625 224.445312 C 222 225.15625 223.46875 228.757812 223.835938 230.058594 C 224.738281 230.085938 226.757812 230.292969 227.925781 231.449219 C 228.535156 232.054688 228.832031 232.824219 228.800781 233.734375 C 228.765625 235.019531 228.226562 239.402344 222.953125 241.734375 C 219.820312 243.117188 216.550781 244.363281 213.132812 244.367188 " fill-opacity="1" fill-rule="nonzero"/><path fill="#ffffff" d="M 159.828125 145.398438 C 159.617188 144.046875 159.402344 142.546875 159.214844 140.988281 C 161.929688 142.535156 164.910156 143.109375 166.816406 142.363281 C 169.160156 141.441406 169.863281 139.121094 171.109375 136.402344 C 171.632812 135.265625 172.144531 133.921875 173.535156 132.875 C 174.273438 132.320312 175.066406 131.992188 175.808594 131.796875 C 176.726562 131.558594 177.308594 130.664062 177.183594 129.730469 L 177.027344 129.160156 C 175.769531 124.691406 175.402344 120.019531 175.941406 115.40625 L 177.003906 106.300781 C 172.292969 103.695312 170.441406 103.800781 169.667969 104.5 C 169.378906 104.757812 168.988281 104.902344 168.824219 106.300781 C 168.042969 113.070312 162.058594 111.597656 157.136719 109.703125 C 152.214844 107.808594 152.792969 117.460938 152.792969 117.460938 C 152.792969 117.460938 150.15625 112.980469 146.199219 116.070312 C 143.359375 118.285156 147.71875 123.0625 150.417969 125.59375 L 145.90625 144.867188 C 144.71875 149.9375 140.742188 153.890625 135.664062 155.046875 L 127.996094 156.792969 C 127.996094 156.792969 157.296875 162.789062 179.757812 154.730469 L 166.75 152.449219 C 163.171875 151.820312 160.394531 148.988281 159.828125 145.398438 " fill-opacity="1" fill-rule="nonzero"/><path fill="#000000" d="M 130.789062 156.71875 C 138.234375 157.898438 159.753906 160.515625 177.535156 154.898438 L 166.65625 152.992188 C 162.847656 152.324219 159.886719 149.308594 159.285156 145.484375 C 159.046875 143.960938 158.839844 142.46875 158.667969 141.050781 C 158.640625 140.847656 158.734375 140.644531 158.90625 140.527344 C 159.082031 140.414062 159.304688 140.40625 159.484375 140.507812 C 162.101562 141.996094 164.894531 142.523438 166.613281 141.851562 C 168.417969 141.140625 169.164062 139.445312 170.105469 137.300781 C 170.265625 136.933594 170.433594 136.554688 170.609375 136.171875 L 170.75 135.863281 C 171.253906 134.742188 171.824219 133.472656 173.203125 132.433594 C 173.917969 131.898438 174.746094 131.503906 175.671875 131.265625 C 176.300781 131.101562 176.710938 130.492188 176.644531 129.835938 L 176.496094 129.308594 C 175.214844 124.75 174.84375 120.050781 175.394531 115.34375 L 176.414062 106.605469 C 171.933594 104.179688 170.496094 104.492188 170.035156 104.910156 C 169.992188 104.945312 169.949219 104.980469 169.90625 105.015625 C 169.703125 105.183594 169.488281 105.355469 169.375 106.367188 C 169.113281 108.632812 168.257812 110.21875 166.832031 111.078125 C 164.199219 112.675781 160.160156 111.457031 156.9375 110.21875 C 156.136719 109.910156 155.503906 109.941406 154.996094 110.3125 C 153.359375 111.507812 153.246094 115.855469 153.339844 117.425781 C 153.355469 117.683594 153.195312 117.914062 152.953125 117.988281 C 152.707031 118.058594 152.445312 117.957031 152.316406 117.738281 C 152.304688 117.722656 151.214844 115.910156 149.492188 115.585938 C 148.542969 115.40625 147.550781 115.714844 146.535156 116.503906 C 146.085938 116.859375 145.851562 117.296875 145.828125 117.84375 C 145.753906 119.484375 147.5625 122.164062 150.792969 125.191406 C 150.9375 125.328125 151 125.527344 150.953125 125.71875 L 146.441406 144.992188 C 145.214844 150.230469 141.035156 154.386719 135.785156 155.582031 Z M 151.726562 159.464844 C 138.550781 159.464844 128.0625 157.367188 127.886719 157.332031 C 127.632812 157.28125 127.449219 157.058594 127.445312 156.796875 C 127.441406 156.539062 127.621094 156.3125 127.875 156.257812 L 135.542969 154.507812 C 140.382812 153.40625 144.238281 149.570312 145.371094 144.738281 L 149.808594 125.777344 C 147.375 123.457031 144.617188 120.265625 144.726562 117.792969 C 144.765625 116.917969 145.148438 116.191406 145.859375 115.636719 C 147.132812 114.640625 148.429688 114.261719 149.703125 114.503906 C 150.769531 114.707031 151.617188 115.308594 152.222656 115.894531 C 152.269531 113.902344 152.632812 110.675781 154.34375 109.425781 C 155.167969 108.820312 156.171875 108.742188 157.335938 109.1875 C 160.320312 110.339844 164.035156 111.484375 166.261719 110.136719 C 167.394531 109.453125 168.054688 108.175781 168.277344 106.238281 C 168.433594 104.898438 168.808594 104.492188 169.210938 104.164062 C 169.238281 104.140625 169.269531 104.117188 169.296875 104.089844 C 170.554688 102.957031 173.089844 103.507812 177.269531 105.820312 C 177.464844 105.929688 177.578125 106.144531 177.550781 106.367188 L 176.488281 115.472656 C 175.953125 120.035156 176.3125 124.589844 177.554688 129.011719 L 177.714844 129.582031 C 177.722656 129.605469 177.726562 129.632812 177.730469 129.660156 C 177.890625 130.875 177.125 132.027344 175.949219 132.332031 C 175.164062 132.535156 174.464844 132.867188 173.867188 133.316406 C 172.714844 134.183594 172.226562 135.265625 171.753906 136.316406 L 171.609375 136.628906 C 171.4375 137.007812 171.273438 137.378906 171.113281 137.742188 C 170.109375 140.027344 169.242188 142 167.015625 142.875 C 165.191406 143.59375 162.53125 143.238281 159.890625 141.964844 C 160.03125 143.050781 160.195312 144.175781 160.375 145.3125 C 160.902344 148.671875 163.503906 151.320312 166.84375 151.90625 L 179.855469 154.1875 C 180.101562 154.230469 180.285156 154.433594 180.308594 154.683594 C 180.328125 154.929688 180.179688 155.164062 179.945312 155.246094 C 170.894531 158.492188 160.691406 159.464844 151.726562 159.464844 " fill-opacity="1" fill-rule="nonzero"/><path fill="#000000" d="M 159.214844 141.539062 C 159.128906 141.539062 159.046875 141.519531 158.96875 141.480469 C 153.542969 138.789062 152.195312 130.679688 152.144531 130.332031 C 152.09375 130.035156 152.300781 129.753906 152.601562 129.703125 C 152.898438 129.65625 153.179688 129.859375 153.230469 130.164062 C 153.242188 130.242188 154.542969 138.054688 159.457031 140.492188 C 159.730469 140.628906 159.839844 140.957031 159.707031 141.230469 C 159.609375 141.425781 159.414062 141.539062 159.214844 141.539062 " fill-opacity="1" fill-rule="nonzero"/><path fill="#ffffff" d="M 156.613281 286.476562 C 154.253906 281.617188 154.03125 276.71875 156.613281 271.773438 L 154.757812 269.546875 L 103.992188 271.21875 L 105.742188 287.34375 L 154.882812 287.910156 L 156.613281 286.476562 " fill-opacity="1" fill-rule="nonzero"/><path fill="#000000" d="M 106.238281 286.800781 L 154.6875 287.359375 L 155.933594 286.324219 C 153.640625 281.355469 153.648438 276.488281 155.960938 271.847656 L 154.507812 270.105469 L 104.601562 271.746094 Z M 154.882812 288.460938 C 154.882812 288.460938 154.878906 288.460938 154.878906 288.460938 L 105.734375 287.894531 C 105.457031 287.890625 105.222656 287.679688 105.195312 287.402344 L 103.445312 271.277344 C 103.429688 271.125 103.476562 270.972656 103.574219 270.855469 C 103.675781 270.738281 103.820312 270.671875 103.972656 270.667969 L 154.742188 268.996094 C 154.917969 268.992188 155.074219 269.0625 155.183594 269.195312 L 157.039062 271.421875 C 157.179688 271.59375 157.207031 271.832031 157.101562 272.027344 C 154.699219 276.628906 154.703125 281.277344 157.113281 286.238281 C 157.222656 286.464844 157.160156 286.738281 156.964844 286.898438 L 155.234375 288.335938 C 155.136719 288.417969 155.011719 288.460938 154.882812 288.460938 " fill-opacity="1" fill-rule="nonzero"/><path fill="#ffffff" d="M 63.332031 267.773438 L 157.558594 267.773438 C 158.660156 267.773438 159.550781 268.664062 159.550781 269.765625 C 159.550781 270.867188 158.660156 271.761719 157.558594 271.761719 L 114.238281 271.761719 C 111.066406 271.761719 108.492188 274.332031 108.492188 277.503906 L 108.492188 280.734375 C 108.492188 283.90625 111.066406 286.476562 114.238281 286.476562 L 157.558594 286.476562 C 158.660156 286.476562 159.550781 287.371094 159.550781 288.46875 C 159.550781 289.570312 158.660156 290.464844 157.558594 290.464844 L 63.332031 290.464844 C 57.480469 290.464844 52.738281 285.722656 52.738281 279.875 L 52.738281 278.363281 C 52.738281 272.511719 57.480469 267.773438 63.332031 267.773438 " fill-opacity="1" fill-rule="nonzero"/><path fill="#000000" d="M 63.332031 268.320312 C 57.792969 268.320312 53.289062 272.828125 53.289062 278.363281 L 53.289062 279.875 C 53.289062 285.410156 57.792969 289.914062 63.332031 289.914062 L 157.558594 289.914062 C 158.351562 289.914062 159 289.265625 159 288.46875 C 159 287.675781 158.351562 287.027344 157.558594 287.027344 L 114.238281 287.027344 C 110.765625 287.027344 107.945312 284.203125 107.945312 280.734375 L 107.945312 277.503906 C 107.945312 274.035156 110.765625 271.210938 114.238281 271.210938 L 157.558594 271.210938 C 158.351562 271.210938 159 270.5625 159 269.765625 C 159 268.96875 158.351562 268.320312 157.558594 268.320312 Z M 157.558594 291.015625 L 63.332031 291.015625 C 57.1875 291.015625 52.1875 286.019531 52.1875 279.875 L 52.1875 278.363281 C 52.1875 272.21875 57.1875 267.222656 63.332031 267.222656 L 157.558594 267.222656 C 158.960938 267.222656 160.101562 268.363281 160.101562 269.765625 C 160.101562 271.167969 158.960938 272.308594 157.558594 272.308594 L 114.238281 272.308594 C 111.375 272.308594 109.042969 274.640625 109.042969 277.503906 L 109.042969 280.734375 C 109.042969 283.597656 111.375 285.925781 114.238281 285.925781 L 157.558594 285.925781 C 158.960938 285.925781 160.101562 287.070312 160.101562 288.46875 C 160.101562 289.875 158.960938 291.015625 157.558594 291.015625 " fill-opacity="1" fill-rule="nonzero"/><path fill="#000000" d="M 132.972656 276.585938 L 129.261719 276.585938 C 128.957031 276.585938 128.710938 276.339844 128.710938 276.035156 C 128.710938 275.730469 128.957031 275.488281 129.261719 275.488281 L 132.972656 275.488281 C 133.277344 275.488281 133.523438 275.730469 133.523438 276.035156 C 133.523438 276.339844 133.277344 276.585938 132.972656 276.585938 " fill-opacity="1" fill-rule="nonzero"/><path fill="#000000" d="M 154.9375 276.585938 L 135.296875 276.585938 C 134.992188 276.585938 134.746094 276.339844 134.746094 276.035156 C 134.746094 275.730469 134.992188 275.488281 135.296875 275.488281 L 154.9375 275.488281 C 155.242188 275.488281 155.488281 275.730469 155.488281 276.035156 C 155.488281 276.339844 155.242188 276.585938 154.9375 276.585938 " fill-opacity="1" fill-rule="nonzero"/><path fill="#000000" d="M 154.757812 278.988281 L 131.515625 278.988281 C 131.214844 278.988281 130.964844 278.742188 130.964844 278.4375 C 130.964844 278.136719 131.214844 277.886719 131.515625 277.886719 L 154.757812 277.886719 C 155.0625 277.886719 155.308594 278.136719 155.308594 278.4375 C 155.308594 278.742188 155.0625 278.988281 154.757812 278.988281 " fill-opacity="1" fill-rule="nonzero"/><path fill="#000000" d="M 129.894531 283.296875 L 125.671875 283.296875 C 125.367188 283.296875 125.121094 283.050781 125.121094 282.746094 C 125.121094 282.441406 125.367188 282.195312 125.671875 282.195312 L 129.894531 282.195312 C 130.199219 282.195312 130.445312 282.441406 130.445312 282.746094 C 130.445312 283.050781 130.199219 283.296875 129.894531 283.296875 " fill-opacity="1" fill-rule="nonzero"/><path fill="#000000" d="M 154.9375 283.296875 L 131.699219 283.296875 C 131.394531 283.296875 131.148438 283.050781 131.148438 282.746094 C 131.148438 282.441406 131.394531 282.195312 131.699219 282.195312 L 154.9375 282.195312 C 155.242188 282.195312 155.488281 282.441406 155.488281 282.746094 C 155.488281 283.050781 155.242188 283.296875 154.9375 283.296875 " fill-opacity="1" fill-rule="nonzero"/><path fill="#ffffff" d="M 175.433594 318.847656 L 73.53125 318.847656 L 73.53125 293.886719 L 175.433594 293.886719 C 172.425781 302.316406 172.34375 310.640625 175.433594 318.847656 " fill-opacity="1" fill-rule="nonzero"/><path fill="#000000" d="M 74.082031 318.300781 L 174.644531 318.300781 C 171.921875 310.578125 171.925781 302.558594 174.660156 294.433594 L 74.082031 294.433594 Z M 175.433594 319.398438 L 73.53125 319.398438 C 73.226562 319.398438 72.980469 319.15625 72.980469 318.847656 L 72.980469 293.886719 C 72.980469 293.582031 73.226562 293.332031 73.53125 293.332031 L 175.433594 293.332031 C 175.613281 293.332031 175.78125 293.421875 175.882812 293.566406 C 175.988281 293.714844 176.011719 293.902344 175.953125 294.070312 C 172.960938 302.449219 172.960938 310.722656 175.949219 318.65625 C 176.011719 318.824219 175.988281 319.015625 175.886719 319.164062 C 175.78125 319.3125 175.613281 319.398438 175.433594 319.398438 " fill-opacity="1" fill-rule="nonzero"/><path fill="#0c2840" d="M 85.800781 295.117188 L 176.132812 295.117188 C 177.222656 295.117188 178.101562 294.234375 178.101562 293.148438 C 178.101562 292.0625 177.222656 291.183594 176.132812 291.183594 L 58.910156 291.183594 C 54.136719 291.183594 50.265625 295.050781 50.265625 299.828125 L 50.265625 313.414062 C 50.265625 318.191406 54.136719 322.058594 58.910156 322.058594 L 176.132812 322.058594 C 177.222656 322.058594 178.101562 321.179688 178.101562 320.09375 C 178.101562 319.007812 177.222656 318.125 176.132812 318.125 L 85.800781 318.125 C 82.425781 318.125 79.691406 315.390625 79.691406 312.019531 L 79.691406 301.222656 C 79.691406 297.851562 82.425781 295.117188 85.800781 295.117188 " fill-opacity="1" fill-rule="nonzero"/><path fill="#000000" d="M 58.910156 291.734375 C 54.449219 291.734375 50.816406 295.363281 50.816406 299.828125 L 50.816406 313.414062 C 50.816406 317.878906 54.449219 321.507812 58.910156 321.507812 L 176.132812 321.507812 C 176.914062 321.507812 177.550781 320.871094 177.550781 320.09375 C 177.550781 319.3125 176.914062 318.675781 176.132812 318.675781 L 85.800781 318.675781 C 82.128906 318.675781 79.140625 315.691406 79.140625 312.019531 L 79.140625 301.222656 C 79.140625 297.550781 82.128906 294.566406 85.800781 294.566406 L 176.132812 294.566406 C 176.914062 294.566406 177.550781 293.929688 177.550781 293.148438 C 177.550781 292.367188 176.914062 291.734375 176.132812 291.734375 Z M 176.132812 322.609375 L 58.910156 322.609375 C 53.839844 322.609375 49.714844 318.484375 49.714844 313.414062 L 49.714844 299.828125 C 49.714844 294.757812 53.839844 290.632812 58.910156 290.632812 L 176.132812 290.632812 C 177.523438 290.632812 178.652344 291.761719 178.652344 293.148438 C 178.652344 294.539062 177.523438 295.667969 176.132812 295.667969 L 85.800781 295.667969 C 82.734375 295.667969 80.242188 298.160156 80.242188 301.222656 L 80.242188 312.019531 C 80.242188 315.082031 82.734375 317.574219 85.800781 317.574219 L 176.132812 317.574219 C 177.523438 317.574219 178.652344 318.703125 178.652344 320.09375 C 178.652344 321.480469 177.523438 322.609375 176.132812 322.609375 " fill-opacity="1" fill-rule="nonzero"/><path fill="#000000" d="M 173.632812 300.363281 L 158.585938 300.363281 C 158.28125 300.363281 158.03125 300.117188 158.03125 299.8125 C 158.03125 299.507812 158.28125 299.261719 158.585938 299.261719 L 173.632812 299.261719 C 173.933594 299.261719 174.179688 299.507812 174.179688 299.8125 C 174.179688 300.117188 173.933594 300.363281 173.632812 300.363281 " fill-opacity="1" fill-rule="nonzero"/><path fill="#000000" d="M 156.003906 300.363281 L 128.652344 300.363281 C 128.347656 300.363281 128.101562 300.117188 128.101562 299.8125 C 128.101562 299.507812 128.347656 299.261719 128.652344 299.261719 L 156.003906 299.261719 C 156.308594 299.261719 156.554688 299.507812 156.554688 299.8125 C 156.554688 300.117188 156.308594 300.363281 156.003906 300.363281 " fill-opacity="1" fill-rule="nonzero"/><path fill="#000000" d="M 173.316406 303.695312 L 135.710938 303.695312 C 135.410156 303.695312 135.160156 303.449219 135.160156 303.144531 C 135.160156 302.839844 135.410156 302.59375 135.710938 302.59375 L 173.316406 302.59375 C 173.617188 302.59375 173.863281 302.839844 173.863281 303.144531 C 173.863281 303.449219 173.617188 303.695312 173.316406 303.695312 " fill-opacity="1" fill-rule="nonzero"/><path fill="#000000" d="M 132.53125 303.695312 L 124.878906 303.695312 C 124.574219 303.695312 124.328125 303.449219 124.328125 303.144531 C 124.328125 302.839844 124.574219 302.59375 124.878906 302.59375 L 132.53125 302.59375 C 132.835938 302.59375 133.082031 302.839844 133.082031 303.144531 C 133.082031 303.449219 132.835938 303.695312 132.53125 303.695312 " fill-opacity="1" fill-rule="nonzero"/><path fill="#000000" d="M 173.316406 310.648438 L 133.441406 310.648438 C 133.136719 310.648438 132.890625 310.402344 132.890625 310.097656 C 132.890625 309.796875 133.136719 309.546875 133.441406 309.546875 L 173.316406 309.546875 C 173.617188 309.546875 173.863281 309.796875 173.863281 310.097656 C 173.863281 310.402344 173.617188 310.648438 173.316406 310.648438 " fill-opacity="1" fill-rule="nonzero"/><path fill="#000000" d="M 130.640625 310.648438 L 128.652344 310.648438 C 128.347656 310.648438 128.101562 310.402344 128.101562 310.097656 C 128.101562 309.796875 128.347656 309.546875 128.652344 309.546875 L 130.640625 309.546875 C 130.945312 309.546875 131.191406 309.796875 131.191406 310.097656 C 131.191406 310.402344 130.945312 310.648438 130.640625 310.648438 " fill-opacity="1" fill-rule="nonzero"/><path fill="#ffffff" d="M 240.460938 277.859375 C 241.101562 282.253906 246.296875 310.292969 276.160156 323.367188 C 276.269531 323.414062 276.386719 323.425781 276.5 323.394531 C 279.019531 322.714844 308.066406 314.097656 326 274.652344 C 326.136719 274.34375 325.960938 273.988281 325.632812 273.921875 C 321.511719 273.125 298.675781 268.25 289.25 256.84375 C 289.03125 256.574219 288.617188 256.585938 288.425781 256.878906 C 286.179688 260.238281 273.570312 276.640625 240.964844 277.261719 C 240.65625 277.269531 240.414062 277.546875 240.460938 277.859375 " fill-opacity="1" fill-rule="nonzero"/><path fill="#000000" d="M 241.011719 277.8125 C 241.34375 280.09375 242.808594 288.058594 247.832031 297.089844 C 254.308594 308.730469 263.910156 317.402344 276.382812 322.863281 C 277.800781 322.472656 285.484375 320.167969 295.144531 313.117188 C 307.816406 303.863281 318.023438 290.855469 325.484375 274.457031 C 320.925781 273.566406 298.339844 268.667969 288.855469 257.226562 C 286.550781 260.652344 273.75 277.175781 241.011719 277.8125 Z M 276.371094 323.960938 C 276.222656 323.960938 276.078125 323.929688 275.941406 323.871094 C 263.246094 318.3125 253.464844 309.484375 246.871094 297.625 C 241.730469 288.382812 240.25 280.21875 239.914062 277.9375 C 239.871094 277.636719 239.960938 277.328125 240.160156 277.09375 C 240.355469 276.855469 240.648438 276.71875 240.957031 276.714844 C 273.304688 276.09375 285.792969 259.828125 287.964844 256.574219 C 288.15625 256.289062 288.457031 256.117188 288.792969 256.101562 C 289.132812 256.085938 289.457031 256.226562 289.675781 256.492188 C 298.9375 267.707031 321.339844 272.527344 325.734375 273.382812 C 326.054688 273.445312 326.324219 273.648438 326.476562 273.9375 C 326.628906 274.234375 326.636719 274.578125 326.5 274.882812 C 318.957031 291.472656 308.625 304.636719 295.792969 314.003906 C 285.976562 321.171875 278.121094 323.527344 276.644531 323.925781 C 276.558594 323.949219 276.464844 323.960938 276.371094 323.960938 " fill-opacity="1" fill-rule="nonzero"/><path fill="#000000" d="M 315.148438 278.710938 C 315.109375 278.710938 315.066406 278.707031 315.027344 278.699219 C 300.839844 275.5625 287.773438 265.738281 287.644531 265.636719 C 287.402344 265.453125 287.351562 265.109375 287.535156 264.867188 C 287.722656 264.625 288.066406 264.578125 288.308594 264.761719 C 288.4375 264.859375 301.320312 274.542969 315.265625 277.625 C 315.5625 277.691406 315.75 277.984375 315.683594 278.28125 C 315.628906 278.535156 315.398438 278.710938 315.148438 278.710938 " fill-opacity="1" fill-rule="nonzero"/><path fill="#000000" d="M 311.578125 286.492188 C 311.53125 286.492188 311.484375 286.488281 311.441406 286.476562 C 304.851562 284.761719 298.3125 281.546875 291.996094 276.917969 C 291.753906 276.738281 291.699219 276.394531 291.878906 276.148438 C 292.058594 275.902344 292.402344 275.851562 292.648438 276.03125 C 298.847656 280.578125 305.265625 283.730469 311.714844 285.410156 C 312.011719 285.488281 312.1875 285.785156 312.109375 286.082031 C 312.046875 286.328125 311.824219 286.492188 311.578125 286.492188 " fill-opacity="1" fill-rule="nonzero"/><path fill="#000000" d="M 288.078125 273.652344 C 287.953125 273.652344 287.824219 273.609375 287.722656 273.519531 C 284.84375 271.046875 283.25 269.261719 283.183594 269.1875 C 282.976562 268.960938 283 268.613281 283.226562 268.410156 C 283.453125 268.207031 283.800781 268.230469 284.003906 268.457031 C 284.019531 268.472656 285.621094 270.261719 288.441406 272.683594 C 288.667969 272.882812 288.695312 273.230469 288.496094 273.460938 C 288.390625 273.589844 288.234375 273.652344 288.078125 273.652344 " fill-opacity="1" fill-rule="nonzero"/><path fill="#000000" d="M 305.335938 293.757812 C 305.261719 293.757812 305.191406 293.746094 305.117188 293.714844 C 287.28125 286.015625 278.347656 273.035156 278.261719 272.902344 C 278.089844 272.652344 278.15625 272.308594 278.40625 272.136719 C 278.660156 271.96875 279 272.035156 279.171875 272.285156 C 279.257812 272.414062 288.023438 285.136719 305.554688 292.703125 C 305.832031 292.824219 305.960938 293.148438 305.839844 293.425781 C 305.75 293.636719 305.550781 293.757812 305.335938 293.757812 " fill-opacity="1" fill-rule="nonzero"/><path fill="#000000" d="M 299.621094 300.28125 C 299.53125 300.28125 299.441406 300.261719 299.359375 300.21875 C 280.851562 290.367188 272.800781 275.679688 272.71875 275.53125 C 272.578125 275.265625 272.675781 274.933594 272.945312 274.785156 C 273.214844 274.644531 273.546875 274.742188 273.691406 275.011719 C 273.769531 275.15625 281.675781 289.558594 299.878906 299.246094 C 300.144531 299.386719 300.246094 299.722656 300.105469 299.988281 C 300.007812 300.175781 299.816406 300.28125 299.621094 300.28125 " fill-opacity="1" fill-rule="nonzero"/><path fill="#000000" d="M 292.269531 306.308594 C 292.179688 306.308594 292.09375 306.285156 292.011719 306.242188 C 288.699219 304.511719 285.492188 302.308594 282.480469 299.6875 C 282.25 299.488281 282.226562 299.140625 282.429688 298.910156 C 282.625 298.683594 282.976562 298.65625 283.207031 298.855469 C 286.152344 301.421875 289.285156 303.578125 292.523438 305.269531 C 292.792969 305.410156 292.894531 305.742188 292.753906 306.011719 C 292.65625 306.199219 292.464844 306.308594 292.269531 306.308594 " fill-opacity="1" fill-rule="nonzero"/><path fill="#000000" d="M 278.222656 295.316406 C 278.074219 295.316406 277.925781 295.253906 277.820312 295.136719 C 270.238281 286.886719 266.59375 278.355469 266.558594 278.273438 C 266.441406 277.992188 266.570312 277.667969 266.851562 277.550781 C 267.132812 277.433594 267.457031 277.5625 267.574219 277.84375 C 267.609375 277.925781 271.183594 286.285156 278.628906 294.390625 C 278.835938 294.613281 278.820312 294.964844 278.59375 295.171875 C 278.488281 295.265625 278.355469 295.316406 278.222656 295.316406 " fill-opacity="1" fill-rule="nonzero"/><path fill="#000000" d="M 221.441406 100.144531 C 221.347656 100.144531 221.253906 100.121094 221.167969 100.070312 C 200.402344 88.089844 183.691406 65.933594 183.527344 65.710938 C 183.34375 65.464844 183.394531 65.121094 183.636719 64.941406 C 183.878906 64.757812 184.226562 64.808594 184.40625 65.050781 C 184.574219 65.269531 201.152344 87.25 221.71875 99.117188 C 221.980469 99.269531 222.070312 99.605469 221.917969 99.867188 C 221.816406 100.042969 221.632812 100.144531 221.441406 100.144531 " fill-opacity="1" fill-rule="nonzero"/><path fill="#000000" d="M 217.769531 103.816406 C 217.675781 103.816406 217.582031 103.792969 217.492188 103.742188 C 206 97.109375 195.824219 87.414062 189.3125 80.449219 C 189.101562 80.226562 189.113281 79.878906 189.335938 79.671875 C 189.558594 79.464844 189.90625 79.472656 190.113281 79.699219 C 196.574219 86.609375 206.664062 96.222656 218.042969 102.789062 C 218.308594 102.941406 218.398438 103.277344 218.246094 103.542969 C 218.144531 103.71875 217.960938 103.816406 217.769531 103.816406 " fill-opacity="1" fill-rule="nonzero"/><path fill="#000000" d="M 184.070312 76.457031 L 186.351562 78.667969 L 186.890625 75.589844 C 186.199219 75.785156 185.164062 76.09375 184.070312 76.457031 Z M 186.710938 80.335938 C 186.574219 80.335938 186.433594 80.28125 186.332031 80.179688 L 182.660156 76.625 C 182.523438 76.492188 182.464844 76.296875 182.503906 76.109375 C 182.542969 75.925781 182.679688 75.773438 182.859375 75.710938 C 185.097656 74.914062 187.417969 74.304688 187.441406 74.296875 C 187.621094 74.25 187.816406 74.300781 187.953125 74.425781 C 188.089844 74.554688 188.15625 74.742188 188.121094 74.925781 L 187.253906 79.882812 C 187.222656 80.082031 187.078125 80.246094 186.882812 80.308594 C 186.828125 80.328125 186.769531 80.335938 186.710938 80.335938 " fill-opacity="1" fill-rule="nonzero"/><path fill="#000000" d="M 327.539062 214.039062 C 327.507812 214.039062 327.472656 214.039062 327.441406 214.03125 C 327.140625 213.980469 326.941406 213.691406 326.996094 213.390625 C 330.085938 196.15625 327.050781 183.105469 323.960938 175.191406 C 320.613281 166.613281 316.476562 162.050781 316.4375 162.003906 C 316.230469 161.78125 316.246094 161.433594 316.46875 161.226562 C 316.695312 161.023438 317.042969 161.035156 317.246094 161.261719 C 317.421875 161.449219 321.539062 165.984375 324.964844 174.734375 C 328.121094 182.789062 331.21875 196.066406 328.078125 213.585938 C 328.03125 213.855469 327.800781 214.039062 327.539062 214.039062 " fill-opacity="1" fill-rule="nonzero"/><path fill="#000000" d="M 324.496094 189.816406 C 324.226562 189.816406 323.992188 189.617188 323.953125 189.34375 C 321.464844 171.640625 312.851562 162.101562 312.765625 162.007812 C 312.558594 161.78125 312.574219 161.433594 312.796875 161.226562 C 313.019531 161.023438 313.371094 161.035156 313.574219 161.261719 C 313.664062 161.355469 322.507812 171.148438 325.042969 189.191406 C 325.085938 189.492188 324.875 189.769531 324.574219 189.8125 C 324.550781 189.816406 324.523438 189.816406 324.496094 189.816406 " fill-opacity="1" fill-rule="nonzero"/><path fill="#000000" d="M 323.820312 193.835938 C 323.621094 193.835938 323.421875 193.878906 323.234375 193.964844 C 322.484375 194.300781 322.148438 195.195312 322.476562 195.964844 C 322.636719 196.335938 322.929688 196.621094 323.300781 196.765625 C 323.660156 196.90625 324.054688 196.898438 324.40625 196.738281 C 325.15625 196.402344 325.496094 195.503906 325.164062 194.738281 C 325.003906 194.363281 324.710938 194.078125 324.339844 193.933594 C 324.171875 193.871094 323.996094 193.835938 323.820312 193.835938 Z M 323.820312 197.964844 C 323.511719 197.964844 323.199219 197.90625 322.902344 197.792969 C 322.253906 197.539062 321.746094 197.046875 321.464844 196.398438 C 320.898438 195.082031 321.488281 193.542969 322.78125 192.960938 C 323.40625 192.679688 324.097656 192.660156 324.738281 192.90625 C 325.386719 193.160156 325.894531 193.65625 326.175781 194.300781 C 326.742188 195.617188 326.152344 197.160156 324.859375 197.742188 C 324.527344 197.890625 324.175781 197.964844 323.820312 197.964844 " fill-opacity="1" fill-rule="nonzero"/><path fill="#000000" d="M 263.398438 168.742188 C 263.261719 168.742188 263.125 168.691406 263.015625 168.589844 C 262.796875 168.382812 262.789062 168.03125 263 167.8125 L 264.734375 166 C 264.945312 165.78125 265.292969 165.773438 265.511719 165.984375 C 265.730469 166.195312 265.738281 166.542969 265.527344 166.761719 L 263.796875 168.574219 C 263.6875 168.6875 263.542969 168.742188 263.398438 168.742188 " fill-opacity="1" fill-rule="nonzero"/><path fill="#000000" d="M 257.332031 175.082031 C 257.195312 175.082031 257.058594 175.03125 256.953125 174.929688 C 256.734375 174.71875 256.726562 174.371094 256.933594 174.152344 L 258.667969 172.339844 C 258.878906 172.121094 259.226562 172.113281 259.445312 172.324219 C 259.667969 172.53125 259.671875 172.882812 259.464844 173.101562 L 257.730469 174.914062 C 257.625 175.023438 257.476562 175.082031 257.332031 175.082031 " fill-opacity="1" fill-rule="nonzero"/><path fill="#000000" d="M 259.035156 168.839844 C 258.894531 168.839844 258.753906 168.789062 258.648438 168.683594 L 256.886719 166.949219 C 256.671875 166.738281 256.667969 166.386719 256.882812 166.167969 C 257.097656 165.953125 257.445312 165.953125 257.660156 166.164062 L 259.421875 167.898438 C 259.636719 168.113281 259.636719 168.460938 259.425781 168.675781 C 259.320312 168.785156 259.175781 168.839844 259.035156 168.839844 " fill-opacity="1" fill-rule="nonzero"/><path fill="#000000" d="M 265.191406 174.90625 C 265.050781 174.90625 264.910156 174.855469 264.804688 174.75 L 263.042969 173.015625 C 262.828125 172.804688 262.824219 172.453125 263.039062 172.238281 C 263.25 172.023438 263.601562 172.019531 263.816406 172.230469 L 265.574219 173.964844 C 265.792969 174.179688 265.796875 174.527344 265.582031 174.742188 C 265.472656 174.851562 265.332031 174.90625 265.191406 174.90625 " fill-opacity="1" fill-rule="nonzero"/><path fill="#000000" d="M 244.945312 146.101562 Z M 246.300781 146.355469 C 245.914062 146.355469 245.53125 146.4375 245.167969 146.601562 C 243.738281 147.246094 243.089844 148.957031 243.71875 150.421875 C 244.027344 151.136719 244.589844 151.683594 245.300781 151.957031 C 245.996094 152.230469 246.753906 152.207031 247.433594 151.902344 C 248.863281 151.261719 249.511719 149.546875 248.878906 148.082031 C 248.574219 147.367188 248.011719 146.824219 247.300781 146.546875 C 246.976562 146.421875 246.636719 146.355469 246.300781 146.355469 Z M 246.300781 153.25 C 245.832031 153.25 245.355469 153.160156 244.902344 152.984375 C 243.914062 152.601562 243.136719 151.84375 242.710938 150.855469 C 241.839844 148.84375 242.742188 146.484375 244.714844 145.597656 C 245.667969 145.171875 246.726562 145.140625 247.699219 145.519531 C 248.6875 145.90625 249.464844 146.660156 249.890625 147.648438 C 250.757812 149.660156 249.859375 152.019531 247.886719 152.90625 C 247.378906 153.136719 246.839844 153.25 246.300781 153.25 " fill-opacity="1" fill-rule="nonzero"/><path fill="#000000" d="M 227.28125 186.648438 C 225.855469 187.292969 225.203125 189.007812 225.835938 190.46875 C 226.140625 191.183594 226.703125 191.730469 227.414062 192.007812 C 228.109375 192.277344 228.867188 192.257812 229.546875 191.949219 C 230.976562 191.308594 231.625 189.59375 230.992188 188.132812 C 230.6875 187.417969 230.125 186.871094 229.414062 186.59375 C 228.722656 186.324219 227.960938 186.34375 227.28125 186.648438 Z M 228.414062 193.296875 C 227.945312 193.296875 227.472656 193.207031 227.015625 193.03125 C 226.027344 192.648438 225.25 191.894531 224.824219 190.90625 C 223.957031 188.894531 224.859375 186.53125 226.832031 185.648438 C 227.78125 185.21875 228.84375 185.191406 229.8125 185.566406 C 230.800781 185.953125 231.582031 186.707031 232.003906 187.695312 C 232.875 189.707031 231.972656 192.066406 230 192.953125 C 229.492188 193.183594 228.953125 193.296875 228.414062 193.296875 " fill-opacity="1" fill-rule="nonzero"/></svg>